<?xml version="1.0" encoding="UTF-8" standalone="no"?><svg xmlns="http://www.w3.org/2000/svg" xmlns:xlink="http://www.w3.org/1999/xlink" contentScriptType="application/ecmascript" contentStyleType="text/css" height="1304px" preserveAspectRatio="none" style="width:1709px;height:1304px;background:#FFFFFF;" version="1.1" viewBox="0 0 1709 1304" width="1709px" zoomAndPan="magnify"><defs/><g><rect fill="#FFFFFF" height="571.5324" style="stroke:#FFFFFF;stroke-width:1.0;" width="10" x="779.5" y="68.1358"/><line style="stroke:#383838;stroke-width:1.0;" x1="779.5" x2="779.5" y1="68.1358" y2="639.6682"/><line style="stroke:#383838;stroke-width:1.0;" x1="789.5" x2="789.5" y1="68.1358" y2="639.6682"/><line style="stroke:#383838;stroke-width:1.0;" x1="779.5" x2="789.5" y1="68.1358" y2="68.1358"/><rect fill="#FFFFFF" height="176.2361" style="stroke:#FFFFFF;stroke-width:1.0;" width="10" x="779.5" y="667.6682"/><line style="stroke:#383838;stroke-width:1.0;" x1="779.5" x2="779.5" y1="667.6682" y2="843.9043"/><line style="stroke:#383838;stroke-width:1.0;" x1="789.5" x2="789.5" y1="667.6682" y2="843.9043"/><rect fill="#FFFFFF" height="193.9421" style="stroke:#FFFFFF;stroke-width:1.0;" width="10" x="779.5" y="871.9043"/><line style="stroke:#383838;stroke-width:1.0;" x1="779.5" x2="779.5" y1="871.9043" y2="1065.8464"/><line style="stroke:#383838;stroke-width:1.0;" x1="789.5" x2="789.5" y1="871.9043" y2="1065.8464"/><rect fill="#FFFFFF" height="194.9421" style="stroke:#FFFFFF;stroke-width:1.0;" width="10" x="779.5" y="1093.8464"/><line style="stroke:#383838;stroke-width:1.0;" x1="779.5" x2="779.5" y1="1093.8464" y2="1288.7885"/><line style="stroke:#383838;stroke-width:1.0;" x1="789.5" x2="789.5" y1="1093.8464" y2="1288.7885"/><line style="stroke:#383838;stroke-width:1.0;" x1="779.5" x2="789.5" y1="1288.7885" y2="1288.7885"/><rect fill="#FFFFFF" height="571.5324" style="stroke:#FFFFFF;stroke-width:1.0;" width="10" x="1264" y="68.1358"/><line style="stroke:#383838;stroke-width:1.0;" x1="1264" x2="1264" y1="68.1358" y2="639.6682"/><line style="stroke:#383838;stroke-width:1.0;" x1="1274" x2="1274" y1="68.1358" y2="639.6682"/><line style="stroke:#383838;stroke-width:1.0;" x1="1264" x2="1274" y1="68.1358" y2="68.1358"/><rect fill="#FFFFFF" height="176.2361" style="stroke:#FFFFFF;stroke-width:1.0;" width="10" x="1264" y="667.6682"/><line style="stroke:#383838;stroke-width:1.0;" x1="1264" x2="1264" y1="667.6682" y2="843.9043"/><line style="stroke:#383838;stroke-width:1.0;" x1="1274" x2="1274" y1="667.6682" y2="843.9043"/><rect fill="#FFFFFF" height="193.9421" style="stroke:#FFFFFF;stroke-width:1.0;" width="10" x="1264" y="871.9043"/><line style="stroke:#383838;stroke-width:1.0;" x1="1264" x2="1264" y1="871.9043" y2="1065.8464"/><line style="stroke:#383838;stroke-width:1.0;" x1="1274" x2="1274" y1="871.9043" y2="1065.8464"/><rect fill="#FFFFFF" height="194.9421" style="stroke:#FFFFFF;stroke-width:1.0;" width="10" x="1264" y="1093.8464"/><line style="stroke:#383838;stroke-width:1.0;" x1="1264" x2="1264" y1="1093.8464" y2="1288.7885"/><line style="stroke:#383838;stroke-width:1.0;" x1="1274" x2="1274" y1="1093.8464" y2="1288.7885"/><line style="stroke:#383838;stroke-width:1.0;" x1="1264" x2="1274" y1="1288.7885" y2="1288.7885"/><rect fill="#FFFFFF" height="571.5324" style="stroke:#FFFFFF;stroke-width:1.0;" width="10" x="1502" y="68.1358"/><line style="stroke:#383838;stroke-width:1.0;" x1="1502" x2="1502" y1="68.1358" y2="639.6682"/><line style="stroke:#383838;stroke-width:1.0;" x1="1512" x2="1512" y1="68.1358" y2="639.6682"/><line style="stroke:#383838;stroke-width:1.0;" x1="1502" x2="1512" y1="68.1358" y2="68.1358"/><rect fill="#FFFFFF" height="176.2361" style="stroke:#FFFFFF;stroke-width:1.0;" width="10" x="1502" y="667.6682"/><line style="stroke:#383838;stroke-width:1.0;" x1="1502" x2="1502" y1="667.6682" y2="843.9043"/><line style="stroke:#383838;stroke-width:1.0;" x1="1512" x2="1512" y1="667.6682" y2="843.9043"/><rect fill="#FFFFFF" height="193.9421" style="stroke:#FFFFFF;stroke-width:1.0;" width="10" x="1502" y="871.9043"/><line style="stroke:#383838;stroke-width:1.0;" x1="1502" x2="1502" y1="871.9043" y2="1065.8464"/><line style="stroke:#383838;stroke-width:1.0;" x1="1512" x2="1512" y1="871.9043" y2="1065.8464"/><rect fill="#FFFFFF" height="194.9421" style="stroke:#FFFFFF;stroke-width:1.0;" width="10" x="1502" y="1093.8464"/><line style="stroke:#383838;stroke-width:1.0;" x1="1502" x2="1502" y1="1093.8464" y2="1288.7885"/><line style="stroke:#383838;stroke-width:1.0;" x1="1512" x2="1512" y1="1093.8464" y2="1288.7885"/><line style="stroke:#383838;stroke-width:1.0;" x1="1502" x2="1512" y1="1288.7885" y2="1288.7885"/><line style="stroke:#383838;stroke-width:1.0;" x1="47" x2="47" y1="58.1358" y2="639.6682"/><line style="stroke:#383838;stroke-width:1.0;stroke-dasharray:1.0,4.0;" x1="47" x2="47" y1="639.6682" y2="667.6682"/><line style="stroke:#383838;stroke-width:1.0;" x1="47" x2="47" y1="667.6682" y2="843.9043"/><line style="stroke:#383838;stroke-width:1.0;stroke-dasharray:1.0,4.0;" x1="47" x2="47" y1="843.9043" y2="871.9043"/><line style="stroke:#383838;stroke-width:1.0;" x1="47" x2="47" y1="871.9043" y2="1065.8464"/><line style="stroke:#383838;stroke-width:1.0;stroke-dasharray:1.0,4.0;" x1="47" x2="47" y1="1065.8464" y2="1093.8464"/><line style="stroke:#383838;stroke-width:1.0;" x1="47" x2="47" y1="1093.8464" y2="1297.7885"/><line style="stroke:#383838;stroke-width:1.0;" x1="175" x2="175" y1="58.1358" y2="639.6682"/><line style="stroke:#383838;stroke-width:1.0;stroke-dasharray:1.0,4.0;" x1="175" x2="175" y1="639.6682" y2="667.6682"/><line style="stroke:#383838;stroke-width:1.0;" x1="175" x2="175" y1="667.6682" y2="843.9043"/><line style="stroke:#383838;stroke-width:1.0;stroke-dasharray:1.0,4.0;" x1="175" x2="175" y1="843.9043" y2="871.9043"/><line style="stroke:#383838;stroke-width:1.0;" x1="175" x2="175" y1="871.9043" y2="1065.8464"/><line style="stroke:#383838;stroke-width:1.0;stroke-dasharray:1.0,4.0;" x1="175" x2="175" y1="1065.8464" y2="1093.8464"/><line style="stroke:#383838;stroke-width:1.0;" x1="175" x2="175" y1="1093.8464" y2="1297.7885"/><line style="stroke:#383838;stroke-width:1.0;" x1="334" x2="334" y1="58.1358" y2="639.6682"/><line style="stroke:#383838;stroke-width:1.0;stroke-dasharray:1.0,4.0;" x1="334" x2="334" y1="639.6682" y2="667.6682"/><line style="stroke:#383838;stroke-width:1.0;" x1="334" x2="334" y1="667.6682" y2="843.9043"/><line style="stroke:#383838;stroke-width:1.0;stroke-dasharray:1.0,4.0;" x1="334" x2="334" y1="843.9043" y2="871.9043"/><line style="stroke:#383838;stroke-width:1.0;" x1="334" x2="334" y1="871.9043" y2="1065.8464"/><line style="stroke:#383838;stroke-width:1.0;stroke-dasharray:1.0,4.0;" x1="334" x2="334" y1="1065.8464" y2="1093.8464"/><line style="stroke:#383838;stroke-width:1.0;" x1="334" x2="334" y1="1093.8464" y2="1297.7885"/><line style="stroke:#383838;stroke-width:1.0;" x1="515" x2="515" y1="58.1358" y2="639.6682"/><line style="stroke:#383838;stroke-width:1.0;stroke-dasharray:1.0,4.0;" x1="515" x2="515" y1="639.6682" y2="667.6682"/><line style="stroke:#383838;stroke-width:1.0;" x1="515" x2="515" y1="667.6682" y2="843.9043"/><line style="stroke:#383838;stroke-width:1.0;stroke-dasharray:1.0,4.0;" x1="515" x2="515" y1="843.9043" y2="871.9043"/><line style="stroke:#383838;stroke-width:1.0;" x1="515" x2="515" y1="871.9043" y2="1065.8464"/><line style="stroke:#383838;stroke-width:1.0;stroke-dasharray:1.0,4.0;" x1="515" x2="515" y1="1065.8464" y2="1093.8464"/><line style="stroke:#383838;stroke-width:1.0;" x1="515" x2="515" y1="1093.8464" y2="1297.7885"/><line style="stroke:#383838;stroke-width:1.0;" x1="784.5" x2="784.5" y1="58.1358" y2="639.6682"/><line style="stroke:#383838;stroke-width:1.0;stroke-dasharray:1.0,4.0;" x1="784.5" x2="784.5" y1="639.6682" y2="667.6682"/><line style="stroke:#383838;stroke-width:1.0;" x1="784.5" x2="784.5" y1="667.6682" y2="843.9043"/><line style="stroke:#383838;stroke-width:1.0;stroke-dasharray:1.0,4.0;" x1="784.5" x2="784.5" y1="843.9043" y2="871.9043"/><line style="stroke:#383838;stroke-width:1.0;" x1="784.5" x2="784.5" y1="871.9043" y2="1065.8464"/><line style="stroke:#383838;stroke-width:1.0;stroke-dasharray:1.0,4.0;" x1="784.5" x2="784.5" y1="1065.8464" y2="1093.8464"/><line style="stroke:#383838;stroke-width:1.0;" x1="784.5" x2="784.5" y1="1093.8464" y2="1297.7885"/><line style="stroke:#383838;stroke-width:1.0;" x1="969" x2="969" y1="58.1358" y2="639.6682"/><line style="stroke:#383838;stroke-width:1.0;stroke-dasharray:1.0,4.0;" x1="969" x2="969" y1="639.6682" y2="667.6682"/><line style="stroke:#383838;stroke-width:1.0;" x1="969" x2="969" y1="667.6682" y2="843.9043"/><line style="stroke:#383838;stroke-width:1.0;stroke-dasharray:1.0,4.0;" x1="969" x2="969" y1="843.9043" y2="871.9043"/><line style="stroke:#383838;stroke-width:1.0;" x1="969" x2="969" y1="871.9043" y2="1065.8464"/><line style="stroke:#383838;stroke-width:1.0;stroke-dasharray:1.0,4.0;" x1="969" x2="969" y1="1065.8464" y2="1093.8464"/><line style="stroke:#383838;stroke-width:1.0;" x1="969" x2="969" y1="1093.8464" y2="1297.7885"/><line style="stroke:#383838;stroke-width:1.0;" x1="1111" x2="1111" y1="58.1358" y2="639.6682"/><line style="stroke:#383838;stroke-width:1.0;stroke-dasharray:1.0,4.0;" x1="1111" x2="1111" y1="639.6682" y2="667.6682"/><line style="stroke:#383838;stroke-width:1.0;" x1="1111" x2="1111" y1="667.6682" y2="843.9043"/><line style="stroke:#383838;stroke-width:1.0;stroke-dasharray:1.0,4.0;" x1="1111" x2="1111" y1="843.9043" y2="871.9043"/><line style="stroke:#383838;stroke-width:1.0;" x1="1111" x2="1111" y1="871.9043" y2="1065.8464"/><line style="stroke:#383838;stroke-width:1.0;stroke-dasharray:1.0,4.0;" x1="1111" x2="1111" y1="1065.8464" y2="1093.8464"/><line style="stroke:#383838;stroke-width:1.0;" x1="1111" x2="1111" y1="1093.8464" y2="1297.7885"/><line style="stroke:#383838;stroke-width:1.0;" x1="1269" x2="1269" y1="58.1358" y2="639.6682"/><line style="stroke:#383838;stroke-width:1.0;stroke-dasharray:1.0,4.0;" x1="1269" x2="1269" y1="639.6682" y2="667.6682"/><line style="stroke:#383838;stroke-width:1.0;" x1="1269" x2="1269" y1="667.6682" y2="843.9043"/><line style="stroke:#383838;stroke-width:1.0;stroke-dasharray:1.0,4.0;" x1="1269" x2="1269" y1="843.9043" y2="871.9043"/><line style="stroke:#383838;stroke-width:1.0;" x1="1269" x2="1269" y1="871.9043" y2="1065.8464"/><line style="stroke:#383838;stroke-width:1.0;stroke-dasharray:1.0,4.0;" x1="1269" x2="1269" y1="1065.8464" y2="1093.8464"/><line style="stroke:#383838;stroke-width:1.0;" x1="1269" x2="1269" y1="1093.8464" y2="1297.7885"/><line style="stroke:#383838;stroke-width:1.0;" x1="1507" x2="1507" y1="58.1358" y2="639.6682"/><line style="stroke:#383838;stroke-width:1.0;stroke-dasharray:1.0,4.0;" x1="1507" x2="1507" y1="639.6682" y2="667.6682"/><line style="stroke:#383838;stroke-width:1.0;" x1="1507" x2="1507" y1="667.6682" y2="843.9043"/><line style="stroke:#383838;stroke-width:1.0;stroke-dasharray:1.0,4.0;" x1="1507" x2="1507" y1="843.9043" y2="871.9043"/><line style="stroke:#383838;stroke-width:1.0;" x1="1507" x2="1507" y1="871.9043" y2="1065.8464"/><line style="stroke:#383838;stroke-width:1.0;stroke-dasharray:1.0,4.0;" x1="1507" x2="1507" y1="1065.8464" y2="1093.8464"/><line style="stroke:#383838;stroke-width:1.0;" x1="1507" x2="1507" y1="1093.8464" y2="1297.7885"/><rect fill="#F8F8F8" height="33.0679" style="stroke:#383838;stroke-width:1.5;" width="84" x="5" y="24.0679"/><text fill="#000000" font-family="sans-serif" font-size="14" lengthAdjust="spacing" textLength="70" x="12" y="46.0339">Data Store</text><rect fill="#F8F8F8" height="52.1358" style="stroke:#383838;stroke-width:1.5;" width="153" x="99" y="5"/><text fill="#000000" font-family="sans-serif" font-size="14" lengthAdjust="spacing" textLength="139" x="106" y="26.9659">Data Processor Slave</text><text fill="#000000" font-family="sans-serif" font-size="14" lengthAdjust="spacing" textLength="57" x="147" y="46.0339">Backend</text><rect fill="#F8F8F8" height="52.1358" style="stroke:#383838;stroke-width:1.5;" width="144" x="262" y="5"/><text fill="#000000" font-family="sans-serif" font-size="14" lengthAdjust="spacing" textLength="130" x="269" y="26.9659">Data Decoder Slave</text><text fill="#000000" font-family="sans-serif" font-size="14" lengthAdjust="spacing" textLength="57" x="305.5" y="46.0339">Backend</text><rect fill="#F8F8F8" height="52.1358" style="stroke:#383838;stroke-width:1.5;" width="199" x="416" y="5"/><text fill="#000000" font-family="sans-serif" font-size="14" lengthAdjust="spacing" textLength="185" x="423" y="26.9659">Identity Management Slave</text><text fill="#000000" font-family="sans-serif" font-size="14" lengthAdjust="spacing" textLength="57" x="487" y="46.0339">Backend</text><rect fill="#F8F8F8" height="33.0679" style="stroke:#383838;stroke-width:1.5;" width="122" x="723.5" y="24.0679"/><text fill="#000000" font-family="sans-serif" font-size="14" lengthAdjust="spacing" textLength="108" x="730.5" y="46.0339">Message Broker</text><rect fill="#F8F8F8" height="52.1358" style="stroke:#383838;stroke-width:1.5;" width="109" x="915" y="5"/><text fill="#000000" font-family="sans-serif" font-size="14" lengthAdjust="spacing" textLength="95" x="922" y="26.9659">Data Validator</text><text fill="#000000" font-family="sans-serif" font-size="14" lengthAdjust="spacing" textLength="57" x="941" y="46.0339">Backend</text><rect fill="#F8F8F8" height="52.1358" style="stroke:#383838;stroke-width:1.5;" width="155" x="1034" y="5"/><text fill="#000000" font-family="sans-serif" font-size="14" lengthAdjust="spacing" textLength="141" x="1041" y="26.9659">Device Records Slave</text><text fill="#000000" font-family="sans-serif" font-size="14" lengthAdjust="spacing" textLength="57" x="1083" y="46.0339">Backend</text><rect fill="#F8F8F8" height="52.1358" style="stroke:#383838;stroke-width:1.5;" width="140" x="1199" y="5"/><text fill="#000000" font-family="sans-serif" font-size="14" lengthAdjust="spacing" textLength="126" x="1206" y="26.9659">Fleet Management</text><text fill="#000000" font-family="sans-serif" font-size="14" lengthAdjust="spacing" textLength="57" x="1240.5" y="46.0339">Backend</text><rect fill="#F8F8F8" height="52.1358" style="stroke:#383838;stroke-width:1.5;" width="140" x="1437" y="5"/><text fill="#000000" font-family="sans-serif" font-size="14" lengthAdjust="spacing" textLength="126" x="1444" y="26.9659">Fleet Management</text><text fill="#000000" font-family="sans-serif" font-size="14" lengthAdjust="spacing" textLength="61" x="1476.5" y="46.0339">Frontend</text><rect fill="#FFFFFF" height="571.5324" style="stroke:#FFFFFF;stroke-width:1.0;" width="10" x="779.5" y="68.1358"/><line style="stroke:#383838;stroke-width:1.0;" x1="779.5" x2="779.5" y1="68.1358" y2="639.6682"/><line style="stroke:#383838;stroke-width:1.0;" x1="789.5" x2="789.5" y1="68.1358" y2="639.6682"/><line style="stroke:#383838;stroke-width:1.0;" x1="779.5" x2="789.5" y1="68.1358" y2="68.1358"/><rect fill="#FFFFFF" height="176.2361" style="stroke:#FFFFFF;stroke-width:1.0;" width="10" x="779.5" y="667.6682"/><line style="stroke:#383838;stroke-width:1.0;" x1="779.5" x2="779.5" y1="667.6682" y2="843.9043"/><line style="stroke:#383838;stroke-width:1.0;" x1="789.5" x2="789.5" y1="667.6682" y2="843.9043"/><rect fill="#FFFFFF" height="193.9421" style="stroke:#FFFFFF;stroke-width:1.0;" width="10" x="779.5" y="871.9043"/><line style="stroke:#383838;stroke-width:1.0;" x1="779.5" x2="779.5" y1="871.9043" y2="1065.8464"/><line style="stroke:#383838;stroke-width:1.0;" x1="789.5" x2="789.5" y1="871.9043" y2="1065.8464"/><rect fill="#FFFFFF" height="194.9421" style="stroke:#FFFFFF;stroke-width:1.0;" width="10" x="779.5" y="1093.8464"/><line style="stroke:#383838;stroke-width:1.0;" x1="779.5" x2="779.5" y1="1093.8464" y2="1288.7885"/><line style="stroke:#383838;stroke-width:1.0;" x1="789.5" x2="789.5" y1="1093.8464" y2="1288.7885"/><line style="stroke:#383838;stroke-width:1.0;" x1="779.5" x2="789.5" y1="1288.7885" y2="1288.7885"/><rect fill="#FFFFFF" height="571.5324" style="stroke:#FFFFFF;stroke-width:1.0;" width="10" x="1264" y="68.1358"/><line style="stroke:#383838;stroke-width:1.0;" x1="1264" x2="1264" y1="68.1358" y2="639.6682"/><line style="stroke:#383838;stroke-width:1.0;" x1="1274" x2="1274" y1="68.1358" y2="639.6682"/><line style="stroke:#383838;stroke-width:1.0;" x1="1264" x2="1274" y1="68.1358" y2="68.1358"/><rect fill="#FFFFFF" height="176.2361" style="stroke:#FFFFFF;stroke-width:1.0;" width="10" x="1264" y="667.6682"/><line style="stroke:#383838;stroke-width:1.0;" x1="1264" x2="1264" y1="667.6682" y2="843.9043"/><line style="stroke:#383838;stroke-width:1.0;" x1="1274" x2="1274" y1="667.6682" y2="843.9043"/><rect fill="#FFFFFF" height="193.9421" style="stroke:#FFFFFF;stroke-width:1.0;" width="10" x="1264" y="871.9043"/><line style="stroke:#383838;stroke-width:1.0;" x1="1264" x2="1264" y1="871.9043" y2="1065.8464"/><line style="stroke:#383838;stroke-width:1.0;" x1="1274" x2="1274" y1="871.9043" y2="1065.8464"/><rect fill="#FFFFFF" height="194.9421" style="stroke:#FFFFFF;stroke-width:1.0;" width="10" x="1264" y="1093.8464"/><line style="stroke:#383838;stroke-width:1.0;" x1="1264" x2="1264" y1="1093.8464" y2="1288.7885"/><line style="stroke:#383838;stroke-width:1.0;" x1="1274" x2="1274" y1="1093.8464" y2="1288.7885"/><line style="stroke:#383838;stroke-width:1.0;" x1="1264" x2="1274" y1="1288.7885" y2="1288.7885"/><rect fill="#FFFFFF" height="571.5324" style="stroke:#FFFFFF;stroke-width:1.0;" width="10" x="1502" y="68.1358"/><line style="stroke:#383838;stroke-width:1.0;" x1="1502" x2="1502" y1="68.1358" y2="639.6682"/><line style="stroke:#383838;stroke-width:1.0;" x1="1512" x2="1512" y1="68.1358" y2="639.6682"/><line style="stroke:#383838;stroke-width:1.0;" x1="1502" x2="1512" y1="68.1358" y2="68.1358"/><rect fill="#FFFFFF" height="176.2361" style="stroke:#FFFFFF;stroke-width:1.0;" width="10" x="1502" y="667.6682"/><line style="stroke:#383838;stroke-width:1.0;" x1="1502" x2="1502" y1="667.6682" y2="843.9043"/><line style="stroke:#383838;stroke-width:1.0;" x1="1512" x2="1512" y1="667.6682" y2="843.9043"/><rect fill="#FFFFFF" height="193.9421" style="stroke:#FFFFFF;stroke-width:1.0;" width="10" x="1502" y="871.9043"/><line style="stroke:#383838;stroke-width:1.0;" x1="1502" x2="1502" y1="871.9043" y2="1065.8464"/><line style="stroke:#383838;stroke-width:1.0;" x1="1512" x2="1512" y1="871.9043" y2="1065.8464"/><rect fill="#FFFFFF" height="194.9421" style="stroke:#FFFFFF;stroke-width:1.0;" width="10" x="1502" y="1093.8464"/><line style="stroke:#383838;stroke-width:1.0;" x1="1502" x2="1502" y1="1093.8464" y2="1288.7885"/><line style="stroke:#383838;stroke-width:1.0;" x1="1512" x2="1512" y1="1093.8464" y2="1288.7885"/><line style="stroke:#383838;stroke-width:1.0;" x1="1502" x2="1512" y1="1288.7885" y2="1288.7885"/><rect fill="#EEEEEE" height="3" style="stroke:#EEEEEE;stroke-width:1.0;" width="1702" x="0" y="89.9888"/><line style="stroke:#000000;stroke-width:1.0;" x1="0" x2="1702" y1="89.9888" y2="89.9888"/><line style="stroke:#000000;stroke-width:1.0;" x1="0" x2="1702" y1="92.9888" y2="92.9888"/><rect fill="#EEEEEE" height="25.706" style="stroke:#000000;stroke-width:2.0;" width="102" x="800" y="78.1358"/><text fill="#000000" font-family="sans-serif" font-size="13" font-weight="bold" lengthAdjust="spacing" textLength="85" x="806" y="96.0328">Initialization</text><polygon fill="#383838" points="767.5,133.5479,777.5,137.5479,767.5,141.5479" style="stroke:#383838;stroke-width:1.0;"/><line style="stroke:#383838;stroke-width:1.0;" x1="47" x2="773.5" y1="137.5479" y2="137.5479"/><text fill="#000000" font-family="sans-serif" font-size="13" font-weight="bold" lengthAdjust="spacing" textLength="18" x="345.25" y="131.7389">1.1</text><text fill="#000000" font-family="sans-serif" font-size="13" lengthAdjust="spacing" textLength="114" x="367.25" y="131.7389">subscribe to X data</text><polygon fill="#383838" points="767.5,182.9599,777.5,186.9599,767.5,190.9599" style="stroke:#383838;stroke-width:1.0;"/><line style="stroke:#383838;stroke-width:1.0;" x1="175.5" x2="773.5" y1="186.9599" y2="186.9599"/><text fill="#000000" font-family="sans-serif" font-size="13" font-weight="bold" lengthAdjust="spacing" textLength="18" x="398.5" y="172.2979">1.2</text><text fill="#000000" font-family="sans-serif" font-size="13" lengthAdjust="spacing" textLength="101" x="438" y="163.4449">subscribe to new</text><text fill="#000000" font-family="sans-serif" font-size="13" lengthAdjust="spacing" textLength="136" x="420.5" y="181.1509">X decoded sensor data</text><polygon fill="#383838" points="767.5,232.3719,777.5,236.3719,767.5,240.3719" style="stroke:#383838;stroke-width:1.0;"/><line style="stroke:#383838;stroke-width:1.0;" x1="175.5" x2="773.5" y1="236.3719" y2="236.3719"/><text fill="#000000" font-family="sans-serif" font-size="13" font-weight="bold" lengthAdjust="spacing" textLength="18" x="403.5" y="221.7099">1.3</text><text fill="#000000" font-family="sans-serif" font-size="13" lengthAdjust="spacing" textLength="126" x="425.5" y="212.8569">subscribe to changes</text><text fill="#000000" font-family="sans-serif" font-size="13" lengthAdjust="spacing" textLength="111" x="434.5" y="230.5629">in transformations</text><polygon fill="#383838" points="767.5,281.784,777.5,285.784,767.5,289.784" style="stroke:#383838;stroke-width:1.0;"/><line style="stroke:#383838;stroke-width:1.0;" x1="334" x2="773.5" y1="285.784" y2="285.784"/><text fill="#000000" font-family="sans-serif" font-size="13" font-weight="bold" lengthAdjust="spacing" textLength="18" x="477.75" y="271.122">1.4</text><text fill="#000000" font-family="sans-serif" font-size="13" lengthAdjust="spacing" textLength="101" x="517.25" y="262.2689">subscribe to new</text><text fill="#000000" font-family="sans-serif" font-size="13" lengthAdjust="spacing" textLength="136" x="499.75" y="279.975">X encoded sensor data</text><polygon fill="#383838" points="767.5,331.196,777.5,335.196,767.5,339.196" style="stroke:#383838;stroke-width:1.0;"/><line style="stroke:#383838;stroke-width:1.0;" x1="334" x2="773.5" y1="335.196" y2="335.196"/><text fill="#000000" font-family="sans-serif" font-size="13" font-weight="bold" lengthAdjust="spacing" textLength="18" x="482.75" y="320.534">1.5</text><text fill="#000000" font-family="sans-serif" font-size="13" lengthAdjust="spacing" textLength="126" x="504.75" y="311.681">subscribe to changes</text><text fill="#000000" font-family="sans-serif" font-size="13" lengthAdjust="spacing" textLength="69" x="534.75" y="329.387">in decoders</text><polygon fill="#383838" points="800.5,380.608,790.5,384.608,800.5,388.608" style="stroke:#383838;stroke-width:1.0;"/><line style="stroke:#383838;stroke-width:1.0;" x1="794.5" x2="968.5" y1="384.608" y2="384.608"/><text fill="#000000" font-family="sans-serif" font-size="13" font-weight="bold" lengthAdjust="spacing" textLength="18" x="801.5" y="369.946">1.6</text><text fill="#000000" font-family="sans-serif" font-size="13" lengthAdjust="spacing" textLength="101" x="840" y="361.093">subscribe to new</text><text fill="#000000" font-family="sans-serif" font-size="13" lengthAdjust="spacing" textLength="134" x="823.5" y="378.799">processed sensor data</text><polygon fill="#383838" points="767.5,430.0201,777.5,434.0201,767.5,438.0201" style="stroke:#383838;stroke-width:1.0;"/><line style="stroke:#383838;stroke-width:1.0;" x1="515.5" x2="773.5" y1="434.0201" y2="434.0201"/><text fill="#000000" font-family="sans-serif" font-size="13" font-weight="bold" lengthAdjust="spacing" textLength="18" x="527.5" y="419.3581">1.7</text><text fill="#000000" font-family="sans-serif" font-size="13" lengthAdjust="spacing" textLength="101" x="608" y="410.505">subscribe to new</text><text fill="#000000" font-family="sans-serif" font-size="13" lengthAdjust="spacing" textLength="218" x="549.5" y="428.2111">processed and validated sensor data</text><polygon fill="#383838" points="767.5,479.4321,777.5,483.4321,767.5,487.4321" style="stroke:#383838;stroke-width:1.0;"/><line style="stroke:#383838;stroke-width:1.0;" x1="515.5" x2="773.5" y1="483.4321" y2="483.4321"/><text fill="#000000" font-family="sans-serif" font-size="13" font-weight="bold" lengthAdjust="spacing" textLength="18" x="573.5" y="468.7701">1.8</text><text fill="#000000" font-family="sans-serif" font-size="13" lengthAdjust="spacing" textLength="126" x="595.5" y="459.9171">subscribe to changes</text><text fill="#000000" font-family="sans-serif" font-size="13" lengthAdjust="spacing" textLength="107" x="606.5" y="477.6231">in devices identity</text><polygon fill="#383838" points="800.5,528.8441,790.5,532.8441,800.5,536.8441" style="stroke:#383838;stroke-width:1.0;"/><line style="stroke:#383838;stroke-width:1.0;" x1="794.5" x2="1110.5" y1="532.8441" y2="532.8441"/><text fill="#000000" font-family="sans-serif" font-size="13" font-weight="bold" lengthAdjust="spacing" textLength="18" x="863" y="518.1821">1.9</text><text fill="#000000" font-family="sans-serif" font-size="13" lengthAdjust="spacing" textLength="101" x="911" y="509.3291">subscribe to new</text><text fill="#000000" font-family="sans-serif" font-size="13" lengthAdjust="spacing" textLength="153" x="885" y="527.0351">gps sensor data validated</text><polygon fill="#383838" points="800.5,578.2562,790.5,582.2562,800.5,586.2562" style="stroke:#383838;stroke-width:1.0;"/><line style="stroke:#383838;stroke-width:1.0;" x1="794.5" x2="1110.5" y1="582.2562" y2="582.2562"/><text fill="#000000" font-family="sans-serif" font-size="13" font-weight="bold" lengthAdjust="spacing" textLength="25" x="873" y="567.5942">1.10</text><text fill="#000000" font-family="sans-serif" font-size="13" lengthAdjust="spacing" textLength="126" x="902" y="558.7411">subscribe to changes</text><text fill="#000000" font-family="sans-serif" font-size="13" lengthAdjust="spacing" textLength="100" x="916.5" y="576.4472">in device records</text><polygon fill="#383838" points="800.5,627.6682,790.5,631.6682,800.5,635.6682" style="stroke:#383838;stroke-width:1.0;"/><line style="stroke:#383838;stroke-width:1.0;" x1="794.5" x2="1263" y1="631.6682" y2="631.6682"/><text fill="#000000" font-family="sans-serif" font-size="13" font-weight="bold" lengthAdjust="spacing" textLength="25" x="897.25" y="617.0062">1.11</text><text fill="#000000" font-family="sans-serif" font-size="13" lengthAdjust="spacing" textLength="101" x="990.75" y="608.1532">subscribe to new</text><text fill="#000000" font-family="sans-serif" font-size="13" lengthAdjust="spacing" textLength="230" x="926.25" y="625.8592">validated gps sensor data with records</text><rect fill="#EEEEEE" height="3" style="stroke:#EEEEEE;stroke-width:1.0;" width="1702" x="0" y="689.5212"/><line style="stroke:#000000;stroke-width:1.0;" x1="0" x2="1702" y1="689.5212" y2="689.5212"/><line style="stroke:#000000;stroke-width:1.0;" x1="0" x2="1702" y1="692.5212" y2="692.5212"/><rect fill="#EEEEEE" height="25.706" style="stroke:#000000;stroke-width:2.0;" width="137" x="782.5" y="677.6682"/><text fill="#000000" font-family="sans-serif" font-size="13" font-weight="bold" lengthAdjust="spacing" textLength="120" x="788.5" y="695.5652">UC01 Initialization</text><polygon fill="#383838" points="1523,733.0802,1513,737.0802,1523,741.0802" style="stroke:#383838;stroke-width:1.0;"/><line style="stroke:#383838;stroke-width:1.0;" x1="1517" x2="1701" y1="737.0802" y2="737.0802"/><text fill="#000000" font-family="sans-serif" font-size="13" font-weight="bold" lengthAdjust="spacing" textLength="18" x="1539" y="731.2712">2.1</text><text fill="#000000" font-family="sans-serif" font-size="13" lengthAdjust="spacing" textLength="114" x="1561" y="731.2712">user acesses the UI</text><polygon fill="#383838" points="1285,782.4923,1275,786.4923,1285,790.4923" style="stroke:#383838;stroke-width:1.0;"/><line style="stroke:#383838;stroke-width:1.0;" x1="1279" x2="1501" y1="786.4923" y2="786.4923"/><text fill="#000000" font-family="sans-serif" font-size="13" font-weight="bold" lengthAdjust="spacing" textLength="18" x="1324.5" y="771.8303">2.2</text><text fill="#000000" font-family="sans-serif" font-size="13" lengthAdjust="spacing" textLength="105" x="1346.5" y="762.9772">fetch last location</text><text fill="#000000" font-family="sans-serif" font-size="13" lengthAdjust="spacing" textLength="86" x="1357.5" y="780.6833">of each sensor</text><polygon fill="#383838" points="1285,831.9043,1275,835.9043,1285,839.9043" style="stroke:#383838;stroke-width:1.0;"/><line style="stroke:#383838;stroke-width:1.0;" x1="1279" x2="1501" y1="835.9043" y2="835.9043"/><text fill="#000000" font-family="sans-serif" font-size="13" font-weight="bold" lengthAdjust="spacing" textLength="18" x="1326.5" y="821.2423">2.3</text><text fill="#000000" font-family="sans-serif" font-size="13" lengthAdjust="spacing" textLength="101" x="1348.5" y="812.3893">subscribe to new</text><text fill="#000000" font-family="sans-serif" font-size="13" lengthAdjust="spacing" textLength="95" x="1351.5" y="830.0953">gps sensor data</text><rect fill="#EEEEEE" height="3" style="stroke:#EEEEEE;stroke-width:1.0;" width="1702" x="0" y="893.7573"/><line style="stroke:#000000;stroke-width:1.0;" x1="0" x2="1702" y1="893.7573" y2="893.7573"/><line style="stroke:#000000;stroke-width:1.0;" x1="0" x2="1702" y1="896.7573" y2="896.7573"/><rect fill="#EEEEEE" height="25.706" style="stroke:#000000;stroke-width:2.0;" width="137" x="782.5" y="881.9043"/><text fill="#000000" font-family="sans-serif" font-size="13" font-weight="bold" lengthAdjust="spacing" textLength="120" x="788.5" y="899.8013">UC02 Initialization</text><polygon fill="#383838" points="1523,955.0223,1513,959.0223,1523,963.0223" style="stroke:#383838;stroke-width:1.0;"/><line style="stroke:#383838;stroke-width:1.0;" x1="1517" x2="1701" y1="959.0223" y2="959.0223"/><text fill="#000000" font-family="sans-serif" font-size="13" font-weight="bold" lengthAdjust="spacing" textLength="18" x="1524" y="944.3603">3.1</text><text fill="#000000" font-family="sans-serif" font-size="13" lengthAdjust="spacing" textLength="104" x="1566" y="935.5073">user wants to see</text><text fill="#000000" font-family="sans-serif" font-size="13" lengthAdjust="spacing" textLength="144" x="1546" y="953.2133">array of gps sensor data</text><polygon fill="#383838" points="1285,1004.4344,1275,1008.4344,1285,1012.4344" style="stroke:#383838;stroke-width:1.0;"/><line style="stroke:#383838;stroke-width:1.0;" x1="1279" x2="1501" y1="1008.4344" y2="1008.4344"/><text fill="#000000" font-family="sans-serif" font-size="13" font-weight="bold" lengthAdjust="spacing" textLength="18" x="1310.5" y="993.7724">3.2</text><text fill="#000000" font-family="sans-serif" font-size="13" lengthAdjust="spacing" textLength="133" x="1332.5" y="984.9194">unsubscribe from new</text><text fill="#000000" font-family="sans-serif" font-size="13" lengthAdjust="spacing" textLength="95" x="1351.5" y="1002.6254">gps sensor data</text><polygon fill="#383838" points="1285,1053.8464,1275,1057.8464,1285,1061.8464" style="stroke:#383838;stroke-width:1.0;"/><line style="stroke:#383838;stroke-width:1.0;" x1="1279" x2="1501" y1="1057.8464" y2="1057.8464"/><text fill="#000000" font-family="sans-serif" font-size="13" font-weight="bold" lengthAdjust="spacing" textLength="18" x="1302" y="1043.1844">3.3</text><text fill="#000000" font-family="sans-serif" font-size="13" lengthAdjust="spacing" textLength="150" x="1324" y="1034.3314">subscribe to array of new</text><text fill="#000000" font-family="sans-serif" font-size="13" lengthAdjust="spacing" textLength="95" x="1351.5" y="1052.0374">gps sensor data</text><rect fill="#EEEEEE" height="3" style="stroke:#EEEEEE;stroke-width:1.0;" width="1702" x="0" y="1115.6994"/><line style="stroke:#000000;stroke-width:1.0;" x1="0" x2="1702" y1="1115.6994" y2="1115.6994"/><line style="stroke:#000000;stroke-width:1.0;" x1="0" x2="1702" y1="1118.6994" y2="1118.6994"/><rect fill="#EEEEEE" height="25.706" style="stroke:#000000;stroke-width:2.0;" width="137" x="782.5" y="1103.8464"/><text fill="#000000" font-family="sans-serif" font-size="13" font-weight="bold" lengthAdjust="spacing" textLength="120" x="788.5" y="1121.7434">UC01 Initialization</text><polygon fill="#383838" points="1523,1176.9645,1513,1180.9645,1523,1184.9645" style="stroke:#383838;stroke-width:1.0;"/><line style="stroke:#383838;stroke-width:1.0;" x1="1517" x2="1701" y1="1180.9645" y2="1180.9645"/><text fill="#000000" font-family="sans-serif" font-size="13" font-weight="bold" lengthAdjust="spacing" textLength="18" x="1540.5" y="1166.3025">4.1</text><text fill="#000000" font-family="sans-serif" font-size="13" lengthAdjust="spacing" textLength="104" x="1566" y="1157.4494">user wants to see</text><text fill="#000000" font-family="sans-serif" font-size="13" lengthAdjust="spacing" textLength="111" x="1562.5" y="1175.1555">all gps sensor data</text><polygon fill="#383838" points="1285,1226.3765,1275,1230.3765,1285,1234.3765" style="stroke:#383838;stroke-width:1.0;"/><line style="stroke:#383838;stroke-width:1.0;" x1="1279" x2="1501" y1="1230.3765" y2="1230.3765"/><text fill="#000000" font-family="sans-serif" font-size="13" font-weight="bold" lengthAdjust="spacing" textLength="18" x="1286" y="1215.7145">4.2</text><text fill="#000000" font-family="sans-serif" font-size="13" lengthAdjust="spacing" textLength="182" x="1308" y="1206.8615">unsubscribe from array of new</text><text fill="#000000" font-family="sans-serif" font-size="13" lengthAdjust="spacing" textLength="95" x="1351.5" y="1224.5675">gps sensor data</text><polygon fill="#383838" points="1285,1275.7885,1275,1279.7885,1285,1283.7885" style="stroke:#383838;stroke-width:1.0;"/><line style="stroke:#383838;stroke-width:1.0;" x1="1279" x2="1501" y1="1279.7885" y2="1279.7885"/><text fill="#000000" font-family="sans-serif" font-size="13" font-weight="bold" lengthAdjust="spacing" textLength="18" x="1326.5" y="1265.1265">4.3</text><text fill="#000000" font-family="sans-serif" font-size="13" lengthAdjust="spacing" textLength="101" x="1348.5" y="1256.2735">subscribe to new</text><text fill="#000000" font-family="sans-serif" font-size="13" lengthAdjust="spacing" textLength="95" x="1351.5" y="1273.9795">gps sensor data</text><!--MD5=[76b668548f0a4327fc1733d60828d834]
@startuml process-view-level2-uc00

skinparam Monochrome true
skinparam sequenceMessageAlign center
skinparam style strictuml
hide unlinked

autonumber 1.1

participant "Data Gateway" as DG
participant "Data Store" as DS
participant "Data Processor Slave\nBackend" as SDP
participant "Data Decoder Slave\nBackend" as SDD
participant "Identity Management Slave\nBackend" as SIM
participant "Message Broker" as MB
participant "Data Validator\nBackend" as DVB
participant "Device Records Slave\nBackend" as DRSB
participant "Fleet Management\nBackend" as LTB
participant "Fleet Management\nFrontend" as LTF

activate MB
activate LTF
activate LTB

== Initialization ==
DS -> MB :   subscribe to X data
SDP -> MB :  subscribe to new\nX decoded sensor data
SDP -> MB :  subscribe to changes\n in transformations
SDD -> MB :  subscribe to new\nX encoded sensor data
SDD -> MB :  subscribe to changes\n in decoders
DVB -> MB :  subscribe to new\nprocessed sensor data
SIM -> MB :  subscribe to new\nprocessed and validated sensor data
SIM -> MB :  subscribe to changes\n in devices identity
DRSB -> MB : subscribe to new\ngps sensor data validated
DRSB -> MB : subscribe to changes\n in device records
LTB -> MB :  subscribe to new\nvalidated gps sensor data with records

...
== UC01 Initialization ==
autonumber inc A
LTF <- : user acesses the UI
LTF -> LTB : fetch last location\n of each sensor
LTF -> LTB : subscribe to new\ngps sensor data
...
== UC02 Initialization ==
autonumber inc A
LTF <- : user wants to see\narray of gps sensor data
LTF -> LTB : unsubscribe from new\ngps sensor data
LTF -> LTB : subscribe to array of new\ngps sensor data

...
== UC01 Initialization ==
autonumber inc A
LTF <- : user wants to see\nall gps sensor data
LTF -> LTB : unsubscribe from array of new\ngps sensor data
LTF -> LTB : subscribe to new\ngps sensor data

@enduml

PlantUML version 1.2021.16(Wed Dec 08 17:25:22 WET 2021)
(GPL source distribution)
Java Runtime: OpenJDK Runtime Environment
JVM: OpenJDK 64-Bit Server VM
Default Encoding: UTF-8
Language: en
Country: GB
--></g></svg>