<?xml version="1.0" encoding="UTF-8" standalone="no"?><svg xmlns="http://www.w3.org/2000/svg" xmlns:xlink="http://www.w3.org/1999/xlink" contentStyleType="text/css" height="1031px" preserveAspectRatio="none" style="width:1344px;height:1031px;background:#FFFFFF;" version="1.1" viewBox="0 0 1344 1031" width="1344px" zoomAndPan="magnify"><defs/><g><g id="elem_N1"><path d="M158.5,6 L158.5,122.2361 L478.5,122.2361 L478.5,16 L468.5,6 L158.5,6 " fill="#FAFAFA" style="stroke:#181818;stroke-width:0.5;"/><path d="M468.5,6 L468.5,16 L478.5,16 L468.5,6 " fill="#FAFAFA" style="stroke:#181818;stroke-width:1.0;"/><text fill="#000000" font-family="sans-serif" font-size="13" lengthAdjust="spacing" textLength="299" x="164.5" y="24.897">Data after going though Data Gateway is wrapped</text><text fill="#000000" font-family="sans-serif" font-size="13" lengthAdjust="spacing" textLength="286" x="167.5" y="42.603">inside an Environment Message, this message is</text><text fill="#000000" font-family="sans-serif" font-size="13" lengthAdjust="spacing" textLength="281" x="164.5" y="60.309">'open' so that data can be accessed. Then, once</text><text fill="#000000" font-family="sans-serif" font-size="13" lengthAdjust="spacing" textLength="288" x="164.5" y="78.0151">the work is done the message is 'sealed', routing</text><text fill="#000000" font-family="sans-serif" font-size="13" lengthAdjust="spacing" textLength="253" x="164.5" y="95.7211">keys are changed and the message is sent.</text><text fill="#000000" font-family="sans-serif" font-size="13" lengthAdjust="spacing" textLength="299" x="164.5" y="113.4271">For brevity this process is not detailed everywhere</text></g><g id="DataRelayer"><rect fill="#F1F1F1" height="77.2038" rx="12.5" ry="12.5" style="stroke:#181818;stroke-width:0.5;" width="213" x="7" y="192.5"/><line style="stroke:#181818;stroke-width:0.5;" x1="7" x2="220" y1="221.5679" y2="221.5679"/><text fill="#000000" font-family="sans-serif" font-size="14" lengthAdjust="spacing" textLength="85" x="71" y="212.4659">Data Relayer</text><text fill="#000000" font-family="sans-serif" font-size="14" lengthAdjust="spacing" textLength="169" x="12" y="241.5339">Any data can be received</text><text fill="#000000" font-family="sans-serif" font-size="14" lengthAdjust="spacing" textLength="193" x="12" y="260.6018">as the body of an HTTP POST</text></g><g id="DataGateway"><rect fill="#F1F1F1" height="96.2717" rx="12.5" ry="12.5" style="stroke:#181818;stroke-width:0.5;" width="203" x="255" y="183"/><line style="stroke:#181818;stroke-width:0.5;" x1="255" x2="458" y1="212.0679" y2="212.0679"/><text fill="#000000" font-family="sans-serif" font-size="14" lengthAdjust="spacing" textLength="92" x="310.5" y="202.9659">Data Gateway</text><text fill="#000000" font-family="sans-serif" font-size="14" lengthAdjust="spacing" textLength="130" x="260" y="232.0339">Data is wraped in a</text><text fill="#000000" font-family="sans-serif" font-size="14" lengthAdjust="spacing" textLength="183" x="260" y="251.1018">Environment Message with</text><text fill="#000000" font-family="sans-serif" font-size="14" lengthAdjust="spacing" textLength="138" x="260" y="270.1697">specific routing keys</text></g><g id="elem_decoded_or_encoded"><polygon fill="#F1F1F1" points="505.5,219,517.5,231,505.5,243,493.5,231,505.5,219" style="stroke:#181818;stroke-width:0.5;"/></g><g id="Processor"><rect fill="#F1F1F1" height="96.2717" rx="12.5" ry="12.5" style="stroke:#181818;stroke-width:0.5;" width="237" x="232" y="358"/><line style="stroke:#181818;stroke-width:0.5;" x1="232" x2="469" y1="387.0679" y2="387.0679"/><text fill="#000000" font-family="sans-serif" font-size="14" lengthAdjust="spacing" textLength="139" x="281" y="377.9659">Data Processor Slave</text><text fill="#000000" font-family="sans-serif" font-size="14" lengthAdjust="spacing" textLength="205" x="237" y="407.0339">Data is transformed according</text><text fill="#000000" font-family="sans-serif" font-size="14" lengthAdjust="spacing" textLength="201" x="237" y="426.1018">to the defined mapper for the</text><text fill="#000000" font-family="sans-serif" font-size="14" lengthAdjust="spacing" textLength="217" x="237" y="445.1697">type of device that sent the data</text></g><g id="Decoder"><rect fill="#F1F1F1" height="96.2717" rx="12.5" ry="12.5" style="stroke:#181818;stroke-width:0.5;" width="237" x="504" y="358"/><line style="stroke:#181818;stroke-width:0.5;" x1="504" x2="741" y1="387.0679" y2="387.0679"/><text fill="#000000" font-family="sans-serif" font-size="14" lengthAdjust="spacing" textLength="130" x="557.5" y="377.9659">Data Decoder Slave</text><text fill="#000000" font-family="sans-serif" font-size="14" lengthAdjust="spacing" textLength="205" x="509" y="407.0339">Data is transformed according</text><text fill="#000000" font-family="sans-serif" font-size="14" lengthAdjust="spacing" textLength="186" x="509" y="426.1018">to the defined script for the</text><text fill="#000000" font-family="sans-serif" font-size="14" lengthAdjust="spacing" textLength="217" x="509" y="445.1697">type of device that sent the data</text></g><g id="elem_is_processed"><polygon fill="#F1F1F1" points="485.5,541.5,497.5,553.5,485.5,565.5,473.5,553.5,485.5,541.5" style="stroke:#181818;stroke-width:0.5;"/></g><g id="Identity"><rect fill="#F1F1F1" height="77.2038" rx="12.5" ry="12.5" style="stroke:#181818;stroke-width:0.5;" width="222" x="1030.5" y="515"/><line style="stroke:#181818;stroke-width:0.5;" x1="1030.5" x2="1252.5" y1="544.0679" y2="544.0679"/><text fill="#000000" font-family="sans-serif" font-size="14" lengthAdjust="spacing" textLength="185" x="1049" y="534.9659">Identity Management Slave</text><text fill="#000000" font-family="sans-serif" font-size="14" lengthAdjust="spacing" textLength="202" x="1035.5" y="564.0339">Domain ownership details are</text><text fill="#000000" font-family="sans-serif" font-size="14" lengthAdjust="spacing" textLength="120" x="1035.5" y="583.1018">added to the data</text></g><g id="elem_is_valid"><polygon fill="#F1F1F1" points="911.5,541.5,923.5,553.5,911.5,565.5,899.5,553.5,911.5,541.5" style="stroke:#181818;stroke-width:0.5;"/></g><g id="Validator"><rect fill="#F1F1F1" height="77.2038" rx="12.5" ry="12.5" style="stroke:#181818;stroke-width:0.5;" width="227" x="637" y="515"/><line style="stroke:#181818;stroke-width:0.5;" x1="637" x2="864" y1="544.0679" y2="544.0679"/><text fill="#000000" font-family="sans-serif" font-size="14" lengthAdjust="spacing" textLength="95" x="703" y="534.9659">Data Validator</text><text fill="#000000" font-family="sans-serif" font-size="14" lengthAdjust="spacing" textLength="207" x="642" y="564.0339">Data is examined to determine</text><text fill="#000000" font-family="sans-serif" font-size="14" lengthAdjust="spacing" textLength="117" x="642" y="583.1018">if it is valid or not</text></g><g id="Records"><rect fill="#F1F1F1" height="77.2038" rx="12.5" ry="12.5" style="stroke:#181818;stroke-width:0.5;" width="196" x="847.5" y="689"/><line style="stroke:#181818;stroke-width:0.5;" x1="847.5" x2="1043.5" y1="718.0679" y2="718.0679"/><text fill="#000000" font-family="sans-serif" font-size="14" lengthAdjust="spacing" textLength="141" x="875" y="708.9659">Device Records Slave</text><text fill="#000000" font-family="sans-serif" font-size="14" lengthAdjust="spacing" textLength="176" x="852.5" y="738.0339">Device information details</text><text fill="#000000" font-family="sans-serif" font-size="14" lengthAdjust="spacing" textLength="146" x="852.5" y="757.1018">are added to the data</text></g><g id="elem_has_gps"><polygon fill="#F1F1F1" points="945.5,827,957.5,839,945.5,851,933.5,839,945.5,827" style="stroke:#181818;stroke-width:0.5;"/></g><g id="Fleet"><rect fill="#F1F1F1" height="77.2038" rx="12.5" ry="12.5" style="stroke:#181818;stroke-width:0.5;" width="161" x="648" y="948"/><line style="stroke:#181818;stroke-width:0.5;" x1="648" x2="809" y1="977.0679" y2="977.0679"/><text fill="#000000" font-family="sans-serif" font-size="14" lengthAdjust="spacing" textLength="126" x="665.5" y="967.9659">Fleet Management</text><text fill="#000000" font-family="sans-serif" font-size="14" lengthAdjust="spacing" textLength="93" x="653" y="997.0339">Data is stored</text><text fill="#000000" font-family="sans-serif" font-size="14" lengthAdjust="spacing" textLength="141" x="653" y="1016.1018">and sent to Frontend</text></g><g id="Irrigation"><rect fill="#F1F1F1" height="77.2038" rx="12.5" ry="12.5" style="stroke:#181818;stroke-width:0.5;" width="161" x="976" y="948"/><line style="stroke:#181818;stroke-width:0.5;" x1="976" x2="1137" y1="977.0679" y2="977.0679"/><text fill="#000000" font-family="sans-serif" font-size="14" lengthAdjust="spacing" textLength="108" x="1002.5" y="967.9659">Smart Irrigation</text><text fill="#000000" font-family="sans-serif" font-size="14" lengthAdjust="spacing" textLength="93" x="981" y="997.0339">Data is stored</text><text fill="#000000" font-family="sans-serif" font-size="14" lengthAdjust="spacing" textLength="141" x="981" y="1016.1018">and sent to Frontend</text></g><ellipse cx="113.5" cy="64" fill="#222222" rx="10" ry="10" style="stroke:none;stroke-width:1.0;"/><!--MD5=[a0178e5e24e024d219a1e7cb3b47531f]
link *start to DataRelayer--><g id="link_*start_DataRelayer"><path d="M113.5,74.34 C113.5,95.68 113.5,149.09 113.5,187.39 " fill="none" id="*start-to-DataRelayer" style="stroke:#181818;stroke-width:1.0;"/><polygon fill="#181818" points="113.5,192.45,117.5,183.45,113.5,187.45,109.5,183.45,113.5,192.45" style="stroke:#181818;stroke-width:1.0;"/></g><!--MD5=[e1630b80edfd2c93eafeb4e847606ce3]
link DataRelayer to DataGateway--><g id="link_DataRelayer_DataGateway"><path d="M220.29,231 C230.1,231 239.92,231 249.74,231 " fill="none" id="DataRelayer-to-DataGateway" style="stroke:#181818;stroke-width:1.0;"/><polygon fill="#181818" points="254.87,231,245.87,227,249.87,231,245.87,235,254.87,231" style="stroke:#181818;stroke-width:1.0;"/></g><!--MD5=[68b8774cebcc3d6e6b7465b21a78ccfb]
link DataGateway to decoded_or_encoded--><g id="link_DataGateway_decoded_or_encoded"><path d="M458.06,231 C468.06,231 478.05,231 488.04,231 " fill="none" id="DataGateway-to-decoded_or_encoded" style="stroke:#181818;stroke-width:1.0;"/><polygon fill="#181818" points="493.27,231,484.27,227,488.27,231,484.27,235,493.27,231" style="stroke:#181818;stroke-width:1.0;"/></g><!--MD5=[22e08d9b35ceb90cb3450d5235db0222]
link decoded_or_encoded to Processor--><g id="link_decoded_or_encoded_Processor"><path d="M501.48,239.33 C496.1,248.86 486.02,265.85 475.5,279 C454.4,305.38 428.44,332.27 405.66,354.4 " fill="none" id="decoded_or_encoded-to-Processor" style="stroke:#181818;stroke-width:1.0;"/><polygon fill="#181818" points="402.04,357.91,411.2815,354.5048,405.6252,354.4248,405.7052,348.7685,402.04,357.91" style="stroke:#181818;stroke-width:1.0;"/><text fill="#000000" font-family="sans-serif" font-size="13" lengthAdjust="spacing" textLength="82" x="448.5" y="323.897">decoded data</text></g><!--MD5=[a85dd681901aa81ed2fc6730caa183cc]
link decoded_or_encoded to Decoder--><g id="link_decoded_or_encoded_Decoder"><path d="M509.94,238.57 C522.57,257.25 559.59,311.98 587.76,353.63 " fill="none" id="decoded_or_encoded-to-Decoder" style="stroke:#181818;stroke-width:1.0;"/><polygon fill="#181818" points="590.63,357.87,588.9044,348.1735,587.8302,353.7274,582.2763,352.6532,590.63,357.87" style="stroke:#181818;stroke-width:1.0;"/><text fill="#000000" font-family="sans-serif" font-size="13" lengthAdjust="spacing" textLength="82" x="569.5" y="323.897">encoded data</text></g><!--MD5=[bb92e24ce4a2bfe465ff3d577da6e84a]
link Decoder to is_processed--><g id="link_Decoder_is_processed"><path d="M578.02,454.24 C548.09,486.02 511.16,525.24 494.46,542.99 " fill="none" id="Decoder-to-is_processed" style="stroke:#181818;stroke-width:1.0;"/><polygon fill="#181818" points="491.03,546.63,500.1111,542.8177,494.4568,542.989,494.2855,537.3347,491.03,546.63" style="stroke:#181818;stroke-width:1.0;"/></g><!--MD5=[97e6fa534dda77034f901ff4437e932e]
link Processor to is_processed--><g id="link_Processor_is_processed"><path d="M394.33,454.24 C423.57,485.76 459.6,524.59 476.25,542.54 " fill="none" id="Processor-to-is_processed" style="stroke:#181818;stroke-width:1.0;"/><polygon fill="#181818" points="480.06,546.63,476.8796,537.3088,476.6627,542.9615,471.01,542.7445,480.06,546.63" style="stroke:#181818;stroke-width:1.0;"/></g><!--MD5=[1b5df3300675c9010c826085abe06109]
link is_processed to Validator--><g id="link_is_processed_Validator"><path d="M497.58,553.5 C521.71,553.5 578.17,553.5 631.64,553.5 " fill="none" id="is_processed-to-Validator" style="stroke:#181818;stroke-width:1.0;"/><polygon fill="#181818" points="636.8,553.5,627.8,549.5,631.8,553.5,627.8,557.5,636.8,553.5" style="stroke:#181818;stroke-width:1.0;"/><text fill="#000000" font-family="sans-serif" font-size="13" lengthAdjust="spacing" textLength="103" x="515.75" y="546.397">data is processed</text></g><!--MD5=[4bd87a3fcbbe7f20132153ff5b6b8d59]
link Validator to is_valid--><g id="link_Validator_is_valid"><path d="M864.02,553.5 C874.02,553.5 884.02,553.5 894.03,553.5 " fill="none" id="Validator-to-is_valid" style="stroke:#181818;stroke-width:1.0;"/><polygon fill="#181818" points="899.26,553.5,890.26,549.5,894.26,553.5,890.26,557.5,899.26,553.5" style="stroke:#181818;stroke-width:1.0;"/></g><!--MD5=[e2cfcbdc35d0e0c77a0c0ea4d529b628]
link is_valid to Identity--><g id="link_is_valid_Identity"><path d="M923.54,553.5 C943.22,553.5 984.2,553.5 1025.38,553.5 " fill="none" id="is_valid-to-Identity" style="stroke:#181818;stroke-width:1.0;"/><polygon fill="#181818" points="1030.4,553.5,1021.4,549.5,1025.4,553.5,1021.4,557.5,1030.4,553.5" style="stroke:#181818;stroke-width:1.0;"/><text fill="#000000" font-family="sans-serif" font-size="13" lengthAdjust="spacing" textLength="70" x="942" y="546.397">data is valid</text></g><!--MD5=[98f1829da0ede8e1cd949e44f7a1c811]
link Identity to Records--><g id="link_Identity_Records"><path d="M1098.49,592.25 C1067.08,619.8 1024.54,657.13 992.29,685.44 " fill="none" id="Identity-to-Records" style="stroke:#181818;stroke-width:1.0;"/><polygon fill="#181818" points="988.41,688.84,997.8117,685.9061,992.1667,685.5404,992.5324,679.8954,988.41,688.84" style="stroke:#181818;stroke-width:1.0;"/></g><!--MD5=[363ddcf5f10e38c739e2a3457fb64276]
link Records to has_gps--><g id="link_Records_has_gps"><path d="M945.5,766.18 C945.5,785.14 945.5,807.12 945.5,821.73 " fill="none" id="Records-to-has_gps" style="stroke:#181818;stroke-width:1.0;"/><polygon fill="#181818" points="945.5,826.75,949.5,817.75,945.5,821.75,941.5,817.75,945.5,826.75" style="stroke:#181818;stroke-width:1.0;"/></g><!--MD5=[b75f4a23d6e50a5908fb2864c6f74bec]
link has_gps to Fleet--><g id="link_has_gps_Fleet"><path d="M935.15,840.72 C898.7,843.45 777.04,854.46 750.5,881 C734.48,897.02 728.74,921.56 727.12,942.83 " fill="none" id="has_gps-to-Fleet" style="stroke:#181818;stroke-width:1.0;"/><polygon fill="#181818" points="726.8,947.88,731.3583,939.1495,727.1146,942.8899,723.3741,938.6462,726.8,947.88" style="stroke:#181818;stroke-width:1.0;"/><text fill="#000000" font-family="sans-serif" font-size="13" lengthAdjust="spacing" textLength="51" x="758" y="895.897">data has</text><text fill="#000000" font-family="sans-serif" font-size="13" lengthAdjust="spacing" textLength="64" x="751.5" y="913.603">gps details</text></g><!--MD5=[e90768c5ea10d52fa04bacf22e2be57c]
link has_gps to Irrigation--><g id="link_has_gps_Irrigation"><path d="M934.28,840.11 C910.55,841.04 855.45,846.93 831.5,881 C822.04,894.45 821.68,904.81 831.5,918 C848.6,940.99 914.71,959.07 970.88,970.72 " fill="none" id="has_gps-to-Irrigation" style="stroke:#181818;stroke-width:1.0;"/><polygon fill="#181818" points="975.94,971.75,967.9216,966.0311,971.041,970.7502,966.3219,973.8696,975.94,971.75" style="stroke:#181818;stroke-width:1.0;"/><text fill="#000000" font-family="sans-serif" font-size="13" lengthAdjust="spacing" textLength="180" x="832.5" y="895.897">data has gps, air humidity and</text><text fill="#000000" font-family="sans-serif" font-size="13" lengthAdjust="spacing" textLength="118" x="863.5" y="913.603">temperature details</text></g><!--MD5=[e90768c5ea10d52fa04bacf22e2be57c]
link has_gps to Irrigation--><g id="link_has_gps_Irrigation"><path d="M954.33,842.78 C969.36,847.95 999.97,860.41 1017.5,881 C1032.49,898.61 1041.98,922.53 1047.84,943.04 " fill="none" id="has_gps-to-Irrigation-1" style="stroke:#181818;stroke-width:1.0;"/><polygon fill="#181818" points="1049.18,947.91,1050.6417,938.1702,1047.8499,943.0902,1042.9299,940.2984,1049.18,947.91" style="stroke:#181818;stroke-width:1.0;"/><text fill="#000000" font-family="sans-serif" font-size="13" lengthAdjust="spacing" textLength="176" x="1039.5" y="895.897">data has gps, illuminance and</text><text fill="#000000" font-family="sans-serif" font-size="13" lengthAdjust="spacing" textLength="119" x="1068" y="913.603">soil moisture details</text></g><!--MD5=[e90768c5ea10d52fa04bacf22e2be57c]
link has_gps to Irrigation--><g id="link_has_gps_Irrigation"><path d="M956.75,839.81 C1004.42,839.24 1188.9,839.78 1224.5,881 C1257.03,918.66 1198.93,947.16 1142.37,964.81 " fill="none" id="has_gps-to-Irrigation-2" style="stroke:#181818;stroke-width:1.0;"/><polygon fill="#181818" points="1137.26,966.38,1147.0381,967.5584,1142.0392,964.9106,1144.687,959.9117,1137.26,966.38" style="stroke:#181818;stroke-width:1.0;"/><text fill="#000000" font-family="sans-serif" font-size="13" lengthAdjust="spacing" textLength="102" x="1234.5" y="895.897">data has gps and</text><text fill="#000000" font-family="sans-serif" font-size="13" lengthAdjust="spacing" textLength="76" x="1247.5" y="913.603">alarm details</text></g><!--MD5=[2fca5860eb486c086cf159d05687d338]
link Records to Validator--><g id="link_Records_Validator"><path d="M902.81,688.84 C871.59,661.31 829.27,623.98 797.16,595.65 " fill="none" id="Records-to-Validator" style="stroke:#181818;stroke-width:1.0;"/><polygon fill="#181818" points="793.29,592.25,797.4124,601.1946,797.0467,595.5496,802.6917,595.1839,793.29,592.25" style="stroke:#181818;stroke-width:1.0;"/><text fill="#000000" font-family="sans-serif" font-size="13" lengthAdjust="spacing" textLength="94" x="883.5" y="636.897">each sub device</text><text fill="#000000" font-family="sans-serif" font-size="13" lengthAdjust="spacing" textLength="128" x="866.5" y="654.603">data is sub processed</text></g><!--MD5=[052a9941d53c51080b5923f5b809a073]
@startuml data-flow
'left to right direction
skinparam Monochrome true

note "Data after going though Data Gateway is wrapped\n inside an Environment Message, this message is\n'open' so that data can be accessed. Then, once\nthe work is done the message is 'sealed', routing\nkeys are changed and the message is sent.\nFor brevity this process is not detailed everywhere" as N1

state "Data Relayer" as DataRelayer
state "Data Gateway" as DataGateway
state decoded_or_encoded <<choice>>
state "Data Processor Slave" as Processor
state "Data Decoder Slave" as Decoder
state is_processed <<choice>>
state "Identity Management Slave" as Identity
state is_valid <<choice>>
state "Data Validator" as Validator
state "Device Records Slave" as Records
state has_gps <<choice>>
state "Fleet Management" as Fleet
state "Smart Irrigation" as Irrigation

DataRelayer : Any data can be received
DataRelayer : as the body of an HTTP POST

DataGateway : Data is wraped in a
DataGateway : Environment Message with
DataGateway : specific routing keys

Processor : Data is transformed according
Processor : to the defined mapper for the
Processor : type of device that sent the data

Decoder : Data is transformed according
Decoder : to the defined script for the
Decoder : type of device that sent the data

Identity : Domain ownership details are
Identity : added to the data

Validator : Data is examined to determine
Validator : if it is valid or not

Records : Device information details
Records : are added to the data

Fleet : Data is stored
Fleet : and sent to Frontend

Irrigation: Data is stored
Irrigation: and sent to Frontend

[*] - -> DataRelayer
DataRelayer -> DataGateway
DataGateway -> decoded_or_encoded
decoded_or_encoded - -> Processor : decoded data
decoded_or_encoded - -> Decoder : encoded data
Decoder - -> is_processed
Processor - -> is_processed

is_processed -> Validator : data is processed

Validator -> is_valid

is_valid -> Identity : data is valid

Identity - -> Records

Records - -> has_gps

has_gps - -> Fleet : data has\ngps details

has_gps - -> Irrigation : data has gps, air humidity and\ntemperature details
has_gps - -> Irrigation : data has gps, illuminance and\nsoil moisture details
has_gps - -> Irrigation : data has gps and\nalarm details

Records - -> Validator : each sub device\ndata is sub processed

@enduml

@startuml data-flow
skinparam Monochrome true

note "Data after going though Data Gateway is wrapped\n inside an Environment Message, this message is\n'open' so that data can be accessed. Then, once\nthe work is done the message is 'sealed', routing\nkeys are changed and the message is sent.\nFor brevity this process is not detailed everywhere" as N1

state "Data Relayer" as DataRelayer
state "Data Gateway" as DataGateway
state decoded_or_encoded <<choice>>
state "Data Processor Slave" as Processor
state "Data Decoder Slave" as Decoder
state is_processed <<choice>>
state "Identity Management Slave" as Identity
state is_valid <<choice>>
state "Data Validator" as Validator
state "Device Records Slave" as Records
state has_gps <<choice>>
state "Fleet Management" as Fleet
state "Smart Irrigation" as Irrigation

DataRelayer : Any data can be received
DataRelayer : as the body of an HTTP POST

DataGateway : Data is wraped in a
DataGateway : Environment Message with
DataGateway : specific routing keys

Processor : Data is transformed according
Processor : to the defined mapper for the
Processor : type of device that sent the data

Decoder : Data is transformed according
Decoder : to the defined script for the
Decoder : type of device that sent the data

Identity : Domain ownership details are
Identity : added to the data

Validator : Data is examined to determine
Validator : if it is valid or not

Records : Device information details
Records : are added to the data

Fleet : Data is stored
Fleet : and sent to Frontend

Irrigation: Data is stored
Irrigation: and sent to Frontend

[*] - -> DataRelayer
DataRelayer -> DataGateway
DataGateway -> decoded_or_encoded
decoded_or_encoded - -> Processor : decoded data
decoded_or_encoded - -> Decoder : encoded data
Decoder - -> is_processed
Processor - -> is_processed

is_processed -> Validator : data is processed

Validator -> is_valid

is_valid -> Identity : data is valid

Identity - -> Records

Records - -> has_gps

has_gps - -> Fleet : data has\ngps details

has_gps - -> Irrigation : data has gps, air humidity and\ntemperature details
has_gps - -> Irrigation : data has gps, illuminance and\nsoil moisture details
has_gps - -> Irrigation : data has gps and\nalarm details

Records - -> Validator : each sub device\ndata is sub processed

@enduml

PlantUML version 1.2022.4(Sat Apr 09 14:29:17 WEST 2022)
(GPL source distribution)
Java Runtime: OpenJDK Runtime Environment
JVM: OpenJDK 64-Bit Server VM
Default Encoding: UTF-8
Language: en
Country: GB
--></g></svg>