<?xml version="1.0" encoding="UTF-8" standalone="no"?><svg xmlns="http://www.w3.org/2000/svg" xmlns:xlink="http://www.w3.org/1999/xlink" contentScriptType="application/ecmascript" contentStyleType="text/css" height="595px" preserveAspectRatio="none" style="width:246px;height:595px;background:#FFFFFF;" version="1.1" viewBox="0 0 246 595" width="246px" zoomAndPan="magnify"><defs><filter height="300%" id="fnb4psnm346qp" width="300%" x="-1" y="-1"><feGaussianBlur result="blurOut" stdDeviation="2.0"/><feColorMatrix in="blurOut" result="blurOut2" type="matrix" values="0 0 0 0 0 0 0 0 0 0 0 0 0 0 0 0 0 0 .4 0"/><feOffset dx="4.0" dy="4.0" in="blurOut2" result="blurOut3"/><feBlend in="SourceGraphic" in2="blurOut3" mode="normal"/></filter></defs><g><ellipse cx="120" cy="20" fill="#000000" filter="url(#fnb4psnm346qp)" rx="10" ry="10" style="stroke:none;stroke-width:1.0;"/><rect fill="#F8F8F8" filter="url(#fnb4psnm346qp)" height="52.6882" rx="12.5" ry="12.5" style="stroke:#383838;stroke-width:1.5;" width="132" x="54" y="50"/><text fill="#000000" font-family="sans-serif" font-size="12" lengthAdjust="spacing" textLength="112" x="64" y="72.8281">any data received in</text><text fill="#000000" font-family="sans-serif" font-size="12" font-weight="bold" lengthAdjust="spacing" textLength="76" x="64" y="89.1722">Data Relayer</text><rect fill="#F8F8F8" filter="url(#fnb4psnm346qp)" height="52.6882" rx="12.5" ry="12.5" style="stroke:#383838;stroke-width:1.5;" width="119" x="60.5" y="122.6882"/><text fill="#000000" font-family="sans-serif" font-size="12" lengthAdjust="spacing" textLength="99" x="70.5" y="145.5163">X data received in</text><text fill="#000000" font-family="sans-serif" font-size="12" font-weight="bold" lengthAdjust="spacing" textLength="83" x="70.5" y="161.8604">Data Gateway</text><rect fill="#F8F8F8" filter="url(#fnb4psnm346qp)" height="52.6882" rx="12.5" ry="12.5" style="stroke:#383838;stroke-width:1.5;" width="197" x="21.5" y="195.3765"/><text fill="#000000" font-family="sans-serif" font-size="12" lengthAdjust="spacing" textLength="109" x="31.5" y="218.2045">X data processed in</text><text fill="#000000" font-family="sans-serif" font-size="12" font-weight="bold" lengthAdjust="spacing" textLength="177" x="31.5" y="234.5487">Data Processor Slave Backend</text><rect fill="#F8F8F8" filter="url(#fnb4psnm346qp)" height="52.6882" rx="12.5" ry="12.5" style="stroke:#383838;stroke-width:1.5;" width="160" x="40" y="268.0647"/><text fill="#000000" font-family="sans-serif" font-size="12" lengthAdjust="spacing" textLength="115" x="50" y="290.8928">gps data validated in</text><text fill="#000000" font-family="sans-serif" font-size="12" font-weight="bold" lengthAdjust="spacing" textLength="140" x="50" y="307.2369">Data Validator Backend</text><rect fill="#F8F8F8" filter="url(#fnb4psnm346qp)" height="52.6882" rx="12.5" ry="12.5" style="stroke:#383838;stroke-width:1.5;" width="218" x="11" y="340.7529"/><text fill="#000000" font-family="sans-serif" font-size="12" lengthAdjust="spacing" textLength="198" x="21" y="363.581">device records added to gps data in</text><text fill="#000000" font-family="sans-serif" font-size="12" font-weight="bold" lengthAdjust="spacing" textLength="179" x="21" y="379.9251">Device Records Slave Backend</text><rect fill="#F8F8F8" filter="url(#fnb4psnm346qp)" height="52.6882" rx="12.5" ry="12.5" style="stroke:#383838;stroke-width:1.5;" width="204" x="18" y="413.4411"/><text fill="#000000" font-family="sans-serif" font-size="12" lengthAdjust="spacing" textLength="184" x="28" y="436.2692">gps data with records received in</text><text fill="#000000" font-family="sans-serif" font-size="12" font-weight="bold" lengthAdjust="spacing" textLength="167" x="28" y="452.6133">Fleet Management Backend</text><rect fill="#F8F8F8" filter="url(#fnb4psnm346qp)" height="52.6882" rx="12.5" ry="12.5" style="stroke:#383838;stroke-width:1.5;" width="204" x="18" y="486.1294"/><text fill="#000000" font-family="sans-serif" font-size="12" lengthAdjust="spacing" textLength="184" x="28" y="508.9575">gps data with records received in</text><text fill="#000000" font-family="sans-serif" font-size="12" font-weight="bold" lengthAdjust="spacing" textLength="171" x="28" y="525.3016">Fleet Management Frontend</text><ellipse cx="120" cy="568.8176" fill="#FFFFFF" filter="url(#fnb4psnm346qp)" rx="10" ry="10" style="stroke:#000000;stroke-width:1.5;"/><line style="stroke:#000000;stroke-width:2.5;" x1="113.8128" x2="126.1872" y1="562.6304" y2="575.0048"/><line style="stroke:#000000;stroke-width:2.5;" x1="126.1872" x2="113.8128" y1="562.6304" y2="575.0048"/><line style="stroke:#383838;stroke-width:1.5;" x1="120" x2="120" y1="30" y2="50"/><polygon fill="#383838" points="116,40,120,50,124,40,120,44" style="stroke:#383838;stroke-width:1.0;"/><line style="stroke:#383838;stroke-width:1.5;" x1="120" x2="120" y1="102.6882" y2="122.6882"/><polygon fill="#383838" points="116,112.6882,120,122.6882,124,112.6882,120,116.6882" style="stroke:#383838;stroke-width:1.0;"/><line style="stroke:#383838;stroke-width:1.5;" x1="120" x2="120" y1="175.3765" y2="195.3765"/><polygon fill="#383838" points="116,185.3765,120,195.3765,124,185.3765,120,189.3765" style="stroke:#383838;stroke-width:1.0;"/><line style="stroke:#383838;stroke-width:1.5;" x1="120" x2="120" y1="248.0647" y2="268.0647"/><polygon fill="#383838" points="116,258.0647,120,268.0647,124,258.0647,120,262.0647" style="stroke:#383838;stroke-width:1.0;"/><line style="stroke:#383838;stroke-width:1.5;" x1="120" x2="120" y1="320.7529" y2="340.7529"/><polygon fill="#383838" points="116,330.7529,120,340.7529,124,330.7529,120,334.7529" style="stroke:#383838;stroke-width:1.0;"/><line style="stroke:#383838;stroke-width:1.5;" x1="120" x2="120" y1="393.4411" y2="413.4411"/><polygon fill="#383838" points="116,403.4411,120,413.4411,124,403.4411,120,407.4411" style="stroke:#383838;stroke-width:1.0;"/><line style="stroke:#383838;stroke-width:1.5;" x1="120" x2="120" y1="466.1294" y2="486.1294"/><polygon fill="#383838" points="116,476.1294,120,486.1294,124,476.1294,120,480.1294" style="stroke:#383838;stroke-width:1.0;"/><line style="stroke:#383838;stroke-width:1.5;" x1="120" x2="120" y1="538.8176" y2="558.8176"/><polygon fill="#383838" points="116,548.8176,120,558.8176,124,548.8176,120,552.8176" style="stroke:#383838;stroke-width:1.0;"/><!--MD5=[af110fc215b132bde9e8c1ef6f69022d]
@startuml data-flow

skinparam Monochrome true

start
:any data received in\n**Data Relayer**;
:X data received in\n**Data Gateway**;
:X data processed in\n**Data Processor Slave Backend**;
:gps data validated in\n**Data Validator Backend**;
:device records added to gps data in\n**Device Records Slave Backend**;
:gps data with records received in\n**Fleet Management Backend**;
:gps data with records received in\n**Fleet Management Frontend**;
end

@enduml

PlantUML version 1.2021.16(Wed Dec 08 17:25:22 WET 2021)
(GPL source distribution)
Java Runtime: OpenJDK Runtime Environment
JVM: OpenJDK 64-Bit Server VM
Default Encoding: UTF-8
Language: en
Country: GB
--></g></svg>