<?xml version="1.0" encoding="UTF-8" standalone="no"?><svg xmlns="http://www.w3.org/2000/svg" xmlns:xlink="http://www.w3.org/1999/xlink" contentScriptType="application/ecmascript" contentStyleType="text/css" height="426px" preserveAspectRatio="none" style="width:255px;height:426px;background:#FFFFFF;" version="1.1" viewBox="0 0 255 426" width="255px" zoomAndPan="magnify"><defs><filter height="300%" id="fuxwbp90693uy" width="300%" x="-1" y="-1"><feGaussianBlur result="blurOut" stdDeviation="2.0"/><feColorMatrix in="blurOut" result="blurOut2" type="matrix" values="0 0 0 0 0 0 0 0 0 0 0 0 0 0 0 0 0 0 .4 0"/><feOffset dx="4.0" dy="4.0" in="blurOut2" result="blurOut3"/><feBlend in="SourceGraphic" in2="blurOut3" mode="normal"/></filter></defs><g><ellipse cx="124.5" cy="20" fill="#000000" filter="url(#fuxwbp90693uy)" rx="10" ry="10" style="stroke:none;stroke-width:1.0;"/><rect fill="#F8F8F8" filter="url(#fuxwbp90693uy)" height="47.9375" rx="12.5" ry="12.5" style="stroke:#383838;stroke-width:1.5;" width="147" x="51" y="50"/><text fill="#000000" font-family="sans-serif" font-size="12" lengthAdjust="spacing" textLength="127" x="61" y="71.1387">any data received in</text><text fill="#000000" font-family="sans-serif" font-size="12" font-weight="bold" lengthAdjust="spacing" textLength="101" x="61" y="85.1074">Data Gateway</text><rect fill="#F8F8F8" filter="url(#fuxwbp90693uy)" height="47.9375" rx="12.5" ry="12.5" style="stroke:#383838;stroke-width:1.5;" width="219" x="15" y="117.9375"/><text fill="#000000" font-family="sans-serif" font-size="12" lengthAdjust="spacing" textLength="168" x="25" y="139.0762">lgt 92 gps data received in</text><text fill="#000000" font-family="sans-serif" font-size="12" font-weight="bold" lengthAdjust="spacing" textLength="199" x="25" y="153.0449">LGT 92 GPS Sensor Gateway</text><rect fill="#F8F8F8" filter="url(#fuxwbp90693uy)" height="47.9375" rx="12.5" ry="12.5" style="stroke:#383838;stroke-width:1.5;" width="227" x="11" y="185.875"/><text fill="#000000" font-family="sans-serif" font-size="12" lengthAdjust="spacing" textLength="181" x="21" y="207.0137">lgt 92 gps data processed in</text><text fill="#000000" font-family="sans-serif" font-size="12" font-weight="bold" lengthAdjust="spacing" textLength="207" x="21" y="220.9824">LGT 92 GPS Sensor Processor</text><rect fill="#F8F8F8" filter="url(#fuxwbp90693uy)" height="47.9375" rx="12.5" ry="12.5" style="stroke:#383838;stroke-width:1.5;" width="209" x="20" y="253.8125"/><text fill="#000000" font-family="sans-serif" font-size="12" lengthAdjust="spacing" textLength="128" x="30" y="274.9512">gps data received in</text><text fill="#000000" font-family="sans-serif" font-size="12" font-weight="bold" lengthAdjust="spacing" textLength="189" x="30" y="288.9199">Location Tracking Backend</text><rect fill="#F8F8F8" filter="url(#fuxwbp90693uy)" height="47.9375" rx="12.5" ry="12.5" style="stroke:#383838;stroke-width:1.5;" width="214" x="17.5" y="321.75"/><text fill="#000000" font-family="sans-serif" font-size="12" lengthAdjust="spacing" textLength="128" x="27.5" y="342.8887">gps data received in</text><text fill="#000000" font-family="sans-serif" font-size="12" font-weight="bold" lengthAdjust="spacing" textLength="194" x="27.5" y="356.8574">Location Tracking Frontend</text><ellipse cx="124.5" cy="399.6875" fill="#FFFFFF" filter="url(#fuxwbp90693uy)" rx="10" ry="10" style="stroke:#000000;stroke-width:1.5;"/><line style="stroke:#000000;stroke-width:2.5;" x1="118.3128" x2="130.6872" y1="393.5003" y2="405.8747"/><line style="stroke:#000000;stroke-width:2.5;" x1="130.6872" x2="118.3128" y1="393.5003" y2="405.8747"/><line style="stroke:#383838;stroke-width:1.5;" x1="124.5" x2="124.5" y1="30" y2="50"/><polygon fill="#383838" points="120.5,40,124.5,50,128.5,40,124.5,44" style="stroke:#383838;stroke-width:1.0;"/><line style="stroke:#383838;stroke-width:1.5;" x1="124.5" x2="124.5" y1="97.9375" y2="117.9375"/><polygon fill="#383838" points="120.5,107.9375,124.5,117.9375,128.5,107.9375,124.5,111.9375" style="stroke:#383838;stroke-width:1.0;"/><line style="stroke:#383838;stroke-width:1.5;" x1="124.5" x2="124.5" y1="165.875" y2="185.875"/><polygon fill="#383838" points="120.5,175.875,124.5,185.875,128.5,175.875,124.5,179.875" style="stroke:#383838;stroke-width:1.0;"/><line style="stroke:#383838;stroke-width:1.5;" x1="124.5" x2="124.5" y1="233.8125" y2="253.8125"/><polygon fill="#383838" points="120.5,243.8125,124.5,253.8125,128.5,243.8125,124.5,247.8125" style="stroke:#383838;stroke-width:1.0;"/><line style="stroke:#383838;stroke-width:1.5;" x1="124.5" x2="124.5" y1="301.75" y2="321.75"/><polygon fill="#383838" points="120.5,311.75,124.5,321.75,128.5,311.75,124.5,315.75" style="stroke:#383838;stroke-width:1.0;"/><line style="stroke:#383838;stroke-width:1.5;" x1="124.5" x2="124.5" y1="369.6875" y2="389.6875"/><polygon fill="#383838" points="120.5,379.6875,124.5,389.6875,128.5,379.6875,124.5,383.6875" style="stroke:#383838;stroke-width:1.0;"/><!--MD5=[ee4dfb9507a1b8554499ce59d52a8973]
@startuml data-flow

skinparam Monochrome true

start
:any data received in\n**Data Gateway**;
:lgt 92 gps data received in\n**LGT 92 GPS Sensor Gateway**;
:lgt 92 gps data processed in\n**LGT 92 GPS Sensor Processor**;
:gps data received in\n**Location Tracking Backend**;
:gps data received in\n**Location Tracking Frontend**;
end

@enduml

PlantUML version 1.2021.9(Sun Jul 25 11:13:56 WEST 2021)
(GPL source distribution)
Java Runtime: OpenJDK Runtime Environment
JVM: OpenJDK 64-Bit Server VM
Default Encoding: UTF-8
Language: en
Country: GB
--></g></svg>