<?xml version="1.0" encoding="UTF-8" standalone="no"?><svg xmlns="http://www.w3.org/2000/svg" xmlns:xlink="http://www.w3.org/1999/xlink" contentScriptType="application/ecmascript" contentStyleType="text/css" height="494px" preserveAspectRatio="none" style="width:276px;height:494px;background:#FFFFFF;" version="1.1" viewBox="0 0 276 494" width="276px" zoomAndPan="magnify"><defs><filter height="300%" id="f1xb6g04sefgzp" width="300%" x="-1" y="-1"><feGaussianBlur result="blurOut" stdDeviation="2.0"/><feColorMatrix in="blurOut" result="blurOut2" type="matrix" values="0 0 0 0 0 0 0 0 0 0 0 0 0 0 0 0 0 0 .4 0"/><feOffset dx="4.0" dy="4.0" in="blurOut2" result="blurOut3"/><feBlend in="SourceGraphic" in2="blurOut3" mode="normal"/></filter></defs><g><ellipse cx="135" cy="20" fill="#000000" filter="url(#f1xb6g04sefgzp)" rx="10" ry="10" style="stroke:none;stroke-width:1.0;"/><rect fill="#F8F8F8" filter="url(#f1xb6g04sefgzp)" height="47.9375" rx="12.5" ry="12.5" style="stroke:#383838;stroke-width:1.5;" width="147" x="61.5" y="50"/><text fill="#000000" font-family="sans-serif" font-size="12" lengthAdjust="spacing" textLength="127" x="71.5" y="71.1387">any data received in</text><text fill="#000000" font-family="sans-serif" font-size="12" font-weight="bold" lengthAdjust="spacing" textLength="92" x="71.5" y="85.1074">Data Relayer</text><rect fill="#F8F8F8" filter="url(#f1xb6g04sefgzp)" height="47.9375" rx="12.5" ry="12.5" style="stroke:#383838;stroke-width:1.5;" width="219" x="25.5" y="117.9375"/><text fill="#000000" font-family="sans-serif" font-size="12" lengthAdjust="spacing" textLength="168" x="35.5" y="139.0762">lgt 92 gps data received in</text><text fill="#000000" font-family="sans-serif" font-size="12" font-weight="bold" lengthAdjust="spacing" textLength="199" x="35.5" y="153.0449">LGT 92 GPS Sensor Gateway</text><rect fill="#F8F8F8" filter="url(#f1xb6g04sefgzp)" height="47.9375" rx="12.5" ry="12.5" style="stroke:#383838;stroke-width:1.5;" width="227" x="21.5" y="185.875"/><text fill="#000000" font-family="sans-serif" font-size="12" lengthAdjust="spacing" textLength="181" x="31.5" y="207.0137">lgt 92 gps data processed in</text><text fill="#000000" font-family="sans-serif" font-size="12" font-weight="bold" lengthAdjust="spacing" textLength="207" x="31.5" y="220.9824">LGT 92 GPS Sensor Processor</text><rect fill="#F8F8F8" filter="url(#f1xb6g04sefgzp)" height="47.9375" rx="12.5" ry="12.5" style="stroke:#383838;stroke-width:1.5;" width="248" x="11" y="253.8125"/><text fill="#000000" font-family="sans-serif" font-size="12" lengthAdjust="spacing" textLength="228" x="21" y="274.9512">device records added to gps data in</text><text fill="#000000" font-family="sans-serif" font-size="12" font-weight="bold" lengthAdjust="spacing" textLength="213" x="21" y="288.9199">Device Records Slave Backend</text><rect fill="#F8F8F8" filter="url(#f1xb6g04sefgzp)" height="47.9375" rx="12.5" ry="12.5" style="stroke:#383838;stroke-width:1.5;" width="229" x="20.5" y="321.75"/><text fill="#000000" font-family="sans-serif" font-size="12" lengthAdjust="spacing" textLength="209" x="30.5" y="342.8887">gps data with records received in</text><text fill="#000000" font-family="sans-serif" font-size="12" font-weight="bold" lengthAdjust="spacing" textLength="189" x="30.5" y="356.8574">Location Tracking Backend</text><rect fill="#F8F8F8" filter="url(#f1xb6g04sefgzp)" height="47.9375" rx="12.5" ry="12.5" style="stroke:#383838;stroke-width:1.5;" width="229" x="20.5" y="389.6875"/><text fill="#000000" font-family="sans-serif" font-size="12" lengthAdjust="spacing" textLength="209" x="30.5" y="410.8262">gps data with records received in</text><text fill="#000000" font-family="sans-serif" font-size="12" font-weight="bold" lengthAdjust="spacing" textLength="194" x="30.5" y="424.7949">Location Tracking Frontend</text><ellipse cx="135" cy="467.625" fill="#FFFFFF" filter="url(#f1xb6g04sefgzp)" rx="10" ry="10" style="stroke:#000000;stroke-width:1.5;"/><line style="stroke:#000000;stroke-width:2.5;" x1="128.8128" x2="141.1872" y1="461.4378" y2="473.8122"/><line style="stroke:#000000;stroke-width:2.5;" x1="141.1872" x2="128.8128" y1="461.4378" y2="473.8122"/><line style="stroke:#383838;stroke-width:1.5;" x1="135" x2="135" y1="30" y2="50"/><polygon fill="#383838" points="131,40,135,50,139,40,135,44" style="stroke:#383838;stroke-width:1.0;"/><line style="stroke:#383838;stroke-width:1.5;" x1="135" x2="135" y1="97.9375" y2="117.9375"/><polygon fill="#383838" points="131,107.9375,135,117.9375,139,107.9375,135,111.9375" style="stroke:#383838;stroke-width:1.0;"/><line style="stroke:#383838;stroke-width:1.5;" x1="135" x2="135" y1="165.875" y2="185.875"/><polygon fill="#383838" points="131,175.875,135,185.875,139,175.875,135,179.875" style="stroke:#383838;stroke-width:1.0;"/><line style="stroke:#383838;stroke-width:1.5;" x1="135" x2="135" y1="233.8125" y2="253.8125"/><polygon fill="#383838" points="131,243.8125,135,253.8125,139,243.8125,135,247.8125" style="stroke:#383838;stroke-width:1.0;"/><line style="stroke:#383838;stroke-width:1.5;" x1="135" x2="135" y1="301.75" y2="321.75"/><polygon fill="#383838" points="131,311.75,135,321.75,139,311.75,135,315.75" style="stroke:#383838;stroke-width:1.0;"/><line style="stroke:#383838;stroke-width:1.5;" x1="135" x2="135" y1="369.6875" y2="389.6875"/><polygon fill="#383838" points="131,379.6875,135,389.6875,139,379.6875,135,383.6875" style="stroke:#383838;stroke-width:1.0;"/><line style="stroke:#383838;stroke-width:1.5;" x1="135" x2="135" y1="437.625" y2="457.625"/><polygon fill="#383838" points="131,447.625,135,457.625,139,447.625,135,451.625" style="stroke:#383838;stroke-width:1.0;"/><!--MD5=[6d46431e6f18b7be5e1759b8d748d449]
@startuml data-flow

skinparam Monochrome true

start
:any data received in\n**Data Relayer**;
:lgt 92 gps data received in\n**LGT 92 GPS Sensor Gateway**;
:lgt 92 gps data processed in\n**LGT 92 GPS Sensor Processor**;
:device records added to gps data in\n**Device Records Slave Backend**;
:gps data with records received in\n**Location Tracking Backend**;
:gps data with records received in\n**Location Tracking Frontend**;
end

@enduml

PlantUML version 1.2021.9(Sun Jul 25 11:13:56 WEST 2021)
(GPL source distribution)
Java Runtime: OpenJDK Runtime Environment
JVM: OpenJDK 64-Bit Server VM
Default Encoding: UTF-8
Language: en
Country: GB
--></g></svg>