<?xml version="1.0" encoding="UTF-8" standalone="no"?><svg xmlns="http://www.w3.org/2000/svg" xmlns:xlink="http://www.w3.org/1999/xlink" contentScriptType="application/ecmascript" contentStyleType="text/css" height="655px" preserveAspectRatio="none" style="width:536px;height:655px;background:#FFFFFF;" version="1.1" viewBox="0 0 536 655" width="536px" zoomAndPan="magnify"><defs><filter height="300%" id="fctzrutlk7nk3" width="300%" x="-1" y="-1"><feGaussianBlur result="blurOut" stdDeviation="2.0"/><feColorMatrix in="blurOut" result="blurOut2" type="matrix" values="0 0 0 0 0 0 0 0 0 0 0 0 0 0 0 0 0 0 .4 0"/><feOffset dx="4.0" dy="4.0" in="blurOut2" result="blurOut3"/><feBlend in="SourceGraphic" in2="blurOut3" mode="normal"/></filter></defs><g><!--MD5=[81cd5702733e27fcf5b24c471b1c69ff]
cluster Location Tracking Backend--><rect fill="#FFFFFF" filter="url(#fctzrutlk7nk3)" height="634" style="stroke:#000000;stroke-width:1.5;" width="515" x="7" y="7"/><rect fill="#FFFFFF" height="10" style="stroke:#000000;stroke-width:1.5;" width="15" x="502" y="12"/><rect fill="#FFFFFF" height="2" style="stroke:#000000;stroke-width:1.5;" width="4" x="500" y="14"/><rect fill="#FFFFFF" height="2" style="stroke:#000000;stroke-width:1.5;" width="4" x="500" y="18"/><text fill="#000000" font-family="sans-serif" font-size="14" font-weight="bold" lengthAdjust="spacing" textLength="212" x="158.5" y="32.9951">Location Tracking Backend</text><!--MD5=[fb9ccc1243333cb7b4e4755ff5f6d2f9]
cluster IF--><rect fill="#FFFFFF" filter="url(#fctzrutlk7nk3)" height="497" style="stroke:#000000;stroke-width:1.5;" width="321" x="39" y="58"/><rect fill="#FFFFFF" height="10" style="stroke:#000000;stroke-width:1.5;" width="15" x="340" y="63"/><rect fill="#FFFFFF" height="2" style="stroke:#000000;stroke-width:1.5;" width="4" x="338" y="65"/><rect fill="#FFFFFF" height="2" style="stroke:#000000;stroke-width:1.5;" width="4" x="338" y="69"/><text fill="#000000" font-family="sans-serif" font-size="14" font-weight="bold" lengthAdjust="spacing" textLength="110" x="144.5" y="83.9951">Infrastructure</text><!--MD5=[d83f6433aa5c63d05e28e5571aae20c0]
cluster EP--><rect fill="#FFFFFF" filter="url(#fctzrutlk7nk3)" height="97" style="stroke:#000000;stroke-width:1.5;" width="249" x="71" y="426"/><rect fill="#FFFFFF" height="10" style="stroke:#000000;stroke-width:1.5;" width="15" x="300" y="431"/><rect fill="#FFFFFF" height="2" style="stroke:#000000;stroke-width:1.5;" width="4" x="298" y="433"/><rect fill="#FFFFFF" height="2" style="stroke:#000000;stroke-width:1.5;" width="4" x="298" y="437"/><text fill="#000000" font-family="sans-serif" font-size="14" font-weight="bold" lengthAdjust="spacing" textLength="69" x="161" y="451.9951">Endpoint</text><!--MD5=[118f42602524ad482f02b27ef22fc383]
entity D--><rect fill="#F8F8F8" filter="url(#fctzrutlk7nk3)" height="46.2969" style="stroke:#383838;stroke-width:1.5;" width="93" x="398.5" y="579"/><rect fill="#F8F8F8" height="10" style="stroke:#383838;stroke-width:1.5;" width="15" x="471.5" y="584"/><rect fill="#F8F8F8" height="2" style="stroke:#383838;stroke-width:1.5;" width="4" x="469.5" y="586"/><rect fill="#F8F8F8" height="2" style="stroke:#383838;stroke-width:1.5;" width="4" x="469.5" y="590"/><text fill="#000000" font-family="sans-serif" font-size="14" lengthAdjust="spacing" textLength="53" x="413.5" y="611.9951">Domain</text><!--MD5=[d4469e01bb159a355c3045b8c3b4a047]
entity As--><rect fill="#F8F8F8" filter="url(#fctzrutlk7nk3)" height="46.2969" style="stroke:#383838;stroke-width:1.5;" width="115" x="387.5" y="343"/><rect fill="#F8F8F8" height="10" style="stroke:#383838;stroke-width:1.5;" width="15" x="482.5" y="348"/><rect fill="#F8F8F8" height="2" style="stroke:#383838;stroke-width:1.5;" width="4" x="480.5" y="350"/><rect fill="#F8F8F8" height="2" style="stroke:#383838;stroke-width:1.5;" width="4" x="480.5" y="354"/><text fill="#000000" font-family="sans-serif" font-size="14" lengthAdjust="spacing" textLength="75" x="402.5" y="375.9951">Application</text><!--MD5=[5e8d8cd87e12dd44023b86af8e3adf0c]
entity D_API--><ellipse cx="445" cy="484" fill="#F8F8F8" filter="url(#fctzrutlk7nk3)" rx="8" ry="8" style="stroke:#383838;stroke-width:1.5;"/><text fill="#000000" font-family="sans-serif" font-size="14" lengthAdjust="spacing" textLength="85" x="402.5" y="513.9951">Domain _API</text><!--MD5=[8eed6d8db25bb07af56a459be903da5a]
entity As_API--><ellipse cx="445" cy="248" fill="#F8F8F8" filter="url(#fctzrutlk7nk3)" rx="8" ry="8" style="stroke:#383838;stroke-width:1.5;"/><text fill="#000000" font-family="sans-serif" font-size="14" lengthAdjust="spacing" textLength="107" x="391.5" y="277.9951">Application _API</text><!--MD5=[aeb3e8cfcd78f1a8162b65b58f1aa554]
entity Bt--><rect fill="#F8F8F8" filter="url(#fctzrutlk7nk3)" height="46.2969" style="stroke:#383838;stroke-width:1.5;" width="73" x="162.5" y="225"/><rect fill="#F8F8F8" height="10" style="stroke:#383838;stroke-width:1.5;" width="15" x="215.5" y="230"/><rect fill="#F8F8F8" height="2" style="stroke:#383838;stroke-width:1.5;" width="4" x="213.5" y="232"/><rect fill="#F8F8F8" height="2" style="stroke:#383838;stroke-width:1.5;" width="4" x="213.5" y="236"/><text fill="#000000" font-family="sans-serif" font-size="14" lengthAdjust="spacing" textLength="33" x="177.5" y="257.9951">Boot</text><!--MD5=[4c776bbfc3ba96c722867037fb0bb225]
entity Bt_API--><ellipse cx="199" cy="130" fill="#F8F8F8" filter="url(#fctzrutlk7nk3)" rx="8" ry="8" style="stroke:#383838;stroke-width:1.5;"/><text fill="#000000" font-family="sans-serif" font-size="14" lengthAdjust="spacing" textLength="65" x="166.5" y="159.9951">Boot _API</text><!--MD5=[6265e97685a22a8e61a85d641eb98707]
entity RWS_API--><ellipse cx="133" cy="366" fill="#F8F8F8" filter="url(#fctzrutlk7nk3)" rx="8" ry="8" style="stroke:#383838;stroke-width:1.5;"/><text fill="#000000" font-family="sans-serif" font-size="14" lengthAdjust="spacing" textLength="92" x="87" y="395.9951">GraphQL _API</text><!--MD5=[5bc1da023dab9ec148bcf7a027b8e766]
entity EL_API--><ellipse cx="266" cy="366" fill="#F8F8F8" filter="url(#fctzrutlk7nk3)" rx="8" ry="8" style="stroke:#383838;stroke-width:1.5;"/><text fill="#000000" font-family="sans-serif" font-size="14" lengthAdjust="spacing" textLength="73" x="229.5" y="395.9951">AMQP _API</text><!--MD5=[10dc4799a0fb5de45b360b77fa2c81d8]
entity RWS--><rect fill="#F8F8F8" filter="url(#fctzrutlk7nk3)" height="46.2969" style="stroke:#383838;stroke-width:1.5;" width="100" x="87" y="461"/><rect fill="#F8F8F8" height="10" style="stroke:#383838;stroke-width:1.5;" width="15" x="167" y="466"/><rect fill="#F8F8F8" height="2" style="stroke:#383838;stroke-width:1.5;" width="4" x="165" y="468"/><rect fill="#F8F8F8" height="2" style="stroke:#383838;stroke-width:1.5;" width="4" x="165" y="472"/><text fill="#000000" font-family="sans-serif" font-size="14" lengthAdjust="spacing" textLength="60" x="102" y="493.9951">GraphQL</text><!--MD5=[c37df8c2fa1b5f86dd58dff9a3868e14]
entity EL--><rect fill="#F8F8F8" filter="url(#fctzrutlk7nk3)" height="46.2969" style="stroke:#383838;stroke-width:1.5;" width="81" x="222.5" y="461"/><rect fill="#F8F8F8" height="10" style="stroke:#383838;stroke-width:1.5;" width="15" x="283.5" y="466"/><rect fill="#F8F8F8" height="2" style="stroke:#383838;stroke-width:1.5;" width="4" x="281.5" y="468"/><rect fill="#F8F8F8" height="2" style="stroke:#383838;stroke-width:1.5;" width="4" x="281.5" y="472"/><text fill="#000000" font-family="sans-serif" font-size="14" lengthAdjust="spacing" textLength="41" x="237.5" y="493.9951">AMQP</text><!--MD5=[79e6b5400bb9bae13620d37289b6bb96]
link D_API to D--><path d="M445,493.34 C445,511.01 445,552.68 445,578.69 " fill="none" id="D_API-D" style="stroke:#383838;stroke-width:1.0;"/><!--MD5=[45cfc06197cc99c9eeda26f51a4cde82]
link As_API to As--><path d="M445,257.34 C445,275.01 445,316.68 445,342.69 " fill="none" id="As_API-As" style="stroke:#383838;stroke-width:1.0;"/><!--MD5=[e56333e6acc3c247f092ef20418a3f39]
link Bt_API to Bt--><path d="M199,139.34 C199,157.01 199,198.68 199,224.69 " fill="none" id="Bt_API-Bt" style="stroke:#383838;stroke-width:1.0;"/><!--MD5=[921847429c160150135978ae8245432c]
link EL_API to EL--><path d="M265.78,375.34 C265.33,393.01 264.25,434.68 263.58,460.69 " fill="none" id="EL_API-EL" style="stroke:#383838;stroke-width:1.0;"/><!--MD5=[78a176860ffc87325e169c41fabeb839]
link RWS_API to RWS--><path d="M133.29,375.34 C133.9,393.01 135.33,434.68 136.23,460.69 " fill="none" id="RWS_API-RWS" style="stroke:#383838;stroke-width:1.0;"/><!--MD5=[c201985c8ad2c0561ad50635cc927fb4]
link As to D_API--><path d="M445,389.09 C445,411.06 445,444.37 445,464.85 " fill="none" id="As-to-D_API" style="stroke:#383838;stroke-width:1.0;"/><path d="M453.4572,471.9218 A9,9 0 0 0 436.5428 471.9218" style="stroke:#383838;stroke-width:1.5;fill:none;"/><!--MD5=[6ca5b80ad3272b052c3f4037f32f8fa7]
link IF to As_API--><path d="M360.1535,141.1674 C360.2346,141.2686 360.3163,141.3705 360.3984,141.4729 C360.5627,141.6779 360.729,141.8853 360.8973,142.0952 C361.2338,142.5151 361.5782,142.9447 361.9302,143.3838 C367.5616,150.4088 375.1306,159.85 383.4163,170.185 C399.9875,190.855 419.425,215.1 431.96,230.74 " fill="none" id="IF-to-As_API" style="stroke:#383838;stroke-width:1.0;"/><path d="M443.1808,231.2069 A9,9 0 0 0 429.9869 241.7909" style="stroke:#383838;stroke-width:1.5;fill:none;"/><!--MD5=[55bb4c42fdf86f2ad148ad792cc4386d]
link Bt to RWS_API--><path d="M186.43,271.09 C173.64,293.58 154.09,327.93 142.53,348.26 " fill="none" id="Bt-to-RWS_API" style="stroke:#383838;stroke-width:1.0;"/><path d="M146.4228,358.5076 A9,9 0 0 0 131.7221 350.1417" style="stroke:#383838;stroke-width:1.5;fill:none;"/><!--MD5=[e8deccdcf50566870ed10be3c9dd30a3]
link Bt to EL_API--><path d="M211.76,271.09 C224.75,293.58 244.59,327.93 256.33,348.26 " fill="none" id="Bt-to-EL_API" style="stroke:#383838;stroke-width:1.0;"/><path d="M267.164,350.1047 A9,9 0 0 0 252.517 358.5642" style="stroke:#383838;stroke-width:1.5;fill:none;"/><!--MD5=[86fb67b817ba895974ef0ed7fe4fc729]
@startuml logical-view-level3-location-tracking-backend

skinparam Monochrome true

component "Location Tracking Backend" {
    component "Domain" as D
    component "Application" as As
    component "Infrastructure" as IF {
        component "Boot" as Bt
        component "Endpoint" as EP {
            component "GraphQL" as RWS
            component "AMQP" as EL
        }
        () "Boot _API" as Bt_API
        () "GraphQL _API" as RWS_API
        () "AMQP _API" as EL_API
    }

    () "Domain _API" as D_API
    () "Application _API" as As_API

    D_API - - D
    As_API - - As
    Bt_API - - Bt
    EL_API - - EL
    RWS_API - - RWS

    As - -( D_API
    IF - -( As_API
    Bt - -( RWS_API
    Bt - -( EL_API
}

@enduml

PlantUML version 1.2021.9(Sun Jul 25 11:13:56 WEST 2021)
(GPL source distribution)
Java Runtime: OpenJDK Runtime Environment
JVM: OpenJDK 64-Bit Server VM
Default Encoding: UTF-8
Language: en
Country: GB
--></g></svg>