<?xml version="1.0" encoding="UTF-8" standalone="no"?><svg xmlns="http://www.w3.org/2000/svg" xmlns:xlink="http://www.w3.org/1999/xlink" contentScriptType="application/ecmascript" contentStyleType="text/css" height="921px" preserveAspectRatio="none" style="width:2232px;height:921px;background:#FFFFFF;" version="1.1" viewBox="0 0 2232 921" width="2232px" zoomAndPan="magnify"><defs/><g><!--MD5=[85f6e7297d1ad81d8c1382e17d44cf2c]
cluster Environment--><rect fill="#FFFFFF" height="751" style="stroke:#000000;stroke-width:1.5;" width="2219" x="7" y="59"/><rect fill="#FFFFFF" height="10" style="stroke:#000000;stroke-width:1.5;" width="15" x="2206" y="64"/><rect fill="#FFFFFF" height="2" style="stroke:#000000;stroke-width:1.5;" width="4" x="2204" y="66"/><rect fill="#FFFFFF" height="2" style="stroke:#000000;stroke-width:1.5;" width="4" x="2204" y="70"/><text fill="#000000" font-family="sans-serif" font-size="14" font-style="italic" lengthAdjust="spacing" textLength="69" x="1082" y="84.9951">«System»</text><text fill="#000000" font-family="sans-serif" font-size="14" font-weight="bold" lengthAdjust="spacing" textLength="99" x="1067" y="101.292">Environment</text><!--MD5=[2f974df144d935b84f61c768008119cd]
cluster UIAG--><rect fill="#FFFFFF" height="146" style="stroke:#000000;stroke-width:1.5;" width="1020" x="1106" y="126"/><rect fill="#FFFFFF" height="10" style="stroke:#000000;stroke-width:1.5;" width="15" x="2106" y="131"/><rect fill="#FFFFFF" height="2" style="stroke:#000000;stroke-width:1.5;" width="4" x="2104" y="133"/><rect fill="#FFFFFF" height="2" style="stroke:#000000;stroke-width:1.5;" width="4" x="2104" y="137"/><text fill="#000000" font-family="sans-serif" font-size="14" font-style="italic" lengthAdjust="spacing" textLength="85" x="1573.5" y="151.9951">«Container»</text><text fill="#000000" font-family="sans-serif" font-size="14" font-weight="bold" lengthAdjust="spacing" textLength="110" x="1561" y="168.292">UI Aggregator</text><!--MD5=[2c8bfc6f691a2260a342f8a3a45a5f4e]
entity MB--><rect fill="#F8F8F8" height="62.5938" style="stroke:#383838;stroke-width:1.5;" width="153" x="661.5" y="731"/><rect fill="#F8F8F8" height="10" style="stroke:#383838;stroke-width:1.5;" width="15" x="794.5" y="736"/><rect fill="#F8F8F8" height="2" style="stroke:#383838;stroke-width:1.5;" width="4" x="792.5" y="738"/><rect fill="#F8F8F8" height="2" style="stroke:#383838;stroke-width:1.5;" width="4" x="792.5" y="742"/><text fill="#000000" font-family="sans-serif" font-size="14" font-style="italic" lengthAdjust="spacing" textLength="85" x="690.5" y="763.9951">«Container»</text><text fill="#000000" font-family="sans-serif" font-size="14" lengthAdjust="spacing" textLength="113" x="676.5" y="780.292">Message Broker</text><!--MD5=[de9d829787e3a43b2ded327ec6864356]
entity DRB--><rect fill="#F8F8F8" height="62.5938" style="stroke:#383838;stroke-width:1.5;" width="265" x="1172.5" y="458"/><rect fill="#F8F8F8" height="10" style="stroke:#383838;stroke-width:1.5;" width="15" x="1417.5" y="463"/><rect fill="#F8F8F8" height="2" style="stroke:#383838;stroke-width:1.5;" width="4" x="1415.5" y="465"/><rect fill="#F8F8F8" height="2" style="stroke:#383838;stroke-width:1.5;" width="4" x="1415.5" y="469"/><text fill="#000000" font-family="sans-serif" font-size="14" font-style="italic" lengthAdjust="spacing" textLength="85" x="1257.5" y="490.9951">«Container»</text><text fill="#000000" font-family="sans-serif" font-size="14" lengthAdjust="spacing" textLength="225" x="1187.5" y="507.292">Device Records Master Backend</text><!--MD5=[16d24166dd61b60d67a9b622353efc3e]
entity DRSB--><rect fill="#F8F8F8" height="62.5938" style="stroke:#383838;stroke-width:1.5;" width="254" x="1473" y="458"/><rect fill="#F8F8F8" height="10" style="stroke:#383838;stroke-width:1.5;" width="15" x="1707" y="463"/><rect fill="#F8F8F8" height="2" style="stroke:#383838;stroke-width:1.5;" width="4" x="1705" y="465"/><rect fill="#F8F8F8" height="2" style="stroke:#383838;stroke-width:1.5;" width="4" x="1705" y="469"/><text fill="#000000" font-family="sans-serif" font-size="14" font-style="italic" lengthAdjust="spacing" textLength="85" x="1552.5" y="490.9951">«Container»</text><text fill="#000000" font-family="sans-serif" font-size="14" lengthAdjust="spacing" textLength="214" x="1488" y="507.292">Device Records Slave Backend</text><!--MD5=[07f1f74cdc79fa2fd2740ec7d7a64eca]
entity LTB--><rect fill="#F8F8F8" height="62.5938" style="stroke:#383838;stroke-width:1.5;" width="226" x="1762" y="458"/><rect fill="#F8F8F8" height="10" style="stroke:#383838;stroke-width:1.5;" width="15" x="1968" y="463"/><rect fill="#F8F8F8" height="2" style="stroke:#383838;stroke-width:1.5;" width="4" x="1966" y="465"/><rect fill="#F8F8F8" height="2" style="stroke:#383838;stroke-width:1.5;" width="4" x="1966" y="469"/><text fill="#000000" font-family="sans-serif" font-size="14" font-style="italic" lengthAdjust="spacing" textLength="85" x="1827.5" y="490.9951">«Container»</text><text fill="#000000" font-family="sans-serif" font-size="14" lengthAdjust="spacing" textLength="186" x="1777" y="507.292">Location Tracking Backend</text><!--MD5=[91279a835da4e32ef6d7ba373316e020]
entity DDG--><rect fill="#F8F8F8" height="62.5938" style="stroke:#383838;stroke-width:1.5;" width="135" x="183.5" y="458"/><rect fill="#F8F8F8" height="10" style="stroke:#383838;stroke-width:1.5;" width="15" x="298.5" y="463"/><rect fill="#F8F8F8" height="2" style="stroke:#383838;stroke-width:1.5;" width="4" x="296.5" y="465"/><rect fill="#F8F8F8" height="2" style="stroke:#383838;stroke-width:1.5;" width="4" x="296.5" y="469"/><text fill="#000000" font-family="sans-serif" font-size="14" font-style="italic" lengthAdjust="spacing" textLength="85" x="203.5" y="490.9951">«Container»</text><text fill="#000000" font-family="sans-serif" font-size="14" lengthAdjust="spacing" textLength="95" x="198.5" y="507.292">Data Gateway</text><!--MD5=[916b332d59e591ecaa5566188f0cdc33]
entity DR--><rect fill="#F8F8F8" height="62.5938" style="stroke:#383838;stroke-width:1.5;" width="127" x="187.5" y="731"/><rect fill="#F8F8F8" height="10" style="stroke:#383838;stroke-width:1.5;" width="15" x="294.5" y="736"/><rect fill="#F8F8F8" height="2" style="stroke:#383838;stroke-width:1.5;" width="4" x="292.5" y="738"/><rect fill="#F8F8F8" height="2" style="stroke:#383838;stroke-width:1.5;" width="4" x="292.5" y="742"/><text fill="#000000" font-family="sans-serif" font-size="14" font-style="italic" lengthAdjust="spacing" textLength="85" x="203.5" y="763.9951">«Container»</text><text fill="#000000" font-family="sans-serif" font-size="14" lengthAdjust="spacing" textLength="87" x="202.5" y="780.292">Data Relayer</text><!--MD5=[bdf2b643721ab24f6b6cc4832b6b9e51]
entity DPSB--><rect fill="#F8F8F8" height="62.5938" style="stroke:#383838;stroke-width:1.5;" width="251" x="886.5" y="458"/><rect fill="#F8F8F8" height="10" style="stroke:#383838;stroke-width:1.5;" width="15" x="1117.5" y="463"/><rect fill="#F8F8F8" height="2" style="stroke:#383838;stroke-width:1.5;" width="4" x="1115.5" y="465"/><rect fill="#F8F8F8" height="2" style="stroke:#383838;stroke-width:1.5;" width="4" x="1115.5" y="469"/><text fill="#000000" font-family="sans-serif" font-size="14" font-style="italic" lengthAdjust="spacing" textLength="85" x="964.5" y="490.9951">«Container»</text><text fill="#000000" font-family="sans-serif" font-size="14" lengthAdjust="spacing" textLength="211" x="901.5" y="507.292">Data Processor Slave Backend</text><!--MD5=[7d5e30ccfc93022cd060f94bf2de644f]
entity DPMB--><rect fill="#F8F8F8" height="62.5938" style="stroke:#383838;stroke-width:1.5;" width="262" x="589" y="458"/><rect fill="#F8F8F8" height="10" style="stroke:#383838;stroke-width:1.5;" width="15" x="831" y="463"/><rect fill="#F8F8F8" height="2" style="stroke:#383838;stroke-width:1.5;" width="4" x="829" y="465"/><rect fill="#F8F8F8" height="2" style="stroke:#383838;stroke-width:1.5;" width="4" x="829" y="469"/><text fill="#000000" font-family="sans-serif" font-size="14" font-style="italic" lengthAdjust="spacing" textLength="85" x="672.5" y="490.9951">«Container»</text><text fill="#000000" font-family="sans-serif" font-size="14" lengthAdjust="spacing" textLength="222" x="604" y="507.292">Data Processor Master Backend</text><!--MD5=[879c1108b25478de35d4f7b9898923f2]
entity DVB--><rect fill="#F8F8F8" height="62.5938" style="stroke:#383838;stroke-width:1.5;" width="200" x="354" y="458"/><rect fill="#F8F8F8" height="10" style="stroke:#383838;stroke-width:1.5;" width="15" x="534" y="463"/><rect fill="#F8F8F8" height="2" style="stroke:#383838;stroke-width:1.5;" width="4" x="532" y="465"/><rect fill="#F8F8F8" height="2" style="stroke:#383838;stroke-width:1.5;" width="4" x="532" y="469"/><text fill="#000000" font-family="sans-serif" font-size="14" font-style="italic" lengthAdjust="spacing" textLength="85" x="406.5" y="490.9951">«Container»</text><text fill="#000000" font-family="sans-serif" font-size="14" lengthAdjust="spacing" textLength="160" x="369" y="507.292">Data Validator Backend</text><!--MD5=[5c672979971b01ffe3e26ca5e0224f67]
entity DRDB--><rect fill="#F8F8F8" height="62.5938" style="stroke:#383838;stroke-width:1.5;" width="219" x="1342.5" y="731"/><rect fill="#F8F8F8" height="10" style="stroke:#383838;stroke-width:1.5;" width="15" x="1541.5" y="736"/><rect fill="#F8F8F8" height="2" style="stroke:#383838;stroke-width:1.5;" width="4" x="1539.5" y="738"/><rect fill="#F8F8F8" height="2" style="stroke:#383838;stroke-width:1.5;" width="4" x="1539.5" y="742"/><text fill="#000000" font-family="sans-serif" font-size="14" font-style="italic" lengthAdjust="spacing" textLength="85" x="1404.5" y="763.9951">«Container»</text><text fill="#000000" font-family="sans-serif" font-size="14" lengthAdjust="spacing" textLength="179" x="1357.5" y="780.292">Device Records Database</text><!--MD5=[f1831cdda53ca662ba17e366a7f7f424]
entity DPDB--><rect fill="#F8F8F8" height="62.5938" style="stroke:#383838;stroke-width:1.5;" width="216" x="868" y="731"/><rect fill="#F8F8F8" height="10" style="stroke:#383838;stroke-width:1.5;" width="15" x="1064" y="736"/><rect fill="#F8F8F8" height="2" style="stroke:#383838;stroke-width:1.5;" width="4" x="1062" y="738"/><rect fill="#F8F8F8" height="2" style="stroke:#383838;stroke-width:1.5;" width="4" x="1062" y="742"/><text fill="#000000" font-family="sans-serif" font-size="14" font-style="italic" lengthAdjust="spacing" textLength="85" x="928.5" y="763.9951">«Container»</text><text fill="#000000" font-family="sans-serif" font-size="14" lengthAdjust="spacing" textLength="176" x="883" y="780.292">Data Processor Database</text><!--MD5=[1a416c3156d55d9446032ebbee093b81]
entity DS--><rect fill="#F8F8F8" height="62.5938" style="stroke:#383838;stroke-width:1.5;" width="125" x="23.5" y="458"/><rect fill="#F8F8F8" height="10" style="stroke:#383838;stroke-width:1.5;" width="15" x="128.5" y="463"/><rect fill="#F8F8F8" height="2" style="stroke:#383838;stroke-width:1.5;" width="4" x="126.5" y="465"/><rect fill="#F8F8F8" height="2" style="stroke:#383838;stroke-width:1.5;" width="4" x="126.5" y="469"/><text fill="#000000" font-family="sans-serif" font-size="14" font-style="italic" lengthAdjust="spacing" textLength="85" x="38.5" y="490.9951">«Container»</text><text fill="#000000" font-family="sans-serif" font-size="14" lengthAdjust="spacing" textLength="73" x="44.5" y="507.292">Data Store</text><!--MD5=[0d4560ec263e73dd5d18ec3da06f96fd]
entity QUESTDB--><rect fill="#F8F8F8" height="62.5938" style="stroke:#383838;stroke-width:1.5;" width="125" x="1812.5" y="731"/><rect fill="#F8F8F8" height="10" style="stroke:#383838;stroke-width:1.5;" width="15" x="1917.5" y="736"/><rect fill="#F8F8F8" height="2" style="stroke:#383838;stroke-width:1.5;" width="4" x="1915.5" y="738"/><rect fill="#F8F8F8" height="2" style="stroke:#383838;stroke-width:1.5;" width="4" x="1915.5" y="742"/><text fill="#000000" font-family="sans-serif" font-size="14" font-style="italic" lengthAdjust="spacing" textLength="85" x="1827.5" y="763.9951">«Container»</text><text fill="#000000" font-family="sans-serif" font-size="14" lengthAdjust="spacing" textLength="63" x="1838.5" y="780.292">QuestDB</text><!--MD5=[03988f2df4231e1a486c01e3236a3a84]
entity MONGODB--><rect fill="#F8F8F8" height="62.5938" style="stroke:#383838;stroke-width:1.5;" width="125" x="23.5" y="731"/><rect fill="#F8F8F8" height="10" style="stroke:#383838;stroke-width:1.5;" width="15" x="128.5" y="736"/><rect fill="#F8F8F8" height="2" style="stroke:#383838;stroke-width:1.5;" width="4" x="126.5" y="738"/><rect fill="#F8F8F8" height="2" style="stroke:#383838;stroke-width:1.5;" width="4" x="126.5" y="742"/><text fill="#000000" font-family="sans-serif" font-size="14" font-style="italic" lengthAdjust="spacing" textLength="85" x="38.5" y="763.9951">«Container»</text><text fill="#000000" font-family="sans-serif" font-size="14" lengthAdjust="spacing" textLength="69" x="46.5" y="780.292">MongoDB</text><!--MD5=[097a4c9b86af18cefe5f517f95961e38]
entity SAB--><rect fill="#F8F8F8" height="62.5938" style="stroke:#383838;stroke-width:1.5;" width="187" x="2023.5" y="458"/><rect fill="#F8F8F8" height="10" style="stroke:#383838;stroke-width:1.5;" width="15" x="2190.5" y="463"/><rect fill="#F8F8F8" height="2" style="stroke:#383838;stroke-width:1.5;" width="4" x="2188.5" y="465"/><rect fill="#F8F8F8" height="2" style="stroke:#383838;stroke-width:1.5;" width="4" x="2188.5" y="469"/><text fill="#000000" font-family="sans-serif" font-size="14" font-style="italic" lengthAdjust="spacing" textLength="85" x="2069.5" y="490.9951">«Container»</text><text fill="#000000" font-family="sans-serif" font-size="14" lengthAdjust="spacing" textLength="147" x="2038.5" y="507.292">Simple Auth Backend</text><!--MD5=[ed43a859708a376e35ae74978de1b490]
entity MB_API--><ellipse cx="738" cy="626" fill="#F8F8F8" rx="8" ry="8" style="stroke:#383838;stroke-width:1.5;"/><text fill="#000000" font-family="sans-serif" font-size="14" lengthAdjust="spacing" textLength="113" x="681.5" y="655.9951">Message Broker</text><text fill="#000000" font-family="sans-serif" font-size="14" lengthAdjust="spacing" textLength="21" x="681.5" y="672.292">API</text><!--MD5=[0ce5a9617f51ae4b5bc891fe128d05dc]
entity LTB_API--><ellipse cx="1792" cy="353" fill="#F8F8F8" rx="8" ry="8" style="stroke:#383838;stroke-width:1.5;"/><text fill="#000000" font-family="sans-serif" font-size="14" lengthAdjust="spacing" textLength="186" x="1699" y="382.9951">Location Tracking Backend</text><text fill="#000000" font-family="sans-serif" font-size="14" lengthAdjust="spacing" textLength="21" x="1699" y="399.292">API</text><!--MD5=[9244efad2dc02808af23604ab0304277]
entity DRB_API--><ellipse cx="1372" cy="353" fill="#F8F8F8" rx="8" ry="8" style="stroke:#383838;stroke-width:1.5;"/><text fill="#000000" font-family="sans-serif" font-size="14" lengthAdjust="spacing" textLength="225" x="1259.5" y="382.9951">Device Records Master Backend</text><text fill="#000000" font-family="sans-serif" font-size="14" lengthAdjust="spacing" textLength="21" x="1259.5" y="399.292">API</text><!--MD5=[6390cbc15964bea49719771afd793c9b]
entity DPMB_API--><ellipse cx="909" cy="353" fill="#F8F8F8" rx="8" ry="8" style="stroke:#383838;stroke-width:1.5;"/><text fill="#000000" font-family="sans-serif" font-size="14" lengthAdjust="spacing" textLength="222" x="798" y="382.9951">Data Processor Master Backend</text><text fill="#000000" font-family="sans-serif" font-size="14" lengthAdjust="spacing" textLength="21" x="798" y="399.292">API</text><!--MD5=[5ca5631ebaf5f86a9fa4e428e4442db3]
entity DRDB_API--><ellipse cx="1452" cy="626" fill="#F8F8F8" rx="8" ry="8" style="stroke:#383838;stroke-width:1.5;"/><text fill="#000000" font-family="sans-serif" font-size="14" lengthAdjust="spacing" textLength="179" x="1362.5" y="655.9951">Device Records Database</text><text fill="#000000" font-family="sans-serif" font-size="14" lengthAdjust="spacing" textLength="21" x="1362.5" y="672.292">API</text><!--MD5=[d282213c50e29b328cdb2ebefa3990e8]
entity DPDB_API--><ellipse cx="976" cy="626" fill="#F8F8F8" rx="8" ry="8" style="stroke:#383838;stroke-width:1.5;"/><text fill="#000000" font-family="sans-serif" font-size="14" lengthAdjust="spacing" textLength="176" x="888" y="655.9951">Data Processor Database</text><text fill="#000000" font-family="sans-serif" font-size="14" lengthAdjust="spacing" textLength="21" x="888" y="672.292">API</text><!--MD5=[e8ad32939caa55f00142e93d75a05e2d]
entity QUESTDB_API--><ellipse cx="1875" cy="626" fill="#F8F8F8" rx="8" ry="8" style="stroke:#383838;stroke-width:1.5;"/><text fill="#000000" font-family="sans-serif" font-size="14" lengthAdjust="spacing" textLength="63" x="1843.5" y="655.9951">QuestDB</text><text fill="#000000" font-family="sans-serif" font-size="14" lengthAdjust="spacing" textLength="21" x="1843.5" y="672.292">API</text><!--MD5=[2d1aaa06eea6692e612a00a28d7bf3bd]
entity MONGODB_API--><ellipse cx="86" cy="626" fill="#F8F8F8" rx="8" ry="8" style="stroke:#383838;stroke-width:1.5;"/><text fill="#000000" font-family="sans-serif" font-size="14" lengthAdjust="spacing" textLength="69" x="51.5" y="655.9951">MongoDB</text><text fill="#000000" font-family="sans-serif" font-size="14" lengthAdjust="spacing" textLength="21" x="51.5" y="672.292">API</text><!--MD5=[7b5d57a7033bc15fa4b522c391528de2]
entity DDG_API--><ellipse cx="251" cy="626" fill="#F8F8F8" rx="8" ry="8" style="stroke:#383838;stroke-width:1.5;"/><text fill="#000000" font-family="sans-serif" font-size="14" lengthAdjust="spacing" textLength="95" x="203.5" y="655.9951">Data Gateway</text><text fill="#000000" font-family="sans-serif" font-size="14" lengthAdjust="spacing" textLength="21" x="203.5" y="672.292">API</text><!--MD5=[43b31bd6260bcb1d65b7ad29f46fe3f2]
entity SAB_API--><ellipse cx="2062" cy="353" fill="#F8F8F8" rx="8" ry="8" style="stroke:#383838;stroke-width:1.5;"/><text fill="#000000" font-family="sans-serif" font-size="14" lengthAdjust="spacing" textLength="82" x="2021" y="382.9951">Simple Auth</text><text fill="#000000" font-family="sans-serif" font-size="14" lengthAdjust="spacing" textLength="21" x="2021" y="399.292">API</text><!--MD5=[96142bef19f749aced95310868fd618c]
entity DRF--><rect fill="#F8F8F8" height="62.5938" style="stroke:#383838;stroke-width:1.5;" width="216" x="1398" y="185"/><rect fill="#F8F8F8" height="10" style="stroke:#383838;stroke-width:1.5;" width="15" x="1594" y="190"/><rect fill="#F8F8F8" height="2" style="stroke:#383838;stroke-width:1.5;" width="4" x="1592" y="192"/><rect fill="#F8F8F8" height="2" style="stroke:#383838;stroke-width:1.5;" width="4" x="1592" y="196"/><text fill="#000000" font-family="sans-serif" font-size="14" font-style="italic" lengthAdjust="spacing" textLength="85" x="1458.5" y="217.9951">«Container»</text><text fill="#000000" font-family="sans-serif" font-size="14" lengthAdjust="spacing" textLength="176" x="1413" y="234.292">Device Records Frontend</text><!--MD5=[248285276881d4606f81bc6a8b2e8491]
entity DPF--><rect fill="#F8F8F8" height="62.5938" style="stroke:#383838;stroke-width:1.5;" width="213" x="1149.5" y="185"/><rect fill="#F8F8F8" height="10" style="stroke:#383838;stroke-width:1.5;" width="15" x="1342.5" y="190"/><rect fill="#F8F8F8" height="2" style="stroke:#383838;stroke-width:1.5;" width="4" x="1340.5" y="192"/><rect fill="#F8F8F8" height="2" style="stroke:#383838;stroke-width:1.5;" width="4" x="1340.5" y="196"/><text fill="#000000" font-family="sans-serif" font-size="14" font-style="italic" lengthAdjust="spacing" textLength="85" x="1208.5" y="217.9951">«Container»</text><text fill="#000000" font-family="sans-serif" font-size="14" lengthAdjust="spacing" textLength="173" x="1164.5" y="234.292">Data Processor Frontend</text><!--MD5=[838a8f8ee09da76e2984218500383e54]
entity LTF--><rect fill="#F8F8F8" height="62.5938" style="stroke:#383838;stroke-width:1.5;" width="228" x="1649" y="185"/><rect fill="#F8F8F8" height="10" style="stroke:#383838;stroke-width:1.5;" width="15" x="1857" y="190"/><rect fill="#F8F8F8" height="2" style="stroke:#383838;stroke-width:1.5;" width="4" x="1855" y="192"/><rect fill="#F8F8F8" height="2" style="stroke:#383838;stroke-width:1.5;" width="4" x="1855" y="196"/><text fill="#000000" font-family="sans-serif" font-size="14" font-style="italic" lengthAdjust="spacing" textLength="85" x="1715.5" y="217.9951">«Container»</text><text fill="#000000" font-family="sans-serif" font-size="14" lengthAdjust="spacing" textLength="188" x="1664" y="234.292">Location Tracking Frontend</text><!--MD5=[24b9678ff66db6bbed02ff04e7d5851e]
entity SAF--><rect fill="#F8F8F8" height="62.5938" style="stroke:#383838;stroke-width:1.5;" width="189" x="1912.5" y="185"/><rect fill="#F8F8F8" height="10" style="stroke:#383838;stroke-width:1.5;" width="15" x="2081.5" y="190"/><rect fill="#F8F8F8" height="2" style="stroke:#383838;stroke-width:1.5;" width="4" x="2079.5" y="192"/><rect fill="#F8F8F8" height="2" style="stroke:#383838;stroke-width:1.5;" width="4" x="2079.5" y="196"/><text fill="#000000" font-family="sans-serif" font-size="14" font-style="italic" lengthAdjust="spacing" textLength="85" x="1959.5" y="217.9951">«Container»</text><text fill="#000000" font-family="sans-serif" font-size="14" lengthAdjust="spacing" textLength="149" x="1927.5" y="234.292">Simple Auth Frontend</text><!--MD5=[c42ed81cef7fdd2e33758127945b9a5b]
entity UI--><ellipse cx="1114" cy="14" fill="#F8F8F8" rx="8" ry="8" style="stroke:#383838;stroke-width:1.5;"/><text fill="#000000" font-family="sans-serif" font-size="14" lengthAdjust="spacing" textLength="13" x="1107.5" y="43.9951">UI</text><!--MD5=[259fb42cf3d26cb196e8dd6a3316d2da]
entity IN_ENDPOINT--><ellipse cx="251" cy="883" fill="#F8F8F8" rx="8" ry="8" style="stroke:#383838;stroke-width:1.5;"/><text fill="#000000" font-family="sans-serif" font-size="14" lengthAdjust="spacing" textLength="57" x="222.5" y="912.9951">Rest API</text><!--MD5=[f4e8558bdfd34d143e2b3a3a6b6a0612]
link LTB to QUESTDB_API--><path d="M1875,521.02 C1875,547.43 1875,584.74 1875,606.75 " fill="none" id="LTB-to-QUESTDB_API" style="stroke:#383838;stroke-width:1.0;"/><path d="M1883.4572,613.9018 A9,9 0 0 0 1866.5428 613.9018" style="stroke:#383838;stroke-width:1.5;fill:none;"/><!--MD5=[666d4f6c4a9dcee25ffe6d0afb7e8f5c]
link DS to MONGODB_API--><path d="M86,521.02 C86,547.43 86,584.74 86,606.75 " fill="none" id="DS-to-MONGODB_API" style="stroke:#383838;stroke-width:1.0;"/><path d="M94.4572,613.9018 A9,9 0 0 0 77.5428 613.9018" style="stroke:#383838;stroke-width:1.5;fill:none;"/><!--MD5=[e2bb4535729e8a781cd7ddd238ff39ed]
link DDG to DDG_API--><path d="M251,521.02 C251,552.18 251,598.51 251,616.98 " fill="none" id="DDG-DDG_API" style="stroke:#383838;stroke-width:1.0;"/><!--MD5=[043f4a6998d1f423c1875123bc6c35b3]
link DPMB_API to DPMB--><path d="M899.88,360.49 C875.62,377.75 808.27,425.69 763.22,457.75 " fill="none" id="DPMB_API-DPMB" style="stroke:#383838;stroke-width:1.0;"/><!--MD5=[a28acdb8ad4d91f65f1547077cd4da90]
link DRB_API to DRB--><path d="M1368.01,362.01 C1358.83,380.45 1335.79,426.69 1320.27,457.85 " fill="none" id="DRB_API-DRB" style="stroke:#383838;stroke-width:1.0;"/><!--MD5=[9faa44188f0983b269c38a9c1880fbcb]
link MB_API to MB--><path d="M738,635.01 C738,653.45 738,699.69 738,730.85 " fill="none" id="MB_API-MB" style="stroke:#383838;stroke-width:1.0;"/><!--MD5=[8b4f74b634f1475be71ae4e68775c50f]
link DRDB_API to DRDB--><path d="M1452,635.01 C1452,653.45 1452,699.69 1452,730.85 " fill="none" id="DRDB_API-DRDB" style="stroke:#383838;stroke-width:1.0;"/><!--MD5=[b803d99af0ae985ed616150254b01076]
link DPDB_API to DPDB--><path d="M976,635.01 C976,653.45 976,699.69 976,730.85 " fill="none" id="DPDB_API-DPDB" style="stroke:#383838;stroke-width:1.0;"/><!--MD5=[4e1349c460729a9b0a875c8c8e490147]
link LTB_API to LTB--><path d="M1796.94,362.01 C1808.32,380.45 1836.85,426.69 1856.08,457.85 " fill="none" id="LTB_API-LTB" style="stroke:#383838;stroke-width:1.0;"/><!--MD5=[ef114e5e974a3016c5f2117867dcb2af]
link SAB_API to SAB--><path d="M2065.28,362.01 C2072.81,380.45 2091.72,426.69 2104.47,457.85 " fill="none" id="SAB_API-SAB" style="stroke:#383838;stroke-width:1.0;"/><!--MD5=[9467590f772bdba1939f43218646f943]
link UI to UIAG--><path d="M1114,23.11 C1114,32.34 1114,48.6788 1114,68.0684 C1114,77.7633 1114,88.2209 1114,98.9339 C1114,104.2905 1114,109.7109 1114,115.1318 C1114,117.8422 1114,120.5528 1114,123.2556 C1114,123.9313 1114,124.6065 1114,125.2811 " fill="none" id="UI-UIAG" style="stroke:#383838;stroke-width:1.0;"/><!--MD5=[8abd4cb10c03f79d1001485a53a7e496]
link MONGODB_API to MONGODB--><path d="M86,635.01 C86,653.45 86,699.69 86,730.85 " fill="none" id="MONGODB_API-MONGODB" style="stroke:#383838;stroke-width:1.0;"/><!--MD5=[a43445fa678732e5a8e288cde82788b9]
link QUESTDB_API to QUESTDB--><path d="M1875,635.01 C1875,653.45 1875,699.69 1875,730.85 " fill="none" id="QUESTDB_API-QUESTDB" style="stroke:#383838;stroke-width:1.0;"/><!--MD5=[c0fd3909471f57f2e33cdcce01cab375]
link DRB to DRDB_API--><path d="M1338.36,521.02 C1368.69,548.77 1412.17,588.56 1435.58,609.97 " fill="none" id="DRB-to-DRDB_API" style="stroke:#383838;stroke-width:1.0;"/><path d="M1446.6757,608.6657 A9,9 0 0 0 1435.2461 621.1343" style="stroke:#383838;stroke-width:1.5;fill:none;"/><!--MD5=[bdcc501502345f0c74f74263afe2354b]
link DRSB to DRDB_API--><path d="M1566.42,521.02 C1535.88,548.77 1492.1,588.56 1468.53,609.97 " fill="none" id="DRSB-to-DRDB_API" style="stroke:#383838;stroke-width:1.0;"/><path d="M1468.797,621.1665 A9,9 0 0 0 1457.4179 608.6519" style="stroke:#383838;stroke-width:1.5;fill:none;"/><!--MD5=[1f2dffb1f4eb14a1440f7f7f0f18391b]
link DPMB to DPDB_API--><path d="M778.09,521.02 C835.8,551.34 920.87,596.03 957.79,615.43 " fill="none" id="DPMB-to-DPDB_API" style="stroke:#383838;stroke-width:1.0;"/><path d="M968.0814,611.2819 A9,9 0 0 0 960.2095 626.253" style="stroke:#383838;stroke-width:1.5;fill:none;"/><!--MD5=[e2366e555da0ccf804983b707b2d230e]
link DPSB to DPDB_API--><path d="M1003.83,521.02 C996.73,547.55 986.68,585.09 980.8,607.05 " fill="none" id="DPSB-to-DPDB_API" style="stroke:#383838;stroke-width:1.0;"/><path d="M987.1156,616.1939 A9,9 0 0 0 970.7767 611.8192" style="stroke:#383838;stroke-width:1.5;fill:none;"/><!--MD5=[632ffee6b860cfc9bcac06b852135104]
link LTF to LTB_API--><path d="M1769.58,248.02 C1775.3,274.55 1783.39,312.09 1788.13,334.05 " fill="none" id="LTF-to-LTB_API" style="stroke:#383838;stroke-width:1.0;"/><path d="M1797.8917,339.1935 A9,9 0 0 0 1781.3548 342.7475" style="stroke:#383838;stroke-width:1.5;fill:none;"/><!--MD5=[4a41331c31bbd71ab791820d8813635b]
link DPF to DPMB_API--><path d="M1214.87,248.13 C1194.9,261.87 1170.06,277.35 1146,288 C1069.06,322.07 969.83,341.66 928.45,348.83 " fill="none" id="DPF-to-DPMB_API" style="stroke:#383838;stroke-width:1.0;"/><path d="M922.8387,358.3536 A9,9 0 0 0 920.011 341.6772" style="stroke:#383838;stroke-width:1.5;fill:none;"/><!--MD5=[99639326d43e115e35ef3e6d4e64f760]
link DRF to DRB_API--><path d="M1475.59,248.02 C1448.07,275.65 1408.66,315.21 1387.25,336.69 " fill="none" id="DRF-to-DRB_API" style="stroke:#383838;stroke-width:1.0;"/><path d="M1388.1544,347.7671 A9,9 0 0 0 1376.17 335.8309" style="stroke:#383838;stroke-width:1.5;fill:none;"/><!--MD5=[4dbafd7ea0b384dadc287c7e6d65ab7d]
link SAF to SAB_API--><path d="M2019.48,248.02 C2030.43,274.8 2045.96,312.78 2054.91,334.65 " fill="none" id="SAF-to-SAB_API" style="stroke:#383838;stroke-width:1.0;"/><path d="M2065.3795,337.926 A9,9 0 0 0 2049.7271 344.337" style="stroke:#383838;stroke-width:1.5;fill:none;"/><!--MD5=[360d4be81d2123024f3a814556a53433]
link DVB to MB_API--><path d="M518.44,521.02 C583.48,551.82 679.83,597.45 719.7,616.33 " fill="none" id="DVB-to-MB_API" style="stroke:#383838;stroke-width:1.0;"/><path d="M729.6043,611.6688 A9,9 0 0 0 722.3707 626.9584" style="stroke:#383838;stroke-width:1.5;fill:none;"/><!--MD5=[604f780646d9df350d60f8370c6d8018]
link DS to MB_API--><path d="M148.52,515.59 C154.38,517.56 160.27,519.4 166,521 C378.72,580.34 645.65,614.22 718.75,622.81 " fill="none" id="DS-to-MB_API" style="stroke:#383838;stroke-width:1.0;"/><path d="M726.6777,615.2166 A9,9 0 0 0 724.7462 632.0204" style="stroke:#383838;stroke-width:1.5;fill:none;"/><!--MD5=[432dc558a2903d0c88606da1e4b84e79]
link LTB to MB_API--><path d="M1761.77,518.21 C1756.11,519.23 1750.5,520.17 1745,521 C1356.46,579.4 1247.82,501.71 863,581 C823.94,589.05 780.46,606.37 756.46,616.72 " fill="none" id="LTB-to-MB_API" style="stroke:#383838;stroke-width:1.0;"/><path d="M753.3832,627.3017 A9,9 0 0 0 746.5719 611.8192" style="stroke:#383838;stroke-width:1.5;fill:none;"/><!--MD5=[fc219f88c7305afccf9ee7f03fbee597]
link DRB to MB_API--><path d="M1172.42,517.53 C1043.62,543.82 866.83,579.94 863,581 C824.57,591.65 780.87,608.05 756.66,617.53 " fill="none" id="DRB-to-MB_API" style="stroke:#383838;stroke-width:1.0;"/><path d="M753.2476,627.9682 A9,9 0 0 0 747.0157 612.2436" style="stroke:#383838;stroke-width:1.5;fill:none;"/><!--MD5=[6911d2fabc650c005ca4ddd288c99edc]
link DPMB to MB_API--><path d="M724.08,521.02 C727.64,547.55 732.66,585.09 735.6,607.05 " fill="none" id="DPMB-to-MB_API" style="stroke:#383838;stroke-width:1.0;"/><path d="M744.9035,612.8058 A9,9 0 0 0 728.1389 615.0524" style="stroke:#383838;stroke-width:1.5;fill:none;"/><!--MD5=[c8781c541b8ee09f9ccaf5978285f76f]
link DRSB to MB_API--><path d="M1472.83,518.05 C1466.81,519.1 1460.85,520.09 1455,521 C1193.68,561.61 1121.1,523.36 863,581 C824.08,589.69 780.55,606.79 756.5,616.92 " fill="none" id="DRSB-to-MB_API" style="stroke:#383838;stroke-width:1.0;"/><path d="M753.3545,627.4674 A9,9 0 0 0 746.6828 611.9243" style="stroke:#383838;stroke-width:1.5;fill:none;"/><!--MD5=[f827bf9b42c62ebabf528d1fcac18818]
link DPSB to MB_API--><path d="M949.83,521.02 C887.5,551.61 795.37,596.84 756.44,615.95 " fill="none" id="DPSB-to-MB_API" style="stroke:#383838;stroke-width:1.0;"/><path d="M753.8277,626.6577 A9,9 0 0 0 746.3796 611.4714" style="stroke:#383838;stroke-width:1.5;fill:none;"/><!--MD5=[9ce444daab36fdb377509fb95a57d70f]
link DDG to MB_API--><path d="M318.89,515.19 C324.99,517.22 331.09,519.19 337,521 C482.38,565.54 661.11,607.44 718.97,620.69 " fill="none" id="DDG-to-MB_API" style="stroke:#383838;stroke-width:1.0;"/><path d="M727.7498,614.0212 A9,9 0 0 0 724.0065 630.5163" style="stroke:#383838;stroke-width:1.5;fill:none;"/><!--MD5=[59102a87a4d94a16034c88bc26e4734d]
link DR to IN_ENDPOINT--><path d="M251,794.02 C251,820.62 251,857.43 251,873.7 " fill="none" id="DR-IN_ENDPOINT" style="stroke:#383838;stroke-width:1.0;"/><!--MD5=[ae3611b2a0d706c1425a5b98056c682e]
reverse link DDG_API to DR--><path d="M251,645.22 C251,667.19 251,704.43 251,730.85 " fill="none" id="DDG_API-backto-DR" style="stroke:#383838;stroke-width:1.0;"/><path d="M242.5428,638.0882 A9,9 0 0 0 259.4572 638.0882" style="stroke:#383838;stroke-width:1.5;fill:none;"/><!--MD5=[1e7b331b3bff7fe317c71dc0a89bb5f3]
@startuml logical-view-level2

skinparam Monochrome true
skinparam sequenceMessageAlign center
skinparam Shadowing false
skinparam componentStyle uml2
skinparam packageStyle rectangle

interface "UI" as UI

interface "Rest API" as IN_ENDPOINT

component "Environment" <<System>> {
    component "Message Broker" as MB <<Container>>
    component "Device Records Master Backend" as DRB <<Container>>
    component "Device Records Slave Backend" as DRSB <<Container>>
    component "Location Tracking Backend" as LTB <<Container>>
    component "Data Gateway" as DDG <<Container>>
    component "Data Relayer" as DR <<Container>>
    component "UI Aggregator" as UIAG <<Container>> {
        component "Device Records Frontend" as DRF <<Container>>
        component "Data Processor Frontend" as DPF <<Container>>
        component "Location Tracking Frontend" as LTF <<Container>>
        component "Simple Auth Frontend" as SAF <<Container>>
    }
    component "Data Processor Slave Backend" as DPSB <<Container>>
    component "Data Processor Master Backend" as DPMB <<Container>>
    component "Data Validator Backend" as DVB <<Container>>
    component "Device Records Database" as DRDB <<Container>>
    component "Data Processor Database" as DPDB <<Container>>
    component "Data Store" as DS <<Container>>
    component "QuestDB" as QUESTDB <<Container>>
    component "MongoDB" as MONGODB <<Container>>
    component "Simple Auth Backend" as SAB <<Container>>

    interface "Message Broker\nAPI" as MB_API
    interface "Location Tracking Backend\nAPI" as LTB_API
    interface "Device Records Master Backend\nAPI" as DRB_API
    interface "Data Processor Master Backend\nAPI" as DPMB_API
    interface "Device Records Database\nAPI" as DRDB_API
    interface "Data Processor Database\nAPI" as DPDB_API
    interface "QuestDB\nAPI" as QUESTDB_API
    interface "MongoDB\nAPI" as MONGODB_API
    interface "Data Gateway\nAPI" as DDG_API
    interface "Simple Auth\nAPI" as SAB_API

    LTB - -( QUESTDB_API
    DS - -( MONGODB_API
    DDG - - DDG_API
    DPMB_API - - DPMB
    DRB_API - - DRB
    MB_API - - MB
    DRDB_API - - DRDB
    DPDB_API - - DPDB
    LTB_API - - LTB
    SAB_API - - SAB
    UI - - UIAG
    MONGODB_API - - MONGODB
    QUESTDB_API - - QUESTDB
    DRB - -( DRDB_API
    DRSB - -( DRDB_API
    DPMB - -( DPDB_API
    DPSB - -( DPDB_API
    LTF - -( LTB_API
    DPF - -( DPMB_API
    DRF - -( DRB_API
    SAF - -( SAB_API

    DVB - -( MB_API
    DS - -( MB_API
    LTB - -( MB_API
    DRB - -( MB_API
    DPMB - -( MB_API
    DRSB - -( MB_API
    DPSB - -( MB_API
    DDG - -( MB_API

    DR - - IN_ENDPOINT
    DDG_API )- - DR
}

@enduml

PlantUML version 1.2021.16(Wed Dec 08 17:25:22 WET 2021)
(GPL source distribution)
Java Runtime: OpenJDK Runtime Environment
JVM: OpenJDK 64-Bit Server VM
Default Encoding: UTF-8
Language: en
Country: GB
--></g></svg>