<?xml version="1.0" encoding="UTF-8" standalone="no"?><svg xmlns="http://www.w3.org/2000/svg" xmlns:xlink="http://www.w3.org/1999/xlink" contentScriptType="application/ecmascript" contentStyleType="text/css" height="1131px" preserveAspectRatio="none" style="width:695px;height:1131px;background:#FFFFFF;" version="1.1" viewBox="0 0 695 1131" width="695px" zoomAndPan="magnify"><defs><filter height="300%" id="fjyegxwx2bj8k" width="300%" x="-1" y="-1"><feGaussianBlur result="blurOut" stdDeviation="2.0"/><feColorMatrix in="blurOut" result="blurOut2" type="matrix" values="0 0 0 0 0 0 0 0 0 0 0 0 0 0 0 0 0 0 .4 0"/><feOffset dx="4.0" dy="4.0" in="blurOut2" result="blurOut3"/><feBlend in="SourceGraphic" in2="blurOut3" mode="normal"/></filter></defs><g><!--MD5=[6f4ba3d2497c57dd4ddd037bf52056d6]
cluster Data Processor Master Backend--><rect fill="#FFFFFF" filter="url(#fjyegxwx2bj8k)" height="1110.5" style="stroke:#000000;stroke-width:1.5;" width="674" x="7" y="7"/><rect fill="#FFFFFF" height="10" style="stroke:#000000;stroke-width:1.5;" width="15" x="661" y="12"/><rect fill="#FFFFFF" height="2" style="stroke:#000000;stroke-width:1.5;" width="4" x="659" y="14"/><rect fill="#FFFFFF" height="2" style="stroke:#000000;stroke-width:1.5;" width="4" x="659" y="18"/><text fill="#000000" font-family="sans-serif" font-size="14" font-weight="bold" lengthAdjust="spacing" textLength="219" x="234.5" y="34.9659">Data Processor Master Backend</text><!--MD5=[70becb833e031d8ab2b25bb6fd041c2b]
cluster INFRA--><rect fill="#FFFFFF" filter="url(#fjyegxwx2bj8k)" height="517.5" style="stroke:#000000;stroke-width:1.5;" width="500" x="31" y="53"/><rect fill="#FFFFFF" height="10" style="stroke:#000000;stroke-width:1.5;" width="15" x="511" y="58"/><rect fill="#FFFFFF" height="2" style="stroke:#000000;stroke-width:1.5;" width="4" x="509" y="60"/><rect fill="#FFFFFF" height="2" style="stroke:#000000;stroke-width:1.5;" width="4" x="509" y="64"/><text fill="#000000" font-family="sans-serif" font-size="14" font-weight="bold" lengthAdjust="spacing" textLength="97" x="232.5" y="80.9659">Infrastructure</text><!--MD5=[7a83628ac60894de8f7ccce91cd32b26]
cluster PERSIST--><rect fill="#FFFFFF" filter="url(#fjyegxwx2bj8k)" height="234.5" style="stroke:#000000;stroke-width:1.5;" width="132" x="55" y="296"/><rect fill="#FFFFFF" height="10" style="stroke:#000000;stroke-width:1.5;" width="15" x="167" y="301"/><rect fill="#FFFFFF" height="2" style="stroke:#000000;stroke-width:1.5;" width="4" x="165" y="303"/><rect fill="#FFFFFF" height="2" style="stroke:#000000;stroke-width:1.5;" width="4" x="165" y="307"/><text fill="#000000" font-family="sans-serif" font-size="14" font-weight="bold" lengthAdjust="spacing" textLength="79" x="81.5" y="323.9659">Presistence</text><!--MD5=[e827ccb1cbd1809ec2e49ef4b2081f6a]
cluster ENDPOINT--><rect fill="#FFFFFF" filter="url(#fjyegxwx2bj8k)" height="250.5" style="stroke:#000000;stroke-width:1.5;" width="280" x="219" y="288"/><rect fill="#FFFFFF" height="10" style="stroke:#000000;stroke-width:1.5;" width="15" x="479" y="293"/><rect fill="#FFFFFF" height="2" style="stroke:#000000;stroke-width:1.5;" width="4" x="477" y="295"/><rect fill="#FFFFFF" height="2" style="stroke:#000000;stroke-width:1.5;" width="4" x="477" y="299"/><text fill="#000000" font-family="sans-serif" font-size="14" font-weight="bold" lengthAdjust="spacing" textLength="63" x="327.5" y="315.9659">Endpoint</text><!--MD5=[cd187d11655e4367e900de538d2f1d0c]
entity APP--><rect fill="#F8F8F8" filter="url(#fjyegxwx2bj8k)" height="49.0679" style="stroke:#383838;stroke-width:1.5;" width="116" x="539" y="586.5"/><rect fill="#F8F8F8" height="10" style="stroke:#383838;stroke-width:1.5;" width="15" x="635" y="591.5"/><rect fill="#F8F8F8" height="2" style="stroke:#383838;stroke-width:1.5;" width="4" x="633" y="593.5"/><rect fill="#F8F8F8" height="2" style="stroke:#383838;stroke-width:1.5;" width="4" x="633" y="597.5"/><text fill="#000000" font-family="sans-serif" font-size="14" lengthAdjust="spacing" textLength="76" x="554" y="621.4659">Application</text><!--MD5=[711fc6413308d66a33499ee50e557b5d]
entity DOM--><rect fill="#F8F8F8" filter="url(#fjyegxwx2bj8k)" height="49.0679" style="stroke:#383838;stroke-width:1.5;" width="92" x="543" y="1052.5"/><rect fill="#F8F8F8" height="10" style="stroke:#383838;stroke-width:1.5;" width="15" x="615" y="1057.5"/><rect fill="#F8F8F8" height="2" style="stroke:#383838;stroke-width:1.5;" width="4" x="613" y="1059.5"/><rect fill="#F8F8F8" height="2" style="stroke:#383838;stroke-width:1.5;" width="4" x="613" y="1063.5"/><text fill="#000000" font-family="sans-serif" font-size="14" lengthAdjust="spacing" textLength="52" x="558" y="1087.4659">Domain</text><!--MD5=[3dfc3527455eb72a4133679687dbe239]
entity DOM_SERV--><rect fill="#F8F8F8" filter="url(#fjyegxwx2bj8k)" height="49.0679" style="stroke:#383838;stroke-width:1.5;" width="151" x="513.5" y="819.5"/><rect fill="#F8F8F8" height="10" style="stroke:#383838;stroke-width:1.5;" width="15" x="644.5" y="824.5"/><rect fill="#F8F8F8" height="2" style="stroke:#383838;stroke-width:1.5;" width="4" x="642.5" y="826.5"/><rect fill="#F8F8F8" height="2" style="stroke:#383838;stroke-width:1.5;" width="4" x="642.5" y="830.5"/><text fill="#000000" font-family="sans-serif" font-size="14" lengthAdjust="spacing" textLength="111" x="528.5" y="854.4659">Domain Services</text><!--MD5=[30d85f3125b7a53865e5f4719123efb6]
entity APP_API--><ellipse cx="606" cy="490" fill="#F8F8F8" filter="url(#fjyegxwx2bj8k)" rx="8" ry="8" style="stroke:#383838;stroke-width:1.5;"/><text fill="#000000" font-family="sans-serif" font-size="14" lengthAdjust="spacing" textLength="102" x="555" y="521.9659">Application API</text><!--MD5=[0aefd3324de3ab8c3fd9c9ea0f687424]
entity DOM_API--><ellipse cx="589" cy="960.5" fill="#F8F8F8" filter="url(#fjyegxwx2bj8k)" rx="8" ry="8" style="stroke:#383838;stroke-width:1.5;"/><text fill="#000000" font-family="sans-serif" font-size="14" lengthAdjust="spacing" textLength="78" x="550" y="992.4659">Domain API</text><!--MD5=[44ea187545a283c559b3bae2fb79223f]
entity DOM_SERV_API--><ellipse cx="589" cy="727.5" fill="#F8F8F8" filter="url(#fjyegxwx2bj8k)" rx="8" ry="8" style="stroke:#383838;stroke-width:1.5;"/><text fill="#000000" font-family="sans-serif" font-size="14" lengthAdjust="spacing" textLength="137" x="520.5" y="759.4659">Domain Services API</text><!--MD5=[50c35d0a5350f8e8f48a6d3669f54f50]
entity BOOT--><rect fill="#F8F8F8" filter="url(#fjyegxwx2bj8k)" height="49.0679" style="stroke:#383838;stroke-width:1.5;" width="70" x="249" y="215"/><rect fill="#F8F8F8" height="10" style="stroke:#383838;stroke-width:1.5;" width="15" x="299" y="220"/><rect fill="#F8F8F8" height="2" style="stroke:#383838;stroke-width:1.5;" width="4" x="297" y="222"/><rect fill="#F8F8F8" height="2" style="stroke:#383838;stroke-width:1.5;" width="4" x="297" y="226"/><text fill="#000000" font-family="sans-serif" font-size="14" lengthAdjust="spacing" textLength="30" x="264" y="249.9659">Boot</text><!--MD5=[44f07762fab2e804df8e0636e93cffbe]
entity BOOT_API--><ellipse cx="284" cy="123" fill="#F8F8F8" filter="url(#fjyegxwx2bj8k)" rx="8" ry="8" style="stroke:#383838;stroke-width:1.5;"/><text fill="#000000" font-family="sans-serif" font-size="14" lengthAdjust="spacing" textLength="56" x="256" y="154.9659">Boot API</text><!--MD5=[e8f61fc9e6949b2891b48f1d9fff5dab]
entity POSTG--><rect fill="#F8F8F8" filter="url(#fjyegxwx2bj8k)" height="49.0679" style="stroke:#383838;stroke-width:1.5;" width="98" x="72" y="465.5"/><rect fill="#F8F8F8" height="10" style="stroke:#383838;stroke-width:1.5;" width="15" x="150" y="470.5"/><rect fill="#F8F8F8" height="2" style="stroke:#383838;stroke-width:1.5;" width="4" x="148" y="472.5"/><rect fill="#F8F8F8" height="2" style="stroke:#383838;stroke-width:1.5;" width="4" x="148" y="476.5"/><text fill="#000000" font-family="sans-serif" font-size="14" lengthAdjust="spacing" textLength="58" x="87" y="500.4659">Postgres</text><!--MD5=[70e882393759605d085bbd393502e685]
entity POSTG_API--><ellipse cx="121" cy="366" fill="#F8F8F8" filter="url(#fjyegxwx2bj8k)" rx="8" ry="8" style="stroke:#383838;stroke-width:1.5;"/><text fill="#000000" font-family="sans-serif" font-size="14" lengthAdjust="spacing" textLength="84" x="79" y="397.9659">Postgres API</text><!--MD5=[eefed110d7d8a33cb70be22dd9d01c77]
entity GRAPH--><rect fill="#F8F8F8" filter="url(#fjyegxwx2bj8k)" height="49.0679" style="stroke:#383838;stroke-width:1.5;" width="95" x="360.5" y="465.5"/><rect fill="#F8F8F8" height="10" style="stroke:#383838;stroke-width:1.5;" width="15" x="435.5" y="470.5"/><rect fill="#F8F8F8" height="2" style="stroke:#383838;stroke-width:1.5;" width="4" x="433.5" y="472.5"/><rect fill="#F8F8F8" height="2" style="stroke:#383838;stroke-width:1.5;" width="4" x="433.5" y="476.5"/><text fill="#000000" font-family="sans-serif" font-size="14" lengthAdjust="spacing" textLength="55" x="375.5" y="500.4659">Graphql</text><!--MD5=[66db70f94ccbac3c79bd754cb956443f]
entity AMQP--><rect fill="#F8F8F8" filter="url(#fjyegxwx2bj8k)" height="49.0679" style="stroke:#383838;stroke-width:1.5;" width="81" x="243.5" y="465.5"/><rect fill="#F8F8F8" height="10" style="stroke:#383838;stroke-width:1.5;" width="15" x="304.5" y="470.5"/><rect fill="#F8F8F8" height="2" style="stroke:#383838;stroke-width:1.5;" width="4" x="302.5" y="472.5"/><rect fill="#F8F8F8" height="2" style="stroke:#383838;stroke-width:1.5;" width="4" x="302.5" y="476.5"/><text fill="#000000" font-family="sans-serif" font-size="14" lengthAdjust="spacing" textLength="41" x="258.5" y="500.4659">AMQP</text><!--MD5=[c8ee6569ca67e1620e4e7d4ee0399787]
entity GRAPH_API--><ellipse cx="408" cy="366" fill="#F8F8F8" filter="url(#fjyegxwx2bj8k)" rx="8" ry="8" style="stroke:#383838;stroke-width:1.5;"/><text fill="#000000" font-family="sans-serif" font-size="14" lengthAdjust="spacing" textLength="81" x="367.5" y="397.9659">Graphql API</text><!--MD5=[f360c852f81daa4ad66be7df7a5c9a3d]
entity AMQP_API--><ellipse cx="284" cy="366" fill="#F8F8F8" filter="url(#fjyegxwx2bj8k)" rx="8" ry="8" style="stroke:#383838;stroke-width:1.5;"/><text fill="#000000" font-family="sans-serif" font-size="14" lengthAdjust="spacing" textLength="67" x="250.5" y="397.9659">AMQP API</text><!--MD5=[160c4f6ce35ebd0c56b75ff8de26807c]
link GRAPH_API to GRAPH--><path d="M408,375 C408,393.03 408,437.38 408,465.15 " fill="none" id="GRAPH_API-GRAPH" style="stroke:#383838;stroke-width:1.0;"/><!--MD5=[14cf9b7186fc426919be12717f53f1a1]
link DOM_API to DOM--><path d="M589,969.73 C589,986.76 589,1026.39 589,1052.15 " fill="none" id="DOM_API-DOM" style="stroke:#383838;stroke-width:1.0;"/><!--MD5=[b929a7d98f1772b10f9ae2757a6ed60f]
link DOM_SERV_API to DOM_SERV--><path d="M589,736.73 C589,753.76 589,793.39 589,819.15 " fill="none" id="DOM_SERV_API-DOM_SERV" style="stroke:#383838;stroke-width:1.0;"/><!--MD5=[6c47b63cf1ccf71776fb2fb1146b89bd]
link POSTG_API to POSTG--><path d="M121,375 C121,393.03 121,437.38 121,465.15 " fill="none" id="POSTG_API-POSTG" style="stroke:#383838;stroke-width:1.0;"/><!--MD5=[144eb759bece83ea8e8de5d37013052c]
link AMQP_API to AMQP--><path d="M284,375 C284,393.03 284,437.38 284,465.15 " fill="none" id="AMQP_API-AMQP" style="stroke:#383838;stroke-width:1.0;"/><!--MD5=[9bc3545913d2ece8bc1c8e2c39a9583d]
link APP_API to APP--><path d="M605.38,499.18 C604.04,516.93 600.82,559.54 598.78,586.45 " fill="none" id="APP_API-APP" style="stroke:#383838;stroke-width:1.0;"/><!--MD5=[960e631b20e6d0a5a1769365a28f267a]
link BOOT_API to BOOT--><path d="M284,132.23 C284,149.26 284,188.89 284,214.65 " fill="none" id="BOOT_API-BOOT" style="stroke:#383838;stroke-width:1.0;"/><!--MD5=[4650e1908a5caa745e5a54df07a9a97d]
link ENDPOINT to APP_API--><path d="M499.2497,375.7543 C499.4366,375.9525 499.6261,376.1536 499.8184,376.3575 C500.2029,376.7653 500.598,377.1844 501.0035,377.6145 C501.8144,378.4746 502.6665,379.3784 503.5567,380.3227 C510.6784,387.8766 520.2394,398.0181 530.6687,409.0813 C551.5275,431.2075 575.86,457.02 591.1,473.19 " fill="none" id="ENDPOINT-to-APP_API" style="stroke:#383838;stroke-width:1.0;"/><path d="M602.371,472.8182 A9,9 0 0 0 590.0653 484.4229" style="stroke:#383838;stroke-width:1.5;fill:none;"/><!--MD5=[845c2c4eee2fae498ac38234a5aedbc1]
link APP to DOM_SERV_API--><path d="M595.34,635.72 C593.84,657.3 591.64,688.68 590.27,708.32 " fill="none" id="APP-to-DOM_SERV_API" style="stroke:#383838;stroke-width:1.0;"/><path d="M598.2218,715.8908 A9,9 0 0 0 581.3487 714.708" style="stroke:#383838;stroke-width:1.5;fill:none;"/><!--MD5=[4c0b42fcf9c300baa81263005d99b18a]
link DOM_SERV to DOM_API--><path d="M589,868.72 C589,890.3 589,921.68 589,941.32 " fill="none" id="DOM_SERV-to-DOM_API" style="stroke:#383838;stroke-width:1.0;"/><path d="M597.4572,948.2918 A9,9 0 0 0 580.5428 948.2918" style="stroke:#383838;stroke-width:1.5;fill:none;"/><!--MD5=[3ab433faba4759891346c22302c8e76e]
link BOOT to GRAPH_API--><path d="M319.15,255.79 C327.47,260.31 335.96,265.76 343,272 C367.96,294.14 388.35,327.7 399.28,347.87 " fill="none" id="BOOT-to-GRAPH_API" style="stroke:#383838;stroke-width:1.0;"/><path d="M410.053,350.1695 A9,9 0 0 0 395.0819 358.0414" style="stroke:#383838;stroke-width:1.5;fill:none;"/><!--MD5=[4379324cd2c7c1b2cbe82266d6d3e2c8]
link BOOT to POSTG_API--><path d="M248.91,258.33 C241.5,262.53 233.85,267.19 227,272 C192.32,296.37 156.06,330.32 136.22,349.74 " fill="none" id="BOOT-to-POSTG_API" style="stroke:#383838;stroke-width:1.0;"/><path d="M137.1474,360.7248 A9,9 0 0 0 125.2477 348.7041" style="stroke:#383838;stroke-width:1.5;fill:none;"/><!--MD5=[825637d1efb63c5c00802efb716c3c83]
link BOOT to AMQP_API--><path d="M284,264.21 C284,288.25 284,324.94 284,346.79 " fill="none" id="BOOT-to-AMQP_API" style="stroke:#383838;stroke-width:1.0;"/><path d="M292.4572,353.8918 A9,9 0 0 0 275.5428 353.8918" style="stroke:#383838;stroke-width:1.5;fill:none;"/><!--MD5=[a0e90fb426066225fa4cddcf871b842c]
@startuml logical-view-level3-data-processor-master-backend

skinparam Monochrome true

component "Data Processor Master Backend" {
    component "Application" as APP
    component "Domain" as DOM
    component "Domain Services" as DOM_SERV
    component "Infrastructure" as INFRA {
        component "Boot" as BOOT
        component "Presistence" as PERSIST {
            component "Postgres" as POSTG
            interface "Postgres API" as POSTG_API
        }
        component "Endpoint" as ENDPOINT {
            component "Graphql" as GRAPH
            component "AMQP" as AMQP
            interface "Graphql API" as GRAPH_API
            interface "AMQP API" as AMQP_API
        }
        interface "Boot API" as BOOT_API
    }

    interface "Application API" as APP_API
    interface "Domain API" as DOM_API
    interface "Domain Services API" as DOM_SERV_API

    GRAPH_API - - GRAPH
    DOM_API - - DOM
    DOM_SERV_API - - DOM_SERV

    POSTG_API - - POSTG
    AMQP_API - - AMQP
    APP_API - - APP
    BOOT_API - - BOOT

    ENDPOINT - -( APP_API
    APP - -( DOM_SERV_API
    DOM_SERV - -( DOM_API
    BOOT - -( GRAPH_API
    BOOT - -( POSTG_API
    BOOT - -( AMQP_API
}

@enduml

PlantUML version 1.2021.16(Wed Dec 08 17:25:22 WET 2021)
(GPL source distribution)
Java Runtime: OpenJDK Runtime Environment
JVM: OpenJDK 64-Bit Server VM
Default Encoding: UTF-8
Language: en
Country: GB
--></g></svg>