<?xml version="1.0" encoding="UTF-8" standalone="no"?><svg xmlns="http://www.w3.org/2000/svg" xmlns:xlink="http://www.w3.org/1999/xlink" contentScriptType="application/ecmascript" contentStyleType="text/css" height="921px" preserveAspectRatio="none" style="width:1980px;height:921px;background:#FFFFFF;" version="1.1" viewBox="0 0 1980 921" width="1980px" zoomAndPan="magnify"><defs/><g><!--MD5=[85f6e7297d1ad81d8c1382e17d44cf2c]
cluster Environment--><rect fill="#FFFFFF" height="751" style="stroke:#000000;stroke-width:1.5;" width="1967" x="7" y="59"/><rect fill="#FFFFFF" height="10" style="stroke:#000000;stroke-width:1.5;" width="15" x="1954" y="64"/><rect fill="#FFFFFF" height="2" style="stroke:#000000;stroke-width:1.5;" width="4" x="1952" y="66"/><rect fill="#FFFFFF" height="2" style="stroke:#000000;stroke-width:1.5;" width="4" x="1952" y="70"/><text fill="#000000" font-family="sans-serif" font-size="14" font-style="italic" lengthAdjust="spacing" textLength="69" x="956" y="84.9951">«System»</text><text fill="#000000" font-family="sans-serif" font-size="14" font-weight="bold" lengthAdjust="spacing" textLength="99" x="941" y="101.292">Environment</text><!--MD5=[2f974df144d935b84f61c768008119cd]
cluster UIAG--><rect fill="#FFFFFF" height="146" style="stroke:#000000;stroke-width:1.5;" width="795" x="824" y="126"/><rect fill="#FFFFFF" height="10" style="stroke:#000000;stroke-width:1.5;" width="15" x="1599" y="131"/><rect fill="#FFFFFF" height="2" style="stroke:#000000;stroke-width:1.5;" width="4" x="1597" y="133"/><rect fill="#FFFFFF" height="2" style="stroke:#000000;stroke-width:1.5;" width="4" x="1597" y="137"/><text fill="#000000" font-family="sans-serif" font-size="14" font-style="italic" lengthAdjust="spacing" textLength="85" x="1179" y="151.9951">«Container»</text><text fill="#000000" font-family="sans-serif" font-size="14" font-weight="bold" lengthAdjust="spacing" textLength="110" x="1166.5" y="168.292">UI Aggregator</text><!--MD5=[2c8bfc6f691a2260a342f8a3a45a5f4e]
entity MB--><rect fill="#F8F8F8" height="62.5938" style="stroke:#383838;stroke-width:1.5;" width="153" x="621.5" y="731"/><rect fill="#F8F8F8" height="10" style="stroke:#383838;stroke-width:1.5;" width="15" x="754.5" y="736"/><rect fill="#F8F8F8" height="2" style="stroke:#383838;stroke-width:1.5;" width="4" x="752.5" y="738"/><rect fill="#F8F8F8" height="2" style="stroke:#383838;stroke-width:1.5;" width="4" x="752.5" y="742"/><text fill="#000000" font-family="sans-serif" font-size="14" font-style="italic" lengthAdjust="spacing" textLength="85" x="650.5" y="763.9951">«Container»</text><text fill="#000000" font-family="sans-serif" font-size="14" lengthAdjust="spacing" textLength="113" x="636.5" y="780.292">Message Broker</text><!--MD5=[de9d829787e3a43b2ded327ec6864356]
entity DRB--><rect fill="#F8F8F8" height="62.5938" style="stroke:#383838;stroke-width:1.5;" width="265" x="1692.5" y="458"/><rect fill="#F8F8F8" height="10" style="stroke:#383838;stroke-width:1.5;" width="15" x="1937.5" y="463"/><rect fill="#F8F8F8" height="2" style="stroke:#383838;stroke-width:1.5;" width="4" x="1935.5" y="465"/><rect fill="#F8F8F8" height="2" style="stroke:#383838;stroke-width:1.5;" width="4" x="1935.5" y="469"/><text fill="#000000" font-family="sans-serif" font-size="14" font-style="italic" lengthAdjust="spacing" textLength="85" x="1777.5" y="490.9951">«Container»</text><text fill="#000000" font-family="sans-serif" font-size="14" lengthAdjust="spacing" textLength="225" x="1707.5" y="507.292">Device Records Master Backend</text><!--MD5=[16d24166dd61b60d67a9b622353efc3e]
entity DRSB--><rect fill="#F8F8F8" height="62.5938" style="stroke:#383838;stroke-width:1.5;" width="254" x="1403" y="458"/><rect fill="#F8F8F8" height="10" style="stroke:#383838;stroke-width:1.5;" width="15" x="1637" y="463"/><rect fill="#F8F8F8" height="2" style="stroke:#383838;stroke-width:1.5;" width="4" x="1635" y="465"/><rect fill="#F8F8F8" height="2" style="stroke:#383838;stroke-width:1.5;" width="4" x="1635" y="469"/><text fill="#000000" font-family="sans-serif" font-size="14" font-style="italic" lengthAdjust="spacing" textLength="85" x="1482.5" y="490.9951">«Container»</text><text fill="#000000" font-family="sans-serif" font-size="14" lengthAdjust="spacing" textLength="214" x="1418" y="507.292">Device Records Slave Backend</text><!--MD5=[07f1f74cdc79fa2fd2740ec7d7a64eca]
entity LTB--><rect fill="#F8F8F8" height="62.5938" style="stroke:#383838;stroke-width:1.5;" width="226" x="558" y="458"/><rect fill="#F8F8F8" height="10" style="stroke:#383838;stroke-width:1.5;" width="15" x="764" y="463"/><rect fill="#F8F8F8" height="2" style="stroke:#383838;stroke-width:1.5;" width="4" x="762" y="465"/><rect fill="#F8F8F8" height="2" style="stroke:#383838;stroke-width:1.5;" width="4" x="762" y="469"/><text fill="#000000" font-family="sans-serif" font-size="14" font-style="italic" lengthAdjust="spacing" textLength="85" x="623.5" y="490.9951">«Container»</text><text fill="#000000" font-family="sans-serif" font-size="14" lengthAdjust="spacing" textLength="186" x="573" y="507.292">Location Tracking Backend</text><!--MD5=[91279a835da4e32ef6d7ba373316e020]
entity DDG--><rect fill="#F8F8F8" height="62.5938" style="stroke:#383838;stroke-width:1.5;" width="135" x="387.5" y="458"/><rect fill="#F8F8F8" height="10" style="stroke:#383838;stroke-width:1.5;" width="15" x="502.5" y="463"/><rect fill="#F8F8F8" height="2" style="stroke:#383838;stroke-width:1.5;" width="4" x="500.5" y="465"/><rect fill="#F8F8F8" height="2" style="stroke:#383838;stroke-width:1.5;" width="4" x="500.5" y="469"/><text fill="#000000" font-family="sans-serif" font-size="14" font-style="italic" lengthAdjust="spacing" textLength="85" x="407.5" y="490.9951">«Container»</text><text fill="#000000" font-family="sans-serif" font-size="14" lengthAdjust="spacing" textLength="95" x="402.5" y="507.292">Data Gateway</text><!--MD5=[916b332d59e591ecaa5566188f0cdc33]
entity DR--><rect fill="#F8F8F8" height="62.5938" style="stroke:#383838;stroke-width:1.5;" width="127" x="391.5" y="731"/><rect fill="#F8F8F8" height="10" style="stroke:#383838;stroke-width:1.5;" width="15" x="498.5" y="736"/><rect fill="#F8F8F8" height="2" style="stroke:#383838;stroke-width:1.5;" width="4" x="496.5" y="738"/><rect fill="#F8F8F8" height="2" style="stroke:#383838;stroke-width:1.5;" width="4" x="496.5" y="742"/><text fill="#000000" font-family="sans-serif" font-size="14" font-style="italic" lengthAdjust="spacing" textLength="85" x="407.5" y="763.9951">«Container»</text><text fill="#000000" font-family="sans-serif" font-size="14" lengthAdjust="spacing" textLength="87" x="406.5" y="780.292">Data Relayer</text><!--MD5=[bdf2b643721ab24f6b6cc4832b6b9e51]
entity DPSB--><rect fill="#F8F8F8" height="62.5938" style="stroke:#383838;stroke-width:1.5;" width="251" x="819.5" y="458"/><rect fill="#F8F8F8" height="10" style="stroke:#383838;stroke-width:1.5;" width="15" x="1050.5" y="463"/><rect fill="#F8F8F8" height="2" style="stroke:#383838;stroke-width:1.5;" width="4" x="1048.5" y="465"/><rect fill="#F8F8F8" height="2" style="stroke:#383838;stroke-width:1.5;" width="4" x="1048.5" y="469"/><text fill="#000000" font-family="sans-serif" font-size="14" font-style="italic" lengthAdjust="spacing" textLength="85" x="897.5" y="490.9951">«Container»</text><text fill="#000000" font-family="sans-serif" font-size="14" lengthAdjust="spacing" textLength="211" x="834.5" y="507.292">Data Processor Slave Backend</text><!--MD5=[7d5e30ccfc93022cd060f94bf2de644f]
entity DPMB--><rect fill="#F8F8F8" height="62.5938" style="stroke:#383838;stroke-width:1.5;" width="262" x="1106" y="458"/><rect fill="#F8F8F8" height="10" style="stroke:#383838;stroke-width:1.5;" width="15" x="1348" y="463"/><rect fill="#F8F8F8" height="2" style="stroke:#383838;stroke-width:1.5;" width="4" x="1346" y="465"/><rect fill="#F8F8F8" height="2" style="stroke:#383838;stroke-width:1.5;" width="4" x="1346" y="469"/><text fill="#000000" font-family="sans-serif" font-size="14" font-style="italic" lengthAdjust="spacing" textLength="85" x="1189.5" y="490.9951">«Container»</text><text fill="#000000" font-family="sans-serif" font-size="14" lengthAdjust="spacing" textLength="222" x="1121" y="507.292">Data Processor Master Backend</text><!--MD5=[5c672979971b01ffe3e26ca5e0224f67]
entity DRDB--><rect fill="#F8F8F8" height="62.5938" style="stroke:#383838;stroke-width:1.5;" width="219" x="1567.5" y="731"/><rect fill="#F8F8F8" height="10" style="stroke:#383838;stroke-width:1.5;" width="15" x="1766.5" y="736"/><rect fill="#F8F8F8" height="2" style="stroke:#383838;stroke-width:1.5;" width="4" x="1764.5" y="738"/><rect fill="#F8F8F8" height="2" style="stroke:#383838;stroke-width:1.5;" width="4" x="1764.5" y="742"/><text fill="#000000" font-family="sans-serif" font-size="14" font-style="italic" lengthAdjust="spacing" textLength="85" x="1629.5" y="763.9951">«Container»</text><text fill="#000000" font-family="sans-serif" font-size="14" lengthAdjust="spacing" textLength="179" x="1582.5" y="780.292">Device Records Database</text><!--MD5=[f1831cdda53ca662ba17e366a7f7f424]
entity DPDB--><rect fill="#F8F8F8" height="62.5938" style="stroke:#383838;stroke-width:1.5;" width="216" x="983" y="731"/><rect fill="#F8F8F8" height="10" style="stroke:#383838;stroke-width:1.5;" width="15" x="1179" y="736"/><rect fill="#F8F8F8" height="2" style="stroke:#383838;stroke-width:1.5;" width="4" x="1177" y="738"/><rect fill="#F8F8F8" height="2" style="stroke:#383838;stroke-width:1.5;" width="4" x="1177" y="742"/><text fill="#000000" font-family="sans-serif" font-size="14" font-style="italic" lengthAdjust="spacing" textLength="85" x="1043.5" y="763.9951">«Container»</text><text fill="#000000" font-family="sans-serif" font-size="14" lengthAdjust="spacing" textLength="176" x="998" y="780.292">Data Processor Database</text><!--MD5=[c3da65247178bd108470cc642ef9d915]
entity CDS--><rect fill="#F8F8F8" height="62.5938" style="stroke:#383838;stroke-width:1.5;" width="168" x="184" y="458"/><rect fill="#F8F8F8" height="10" style="stroke:#383838;stroke-width:1.5;" width="15" x="332" y="463"/><rect fill="#F8F8F8" height="2" style="stroke:#383838;stroke-width:1.5;" width="4" x="330" y="465"/><rect fill="#F8F8F8" height="2" style="stroke:#383838;stroke-width:1.5;" width="4" x="330" y="469"/><text fill="#000000" font-family="sans-serif" font-size="14" font-style="italic" lengthAdjust="spacing" textLength="85" x="220.5" y="490.9951">«Container»</text><text fill="#000000" font-family="sans-serif" font-size="14" lengthAdjust="spacing" textLength="128" x="199" y="507.292">Chrono Data Store</text><!--MD5=[1a416c3156d55d9446032ebbee093b81]
entity DS--><rect fill="#F8F8F8" height="62.5938" style="stroke:#383838;stroke-width:1.5;" width="125" x="23.5" y="458"/><rect fill="#F8F8F8" height="10" style="stroke:#383838;stroke-width:1.5;" width="15" x="128.5" y="463"/><rect fill="#F8F8F8" height="2" style="stroke:#383838;stroke-width:1.5;" width="4" x="126.5" y="465"/><rect fill="#F8F8F8" height="2" style="stroke:#383838;stroke-width:1.5;" width="4" x="126.5" y="469"/><text fill="#000000" font-family="sans-serif" font-size="14" font-style="italic" lengthAdjust="spacing" textLength="85" x="38.5" y="490.9951">«Container»</text><text fill="#000000" font-family="sans-serif" font-size="14" lengthAdjust="spacing" textLength="73" x="44.5" y="507.292">Data Store</text><!--MD5=[0d4560ec263e73dd5d18ec3da06f96fd]
entity QUESTDB--><rect fill="#F8F8F8" height="62.5938" style="stroke:#383838;stroke-width:1.5;" width="125" x="205.5" y="731"/><rect fill="#F8F8F8" height="10" style="stroke:#383838;stroke-width:1.5;" width="15" x="310.5" y="736"/><rect fill="#F8F8F8" height="2" style="stroke:#383838;stroke-width:1.5;" width="4" x="308.5" y="738"/><rect fill="#F8F8F8" height="2" style="stroke:#383838;stroke-width:1.5;" width="4" x="308.5" y="742"/><text fill="#000000" font-family="sans-serif" font-size="14" font-style="italic" lengthAdjust="spacing" textLength="85" x="220.5" y="763.9951">«Container»</text><text fill="#000000" font-family="sans-serif" font-size="14" lengthAdjust="spacing" textLength="63" x="231.5" y="780.292">QuestDB</text><!--MD5=[03988f2df4231e1a486c01e3236a3a84]
entity MONGODB--><rect fill="#F8F8F8" height="62.5938" style="stroke:#383838;stroke-width:1.5;" width="125" x="23.5" y="731"/><rect fill="#F8F8F8" height="10" style="stroke:#383838;stroke-width:1.5;" width="15" x="128.5" y="736"/><rect fill="#F8F8F8" height="2" style="stroke:#383838;stroke-width:1.5;" width="4" x="126.5" y="738"/><rect fill="#F8F8F8" height="2" style="stroke:#383838;stroke-width:1.5;" width="4" x="126.5" y="742"/><text fill="#000000" font-family="sans-serif" font-size="14" font-style="italic" lengthAdjust="spacing" textLength="85" x="38.5" y="763.9951">«Container»</text><text fill="#000000" font-family="sans-serif" font-size="14" lengthAdjust="spacing" textLength="69" x="46.5" y="780.292">MongoDB</text><!--MD5=[ed43a859708a376e35ae74978de1b490]
entity MB_API--><ellipse cx="698" cy="626" fill="#F8F8F8" rx="8" ry="8" style="stroke:#383838;stroke-width:1.5;"/><text fill="#000000" font-family="sans-serif" font-size="14" lengthAdjust="spacing" textLength="113" x="641.5" y="655.9951">Message Broker</text><text fill="#000000" font-family="sans-serif" font-size="14" lengthAdjust="spacing" textLength="21" x="641.5" y="672.292">API</text><!--MD5=[0ce5a9617f51ae4b5bc891fe128d05dc]
entity LTB_API--><ellipse cx="826" cy="353" fill="#F8F8F8" rx="8" ry="8" style="stroke:#383838;stroke-width:1.5;"/><text fill="#000000" font-family="sans-serif" font-size="14" lengthAdjust="spacing" textLength="186" x="733" y="382.9951">Location Tracking Backend</text><text fill="#000000" font-family="sans-serif" font-size="14" lengthAdjust="spacing" textLength="21" x="733" y="399.292">API</text><!--MD5=[9244efad2dc02808af23604ab0304277]
entity DRB_API--><ellipse cx="1668" cy="353" fill="#F8F8F8" rx="8" ry="8" style="stroke:#383838;stroke-width:1.5;"/><text fill="#000000" font-family="sans-serif" font-size="14" lengthAdjust="spacing" textLength="225" x="1555.5" y="382.9951">Device Records Master Backend</text><text fill="#000000" font-family="sans-serif" font-size="14" lengthAdjust="spacing" textLength="21" x="1555.5" y="399.292">API</text><!--MD5=[6390cbc15964bea49719771afd793c9b]
entity DPMB_API--><ellipse cx="1237" cy="353" fill="#F8F8F8" rx="8" ry="8" style="stroke:#383838;stroke-width:1.5;"/><text fill="#000000" font-family="sans-serif" font-size="14" lengthAdjust="spacing" textLength="222" x="1126" y="382.9951">Data Processor Master Backend</text><text fill="#000000" font-family="sans-serif" font-size="14" lengthAdjust="spacing" textLength="21" x="1126" y="399.292">API</text><!--MD5=[5ca5631ebaf5f86a9fa4e428e4442db3]
entity DRDB_API--><ellipse cx="1677" cy="626" fill="#F8F8F8" rx="8" ry="8" style="stroke:#383838;stroke-width:1.5;"/><text fill="#000000" font-family="sans-serif" font-size="14" lengthAdjust="spacing" textLength="179" x="1587.5" y="655.9951">Device Records Database</text><text fill="#000000" font-family="sans-serif" font-size="14" lengthAdjust="spacing" textLength="21" x="1587.5" y="672.292">API</text><!--MD5=[d282213c50e29b328cdb2ebefa3990e8]
entity DPDB_API--><ellipse cx="1091" cy="626" fill="#F8F8F8" rx="8" ry="8" style="stroke:#383838;stroke-width:1.5;"/><text fill="#000000" font-family="sans-serif" font-size="14" lengthAdjust="spacing" textLength="176" x="1003" y="655.9951">Data Processor Database</text><text fill="#000000" font-family="sans-serif" font-size="14" lengthAdjust="spacing" textLength="21" x="1003" y="672.292">API</text><!--MD5=[e8ad32939caa55f00142e93d75a05e2d]
entity QUESTDB_API--><ellipse cx="268" cy="626" fill="#F8F8F8" rx="8" ry="8" style="stroke:#383838;stroke-width:1.5;"/><text fill="#000000" font-family="sans-serif" font-size="14" lengthAdjust="spacing" textLength="63" x="236.5" y="655.9951">QuestDB</text><text fill="#000000" font-family="sans-serif" font-size="14" lengthAdjust="spacing" textLength="21" x="236.5" y="672.292">API</text><!--MD5=[2d1aaa06eea6692e612a00a28d7bf3bd]
entity MONGODB_API--><ellipse cx="86" cy="626" fill="#F8F8F8" rx="8" ry="8" style="stroke:#383838;stroke-width:1.5;"/><text fill="#000000" font-family="sans-serif" font-size="14" lengthAdjust="spacing" textLength="69" x="51.5" y="655.9951">MongoDB</text><text fill="#000000" font-family="sans-serif" font-size="14" lengthAdjust="spacing" textLength="21" x="51.5" y="672.292">API</text><!--MD5=[7b5d57a7033bc15fa4b522c391528de2]
entity DDG_API--><ellipse cx="455" cy="626" fill="#F8F8F8" rx="8" ry="8" style="stroke:#383838;stroke-width:1.5;"/><text fill="#000000" font-family="sans-serif" font-size="14" lengthAdjust="spacing" textLength="95" x="407.5" y="655.9951">Data Gateway</text><text fill="#000000" font-family="sans-serif" font-size="14" lengthAdjust="spacing" textLength="21" x="407.5" y="672.292">API</text><!--MD5=[96142bef19f749aced95310868fd618c]
entity DRF--><rect fill="#F8F8F8" height="62.5938" style="stroke:#383838;stroke-width:1.5;" width="216" x="1379" y="185"/><rect fill="#F8F8F8" height="10" style="stroke:#383838;stroke-width:1.5;" width="15" x="1575" y="190"/><rect fill="#F8F8F8" height="2" style="stroke:#383838;stroke-width:1.5;" width="4" x="1573" y="192"/><rect fill="#F8F8F8" height="2" style="stroke:#383838;stroke-width:1.5;" width="4" x="1573" y="196"/><text fill="#000000" font-family="sans-serif" font-size="14" font-style="italic" lengthAdjust="spacing" textLength="85" x="1439.5" y="217.9951">«Container»</text><text fill="#000000" font-family="sans-serif" font-size="14" lengthAdjust="spacing" textLength="176" x="1394" y="234.292">Device Records Frontend</text><!--MD5=[248285276881d4606f81bc6a8b2e8491]
entity DPF--><rect fill="#F8F8F8" height="62.5938" style="stroke:#383838;stroke-width:1.5;" width="213" x="1130.5" y="185"/><rect fill="#F8F8F8" height="10" style="stroke:#383838;stroke-width:1.5;" width="15" x="1323.5" y="190"/><rect fill="#F8F8F8" height="2" style="stroke:#383838;stroke-width:1.5;" width="4" x="1321.5" y="192"/><rect fill="#F8F8F8" height="2" style="stroke:#383838;stroke-width:1.5;" width="4" x="1321.5" y="196"/><text fill="#000000" font-family="sans-serif" font-size="14" font-style="italic" lengthAdjust="spacing" textLength="85" x="1189.5" y="217.9951">«Container»</text><text fill="#000000" font-family="sans-serif" font-size="14" lengthAdjust="spacing" textLength="173" x="1145.5" y="234.292">Data Processor Frontend</text><!--MD5=[838a8f8ee09da76e2984218500383e54]
entity LTF--><rect fill="#F8F8F8" height="62.5938" style="stroke:#383838;stroke-width:1.5;" width="228" x="867" y="185"/><rect fill="#F8F8F8" height="10" style="stroke:#383838;stroke-width:1.5;" width="15" x="1075" y="190"/><rect fill="#F8F8F8" height="2" style="stroke:#383838;stroke-width:1.5;" width="4" x="1073" y="192"/><rect fill="#F8F8F8" height="2" style="stroke:#383838;stroke-width:1.5;" width="4" x="1073" y="196"/><text fill="#000000" font-family="sans-serif" font-size="14" font-style="italic" lengthAdjust="spacing" textLength="85" x="933.5" y="217.9951">«Container»</text><text fill="#000000" font-family="sans-serif" font-size="14" lengthAdjust="spacing" textLength="188" x="882" y="234.292">Location Tracking Frontend</text><!--MD5=[c42ed81cef7fdd2e33758127945b9a5b]
entity UI--><ellipse cx="832" cy="14" fill="#F8F8F8" rx="8" ry="8" style="stroke:#383838;stroke-width:1.5;"/><text fill="#000000" font-family="sans-serif" font-size="14" lengthAdjust="spacing" textLength="13" x="825.5" y="43.9951">UI</text><!--MD5=[259fb42cf3d26cb196e8dd6a3316d2da]
entity IN_ENDPOINT--><ellipse cx="455" cy="883" fill="#F8F8F8" rx="8" ry="8" style="stroke:#383838;stroke-width:1.5;"/><text fill="#000000" font-family="sans-serif" font-size="14" lengthAdjust="spacing" textLength="57" x="426.5" y="912.9951">Rest API</text><!--MD5=[ad05253f68bf98f0b0345b317132f952]
link CDS to QUESTDB_API--><path d="M268,521.02 C268,547.43 268,584.74 268,606.75 " fill="none" id="CDS-to-QUESTDB_API" style="stroke:#383838;stroke-width:1.0;"/><path d="M276.4572,613.9018 A9,9 0 0 0 259.5428 613.9018" style="stroke:#383838;stroke-width:1.5;fill:none;"/><!--MD5=[666d4f6c4a9dcee25ffe6d0afb7e8f5c]
link DS to MONGODB_API--><path d="M86,521.02 C86,547.43 86,584.74 86,606.75 " fill="none" id="DS-to-MONGODB_API" style="stroke:#383838;stroke-width:1.0;"/><path d="M94.4572,613.9018 A9,9 0 0 0 77.5428 613.9018" style="stroke:#383838;stroke-width:1.5;fill:none;"/><!--MD5=[e2bb4535729e8a781cd7ddd238ff39ed]
link DDG to DDG_API--><path d="M455,521.02 C455,552.18 455,598.51 455,616.98 " fill="none" id="DDG-DDG_API" style="stroke:#383838;stroke-width:1.0;"/><!--MD5=[043f4a6998d1f423c1875123bc6c35b3]
link DPMB_API to DPMB--><path d="M1237,362.01 C1237,380.45 1237,426.69 1237,457.85 " fill="none" id="DPMB_API-DPMB" style="stroke:#383838;stroke-width:1.0;"/><!--MD5=[a28acdb8ad4d91f65f1547077cd4da90]
link DRB_API to DRB--><path d="M1677.35,362.01 C1698.87,380.45 1752.85,426.69 1789.22,457.85 " fill="none" id="DRB_API-DRB" style="stroke:#383838;stroke-width:1.0;"/><!--MD5=[9faa44188f0983b269c38a9c1880fbcb]
link MB_API to MB--><path d="M698,635.01 C698,653.45 698,699.69 698,730.85 " fill="none" id="MB_API-MB" style="stroke:#383838;stroke-width:1.0;"/><!--MD5=[8b4f74b634f1475be71ae4e68775c50f]
link DRDB_API to DRDB--><path d="M1677,635.01 C1677,653.45 1677,699.69 1677,730.85 " fill="none" id="DRDB_API-DRDB" style="stroke:#383838;stroke-width:1.0;"/><!--MD5=[b803d99af0ae985ed616150254b01076]
link DPDB_API to DPDB--><path d="M1091,635.01 C1091,653.45 1091,699.69 1091,730.85 " fill="none" id="DPDB_API-DPDB" style="stroke:#383838;stroke-width:1.0;"/><!--MD5=[4e1349c460729a9b0a875c8c8e490147]
link LTB_API to LTB--><path d="M816.77,362.01 C795.52,380.45 742.24,426.69 706.32,457.85 " fill="none" id="LTB_API-LTB" style="stroke:#383838;stroke-width:1.0;"/><!--MD5=[9467590f772bdba1939f43218646f943]
link UI to UIAG--><path d="M832,23.11 C832,32.34 832,48.6788 832,68.0684 C832,77.7633 832,88.2209 832,98.9339 C832,104.2905 832,109.7109 832,115.1318 C832,117.8422 832,120.5528 832,123.2556 C832,123.9313 832,124.6065 832,125.2811 " fill="none" id="UI-UIAG" style="stroke:#383838;stroke-width:1.0;"/><!--MD5=[8abd4cb10c03f79d1001485a53a7e496]
link MONGODB_API to MONGODB--><path d="M86,635.01 C86,653.45 86,699.69 86,730.85 " fill="none" id="MONGODB_API-MONGODB" style="stroke:#383838;stroke-width:1.0;"/><!--MD5=[a43445fa678732e5a8e288cde82788b9]
link QUESTDB_API to QUESTDB--><path d="M268,635.01 C268,653.45 268,699.69 268,730.85 " fill="none" id="QUESTDB_API-QUESTDB" style="stroke:#383838;stroke-width:1.0;"/><!--MD5=[c0fd3909471f57f2e33cdcce01cab375]
link DRB to DRDB_API--><path d="M1791.42,521.02 C1760.88,548.77 1717.1,588.56 1693.53,609.97 " fill="none" id="DRB-to-DRDB_API" style="stroke:#383838;stroke-width:1.0;"/><path d="M1693.797,621.1665 A9,9 0 0 0 1682.4179 608.6519" style="stroke:#383838;stroke-width:1.5;fill:none;"/><!--MD5=[bdcc501502345f0c74f74263afe2354b]
link DRSB to DRDB_API--><path d="M1563.36,521.02 C1593.69,548.77 1637.17,588.56 1660.58,609.97 " fill="none" id="DRSB-to-DRDB_API" style="stroke:#383838;stroke-width:1.0;"/><path d="M1671.6757,608.6657 A9,9 0 0 0 1660.2461 621.1343" style="stroke:#383838;stroke-width:1.5;fill:none;"/><!--MD5=[1f2dffb1f4eb14a1440f7f7f0f18391b]
link DPMB to DPDB_API--><path d="M1203.87,521.02 C1173.75,548.77 1130.56,588.56 1107.31,609.97 " fill="none" id="DPMB-to-DPDB_API" style="stroke:#383838;stroke-width:1.0;"/><path d="M1107.7022,621.1182 A9,9 0 0 0 1096.2476 608.6727" style="stroke:#383838;stroke-width:1.5;fill:none;"/><!--MD5=[e2366e555da0ccf804983b707b2d230e]
link DPSB to DPDB_API--><path d="M978.13,521.02 C1008.25,548.77 1051.44,588.56 1074.69,609.97 " fill="none" id="DPSB-to-DPDB_API" style="stroke:#383838;stroke-width:1.0;"/><path d="M1085.7524,608.6727 A9,9 0 0 0 1074.2978 621.1182" style="stroke:#383838;stroke-width:1.5;fill:none;"/><!--MD5=[632ffee6b860cfc9bcac06b852135104]
link LTF to LTB_API--><path d="M945.83,248.02 C913.71,275.89 867.6,315.9 842.99,337.26 " fill="none" id="LTF-to-LTB_API" style="stroke:#383838;stroke-width:1.0;"/><path d="M843.1076,348.3505 A9,9 0 0 0 832.0224 335.5748" style="stroke:#383838;stroke-width:1.5;fill:none;"/><!--MD5=[4a41331c31bbd71ab791820d8813635b]
link DPF to DPMB_API--><path d="M1237,248.02 C1237,274.43 1237,311.74 1237,333.75 " fill="none" id="DPF-to-DPMB_API" style="stroke:#383838;stroke-width:1.0;"/><path d="M1245.4572,340.9018 A9,9 0 0 0 1228.5428 340.9018" style="stroke:#383838;stroke-width:1.5;fill:none;"/><!--MD5=[99639326d43e115e35ef3e6d4e64f760]
link DRF to DRB_API--><path d="M1528.07,248.02 C1566.68,276.71 1622.6,318.26 1650.62,339.09 " fill="none" id="DRF-to-DRB_API" style="stroke:#383838;stroke-width:1.0;"/><path d="M1661.5575,336.674 A9,9 0 0 0 1651.4785 350.2576" style="stroke:#383838;stroke-width:1.5;fill:none;"/><!--MD5=[e0a223ea9716358c455df1ccd11a546d]
link CDS to MB_API--><path d="M352.18,516.83 C455.33,549.1 623.28,601.63 679.22,619.12 " fill="none" id="CDS-to-MB_API" style="stroke:#383838;stroke-width:1.0;"/><path d="M688.4476,613.1495 A9,9 0 0 0 683.3969 629.2923" style="stroke:#383838;stroke-width:1.5;fill:none;"/><!--MD5=[604f780646d9df350d60f8370c6d8018]
link DS to MB_API--><path d="M148.84,515.52 C154.93,517.53 161.05,519.4 167,521 C324.08,563.19 368.89,547.26 528,581 C583.25,592.72 647.56,610.52 678.88,619.46 " fill="none" id="DS-to-MB_API" style="stroke:#383838;stroke-width:1.0;"/><path d="M688.2224,613.3519 A9,9 0 0 0 683.5597 629.611" style="stroke:#383838;stroke-width:1.5;fill:none;"/><!--MD5=[432dc558a2903d0c88606da1e4b84e79]
link LTB to MB_API--><path d="M677.13,521.02 C682.45,547.55 689.99,585.09 694.4,607.05 " fill="none" id="LTB-to-MB_API" style="stroke:#383838;stroke-width:1.0;"/><path d="M704.0806,612.3052 A9,9 0 0 0 687.4937 615.6177" style="stroke:#383838;stroke-width:1.5;fill:none;"/><!--MD5=[fc219f88c7305afccf9ee7f03fbee597]
link DRB to MB_API--><path d="M1692.23,518.34 C1686.42,519.29 1680.66,520.18 1675,521 C1367.26,565.38 1286.65,543.51 978,581 C879.38,592.98 762.17,613.43 717.02,621.54 " fill="none" id="DRB-to-MB_API" style="stroke:#383838;stroke-width:1.0;"/><path d="M711.6884,631.0919 A9,9 0 0 0 708.6691 614.4491" style="stroke:#383838;stroke-width:1.5;fill:none;"/><!--MD5=[6911d2fabc650c005ca4ddd288c99edc]
link DPMB to MB_API--><path d="M1114.69,521.02 C981.65,554.22 779.57,604.65 717.08,620.24 " fill="none" id="DPMB-to-MB_API" style="stroke:#383838;stroke-width:1.0;"/><path d="M712.1275,630.1882 A9,9 0 0 0 708.0251 613.7787" style="stroke:#383838;stroke-width:1.5;fill:none;"/><!--MD5=[c8781c541b8ee09f9ccaf5978285f76f]
link DRSB to MB_API--><path d="M1402.88,517.88 C1397.18,518.96 1391.53,520.01 1386,521 C1205.59,553.34 1159.2,553.44 978,581 C879.78,595.94 762.34,614.68 717.08,621.94 " fill="none" id="DRSB-to-MB_API" style="stroke:#383838;stroke-width:1.0;"/><path d="M711.5588,631.383 A9,9 0 0 0 708.8799 614.682" style="stroke:#383838;stroke-width:1.5;fill:none;"/><!--MD5=[f827bf9b42c62ebabf528d1fcac18818]
link DPSB to MB_API--><path d="M888.95,521.02 C833.53,551.2 751.96,595.62 716.07,615.16 " fill="none" id="DPSB-to-MB_API" style="stroke:#383838;stroke-width:1.0;"/><path d="M713.9687,625.9344 A9,9 0 0 0 705.8776 611.0807" style="stroke:#383838;stroke-width:1.5;fill:none;"/><!--MD5=[9ce444daab36fdb377509fb95a57d70f]
link DDG to MB_API--><path d="M510.14,521.02 C564.43,551.07 644.23,595.24 679.77,614.91 " fill="none" id="DDG-to-MB_API" style="stroke:#383838;stroke-width:1.0;"/><path d="M690.3291,611.0894 A9,9 0 0 0 682.1435 625.8912" style="stroke:#383838;stroke-width:1.5;fill:none;"/><!--MD5=[59102a87a4d94a16034c88bc26e4734d]
link DR to IN_ENDPOINT--><path d="M455,794.02 C455,820.62 455,857.43 455,873.7 " fill="none" id="DR-IN_ENDPOINT" style="stroke:#383838;stroke-width:1.0;"/><!--MD5=[ae3611b2a0d706c1425a5b98056c682e]
reverse link DDG_API to DR--><path d="M455,645.22 C455,667.19 455,704.43 455,730.85 " fill="none" id="DDG_API-backto-DR" style="stroke:#383838;stroke-width:1.0;"/><path d="M446.5428,638.0882 A9,9 0 0 0 463.4572 638.0882" style="stroke:#383838;stroke-width:1.5;fill:none;"/><!--MD5=[d7f843e925dcbb984c8601360ffda873]
@startuml logical-view-level2

skinparam Monochrome true
skinparam sequenceMessageAlign center
skinparam Shadowing false
skinparam componentStyle uml2
skinparam packageStyle rectangle

interface "UI" as UI

interface "Rest API" as IN_ENDPOINT

component "Environment" <<System>> {
    component "Message Broker" as MB <<Container>>
    component "Device Records Master Backend" as DRB <<Container>>
    component "Device Records Slave Backend" as DRSB <<Container>>
    component "Location Tracking Backend" as LTB <<Container>>
    component "Data Gateway" as DDG <<Container>>
    component "Data Relayer" as DR <<Container>>
    component "UI Aggregator" as UIAG <<Container>> {
        component "Device Records Frontend" as DRF <<Container>>
        component "Data Processor Frontend" as DPF <<Container>>
        component "Location Tracking Frontend" as LTF <<Container>>
    }
    component "Data Processor Slave Backend" as DPSB <<Container>>
    component "Data Processor Master Backend" as DPMB <<Container>>
    component "Device Records Database" as DRDB <<Container>>
    component "Data Processor Database" as DPDB <<Container>>
    component "Chrono Data Store" as CDS <<Container>>
    component "Data Store" as DS <<Container>>
    component "QuestDB" as QUESTDB <<Container>>
    component "MongoDB" as MONGODB <<Container>>

    interface "Message Broker\nAPI" as MB_API
    interface "Location Tracking Backend\nAPI" as LTB_API
    interface "Device Records Master Backend\nAPI" as DRB_API
    interface "Data Processor Master Backend\nAPI" as DPMB_API
    interface "Device Records Database\nAPI" as DRDB_API
    interface "Data Processor Database\nAPI" as DPDB_API
    interface "QuestDB\nAPI" as QUESTDB_API
    interface "MongoDB\nAPI" as MONGODB_API
    interface "Data Gateway\nAPI" as DDG_API

    CDS - -( QUESTDB_API
    DS - -( MONGODB_API
    DDG - - DDG_API
    DPMB_API - - DPMB
    DRB_API - - DRB
    MB_API - - MB
    DRDB_API - - DRDB
    DPDB_API - - DPDB
    LTB_API - - LTB
    UI - - UIAG
    MONGODB_API - - MONGODB
    QUESTDB_API - - QUESTDB
    DRB - -( DRDB_API
    DRSB - -( DRDB_API
    DPMB - -( DPDB_API
    DPSB - -( DPDB_API
    LTF - -( LTB_API
    DPF - -( DPMB_API
    DRF - -( DRB_API

    CDS - -( MB_API
    DS - -( MB_API
    LTB - -( MB_API
    DRB - -( MB_API
    DPMB - -( MB_API
    DRSB - -( MB_API
    DPSB - -( MB_API
    DDG - -( MB_API

    DR - - IN_ENDPOINT
    DDG_API )- - DR
}

@enduml

PlantUML version 1.2021.9(Sun Jul 25 11:13:56 WEST 2021)
(GPL source distribution)
Java Runtime: OpenJDK Runtime Environment
JVM: OpenJDK 64-Bit Server VM
Default Encoding: UTF-8
Language: en
Country: GB
--></g></svg>