<?xml version="1.0" encoding="UTF-8" standalone="no"?><svg xmlns="http://www.w3.org/2000/svg" xmlns:xlink="http://www.w3.org/1999/xlink" contentScriptType="application/ecmascript" contentStyleType="text/css" height="1201px" preserveAspectRatio="none" style="width:863px;height:1201px;background:#FFFFFF;" version="1.1" viewBox="0 0 863 1201" width="863px" zoomAndPan="magnify"><defs><filter height="300%" id="f5rqz5z7jrzcu" width="300%" x="-1" y="-1"><feGaussianBlur result="blurOut" stdDeviation="2.0"/><feColorMatrix in="blurOut" result="blurOut2" type="matrix" values="0 0 0 0 0 0 0 0 0 0 0 0 0 0 0 0 0 0 .4 0"/><feOffset dx="4.0" dy="4.0" in="blurOut2" result="blurOut3"/><feBlend in="SourceGraphic" in2="blurOut3" mode="normal"/></filter></defs><g><!--MD5=[a5b09500a0475433bfe076cb7fd9d1c4]
cluster Data Processor Slave Backend--><rect fill="#FFFFFF" filter="url(#f5rqz5z7jrzcu)" height="1180.5" style="stroke:#000000;stroke-width:1.5;" width="842" x="7" y="7"/><rect fill="#FFFFFF" height="10" style="stroke:#000000;stroke-width:1.5;" width="15" x="829" y="12"/><rect fill="#FFFFFF" height="2" style="stroke:#000000;stroke-width:1.5;" width="4" x="827" y="14"/><rect fill="#FFFFFF" height="2" style="stroke:#000000;stroke-width:1.5;" width="4" x="827" y="18"/><text fill="#000000" font-family="sans-serif" font-size="14" font-weight="bold" lengthAdjust="spacing" textLength="207" x="324.5" y="34.9659">Data Processor Slave Backend</text><!--MD5=[70becb833e031d8ab2b25bb6fd041c2b]
cluster INFRA--><rect fill="#FFFFFF" filter="url(#f5rqz5z7jrzcu)" height="587.5" style="stroke:#000000;stroke-width:1.5;" width="668" x="31" y="53"/><rect fill="#FFFFFF" height="10" style="stroke:#000000;stroke-width:1.5;" width="15" x="679" y="58"/><rect fill="#FFFFFF" height="2" style="stroke:#000000;stroke-width:1.5;" width="4" x="677" y="60"/><rect fill="#FFFFFF" height="2" style="stroke:#000000;stroke-width:1.5;" width="4" x="677" y="64"/><text fill="#000000" font-family="sans-serif" font-size="14" font-weight="bold" lengthAdjust="spacing" textLength="97" x="316.5" y="80.9659">Infrastructure</text><!--MD5=[7a83628ac60894de8f7ccce91cd32b26]
cluster PERSIST--><rect fill="#FFFFFF" filter="url(#f5rqz5z7jrzcu)" height="234.5" style="stroke:#000000;stroke-width:1.5;" width="132" x="55" y="342"/><rect fill="#FFFFFF" height="10" style="stroke:#000000;stroke-width:1.5;" width="15" x="167" y="347"/><rect fill="#FFFFFF" height="2" style="stroke:#000000;stroke-width:1.5;" width="4" x="165" y="349"/><rect fill="#FFFFFF" height="2" style="stroke:#000000;stroke-width:1.5;" width="4" x="165" y="353"/><text fill="#000000" font-family="sans-serif" font-size="14" font-weight="bold" lengthAdjust="spacing" textLength="79" x="81.5" y="369.9659">Presistence</text><!--MD5=[e827ccb1cbd1809ec2e49ef4b2081f6a]
cluster ENDPOINT--><rect fill="#FFFFFF" filter="url(#f5rqz5z7jrzcu)" height="320.5" style="stroke:#000000;stroke-width:1.5;" width="448" x="219" y="288"/><rect fill="#FFFFFF" height="10" style="stroke:#000000;stroke-width:1.5;" width="15" x="647" y="293"/><rect fill="#FFFFFF" height="2" style="stroke:#000000;stroke-width:1.5;" width="4" x="645" y="295"/><rect fill="#FFFFFF" height="2" style="stroke:#000000;stroke-width:1.5;" width="4" x="645" y="299"/><text fill="#000000" font-family="sans-serif" font-size="14" font-weight="bold" lengthAdjust="spacing" textLength="63" x="411.5" y="315.9659">Endpoint</text><!--MD5=[a834a399ba2c7dfb9bb0bc2b6d57edb3]
cluster AMQP--><rect fill="#FFFFFF" filter="url(#f5rqz5z7jrzcu)" height="234.5" style="stroke:#000000;stroke-width:1.5;" width="376" x="251" y="342"/><rect fill="#FFFFFF" height="10" style="stroke:#000000;stroke-width:1.5;" width="15" x="607" y="347"/><rect fill="#FFFFFF" height="2" style="stroke:#000000;stroke-width:1.5;" width="4" x="605" y="349"/><rect fill="#FFFFFF" height="2" style="stroke:#000000;stroke-width:1.5;" width="4" x="605" y="353"/><text fill="#000000" font-family="sans-serif" font-size="14" font-weight="bold" lengthAdjust="spacing" textLength="43" x="417.5" y="369.9659">AMQP</text><!--MD5=[cd187d11655e4367e900de538d2f1d0c]
entity APP--><rect fill="#F8F8F8" filter="url(#f5rqz5z7jrzcu)" height="49.0679" style="stroke:#383838;stroke-width:1.5;" width="116" x="707" y="656.5"/><rect fill="#F8F8F8" height="10" style="stroke:#383838;stroke-width:1.5;" width="15" x="803" y="661.5"/><rect fill="#F8F8F8" height="2" style="stroke:#383838;stroke-width:1.5;" width="4" x="801" y="663.5"/><rect fill="#F8F8F8" height="2" style="stroke:#383838;stroke-width:1.5;" width="4" x="801" y="667.5"/><text fill="#000000" font-family="sans-serif" font-size="14" lengthAdjust="spacing" textLength="76" x="722" y="691.4659">Application</text><!--MD5=[711fc6413308d66a33499ee50e557b5d]
entity DOM--><rect fill="#F8F8F8" filter="url(#f5rqz5z7jrzcu)" height="49.0679" style="stroke:#383838;stroke-width:1.5;" width="92" x="711" y="1122.5"/><rect fill="#F8F8F8" height="10" style="stroke:#383838;stroke-width:1.5;" width="15" x="783" y="1127.5"/><rect fill="#F8F8F8" height="2" style="stroke:#383838;stroke-width:1.5;" width="4" x="781" y="1129.5"/><rect fill="#F8F8F8" height="2" style="stroke:#383838;stroke-width:1.5;" width="4" x="781" y="1133.5"/><text fill="#000000" font-family="sans-serif" font-size="14" lengthAdjust="spacing" textLength="52" x="726" y="1157.4659">Domain</text><!--MD5=[3dfc3527455eb72a4133679687dbe239]
entity DOM_SERV--><rect fill="#F8F8F8" filter="url(#f5rqz5z7jrzcu)" height="49.0679" style="stroke:#383838;stroke-width:1.5;" width="151" x="681.5" y="889.5"/><rect fill="#F8F8F8" height="10" style="stroke:#383838;stroke-width:1.5;" width="15" x="812.5" y="894.5"/><rect fill="#F8F8F8" height="2" style="stroke:#383838;stroke-width:1.5;" width="4" x="810.5" y="896.5"/><rect fill="#F8F8F8" height="2" style="stroke:#383838;stroke-width:1.5;" width="4" x="810.5" y="900.5"/><text fill="#000000" font-family="sans-serif" font-size="14" lengthAdjust="spacing" textLength="111" x="696.5" y="924.4659">Domain Services</text><!--MD5=[30d85f3125b7a53865e5f4719123efb6]
entity APP_API--><ellipse cx="774" cy="536" fill="#F8F8F8" filter="url(#f5rqz5z7jrzcu)" rx="8" ry="8" style="stroke:#383838;stroke-width:1.5;"/><text fill="#000000" font-family="sans-serif" font-size="14" lengthAdjust="spacing" textLength="102" x="723" y="567.9659">Application API</text><!--MD5=[0aefd3324de3ab8c3fd9c9ea0f687424]
entity DOM_API--><ellipse cx="757" cy="1030.5" fill="#F8F8F8" filter="url(#f5rqz5z7jrzcu)" rx="8" ry="8" style="stroke:#383838;stroke-width:1.5;"/><text fill="#000000" font-family="sans-serif" font-size="14" lengthAdjust="spacing" textLength="78" x="718" y="1062.4659">Domain API</text><!--MD5=[44ea187545a283c559b3bae2fb79223f]
entity DOM_SERV_API--><ellipse cx="757" cy="797.5" fill="#F8F8F8" filter="url(#f5rqz5z7jrzcu)" rx="8" ry="8" style="stroke:#383838;stroke-width:1.5;"/><text fill="#000000" font-family="sans-serif" font-size="14" lengthAdjust="spacing" textLength="137" x="688.5" y="829.4659">Domain Services API</text><!--MD5=[50c35d0a5350f8e8f48a6d3669f54f50]
entity BOOT--><rect fill="#F8F8F8" filter="url(#f5rqz5z7jrzcu)" height="49.0679" style="stroke:#383838;stroke-width:1.5;" width="70" x="344" y="215"/><rect fill="#F8F8F8" height="10" style="stroke:#383838;stroke-width:1.5;" width="15" x="394" y="220"/><rect fill="#F8F8F8" height="2" style="stroke:#383838;stroke-width:1.5;" width="4" x="392" y="222"/><rect fill="#F8F8F8" height="2" style="stroke:#383838;stroke-width:1.5;" width="4" x="392" y="226"/><text fill="#000000" font-family="sans-serif" font-size="14" lengthAdjust="spacing" textLength="30" x="359" y="249.9659">Boot</text><!--MD5=[44f07762fab2e804df8e0636e93cffbe]
entity BOOT_API--><ellipse cx="379" cy="123" fill="#F8F8F8" filter="url(#f5rqz5z7jrzcu)" rx="8" ry="8" style="stroke:#383838;stroke-width:1.5;"/><text fill="#000000" font-family="sans-serif" font-size="14" lengthAdjust="spacing" textLength="56" x="351" y="154.9659">Boot API</text><!--MD5=[e8f61fc9e6949b2891b48f1d9fff5dab]
entity POSTG--><rect fill="#F8F8F8" filter="url(#f5rqz5z7jrzcu)" height="49.0679" style="stroke:#383838;stroke-width:1.5;" width="98" x="72" y="511.5"/><rect fill="#F8F8F8" height="10" style="stroke:#383838;stroke-width:1.5;" width="15" x="150" y="516.5"/><rect fill="#F8F8F8" height="2" style="stroke:#383838;stroke-width:1.5;" width="4" x="148" y="518.5"/><rect fill="#F8F8F8" height="2" style="stroke:#383838;stroke-width:1.5;" width="4" x="148" y="522.5"/><text fill="#000000" font-family="sans-serif" font-size="14" lengthAdjust="spacing" textLength="58" x="87" y="546.4659">Postgres</text><!--MD5=[70e882393759605d085bbd393502e685]
entity POSTG_API--><ellipse cx="121" cy="412" fill="#F8F8F8" filter="url(#f5rqz5z7jrzcu)" rx="8" ry="8" style="stroke:#383838;stroke-width:1.5;"/><text fill="#000000" font-family="sans-serif" font-size="14" lengthAdjust="spacing" textLength="84" x="79" y="443.9659">Postgres API</text><!--MD5=[c01cbe8a412be218debd57fa8df8abed]
entity EGRESS--><rect fill="#F8F8F8" filter="url(#f5rqz5z7jrzcu)" height="49.0679" style="stroke:#383838;stroke-width:1.5;" width="85" x="525.5" y="511.5"/><rect fill="#F8F8F8" height="10" style="stroke:#383838;stroke-width:1.5;" width="15" x="590.5" y="516.5"/><rect fill="#F8F8F8" height="2" style="stroke:#383838;stroke-width:1.5;" width="4" x="588.5" y="518.5"/><rect fill="#F8F8F8" height="2" style="stroke:#383838;stroke-width:1.5;" width="4" x="588.5" y="522.5"/><text fill="#000000" font-family="sans-serif" font-size="14" lengthAdjust="spacing" textLength="45" x="540.5" y="546.4659">Egress</text><!--MD5=[97c2cc28f62fbe16a090dcbe5e30d27b]
entity INGRESS--><rect fill="#F8F8F8" filter="url(#f5rqz5z7jrzcu)" height="49.0679" style="stroke:#383838;stroke-width:1.5;" width="91" x="398.5" y="511.5"/><rect fill="#F8F8F8" height="10" style="stroke:#383838;stroke-width:1.5;" width="15" x="469.5" y="516.5"/><rect fill="#F8F8F8" height="2" style="stroke:#383838;stroke-width:1.5;" width="4" x="467.5" y="518.5"/><rect fill="#F8F8F8" height="2" style="stroke:#383838;stroke-width:1.5;" width="4" x="467.5" y="522.5"/><text fill="#000000" font-family="sans-serif" font-size="14" lengthAdjust="spacing" textLength="51" x="413.5" y="546.4659">Ingress</text><!--MD5=[c9412b933c0b6dd0cce7b51723fdba10]
entity INTERNAL--><rect fill="#F8F8F8" filter="url(#f5rqz5z7jrzcu)" height="49.0679" style="stroke:#383838;stroke-width:1.5;" width="94" x="268" y="511.5"/><rect fill="#F8F8F8" height="10" style="stroke:#383838;stroke-width:1.5;" width="15" x="342" y="516.5"/><rect fill="#F8F8F8" height="2" style="stroke:#383838;stroke-width:1.5;" width="4" x="340" y="518.5"/><rect fill="#F8F8F8" height="2" style="stroke:#383838;stroke-width:1.5;" width="4" x="340" y="522.5"/><text fill="#000000" font-family="sans-serif" font-size="14" lengthAdjust="spacing" textLength="54" x="283" y="546.4659">Internal</text><!--MD5=[72db9eea1d2bf2ff908159e31b503589]
entity EGRESS_API--><ellipse cx="568" cy="412" fill="#F8F8F8" filter="url(#f5rqz5z7jrzcu)" rx="8" ry="8" style="stroke:#383838;stroke-width:1.5;"/><text fill="#000000" font-family="sans-serif" font-size="14" lengthAdjust="spacing" textLength="71" x="532.5" y="443.9659">Egress API</text><!--MD5=[7c09cc5e2fc5888767c10a541b3b1d17]
entity INGRESS_API--><ellipse cx="444" cy="412" fill="#F8F8F8" filter="url(#f5rqz5z7jrzcu)" rx="8" ry="8" style="stroke:#383838;stroke-width:1.5;"/><text fill="#000000" font-family="sans-serif" font-size="14" lengthAdjust="spacing" textLength="77" x="405.5" y="443.9659">Ingress API</text><!--MD5=[bea4d6aa064203998fd86e6c52b3e03d]
entity INTERNAL_API--><ellipse cx="315" cy="412" fill="#F8F8F8" filter="url(#f5rqz5z7jrzcu)" rx="8" ry="8" style="stroke:#383838;stroke-width:1.5;"/><text fill="#000000" font-family="sans-serif" font-size="14" lengthAdjust="spacing" textLength="80" x="275" y="443.9659">Internal API</text><!--MD5=[14cf9b7186fc426919be12717f53f1a1]
link DOM_API to DOM--><path d="M757,1039.73 C757,1056.76 757,1096.39 757,1122.15 " fill="none" id="DOM_API-DOM" style="stroke:#383838;stroke-width:1.0;"/><!--MD5=[b929a7d98f1772b10f9ae2757a6ed60f]
link DOM_SERV_API to DOM_SERV--><path d="M757,806.73 C757,823.76 757,863.39 757,889.15 " fill="none" id="DOM_SERV_API-DOM_SERV" style="stroke:#383838;stroke-width:1.0;"/><!--MD5=[b4a61ba3a97355d6345cdf1acd7a7817]
link EGRESS_API to EGRESS--><path d="M568,421 C568,439.03 568,483.38 568,511.15 " fill="none" id="EGRESS_API-EGRESS" style="stroke:#383838;stroke-width:1.0;"/><!--MD5=[530304c66b8acc68ed58d4341088d695]
link INGRESS_API to INGRESS--><path d="M444,421 C444,439.03 444,483.38 444,511.15 " fill="none" id="INGRESS_API-INGRESS" style="stroke:#383838;stroke-width:1.0;"/><!--MD5=[a67076f93ca893e87ec52ccf0fa37c5d]
link INTERNAL_API to INTERNAL--><path d="M315,421 C315,439.03 315,483.38 315,511.15 " fill="none" id="INTERNAL_API-INTERNAL" style="stroke:#383838;stroke-width:1.0;"/><!--MD5=[6c47b63cf1ccf71776fb2fb1146b89bd]
link POSTG_API to POSTG--><path d="M121,421 C121,439.03 121,483.38 121,511.15 " fill="none" id="POSTG_API-POSTG" style="stroke:#383838;stroke-width:1.0;"/><!--MD5=[9bc3545913d2ece8bc1c8e2c39a9583d]
link APP_API to APP--><path d="M773.49,545.1 C772.16,566.25 768.54,623.78 766.48,656.47 " fill="none" id="APP_API-APP" style="stroke:#383838;stroke-width:1.0;"/><!--MD5=[960e631b20e6d0a5a1769365a28f267a]
link BOOT_API to BOOT--><path d="M379,132.23 C379,149.26 379,188.89 379,214.65 " fill="none" id="BOOT_API-BOOT" style="stroke:#383838;stroke-width:1.0;"/><!--MD5=[4650e1908a5caa745e5a54df07a9a97d]
link ENDPOINT to APP_API--><path d="M667.2497,421.7543 C667.4366,421.9525 667.6261,422.1536 667.8184,422.3575 C668.2029,422.7653 668.598,423.1844 669.0035,423.6145 C669.8144,424.4746 670.6665,425.3784 671.5567,426.3227 C678.6784,433.8766 688.2394,444.0181 698.6687,455.0813 C719.5275,477.2075 743.86,503.02 759.1,519.19 " fill="none" id="ENDPOINT-to-APP_API" style="stroke:#383838;stroke-width:1.0;"/><path d="M770.371,518.8182 A9,9 0 0 0 758.0653 530.4229" style="stroke:#383838;stroke-width:1.5;fill:none;"/><!--MD5=[845c2c4eee2fae498ac38234a5aedbc1]
link APP to DOM_SERV_API--><path d="M763.34,705.72 C761.84,727.3 759.64,758.68 758.27,778.32 " fill="none" id="APP-to-DOM_SERV_API" style="stroke:#383838;stroke-width:1.0;"/><path d="M766.2218,785.8908 A9,9 0 0 0 749.3487 784.708" style="stroke:#383838;stroke-width:1.5;fill:none;"/><!--MD5=[4c0b42fcf9c300baa81263005d99b18a]
link DOM_SERV to DOM_API--><path d="M757,938.72 C757,960.3 757,991.68 757,1011.32 " fill="none" id="DOM_SERV-to-DOM_API" style="stroke:#383838;stroke-width:1.0;"/><path d="M765.4572,1018.2918 A9,9 0 0 0 748.5428 1018.2918" style="stroke:#383838;stroke-width:1.5;fill:none;"/><!--MD5=[9483b5d18d033ae23162ccaaac381777]
link BOOT to INTERNAL_API--><path d="M370.1,264.21 C357.07,298.91 333.11,362.75 321.56,393.52 " fill="none" id="BOOT-to-INTERNAL_API" style="stroke:#383838;stroke-width:1.0;"/><path d="M327.0295,403.0119 A9,9 0 0 0 311.195 397.0648" style="stroke:#383838;stroke-width:1.5;fill:none;"/><!--MD5=[4379324cd2c7c1b2cbe82266d6d3e2c8]
link BOOT to POSTG_API--><path d="M343.82,243.67 C316.89,247.35 279.63,255.22 251,272 C196.96,303.67 151.67,364.66 131.8,394.18 " fill="none" id="BOOT-to-POSTG_API" style="stroke:#383838;stroke-width:1.0;"/><path d="M134.8177,404.9645 A9,9 0 0 0 120.6847 395.6716" style="stroke:#383838;stroke-width:1.5;fill:none;"/><!--MD5=[03a3a3da64142f805947a80cad3d7aa7]
link BOOT to EGRESS_API--><path d="M414.02,240.79 C442.36,242.8 481.76,249.83 508,272 C545.4,303.59 560.14,362.8 565.4,392.71 " fill="none" id="BOOT-to-EGRESS_API" style="stroke:#383838;stroke-width:1.0;"/><path d="M574.8953,398.5834 A9,9 0 0 0 558.1868 401.2152" style="stroke:#383838;stroke-width:1.5;fill:none;"/><!--MD5=[5aaa978c22e8e54db4cd3befe40cb162]
link BOOT to INGRESS_API--><path d="M388.04,264.21 C401.27,298.91 425.61,362.75 437.34,393.52 " fill="none" id="BOOT-to-INGRESS_API" style="stroke:#383838;stroke-width:1.0;"/><path d="M447.7285,397.034 A9,9 0 0 0 431.921 403.0525" style="stroke:#383838;stroke-width:1.5;fill:none;"/><!--MD5=[89449f69bd8ce44f048c9982fb8f38fc]
@startuml logical-view-level3-data-processor-slave-backend

skinparam Monochrome true

component "Data Processor Slave Backend" {
    component "Application" as APP
    component "Domain" as DOM
    component "Domain Services" as DOM_SERV
    component "Infrastructure" as INFRA {
        component "Boot" as BOOT
        component "Presistence" as PERSIST {
            component "Postgres" as POSTG
            interface "Postgres API" as POSTG_API
        }
        component "Endpoint" as ENDPOINT {
            component "AMQP" as AMQP {
                component "Egress" as EGRESS
                component "Ingress" as INGRESS
                component "Internal" as INTERNAL
                interface "Egress API" as EGRESS_API
                interface "Ingress API" as INGRESS_API
                interface "Internal API" as INTERNAL_API
            }
        }
        interface "Boot API" as BOOT_API
    }

    interface "Application API" as APP_API
    interface "Domain API" as DOM_API
    interface "Domain Services API" as DOM_SERV_API

    DOM_API - - DOM
    DOM_SERV_API - - DOM_SERV

    EGRESS_API - - EGRESS
    INGRESS_API - - INGRESS
    INTERNAL_API - - INTERNAL

    POSTG_API - - POSTG

    APP_API - - APP
    BOOT_API - - BOOT

    ENDPOINT - -( APP_API
    APP - -( DOM_SERV_API
    DOM_SERV - -( DOM_API
    BOOT - -( INTERNAL_API
    BOOT - -( POSTG_API
    BOOT - -( EGRESS_API
    BOOT - -( INGRESS_API
}

@enduml

PlantUML version 1.2021.16(Wed Dec 08 17:25:22 WET 2021)
(GPL source distribution)
Java Runtime: OpenJDK Runtime Environment
JVM: OpenJDK 64-Bit Server VM
Default Encoding: UTF-8
Language: en
Country: GB
--></g></svg>