<?xml version="1.0" encoding="UTF-8" standalone="no"?><svg xmlns="http://www.w3.org/2000/svg" xmlns:xlink="http://www.w3.org/1999/xlink" contentScriptType="application/ecmascript" contentStyleType="text/css" height="634px" preserveAspectRatio="none" style="width:519px;height:634px;background:#FFFFFF;" version="1.1" viewBox="0 0 519 634" width="519px" zoomAndPan="magnify"><defs><filter height="300%" id="f4d6atsjroumv" width="300%" x="-1" y="-1"><feGaussianBlur result="blurOut" stdDeviation="2.0"/><feColorMatrix in="blurOut" result="blurOut2" type="matrix" values="0 0 0 0 0 0 0 0 0 0 0 0 0 0 0 0 0 0 .4 0"/><feOffset dx="4.0" dy="4.0" in="blurOut2" result="blurOut3"/><feBlend in="SourceGraphic" in2="blurOut3" mode="normal"/></filter></defs><g><!--MD5=[4af3b82030fedc1f8e32fcb986fac18b]
cluster LGT 92 GPS Sensor Gateway--><rect fill="#FFFFFF" filter="url(#f4d6atsjroumv)" height="613" style="stroke:#000000;stroke-width:1.5;" width="498" x="7" y="7"/><rect fill="#FFFFFF" height="10" style="stroke:#000000;stroke-width:1.5;" width="15" x="485" y="12"/><rect fill="#FFFFFF" height="2" style="stroke:#000000;stroke-width:1.5;" width="4" x="483" y="14"/><rect fill="#FFFFFF" height="2" style="stroke:#000000;stroke-width:1.5;" width="4" x="483" y="18"/><text fill="#000000" font-family="sans-serif" font-size="14" font-weight="bold" lengthAdjust="spacing" textLength="228" x="142" y="32.9951">LGT 92 GPS Sensor Gateway</text><!--MD5=[70becb833e031d8ab2b25bb6fd041c2b]
cluster INFRA--><rect fill="#FFFFFF" filter="url(#f4d6atsjroumv)" height="492" style="stroke:#000000;stroke-width:1.5;" width="326" x="31" y="50"/><rect fill="#FFFFFF" height="10" style="stroke:#000000;stroke-width:1.5;" width="15" x="337" y="55"/><rect fill="#FFFFFF" height="2" style="stroke:#000000;stroke-width:1.5;" width="4" x="335" y="57"/><rect fill="#FFFFFF" height="2" style="stroke:#000000;stroke-width:1.5;" width="4" x="335" y="61"/><text fill="#000000" font-family="sans-serif" font-size="14" font-weight="bold" lengthAdjust="spacing" textLength="110" x="139" y="75.9951">Infrastructure</text><!--MD5=[e827ccb1cbd1809ec2e49ef4b2081f6a]
cluster ENDPOINT--><rect fill="#FFFFFF" filter="url(#f4d6atsjroumv)" height="237" style="stroke:#000000;stroke-width:1.5;" width="262" x="63" y="273"/><rect fill="#FFFFFF" height="10" style="stroke:#000000;stroke-width:1.5;" width="15" x="305" y="278"/><rect fill="#FFFFFF" height="2" style="stroke:#000000;stroke-width:1.5;" width="4" x="303" y="280"/><rect fill="#FFFFFF" height="2" style="stroke:#000000;stroke-width:1.5;" width="4" x="303" y="284"/><text fill="#000000" font-family="sans-serif" font-size="14" font-weight="bold" lengthAdjust="spacing" textLength="69" x="159.5" y="298.9951">Endpoint</text><!--MD5=[cd187d11655e4367e900de538d2f1d0c]
entity APP--><rect fill="#F8F8F8" filter="url(#f4d6atsjroumv)" height="46.2969" style="stroke:#383838;stroke-width:1.5;" width="115" x="373.5" y="558"/><rect fill="#F8F8F8" height="10" style="stroke:#383838;stroke-width:1.5;" width="15" x="468.5" y="563"/><rect fill="#F8F8F8" height="2" style="stroke:#383838;stroke-width:1.5;" width="4" x="466.5" y="565"/><rect fill="#F8F8F8" height="2" style="stroke:#383838;stroke-width:1.5;" width="4" x="466.5" y="569"/><text fill="#000000" font-family="sans-serif" font-size="14" lengthAdjust="spacing" textLength="75" x="388.5" y="590.9951">Application</text><!--MD5=[30d85f3125b7a53865e5f4719123efb6]
entity APP_API--><ellipse cx="431" cy="463" fill="#F8F8F8" filter="url(#f4d6atsjroumv)" rx="8" ry="8" style="stroke:#383838;stroke-width:1.5;"/><text fill="#000000" font-family="sans-serif" font-size="14" lengthAdjust="spacing" textLength="100" x="381" y="492.9951">Application API</text><!--MD5=[50c35d0a5350f8e8f48a6d3669f54f50]
entity BOOT--><rect fill="#F8F8F8" filter="url(#f4d6atsjroumv)" height="46.2969" style="stroke:#383838;stroke-width:1.5;" width="73" x="148.5" y="203"/><rect fill="#F8F8F8" height="10" style="stroke:#383838;stroke-width:1.5;" width="15" x="201.5" y="208"/><rect fill="#F8F8F8" height="2" style="stroke:#383838;stroke-width:1.5;" width="4" x="199.5" y="210"/><rect fill="#F8F8F8" height="2" style="stroke:#383838;stroke-width:1.5;" width="4" x="199.5" y="214"/><text fill="#000000" font-family="sans-serif" font-size="14" lengthAdjust="spacing" textLength="33" x="163.5" y="235.9951">Boot</text><!--MD5=[44f07762fab2e804df8e0636e93cffbe]
entity BOOT_API--><ellipse cx="185" cy="114" fill="#F8F8F8" filter="url(#f4d6atsjroumv)" rx="8" ry="8" style="stroke:#383838;stroke-width:1.5;"/><text fill="#000000" font-family="sans-serif" font-size="14" lengthAdjust="spacing" textLength="58" x="156" y="143.9951">Boot API</text><!--MD5=[bd5f618b12816bd4b75416c1e6e531a6]
entity REST--><rect fill="#F8F8F8" filter="url(#f4d6atsjroumv)" height="46.2969" style="stroke:#383838;stroke-width:1.5;" width="77" x="204.5" y="440"/><rect fill="#F8F8F8" height="10" style="stroke:#383838;stroke-width:1.5;" width="15" x="261.5" y="445"/><rect fill="#F8F8F8" height="2" style="stroke:#383838;stroke-width:1.5;" width="4" x="259.5" y="447"/><rect fill="#F8F8F8" height="2" style="stroke:#383838;stroke-width:1.5;" width="4" x="259.5" y="451"/><text fill="#000000" font-family="sans-serif" font-size="14" lengthAdjust="spacing" textLength="37" x="219.5" y="472.9951">REST</text><!--MD5=[66db70f94ccbac3c79bd754cb956443f]
entity AMQP--><rect fill="#F8F8F8" filter="url(#f4d6atsjroumv)" height="46.2969" style="stroke:#383838;stroke-width:1.5;" width="81" x="87.5" y="440"/><rect fill="#F8F8F8" height="10" style="stroke:#383838;stroke-width:1.5;" width="15" x="148.5" y="445"/><rect fill="#F8F8F8" height="2" style="stroke:#383838;stroke-width:1.5;" width="4" x="146.5" y="447"/><rect fill="#F8F8F8" height="2" style="stroke:#383838;stroke-width:1.5;" width="4" x="146.5" y="451"/><text fill="#000000" font-family="sans-serif" font-size="14" lengthAdjust="spacing" textLength="41" x="102.5" y="472.9951">AMQP</text><!--MD5=[4a72e563beaae6ee8f52609bd00b0b4e]
entity REST_API--><ellipse cx="243" cy="345" fill="#F8F8F8" filter="url(#f4d6atsjroumv)" rx="8" ry="8" style="stroke:#383838;stroke-width:1.5;"/><text fill="#000000" font-family="sans-serif" font-size="14" lengthAdjust="spacing" textLength="62" x="212" y="374.9951">REST API</text><!--MD5=[f360c852f81daa4ad66be7df7a5c9a3d]
entity AMQP_API--><ellipse cx="128" cy="345" fill="#F8F8F8" filter="url(#f4d6atsjroumv)" rx="8" ry="8" style="stroke:#383838;stroke-width:1.5;"/><text fill="#000000" font-family="sans-serif" font-size="14" lengthAdjust="spacing" textLength="66" x="95" y="374.9951">AMQP API</text><!--MD5=[7a9ef8a27ebc46a167bf2f5b243e32ae]
link REST_API to REST--><path d="M243,354.34 C243,372.01 243,413.68 243,439.69 " fill="none" id="REST_API-REST" style="stroke:#383838;stroke-width:1.0;"/><!--MD5=[144eb759bece83ea8e8de5d37013052c]
link AMQP_API to AMQP--><path d="M128,354.34 C128,372.01 128,413.68 128,439.69 " fill="none" id="AMQP_API-AMQP" style="stroke:#383838;stroke-width:1.0;"/><!--MD5=[9bc3545913d2ece8bc1c8e2c39a9583d]
link APP_API to APP--><path d="M431,472.34 C431,490.01 431,531.68 431,557.69 " fill="none" id="APP_API-APP" style="stroke:#383838;stroke-width:1.0;"/><!--MD5=[960e631b20e6d0a5a1769365a28f267a]
link BOOT_API to BOOT--><path d="M185,123.27 C185,139.96 185,178.16 185,202.71 " fill="none" id="BOOT_API-BOOT" style="stroke:#383838;stroke-width:1.0;"/><!--MD5=[411b2be29a8d2293d28c0db98fef1f07]
link BOOT to REST_API--><path d="M195.91,249.01 C207.08,271.54 224.22,306.12 234.45,326.75 " fill="none" id="BOOT-to-REST_API" style="stroke:#383838;stroke-width:1.0;"/><path d="M245.1886,329.3744 A9,9 0 0 0 230.0358 336.8904" style="stroke:#383838;stroke-width:1.5;fill:none;"/><!--MD5=[825637d1efb63c5c00802efb716c3c83]
link BOOT to AMQP_API--><path d="M174.28,249.01 C163.3,271.54 146.46,306.12 136.4,326.75 " fill="none" id="BOOT-to-AMQP_API" style="stroke:#383838;stroke-width:1.0;"/><path d="M140.9004,336.8332 A9,9 0 0 0 125.6999 329.4142" style="stroke:#383838;stroke-width:1.5;fill:none;"/><!--MD5=[4650e1908a5caa745e5a54df07a9a97d]
link ENDPOINT to APP_API--><path d="M325.1125,354.2549 C325.2962,354.4419 325.4826,354.6316 325.6717,354.824 C326.0497,355.2087 326.4383,355.6041 326.837,356.0098 C327.6345,356.8213 328.4724,357.6741 329.348,358.565 C336.3522,365.6925 345.7594,375.265 356.0338,385.72 C376.5825,406.63 400.6,431.07 415.8,446.54 " fill="none" id="ENDPOINT-to-APP_API" style="stroke:#383838;stroke-width:1.0;"/><path d="M426.9258,445.7821 A9,9 0 0 0 414.8452 457.621" style="stroke:#383838;stroke-width:1.5;fill:none;"/><!--MD5=[05f5b5e16dcc662fb4d582d8bd2996f8]
@startuml logical-view-level3-lgt-92-gps-sensor-gateway

skinparam Monochrome true

component "LGT 92 GPS Sensor Gateway" {
    component "Application" as APP
    component "Infrastructure" as INFRA {
        component "Boot" as BOOT
        component "Endpoint" as ENDPOINT {
            component "REST" as REST
            component "AMQP" as AMQP
            interface "REST API" as REST_API
            interface "AMQP API" as AMQP_API
        }
        interface "Boot API" as BOOT_API
    }

    interface "Application API" as APP_API

    REST_API - - REST
    AMQP_API - - AMQP

    APP_API - - APP
    BOOT_API - - BOOT

    BOOT - -( REST_API
    BOOT - -( AMQP_API

    ENDPOINT - -( APP_API
}

@enduml

PlantUML version 1.2021.9(Sun Jul 25 11:13:56 WEST 2021)
(GPL source distribution)
Java Runtime: OpenJDK Runtime Environment
JVM: OpenJDK 64-Bit Server VM
Default Encoding: UTF-8
Language: en
Country: GB
--></g></svg>