<?xml version="1.0" encoding="UTF-8" standalone="no"?><svg xmlns="http://www.w3.org/2000/svg" xmlns:xlink="http://www.w3.org/1999/xlink" contentScriptType="application/ecmascript" contentStyleType="text/css" height="727px" preserveAspectRatio="none" style="width:389px;height:727px;background:#FFFFFF;" version="1.1" viewBox="0 0 389 727" width="389px" zoomAndPan="magnify"><defs><filter height="300%" id="frgdhaauec9or" width="300%" x="-1" y="-1"><feGaussianBlur result="blurOut" stdDeviation="2.0"/><feColorMatrix in="blurOut" result="blurOut2" type="matrix" values="0 0 0 0 0 0 0 0 0 0 0 0 0 0 0 0 0 0 .4 0"/><feOffset dx="4.0" dy="4.0" in="blurOut2" result="blurOut3"/><feBlend in="SourceGraphic" in2="blurOut3" mode="normal"/></filter></defs><g><!--MD5=[15b62704e49a28f9a46a8f84cfcb065b]
cluster Data Store--><rect fill="#FFFFFF" filter="url(#frgdhaauec9or)" height="706" style="stroke:#000000;stroke-width:1.5;" width="368" x="7" y="7"/><rect fill="#FFFFFF" height="10" style="stroke:#000000;stroke-width:1.5;" width="15" x="355" y="12"/><rect fill="#FFFFFF" height="2" style="stroke:#000000;stroke-width:1.5;" width="4" x="353" y="14"/><rect fill="#FFFFFF" height="2" style="stroke:#000000;stroke-width:1.5;" width="4" x="353" y="18"/><text fill="#000000" font-family="sans-serif" font-size="14" font-weight="bold" lengthAdjust="spacing" textLength="83" x="149.5" y="32.9951">Data Store</text><!--MD5=[70becb833e031d8ab2b25bb6fd041c2b]
cluster INFRA--><rect fill="#FFFFFF" filter="url(#frgdhaauec9or)" height="463" style="stroke:#000000;stroke-width:1.5;" width="320" x="31" y="50"/><rect fill="#FFFFFF" height="10" style="stroke:#000000;stroke-width:1.5;" width="15" x="331" y="55"/><rect fill="#FFFFFF" height="2" style="stroke:#000000;stroke-width:1.5;" width="4" x="329" y="57"/><rect fill="#FFFFFF" height="2" style="stroke:#000000;stroke-width:1.5;" width="4" x="329" y="61"/><text fill="#000000" font-family="sans-serif" font-size="14" font-weight="bold" lengthAdjust="spacing" textLength="110" x="136" y="75.9951">Infrastructure</text><!--MD5=[7a83628ac60894de8f7ccce91cd32b26]
cluster PERSIST--><rect fill="#FFFFFF" filter="url(#frgdhaauec9or)" height="215" style="stroke:#000000;stroke-width:1.5;" width="134" x="55" y="274"/><rect fill="#FFFFFF" height="10" style="stroke:#000000;stroke-width:1.5;" width="15" x="169" y="279"/><rect fill="#FFFFFF" height="2" style="stroke:#000000;stroke-width:1.5;" width="4" x="167" y="281"/><rect fill="#FFFFFF" height="2" style="stroke:#000000;stroke-width:1.5;" width="4" x="167" y="285"/><text fill="#000000" font-family="sans-serif" font-size="14" font-weight="bold" lengthAdjust="spacing" textLength="94" x="75" y="299.9951">Presistence</text><!--MD5=[e827ccb1cbd1809ec2e49ef4b2081f6a]
cluster ENDPOINT--><rect fill="#FFFFFF" filter="url(#frgdhaauec9or)" height="215" style="stroke:#000000;stroke-width:1.5;" width="114" x="213" y="274"/><rect fill="#FFFFFF" height="10" style="stroke:#000000;stroke-width:1.5;" width="15" x="307" y="279"/><rect fill="#FFFFFF" height="2" style="stroke:#000000;stroke-width:1.5;" width="4" x="305" y="281"/><rect fill="#FFFFFF" height="2" style="stroke:#000000;stroke-width:1.5;" width="4" x="305" y="285"/><text fill="#000000" font-family="sans-serif" font-size="14" font-weight="bold" lengthAdjust="spacing" textLength="69" x="235.5" y="299.9951">Endpoint</text><!--MD5=[cd187d11655e4367e900de538d2f1d0c]
entity APP--><rect fill="#F8F8F8" filter="url(#frgdhaauec9or)" height="46.2969" style="stroke:#383838;stroke-width:1.5;" width="115" x="138.5" y="651"/><rect fill="#F8F8F8" height="10" style="stroke:#383838;stroke-width:1.5;" width="15" x="233.5" y="656"/><rect fill="#F8F8F8" height="2" style="stroke:#383838;stroke-width:1.5;" width="4" x="231.5" y="658"/><rect fill="#F8F8F8" height="2" style="stroke:#383838;stroke-width:1.5;" width="4" x="231.5" y="662"/><text fill="#000000" font-family="sans-serif" font-size="14" lengthAdjust="spacing" textLength="75" x="153.5" y="683.9951">Application</text><!--MD5=[30d85f3125b7a53865e5f4719123efb6]
entity APP_API--><ellipse cx="196" cy="562" fill="#F8F8F8" filter="url(#frgdhaauec9or)" rx="8" ry="8" style="stroke:#383838;stroke-width:1.5;"/><text fill="#000000" font-family="sans-serif" font-size="14" lengthAdjust="spacing" textLength="100" x="146" y="591.9951">Application API</text><!--MD5=[50c35d0a5350f8e8f48a6d3669f54f50]
entity BOOT--><rect fill="#F8F8F8" filter="url(#frgdhaauec9or)" height="46.2969" style="stroke:#383838;stroke-width:1.5;" width="73" x="159.5" y="203"/><rect fill="#F8F8F8" height="10" style="stroke:#383838;stroke-width:1.5;" width="15" x="212.5" y="208"/><rect fill="#F8F8F8" height="2" style="stroke:#383838;stroke-width:1.5;" width="4" x="210.5" y="210"/><rect fill="#F8F8F8" height="2" style="stroke:#383838;stroke-width:1.5;" width="4" x="210.5" y="214"/><text fill="#000000" font-family="sans-serif" font-size="14" lengthAdjust="spacing" textLength="33" x="174.5" y="235.9951">Boot</text><!--MD5=[44f07762fab2e804df8e0636e93cffbe]
entity BOOT_API--><ellipse cx="196" cy="114" fill="#F8F8F8" filter="url(#frgdhaauec9or)" rx="8" ry="8" style="stroke:#383838;stroke-width:1.5;"/><text fill="#000000" font-family="sans-serif" font-size="14" lengthAdjust="spacing" textLength="58" x="167" y="143.9951">Boot API</text><!--MD5=[e8f61fc9e6949b2891b48f1d9fff5dab]
entity POSTG--><rect fill="#F8F8F8" filter="url(#frgdhaauec9or)" height="46.2969" style="stroke:#383838;stroke-width:1.5;" width="102" x="71" y="427"/><rect fill="#F8F8F8" height="10" style="stroke:#383838;stroke-width:1.5;" width="15" x="153" y="432"/><rect fill="#F8F8F8" height="2" style="stroke:#383838;stroke-width:1.5;" width="4" x="151" y="434"/><rect fill="#F8F8F8" height="2" style="stroke:#383838;stroke-width:1.5;" width="4" x="151" y="438"/><text fill="#000000" font-family="sans-serif" font-size="14" lengthAdjust="spacing" textLength="62" x="86" y="459.9951">Postgres</text><!--MD5=[70e882393759605d085bbd393502e685]
entity POSTG_API--><ellipse cx="122" cy="338" fill="#F8F8F8" filter="url(#frgdhaauec9or)" rx="8" ry="8" style="stroke:#383838;stroke-width:1.5;"/><text fill="#000000" font-family="sans-serif" font-size="14" lengthAdjust="spacing" textLength="87" x="78.5" y="367.9951">Postgres API</text><!--MD5=[66db70f94ccbac3c79bd754cb956443f]
entity AMQP--><rect fill="#F8F8F8" filter="url(#frgdhaauec9or)" height="46.2969" style="stroke:#383838;stroke-width:1.5;" width="81" x="229.5" y="427"/><rect fill="#F8F8F8" height="10" style="stroke:#383838;stroke-width:1.5;" width="15" x="290.5" y="432"/><rect fill="#F8F8F8" height="2" style="stroke:#383838;stroke-width:1.5;" width="4" x="288.5" y="434"/><rect fill="#F8F8F8" height="2" style="stroke:#383838;stroke-width:1.5;" width="4" x="288.5" y="438"/><text fill="#000000" font-family="sans-serif" font-size="14" lengthAdjust="spacing" textLength="41" x="244.5" y="459.9951">AMQP</text><!--MD5=[f360c852f81daa4ad66be7df7a5c9a3d]
entity AMQP_API--><ellipse cx="270" cy="338" fill="#F8F8F8" filter="url(#frgdhaauec9or)" rx="8" ry="8" style="stroke:#383838;stroke-width:1.5;"/><text fill="#000000" font-family="sans-serif" font-size="14" lengthAdjust="spacing" textLength="66" x="237" y="367.9951">AMQP API</text><!--MD5=[6c47b63cf1ccf71776fb2fb1146b89bd]
link POSTG_API to POSTG--><path d="M122,347.27 C122,363.96 122,402.16 122,426.71 " fill="none" id="POSTG_API-POSTG" style="stroke:#383838;stroke-width:1.0;"/><!--MD5=[144eb759bece83ea8e8de5d37013052c]
link AMQP_API to AMQP--><path d="M270,347.27 C270,363.96 270,402.16 270,426.71 " fill="none" id="AMQP_API-AMQP" style="stroke:#383838;stroke-width:1.0;"/><!--MD5=[9bc3545913d2ece8bc1c8e2c39a9583d]
link APP_API to APP--><path d="M196,571.27 C196,587.96 196,626.16 196,650.71 " fill="none" id="APP_API-APP" style="stroke:#383838;stroke-width:1.0;"/><!--MD5=[960e631b20e6d0a5a1769365a28f267a]
link BOOT_API to BOOT--><path d="M196,123.27 C196,139.96 196,178.16 196,202.71 " fill="none" id="BOOT_API-BOOT" style="stroke:#383838;stroke-width:1.0;"/><!--MD5=[50ee9e5020b7eeb8cea5a65291237e8d]
link AMQP to APP_API--><path d="M255.02,473.26 C240.86,494.31 219.93,525.43 207.17,544.39 " fill="none" id="AMQP-to-APP_API" style="stroke:#383838;stroke-width:1.0;"/><path d="M210.2132,555.0351 A9,9 0 0 0 196.1881 545.5802" style="stroke:#383838;stroke-width:1.5;fill:none;"/><!--MD5=[73b303eb9ebb19ea357ec4272966f8d5]
link POSTG to APP_API--><path d="M136.98,473.26 C151.14,494.31 172.07,525.43 184.83,544.39 " fill="none" id="POSTG-to-APP_API" style="stroke:#383838;stroke-width:1.0;"/><path d="M195.8119,545.5802 A9,9 0 0 0 181.7868 555.0351" style="stroke:#383838;stroke-width:1.5;fill:none;"/><!--MD5=[4379324cd2c7c1b2cbe82266d6d3e2c8]
link BOOT to POSTG_API--><path d="M181.02,249.26 C166.86,270.31 145.93,301.43 133.17,320.39 " fill="none" id="BOOT-to-POSTG_API" style="stroke:#383838;stroke-width:1.0;"/><path d="M136.2132,331.0351 A9,9 0 0 0 122.1881 321.5802" style="stroke:#383838;stroke-width:1.5;fill:none;"/><!--MD5=[825637d1efb63c5c00802efb716c3c83]
link BOOT to AMQP_API--><path d="M210.98,249.26 C225.14,270.31 246.07,301.43 258.83,320.39 " fill="none" id="BOOT-to-AMQP_API" style="stroke:#383838;stroke-width:1.0;"/><path d="M269.8119,321.5802 A9,9 0 0 0 255.7868 331.0351" style="stroke:#383838;stroke-width:1.5;fill:none;"/><!--MD5=[ec743441dfc64682e3c2161083e1a7b5]
@startuml logical-view-level3-data-store

skinparam Monochrome true

component "Data Store" {
    component "Application" as APP
    component "Infrastructure" as INFRA {
        component "Boot" as BOOT
        component "Presistence" as PERSIST {
            component "Postgres" as POSTG
            interface "Postgres API" as POSTG_API
        }
        component "Endpoint" as ENDPOINT {
            component "AMQP" as AMQP
            interface "AMQP API" as AMQP_API
        }
        interface "Boot API" as BOOT_API
    }

    interface "Application API" as APP_API

    POSTG_API - - POSTG
    AMQP_API - - AMQP
    APP_API - - APP
    BOOT_API - - BOOT

    AMQP - -( APP_API
    POSTG - -( APP_API
    BOOT - -( POSTG_API
    BOOT - -( AMQP_API
}

@enduml

PlantUML version 1.2021.9(Sun Jul 25 11:13:56 WEST 2021)
(GPL source distribution)
Java Runtime: OpenJDK Runtime Environment
JVM: OpenJDK 64-Bit Server VM
Default Encoding: UTF-8
Language: en
Country: GB
--></g></svg>