<?xml version="1.0" encoding="UTF-8" standalone="no"?><svg xmlns="http://www.w3.org/2000/svg" xmlns:xlink="http://www.w3.org/1999/xlink" contentScriptType="application/ecmascript" contentStyleType="text/css" height="858px" preserveAspectRatio="none" style="width:629px;height:858px;background:#FFFFFF;" version="1.1" viewBox="0 0 629 858" width="629px" zoomAndPan="magnify"><defs><filter height="300%" id="fokes2s9s1gpq" width="300%" x="-1" y="-1"><feGaussianBlur result="blurOut" stdDeviation="2.0"/><feColorMatrix in="blurOut" result="blurOut2" type="matrix" values="0 0 0 0 0 0 0 0 0 0 0 0 0 0 0 0 0 0 .4 0"/><feOffset dx="4.0" dy="4.0" in="blurOut2" result="blurOut3"/><feBlend in="SourceGraphic" in2="blurOut3" mode="normal"/></filter></defs><g><!--MD5=[3772a163e1fb8811b2f01830b737f659]
cluster LGT 92 GPS Sensor Processor--><rect fill="#FFFFFF" filter="url(#fokes2s9s1gpq)" height="837" style="stroke:#000000;stroke-width:1.5;" width="608" x="7" y="7"/><rect fill="#FFFFFF" height="10" style="stroke:#000000;stroke-width:1.5;" width="15" x="595" y="12"/><rect fill="#FFFFFF" height="2" style="stroke:#000000;stroke-width:1.5;" width="4" x="593" y="14"/><rect fill="#FFFFFF" height="2" style="stroke:#000000;stroke-width:1.5;" width="4" x="593" y="18"/><text fill="#000000" font-family="sans-serif" font-size="14" font-weight="bold" lengthAdjust="spacing" textLength="240" x="191" y="32.9951">LGT 92 GPS Sensor Processor</text><!--MD5=[70becb833e031d8ab2b25bb6fd041c2b]
cluster INFRA--><rect fill="#FFFFFF" filter="url(#fokes2s9s1gpq)" height="716" style="stroke:#000000;stroke-width:1.5;" width="436" x="31" y="50"/><rect fill="#FFFFFF" height="10" style="stroke:#000000;stroke-width:1.5;" width="15" x="447" y="55"/><rect fill="#FFFFFF" height="2" style="stroke:#000000;stroke-width:1.5;" width="4" x="445" y="57"/><rect fill="#FFFFFF" height="2" style="stroke:#000000;stroke-width:1.5;" width="4" x="445" y="61"/><text fill="#000000" font-family="sans-serif" font-size="14" font-weight="bold" lengthAdjust="spacing" textLength="110" x="194" y="75.9951">Infrastructure</text><!--MD5=[e827ccb1cbd1809ec2e49ef4b2081f6a]
cluster ENDPOINT--><rect fill="#FFFFFF" filter="url(#fokes2s9s1gpq)" height="237" style="stroke:#000000;stroke-width:1.5;" width="372" x="63" y="497"/><rect fill="#FFFFFF" height="10" style="stroke:#000000;stroke-width:1.5;" width="15" x="415" y="502"/><rect fill="#FFFFFF" height="2" style="stroke:#000000;stroke-width:1.5;" width="4" x="413" y="504"/><rect fill="#FFFFFF" height="2" style="stroke:#000000;stroke-width:1.5;" width="4" x="413" y="508"/><text fill="#000000" font-family="sans-serif" font-size="14" font-weight="bold" lengthAdjust="spacing" textLength="69" x="214.5" y="522.9951">Endpoint</text><!--MD5=[cd187d11655e4367e900de538d2f1d0c]
entity APP--><rect fill="#F8F8F8" filter="url(#fokes2s9s1gpq)" height="46.2969" style="stroke:#383838;stroke-width:1.5;" width="115" x="483.5" y="782"/><rect fill="#F8F8F8" height="10" style="stroke:#383838;stroke-width:1.5;" width="15" x="578.5" y="787"/><rect fill="#F8F8F8" height="2" style="stroke:#383838;stroke-width:1.5;" width="4" x="576.5" y="789"/><rect fill="#F8F8F8" height="2" style="stroke:#383838;stroke-width:1.5;" width="4" x="576.5" y="793"/><text fill="#000000" font-family="sans-serif" font-size="14" lengthAdjust="spacing" textLength="75" x="498.5" y="814.9951">Application</text><!--MD5=[30d85f3125b7a53865e5f4719123efb6]
entity APP_API--><ellipse cx="541" cy="687" fill="#F8F8F8" filter="url(#fokes2s9s1gpq)" rx="8" ry="8" style="stroke:#383838;stroke-width:1.5;"/><text fill="#000000" font-family="sans-serif" font-size="14" lengthAdjust="spacing" textLength="100" x="491" y="716.9951">Application API</text><!--MD5=[50c35d0a5350f8e8f48a6d3669f54f50]
entity BOOT--><rect fill="#F8F8F8" filter="url(#fokes2s9s1gpq)" height="46.2969" style="stroke:#383838;stroke-width:1.5;" width="73" x="203.5" y="203"/><rect fill="#F8F8F8" height="10" style="stroke:#383838;stroke-width:1.5;" width="15" x="256.5" y="208"/><rect fill="#F8F8F8" height="2" style="stroke:#383838;stroke-width:1.5;" width="4" x="254.5" y="210"/><rect fill="#F8F8F8" height="2" style="stroke:#383838;stroke-width:1.5;" width="4" x="254.5" y="214"/><text fill="#000000" font-family="sans-serif" font-size="14" lengthAdjust="spacing" textLength="33" x="218.5" y="235.9951">Boot</text><!--MD5=[becb97998b7b4af08e2de339e4eb8c19]
entity MAP--><rect fill="#F8F8F8" filter="url(#fokes2s9s1gpq)" height="46.2969" style="stroke:#383838;stroke-width:1.5;" width="92" x="194" y="427"/><rect fill="#F8F8F8" height="10" style="stroke:#383838;stroke-width:1.5;" width="15" x="266" y="432"/><rect fill="#F8F8F8" height="2" style="stroke:#383838;stroke-width:1.5;" width="4" x="264" y="434"/><rect fill="#F8F8F8" height="2" style="stroke:#383838;stroke-width:1.5;" width="4" x="264" y="438"/><text fill="#000000" font-family="sans-serif" font-size="14" lengthAdjust="spacing" textLength="52" x="209" y="459.9951">Mapper</text><!--MD5=[44f07762fab2e804df8e0636e93cffbe]
entity BOOT_API--><ellipse cx="240" cy="114" fill="#F8F8F8" filter="url(#fokes2s9s1gpq)" rx="8" ry="8" style="stroke:#383838;stroke-width:1.5;"/><text fill="#000000" font-family="sans-serif" font-size="14" lengthAdjust="spacing" textLength="58" x="211" y="143.9951">Boot API</text><!--MD5=[38a9b1639d19c51278eb97e5a118e1f1]
entity MAP_API--><ellipse cx="240" cy="338" fill="#F8F8F8" filter="url(#fokes2s9s1gpq)" rx="8" ry="8" style="stroke:#383838;stroke-width:1.5;"/><text fill="#000000" font-family="sans-serif" font-size="14" lengthAdjust="spacing" textLength="77" x="201.5" y="367.9951">Mapper API</text><!--MD5=[c01cbe8a412be218debd57fa8df8abed]
entity EGRESS--><rect fill="#F8F8F8" filter="url(#fokes2s9s1gpq)" height="46.2969" style="stroke:#383838;stroke-width:1.5;" width="133" x="258.5" y="664"/><rect fill="#F8F8F8" height="10" style="stroke:#383838;stroke-width:1.5;" width="15" x="371.5" y="669"/><rect fill="#F8F8F8" height="2" style="stroke:#383838;stroke-width:1.5;" width="4" x="369.5" y="671"/><rect fill="#F8F8F8" height="2" style="stroke:#383838;stroke-width:1.5;" width="4" x="369.5" y="675"/><text fill="#000000" font-family="sans-serif" font-size="14" lengthAdjust="spacing" textLength="93" x="273.5" y="696.9951">AMQP Egress</text><!--MD5=[97c2cc28f62fbe16a090dcbe5e30d27b]
entity INGRESS--><rect fill="#F8F8F8" filter="url(#fokes2s9s1gpq)" height="46.2969" style="stroke:#383838;stroke-width:1.5;" width="136" x="87" y="664"/><rect fill="#F8F8F8" height="10" style="stroke:#383838;stroke-width:1.5;" width="15" x="203" y="669"/><rect fill="#F8F8F8" height="2" style="stroke:#383838;stroke-width:1.5;" width="4" x="201" y="671"/><rect fill="#F8F8F8" height="2" style="stroke:#383838;stroke-width:1.5;" width="4" x="201" y="675"/><text fill="#000000" font-family="sans-serif" font-size="14" lengthAdjust="spacing" textLength="96" x="102" y="696.9951">AMQP Ingress</text><!--MD5=[72db9eea1d2bf2ff908159e31b503589]
entity EGRESS_API--><ellipse cx="325" cy="569" fill="#F8F8F8" filter="url(#fokes2s9s1gpq)" rx="8" ry="8" style="stroke:#383838;stroke-width:1.5;"/><text fill="#000000" font-family="sans-serif" font-size="14" lengthAdjust="spacing" textLength="118" x="266" y="598.9951">AMQP Egress API</text><!--MD5=[7c09cc5e2fc5888767c10a541b3b1d17]
entity INGRESS_API--><ellipse cx="155" cy="569" fill="#F8F8F8" filter="url(#fokes2s9s1gpq)" rx="8" ry="8" style="stroke:#383838;stroke-width:1.5;"/><text fill="#000000" font-family="sans-serif" font-size="14" lengthAdjust="spacing" textLength="121" x="94.5" y="598.9951">AMQP Ingress API</text><!--MD5=[b4a61ba3a97355d6345cdf1acd7a7817]
link EGRESS_API to EGRESS--><path d="M325,578.34 C325,596.01 325,637.68 325,663.69 " fill="none" id="EGRESS_API-EGRESS" style="stroke:#383838;stroke-width:1.0;"/><!--MD5=[530304c66b8acc68ed58d4341088d695]
link INGRESS_API to INGRESS--><path d="M155,578.34 C155,596.01 155,637.68 155,663.69 " fill="none" id="INGRESS_API-INGRESS" style="stroke:#383838;stroke-width:1.0;"/><!--MD5=[9bc3545913d2ece8bc1c8e2c39a9583d]
link APP_API to APP--><path d="M541,696.34 C541,714.01 541,755.68 541,781.69 " fill="none" id="APP_API-APP" style="stroke:#383838;stroke-width:1.0;"/><!--MD5=[960e631b20e6d0a5a1769365a28f267a]
link BOOT_API to BOOT--><path d="M240,123.27 C240,139.96 240,178.16 240,202.71 " fill="none" id="BOOT_API-BOOT" style="stroke:#383838;stroke-width:1.0;"/><!--MD5=[f9ccec574c9d7d912a785d7186889d54]
link MAP_API to MAP--><path d="M240,347.27 C240,363.96 240,402.16 240,426.71 " fill="none" id="MAP_API-MAP" style="stroke:#383838;stroke-width:1.0;"/><!--MD5=[4650e1908a5caa745e5a54df07a9a97d]
link ENDPOINT to APP_API--><path d="M435.1125,578.2549 C435.2962,578.4419 435.4826,578.6316 435.6717,578.824 C436.0497,579.2087 436.4383,579.6041 436.837,580.0098 C437.6345,580.8213 438.4724,581.6741 439.348,582.565 C446.3522,589.6925 455.7594,599.265 466.0338,609.72 C486.5825,630.63 510.6,655.07 525.8,670.54 " fill="none" id="ENDPOINT-to-APP_API" style="stroke:#383838;stroke-width:1.0;"/><path d="M536.9258,669.7821 A9,9 0 0 0 524.8452 681.621" style="stroke:#383838;stroke-width:1.5;fill:none;"/><!--MD5=[c1fdcd8f0e4ff6b26c65440c57031de4]
link MAP to EGRESS_API--><path d="M255.99,473.01 C272.59,495.85 298.17,531.06 313.08,551.59 " fill="none" id="MAP-to-EGRESS_API" style="stroke:#383838;stroke-width:1.0;"/><path d="M324.1447,552.43 A9,9 0 0 0 310.458 562.3685" style="stroke:#383838;stroke-width:1.5;fill:none;"/><!--MD5=[98b043e6e82519270d1a7aac3c04a82f]
link MAP to INGRESS_API--><path d="M224.01,473.01 C207.41,495.85 181.83,531.06 166.92,551.59 " fill="none" id="MAP-to-INGRESS_API" style="stroke:#383838;stroke-width:1.0;"/><path d="M169.542,562.3685 A9,9 0 0 0 155.8553 552.43" style="stroke:#383838;stroke-width:1.5;fill:none;"/><!--MD5=[5d9a2f651ca28f65d24b6769c535d032]
link BOOT to MAP_API--><path d="M240,249.26 C240,269.74 240,299.73 240,318.81 " fill="none" id="BOOT-to-MAP_API" style="stroke:#383838;stroke-width:1.0;"/><path d="M248.4572,325.7818 A9,9 0 0 0 231.5428 325.7818" style="stroke:#383838;stroke-width:1.5;fill:none;"/><!--MD5=[07c4141be32ee06f2f42867778b7de09]
@startuml logical-view-level3-lgt-92-gps-sensor-processor

skinparam Monochrome true

component "LGT 92 GPS Sensor Processor" {
    component "Application" as APP
    component "Infrastructure" as INFRA {
        component "Boot" as BOOT
        component "Mapper" as MAP
        component "Endpoint" as ENDPOINT {
            component "AMQP Egress" as EGRESS
            component "AMQP Ingress" as INGRESS
            interface "AMQP Egress API" as EGRESS_API
            interface "AMQP Ingress API" as INGRESS_API
        }
        interface "Boot API" as BOOT_API
        interface "Mapper API" as MAP_API
    }

    interface "Application API" as APP_API

    EGRESS_API - - EGRESS
    INGRESS_API - - INGRESS

    APP_API - - APP
    BOOT_API - - BOOT
    MAP_API - - MAP

    ENDPOINT - -( APP_API

    MAP - -( EGRESS_API
    MAP - -( INGRESS_API

    BOOT - -( MAP_API
}

@enduml

PlantUML version 1.2021.9(Sun Jul 25 11:13:56 WEST 2021)
(GPL source distribution)
Java Runtime: OpenJDK Runtime Environment
JVM: OpenJDK 64-Bit Server VM
Default Encoding: UTF-8
Language: en
Country: GB
--></g></svg>