<?xml version="1.0" encoding="UTF-8" standalone="no"?><svg xmlns="http://www.w3.org/2000/svg" xmlns:xlink="http://www.w3.org/1999/xlink" contentScriptType="application/ecmascript" contentStyleType="text/css" height="655px" preserveAspectRatio="none" style="width:530px;height:655px;background:#FFFFFF;" version="1.1" viewBox="0 0 530 655" width="530px" zoomAndPan="magnify"><defs><filter height="300%" id="fzdtb0yvoatqq" width="300%" x="-1" y="-1"><feGaussianBlur result="blurOut" stdDeviation="2.0"/><feColorMatrix in="blurOut" result="blurOut2" type="matrix" values="0 0 0 0 0 0 0 0 0 0 0 0 0 0 0 0 0 0 .4 0"/><feOffset dx="4.0" dy="4.0" in="blurOut2" result="blurOut3"/><feBlend in="SourceGraphic" in2="blurOut3" mode="normal"/></filter></defs><g><!--MD5=[81cd5702733e27fcf5b24c471b1c69ff]
cluster Location Tracking Backend--><rect fill="#FFFFFF" filter="url(#fzdtb0yvoatqq)" height="634" style="stroke:#000000;stroke-width:1.5;" width="509" x="7" y="7"/><rect fill="#FFFFFF" height="10" style="stroke:#000000;stroke-width:1.5;" width="15" x="496" y="12"/><rect fill="#FFFFFF" height="2" style="stroke:#000000;stroke-width:1.5;" width="4" x="494" y="14"/><rect fill="#FFFFFF" height="2" style="stroke:#000000;stroke-width:1.5;" width="4" x="494" y="18"/><text fill="#000000" font-family="sans-serif" font-size="14" font-weight="bold" lengthAdjust="spacing" textLength="212" x="155.5" y="32.9951">Location Tracking Backend</text><!--MD5=[fb9ccc1243333cb7b4e4755ff5f6d2f9]
cluster IF--><rect fill="#FFFFFF" filter="url(#fzdtb0yvoatqq)" height="497" style="stroke:#000000;stroke-width:1.5;" width="321" x="39" y="58"/><rect fill="#FFFFFF" height="10" style="stroke:#000000;stroke-width:1.5;" width="15" x="340" y="63"/><rect fill="#FFFFFF" height="2" style="stroke:#000000;stroke-width:1.5;" width="4" x="338" y="65"/><rect fill="#FFFFFF" height="2" style="stroke:#000000;stroke-width:1.5;" width="4" x="338" y="69"/><text fill="#000000" font-family="sans-serif" font-size="14" font-weight="bold" lengthAdjust="spacing" textLength="110" x="144.5" y="83.9951">Infrastructure</text><!--MD5=[d83f6433aa5c63d05e28e5571aae20c0]
cluster EP--><rect fill="#FFFFFF" filter="url(#fzdtb0yvoatqq)" height="97" style="stroke:#000000;stroke-width:1.5;" width="249" x="71" y="426"/><rect fill="#FFFFFF" height="10" style="stroke:#000000;stroke-width:1.5;" width="15" x="300" y="431"/><rect fill="#FFFFFF" height="2" style="stroke:#000000;stroke-width:1.5;" width="4" x="298" y="433"/><rect fill="#FFFFFF" height="2" style="stroke:#000000;stroke-width:1.5;" width="4" x="298" y="437"/><text fill="#000000" font-family="sans-serif" font-size="14" font-weight="bold" lengthAdjust="spacing" textLength="69" x="161" y="451.9951">Endpoint</text><!--MD5=[118f42602524ad482f02b27ef22fc383]
entity D--><rect fill="#F8F8F8" filter="url(#fzdtb0yvoatqq)" height="46.2969" style="stroke:#383838;stroke-width:1.5;" width="93" x="395.5" y="579"/><rect fill="#F8F8F8" height="10" style="stroke:#383838;stroke-width:1.5;" width="15" x="468.5" y="584"/><rect fill="#F8F8F8" height="2" style="stroke:#383838;stroke-width:1.5;" width="4" x="466.5" y="586"/><rect fill="#F8F8F8" height="2" style="stroke:#383838;stroke-width:1.5;" width="4" x="466.5" y="590"/><text fill="#000000" font-family="sans-serif" font-size="14" lengthAdjust="spacing" textLength="53" x="410.5" y="611.9951">Domain</text><!--MD5=[d4469e01bb159a355c3045b8c3b4a047]
entity As--><rect fill="#F8F8F8" filter="url(#fzdtb0yvoatqq)" height="46.2969" style="stroke:#383838;stroke-width:1.5;" width="115" x="384.5" y="343"/><rect fill="#F8F8F8" height="10" style="stroke:#383838;stroke-width:1.5;" width="15" x="479.5" y="348"/><rect fill="#F8F8F8" height="2" style="stroke:#383838;stroke-width:1.5;" width="4" x="477.5" y="350"/><rect fill="#F8F8F8" height="2" style="stroke:#383838;stroke-width:1.5;" width="4" x="477.5" y="354"/><text fill="#000000" font-family="sans-serif" font-size="14" lengthAdjust="spacing" textLength="75" x="399.5" y="375.9951">Application</text><!--MD5=[01d86691a52ead1037f1d3f746ab1d64]
entity DAPI--><ellipse cx="442" cy="484" fill="#F8F8F8" filter="url(#fzdtb0yvoatqq)" rx="8" ry="8" style="stroke:#383838;stroke-width:1.5;"/><text fill="#000000" font-family="sans-serif" font-size="14" lengthAdjust="spacing" textLength="78" x="403" y="513.9951">Domain API</text><!--MD5=[9182b5a462f2451f540319fb49644773]
entity AsAPI--><ellipse cx="442" cy="248" fill="#F8F8F8" filter="url(#fzdtb0yvoatqq)" rx="8" ry="8" style="stroke:#383838;stroke-width:1.5;"/><text fill="#000000" font-family="sans-serif" font-size="14" lengthAdjust="spacing" textLength="100" x="392" y="277.9951">Application API</text><!--MD5=[aeb3e8cfcd78f1a8162b65b58f1aa554]
entity Bt--><rect fill="#F8F8F8" filter="url(#fzdtb0yvoatqq)" height="46.2969" style="stroke:#383838;stroke-width:1.5;" width="73" x="163.5" y="225"/><rect fill="#F8F8F8" height="10" style="stroke:#383838;stroke-width:1.5;" width="15" x="216.5" y="230"/><rect fill="#F8F8F8" height="2" style="stroke:#383838;stroke-width:1.5;" width="4" x="214.5" y="232"/><rect fill="#F8F8F8" height="2" style="stroke:#383838;stroke-width:1.5;" width="4" x="214.5" y="236"/><text fill="#000000" font-family="sans-serif" font-size="14" lengthAdjust="spacing" textLength="33" x="178.5" y="257.9951">Boot</text><!--MD5=[9b766ef27d715c379fb7a5f128b42b8a]
entity BtAPI--><ellipse cx="200" cy="130" fill="#F8F8F8" filter="url(#fzdtb0yvoatqq)" rx="8" ry="8" style="stroke:#383838;stroke-width:1.5;"/><text fill="#000000" font-family="sans-serif" font-size="14" lengthAdjust="spacing" textLength="58" x="171" y="159.9951">Boot API</text><!--MD5=[946e3b5715b9b2543f1af30f8c08f5ed]
entity RWSAPI--><ellipse cx="137" cy="366" fill="#F8F8F8" filter="url(#fzdtb0yvoatqq)" rx="8" ry="8" style="stroke:#383838;stroke-width:1.5;"/><text fill="#000000" font-family="sans-serif" font-size="14" lengthAdjust="spacing" textLength="85" x="94.5" y="395.9951">GraphQL API</text><!--MD5=[cddc973f3bf08fe792fbf887d6135725]
entity ELAPI--><ellipse cx="263" cy="366" fill="#F8F8F8" filter="url(#fzdtb0yvoatqq)" rx="8" ry="8" style="stroke:#383838;stroke-width:1.5;"/><text fill="#000000" font-family="sans-serif" font-size="14" lengthAdjust="spacing" textLength="66" x="230" y="395.9951">AMQP API</text><!--MD5=[10dc4799a0fb5de45b360b77fa2c81d8]
entity RWS--><rect fill="#F8F8F8" filter="url(#fzdtb0yvoatqq)" height="46.2969" style="stroke:#383838;stroke-width:1.5;" width="100" x="87" y="461"/><rect fill="#F8F8F8" height="10" style="stroke:#383838;stroke-width:1.5;" width="15" x="167" y="466"/><rect fill="#F8F8F8" height="2" style="stroke:#383838;stroke-width:1.5;" width="4" x="165" y="468"/><rect fill="#F8F8F8" height="2" style="stroke:#383838;stroke-width:1.5;" width="4" x="165" y="472"/><text fill="#000000" font-family="sans-serif" font-size="14" lengthAdjust="spacing" textLength="60" x="102" y="493.9951">GraphQL</text><!--MD5=[c37df8c2fa1b5f86dd58dff9a3868e14]
entity EL--><rect fill="#F8F8F8" filter="url(#fzdtb0yvoatqq)" height="46.2969" style="stroke:#383838;stroke-width:1.5;" width="81" x="222.5" y="461"/><rect fill="#F8F8F8" height="10" style="stroke:#383838;stroke-width:1.5;" width="15" x="283.5" y="466"/><rect fill="#F8F8F8" height="2" style="stroke:#383838;stroke-width:1.5;" width="4" x="281.5" y="468"/><rect fill="#F8F8F8" height="2" style="stroke:#383838;stroke-width:1.5;" width="4" x="281.5" y="472"/><text fill="#000000" font-family="sans-serif" font-size="14" lengthAdjust="spacing" textLength="41" x="237.5" y="493.9951">AMQP</text><!--MD5=[9aae2f97585375a26bc933ddb227923f]
link DAPI to D--><path d="M442,493.34 C442,511.01 442,552.68 442,578.69 " fill="none" id="DAPI-D" style="stroke:#383838;stroke-width:1.0;"/><!--MD5=[caaebc9ea89b66d02c393f6373e56656]
link AsAPI to As--><path d="M442,257.34 C442,275.01 442,316.68 442,342.69 " fill="none" id="AsAPI-As" style="stroke:#383838;stroke-width:1.0;"/><!--MD5=[f1aa27e20bc66ae23a267f4fff81a942]
link BtAPI to Bt--><path d="M200,139.34 C200,157.01 200,198.68 200,224.69 " fill="none" id="BtAPI-Bt" style="stroke:#383838;stroke-width:1.0;"/><!--MD5=[c89595b0fe1bb7c51f2eeb412d3788b0]
link ELAPI to EL--><path d="M263,375.34 C263,393.01 263,434.68 263,460.69 " fill="none" id="ELAPI-EL" style="stroke:#383838;stroke-width:1.0;"/><!--MD5=[6b5cd55da08e514f10882af051c47013]
link RWSAPI to RWS--><path d="M137,375.34 C137,393.01 137,434.68 137,460.69 " fill="none" id="RWSAPI-RWS" style="stroke:#383838;stroke-width:1.0;"/><!--MD5=[bde86164883d593f37701ac200a66998]
link As to DAPI--><path d="M442,389.09 C442,411.06 442,444.37 442,464.85 " fill="none" id="As-to-DAPI" style="stroke:#383838;stroke-width:1.0;"/><path d="M450.4572,471.9218 A9,9 0 0 0 433.5428 471.9218" style="stroke:#383838;stroke-width:1.5;fill:none;"/><!--MD5=[ba0d478c96b63a51a20454758911ab2f]
link IF to AsAPI--><path d="M360.1291,141.4729 C360.2881,141.6779 360.4491,141.8853 360.6119,142.0952 C360.9375,142.5151 361.2708,142.9447 361.6114,143.3838 C367.0609,150.4088 374.3856,159.85 382.4038,170.185 C398.44,190.855 417.25,215.1 429.38,230.74 " fill="none" id="IF-to-AsAPI" style="stroke:#383838;stroke-width:1.0;"/><path d="M440.5069,231.2786 A9,9 0 0 0 427.1541 241.6614" style="stroke:#383838;stroke-width:1.5;fill:none;"/><!--MD5=[ff02269a011f179f1377e8c184797a91]
link Bt to RWSAPI--><path d="M188,271.09 C175.85,293.47 157.3,327.62 146.24,347.98 " fill="none" id="Bt-to-RWSAPI" style="stroke:#383838;stroke-width:1.0;"/><path d="M150.251,358.3312 A9,9 0 0 0 135.3871 350.2588" style="stroke:#383838;stroke-width:1.5;fill:none;"/><!--MD5=[897681b7c87860bb310104ca0458cc0f]
link Bt to ELAPI--><path d="M212,271.09 C224.15,293.47 242.7,327.62 253.76,347.98 " fill="none" id="Bt-to-ELAPI" style="stroke:#383838;stroke-width:1.0;"/><path d="M264.6129,350.2588 A9,9 0 0 0 249.749 358.3312" style="stroke:#383838;stroke-width:1.5;fill:none;"/><!--MD5=[e3e4a7667f136b1d1527a887d529fde5]
@startuml logical-view-level3-location-tracking-backend

skinparam Monochrome true

component "Location Tracking Backend" {
    component "Domain" as D
    component "Application" as As
    component "Infrastructure" as IF {
        component "Boot" as Bt
        component "Endpoint" as EP {
            component "GraphQL" as RWS
            component "AMQP" as EL
        }
        () "Boot API" as BtAPI
        () "GraphQL API" as RWSAPI
        () "AMQP API" as ELAPI
    }

    () "Domain API" as DAPI
    () "Application API" as AsAPI

    DAPI - - D
    AsAPI - - As
    BtAPI - - Bt
    ELAPI - - EL
    RWSAPI - - RWS

    As - -( DAPI
    IF - -( AsAPI
    Bt - -( RWSAPI
    Bt - -( ELAPI
}

@enduml

PlantUML version 1.2021.9(Sun Jul 25 11:13:56 WEST 2021)
(GPL source distribution)
Java Runtime: OpenJDK Runtime Environment
JVM: OpenJDK 64-Bit Server VM
Default Encoding: UTF-8
Language: en
Country: GB
--></g></svg>