<?xml version="1.0" encoding="UTF-8" standalone="no"?><svg xmlns="http://www.w3.org/2000/svg" xmlns:xlink="http://www.w3.org/1999/xlink" contentScriptType="application/ecmascript" contentStyleType="text/css" height="741px" preserveAspectRatio="none" style="width:1110px;height:741px;background:#FFFFFF;" version="1.1" viewBox="0 0 1110 741" width="1110px" zoomAndPan="magnify"><defs/><g><!--MD5=[85f6e7297d1ad81d8c1382e17d44cf2c]
cluster Environment--><rect fill="#FFFFFF" height="676" style="stroke:#000000;stroke-width:1.5;" width="1040" x="7" y="59"/><rect fill="#FFFFFF" height="10" style="stroke:#000000;stroke-width:1.5;" width="15" x="1027" y="64"/><rect fill="#FFFFFF" height="2" style="stroke:#000000;stroke-width:1.5;" width="4" x="1025" y="66"/><rect fill="#FFFFFF" height="2" style="stroke:#000000;stroke-width:1.5;" width="4" x="1025" y="70"/><text fill="#000000" font-family="sans-serif" font-size="14" font-style="italic" lengthAdjust="spacing" textLength="69" x="492.5" y="84.9951">«System»</text><text fill="#000000" font-family="sans-serif" font-size="14" font-weight="bold" lengthAdjust="spacing" textLength="99" x="477.5" y="101.292">Environment</text><!--MD5=[2c8bfc6f691a2260a342f8a3a45a5f4e]
entity MB--><rect fill="#F8F8F8" height="62.5938" style="stroke:#383838;stroke-width:1.5;" width="153" x="344.5" y="656"/><rect fill="#F8F8F8" height="10" style="stroke:#383838;stroke-width:1.5;" width="15" x="477.5" y="661"/><rect fill="#F8F8F8" height="2" style="stroke:#383838;stroke-width:1.5;" width="4" x="475.5" y="663"/><rect fill="#F8F8F8" height="2" style="stroke:#383838;stroke-width:1.5;" width="4" x="475.5" y="667"/><text fill="#000000" font-family="sans-serif" font-size="14" font-style="italic" lengthAdjust="spacing" textLength="85" x="373.5" y="688.9951">«Container»</text><text fill="#000000" font-family="sans-serif" font-size="14" lengthAdjust="spacing" textLength="113" x="359.5" y="705.292">Message Broker</text><!--MD5=[07f1f74cdc79fa2fd2740ec7d7a64eca]
entity LTB--><rect fill="#F8F8F8" height="62.5938" style="stroke:#383838;stroke-width:1.5;" width="226" x="308" y="383"/><rect fill="#F8F8F8" height="10" style="stroke:#383838;stroke-width:1.5;" width="15" x="514" y="388"/><rect fill="#F8F8F8" height="2" style="stroke:#383838;stroke-width:1.5;" width="4" x="512" y="390"/><rect fill="#F8F8F8" height="2" style="stroke:#383838;stroke-width:1.5;" width="4" x="512" y="394"/><text fill="#000000" font-family="sans-serif" font-size="14" font-style="italic" lengthAdjust="spacing" textLength="85" x="373.5" y="415.9951">«Container»</text><text fill="#000000" font-family="sans-serif" font-size="14" lengthAdjust="spacing" textLength="186" x="323" y="432.292">Location Tracking Backend</text><!--MD5=[838a8f8ee09da76e2984218500383e54]
entity LTF--><rect fill="#F8F8F8" height="62.5938" style="stroke:#383838;stroke-width:1.5;" width="228" x="307" y="110"/><rect fill="#F8F8F8" height="10" style="stroke:#383838;stroke-width:1.5;" width="15" x="515" y="115"/><rect fill="#F8F8F8" height="2" style="stroke:#383838;stroke-width:1.5;" width="4" x="513" y="117"/><rect fill="#F8F8F8" height="2" style="stroke:#383838;stroke-width:1.5;" width="4" x="513" y="121"/><text fill="#000000" font-family="sans-serif" font-size="14" font-style="italic" lengthAdjust="spacing" textLength="85" x="373.5" y="142.9951">«Container»</text><text fill="#000000" font-family="sans-serif" font-size="14" lengthAdjust="spacing" textLength="188" x="322" y="159.292">Location Tracking Frontend</text><!--MD5=[72c6d9e59178f7c2c8669ecc4d80f856]
entity LGT92GPSP--><rect fill="#F8F8F8" height="62.5938" style="stroke:#383838;stroke-width:1.5;" width="249" x="23.5" y="383"/><rect fill="#F8F8F8" height="10" style="stroke:#383838;stroke-width:1.5;" width="15" x="252.5" y="388"/><rect fill="#F8F8F8" height="2" style="stroke:#383838;stroke-width:1.5;" width="4" x="250.5" y="390"/><rect fill="#F8F8F8" height="2" style="stroke:#383838;stroke-width:1.5;" width="4" x="250.5" y="394"/><text fill="#000000" font-family="sans-serif" font-size="14" font-style="italic" lengthAdjust="spacing" textLength="85" x="100.5" y="415.9951">«Container»</text><text fill="#000000" font-family="sans-serif" font-size="14" lengthAdjust="spacing" textLength="209" x="38.5" y="432.292">LGT 92 GPS Sensor Processor</text><!--MD5=[f29cc1d3e5c09383ffc981bef527a084]
entity LGT92GPSG--><rect fill="#F8F8F8" height="62.5938" style="stroke:#383838;stroke-width:1.5;" width="238" x="569" y="383"/><rect fill="#F8F8F8" height="10" style="stroke:#383838;stroke-width:1.5;" width="15" x="787" y="388"/><rect fill="#F8F8F8" height="2" style="stroke:#383838;stroke-width:1.5;" width="4" x="785" y="390"/><rect fill="#F8F8F8" height="2" style="stroke:#383838;stroke-width:1.5;" width="4" x="785" y="394"/><text fill="#000000" font-family="sans-serif" font-size="14" font-style="italic" lengthAdjust="spacing" textLength="85" x="640.5" y="415.9951">«Container»</text><text fill="#000000" font-family="sans-serif" font-size="14" lengthAdjust="spacing" textLength="198" x="584" y="432.292">LGT 92 GPS Sensor Gateway</text><!--MD5=[3f8077c99ae31066b88b1200bd4ca619]
entity DG--><rect fill="#F8F8F8" height="62.5938" style="stroke:#383838;stroke-width:1.5;" width="135" x="895.5" y="383"/><rect fill="#F8F8F8" height="10" style="stroke:#383838;stroke-width:1.5;" width="15" x="1010.5" y="388"/><rect fill="#F8F8F8" height="2" style="stroke:#383838;stroke-width:1.5;" width="4" x="1008.5" y="390"/><rect fill="#F8F8F8" height="2" style="stroke:#383838;stroke-width:1.5;" width="4" x="1008.5" y="394"/><text fill="#000000" font-family="sans-serif" font-size="14" font-style="italic" lengthAdjust="spacing" textLength="85" x="915.5" y="415.9951">«Container»</text><text fill="#000000" font-family="sans-serif" font-size="14" lengthAdjust="spacing" textLength="95" x="910.5" y="432.292">Data Gateway</text><!--MD5=[ed43a859708a376e35ae74978de1b490]
entity MB_API--><ellipse cx="421" cy="551" fill="#F8F8F8" rx="8" ry="8" style="stroke:#383838;stroke-width:1.5;"/><text fill="#000000" font-family="sans-serif" font-size="14" lengthAdjust="spacing" textLength="113" x="364.5" y="580.9951">Message Broker</text><text fill="#000000" font-family="sans-serif" font-size="14" lengthAdjust="spacing" textLength="21" x="364.5" y="597.292">API</text><!--MD5=[0ce5a9617f51ae4b5bc891fe128d05dc]
entity LTB_API--><ellipse cx="421" cy="278" fill="#F8F8F8" rx="8" ry="8" style="stroke:#383838;stroke-width:1.5;"/><text fill="#000000" font-family="sans-serif" font-size="14" lengthAdjust="spacing" textLength="186" x="328" y="307.9951">Location Tracking Backend</text><text fill="#000000" font-family="sans-serif" font-size="14" lengthAdjust="spacing" textLength="21" x="328" y="324.292">API</text><!--MD5=[08f53820b04260704b3f347581b3815a]
entity LGT92GPSG_API--><ellipse cx="851" cy="414.5" fill="#F8F8F8" rx="8" ry="8" style="stroke:#383838;stroke-width:1.5;"/><text fill="#000000" font-family="sans-serif" font-size="14" lengthAdjust="spacing" textLength="198" x="752" y="444.4951">LGT 92 GPS Sensor Gateway</text><text fill="#000000" font-family="sans-serif" font-size="14" lengthAdjust="spacing" textLength="21" x="752" y="460.792">API</text><!--MD5=[c42ed81cef7fdd2e33758127945b9a5b]
entity UI--><ellipse cx="421" cy="14" fill="#F8F8F8" rx="8" ry="8" style="stroke:#383838;stroke-width:1.5;"/><text fill="#000000" font-family="sans-serif" font-size="14" lengthAdjust="spacing" textLength="13" x="414.5" y="43.9951">UI</text><!--MD5=[259fb42cf3d26cb196e8dd6a3316d2da]
entity IN_ENDPOINT--><ellipse cx="1075" cy="414.5" fill="#F8F8F8" rx="8" ry="8" style="stroke:#383838;stroke-width:1.5;"/><text fill="#000000" font-family="sans-serif" font-size="14" lengthAdjust="spacing" textLength="57" x="1046.5" y="444.4951">Rest API</text><!--MD5=[9faa44188f0983b269c38a9c1880fbcb]
link MB_API to MB--><path d="M421,560.01 C421,578.45 421,624.69 421,655.85 " fill="none" id="MB_API-MB" style="stroke:#383838;stroke-width:1.0;"/><!--MD5=[4e1349c460729a9b0a875c8c8e490147]
link LTB_API to LTB--><path d="M421,287.01 C421,305.45 421,351.69 421,382.85 " fill="none" id="LTB_API-LTB" style="stroke:#383838;stroke-width:1.0;"/><!--MD5=[7654bf7eedd97bcc104d39f7c846b9c9]
link UI to LTF--><path d="M421,23.23 C421,40.52 421,81.35 421,109.95 " fill="none" id="UI-LTF" style="stroke:#383838;stroke-width:1.0;"/><!--MD5=[5979b812f08d285e19fd2241af551a66]
link LGT92GPSG to LGT92GPSG_API--><path d="M807.07,414.5 C818.62,414.5 830.18,414.5 841.73,414.5 " fill="none" id="LGT92GPSG-LGT92GPSG_API" style="stroke:#383838;stroke-width:1.0;"/><!--MD5=[632ffee6b860cfc9bcac06b852135104]
link LTF to LTB_API--><path d="M421,173.02 C421,199.43 421,236.74 421,258.75 " fill="none" id="LTF-to-LTB_API" style="stroke:#383838;stroke-width:1.0;"/><path d="M429.4572,265.9018 A9,9 0 0 0 412.5428 265.9018" style="stroke:#383838;stroke-width:1.5;fill:none;"/><!--MD5=[432dc558a2903d0c88606da1e4b84e79]
link LTB to MB_API--><path d="M421,446.02 C421,472.43 421,509.74 421,531.75 " fill="none" id="LTB-to-MB_API" style="stroke:#383838;stroke-width:1.0;"/><path d="M429.4572,538.9018 A9,9 0 0 0 412.5428 538.9018" style="stroke:#383838;stroke-width:1.5;fill:none;"/><!--MD5=[2134f714ab093ce28fbfa0d440386a29]
link LGT92GPSG to MB_API--><path d="M627.41,446.02 C566.94,476.48 477.67,521.45 439.46,540.7 " fill="none" id="LGT92GPSG-to-MB_API" style="stroke:#383838;stroke-width:1.0;"/><path d="M436.6551,551.5869 A9,9 0 0 0 429.0425 536.4823" style="stroke:#383838;stroke-width:1.5;fill:none;"/><!--MD5=[09cbdcf6bf168bcfa236a9a96fcdd5c8]
link LGT92GPSP to MB_API--><path d="M209.95,446.02 C272.05,476.61 363.84,521.84 402.63,540.95 " fill="none" id="LGT92GPSP-to-MB_API" style="stroke:#383838;stroke-width:1.0;"/><path d="M412.6833,536.4739 A9,9 0 0 0 405.1963 551.6411" style="stroke:#383838;stroke-width:1.5;fill:none;"/><!--MD5=[10b6338c92610505e5271cae2a947db5]
link DG to IN_ENDPOINT--><path d="M1030.81,414.5 C1042.43,414.5 1054.06,414.5 1065.68,414.5 " fill="none" id="DG-IN_ENDPOINT" style="stroke:#383838;stroke-width:1.0;"/><!--MD5=[82ce598d79ea4603fc0a6f297e8cb4c1]
reverse link LGT92GPSG_API to DG--><path d="M870.29,414.5 C878.57,414.5 886.85,414.5 895.13,414.5 " fill="none" id="LGT92GPSG_API-backto-DG" style="stroke:#383838;stroke-width:1.0;"/><path d="M863.2682,422.9572 A9,9 0 0 0 863.2682 406.0428" style="stroke:#383838;stroke-width:1.5;fill:none;"/><!--MD5=[0c0e6f308026e31e3038a9165454bfe0]
@startuml logical-view-level2

skinparam Monochrome true
skinparam sequenceMessageAlign center
skinparam Shadowing false
skinparam componentStyle uml2
skinparam packageStyle rectangle

interface "UI" as UI

interface "Rest API" as IN_ENDPOINT

component "Environment" <<System>> {
    component "Message Broker" as MB <<Container>>
    component "Location Tracking Backend" as LTB <<Container>>
    component "Location Tracking Frontend" as LTF <<Container>>
    component "LGT 92 GPS Sensor Processor" as LGT92GPSP <<Container>>
    component "LGT 92 GPS Sensor Gateway" as LGT92GPSG <<Container>>
    component "Data Gateway" as DG <<Container>>

    interface "Message Broker\nAPI" as MB_API
    interface "Location Tracking Backend\nAPI" as LTB_API
    interface "LGT 92 GPS Sensor Gateway\nAPI" as LGT92GPSG_API

    MB_API - - MB
    LTB_API - - LTB
    UI - - LTF
    LGT92GPSG - LGT92GPSG_API

    LTF - -( LTB_API

    LTB - -( MB_API
    LGT92GPSG - -( MB_API
    LGT92GPSP - -( MB_API

    DG - IN_ENDPOINT
    LGT92GPSG_API )- DG
}

@enduml

PlantUML version 1.2021.9(Sun Jul 25 11:13:56 WEST 2021)
(GPL source distribution)
Java Runtime: OpenJDK Runtime Environment
JVM: OpenJDK 64-Bit Server VM
Default Encoding: UTF-8
Language: en
Country: GB
--></g></svg>