<?xml version="1.0" encoding="UTF-8" standalone="no"?><svg xmlns="http://www.w3.org/2000/svg" xmlns:xlink="http://www.w3.org/1999/xlink" contentScriptType="application/ecmascript" contentStyleType="text/css" height="921px" preserveAspectRatio="none" style="width:2255px;height:921px;background:#FFFFFF;" version="1.1" viewBox="0 0 2255 921" width="2255px" zoomAndPan="magnify"><defs/><g><!--MD5=[85f6e7297d1ad81d8c1382e17d44cf2c]
cluster Environment--><rect fill="#FFFFFF" height="751" style="stroke:#000000;stroke-width:1.5;" width="2242" x="7" y="59"/><rect fill="#FFFFFF" height="10" style="stroke:#000000;stroke-width:1.5;" width="15" x="2229" y="64"/><rect fill="#FFFFFF" height="2" style="stroke:#000000;stroke-width:1.5;" width="4" x="2227" y="66"/><rect fill="#FFFFFF" height="2" style="stroke:#000000;stroke-width:1.5;" width="4" x="2227" y="70"/><text fill="#000000" font-family="sans-serif" font-size="14" font-style="italic" lengthAdjust="spacing" textLength="69" x="1093.5" y="84.9951">«System»</text><text fill="#000000" font-family="sans-serif" font-size="14" font-weight="bold" lengthAdjust="spacing" textLength="99" x="1078.5" y="101.292">Environment</text><!--MD5=[2f974df144d935b84f61c768008119cd]
cluster UIAG--><rect fill="#FFFFFF" height="146" style="stroke:#000000;stroke-width:1.5;" width="794" x="1102" y="126"/><rect fill="#FFFFFF" height="10" style="stroke:#000000;stroke-width:1.5;" width="15" x="1876" y="131"/><rect fill="#FFFFFF" height="2" style="stroke:#000000;stroke-width:1.5;" width="4" x="1874" y="133"/><rect fill="#FFFFFF" height="2" style="stroke:#000000;stroke-width:1.5;" width="4" x="1874" y="137"/><text fill="#000000" font-family="sans-serif" font-size="14" font-style="italic" lengthAdjust="spacing" textLength="85" x="1456.5" y="151.9951">«Container»</text><text fill="#000000" font-family="sans-serif" font-size="14" font-weight="bold" lengthAdjust="spacing" textLength="110" x="1444" y="168.292">UI Aggregator</text><!--MD5=[2c8bfc6f691a2260a342f8a3a45a5f4e]
entity MB--><rect fill="#F8F8F8" height="62.5938" style="stroke:#383838;stroke-width:1.5;" width="153" x="869.5" y="731"/><rect fill="#F8F8F8" height="10" style="stroke:#383838;stroke-width:1.5;" width="15" x="1002.5" y="736"/><rect fill="#F8F8F8" height="2" style="stroke:#383838;stroke-width:1.5;" width="4" x="1000.5" y="738"/><rect fill="#F8F8F8" height="2" style="stroke:#383838;stroke-width:1.5;" width="4" x="1000.5" y="742"/><text fill="#000000" font-family="sans-serif" font-size="14" font-style="italic" lengthAdjust="spacing" textLength="85" x="898.5" y="763.9951">«Container»</text><text fill="#000000" font-family="sans-serif" font-size="14" lengthAdjust="spacing" textLength="113" x="884.5" y="780.292">Message Broker</text><!--MD5=[de9d829787e3a43b2ded327ec6864356]
entity DRB--><rect fill="#F8F8F8" height="62.5938" style="stroke:#383838;stroke-width:1.5;" width="265" x="1383.5" y="458"/><rect fill="#F8F8F8" height="10" style="stroke:#383838;stroke-width:1.5;" width="15" x="1628.5" y="463"/><rect fill="#F8F8F8" height="2" style="stroke:#383838;stroke-width:1.5;" width="4" x="1626.5" y="465"/><rect fill="#F8F8F8" height="2" style="stroke:#383838;stroke-width:1.5;" width="4" x="1626.5" y="469"/><text fill="#000000" font-family="sans-serif" font-size="14" font-style="italic" lengthAdjust="spacing" textLength="85" x="1468.5" y="490.9951">«Container»</text><text fill="#000000" font-family="sans-serif" font-size="14" lengthAdjust="spacing" textLength="225" x="1398.5" y="507.292">Device Records Master Backend</text><!--MD5=[16d24166dd61b60d67a9b622353efc3e]
entity DRSB--><rect fill="#F8F8F8" height="62.5938" style="stroke:#383838;stroke-width:1.5;" width="254" x="1094" y="458"/><rect fill="#F8F8F8" height="10" style="stroke:#383838;stroke-width:1.5;" width="15" x="1328" y="463"/><rect fill="#F8F8F8" height="2" style="stroke:#383838;stroke-width:1.5;" width="4" x="1326" y="465"/><rect fill="#F8F8F8" height="2" style="stroke:#383838;stroke-width:1.5;" width="4" x="1326" y="469"/><text fill="#000000" font-family="sans-serif" font-size="14" font-style="italic" lengthAdjust="spacing" textLength="85" x="1173.5" y="490.9951">«Container»</text><text fill="#000000" font-family="sans-serif" font-size="14" lengthAdjust="spacing" textLength="214" x="1109" y="507.292">Device Records Slave Backend</text><!--MD5=[07f1f74cdc79fa2fd2740ec7d7a64eca]
entity LTB--><rect fill="#F8F8F8" height="62.5938" style="stroke:#383838;stroke-width:1.5;" width="226" x="833" y="458"/><rect fill="#F8F8F8" height="10" style="stroke:#383838;stroke-width:1.5;" width="15" x="1039" y="463"/><rect fill="#F8F8F8" height="2" style="stroke:#383838;stroke-width:1.5;" width="4" x="1037" y="465"/><rect fill="#F8F8F8" height="2" style="stroke:#383838;stroke-width:1.5;" width="4" x="1037" y="469"/><text fill="#000000" font-family="sans-serif" font-size="14" font-style="italic" lengthAdjust="spacing" textLength="85" x="898.5" y="490.9951">«Container»</text><text fill="#000000" font-family="sans-serif" font-size="14" lengthAdjust="spacing" textLength="186" x="848" y="507.292">Location Tracking Backend</text><!--MD5=[c941ee0c1a7581dce45459ca29ac447f]
entity SDG--><rect fill="#F8F8F8" height="62.5938" style="stroke:#383838;stroke-width:1.5;" width="177" x="620.5" y="458"/><rect fill="#F8F8F8" height="10" style="stroke:#383838;stroke-width:1.5;" width="15" x="777.5" y="463"/><rect fill="#F8F8F8" height="2" style="stroke:#383838;stroke-width:1.5;" width="4" x="775.5" y="465"/><rect fill="#F8F8F8" height="2" style="stroke:#383838;stroke-width:1.5;" width="4" x="775.5" y="469"/><text fill="#000000" font-family="sans-serif" font-size="14" font-style="italic" lengthAdjust="spacing" textLength="85" x="661.5" y="490.9951">«Container»</text><text fill="#000000" font-family="sans-serif" font-size="14" lengthAdjust="spacing" textLength="137" x="635.5" y="507.292">Static Data Gateway</text><!--MD5=[91279a835da4e32ef6d7ba373316e020]
entity DDG--><rect fill="#F8F8F8" height="62.5938" style="stroke:#383838;stroke-width:1.5;" width="198" x="387" y="458"/><rect fill="#F8F8F8" height="10" style="stroke:#383838;stroke-width:1.5;" width="15" x="565" y="463"/><rect fill="#F8F8F8" height="2" style="stroke:#383838;stroke-width:1.5;" width="4" x="563" y="465"/><rect fill="#F8F8F8" height="2" style="stroke:#383838;stroke-width:1.5;" width="4" x="563" y="469"/><text fill="#000000" font-family="sans-serif" font-size="14" font-style="italic" lengthAdjust="spacing" textLength="85" x="438.5" y="490.9951">«Container»</text><text fill="#000000" font-family="sans-serif" font-size="14" lengthAdjust="spacing" textLength="158" x="402" y="507.292">Dynamic Data Gateway</text><!--MD5=[916b332d59e591ecaa5566188f0cdc33]
entity DR--><rect fill="#F8F8F8" height="62.5938" style="stroke:#383838;stroke-width:1.5;" width="127" x="540.5" y="731"/><rect fill="#F8F8F8" height="10" style="stroke:#383838;stroke-width:1.5;" width="15" x="647.5" y="736"/><rect fill="#F8F8F8" height="2" style="stroke:#383838;stroke-width:1.5;" width="4" x="645.5" y="738"/><rect fill="#F8F8F8" height="2" style="stroke:#383838;stroke-width:1.5;" width="4" x="645.5" y="742"/><text fill="#000000" font-family="sans-serif" font-size="14" font-style="italic" lengthAdjust="spacing" textLength="85" x="556.5" y="763.9951">«Container»</text><text fill="#000000" font-family="sans-serif" font-size="14" lengthAdjust="spacing" textLength="87" x="555.5" y="780.292">Data Relayer</text><!--MD5=[bdf2b643721ab24f6b6cc4832b6b9e51]
entity DPSB--><rect fill="#F8F8F8" height="62.5938" style="stroke:#383838;stroke-width:1.5;" width="251" x="1981.5" y="458"/><rect fill="#F8F8F8" height="10" style="stroke:#383838;stroke-width:1.5;" width="15" x="2212.5" y="463"/><rect fill="#F8F8F8" height="2" style="stroke:#383838;stroke-width:1.5;" width="4" x="2210.5" y="465"/><rect fill="#F8F8F8" height="2" style="stroke:#383838;stroke-width:1.5;" width="4" x="2210.5" y="469"/><text fill="#000000" font-family="sans-serif" font-size="14" font-style="italic" lengthAdjust="spacing" textLength="85" x="2059.5" y="490.9951">«Container»</text><text fill="#000000" font-family="sans-serif" font-size="14" lengthAdjust="spacing" textLength="211" x="1996.5" y="507.292">Data Processor Slave Backend</text><!--MD5=[7d5e30ccfc93022cd060f94bf2de644f]
entity DPMB--><rect fill="#F8F8F8" height="62.5938" style="stroke:#383838;stroke-width:1.5;" width="262" x="1684" y="458"/><rect fill="#F8F8F8" height="10" style="stroke:#383838;stroke-width:1.5;" width="15" x="1926" y="463"/><rect fill="#F8F8F8" height="2" style="stroke:#383838;stroke-width:1.5;" width="4" x="1924" y="465"/><rect fill="#F8F8F8" height="2" style="stroke:#383838;stroke-width:1.5;" width="4" x="1924" y="469"/><text fill="#000000" font-family="sans-serif" font-size="14" font-style="italic" lengthAdjust="spacing" textLength="85" x="1767.5" y="490.9951">«Container»</text><text fill="#000000" font-family="sans-serif" font-size="14" lengthAdjust="spacing" textLength="222" x="1699" y="507.292">Data Processor Master Backend</text><!--MD5=[5c672979971b01ffe3e26ca5e0224f67]
entity DRDB--><rect fill="#F8F8F8" height="62.5938" style="stroke:#383838;stroke-width:1.5;" width="173" x="1578.5" y="731"/><rect fill="#F8F8F8" height="10" style="stroke:#383838;stroke-width:1.5;" width="15" x="1731.5" y="736"/><rect fill="#F8F8F8" height="2" style="stroke:#383838;stroke-width:1.5;" width="4" x="1729.5" y="738"/><rect fill="#F8F8F8" height="2" style="stroke:#383838;stroke-width:1.5;" width="4" x="1729.5" y="742"/><text fill="#000000" font-family="sans-serif" font-size="14" font-style="italic" lengthAdjust="spacing" textLength="85" x="1617.5" y="763.9951">«Container»</text><text fill="#000000" font-family="sans-serif" font-size="14" lengthAdjust="spacing" textLength="133" x="1593.5" y="780.292">Common Database</text><!--MD5=[c3da65247178bd108470cc642ef9d915]
entity CDS--><rect fill="#F8F8F8" height="62.5938" style="stroke:#383838;stroke-width:1.5;" width="168" x="184" y="458"/><rect fill="#F8F8F8" height="10" style="stroke:#383838;stroke-width:1.5;" width="15" x="332" y="463"/><rect fill="#F8F8F8" height="2" style="stroke:#383838;stroke-width:1.5;" width="4" x="330" y="465"/><rect fill="#F8F8F8" height="2" style="stroke:#383838;stroke-width:1.5;" width="4" x="330" y="469"/><text fill="#000000" font-family="sans-serif" font-size="14" font-style="italic" lengthAdjust="spacing" textLength="85" x="220.5" y="490.9951">«Container»</text><text fill="#000000" font-family="sans-serif" font-size="14" lengthAdjust="spacing" textLength="128" x="199" y="507.292">Chrono Data Store</text><!--MD5=[1a416c3156d55d9446032ebbee093b81]
entity DS--><rect fill="#F8F8F8" height="62.5938" style="stroke:#383838;stroke-width:1.5;" width="125" x="23.5" y="458"/><rect fill="#F8F8F8" height="10" style="stroke:#383838;stroke-width:1.5;" width="15" x="128.5" y="463"/><rect fill="#F8F8F8" height="2" style="stroke:#383838;stroke-width:1.5;" width="4" x="126.5" y="465"/><rect fill="#F8F8F8" height="2" style="stroke:#383838;stroke-width:1.5;" width="4" x="126.5" y="469"/><text fill="#000000" font-family="sans-serif" font-size="14" font-style="italic" lengthAdjust="spacing" textLength="85" x="38.5" y="490.9951">«Container»</text><text fill="#000000" font-family="sans-serif" font-size="14" lengthAdjust="spacing" textLength="73" x="44.5" y="507.292">Data Store</text><!--MD5=[0d4560ec263e73dd5d18ec3da06f96fd]
entity QUESTDB--><rect fill="#F8F8F8" height="62.5938" style="stroke:#383838;stroke-width:1.5;" width="125" x="205.5" y="731"/><rect fill="#F8F8F8" height="10" style="stroke:#383838;stroke-width:1.5;" width="15" x="310.5" y="736"/><rect fill="#F8F8F8" height="2" style="stroke:#383838;stroke-width:1.5;" width="4" x="308.5" y="738"/><rect fill="#F8F8F8" height="2" style="stroke:#383838;stroke-width:1.5;" width="4" x="308.5" y="742"/><text fill="#000000" font-family="sans-serif" font-size="14" font-style="italic" lengthAdjust="spacing" textLength="85" x="220.5" y="763.9951">«Container»</text><text fill="#000000" font-family="sans-serif" font-size="14" lengthAdjust="spacing" textLength="63" x="231.5" y="780.292">QuestDB</text><!--MD5=[03988f2df4231e1a486c01e3236a3a84]
entity MONGODB--><rect fill="#F8F8F8" height="62.5938" style="stroke:#383838;stroke-width:1.5;" width="125" x="23.5" y="731"/><rect fill="#F8F8F8" height="10" style="stroke:#383838;stroke-width:1.5;" width="15" x="128.5" y="736"/><rect fill="#F8F8F8" height="2" style="stroke:#383838;stroke-width:1.5;" width="4" x="126.5" y="738"/><rect fill="#F8F8F8" height="2" style="stroke:#383838;stroke-width:1.5;" width="4" x="126.5" y="742"/><text fill="#000000" font-family="sans-serif" font-size="14" font-style="italic" lengthAdjust="spacing" textLength="85" x="38.5" y="763.9951">«Container»</text><text fill="#000000" font-family="sans-serif" font-size="14" lengthAdjust="spacing" textLength="69" x="46.5" y="780.292">MongoDB</text><!--MD5=[ed43a859708a376e35ae74978de1b490]
entity MB_API--><ellipse cx="946" cy="626" fill="#F8F8F8" rx="8" ry="8" style="stroke:#383838;stroke-width:1.5;"/><text fill="#000000" font-family="sans-serif" font-size="14" lengthAdjust="spacing" textLength="113" x="889.5" y="655.9951">Message Broker</text><text fill="#000000" font-family="sans-serif" font-size="14" lengthAdjust="spacing" textLength="21" x="889.5" y="672.292">API</text><!--MD5=[0ce5a9617f51ae4b5bc891fe128d05dc]
entity LTB_API--><ellipse cx="1102" cy="353" fill="#F8F8F8" rx="8" ry="8" style="stroke:#383838;stroke-width:1.5;"/><text fill="#000000" font-family="sans-serif" font-size="14" lengthAdjust="spacing" textLength="186" x="1009" y="382.9951">Location Tracking Backend</text><text fill="#000000" font-family="sans-serif" font-size="14" lengthAdjust="spacing" textLength="21" x="1009" y="399.292">API</text><!--MD5=[9244efad2dc02808af23604ab0304277]
entity DRB_API--><ellipse cx="1516" cy="353" fill="#F8F8F8" rx="8" ry="8" style="stroke:#383838;stroke-width:1.5;"/><text fill="#000000" font-family="sans-serif" font-size="14" lengthAdjust="spacing" textLength="225" x="1403.5" y="382.9951">Device Records Master Backend</text><text fill="#000000" font-family="sans-serif" font-size="14" lengthAdjust="spacing" textLength="21" x="1403.5" y="399.292">API</text><!--MD5=[6390cbc15964bea49719771afd793c9b]
entity DPMB_API--><ellipse cx="1802" cy="353" fill="#F8F8F8" rx="8" ry="8" style="stroke:#383838;stroke-width:1.5;"/><text fill="#000000" font-family="sans-serif" font-size="14" lengthAdjust="spacing" textLength="222" x="1691" y="382.9951">Data Processor Master Backend</text><text fill="#000000" font-family="sans-serif" font-size="14" lengthAdjust="spacing" textLength="21" x="1691" y="399.292">API</text><!--MD5=[5ca5631ebaf5f86a9fa4e428e4442db3]
entity DRDB_API--><ellipse cx="1665" cy="626" fill="#F8F8F8" rx="8" ry="8" style="stroke:#383838;stroke-width:1.5;"/><text fill="#000000" font-family="sans-serif" font-size="14" lengthAdjust="spacing" textLength="133" x="1598.5" y="655.9951">Common Database</text><text fill="#000000" font-family="sans-serif" font-size="14" lengthAdjust="spacing" textLength="21" x="1598.5" y="672.292">API</text><!--MD5=[e8ad32939caa55f00142e93d75a05e2d]
entity QUESTDB_API--><ellipse cx="268" cy="626" fill="#F8F8F8" rx="8" ry="8" style="stroke:#383838;stroke-width:1.5;"/><text fill="#000000" font-family="sans-serif" font-size="14" lengthAdjust="spacing" textLength="63" x="236.5" y="655.9951">QuestDB</text><text fill="#000000" font-family="sans-serif" font-size="14" lengthAdjust="spacing" textLength="21" x="236.5" y="672.292">API</text><!--MD5=[2d1aaa06eea6692e612a00a28d7bf3bd]
entity MONGODB_API--><ellipse cx="86" cy="626" fill="#F8F8F8" rx="8" ry="8" style="stroke:#383838;stroke-width:1.5;"/><text fill="#000000" font-family="sans-serif" font-size="14" lengthAdjust="spacing" textLength="69" x="51.5" y="655.9951">MongoDB</text><text fill="#000000" font-family="sans-serif" font-size="14" lengthAdjust="spacing" textLength="21" x="51.5" y="672.292">API</text><!--MD5=[b98416d9442780fc85bf7773ad563375]
entity SDG_API--><ellipse cx="703" cy="626" fill="#F8F8F8" rx="8" ry="8" style="stroke:#383838;stroke-width:1.5;"/><text fill="#000000" font-family="sans-serif" font-size="14" lengthAdjust="spacing" textLength="137" x="634.5" y="655.9951">Static Data Gateway</text><text fill="#000000" font-family="sans-serif" font-size="14" lengthAdjust="spacing" textLength="21" x="634.5" y="672.292">API</text><!--MD5=[7b5d57a7033bc15fa4b522c391528de2]
entity DDG_API--><ellipse cx="493" cy="626" fill="#F8F8F8" rx="8" ry="8" style="stroke:#383838;stroke-width:1.5;"/><text fill="#000000" font-family="sans-serif" font-size="14" lengthAdjust="spacing" textLength="158" x="414" y="655.9951">Dynamic Data Gateway</text><text fill="#000000" font-family="sans-serif" font-size="14" lengthAdjust="spacing" textLength="21" x="414" y="672.292">API</text><!--MD5=[96142bef19f749aced95310868fd618c]
entity DRF--><rect fill="#F8F8F8" height="62.5938" style="stroke:#383838;stroke-width:1.5;" width="216" x="1408" y="185"/><rect fill="#F8F8F8" height="10" style="stroke:#383838;stroke-width:1.5;" width="15" x="1604" y="190"/><rect fill="#F8F8F8" height="2" style="stroke:#383838;stroke-width:1.5;" width="4" x="1602" y="192"/><rect fill="#F8F8F8" height="2" style="stroke:#383838;stroke-width:1.5;" width="4" x="1602" y="196"/><text fill="#000000" font-family="sans-serif" font-size="14" font-style="italic" lengthAdjust="spacing" textLength="85" x="1468.5" y="217.9951">«Container»</text><text fill="#000000" font-family="sans-serif" font-size="14" lengthAdjust="spacing" textLength="176" x="1423" y="234.292">Device Records Frontend</text><!--MD5=[248285276881d4606f81bc6a8b2e8491]
entity DPF--><rect fill="#F8F8F8" height="62.5938" style="stroke:#383838;stroke-width:1.5;" width="213" x="1659.5" y="185"/><rect fill="#F8F8F8" height="10" style="stroke:#383838;stroke-width:1.5;" width="15" x="1852.5" y="190"/><rect fill="#F8F8F8" height="2" style="stroke:#383838;stroke-width:1.5;" width="4" x="1850.5" y="192"/><rect fill="#F8F8F8" height="2" style="stroke:#383838;stroke-width:1.5;" width="4" x="1850.5" y="196"/><text fill="#000000" font-family="sans-serif" font-size="14" font-style="italic" lengthAdjust="spacing" textLength="85" x="1718.5" y="217.9951">«Container»</text><text fill="#000000" font-family="sans-serif" font-size="14" lengthAdjust="spacing" textLength="173" x="1674.5" y="234.292">Data Processor Frontend</text><!--MD5=[838a8f8ee09da76e2984218500383e54]
entity LTF--><rect fill="#F8F8F8" height="62.5938" style="stroke:#383838;stroke-width:1.5;" width="228" x="1145" y="185"/><rect fill="#F8F8F8" height="10" style="stroke:#383838;stroke-width:1.5;" width="15" x="1353" y="190"/><rect fill="#F8F8F8" height="2" style="stroke:#383838;stroke-width:1.5;" width="4" x="1351" y="192"/><rect fill="#F8F8F8" height="2" style="stroke:#383838;stroke-width:1.5;" width="4" x="1351" y="196"/><text fill="#000000" font-family="sans-serif" font-size="14" font-style="italic" lengthAdjust="spacing" textLength="85" x="1211.5" y="217.9951">«Container»</text><text fill="#000000" font-family="sans-serif" font-size="14" lengthAdjust="spacing" textLength="188" x="1160" y="234.292">Location Tracking Frontend</text><!--MD5=[c42ed81cef7fdd2e33758127945b9a5b]
entity UI--><ellipse cx="1110" cy="14" fill="#F8F8F8" rx="8" ry="8" style="stroke:#383838;stroke-width:1.5;"/><text fill="#000000" font-family="sans-serif" font-size="14" lengthAdjust="spacing" textLength="13" x="1103.5" y="43.9951">UI</text><!--MD5=[259fb42cf3d26cb196e8dd6a3316d2da]
entity IN_ENDPOINT--><ellipse cx="604" cy="883" fill="#F8F8F8" rx="8" ry="8" style="stroke:#383838;stroke-width:1.5;"/><text fill="#000000" font-family="sans-serif" font-size="14" lengthAdjust="spacing" textLength="57" x="575.5" y="912.9951">Rest API</text><!--MD5=[ad05253f68bf98f0b0345b317132f952]
link CDS to QUESTDB_API--><path d="M268,521.02 C268,547.43 268,584.74 268,606.75 " fill="none" id="CDS-to-QUESTDB_API" style="stroke:#383838;stroke-width:1.0;"/><path d="M276.4572,613.9018 A9,9 0 0 0 259.5428 613.9018" style="stroke:#383838;stroke-width:1.5;fill:none;"/><!--MD5=[666d4f6c4a9dcee25ffe6d0afb7e8f5c]
link DS to MONGODB_API--><path d="M86,521.02 C86,547.43 86,584.74 86,606.75 " fill="none" id="DS-to-MONGODB_API" style="stroke:#383838;stroke-width:1.0;"/><path d="M94.4572,613.9018 A9,9 0 0 0 77.5428 613.9018" style="stroke:#383838;stroke-width:1.5;fill:none;"/><!--MD5=[e2bb4535729e8a781cd7ddd238ff39ed]
link DDG to DDG_API--><path d="M487.59,521.02 C489.21,552.18 491.62,598.51 492.58,616.98 " fill="none" id="DDG-DDG_API" style="stroke:#383838;stroke-width:1.0;"/><!--MD5=[043f4a6998d1f423c1875123bc6c35b3]
link DPMB_API to DPMB--><path d="M1802.77,362.01 C1804.56,380.45 1809.03,426.69 1812.04,457.85 " fill="none" id="DPMB_API-DPMB" style="stroke:#383838;stroke-width:1.0;"/><!--MD5=[a28acdb8ad4d91f65f1547077cd4da90]
link DRB_API to DRB--><path d="M1516,362.01 C1516,380.45 1516,426.69 1516,457.85 " fill="none" id="DRB_API-DRB" style="stroke:#383838;stroke-width:1.0;"/><!--MD5=[9faa44188f0983b269c38a9c1880fbcb]
link MB_API to MB--><path d="M946,635.01 C946,653.45 946,699.69 946,730.85 " fill="none" id="MB_API-MB" style="stroke:#383838;stroke-width:1.0;"/><!--MD5=[8b4f74b634f1475be71ae4e68775c50f]
link DRDB_API to DRDB--><path d="M1665,635.01 C1665,653.45 1665,699.69 1665,730.85 " fill="none" id="DRDB_API-DRDB" style="stroke:#383838;stroke-width:1.0;"/><!--MD5=[4e1349c460729a9b0a875c8c8e490147]
link LTB_API to LTB--><path d="M1092.71,362.01 C1071.33,380.45 1017.69,426.69 981.55,457.85 " fill="none" id="LTB_API-LTB" style="stroke:#383838;stroke-width:1.0;"/><!--MD5=[9467590f772bdba1939f43218646f943]
link UI to UIAG--><path d="M1110,23.11 C1110,32.34 1110,48.6788 1110,68.0684 C1110,77.7633 1110,88.2209 1110,98.9339 C1110,104.2905 1110,109.7109 1110,115.1318 C1110,117.8422 1110,120.5528 1110,123.2556 C1110,123.9313 1110,124.6065 1110,125.2811 " fill="none" id="UI-UIAG" style="stroke:#383838;stroke-width:1.0;"/><!--MD5=[6abf830be029d8e99112fb1a8d440f99]
link SDG to SDG_API--><path d="M707.64,521.02 C706.25,552.18 704.18,598.51 703.36,616.98 " fill="none" id="SDG-SDG_API" style="stroke:#383838;stroke-width:1.0;"/><!--MD5=[8abd4cb10c03f79d1001485a53a7e496]
link MONGODB_API to MONGODB--><path d="M86,635.01 C86,653.45 86,699.69 86,730.85 " fill="none" id="MONGODB_API-MONGODB" style="stroke:#383838;stroke-width:1.0;"/><!--MD5=[a43445fa678732e5a8e288cde82788b9]
link QUESTDB_API to QUESTDB--><path d="M268,635.01 C268,653.45 268,699.69 268,730.85 " fill="none" id="QUESTDB_API-QUESTDB" style="stroke:#383838;stroke-width:1.0;"/><!--MD5=[c0fd3909471f57f2e33cdcce01cab375]
link DRB to DRDB_API--><path d="M1549.81,521.02 C1580.69,548.89 1625.01,588.9 1648.67,610.26 " fill="none" id="DRB-to-DRDB_API" style="stroke:#383838;stroke-width:1.0;"/><path d="M1659.4885,608.6382 A9,9 0 0 0 1648.1599 621.1986" style="stroke:#383838;stroke-width:1.5;fill:none;"/><!--MD5=[bdcc501502345f0c74f74263afe2354b]
link DRSB to DRDB_API--><path d="M1321.75,521.02 C1429.23,553.58 1591.39,602.7 1646.17,619.3 " fill="none" id="DRSB-to-DRDB_API" style="stroke:#383838;stroke-width:1.0;"/><path d="M1655.4164,613.2635 A9,9 0 0 0 1650.5117 629.4513" style="stroke:#383838;stroke-width:1.5;fill:none;"/><!--MD5=[d9bb85a2c81767bd2a2503febd0b5ebb]
link DPMB to DRDB_API--><path d="M1780.96,521.02 C1749.88,548.89 1705.26,588.9 1681.44,610.26 " fill="none" id="DPMB-to-DRDB_API" style="stroke:#383838;stroke-width:1.0;"/><path d="M1681.8915,621.2146 A9,9 0 0 0 1670.5884 608.6314" style="stroke:#383838;stroke-width:1.5;fill:none;"/><!--MD5=[bbc5281f604e96bb1e3bb863cffa9511]
link DPSB to DRDB_API--><path d="M2006.7,521.02 C1899.71,553.58 1738.28,602.7 1683.75,619.3 " fill="none" id="DPSB-to-DRDB_API" style="stroke:#383838;stroke-width:1.0;"/><path d="M1679.4611,629.4417 A9,9 0 0 0 1674.5276 613.2627" style="stroke:#383838;stroke-width:1.5;fill:none;"/><!--MD5=[632ffee6b860cfc9bcac06b852135104]
link LTF to LTB_API--><path d="M1223.37,248.02 C1190.68,276.03 1143.67,316.3 1118.84,337.57 " fill="none" id="LTF-to-LTB_API" style="stroke:#383838;stroke-width:1.0;"/><path d="M1118.8851,348.6607 A9,9 0 0 0 1107.8654 335.8285" style="stroke:#383838;stroke-width:1.5;fill:none;"/><!--MD5=[4a41331c31bbd71ab791820d8813635b]
link DPF to DPMB_API--><path d="M1774.17,248.02 C1781.27,274.55 1791.32,312.09 1797.2,334.05 " fill="none" id="DPF-to-DPMB_API" style="stroke:#383838;stroke-width:1.0;"/><path d="M1807.2233,338.8192 A9,9 0 0 0 1790.8844 343.1939" style="stroke:#383838;stroke-width:1.5;fill:none;"/><!--MD5=[99639326d43e115e35ef3e6d4e64f760]
link DRF to DRB_API--><path d="M1516,248.02 C1516,274.43 1516,311.74 1516,333.75 " fill="none" id="DRF-to-DRB_API" style="stroke:#383838;stroke-width:1.0;"/><path d="M1524.4572,340.9018 A9,9 0 0 0 1507.5428 340.9018" style="stroke:#383838;stroke-width:1.5;fill:none;"/><!--MD5=[e0a223ea9716358c455df1ccd11a546d]
link CDS to MB_API--><path d="M352.07,516.72 C358.11,518.27 364.13,519.72 370,521 C557.23,561.9 609.7,540.42 797,581 C844.47,591.29 898.89,608.88 926.99,618.4 " fill="none" id="CDS-to-MB_API" style="stroke:#383838;stroke-width:1.0;"/><path d="M936.5414,612.7316 A9,9 0 0 0 931.055 628.7315" style="stroke:#383838;stroke-width:1.5;fill:none;"/><!--MD5=[604f780646d9df350d60f8370c6d8018]
link DS to MB_API--><path d="M148.73,515.96 C154.84,517.88 161,519.61 167,521 C441.02,584.45 520.85,527.59 797,581 C844.69,590.22 899.02,608.25 927.05,618.12 " fill="none" id="DS-to-MB_API" style="stroke:#383838;stroke-width:1.0;"/><path d="M936.677,612.5802 A9,9 0 0 0 931.0033 628.5147" style="stroke:#383838;stroke-width:1.5;fill:none;"/><!--MD5=[432dc558a2903d0c88606da1e4b84e79]
link LTB to MB_API--><path d="M946,521.02 C946,547.43 946,584.74 946,606.75 " fill="none" id="LTB-to-MB_API" style="stroke:#383838;stroke-width:1.0;"/><path d="M954.4572,613.9018 A9,9 0 0 0 937.5428 613.9018" style="stroke:#383838;stroke-width:1.5;fill:none;"/><!--MD5=[fc219f88c7305afccf9ee7f03fbee597]
link DRB to MB_API--><path d="M1386.66,521.02 C1245.36,554.36 1030.43,605.08 965.34,620.44 " fill="none" id="DRB-to-MB_API" style="stroke:#383838;stroke-width:1.0;"/><path d="M960.2314,630.3321 A9,9 0 0 0 956.3398 613.8714" style="stroke:#383838;stroke-width:1.5;fill:none;"/><!--MD5=[6911d2fabc650c005ca4ddd288c99edc]
link DPMB to MB_API--><path d="M1683.86,517.79 C1677.83,518.9 1671.85,519.98 1666,521 C1389.13,569.29 1049.55,612.21 965.5,622.61 " fill="none" id="DPMB-to-MB_API" style="stroke:#383838;stroke-width:1.0;"/><path d="M959.4521,631.881 A9,9 0 0 0 957.3987 615.0916" style="stroke:#383838;stroke-width:1.5;fill:none;"/><!--MD5=[c8781c541b8ee09f9ccaf5978285f76f]
link DRSB to MB_API--><path d="M1158.6,521.02 C1096.05,551.61 1003.58,596.84 964.51,615.95 " fill="none" id="DRSB-to-MB_API" style="stroke:#383838;stroke-width:1.0;"/><path d="M961.8538,626.6618 A9,9 0 0 0 954.4153 611.4708" style="stroke:#383838;stroke-width:1.5;fill:none;"/><!--MD5=[dc1f9480746d52ed7333e51b85f5b632]
link SDG to MB_API--><path d="M762.78,521.02 C815.48,550.93 892.83,594.82 927.73,614.63 " fill="none" id="SDG-to-MB_API" style="stroke:#383838;stroke-width:1.0;"/><path d="M938.2514,610.8761 A9,9 0 0 0 929.8959 625.5827" style="stroke:#383838;stroke-width:1.5;fill:none;"/><!--MD5=[f827bf9b42c62ebabf528d1fcac18818]
link DPSB to MB_API--><path d="M1981.2,518.12 C1975.4,519.15 1969.64,520.11 1964,521 C1563.5,583.98 1068.09,617.32 965.23,623.82 " fill="none" id="DPSB-to-MB_API" style="stroke:#383838;stroke-width:1.0;"/><path d="M958.7234,632.6971 A9,9 0 0 0 957.6608 615.8161" style="stroke:#383838;stroke-width:1.5;fill:none;"/><!--MD5=[9ce444daab36fdb377509fb95a57d70f]
link DDG to MB_API--><path d="M585.12,519.24 C646.23,536.98 726.18,560.24 797,581 C843.84,594.73 898.92,611.04 927.18,619.42 " fill="none" id="DDG-to-MB_API" style="stroke:#383838;stroke-width:1.0;"/><path d="M936.3835,613.3266 A9,9 0 0 0 931.5742 629.5429" style="stroke:#383838;stroke-width:1.5;fill:none;"/><!--MD5=[59102a87a4d94a16034c88bc26e4734d]
link DR to IN_ENDPOINT--><path d="M604,794.02 C604,820.62 604,857.43 604,873.7 " fill="none" id="DR-IN_ENDPOINT" style="stroke:#383838;stroke-width:1.0;"/><!--MD5=[801507c1e85b204b4106e31e2a3b31cb]
reverse link SDG_API to DR--><path d="M691.12,643.14 C675.2,664.77 646.63,703.58 626.56,730.85 " fill="none" id="SDG_API-backto-DR" style="stroke:#383838;stroke-width:1.0;"/><path d="M688.4659,632.4697 A9,9 0 0 0 702.0812 642.5058" style="stroke:#383838;stroke-width:1.5;fill:none;"/><!--MD5=[ae3611b2a0d706c1425a5b98056c682e]
reverse link DDG_API to DR--><path d="M506.09,642.86 C523.89,664.42 556.1,703.46 578.7,730.85 " fill="none" id="DDG_API-backto-DR" style="stroke:#383838;stroke-width:1.0;"/><path d="M495.0409,642.7639 A9,9 0 0 0 508.0942 632.0071" style="stroke:#383838;stroke-width:1.5;fill:none;"/><!--MD5=[70760828fb791cd22b1c9935406e62ee]
@startuml logical-view-level2

skinparam Monochrome true
skinparam sequenceMessageAlign center
skinparam Shadowing false
skinparam componentStyle uml2
skinparam packageStyle rectangle

interface "UI" as UI

interface "Rest API" as IN_ENDPOINT

component "Environment" <<System>> {
    component "Message Broker" as MB <<Container>>
    component "Device Records Master Backend" as DRB <<Container>>
    component "Device Records Slave Backend" as DRSB <<Container>>
    component "Location Tracking Backend" as LTB <<Container>>
    component "Static Data Gateway" as SDG <<Container>>
    component "Dynamic Data Gateway" as DDG <<Container>>
    component "Data Relayer" as DR <<Container>>
    component "UI Aggregator" as UIAG <<Container>> {
        component "Device Records Frontend" as DRF <<Container>>
        component "Data Processor Frontend" as DPF <<Container>>
        component "Location Tracking Frontend" as LTF <<Container>>
    }
    component "Data Processor Slave Backend" as DPSB <<Container>>
    component "Data Processor Master Backend" as DPMB <<Container>>
    component "Common Database" as DRDB <<Container>>
    component "Chrono Data Store" as CDS <<Container>>
    component "Data Store" as DS <<Container>>
    component "QuestDB" as QUESTDB <<Container>>
    component "MongoDB" as MONGODB <<Container>>

    interface "Message Broker\nAPI" as MB_API
    interface "Location Tracking Backend\nAPI" as LTB_API
    interface "Device Records Master Backend\nAPI" as DRB_API
    interface "Data Processor Master Backend\nAPI" as DPMB_API
    interface "Common Database\nAPI" as DRDB_API
    interface "QuestDB\nAPI" as QUESTDB_API
    interface "MongoDB\nAPI" as MONGODB_API
    interface "Static Data Gateway\nAPI" as SDG_API
    interface "Dynamic Data Gateway\nAPI" as DDG_API

    CDS - -( QUESTDB_API
    DS - -( MONGODB_API
    DDG - - DDG_API
    DPMB_API - - DPMB
    DRB_API - - DRB
    MB_API - - MB
    DRDB_API - - DRDB
    LTB_API - - LTB
    UI - - UIAG
    SDG - - SDG_API
    MONGODB_API - - MONGODB
    QUESTDB_API - - QUESTDB
    DRB - -( DRDB_API
    DRSB - -( DRDB_API
    DPMB - -( DRDB_API
    DPSB - -( DRDB_API
    LTF - -( LTB_API
    DPF - -( DPMB_API
    DRF - -( DRB_API

    CDS - -( MB_API
    DS - -( MB_API
    LTB - -( MB_API
    DRB - -( MB_API
    DPMB - -( MB_API
    DRSB - -( MB_API
    SDG - -( MB_API
    DPSB - -( MB_API
    DDG - -( MB_API

    DR - - IN_ENDPOINT
    SDG_API )- - DR
    DDG_API )- - DR
}

@enduml

PlantUML version 1.2021.9(Sun Jul 25 11:13:56 WEST 2021)
(GPL source distribution)
Java Runtime: OpenJDK Runtime Environment
JVM: OpenJDK 64-Bit Server VM
Default Encoding: UTF-8
Language: en
Country: GB
--></g></svg>