<?xml version="1.0" encoding="UTF-8" standalone="no"?><svg xmlns="http://www.w3.org/2000/svg" xmlns:xlink="http://www.w3.org/1999/xlink" contentScriptType="application/ecmascript" contentStyleType="text/css" height="1082px" preserveAspectRatio="none" style="width:693px;height:1082px;background:#FFFFFF;" version="1.1" viewBox="0 0 693 1082" width="693px" zoomAndPan="magnify"><defs><filter height="300%" id="fjyegxwx2bj8k" width="300%" x="-1" y="-1"><feGaussianBlur result="blurOut" stdDeviation="2.0"/><feColorMatrix in="blurOut" result="blurOut2" type="matrix" values="0 0 0 0 0 0 0 0 0 0 0 0 0 0 0 0 0 0 .4 0"/><feOffset dx="4.0" dy="4.0" in="blurOut2" result="blurOut3"/><feBlend in="SourceGraphic" in2="blurOut3" mode="normal"/></filter></defs><g><!--MD5=[6f4ba3d2497c57dd4ddd037bf52056d6]
cluster Data Processor Master Backend--><rect fill="#FFFFFF" filter="url(#fjyegxwx2bj8k)" height="1061" style="stroke:#000000;stroke-width:1.5;" width="672" x="7" y="7"/><rect fill="#FFFFFF" height="10" style="stroke:#000000;stroke-width:1.5;" width="15" x="659" y="12"/><rect fill="#FFFFFF" height="2" style="stroke:#000000;stroke-width:1.5;" width="4" x="657" y="14"/><rect fill="#FFFFFF" height="2" style="stroke:#000000;stroke-width:1.5;" width="4" x="657" y="18"/><text fill="#000000" font-family="sans-serif" font-size="14" font-weight="bold" lengthAdjust="spacing" textLength="252" x="217" y="32.9951">Data Processor Master Backend</text><!--MD5=[70becb833e031d8ab2b25bb6fd041c2b]
cluster INFRA--><rect fill="#FFFFFF" filter="url(#fjyegxwx2bj8k)" height="492" style="stroke:#000000;stroke-width:1.5;" width="500" x="31" y="50"/><rect fill="#FFFFFF" height="10" style="stroke:#000000;stroke-width:1.5;" width="15" x="511" y="55"/><rect fill="#FFFFFF" height="2" style="stroke:#000000;stroke-width:1.5;" width="4" x="509" y="57"/><rect fill="#FFFFFF" height="2" style="stroke:#000000;stroke-width:1.5;" width="4" x="509" y="61"/><text fill="#000000" font-family="sans-serif" font-size="14" font-weight="bold" lengthAdjust="spacing" textLength="110" x="226" y="75.9951">Infrastructure</text><!--MD5=[7a83628ac60894de8f7ccce91cd32b26]
cluster PERSIST--><rect fill="#FFFFFF" filter="url(#fjyegxwx2bj8k)" height="221" style="stroke:#000000;stroke-width:1.5;" width="134" x="55" y="281"/><rect fill="#FFFFFF" height="10" style="stroke:#000000;stroke-width:1.5;" width="15" x="169" y="286"/><rect fill="#FFFFFF" height="2" style="stroke:#000000;stroke-width:1.5;" width="4" x="167" y="288"/><rect fill="#FFFFFF" height="2" style="stroke:#000000;stroke-width:1.5;" width="4" x="167" y="292"/><text fill="#000000" font-family="sans-serif" font-size="14" font-weight="bold" lengthAdjust="spacing" textLength="94" x="75" y="306.9951">Presistence</text><!--MD5=[e827ccb1cbd1809ec2e49ef4b2081f6a]
cluster ENDPOINT--><rect fill="#FFFFFF" filter="url(#fjyegxwx2bj8k)" height="237" style="stroke:#000000;stroke-width:1.5;" width="278" x="221" y="273"/><rect fill="#FFFFFF" height="10" style="stroke:#000000;stroke-width:1.5;" width="15" x="479" y="278"/><rect fill="#FFFFFF" height="2" style="stroke:#000000;stroke-width:1.5;" width="4" x="477" y="280"/><rect fill="#FFFFFF" height="2" style="stroke:#000000;stroke-width:1.5;" width="4" x="477" y="284"/><text fill="#000000" font-family="sans-serif" font-size="14" font-weight="bold" lengthAdjust="spacing" textLength="69" x="325.5" y="298.9951">Endpoint</text><!--MD5=[cd187d11655e4367e900de538d2f1d0c]
entity APP--><rect fill="#F8F8F8" filter="url(#fjyegxwx2bj8k)" height="46.2969" style="stroke:#383838;stroke-width:1.5;" width="115" x="537.5" y="558"/><rect fill="#F8F8F8" height="10" style="stroke:#383838;stroke-width:1.5;" width="15" x="632.5" y="563"/><rect fill="#F8F8F8" height="2" style="stroke:#383838;stroke-width:1.5;" width="4" x="630.5" y="565"/><rect fill="#F8F8F8" height="2" style="stroke:#383838;stroke-width:1.5;" width="4" x="630.5" y="569"/><text fill="#000000" font-family="sans-serif" font-size="14" lengthAdjust="spacing" textLength="75" x="552.5" y="590.9951">Application</text><!--MD5=[711fc6413308d66a33499ee50e557b5d]
entity DOM--><rect fill="#F8F8F8" filter="url(#fjyegxwx2bj8k)" height="46.2969" style="stroke:#383838;stroke-width:1.5;" width="93" x="538.5" y="1006"/><rect fill="#F8F8F8" height="10" style="stroke:#383838;stroke-width:1.5;" width="15" x="611.5" y="1011"/><rect fill="#F8F8F8" height="2" style="stroke:#383838;stroke-width:1.5;" width="4" x="609.5" y="1013"/><rect fill="#F8F8F8" height="2" style="stroke:#383838;stroke-width:1.5;" width="4" x="609.5" y="1017"/><text fill="#000000" font-family="sans-serif" font-size="14" lengthAdjust="spacing" textLength="53" x="553.5" y="1038.9951">Domain</text><!--MD5=[3dfc3527455eb72a4133679687dbe239]
entity DOM_SERV--><rect fill="#F8F8F8" filter="url(#fjyegxwx2bj8k)" height="46.2969" style="stroke:#383838;stroke-width:1.5;" width="155" x="507.5" y="782"/><rect fill="#F8F8F8" height="10" style="stroke:#383838;stroke-width:1.5;" width="15" x="642.5" y="787"/><rect fill="#F8F8F8" height="2" style="stroke:#383838;stroke-width:1.5;" width="4" x="640.5" y="789"/><rect fill="#F8F8F8" height="2" style="stroke:#383838;stroke-width:1.5;" width="4" x="640.5" y="793"/><text fill="#000000" font-family="sans-serif" font-size="14" lengthAdjust="spacing" textLength="115" x="522.5" y="814.9951">Domain Services</text><!--MD5=[30d85f3125b7a53865e5f4719123efb6]
entity APP_API--><ellipse cx="605" cy="463" fill="#F8F8F8" filter="url(#fjyegxwx2bj8k)" rx="8" ry="8" style="stroke:#383838;stroke-width:1.5;"/><text fill="#000000" font-family="sans-serif" font-size="14" lengthAdjust="spacing" textLength="100" x="555" y="492.9951">Application API</text><!--MD5=[0aefd3324de3ab8c3fd9c9ea0f687424]
entity DOM_API--><ellipse cx="585" cy="917" fill="#F8F8F8" filter="url(#fjyegxwx2bj8k)" rx="8" ry="8" style="stroke:#383838;stroke-width:1.5;"/><text fill="#000000" font-family="sans-serif" font-size="14" lengthAdjust="spacing" textLength="78" x="546" y="946.9951">Domain API</text><!--MD5=[44ea187545a283c559b3bae2fb79223f]
entity DOM_SERV_API--><ellipse cx="585" cy="693" fill="#F8F8F8" filter="url(#fjyegxwx2bj8k)" rx="8" ry="8" style="stroke:#383838;stroke-width:1.5;"/><text fill="#000000" font-family="sans-serif" font-size="14" lengthAdjust="spacing" textLength="140" x="515" y="722.9951">Domain Services API</text><!--MD5=[50c35d0a5350f8e8f48a6d3669f54f50]
entity BOOT--><rect fill="#F8F8F8" filter="url(#fjyegxwx2bj8k)" height="46.2969" style="stroke:#383838;stroke-width:1.5;" width="73" x="249.5" y="203"/><rect fill="#F8F8F8" height="10" style="stroke:#383838;stroke-width:1.5;" width="15" x="302.5" y="208"/><rect fill="#F8F8F8" height="2" style="stroke:#383838;stroke-width:1.5;" width="4" x="300.5" y="210"/><rect fill="#F8F8F8" height="2" style="stroke:#383838;stroke-width:1.5;" width="4" x="300.5" y="214"/><text fill="#000000" font-family="sans-serif" font-size="14" lengthAdjust="spacing" textLength="33" x="264.5" y="235.9951">Boot</text><!--MD5=[44f07762fab2e804df8e0636e93cffbe]
entity BOOT_API--><ellipse cx="286" cy="114" fill="#F8F8F8" filter="url(#fjyegxwx2bj8k)" rx="8" ry="8" style="stroke:#383838;stroke-width:1.5;"/><text fill="#000000" font-family="sans-serif" font-size="14" lengthAdjust="spacing" textLength="58" x="257" y="143.9951">Boot API</text><!--MD5=[e8f61fc9e6949b2891b48f1d9fff5dab]
entity POSTG--><rect fill="#F8F8F8" filter="url(#fjyegxwx2bj8k)" height="46.2969" style="stroke:#383838;stroke-width:1.5;" width="102" x="71" y="440"/><rect fill="#F8F8F8" height="10" style="stroke:#383838;stroke-width:1.5;" width="15" x="153" y="445"/><rect fill="#F8F8F8" height="2" style="stroke:#383838;stroke-width:1.5;" width="4" x="151" y="447"/><rect fill="#F8F8F8" height="2" style="stroke:#383838;stroke-width:1.5;" width="4" x="151" y="451"/><text fill="#000000" font-family="sans-serif" font-size="14" lengthAdjust="spacing" textLength="62" x="86" y="472.9951">Postgres</text><!--MD5=[70e882393759605d085bbd393502e685]
entity POSTG_API--><ellipse cx="122" cy="345" fill="#F8F8F8" filter="url(#fjyegxwx2bj8k)" rx="8" ry="8" style="stroke:#383838;stroke-width:1.5;"/><text fill="#000000" font-family="sans-serif" font-size="14" lengthAdjust="spacing" textLength="87" x="78.5" y="374.9951">Postgres API</text><!--MD5=[eefed110d7d8a33cb70be22dd9d01c77]
entity GRAPH--><rect fill="#F8F8F8" filter="url(#fjyegxwx2bj8k)" height="46.2969" style="stroke:#383838;stroke-width:1.5;" width="94" x="362" y="440"/><rect fill="#F8F8F8" height="10" style="stroke:#383838;stroke-width:1.5;" width="15" x="436" y="445"/><rect fill="#F8F8F8" height="2" style="stroke:#383838;stroke-width:1.5;" width="4" x="434" y="447"/><rect fill="#F8F8F8" height="2" style="stroke:#383838;stroke-width:1.5;" width="4" x="434" y="451"/><text fill="#000000" font-family="sans-serif" font-size="14" lengthAdjust="spacing" textLength="54" x="377" y="472.9951">Graphql</text><!--MD5=[66db70f94ccbac3c79bd754cb956443f]
entity AMQP--><rect fill="#F8F8F8" filter="url(#fjyegxwx2bj8k)" height="46.2969" style="stroke:#383838;stroke-width:1.5;" width="81" x="245.5" y="440"/><rect fill="#F8F8F8" height="10" style="stroke:#383838;stroke-width:1.5;" width="15" x="306.5" y="445"/><rect fill="#F8F8F8" height="2" style="stroke:#383838;stroke-width:1.5;" width="4" x="304.5" y="447"/><rect fill="#F8F8F8" height="2" style="stroke:#383838;stroke-width:1.5;" width="4" x="304.5" y="451"/><text fill="#000000" font-family="sans-serif" font-size="14" lengthAdjust="spacing" textLength="41" x="260.5" y="472.9951">AMQP</text><!--MD5=[c8ee6569ca67e1620e4e7d4ee0399787]
entity GRAPH_API--><ellipse cx="409" cy="345" fill="#F8F8F8" filter="url(#fjyegxwx2bj8k)" rx="8" ry="8" style="stroke:#383838;stroke-width:1.5;"/><text fill="#000000" font-family="sans-serif" font-size="14" lengthAdjust="spacing" textLength="79" x="369.5" y="374.9951">Graphql API</text><!--MD5=[f360c852f81daa4ad66be7df7a5c9a3d]
entity AMQP_API--><ellipse cx="286" cy="345" fill="#F8F8F8" filter="url(#fjyegxwx2bj8k)" rx="8" ry="8" style="stroke:#383838;stroke-width:1.5;"/><text fill="#000000" font-family="sans-serif" font-size="14" lengthAdjust="spacing" textLength="66" x="253" y="374.9951">AMQP API</text><!--MD5=[160c4f6ce35ebd0c56b75ff8de26807c]
link GRAPH_API to GRAPH--><path d="M409,354.34 C409,372.01 409,413.68 409,439.69 " fill="none" id="GRAPH_API-GRAPH" style="stroke:#383838;stroke-width:1.0;"/><!--MD5=[14cf9b7186fc426919be12717f53f1a1]
link DOM_API to DOM--><path d="M585,926.27 C585,942.96 585,981.16 585,1005.71 " fill="none" id="DOM_API-DOM" style="stroke:#383838;stroke-width:1.0;"/><!--MD5=[b929a7d98f1772b10f9ae2757a6ed60f]
link DOM_SERV_API to DOM_SERV--><path d="M585,702.27 C585,718.96 585,757.16 585,781.71 " fill="none" id="DOM_SERV_API-DOM_SERV" style="stroke:#383838;stroke-width:1.0;"/><!--MD5=[6c47b63cf1ccf71776fb2fb1146b89bd]
link POSTG_API to POSTG--><path d="M122,354.34 C122,372.01 122,413.68 122,439.69 " fill="none" id="POSTG_API-POSTG" style="stroke:#383838;stroke-width:1.0;"/><!--MD5=[144eb759bece83ea8e8de5d37013052c]
link AMQP_API to AMQP--><path d="M286,354.34 C286,372.01 286,413.68 286,439.69 " fill="none" id="AMQP_API-AMQP" style="stroke:#383838;stroke-width:1.0;"/><!--MD5=[9bc3545913d2ece8bc1c8e2c39a9583d]
link APP_API to APP--><path d="M604.28,472.34 C602.76,490.01 599.17,531.68 596.92,557.69 " fill="none" id="APP_API-APP" style="stroke:#383838;stroke-width:1.0;"/><!--MD5=[960e631b20e6d0a5a1769365a28f267a]
link BOOT_API to BOOT--><path d="M286,123.27 C286,139.96 286,178.16 286,202.71 " fill="none" id="BOOT_API-BOOT" style="stroke:#383838;stroke-width:1.0;"/><!--MD5=[4650e1908a5caa745e5a54df07a9a97d]
link ENDPOINT to APP_API--><path d="M499.1125,354.2549 C499.2962,354.4419 499.4826,354.6316 499.6717,354.824 C500.0497,355.2087 500.4383,355.6041 500.837,356.0098 C501.6345,356.8213 502.4724,357.6741 503.348,358.565 C510.3522,365.6925 519.7594,375.265 530.0338,385.72 C550.5825,406.63 574.6,431.07 589.8,446.54 " fill="none" id="ENDPOINT-to-APP_API" style="stroke:#383838;stroke-width:1.0;"/><path d="M600.9258,445.7821 A9,9 0 0 0 588.8452 457.621" style="stroke:#383838;stroke-width:1.5;fill:none;"/><!--MD5=[845c2c4eee2fae498ac38234a5aedbc1]
link APP to DOM_SERV_API--><path d="M592.98,604.26 C591.11,624.74 588.39,654.73 586.65,673.81 " fill="none" id="APP-to-DOM_SERV_API" style="stroke:#383838;stroke-width:1.0;"/><path d="M594.44,681.5556 A9,9 0 0 0 577.5942 680.033" style="stroke:#383838;stroke-width:1.5;fill:none;"/><!--MD5=[4c0b42fcf9c300baa81263005d99b18a]
link DOM_SERV to DOM_API--><path d="M585,828.26 C585,848.74 585,878.73 585,897.81 " fill="none" id="DOM_SERV-to-DOM_API" style="stroke:#383838;stroke-width:1.0;"/><path d="M593.4572,904.7818 A9,9 0 0 0 576.5428 904.7818" style="stroke:#383838;stroke-width:1.5;fill:none;"/><!--MD5=[3ab433faba4759891346c22302c8e76e]
link BOOT to GRAPH_API--><path d="M322.61,242.26 C330.43,246.41 338.34,251.35 345,257 C368.87,277.24 388.82,308.07 399.81,327.08 " fill="none" id="BOOT-to-GRAPH_API" style="stroke:#383838;stroke-width:1.0;"/><path d="M410.5963,329.0032 A9,9 0 0 0 395.8367 337.2647" style="stroke:#383838;stroke-width:1.5;fill:none;"/><!--MD5=[4379324cd2c7c1b2cbe82266d6d3e2c8]
link BOOT to POSTG_API--><path d="M249.5,244.83 C242.55,248.61 235.44,252.75 229,257 C194.76,279.61 158.41,310.94 138.12,329.18 " fill="none" id="BOOT-to-POSTG_API" style="stroke:#383838;stroke-width:1.0;"/><path d="M138.6486,340.1225 A9,9 0 0 0 127.2947 327.585" style="stroke:#383838;stroke-width:1.5;fill:none;"/><!--MD5=[825637d1efb63c5c00802efb716c3c83]
link BOOT to AMQP_API--><path d="M286,249.01 C286,271.13 286,304.86 286,325.6 " fill="none" id="BOOT-to-AMQP_API" style="stroke:#383838;stroke-width:1.0;"/><path d="M294.4572,332.8118 A9,9 0 0 0 277.5428 332.8118" style="stroke:#383838;stroke-width:1.5;fill:none;"/><!--MD5=[e4a1e22c9d3d85afca7eb5533336a365]
@startuml logical-view-level3-data-processor-master-backend

skinparam Monochrome true

component "Data Processor Master Backend" {
    component "Application" as APP
    component "Domain" as DOM
    component "Domain Services" as DOM_SERV
    component "Infrastructure" as INFRA {
        component "Boot" as BOOT
        component "Presistence" as PERSIST {
            component "Postgres" as POSTG
            interface "Postgres API" as POSTG_API
        }
        component "Endpoint" as ENDPOINT {
            component "Graphql" as GRAPH
            component "AMQP" as AMQP
            interface "Graphql API" as GRAPH_API
            interface "AMQP API" as AMQP_API
        }
        interface "Boot API" as BOOT_API
    }

    interface "Application API" as APP_API
    interface "Domain API" as DOM_API
    interface "Domain Services API" as DOM_SERV_API

    GRAPH_API - - GRAPH
    DOM_API - - DOM
    DOM_SERV_API - - DOM_SERV

    POSTG_API - - POSTG
    AMQP_API - - AMQP
    APP_API - - APP
    BOOT_API - - BOOT

    ENDPOINT - -( APP_API
    APP - -( DOM_SERV_API
    DOM_SERV - -( DOM_API
    BOOT - -( GRAPH_API
    BOOT - -( POSTG_API
    BOOT - -( AMQP_API
}

@enduml

PlantUML version 1.2021.9(Sun Jul 25 11:13:56 WEST 2021)
(GPL source distribution)
Java Runtime: OpenJDK Runtime Environment
JVM: OpenJDK 64-Bit Server VM
Default Encoding: UTF-8
Language: en
Country: GB
--></g></svg>