<?xml version="1.0" encoding="UTF-8" standalone="no"?><svg xmlns="http://www.w3.org/2000/svg" xmlns:xlink="http://www.w3.org/1999/xlink" contentScriptType="application/ecmascript" contentStyleType="text/css" height="951px" preserveAspectRatio="none" style="width:344px;height:951px;background:#FFFFFF;" version="1.1" viewBox="0 0 344 951" width="344px" zoomAndPan="magnify"><defs><filter height="300%" id="f1jtsdkr7iv83m" width="300%" x="-1" y="-1"><feGaussianBlur result="blurOut" stdDeviation="2.0"/><feColorMatrix in="blurOut" result="blurOut2" type="matrix" values="0 0 0 0 0 0 0 0 0 0 0 0 0 0 0 0 0 0 .4 0"/><feOffset dx="4.0" dy="4.0" in="blurOut2" result="blurOut3"/><feBlend in="SourceGraphic" in2="blurOut3" mode="normal"/></filter></defs><g><!--MD5=[4af3b82030fedc1f8e32fcb986fac18b]
cluster LGT 92 GPS Sensor Gateway--><rect fill="#FFFFFF" filter="url(#f1jtsdkr7iv83m)" height="930" style="stroke:#000000;stroke-width:1.5;" width="323" x="7" y="7"/><rect fill="#FFFFFF" height="10" style="stroke:#000000;stroke-width:1.5;" width="15" x="310" y="12"/><rect fill="#FFFFFF" height="2" style="stroke:#000000;stroke-width:1.5;" width="4" x="308" y="14"/><rect fill="#FFFFFF" height="2" style="stroke:#000000;stroke-width:1.5;" width="4" x="308" y="18"/><text fill="#000000" font-family="sans-serif" font-size="14" font-weight="bold" lengthAdjust="spacing" textLength="228" x="54.5" y="32.9951">LGT 92 GPS Sensor Gateway</text><!--MD5=[70becb833e031d8ab2b25bb6fd041c2b]
cluster INFRA--><rect fill="#FFFFFF" filter="url(#f1jtsdkr7iv83m)" height="463" style="stroke:#000000;stroke-width:1.5;" width="275" x="31" y="50"/><rect fill="#FFFFFF" height="10" style="stroke:#000000;stroke-width:1.5;" width="15" x="286" y="55"/><rect fill="#FFFFFF" height="2" style="stroke:#000000;stroke-width:1.5;" width="4" x="284" y="57"/><rect fill="#FFFFFF" height="2" style="stroke:#000000;stroke-width:1.5;" width="4" x="284" y="61"/><text fill="#000000" font-family="sans-serif" font-size="14" font-weight="bold" lengthAdjust="spacing" textLength="110" x="113.5" y="75.9951">Infrastructure</text><!--MD5=[e827ccb1cbd1809ec2e49ef4b2081f6a]
cluster ENDPOINT--><rect fill="#FFFFFF" filter="url(#f1jtsdkr7iv83m)" height="215" style="stroke:#000000;stroke-width:1.5;" width="227" x="55" y="274"/><rect fill="#FFFFFF" height="10" style="stroke:#000000;stroke-width:1.5;" width="15" x="262" y="279"/><rect fill="#FFFFFF" height="2" style="stroke:#000000;stroke-width:1.5;" width="4" x="260" y="281"/><rect fill="#FFFFFF" height="2" style="stroke:#000000;stroke-width:1.5;" width="4" x="260" y="285"/><text fill="#000000" font-family="sans-serif" font-size="14" font-weight="bold" lengthAdjust="spacing" textLength="69" x="134" y="299.9951">Endpoint</text><!--MD5=[cd187d11655e4367e900de538d2f1d0c]
entity APP--><rect fill="#F8F8F8" filter="url(#f1jtsdkr7iv83m)" height="46.2969" style="stroke:#383838;stroke-width:1.5;" width="115" x="111.5" y="651"/><rect fill="#F8F8F8" height="10" style="stroke:#383838;stroke-width:1.5;" width="15" x="206.5" y="656"/><rect fill="#F8F8F8" height="2" style="stroke:#383838;stroke-width:1.5;" width="4" x="204.5" y="658"/><rect fill="#F8F8F8" height="2" style="stroke:#383838;stroke-width:1.5;" width="4" x="204.5" y="662"/><text fill="#000000" font-family="sans-serif" font-size="14" lengthAdjust="spacing" textLength="75" x="126.5" y="683.9951">Application</text><!--MD5=[b643aff2f6de854ee098fa19746d9d7e]
entity MOD--><rect fill="#F8F8F8" filter="url(#f1jtsdkr7iv83m)" height="46.2969" style="stroke:#383838;stroke-width:1.5;" width="82" x="128" y="875"/><rect fill="#F8F8F8" height="10" style="stroke:#383838;stroke-width:1.5;" width="15" x="190" y="880"/><rect fill="#F8F8F8" height="2" style="stroke:#383838;stroke-width:1.5;" width="4" x="188" y="882"/><rect fill="#F8F8F8" height="2" style="stroke:#383838;stroke-width:1.5;" width="4" x="188" y="886"/><text fill="#000000" font-family="sans-serif" font-size="14" lengthAdjust="spacing" textLength="42" x="143" y="907.9951">Model</text><!--MD5=[30d85f3125b7a53865e5f4719123efb6]
entity APP_API--><ellipse cx="169" cy="562" fill="#F8F8F8" filter="url(#f1jtsdkr7iv83m)" rx="8" ry="8" style="stroke:#383838;stroke-width:1.5;"/><text fill="#000000" font-family="sans-serif" font-size="14" lengthAdjust="spacing" textLength="100" x="119" y="591.9951">Application API</text><!--MD5=[fb73fbd093c911a4b8bb52161712f200]
entity MOD_API--><ellipse cx="169" cy="786" fill="#F8F8F8" filter="url(#f1jtsdkr7iv83m)" rx="8" ry="8" style="stroke:#383838;stroke-width:1.5;"/><text fill="#000000" font-family="sans-serif" font-size="14" lengthAdjust="spacing" textLength="67" x="135.5" y="815.9951">Model API</text><!--MD5=[50c35d0a5350f8e8f48a6d3669f54f50]
entity BOOT--><rect fill="#F8F8F8" filter="url(#f1jtsdkr7iv83m)" height="46.2969" style="stroke:#383838;stroke-width:1.5;" width="73" x="132.5" y="203"/><rect fill="#F8F8F8" height="10" style="stroke:#383838;stroke-width:1.5;" width="15" x="185.5" y="208"/><rect fill="#F8F8F8" height="2" style="stroke:#383838;stroke-width:1.5;" width="4" x="183.5" y="210"/><rect fill="#F8F8F8" height="2" style="stroke:#383838;stroke-width:1.5;" width="4" x="183.5" y="214"/><text fill="#000000" font-family="sans-serif" font-size="14" lengthAdjust="spacing" textLength="33" x="147.5" y="235.9951">Boot</text><!--MD5=[44f07762fab2e804df8e0636e93cffbe]
entity BOOT_API--><ellipse cx="169" cy="114" fill="#F8F8F8" filter="url(#f1jtsdkr7iv83m)" rx="8" ry="8" style="stroke:#383838;stroke-width:1.5;"/><text fill="#000000" font-family="sans-serif" font-size="14" lengthAdjust="spacing" textLength="58" x="140" y="143.9951">Boot API</text><!--MD5=[bd5f618b12816bd4b75416c1e6e531a6]
entity REST--><rect fill="#F8F8F8" filter="url(#f1jtsdkr7iv83m)" height="46.2969" style="stroke:#383838;stroke-width:1.5;" width="77" x="187.5" y="427"/><rect fill="#F8F8F8" height="10" style="stroke:#383838;stroke-width:1.5;" width="15" x="244.5" y="432"/><rect fill="#F8F8F8" height="2" style="stroke:#383838;stroke-width:1.5;" width="4" x="242.5" y="434"/><rect fill="#F8F8F8" height="2" style="stroke:#383838;stroke-width:1.5;" width="4" x="242.5" y="438"/><text fill="#000000" font-family="sans-serif" font-size="14" lengthAdjust="spacing" textLength="37" x="202.5" y="459.9951">REST</text><!--MD5=[66db70f94ccbac3c79bd754cb956443f]
entity AMQP--><rect fill="#F8F8F8" filter="url(#f1jtsdkr7iv83m)" height="46.2969" style="stroke:#383838;stroke-width:1.5;" width="81" x="71.5" y="427"/><rect fill="#F8F8F8" height="10" style="stroke:#383838;stroke-width:1.5;" width="15" x="132.5" y="432"/><rect fill="#F8F8F8" height="2" style="stroke:#383838;stroke-width:1.5;" width="4" x="130.5" y="434"/><rect fill="#F8F8F8" height="2" style="stroke:#383838;stroke-width:1.5;" width="4" x="130.5" y="438"/><text fill="#000000" font-family="sans-serif" font-size="14" lengthAdjust="spacing" textLength="41" x="86.5" y="459.9951">AMQP</text><!--MD5=[4a72e563beaae6ee8f52609bd00b0b4e]
entity REST_API--><ellipse cx="227" cy="338" fill="#F8F8F8" filter="url(#f1jtsdkr7iv83m)" rx="8" ry="8" style="stroke:#383838;stroke-width:1.5;"/><text fill="#000000" font-family="sans-serif" font-size="14" lengthAdjust="spacing" textLength="62" x="196" y="367.9951">REST API</text><!--MD5=[f360c852f81daa4ad66be7df7a5c9a3d]
entity AMQP_API--><ellipse cx="112" cy="338" fill="#F8F8F8" filter="url(#f1jtsdkr7iv83m)" rx="8" ry="8" style="stroke:#383838;stroke-width:1.5;"/><text fill="#000000" font-family="sans-serif" font-size="14" lengthAdjust="spacing" textLength="66" x="79" y="367.9951">AMQP API</text><!--MD5=[7a9ef8a27ebc46a167bf2f5b243e32ae]
link REST_API to REST--><path d="M226.92,347.27 C226.77,363.96 226.43,402.16 226.2,426.71 " fill="none" id="REST_API-REST" style="stroke:#383838;stroke-width:1.0;"/><!--MD5=[144eb759bece83ea8e8de5d37013052c]
link AMQP_API to AMQP--><path d="M112,347.27 C112,363.96 112,402.16 112,426.71 " fill="none" id="AMQP_API-AMQP" style="stroke:#383838;stroke-width:1.0;"/><!--MD5=[9bc3545913d2ece8bc1c8e2c39a9583d]
link APP_API to APP--><path d="M169,571.27 C169,587.96 169,626.16 169,650.71 " fill="none" id="APP_API-APP" style="stroke:#383838;stroke-width:1.0;"/><!--MD5=[960e631b20e6d0a5a1769365a28f267a]
link BOOT_API to BOOT--><path d="M169,123.27 C169,139.96 169,178.16 169,202.71 " fill="none" id="BOOT_API-BOOT" style="stroke:#383838;stroke-width:1.0;"/><!--MD5=[d02a4d981f32128341fbbf8f8a45165b]
link MOD_API to MOD--><path d="M169,795.27 C169,811.96 169,850.16 169,874.71 " fill="none" id="MOD_API-MOD" style="stroke:#383838;stroke-width:1.0;"/><!--MD5=[d17cd74db45980f78b1a1780ae1c18df]
link APP to MOD_API--><path d="M169,697.26 C169,717.74 169,747.73 169,766.81 " fill="none" id="APP-to-MOD_API" style="stroke:#383838;stroke-width:1.0;"/><path d="M177.4572,773.7818 A9,9 0 0 0 160.5428 773.7818" style="stroke:#383838;stroke-width:1.5;fill:none;"/><!--MD5=[411b2be29a8d2293d28c0db98fef1f07]
link BOOT to REST_API--><path d="M180.74,249.26 C191.74,270.12 207.94,300.86 217.97,319.87 " fill="none" id="BOOT-to-REST_API" style="stroke:#383838;stroke-width:1.0;"/><path d="M228.7585,322.1955 A9,9 0 0 0 213.7927 330.0774" style="stroke:#383838;stroke-width:1.5;fill:none;"/><!--MD5=[825637d1efb63c5c00802efb716c3c83]
link BOOT to AMQP_API--><path d="M157.47,249.26 C146.66,270.12 130.73,300.86 120.88,319.87 " fill="none" id="BOOT-to-AMQP_API" style="stroke:#383838;stroke-width:1.0;"/><path d="M125.1456,330.0145 A9,9 0 0 0 110.1246 322.2383" style="stroke:#383838;stroke-width:1.5;fill:none;"/><!--MD5=[50ee9e5020b7eeb8cea5a65291237e8d]
link AMQP to APP_API--><path d="M123.53,473.26 C134.34,494.12 150.27,524.86 160.12,543.87 " fill="none" id="AMQP-to-APP_API" style="stroke:#383838;stroke-width:1.0;"/><path d="M170.8754,546.2383 A9,9 0 0 0 155.8544 554.0145" style="stroke:#383838;stroke-width:1.5;fill:none;"/><!--MD5=[c2f36cce8ec79a85ec8ad13d9fc1ff80]
link REST to APP_API--><path d="M214.47,473.26 C203.66,494.12 187.73,524.86 177.88,543.87 " fill="none" id="REST-to-APP_API" style="stroke:#383838;stroke-width:1.0;"/><path d="M182.1456,554.0145 A9,9 0 0 0 167.1246 546.2383" style="stroke:#383838;stroke-width:1.5;fill:none;"/><!--MD5=[a8e3d49d68e8ab649aa1897dcc442bf7]
@startuml logical-view-level3-lgt-92-gps-sensor-gateway

skinparam Monochrome true

component "LGT 92 GPS Sensor Gateway" {
    component "Application" as APP
    component "Model" as MOD
    component "Infrastructure" as INFRA {
        component "Boot" as BOOT
        component "Endpoint" as ENDPOINT {
            component "REST" as REST
            component "AMQP" as AMQP
            interface "REST API" as REST_API
            interface "AMQP API" as AMQP_API
        }
        () "Boot API" as BOOT_API
    }

    () "Application API" as APP_API
    () "Model API" as MOD_API

    REST_API - - REST
    AMQP_API - - AMQP

    APP_API - - APP
    BOOT_API - - BOOT
    MOD_API - - MOD

    APP - -( MOD_API
    BOOT - -( REST_API
    BOOT - -( AMQP_API

    AMQP - -( APP_API
    REST - -( APP_API
}

@enduml

PlantUML version 1.2021.9(Sun Jul 25 11:13:56 WEST 2021)
(GPL source distribution)
Java Runtime: OpenJDK Runtime Environment
JVM: OpenJDK 64-Bit Server VM
Default Encoding: UTF-8
Language: en
Country: GB
--></g></svg>