<?xml version="1.0" encoding="UTF-8" standalone="no"?><svg xmlns="http://www.w3.org/2000/svg" xmlns:xlink="http://www.w3.org/1999/xlink" contentScriptType="application/ecmascript" contentStyleType="text/css" height="714px" preserveAspectRatio="none" style="width:405px;height:714px;background:#FFFFFF;" version="1.1" viewBox="0 0 405 714" width="405px" zoomAndPan="magnify"><defs><filter height="300%" id="f1s0nvsdn7qld" width="300%" x="-1" y="-1"><feGaussianBlur result="blurOut" stdDeviation="2.0"/><feColorMatrix in="blurOut" result="blurOut2" type="matrix" values="0 0 0 0 0 0 0 0 0 0 0 0 0 0 0 0 0 0 .4 0"/><feOffset dx="4.0" dy="4.0" in="blurOut2" result="blurOut3"/><feBlend in="SourceGraphic" in2="blurOut3" mode="normal"/></filter></defs><g><!--MD5=[ff8c8003ac7407fdf996edc1fc868daa]
cluster Data Processor Frontend--><rect fill="#FFFFFF" filter="url(#f1s0nvsdn7qld)" height="693" style="stroke:#000000;stroke-width:1.5;" width="384" x="7" y="7"/><rect fill="#FFFFFF" height="10" style="stroke:#000000;stroke-width:1.5;" width="15" x="371" y="12"/><rect fill="#FFFFFF" height="2" style="stroke:#000000;stroke-width:1.5;" width="4" x="369" y="14"/><rect fill="#FFFFFF" height="2" style="stroke:#000000;stroke-width:1.5;" width="4" x="369" y="18"/><text fill="#000000" font-family="sans-serif" font-size="14" font-weight="bold" lengthAdjust="spacing" textLength="172" x="113" y="34.9659">Data Processor Frontend</text><!--MD5=[b728f5a8a4e5df9f34c01e5b4763eade]
entity COMP--><rect fill="#F8F8F8" filter="url(#f1s0nvsdn7qld)" height="49.0679" style="stroke:#383838;stroke-width:1.5;" width="125" x="139.5" y="169"/><rect fill="#F8F8F8" height="10" style="stroke:#383838;stroke-width:1.5;" width="15" x="244.5" y="174"/><rect fill="#F8F8F8" height="2" style="stroke:#383838;stroke-width:1.5;" width="4" x="242.5" y="176"/><rect fill="#F8F8F8" height="2" style="stroke:#383838;stroke-width:1.5;" width="4" x="242.5" y="180"/><text fill="#000000" font-family="sans-serif" font-size="14" lengthAdjust="spacing" textLength="85" x="154.5" y="203.9659">Components</text><!--MD5=[97de1061a0ab8445a0a4bfc3e13b8318]
entity DTO--><rect fill="#F8F8F8" filter="url(#f1s0nvsdn7qld)" height="49.0679" style="stroke:#383838;stroke-width:1.5;" width="77" x="288.5" y="635"/><rect fill="#F8F8F8" height="10" style="stroke:#383838;stroke-width:1.5;" width="15" x="345.5" y="640"/><rect fill="#F8F8F8" height="2" style="stroke:#383838;stroke-width:1.5;" width="4" x="343.5" y="642"/><rect fill="#F8F8F8" height="2" style="stroke:#383838;stroke-width:1.5;" width="4" x="343.5" y="646"/><text fill="#000000" font-family="sans-serif" font-size="14" lengthAdjust="spacing" textLength="37" x="303.5" y="669.9659">DTOS</text><!--MD5=[becb97998b7b4af08e2de339e4eb8c19]
entity MAP--><rect fill="#F8F8F8" filter="url(#f1s0nvsdn7qld)" height="49.0679" style="stroke:#383838;stroke-width:1.5;" width="100" x="24" y="402"/><rect fill="#F8F8F8" height="10" style="stroke:#383838;stroke-width:1.5;" width="15" x="104" y="407"/><rect fill="#F8F8F8" height="2" style="stroke:#383838;stroke-width:1.5;" width="4" x="102" y="409"/><rect fill="#F8F8F8" height="2" style="stroke:#383838;stroke-width:1.5;" width="4" x="102" y="413"/><text fill="#000000" font-family="sans-serif" font-size="14" lengthAdjust="spacing" textLength="60" x="39" y="436.9659">Mappers</text><!--MD5=[b643aff2f6de854ee098fa19746d9d7e]
entity MOD--><rect fill="#F8F8F8" filter="url(#f1s0nvsdn7qld)" height="49.0679" style="stroke:#383838;stroke-width:1.5;" width="82" x="161" y="402"/><rect fill="#F8F8F8" height="10" style="stroke:#383838;stroke-width:1.5;" width="15" x="223" y="407"/><rect fill="#F8F8F8" height="2" style="stroke:#383838;stroke-width:1.5;" width="4" x="221" y="409"/><rect fill="#F8F8F8" height="2" style="stroke:#383838;stroke-width:1.5;" width="4" x="221" y="413"/><text fill="#000000" font-family="sans-serif" font-size="14" lengthAdjust="spacing" textLength="42" x="176" y="436.9659">Model</text><!--MD5=[34e8fa806e7835ee7b6461df5000ecf5]
entity SERV--><rect fill="#F8F8F8" filter="url(#f1s0nvsdn7qld)" height="49.0679" style="stroke:#383838;stroke-width:1.5;" width="95" x="279.5" y="402"/><rect fill="#F8F8F8" height="10" style="stroke:#383838;stroke-width:1.5;" width="15" x="354.5" y="407"/><rect fill="#F8F8F8" height="2" style="stroke:#383838;stroke-width:1.5;" width="4" x="352.5" y="409"/><rect fill="#F8F8F8" height="2" style="stroke:#383838;stroke-width:1.5;" width="4" x="352.5" y="413"/><text fill="#000000" font-family="sans-serif" font-size="14" lengthAdjust="spacing" textLength="55" x="294.5" y="436.9659">Services</text><!--MD5=[26c2ca52e6659ff74bf8b31ef51febf1]
entity COMP_API--><ellipse cx="202" cy="77" fill="#F8F8F8" filter="url(#f1s0nvsdn7qld)" rx="8" ry="8" style="stroke:#383838;stroke-width:1.5;"/><text fill="#000000" font-family="sans-serif" font-size="14" lengthAdjust="spacing" textLength="15" x="194.5" y="108.9659">UI</text><!--MD5=[03daee95c47d28e2008f8fcdb06be569]
entity DTO_API--><ellipse cx="327" cy="543" fill="#F8F8F8" filter="url(#f1s0nvsdn7qld)" rx="8" ry="8" style="stroke:#383838;stroke-width:1.5;"/><text fill="#000000" font-family="sans-serif" font-size="14" lengthAdjust="spacing" textLength="62" x="296" y="574.9659">DTOs API</text><!--MD5=[38a9b1639d19c51278eb97e5a118e1f1]
entity MAP_API--><ellipse cx="74" cy="310" fill="#F8F8F8" filter="url(#f1s0nvsdn7qld)" rx="8" ry="8" style="stroke:#383838;stroke-width:1.5;"/><text fill="#000000" font-family="sans-serif" font-size="14" lengthAdjust="spacing" textLength="86" x="31" y="341.9659">Mappers API</text><!--MD5=[fb73fbd093c911a4b8bb52161712f200]
entity MOD_API--><ellipse cx="202" cy="310" fill="#F8F8F8" filter="url(#f1s0nvsdn7qld)" rx="8" ry="8" style="stroke:#383838;stroke-width:1.5;"/><text fill="#000000" font-family="sans-serif" font-size="14" lengthAdjust="spacing" textLength="68" x="168" y="341.9659">Model API</text><!--MD5=[5d8f268093428ba7660bd523078b774e]
entity SERV_API--><ellipse cx="327" cy="310" fill="#F8F8F8" filter="url(#f1s0nvsdn7qld)" rx="8" ry="8" style="stroke:#383838;stroke-width:1.5;"/><text fill="#000000" font-family="sans-serif" font-size="14" lengthAdjust="spacing" textLength="81" x="286.5" y="341.9659">Services API</text><!--MD5=[665323d6b752a8751c259c9b81860fbd]
link COMP_API to COMP--><path d="M202,86.23 C202,103.26 202,142.89 202,168.65 " fill="none" id="COMP_API-COMP" style="stroke:#383838;stroke-width:1.0;"/><!--MD5=[978c0e1c0a7459d8a1dc4d7de3a4d93f]
link DTO_API to DTO--><path d="M327,552.23 C327,569.26 327,608.89 327,634.65 " fill="none" id="DTO_API-DTO" style="stroke:#383838;stroke-width:1.0;"/><!--MD5=[f9ccec574c9d7d912a785d7186889d54]
link MAP_API to MAP--><path d="M74,319.23 C74,336.26 74,375.89 74,401.65 " fill="none" id="MAP_API-MAP" style="stroke:#383838;stroke-width:1.0;"/><!--MD5=[d02a4d981f32128341fbbf8f8a45165b]
link MOD_API to MOD--><path d="M202,319.23 C202,336.26 202,375.89 202,401.65 " fill="none" id="MOD_API-MOD" style="stroke:#383838;stroke-width:1.0;"/><!--MD5=[e8266c76ed2ad6b443ae2655b4bcbc35]
link SERV_API to SERV--><path d="M327,319.23 C327,336.26 327,375.89 327,401.65 " fill="none" id="SERV_API-SERV" style="stroke:#383838;stroke-width:1.0;"/><!--MD5=[10d4f52130aa1a624c894b7b96680471]
link SERV to DTO_API--><path d="M327,451.22 C327,472.8 327,504.18 327,523.82 " fill="none" id="SERV-to-DTO_API" style="stroke:#383838;stroke-width:1.0;"/><path d="M335.4572,530.7918 A9,9 0 0 0 318.5428 530.7918" style="stroke:#383838;stroke-width:1.5;fill:none;"/><!--MD5=[7fd19f5cade1c886f17d36ca75ddd44a]
link COMP to MOD_API--><path d="M202,218.22 C202,239.8 202,271.18 202,290.82 " fill="none" id="COMP-to-MOD_API" style="stroke:#383838;stroke-width:1.0;"/><path d="M210.4572,297.7918 A9,9 0 0 0 193.5428 297.7918" style="stroke:#383838;stroke-width:1.5;fill:none;"/><!--MD5=[c4d141063505c69177e8c2d9dc6285b9]
link COMP to MAP_API--><path d="M175.48,218.22 C150.01,241.01 112.31,274.73 90.75,294.01 " fill="none" id="COMP-to-MAP_API" style="stroke:#383838;stroke-width:1.0;"/><path d="M91.023,305.1206 A9,9 0 0 0 79.7452 292.5146" style="stroke:#383838;stroke-width:1.5;fill:none;"/><!--MD5=[16db6b5a63a1cfbf8d300951e8f69dbe]
link COMP to SERV_API--><path d="M227.9,218.22 C252.77,241.01 289.59,274.73 310.64,294.01 " fill="none" id="COMP-to-SERV_API" style="stroke:#383838;stroke-width:1.0;"/><path d="M321.5489,292.5488 A9,9 0 0 0 310.1445 305.0404" style="stroke:#383838;stroke-width:1.5;fill:none;"/><!--MD5=[b58f60c4be6386d1ab573b37b5fde745]
@startuml logical-view-level3-data-processor-frontend

skinparam Monochrome true

component "Data Processor Frontend" {
    component "Components" as COMP
    component "DTOS" as DTO
    component "Mappers" as MAP
    component "Model" as MOD
    component "Services" as SERV

    interface "UI" as COMP_API
    interface "DTOs API" as DTO_API
    interface "Mappers API" as MAP_API
    interface "Model API" as MOD_API
    interface "Services API" as SERV_API

    COMP_API - - COMP
    DTO_API - - DTO
    MAP_API - - MAP
    MOD_API - - MOD
    SERV_API - - SERV

    SERV - -( DTO_API

    COMP - -( MOD_API
    COMP - -( MAP_API
    COMP - -( SERV_API
}

@enduml

PlantUML version 1.2021.16(Wed Dec 08 17:25:22 WET 2021)
(GPL source distribution)
Java Runtime: OpenJDK Runtime Environment
JVM: OpenJDK 64-Bit Server VM
Default Encoding: UTF-8
Language: en
Country: GB
--></g></svg>