<?xml version="1.0" encoding="UTF-8" standalone="no"?><svg xmlns="http://www.w3.org/2000/svg" xmlns:xlink="http://www.w3.org/1999/xlink" contentScriptType="application/ecmascript" contentStyleType="text/css" height="816px" preserveAspectRatio="none" style="width:1351px;height:816px;background:#FFFFFF;" version="1.1" viewBox="0 0 1351 816" width="1351px" zoomAndPan="magnify"><defs/><g><!--MD5=[85f6e7297d1ad81d8c1382e17d44cf2c]
cluster Environment--><rect fill="#FFFFFF" height="751" style="stroke:#000000;stroke-width:1.5;" width="1281" x="7" y="59"/><rect fill="#FFFFFF" height="10" style="stroke:#000000;stroke-width:1.5;" width="15" x="1268" y="64"/><rect fill="#FFFFFF" height="2" style="stroke:#000000;stroke-width:1.5;" width="4" x="1266" y="66"/><rect fill="#FFFFFF" height="2" style="stroke:#000000;stroke-width:1.5;" width="4" x="1266" y="70"/><text fill="#000000" font-family="sans-serif" font-size="14" font-style="italic" lengthAdjust="spacing" textLength="69" x="613" y="84.9951">«System»</text><text fill="#000000" font-family="sans-serif" font-size="14" font-weight="bold" lengthAdjust="spacing" textLength="99" x="598" y="101.292">Environment</text><!--MD5=[2f974df144d935b84f61c768008119cd]
cluster UIAG--><rect fill="#FFFFFF" height="146" style="stroke:#000000;stroke-width:1.5;" width="546" x="39" y="126"/><rect fill="#FFFFFF" height="10" style="stroke:#000000;stroke-width:1.5;" width="15" x="565" y="131"/><rect fill="#FFFFFF" height="2" style="stroke:#000000;stroke-width:1.5;" width="4" x="563" y="133"/><rect fill="#FFFFFF" height="2" style="stroke:#000000;stroke-width:1.5;" width="4" x="563" y="137"/><text fill="#000000" font-family="sans-serif" font-size="14" font-style="italic" lengthAdjust="spacing" textLength="85" x="269.5" y="151.9951">«Container»</text><text fill="#000000" font-family="sans-serif" font-size="14" font-weight="bold" lengthAdjust="spacing" textLength="110" x="257" y="168.292">UI Aggregator</text><!--MD5=[2c8bfc6f691a2260a342f8a3a45a5f4e]
entity MB--><rect fill="#F8F8F8" height="62.5938" style="stroke:#383838;stroke-width:1.5;" width="153" x="444.5" y="731"/><rect fill="#F8F8F8" height="10" style="stroke:#383838;stroke-width:1.5;" width="15" x="577.5" y="736"/><rect fill="#F8F8F8" height="2" style="stroke:#383838;stroke-width:1.5;" width="4" x="575.5" y="738"/><rect fill="#F8F8F8" height="2" style="stroke:#383838;stroke-width:1.5;" width="4" x="575.5" y="742"/><text fill="#000000" font-family="sans-serif" font-size="14" font-style="italic" lengthAdjust="spacing" textLength="85" x="473.5" y="763.9951">«Container»</text><text fill="#000000" font-family="sans-serif" font-size="14" lengthAdjust="spacing" textLength="113" x="459.5" y="780.292">Message Broker</text><!--MD5=[07f1f74cdc79fa2fd2740ec7d7a64eca]
entity LTB--><rect fill="#F8F8F8" height="62.5938" style="stroke:#383838;stroke-width:1.5;" width="226" x="272" y="458"/><rect fill="#F8F8F8" height="10" style="stroke:#383838;stroke-width:1.5;" width="15" x="478" y="463"/><rect fill="#F8F8F8" height="2" style="stroke:#383838;stroke-width:1.5;" width="4" x="476" y="465"/><rect fill="#F8F8F8" height="2" style="stroke:#383838;stroke-width:1.5;" width="4" x="476" y="469"/><text fill="#000000" font-family="sans-serif" font-size="14" font-style="italic" lengthAdjust="spacing" textLength="85" x="337.5" y="490.9951">«Container»</text><text fill="#000000" font-family="sans-serif" font-size="14" lengthAdjust="spacing" textLength="186" x="287" y="507.292">Location Tracking Backend</text><!--MD5=[de9d829787e3a43b2ded327ec6864356]
entity DRB--><rect fill="#F8F8F8" height="62.5938" style="stroke:#383838;stroke-width:1.5;" width="214" x="23" y="458"/><rect fill="#F8F8F8" height="10" style="stroke:#383838;stroke-width:1.5;" width="15" x="217" y="463"/><rect fill="#F8F8F8" height="2" style="stroke:#383838;stroke-width:1.5;" width="4" x="215" y="465"/><rect fill="#F8F8F8" height="2" style="stroke:#383838;stroke-width:1.5;" width="4" x="215" y="469"/><text fill="#000000" font-family="sans-serif" font-size="14" font-style="italic" lengthAdjust="spacing" textLength="85" x="82.5" y="490.9951">«Container»</text><text fill="#000000" font-family="sans-serif" font-size="14" lengthAdjust="spacing" textLength="174" x="38" y="507.292">Device Records Backend</text><!--MD5=[72c6d9e59178f7c2c8669ecc4d80f856]
entity LGT92GPSP--><rect fill="#F8F8F8" height="62.5938" style="stroke:#383838;stroke-width:1.5;" width="249" x="533.5" y="458"/><rect fill="#F8F8F8" height="10" style="stroke:#383838;stroke-width:1.5;" width="15" x="762.5" y="463"/><rect fill="#F8F8F8" height="2" style="stroke:#383838;stroke-width:1.5;" width="4" x="760.5" y="465"/><rect fill="#F8F8F8" height="2" style="stroke:#383838;stroke-width:1.5;" width="4" x="760.5" y="469"/><text fill="#000000" font-family="sans-serif" font-size="14" font-style="italic" lengthAdjust="spacing" textLength="85" x="610.5" y="490.9951">«Container»</text><text fill="#000000" font-family="sans-serif" font-size="14" lengthAdjust="spacing" textLength="209" x="548.5" y="507.292">LGT 92 GPS Sensor Processor</text><!--MD5=[f29cc1d3e5c09383ffc981bef527a084]
entity LGT92GPSG--><rect fill="#F8F8F8" height="62.5938" style="stroke:#383838;stroke-width:1.5;" width="238" x="818" y="458"/><rect fill="#F8F8F8" height="10" style="stroke:#383838;stroke-width:1.5;" width="15" x="1036" y="463"/><rect fill="#F8F8F8" height="2" style="stroke:#383838;stroke-width:1.5;" width="4" x="1034" y="465"/><rect fill="#F8F8F8" height="2" style="stroke:#383838;stroke-width:1.5;" width="4" x="1034" y="469"/><text fill="#000000" font-family="sans-serif" font-size="14" font-style="italic" lengthAdjust="spacing" textLength="85" x="889.5" y="490.9951">«Container»</text><text fill="#000000" font-family="sans-serif" font-size="14" lengthAdjust="spacing" textLength="198" x="833" y="507.292">LGT 92 GPS Sensor Gateway</text><!--MD5=[916b332d59e591ecaa5566188f0cdc33]
entity DR--><rect fill="#F8F8F8" height="62.5938" style="stroke:#383838;stroke-width:1.5;" width="127" x="1144.5" y="458"/><rect fill="#F8F8F8" height="10" style="stroke:#383838;stroke-width:1.5;" width="15" x="1251.5" y="463"/><rect fill="#F8F8F8" height="2" style="stroke:#383838;stroke-width:1.5;" width="4" x="1249.5" y="465"/><rect fill="#F8F8F8" height="2" style="stroke:#383838;stroke-width:1.5;" width="4" x="1249.5" y="469"/><text fill="#000000" font-family="sans-serif" font-size="14" font-style="italic" lengthAdjust="spacing" textLength="85" x="1160.5" y="490.9951">«Container»</text><text fill="#000000" font-family="sans-serif" font-size="14" lengthAdjust="spacing" textLength="87" x="1159.5" y="507.292">Data Relayer</text><!--MD5=[5c672979971b01ffe3e26ca5e0224f67]
entity DRDB--><rect fill="#F8F8F8" height="62.5938" style="stroke:#383838;stroke-width:1.5;" width="219" x="23.5" y="731"/><rect fill="#F8F8F8" height="10" style="stroke:#383838;stroke-width:1.5;" width="15" x="222.5" y="736"/><rect fill="#F8F8F8" height="2" style="stroke:#383838;stroke-width:1.5;" width="4" x="220.5" y="738"/><rect fill="#F8F8F8" height="2" style="stroke:#383838;stroke-width:1.5;" width="4" x="220.5" y="742"/><text fill="#000000" font-family="sans-serif" font-size="14" font-style="italic" lengthAdjust="spacing" textLength="85" x="85.5" y="763.9951">«Container»</text><text fill="#000000" font-family="sans-serif" font-size="14" lengthAdjust="spacing" textLength="179" x="38.5" y="780.292">Device Records Database</text><!--MD5=[ed43a859708a376e35ae74978de1b490]
entity MB_API--><ellipse cx="521" cy="626" fill="#F8F8F8" rx="8" ry="8" style="stroke:#383838;stroke-width:1.5;"/><text fill="#000000" font-family="sans-serif" font-size="14" lengthAdjust="spacing" textLength="113" x="464.5" y="655.9951">Message Broker</text><text fill="#000000" font-family="sans-serif" font-size="14" lengthAdjust="spacing" textLength="21" x="464.5" y="672.292">API</text><!--MD5=[0ce5a9617f51ae4b5bc891fe128d05dc]
entity LTB_API--><ellipse cx="416" cy="353" fill="#F8F8F8" rx="8" ry="8" style="stroke:#383838;stroke-width:1.5;"/><text fill="#000000" font-family="sans-serif" font-size="14" lengthAdjust="spacing" textLength="186" x="323" y="382.9951">Location Tracking Backend</text><text fill="#000000" font-family="sans-serif" font-size="14" lengthAdjust="spacing" textLength="21" x="323" y="399.292">API</text><!--MD5=[9244efad2dc02808af23604ab0304277]
entity DRB_API--><ellipse cx="142" cy="353" fill="#F8F8F8" rx="8" ry="8" style="stroke:#383838;stroke-width:1.5;"/><text fill="#000000" font-family="sans-serif" font-size="14" lengthAdjust="spacing" textLength="174" x="55" y="382.9951">Device Records Backend</text><text fill="#000000" font-family="sans-serif" font-size="14" lengthAdjust="spacing" textLength="21" x="55" y="399.292">API</text><!--MD5=[5ca5631ebaf5f86a9fa4e428e4442db3]
entity DRDB_API--><ellipse cx="131" cy="626" fill="#F8F8F8" rx="8" ry="8" style="stroke:#383838;stroke-width:1.5;"/><text fill="#000000" font-family="sans-serif" font-size="14" lengthAdjust="spacing" textLength="179" x="41.5" y="655.9951">Device Records Database</text><text fill="#000000" font-family="sans-serif" font-size="14" lengthAdjust="spacing" textLength="21" x="41.5" y="672.292">API</text><!--MD5=[08f53820b04260704b3f347581b3815a]
entity LGT92GPSG_API--><ellipse cx="1100" cy="489.5" fill="#F8F8F8" rx="8" ry="8" style="stroke:#383838;stroke-width:1.5;"/><text fill="#000000" font-family="sans-serif" font-size="14" lengthAdjust="spacing" textLength="198" x="1001" y="519.4951">LGT 92 GPS Sensor Gateway</text><text fill="#000000" font-family="sans-serif" font-size="14" lengthAdjust="spacing" textLength="21" x="1001" y="535.792">API</text><!--MD5=[96142bef19f749aced95310868fd618c]
entity DRF--><rect fill="#F8F8F8" height="62.5938" style="stroke:#383838;stroke-width:1.5;" width="216" x="82" y="185"/><rect fill="#F8F8F8" height="10" style="stroke:#383838;stroke-width:1.5;" width="15" x="278" y="190"/><rect fill="#F8F8F8" height="2" style="stroke:#383838;stroke-width:1.5;" width="4" x="276" y="192"/><rect fill="#F8F8F8" height="2" style="stroke:#383838;stroke-width:1.5;" width="4" x="276" y="196"/><text fill="#000000" font-family="sans-serif" font-size="14" font-style="italic" lengthAdjust="spacing" textLength="85" x="142.5" y="217.9951">«Container»</text><text fill="#000000" font-family="sans-serif" font-size="14" lengthAdjust="spacing" textLength="176" x="97" y="234.292">Device Records Frontend</text><!--MD5=[838a8f8ee09da76e2984218500383e54]
entity LTF--><rect fill="#F8F8F8" height="62.5938" style="stroke:#383838;stroke-width:1.5;" width="228" x="333" y="185"/><rect fill="#F8F8F8" height="10" style="stroke:#383838;stroke-width:1.5;" width="15" x="541" y="190"/><rect fill="#F8F8F8" height="2" style="stroke:#383838;stroke-width:1.5;" width="4" x="539" y="192"/><rect fill="#F8F8F8" height="2" style="stroke:#383838;stroke-width:1.5;" width="4" x="539" y="196"/><text fill="#000000" font-family="sans-serif" font-size="14" font-style="italic" lengthAdjust="spacing" textLength="85" x="399.5" y="217.9951">«Container»</text><text fill="#000000" font-family="sans-serif" font-size="14" lengthAdjust="spacing" textLength="188" x="348" y="234.292">Location Tracking Frontend</text><!--MD5=[c42ed81cef7fdd2e33758127945b9a5b]
entity UI--><ellipse cx="47" cy="14" fill="#F8F8F8" rx="8" ry="8" style="stroke:#383838;stroke-width:1.5;"/><text fill="#000000" font-family="sans-serif" font-size="14" lengthAdjust="spacing" textLength="13" x="40.5" y="43.9951">UI</text><!--MD5=[259fb42cf3d26cb196e8dd6a3316d2da]
entity IN_ENDPOINT--><ellipse cx="1316" cy="489.5" fill="#F8F8F8" rx="8" ry="8" style="stroke:#383838;stroke-width:1.5;"/><text fill="#000000" font-family="sans-serif" font-size="14" lengthAdjust="spacing" textLength="57" x="1287.5" y="519.4951">Rest API</text><!--MD5=[a28acdb8ad4d91f65f1547077cd4da90]
link DRB_API to DRB--><path d="M141.29,362.01 C139.64,380.45 135.51,426.69 132.73,457.85 " fill="none" id="DRB_API-DRB" style="stroke:#383838;stroke-width:1.0;"/><!--MD5=[9faa44188f0983b269c38a9c1880fbcb]
link MB_API to MB--><path d="M521,635.01 C521,653.45 521,699.69 521,730.85 " fill="none" id="MB_API-MB" style="stroke:#383838;stroke-width:1.0;"/><!--MD5=[8b4f74b634f1475be71ae4e68775c50f]
link DRDB_API to DRDB--><path d="M131.12,635.01 C131.39,653.45 132.08,699.69 132.54,730.85 " fill="none" id="DRDB_API-DRDB" style="stroke:#383838;stroke-width:1.0;"/><!--MD5=[4e1349c460729a9b0a875c8c8e490147]
link LTB_API to LTB--><path d="M414.15,362.01 C409.9,380.45 399.25,426.69 392.06,457.85 " fill="none" id="LTB_API-LTB" style="stroke:#383838;stroke-width:1.0;"/><!--MD5=[9467590f772bdba1939f43218646f943]
link UI to UIAG--><path d="M47,23.11 C47,32.34 47,48.6788 47,68.0684 C47,77.7633 47,88.2209 47,98.9339 C47,104.2905 47,109.7109 47,115.1318 C47,117.8422 47,120.5528 47,123.2556 C47,123.9313 47,124.6065 47,125.2811 " fill="none" id="UI-UIAG" style="stroke:#383838;stroke-width:1.0;"/><!--MD5=[5979b812f08d285e19fd2241af551a66]
link LGT92GPSG to LGT92GPSG_API--><path d="M1056.07,489.5 C1067.62,489.5 1079.18,489.5 1090.73,489.5 " fill="none" id="LGT92GPSG-LGT92GPSG_API" style="stroke:#383838;stroke-width:1.0;"/><!--MD5=[c0fd3909471f57f2e33cdcce01cab375]
link DRB to DRDB_API--><path d="M130.23,521.02 C130.42,547.43 130.7,584.74 130.86,606.75 " fill="none" id="DRB-to-DRDB_API" style="stroke:#383838;stroke-width:1.0;"/><path d="M139.375,613.8415 A9,9 0 0 0 122.461 613.9623" style="stroke:#383838;stroke-width:1.5;fill:none;"/><!--MD5=[632ffee6b860cfc9bcac06b852135104]
link LTF to LTB_API--><path d="M439.97,248.02 C433.85,274.55 425.2,312.09 420.14,334.05 " fill="none" id="LTF-to-LTB_API" style="stroke:#383838;stroke-width:1.0;"/><path d="M426.7819,342.8747 A9,9 0 0 0 410.2973 339.0854" style="stroke:#383838;stroke-width:1.5;fill:none;"/><!--MD5=[99639326d43e115e35ef3e6d4e64f760]
link DRF to DRB_API--><path d="M179.11,248.02 C169.6,274.67 156.12,312.43 148.3,334.35 " fill="none" id="DRF-to-DRB_API" style="stroke:#383838;stroke-width:1.0;"/><path d="M153.8599,343.9334 A9,9 0 0 0 137.9357 338.2307" style="stroke:#383838;stroke-width:1.5;fill:none;"/><!--MD5=[432dc558a2903d0c88606da1e4b84e79]
link LTB to MB_API--><path d="M415.86,521.02 C443.8,548.65 483.8,588.21 505.52,609.69 " fill="none" id="LTB-to-MB_API" style="stroke:#383838;stroke-width:1.0;"/><path d="M516.6441,608.8003 A9,9 0 0 0 504.7564 620.8329" style="stroke:#383838;stroke-width:1.5;fill:none;"/><!--MD5=[fc219f88c7305afccf9ee7f03fbee597]
link DRB to MB_API--><path d="M218.72,521.02 C312.14,553.15 452.46,601.42 502.48,618.63 " fill="none" id="DRB-to-MB_API" style="stroke:#383838;stroke-width:1.0;"/><path d="M511.8236,612.9014 A9,9 0 0 0 506.3156 628.8939" style="stroke:#383838;stroke-width:1.5;fill:none;"/><!--MD5=[2134f714ab093ce28fbfa0d440386a29]
link LGT92GPSG to MB_API--><path d="M842.6,521.02 C742.56,553.36 591.95,602.06 539.66,618.97 " fill="none" id="LGT92GPSG-to-MB_API" style="stroke:#383838;stroke-width:1.0;"/><path d="M535.5775,629.1726 A9,9 0 0 0 530.3812 613.0761" style="stroke:#383838;stroke-width:1.5;fill:none;"/><!--MD5=[09cbdcf6bf168bcfa236a9a96fcdd5c8]
link LGT92GPSP to MB_API--><path d="M626.91,521.02 C598.77,548.65 558.48,588.21 536.59,609.69 " fill="none" id="LGT92GPSP-to-MB_API" style="stroke:#383838;stroke-width:1.0;"/><path d="M537.2958,620.8494 A9,9 0 0 0 525.4325 608.7928" style="stroke:#383838;stroke-width:1.5;fill:none;"/><!--MD5=[59102a87a4d94a16034c88bc26e4734d]
link DR to IN_ENDPOINT--><path d="M1271.7,489.5 C1283.35,489.5 1295.01,489.5 1306.66,489.5 " fill="none" id="DR-IN_ENDPOINT" style="stroke:#383838;stroke-width:1.0;"/><!--MD5=[7d0e508d77e45a3169e4944a12f32cfb]
reverse link LGT92GPSG_API to DR--><path d="M1119.42,489.5 C1127.74,489.5 1136.06,489.5 1144.37,489.5 " fill="none" id="LGT92GPSG_API-backto-DR" style="stroke:#383838;stroke-width:1.0;"/><path d="M1112.3582,497.9572 A9,9 0 0 0 1112.3582 481.0428" style="stroke:#383838;stroke-width:1.5;fill:none;"/><!--MD5=[5c41cc965b51842f4bc3a067c502b74d]
link LGT92GPSP to LGT92GPSG--><!--MD5=[96705c1a26af6b3dd6ae2e1dc8c9967b]
link DRB to LGT92GPSP--><!--MD5=[096cbe58741a52d692a658a396452b1f]
link DRB to LTB--><!--MD5=[6b2562cfcc3cc0c53148e0de55d97ed3]
@startuml logical-view-level2

skinparam Monochrome true
skinparam sequenceMessageAlign center
skinparam Shadowing false
skinparam componentStyle uml2
skinparam packageStyle rectangle

interface "UI" as UI

interface "Rest API" as IN_ENDPOINT

component "Environment" <<System>> {
    component "Message Broker" as MB <<Container>>
    component "Location Tracking Backend" as LTB <<Container>>
    component "Device Records Backend" as DRB <<Container>>
    component "LGT 92 GPS Sensor Processor" as LGT92GPSP <<Container>>
    component "LGT 92 GPS Sensor Gateway" as LGT92GPSG <<Container>>
    component "Data Relayer" as DR <<Container>>
    component "UI Aggregator" as UIAG <<Container>> {
        component "Device Records Frontend" as DRF <<Container>>
        component "Location Tracking Frontend" as LTF <<Container>>
    }
    component "Device Records Database" as DRDB <<Container>>

    interface "Message Broker\nAPI" as MB_API
    interface "Location Tracking Backend\nAPI" as LTB_API
    interface "Device Records Backend\nAPI" as DRB_API
    interface "Device Records Database\nAPI" as DRDB_API
    interface "LGT 92 GPS Sensor Gateway\nAPI" as LGT92GPSG_API

    DRB_API- - DRB
    MB_API - - MB
    DRDB_API - - DRDB
    LTB_API - - LTB
    UI - - UIAG
    LGT92GPSG - LGT92GPSG_API
    DRB - -( DRDB_API
    LTF - -( LTB_API
    DRF - -( DRB_API

    LTB - -( MB_API
    DRB - -( MB_API
    LGT92GPSG - -( MB_API
    LGT92GPSP - -( MB_API


    DR - IN_ENDPOINT
    LGT92GPSG_API )- DR

    LGT92GPSP -[hidden] LGT92GPSG
    DRB -[hidden] LGT92GPSP
    DRB -[hidden] LTB
}

@enduml

PlantUML version 1.2021.9(Sun Jul 25 11:13:56 WEST 2021)
(GPL source distribution)
Java Runtime: OpenJDK Runtime Environment
JVM: OpenJDK 64-Bit Server VM
Default Encoding: UTF-8
Language: en
Country: GB
--></g></svg>