<?xml version="1.0" encoding="UTF-8" standalone="no"?><svg xmlns="http://www.w3.org/2000/svg" xmlns:xlink="http://www.w3.org/1999/xlink" contentScriptType="application/ecmascript" contentStyleType="text/css" height="658px" preserveAspectRatio="none" style="width:576px;height:658px;background:#FFFFFF;" version="1.1" viewBox="0 0 576 658" width="576px" zoomAndPan="magnify"><defs><filter height="300%" id="fcjuxqmh55m28" width="300%" x="-1" y="-1"><feGaussianBlur result="blurOut" stdDeviation="2.0"/><feColorMatrix in="blurOut" result="blurOut2" type="matrix" values="0 0 0 0 0 0 0 0 0 0 0 0 0 0 0 0 0 0 .4 0"/><feOffset dx="4.0" dy="4.0" in="blurOut2" result="blurOut3"/><feBlend in="SourceGraphic" in2="blurOut3" mode="normal"/></filter></defs><g><!--MD5=[64a93b96a65cf7151322dbedb2af1cda]
cluster Data Validator--><rect fill="#FFFFFF" filter="url(#fcjuxqmh55m28)" height="637" style="stroke:#000000;stroke-width:1.5;" width="555" x="7" y="7"/><rect fill="#FFFFFF" height="10" style="stroke:#000000;stroke-width:1.5;" width="15" x="542" y="12"/><rect fill="#FFFFFF" height="2" style="stroke:#000000;stroke-width:1.5;" width="4" x="540" y="14"/><rect fill="#FFFFFF" height="2" style="stroke:#000000;stroke-width:1.5;" width="4" x="540" y="18"/><text fill="#000000" font-family="sans-serif" font-size="14" font-weight="bold" lengthAdjust="spacing" textLength="110" x="229.5" y="32.9951">Data Validator</text><!--MD5=[70becb833e031d8ab2b25bb6fd041c2b]
cluster INFRA--><rect fill="#FFFFFF" filter="url(#fcjuxqmh55m28)" height="516" style="stroke:#000000;stroke-width:1.5;" width="383" x="31" y="50"/><rect fill="#FFFFFF" height="10" style="stroke:#000000;stroke-width:1.5;" width="15" x="394" y="55"/><rect fill="#FFFFFF" height="2" style="stroke:#000000;stroke-width:1.5;" width="4" x="392" y="57"/><rect fill="#FFFFFF" height="2" style="stroke:#000000;stroke-width:1.5;" width="4" x="392" y="61"/><text fill="#000000" font-family="sans-serif" font-size="14" font-weight="bold" lengthAdjust="spacing" textLength="110" x="167.5" y="75.9951">Infrastructure</text><!--MD5=[e827ccb1cbd1809ec2e49ef4b2081f6a]
cluster ENDPOINT--><rect fill="#FFFFFF" filter="url(#fcjuxqmh55m28)" height="261" style="stroke:#000000;stroke-width:1.5;" width="319" x="63" y="273"/><rect fill="#FFFFFF" height="10" style="stroke:#000000;stroke-width:1.5;" width="15" x="362" y="278"/><rect fill="#FFFFFF" height="2" style="stroke:#000000;stroke-width:1.5;" width="4" x="360" y="280"/><rect fill="#FFFFFF" height="2" style="stroke:#000000;stroke-width:1.5;" width="4" x="360" y="284"/><text fill="#000000" font-family="sans-serif" font-size="14" font-weight="bold" lengthAdjust="spacing" textLength="69" x="188" y="298.9951">Endpoint</text><!--MD5=[a834a399ba2c7dfb9bb0bc2b6d57edb3]
cluster AMQP--><rect fill="#FFFFFF" filter="url(#fcjuxqmh55m28)" height="97" style="stroke:#000000;stroke-width:1.5;" width="247" x="95" y="405"/><rect fill="#FFFFFF" height="10" style="stroke:#000000;stroke-width:1.5;" width="15" x="322" y="410"/><rect fill="#FFFFFF" height="2" style="stroke:#000000;stroke-width:1.5;" width="4" x="320" y="412"/><rect fill="#FFFFFF" height="2" style="stroke:#000000;stroke-width:1.5;" width="4" x="320" y="416"/><text fill="#000000" font-family="sans-serif" font-size="14" font-weight="bold" lengthAdjust="spacing" textLength="46" x="195.5" y="430.9951">AMQP</text><!--MD5=[cd187d11655e4367e900de538d2f1d0c]
entity APP--><rect fill="#F8F8F8" filter="url(#fcjuxqmh55m28)" height="46.2969" style="stroke:#383838;stroke-width:1.5;" width="115" x="430.5" y="582"/><rect fill="#F8F8F8" height="10" style="stroke:#383838;stroke-width:1.5;" width="15" x="525.5" y="587"/><rect fill="#F8F8F8" height="2" style="stroke:#383838;stroke-width:1.5;" width="4" x="523.5" y="589"/><rect fill="#F8F8F8" height="2" style="stroke:#383838;stroke-width:1.5;" width="4" x="523.5" y="593"/><text fill="#000000" font-family="sans-serif" font-size="14" lengthAdjust="spacing" textLength="75" x="445.5" y="614.9951">Application</text><!--MD5=[30d85f3125b7a53865e5f4719123efb6]
entity APP_API--><ellipse cx="488" cy="463" fill="#F8F8F8" filter="url(#fcjuxqmh55m28)" rx="8" ry="8" style="stroke:#383838;stroke-width:1.5;"/><text fill="#000000" font-family="sans-serif" font-size="14" lengthAdjust="spacing" textLength="100" x="438" y="492.9951">Application API</text><!--MD5=[50c35d0a5350f8e8f48a6d3669f54f50]
entity BOOT--><rect fill="#F8F8F8" filter="url(#fcjuxqmh55m28)" height="46.2969" style="stroke:#383838;stroke-width:1.5;" width="73" x="180.5" y="203"/><rect fill="#F8F8F8" height="10" style="stroke:#383838;stroke-width:1.5;" width="15" x="233.5" y="208"/><rect fill="#F8F8F8" height="2" style="stroke:#383838;stroke-width:1.5;" width="4" x="231.5" y="210"/><rect fill="#F8F8F8" height="2" style="stroke:#383838;stroke-width:1.5;" width="4" x="231.5" y="214"/><text fill="#000000" font-family="sans-serif" font-size="14" lengthAdjust="spacing" textLength="33" x="195.5" y="235.9951">Boot</text><!--MD5=[44f07762fab2e804df8e0636e93cffbe]
entity BOOT_API--><ellipse cx="217" cy="114" fill="#F8F8F8" filter="url(#fcjuxqmh55m28)" rx="8" ry="8" style="stroke:#383838;stroke-width:1.5;"/><text fill="#000000" font-family="sans-serif" font-size="14" lengthAdjust="spacing" textLength="58" x="188" y="143.9951">Boot API</text><!--MD5=[7c09cc5e2fc5888767c10a541b3b1d17]
entity INGRESS_API--><ellipse cx="280" cy="345" fill="#F8F8F8" filter="url(#fcjuxqmh55m28)" rx="8" ry="8" style="stroke:#383838;stroke-width:1.5;"/><text fill="#000000" font-family="sans-serif" font-size="14" lengthAdjust="spacing" textLength="76" x="242" y="374.9951">Ingress API</text><!--MD5=[72db9eea1d2bf2ff908159e31b503589]
entity EGRESS_API--><ellipse cx="155" cy="345" fill="#F8F8F8" filter="url(#fcjuxqmh55m28)" rx="8" ry="8" style="stroke:#383838;stroke-width:1.5;"/><text fill="#000000" font-family="sans-serif" font-size="14" lengthAdjust="spacing" textLength="73" x="118.5" y="374.9951">Egress API</text><!--MD5=[97c2cc28f62fbe16a090dcbe5e30d27b]
entity INGRESS--><rect fill="#F8F8F8" filter="url(#fcjuxqmh55m28)" height="46.2969" style="stroke:#383838;stroke-width:1.5;" width="91" x="234.5" y="440"/><rect fill="#F8F8F8" height="10" style="stroke:#383838;stroke-width:1.5;" width="15" x="305.5" y="445"/><rect fill="#F8F8F8" height="2" style="stroke:#383838;stroke-width:1.5;" width="4" x="303.5" y="447"/><rect fill="#F8F8F8" height="2" style="stroke:#383838;stroke-width:1.5;" width="4" x="303.5" y="451"/><text fill="#000000" font-family="sans-serif" font-size="14" lengthAdjust="spacing" textLength="51" x="249.5" y="472.9951">Ingress</text><!--MD5=[c01cbe8a412be218debd57fa8df8abed]
entity EGRESS--><rect fill="#F8F8F8" filter="url(#fcjuxqmh55m28)" height="46.2969" style="stroke:#383838;stroke-width:1.5;" width="88" x="111" y="440"/><rect fill="#F8F8F8" height="10" style="stroke:#383838;stroke-width:1.5;" width="15" x="179" y="445"/><rect fill="#F8F8F8" height="2" style="stroke:#383838;stroke-width:1.5;" width="4" x="177" y="447"/><rect fill="#F8F8F8" height="2" style="stroke:#383838;stroke-width:1.5;" width="4" x="177" y="451"/><text fill="#000000" font-family="sans-serif" font-size="14" lengthAdjust="spacing" textLength="48" x="126" y="472.9951">Egress</text><!--MD5=[b4a61ba3a97355d6345cdf1acd7a7817]
link EGRESS_API to EGRESS--><path d="M155,354.34 C155,372.01 155,413.68 155,439.69 " fill="none" id="EGRESS_API-EGRESS" style="stroke:#383838;stroke-width:1.0;"/><!--MD5=[530304c66b8acc68ed58d4341088d695]
link INGRESS_API to INGRESS--><path d="M280,354.34 C280,372.01 280,413.68 280,439.69 " fill="none" id="INGRESS_API-INGRESS" style="stroke:#383838;stroke-width:1.0;"/><!--MD5=[9bc3545913d2ece8bc1c8e2c39a9583d]
link APP_API to APP--><path d="M488,472.34 C488,493.59 488,550.33 488,581.94 " fill="none" id="APP_API-APP" style="stroke:#383838;stroke-width:1.0;"/><!--MD5=[960e631b20e6d0a5a1769365a28f267a]
link BOOT_API to BOOT--><path d="M217,123.27 C217,139.96 217,178.16 217,202.71 " fill="none" id="BOOT_API-BOOT" style="stroke:#383838;stroke-width:1.0;"/><!--MD5=[03a3a3da64142f805947a80cad3d7aa7]
link BOOT to EGRESS_API--><path d="M205.34,249.01 C193.34,271.65 174.91,306.43 163.99,327.03 " fill="none" id="BOOT-to-EGRESS_API" style="stroke:#383838;stroke-width:1.0;"/><path d="M168.2134,337.1358 A9,9 0 0 0 153.2728 329.2062" style="stroke:#383838;stroke-width:1.5;fill:none;"/><!--MD5=[5aaa978c22e8e54db4cd3befe40cb162]
link BOOT to INGRESS_API--><path d="M228.85,249.01 C241.04,271.65 259.77,306.43 270.86,327.03 " fill="none" id="BOOT-to-INGRESS_API" style="stroke:#383838;stroke-width:1.0;"/><path d="M281.6144,329.1679 A9,9 0 0 0 266.7248 337.1928" style="stroke:#383838;stroke-width:1.5;fill:none;"/><!--MD5=[4650e1908a5caa745e5a54df07a9a97d]
link ENDPOINT to APP_API--><path d="M382.1125,354.2549 C382.2962,354.4419 382.4826,354.6316 382.6717,354.824 C383.0497,355.2087 383.4383,355.6041 383.837,356.0098 C384.6345,356.8213 385.4724,357.6741 386.348,358.565 C393.3522,365.6925 402.7594,375.265 413.0338,385.72 C433.5825,406.63 457.6,431.07 472.8,446.54 " fill="none" id="ENDPOINT-to-APP_API" style="stroke:#383838;stroke-width:1.0;"/><path d="M483.9258,445.7821 A9,9 0 0 0 471.8452 457.621" style="stroke:#383838;stroke-width:1.5;fill:none;"/><!--MD5=[a5ac7a0cffa1ab88f679beeab565c1ec]
@startuml logical-view-level3-data-validator

skinparam Monochrome true

component "Data Validator" {
    component "Application" as APP
    component "Infrastructure" as INFRA {
        component "Boot" as BOOT
        component "Endpoint" as ENDPOINT {
            component "AMQP" as AMQP {
                component "Ingress" as INGRESS
                component "Egress" as EGRESS
            }
            interface "Ingress API" as INGRESS_API
            interface "Egress API" as EGRESS_API
        }
        interface "Boot API" as BOOT_API
    }

    interface "Application API" as APP_API

    EGRESS_API - - EGRESS
    INGRESS_API - - INGRESS

    APP_API - - APP
    BOOT_API - - BOOT

    BOOT - -( EGRESS_API
    BOOT - -( INGRESS_API

    ENDPOINT - -( APP_API
}

@enduml

PlantUML version 1.2021.16(Wed Dec 08 17:25:22 WET 2021)
(GPL source distribution)
Java Runtime: OpenJDK Runtime Environment
JVM: OpenJDK 64-Bit Server VM
Default Encoding: UTF-8
Language: en
Country: GB
--></g></svg>