<?xml version="1.0" encoding="UTF-8" standalone="no"?><svg xmlns="http://www.w3.org/2000/svg" xmlns:xlink="http://www.w3.org/1999/xlink" contentScriptType="application/ecmascript" contentStyleType="text/css" height="858px" preserveAspectRatio="none" style="width:541px;height:858px;background:#FFFFFF;" version="1.1" viewBox="0 0 541 858" width="541px" zoomAndPan="magnify"><defs><filter height="300%" id="fddyd2rnp75lt" width="300%" x="-1" y="-1"><feGaussianBlur result="blurOut" stdDeviation="2.0"/><feColorMatrix in="blurOut" result="blurOut2" type="matrix" values="0 0 0 0 0 0 0 0 0 0 0 0 0 0 0 0 0 0 .4 0"/><feOffset dx="4.0" dy="4.0" in="blurOut2" result="blurOut3"/><feBlend in="SourceGraphic" in2="blurOut3" mode="normal"/></filter></defs><g><!--MD5=[81cd5702733e27fcf5b24c471b1c69ff]
cluster Location Tracking Backend--><rect fill="#FFFFFF" filter="url(#fddyd2rnp75lt)" height="837" style="stroke:#000000;stroke-width:1.5;" width="520" x="7" y="7"/><rect fill="#FFFFFF" height="10" style="stroke:#000000;stroke-width:1.5;" width="15" x="507" y="12"/><rect fill="#FFFFFF" height="2" style="stroke:#000000;stroke-width:1.5;" width="4" x="505" y="14"/><rect fill="#FFFFFF" height="2" style="stroke:#000000;stroke-width:1.5;" width="4" x="505" y="18"/><text fill="#000000" font-family="sans-serif" font-size="14" font-weight="bold" lengthAdjust="spacing" textLength="212" x="161" y="32.9951">Location Tracking Backend</text><!--MD5=[70becb833e031d8ab2b25bb6fd041c2b]
cluster INFRA--><rect fill="#FFFFFF" filter="url(#fddyd2rnp75lt)" height="492" style="stroke:#000000;stroke-width:1.5;" width="348" x="31" y="50"/><rect fill="#FFFFFF" height="10" style="stroke:#000000;stroke-width:1.5;" width="15" x="359" y="55"/><rect fill="#FFFFFF" height="2" style="stroke:#000000;stroke-width:1.5;" width="4" x="357" y="57"/><rect fill="#FFFFFF" height="2" style="stroke:#000000;stroke-width:1.5;" width="4" x="357" y="61"/><text fill="#000000" font-family="sans-serif" font-size="14" font-weight="bold" lengthAdjust="spacing" textLength="110" x="150" y="75.9951">Infrastructure</text><!--MD5=[e827ccb1cbd1809ec2e49ef4b2081f6a]
cluster ENDPOINT--><rect fill="#FFFFFF" filter="url(#fddyd2rnp75lt)" height="237" style="stroke:#000000;stroke-width:1.5;" width="284" x="63" y="273"/><rect fill="#FFFFFF" height="10" style="stroke:#000000;stroke-width:1.5;" width="15" x="327" y="278"/><rect fill="#FFFFFF" height="2" style="stroke:#000000;stroke-width:1.5;" width="4" x="325" y="280"/><rect fill="#FFFFFF" height="2" style="stroke:#000000;stroke-width:1.5;" width="4" x="325" y="284"/><text fill="#000000" font-family="sans-serif" font-size="14" font-weight="bold" lengthAdjust="spacing" textLength="69" x="170.5" y="298.9951">Endpoint</text><!--MD5=[711fc6413308d66a33499ee50e557b5d]
entity DOM--><rect fill="#F8F8F8" filter="url(#fddyd2rnp75lt)" height="46.2969" style="stroke:#383838;stroke-width:1.5;" width="93" x="406.5" y="782"/><rect fill="#F8F8F8" height="10" style="stroke:#383838;stroke-width:1.5;" width="15" x="479.5" y="787"/><rect fill="#F8F8F8" height="2" style="stroke:#383838;stroke-width:1.5;" width="4" x="477.5" y="789"/><rect fill="#F8F8F8" height="2" style="stroke:#383838;stroke-width:1.5;" width="4" x="477.5" y="793"/><text fill="#000000" font-family="sans-serif" font-size="14" lengthAdjust="spacing" textLength="53" x="421.5" y="814.9951">Domain</text><!--MD5=[cd187d11655e4367e900de538d2f1d0c]
entity APP--><rect fill="#F8F8F8" filter="url(#fddyd2rnp75lt)" height="46.2969" style="stroke:#383838;stroke-width:1.5;" width="115" x="395.5" y="558"/><rect fill="#F8F8F8" height="10" style="stroke:#383838;stroke-width:1.5;" width="15" x="490.5" y="563"/><rect fill="#F8F8F8" height="2" style="stroke:#383838;stroke-width:1.5;" width="4" x="488.5" y="565"/><rect fill="#F8F8F8" height="2" style="stroke:#383838;stroke-width:1.5;" width="4" x="488.5" y="569"/><text fill="#000000" font-family="sans-serif" font-size="14" lengthAdjust="spacing" textLength="75" x="410.5" y="590.9951">Application</text><!--MD5=[0aefd3324de3ab8c3fd9c9ea0f687424]
entity DOM_API--><ellipse cx="453" cy="693" fill="#F8F8F8" filter="url(#fddyd2rnp75lt)" rx="8" ry="8" style="stroke:#383838;stroke-width:1.5;"/><text fill="#000000" font-family="sans-serif" font-size="14" lengthAdjust="spacing" textLength="78" x="414" y="722.9951">Domain API</text><!--MD5=[30d85f3125b7a53865e5f4719123efb6]
entity APP_API--><ellipse cx="453" cy="463" fill="#F8F8F8" filter="url(#fddyd2rnp75lt)" rx="8" ry="8" style="stroke:#383838;stroke-width:1.5;"/><text fill="#000000" font-family="sans-serif" font-size="14" lengthAdjust="spacing" textLength="100" x="403" y="492.9951">Application API</text><!--MD5=[50c35d0a5350f8e8f48a6d3669f54f50]
entity BOOT--><rect fill="#F8F8F8" filter="url(#fddyd2rnp75lt)" height="46.2969" style="stroke:#383838;stroke-width:1.5;" width="73" x="154.5" y="203"/><rect fill="#F8F8F8" height="10" style="stroke:#383838;stroke-width:1.5;" width="15" x="207.5" y="208"/><rect fill="#F8F8F8" height="2" style="stroke:#383838;stroke-width:1.5;" width="4" x="205.5" y="210"/><rect fill="#F8F8F8" height="2" style="stroke:#383838;stroke-width:1.5;" width="4" x="205.5" y="214"/><text fill="#000000" font-family="sans-serif" font-size="14" lengthAdjust="spacing" textLength="33" x="169.5" y="235.9951">Boot</text><!--MD5=[44f07762fab2e804df8e0636e93cffbe]
entity BOOT_API--><ellipse cx="191" cy="114" fill="#F8F8F8" filter="url(#fddyd2rnp75lt)" rx="8" ry="8" style="stroke:#383838;stroke-width:1.5;"/><text fill="#000000" font-family="sans-serif" font-size="14" lengthAdjust="spacing" textLength="58" x="162" y="143.9951">Boot API</text><!--MD5=[eefed110d7d8a33cb70be22dd9d01c77]
entity GRAPH--><rect fill="#F8F8F8" filter="url(#fddyd2rnp75lt)" height="46.2969" style="stroke:#383838;stroke-width:1.5;" width="100" x="204" y="440"/><rect fill="#F8F8F8" height="10" style="stroke:#383838;stroke-width:1.5;" width="15" x="284" y="445"/><rect fill="#F8F8F8" height="2" style="stroke:#383838;stroke-width:1.5;" width="4" x="282" y="447"/><rect fill="#F8F8F8" height="2" style="stroke:#383838;stroke-width:1.5;" width="4" x="282" y="451"/><text fill="#000000" font-family="sans-serif" font-size="14" lengthAdjust="spacing" textLength="60" x="219" y="472.9951">GraphQL</text><!--MD5=[66db70f94ccbac3c79bd754cb956443f]
entity AMQP--><rect fill="#F8F8F8" filter="url(#fddyd2rnp75lt)" height="46.2969" style="stroke:#383838;stroke-width:1.5;" width="81" x="87.5" y="440"/><rect fill="#F8F8F8" height="10" style="stroke:#383838;stroke-width:1.5;" width="15" x="148.5" y="445"/><rect fill="#F8F8F8" height="2" style="stroke:#383838;stroke-width:1.5;" width="4" x="146.5" y="447"/><rect fill="#F8F8F8" height="2" style="stroke:#383838;stroke-width:1.5;" width="4" x="146.5" y="451"/><text fill="#000000" font-family="sans-serif" font-size="14" lengthAdjust="spacing" textLength="41" x="102.5" y="472.9951">AMQP</text><!--MD5=[c8ee6569ca67e1620e4e7d4ee0399787]
entity GRAPH_API--><ellipse cx="254" cy="345" fill="#F8F8F8" filter="url(#fddyd2rnp75lt)" rx="8" ry="8" style="stroke:#383838;stroke-width:1.5;"/><text fill="#000000" font-family="sans-serif" font-size="14" lengthAdjust="spacing" textLength="85" x="211.5" y="374.9951">GraphQL API</text><!--MD5=[f360c852f81daa4ad66be7df7a5c9a3d]
entity AMQP_API--><ellipse cx="128" cy="345" fill="#F8F8F8" filter="url(#fddyd2rnp75lt)" rx="8" ry="8" style="stroke:#383838;stroke-width:1.5;"/><text fill="#000000" font-family="sans-serif" font-size="14" lengthAdjust="spacing" textLength="66" x="95" y="374.9951">AMQP API</text><!--MD5=[14cf9b7186fc426919be12717f53f1a1]
link DOM_API to DOM--><path d="M453,702.27 C453,718.96 453,757.16 453,781.71 " fill="none" id="DOM_API-DOM" style="stroke:#383838;stroke-width:1.0;"/><!--MD5=[9bc3545913d2ece8bc1c8e2c39a9583d]
link APP_API to APP--><path d="M453,472.34 C453,490.01 453,531.68 453,557.69 " fill="none" id="APP_API-APP" style="stroke:#383838;stroke-width:1.0;"/><!--MD5=[960e631b20e6d0a5a1769365a28f267a]
link BOOT_API to BOOT--><path d="M191,123.27 C191,139.96 191,178.16 191,202.71 " fill="none" id="BOOT_API-BOOT" style="stroke:#383838;stroke-width:1.0;"/><!--MD5=[144eb759bece83ea8e8de5d37013052c]
link AMQP_API to AMQP--><path d="M128,354.34 C128,372.01 128,413.68 128,439.69 " fill="none" id="AMQP_API-AMQP" style="stroke:#383838;stroke-width:1.0;"/><!--MD5=[160c4f6ce35ebd0c56b75ff8de26807c]
link GRAPH_API to GRAPH--><path d="M254,354.34 C254,372.01 254,413.68 254,439.69 " fill="none" id="GRAPH_API-GRAPH" style="stroke:#383838;stroke-width:1.0;"/><!--MD5=[15866775485206d4b44ddb8328268e7f]
link APP to DOM_API--><path d="M453,604.26 C453,624.74 453,654.73 453,673.81 " fill="none" id="APP-to-DOM_API" style="stroke:#383838;stroke-width:1.0;"/><path d="M461.4572,680.7818 A9,9 0 0 0 444.5428 680.7818" style="stroke:#383838;stroke-width:1.5;fill:none;"/><!--MD5=[3ab433faba4759891346c22302c8e76e]
link BOOT to GRAPH_API--><path d="M202.85,249.01 C215.04,271.65 233.77,306.43 244.86,327.03 " fill="none" id="BOOT-to-GRAPH_API" style="stroke:#383838;stroke-width:1.0;"/><path d="M255.6144,329.1679 A9,9 0 0 0 240.7248 337.1928" style="stroke:#383838;stroke-width:1.5;fill:none;"/><!--MD5=[825637d1efb63c5c00802efb716c3c83]
link BOOT to AMQP_API--><path d="M179.15,249.01 C166.96,271.65 148.23,306.43 137.14,327.03 " fill="none" id="BOOT-to-AMQP_API" style="stroke:#383838;stroke-width:1.0;"/><path d="M141.2752,337.1928 A9,9 0 0 0 126.3856 329.1679" style="stroke:#383838;stroke-width:1.5;fill:none;"/><!--MD5=[4650e1908a5caa745e5a54df07a9a97d]
link ENDPOINT to APP_API--><path d="M347.1125,354.2549 C347.2962,354.4419 347.4826,354.6316 347.6717,354.824 C348.0497,355.2087 348.4383,355.6041 348.837,356.0098 C349.6345,356.8213 350.4724,357.6741 351.348,358.565 C358.3522,365.6925 367.7594,375.265 378.0338,385.72 C398.5825,406.63 422.6,431.07 437.8,446.54 " fill="none" id="ENDPOINT-to-APP_API" style="stroke:#383838;stroke-width:1.0;"/><path d="M448.9258,445.7821 A9,9 0 0 0 436.8452 457.621" style="stroke:#383838;stroke-width:1.5;fill:none;"/><!--MD5=[d3df2b6cc1f2a225c6e10e6b0196b832]
@startuml logical-view-level3-location-tracking-backend

skinparam Monochrome true

component "Location Tracking Backend" {
    component "Domain" as DOM
    component "Application" as APP
    component "Infrastructure" as INFRA {
        component "Boot" as BOOT
        component "Endpoint" as ENDPOINT {
            component "GraphQL" as GRAPH
            component "AMQP" as AMQP
            interface "GraphQL API" as GRAPH_API
            interface "AMQP API" as AMQP_API
        }
        interface "Boot API" as BOOT_API
    }

    interface "Domain API" as DOM_API
    interface "Application API" as APP_API

    DOM_API - - DOM
    APP_API - - APP
    BOOT_API - - BOOT
    AMQP_API - - AMQP
    GRAPH_API - - GRAPH

    APP - -( DOM_API
    BOOT - -( GRAPH_API
    BOOT - -( AMQP_API

    ENDPOINT - -( APP_API

}

@enduml

PlantUML version 1.2021.16(Wed Dec 08 17:25:22 WET 2021)
(GPL source distribution)
Java Runtime: OpenJDK Runtime Environment
JVM: OpenJDK 64-Bit Server VM
Default Encoding: UTF-8
Language: en
Country: GB
--></g></svg>