<?xml version="1.0" encoding="UTF-8" standalone="no"?><svg xmlns="http://www.w3.org/2000/svg" xmlns:xlink="http://www.w3.org/1999/xlink" contentScriptType="application/ecmascript" contentStyleType="text/css" height="921px" preserveAspectRatio="none" style="width:2011px;height:921px;background:#FFFFFF;" version="1.1" viewBox="0 0 2011 921" width="2011px" zoomAndPan="magnify"><defs/><g><!--MD5=[85f6e7297d1ad81d8c1382e17d44cf2c]
cluster Environment--><rect fill="#FFFFFF" height="751" style="stroke:#000000;stroke-width:1.5;" width="1998" x="7" y="59"/><rect fill="#FFFFFF" height="10" style="stroke:#000000;stroke-width:1.5;" width="15" x="1985" y="64"/><rect fill="#FFFFFF" height="2" style="stroke:#000000;stroke-width:1.5;" width="4" x="1983" y="66"/><rect fill="#FFFFFF" height="2" style="stroke:#000000;stroke-width:1.5;" width="4" x="1983" y="70"/><text fill="#000000" font-family="sans-serif" font-size="14" font-style="italic" lengthAdjust="spacing" textLength="69" x="971.5" y="84.9951">«System»</text><text fill="#000000" font-family="sans-serif" font-size="14" font-weight="bold" lengthAdjust="spacing" textLength="99" x="956.5" y="101.292">Environment</text><!--MD5=[2f974df144d935b84f61c768008119cd]
cluster UIAG--><rect fill="#FFFFFF" height="146" style="stroke:#000000;stroke-width:1.5;" width="795" x="1178" y="126"/><rect fill="#FFFFFF" height="10" style="stroke:#000000;stroke-width:1.5;" width="15" x="1953" y="131"/><rect fill="#FFFFFF" height="2" style="stroke:#000000;stroke-width:1.5;" width="4" x="1951" y="133"/><rect fill="#FFFFFF" height="2" style="stroke:#000000;stroke-width:1.5;" width="4" x="1951" y="137"/><text fill="#000000" font-family="sans-serif" font-size="14" font-style="italic" lengthAdjust="spacing" textLength="85" x="1533" y="151.9951">«Container»</text><text fill="#000000" font-family="sans-serif" font-size="14" font-weight="bold" lengthAdjust="spacing" textLength="110" x="1520.5" y="168.292">UI Aggregator</text><!--MD5=[2c8bfc6f691a2260a342f8a3a45a5f4e]
entity MB--><rect fill="#F8F8F8" height="62.5938" style="stroke:#383838;stroke-width:1.5;" width="153" x="656.5" y="731"/><rect fill="#F8F8F8" height="10" style="stroke:#383838;stroke-width:1.5;" width="15" x="789.5" y="736"/><rect fill="#F8F8F8" height="2" style="stroke:#383838;stroke-width:1.5;" width="4" x="787.5" y="738"/><rect fill="#F8F8F8" height="2" style="stroke:#383838;stroke-width:1.5;" width="4" x="787.5" y="742"/><text fill="#000000" font-family="sans-serif" font-size="14" font-style="italic" lengthAdjust="spacing" textLength="85" x="685.5" y="763.9951">«Container»</text><text fill="#000000" font-family="sans-serif" font-size="14" lengthAdjust="spacing" textLength="113" x="671.5" y="780.292">Message Broker</text><!--MD5=[de9d829787e3a43b2ded327ec6864356]
entity DRB--><rect fill="#F8F8F8" height="62.5938" style="stroke:#383838;stroke-width:1.5;" width="265" x="1462.5" y="458"/><rect fill="#F8F8F8" height="10" style="stroke:#383838;stroke-width:1.5;" width="15" x="1707.5" y="463"/><rect fill="#F8F8F8" height="2" style="stroke:#383838;stroke-width:1.5;" width="4" x="1705.5" y="465"/><rect fill="#F8F8F8" height="2" style="stroke:#383838;stroke-width:1.5;" width="4" x="1705.5" y="469"/><text fill="#000000" font-family="sans-serif" font-size="14" font-style="italic" lengthAdjust="spacing" textLength="85" x="1547.5" y="490.9951">«Container»</text><text fill="#000000" font-family="sans-serif" font-size="14" lengthAdjust="spacing" textLength="225" x="1477.5" y="507.292">Device Records Master Backend</text><!--MD5=[16d24166dd61b60d67a9b622353efc3e]
entity DRSB--><rect fill="#F8F8F8" height="62.5938" style="stroke:#383838;stroke-width:1.5;" width="254" x="1173" y="458"/><rect fill="#F8F8F8" height="10" style="stroke:#383838;stroke-width:1.5;" width="15" x="1407" y="463"/><rect fill="#F8F8F8" height="2" style="stroke:#383838;stroke-width:1.5;" width="4" x="1405" y="465"/><rect fill="#F8F8F8" height="2" style="stroke:#383838;stroke-width:1.5;" width="4" x="1405" y="469"/><text fill="#000000" font-family="sans-serif" font-size="14" font-style="italic" lengthAdjust="spacing" textLength="85" x="1252.5" y="490.9951">«Container»</text><text fill="#000000" font-family="sans-serif" font-size="14" lengthAdjust="spacing" textLength="214" x="1188" y="507.292">Device Records Slave Backend</text><!--MD5=[07f1f74cdc79fa2fd2740ec7d7a64eca]
entity LTB--><rect fill="#F8F8F8" height="62.5938" style="stroke:#383838;stroke-width:1.5;" width="226" x="1763" y="458"/><rect fill="#F8F8F8" height="10" style="stroke:#383838;stroke-width:1.5;" width="15" x="1969" y="463"/><rect fill="#F8F8F8" height="2" style="stroke:#383838;stroke-width:1.5;" width="4" x="1967" y="465"/><rect fill="#F8F8F8" height="2" style="stroke:#383838;stroke-width:1.5;" width="4" x="1967" y="469"/><text fill="#000000" font-family="sans-serif" font-size="14" font-style="italic" lengthAdjust="spacing" textLength="85" x="1828.5" y="490.9951">«Container»</text><text fill="#000000" font-family="sans-serif" font-size="14" lengthAdjust="spacing" textLength="186" x="1778" y="507.292">Location Tracking Backend</text><!--MD5=[91279a835da4e32ef6d7ba373316e020]
entity DDG--><rect fill="#F8F8F8" height="62.5938" style="stroke:#383838;stroke-width:1.5;" width="135" x="183.5" y="458"/><rect fill="#F8F8F8" height="10" style="stroke:#383838;stroke-width:1.5;" width="15" x="298.5" y="463"/><rect fill="#F8F8F8" height="2" style="stroke:#383838;stroke-width:1.5;" width="4" x="296.5" y="465"/><rect fill="#F8F8F8" height="2" style="stroke:#383838;stroke-width:1.5;" width="4" x="296.5" y="469"/><text fill="#000000" font-family="sans-serif" font-size="14" font-style="italic" lengthAdjust="spacing" textLength="85" x="203.5" y="490.9951">«Container»</text><text fill="#000000" font-family="sans-serif" font-size="14" lengthAdjust="spacing" textLength="95" x="198.5" y="507.292">Data Gateway</text><!--MD5=[916b332d59e591ecaa5566188f0cdc33]
entity DR--><rect fill="#F8F8F8" height="62.5938" style="stroke:#383838;stroke-width:1.5;" width="127" x="187.5" y="731"/><rect fill="#F8F8F8" height="10" style="stroke:#383838;stroke-width:1.5;" width="15" x="294.5" y="736"/><rect fill="#F8F8F8" height="2" style="stroke:#383838;stroke-width:1.5;" width="4" x="292.5" y="738"/><rect fill="#F8F8F8" height="2" style="stroke:#383838;stroke-width:1.5;" width="4" x="292.5" y="742"/><text fill="#000000" font-family="sans-serif" font-size="14" font-style="italic" lengthAdjust="spacing" textLength="85" x="203.5" y="763.9951">«Container»</text><text fill="#000000" font-family="sans-serif" font-size="14" lengthAdjust="spacing" textLength="87" x="202.5" y="780.292">Data Relayer</text><!--MD5=[bdf2b643721ab24f6b6cc4832b6b9e51]
entity DPSB--><rect fill="#F8F8F8" height="62.5938" style="stroke:#383838;stroke-width:1.5;" width="251" x="589.5" y="458"/><rect fill="#F8F8F8" height="10" style="stroke:#383838;stroke-width:1.5;" width="15" x="820.5" y="463"/><rect fill="#F8F8F8" height="2" style="stroke:#383838;stroke-width:1.5;" width="4" x="818.5" y="465"/><rect fill="#F8F8F8" height="2" style="stroke:#383838;stroke-width:1.5;" width="4" x="818.5" y="469"/><text fill="#000000" font-family="sans-serif" font-size="14" font-style="italic" lengthAdjust="spacing" textLength="85" x="667.5" y="490.9951">«Container»</text><text fill="#000000" font-family="sans-serif" font-size="14" lengthAdjust="spacing" textLength="211" x="604.5" y="507.292">Data Processor Slave Backend</text><!--MD5=[7d5e30ccfc93022cd060f94bf2de644f]
entity DPMB--><rect fill="#F8F8F8" height="62.5938" style="stroke:#383838;stroke-width:1.5;" width="262" x="876" y="458"/><rect fill="#F8F8F8" height="10" style="stroke:#383838;stroke-width:1.5;" width="15" x="1118" y="463"/><rect fill="#F8F8F8" height="2" style="stroke:#383838;stroke-width:1.5;" width="4" x="1116" y="465"/><rect fill="#F8F8F8" height="2" style="stroke:#383838;stroke-width:1.5;" width="4" x="1116" y="469"/><text fill="#000000" font-family="sans-serif" font-size="14" font-style="italic" lengthAdjust="spacing" textLength="85" x="959.5" y="490.9951">«Container»</text><text fill="#000000" font-family="sans-serif" font-size="14" lengthAdjust="spacing" textLength="222" x="891" y="507.292">Data Processor Master Backend</text><!--MD5=[879c1108b25478de35d4f7b9898923f2]
entity DVB--><rect fill="#F8F8F8" height="62.5938" style="stroke:#383838;stroke-width:1.5;" width="200" x="354" y="458"/><rect fill="#F8F8F8" height="10" style="stroke:#383838;stroke-width:1.5;" width="15" x="534" y="463"/><rect fill="#F8F8F8" height="2" style="stroke:#383838;stroke-width:1.5;" width="4" x="532" y="465"/><rect fill="#F8F8F8" height="2" style="stroke:#383838;stroke-width:1.5;" width="4" x="532" y="469"/><text fill="#000000" font-family="sans-serif" font-size="14" font-style="italic" lengthAdjust="spacing" textLength="85" x="406.5" y="490.9951">«Container»</text><text fill="#000000" font-family="sans-serif" font-size="14" lengthAdjust="spacing" textLength="160" x="369" y="507.292">Data Validator Backend</text><!--MD5=[5c672979971b01ffe3e26ca5e0224f67]
entity DRDB--><rect fill="#F8F8F8" height="62.5938" style="stroke:#383838;stroke-width:1.5;" width="219" x="1337.5" y="731"/><rect fill="#F8F8F8" height="10" style="stroke:#383838;stroke-width:1.5;" width="15" x="1536.5" y="736"/><rect fill="#F8F8F8" height="2" style="stroke:#383838;stroke-width:1.5;" width="4" x="1534.5" y="738"/><rect fill="#F8F8F8" height="2" style="stroke:#383838;stroke-width:1.5;" width="4" x="1534.5" y="742"/><text fill="#000000" font-family="sans-serif" font-size="14" font-style="italic" lengthAdjust="spacing" textLength="85" x="1399.5" y="763.9951">«Container»</text><text fill="#000000" font-family="sans-serif" font-size="14" lengthAdjust="spacing" textLength="179" x="1352.5" y="780.292">Device Records Database</text><!--MD5=[f1831cdda53ca662ba17e366a7f7f424]
entity DPDB--><rect fill="#F8F8F8" height="62.5938" style="stroke:#383838;stroke-width:1.5;" width="216" x="863" y="731"/><rect fill="#F8F8F8" height="10" style="stroke:#383838;stroke-width:1.5;" width="15" x="1059" y="736"/><rect fill="#F8F8F8" height="2" style="stroke:#383838;stroke-width:1.5;" width="4" x="1057" y="738"/><rect fill="#F8F8F8" height="2" style="stroke:#383838;stroke-width:1.5;" width="4" x="1057" y="742"/><text fill="#000000" font-family="sans-serif" font-size="14" font-style="italic" lengthAdjust="spacing" textLength="85" x="923.5" y="763.9951">«Container»</text><text fill="#000000" font-family="sans-serif" font-size="14" lengthAdjust="spacing" textLength="176" x="878" y="780.292">Data Processor Database</text><!--MD5=[1a416c3156d55d9446032ebbee093b81]
entity DS--><rect fill="#F8F8F8" height="62.5938" style="stroke:#383838;stroke-width:1.5;" width="125" x="23.5" y="458"/><rect fill="#F8F8F8" height="10" style="stroke:#383838;stroke-width:1.5;" width="15" x="128.5" y="463"/><rect fill="#F8F8F8" height="2" style="stroke:#383838;stroke-width:1.5;" width="4" x="126.5" y="465"/><rect fill="#F8F8F8" height="2" style="stroke:#383838;stroke-width:1.5;" width="4" x="126.5" y="469"/><text fill="#000000" font-family="sans-serif" font-size="14" font-style="italic" lengthAdjust="spacing" textLength="85" x="38.5" y="490.9951">«Container»</text><text fill="#000000" font-family="sans-serif" font-size="14" lengthAdjust="spacing" textLength="73" x="44.5" y="507.292">Data Store</text><!--MD5=[0d4560ec263e73dd5d18ec3da06f96fd]
entity QUESTDB--><rect fill="#F8F8F8" height="62.5938" style="stroke:#383838;stroke-width:1.5;" width="125" x="1813.5" y="731"/><rect fill="#F8F8F8" height="10" style="stroke:#383838;stroke-width:1.5;" width="15" x="1918.5" y="736"/><rect fill="#F8F8F8" height="2" style="stroke:#383838;stroke-width:1.5;" width="4" x="1916.5" y="738"/><rect fill="#F8F8F8" height="2" style="stroke:#383838;stroke-width:1.5;" width="4" x="1916.5" y="742"/><text fill="#000000" font-family="sans-serif" font-size="14" font-style="italic" lengthAdjust="spacing" textLength="85" x="1828.5" y="763.9951">«Container»</text><text fill="#000000" font-family="sans-serif" font-size="14" lengthAdjust="spacing" textLength="63" x="1839.5" y="780.292">QuestDB</text><!--MD5=[03988f2df4231e1a486c01e3236a3a84]
entity MONGODB--><rect fill="#F8F8F8" height="62.5938" style="stroke:#383838;stroke-width:1.5;" width="125" x="23.5" y="731"/><rect fill="#F8F8F8" height="10" style="stroke:#383838;stroke-width:1.5;" width="15" x="128.5" y="736"/><rect fill="#F8F8F8" height="2" style="stroke:#383838;stroke-width:1.5;" width="4" x="126.5" y="738"/><rect fill="#F8F8F8" height="2" style="stroke:#383838;stroke-width:1.5;" width="4" x="126.5" y="742"/><text fill="#000000" font-family="sans-serif" font-size="14" font-style="italic" lengthAdjust="spacing" textLength="85" x="38.5" y="763.9951">«Container»</text><text fill="#000000" font-family="sans-serif" font-size="14" lengthAdjust="spacing" textLength="69" x="46.5" y="780.292">MongoDB</text><!--MD5=[ed43a859708a376e35ae74978de1b490]
entity MB_API--><ellipse cx="733" cy="626" fill="#F8F8F8" rx="8" ry="8" style="stroke:#383838;stroke-width:1.5;"/><text fill="#000000" font-family="sans-serif" font-size="14" lengthAdjust="spacing" textLength="113" x="676.5" y="655.9951">Message Broker</text><text fill="#000000" font-family="sans-serif" font-size="14" lengthAdjust="spacing" textLength="21" x="676.5" y="672.292">API</text><!--MD5=[0ce5a9617f51ae4b5bc891fe128d05dc]
entity LTB_API--><ellipse cx="1843" cy="353" fill="#F8F8F8" rx="8" ry="8" style="stroke:#383838;stroke-width:1.5;"/><text fill="#000000" font-family="sans-serif" font-size="14" lengthAdjust="spacing" textLength="186" x="1750" y="382.9951">Location Tracking Backend</text><text fill="#000000" font-family="sans-serif" font-size="14" lengthAdjust="spacing" textLength="21" x="1750" y="399.292">API</text><!--MD5=[9244efad2dc02808af23604ab0304277]
entity DRB_API--><ellipse cx="1587" cy="353" fill="#F8F8F8" rx="8" ry="8" style="stroke:#383838;stroke-width:1.5;"/><text fill="#000000" font-family="sans-serif" font-size="14" lengthAdjust="spacing" textLength="225" x="1474.5" y="382.9951">Device Records Master Backend</text><text fill="#000000" font-family="sans-serif" font-size="14" lengthAdjust="spacing" textLength="21" x="1474.5" y="399.292">API</text><!--MD5=[6390cbc15964bea49719771afd793c9b]
entity DPMB_API--><ellipse cx="1160" cy="353" fill="#F8F8F8" rx="8" ry="8" style="stroke:#383838;stroke-width:1.5;"/><text fill="#000000" font-family="sans-serif" font-size="14" lengthAdjust="spacing" textLength="222" x="1049" y="382.9951">Data Processor Master Backend</text><text fill="#000000" font-family="sans-serif" font-size="14" lengthAdjust="spacing" textLength="21" x="1049" y="399.292">API</text><!--MD5=[5ca5631ebaf5f86a9fa4e428e4442db3]
entity DRDB_API--><ellipse cx="1447" cy="626" fill="#F8F8F8" rx="8" ry="8" style="stroke:#383838;stroke-width:1.5;"/><text fill="#000000" font-family="sans-serif" font-size="14" lengthAdjust="spacing" textLength="179" x="1357.5" y="655.9951">Device Records Database</text><text fill="#000000" font-family="sans-serif" font-size="14" lengthAdjust="spacing" textLength="21" x="1357.5" y="672.292">API</text><!--MD5=[d282213c50e29b328cdb2ebefa3990e8]
entity DPDB_API--><ellipse cx="971" cy="626" fill="#F8F8F8" rx="8" ry="8" style="stroke:#383838;stroke-width:1.5;"/><text fill="#000000" font-family="sans-serif" font-size="14" lengthAdjust="spacing" textLength="176" x="883" y="655.9951">Data Processor Database</text><text fill="#000000" font-family="sans-serif" font-size="14" lengthAdjust="spacing" textLength="21" x="883" y="672.292">API</text><!--MD5=[e8ad32939caa55f00142e93d75a05e2d]
entity QUESTDB_API--><ellipse cx="1876" cy="626" fill="#F8F8F8" rx="8" ry="8" style="stroke:#383838;stroke-width:1.5;"/><text fill="#000000" font-family="sans-serif" font-size="14" lengthAdjust="spacing" textLength="63" x="1844.5" y="655.9951">QuestDB</text><text fill="#000000" font-family="sans-serif" font-size="14" lengthAdjust="spacing" textLength="21" x="1844.5" y="672.292">API</text><!--MD5=[2d1aaa06eea6692e612a00a28d7bf3bd]
entity MONGODB_API--><ellipse cx="86" cy="626" fill="#F8F8F8" rx="8" ry="8" style="stroke:#383838;stroke-width:1.5;"/><text fill="#000000" font-family="sans-serif" font-size="14" lengthAdjust="spacing" textLength="69" x="51.5" y="655.9951">MongoDB</text><text fill="#000000" font-family="sans-serif" font-size="14" lengthAdjust="spacing" textLength="21" x="51.5" y="672.292">API</text><!--MD5=[7b5d57a7033bc15fa4b522c391528de2]
entity DDG_API--><ellipse cx="251" cy="626" fill="#F8F8F8" rx="8" ry="8" style="stroke:#383838;stroke-width:1.5;"/><text fill="#000000" font-family="sans-serif" font-size="14" lengthAdjust="spacing" textLength="95" x="203.5" y="655.9951">Data Gateway</text><text fill="#000000" font-family="sans-serif" font-size="14" lengthAdjust="spacing" textLength="21" x="203.5" y="672.292">API</text><!--MD5=[96142bef19f749aced95310868fd618c]
entity DRF--><rect fill="#F8F8F8" height="62.5938" style="stroke:#383838;stroke-width:1.5;" width="216" x="1470" y="185"/><rect fill="#F8F8F8" height="10" style="stroke:#383838;stroke-width:1.5;" width="15" x="1666" y="190"/><rect fill="#F8F8F8" height="2" style="stroke:#383838;stroke-width:1.5;" width="4" x="1664" y="192"/><rect fill="#F8F8F8" height="2" style="stroke:#383838;stroke-width:1.5;" width="4" x="1664" y="196"/><text fill="#000000" font-family="sans-serif" font-size="14" font-style="italic" lengthAdjust="spacing" textLength="85" x="1530.5" y="217.9951">«Container»</text><text fill="#000000" font-family="sans-serif" font-size="14" lengthAdjust="spacing" textLength="176" x="1485" y="234.292">Device Records Frontend</text><!--MD5=[248285276881d4606f81bc6a8b2e8491]
entity DPF--><rect fill="#F8F8F8" height="62.5938" style="stroke:#383838;stroke-width:1.5;" width="213" x="1221.5" y="185"/><rect fill="#F8F8F8" height="10" style="stroke:#383838;stroke-width:1.5;" width="15" x="1414.5" y="190"/><rect fill="#F8F8F8" height="2" style="stroke:#383838;stroke-width:1.5;" width="4" x="1412.5" y="192"/><rect fill="#F8F8F8" height="2" style="stroke:#383838;stroke-width:1.5;" width="4" x="1412.5" y="196"/><text fill="#000000" font-family="sans-serif" font-size="14" font-style="italic" lengthAdjust="spacing" textLength="85" x="1280.5" y="217.9951">«Container»</text><text fill="#000000" font-family="sans-serif" font-size="14" lengthAdjust="spacing" textLength="173" x="1236.5" y="234.292">Data Processor Frontend</text><!--MD5=[838a8f8ee09da76e2984218500383e54]
entity LTF--><rect fill="#F8F8F8" height="62.5938" style="stroke:#383838;stroke-width:1.5;" width="228" x="1721" y="185"/><rect fill="#F8F8F8" height="10" style="stroke:#383838;stroke-width:1.5;" width="15" x="1929" y="190"/><rect fill="#F8F8F8" height="2" style="stroke:#383838;stroke-width:1.5;" width="4" x="1927" y="192"/><rect fill="#F8F8F8" height="2" style="stroke:#383838;stroke-width:1.5;" width="4" x="1927" y="196"/><text fill="#000000" font-family="sans-serif" font-size="14" font-style="italic" lengthAdjust="spacing" textLength="85" x="1787.5" y="217.9951">«Container»</text><text fill="#000000" font-family="sans-serif" font-size="14" lengthAdjust="spacing" textLength="188" x="1736" y="234.292">Location Tracking Frontend</text><!--MD5=[c42ed81cef7fdd2e33758127945b9a5b]
entity UI--><ellipse cx="1186" cy="14" fill="#F8F8F8" rx="8" ry="8" style="stroke:#383838;stroke-width:1.5;"/><text fill="#000000" font-family="sans-serif" font-size="14" lengthAdjust="spacing" textLength="13" x="1179.5" y="43.9951">UI</text><!--MD5=[259fb42cf3d26cb196e8dd6a3316d2da]
entity IN_ENDPOINT--><ellipse cx="251" cy="883" fill="#F8F8F8" rx="8" ry="8" style="stroke:#383838;stroke-width:1.5;"/><text fill="#000000" font-family="sans-serif" font-size="14" lengthAdjust="spacing" textLength="57" x="222.5" y="912.9951">Rest API</text><!--MD5=[f4e8558bdfd34d143e2b3a3a6b6a0612]
link LTB to QUESTDB_API--><path d="M1876,521.02 C1876,547.43 1876,584.74 1876,606.75 " fill="none" id="LTB-to-QUESTDB_API" style="stroke:#383838;stroke-width:1.0;"/><path d="M1884.4572,613.9018 A9,9 0 0 0 1867.5428 613.9018" style="stroke:#383838;stroke-width:1.5;fill:none;"/><!--MD5=[666d4f6c4a9dcee25ffe6d0afb7e8f5c]
link DS to MONGODB_API--><path d="M86,521.02 C86,547.43 86,584.74 86,606.75 " fill="none" id="DS-to-MONGODB_API" style="stroke:#383838;stroke-width:1.0;"/><path d="M94.4572,613.9018 A9,9 0 0 0 77.5428 613.9018" style="stroke:#383838;stroke-width:1.5;fill:none;"/><!--MD5=[e2bb4535729e8a781cd7ddd238ff39ed]
link DDG to DDG_API--><path d="M251,521.02 C251,552.18 251,598.51 251,616.98 " fill="none" id="DDG-DDG_API" style="stroke:#383838;stroke-width:1.0;"/><!--MD5=[043f4a6998d1f423c1875123bc6c35b3]
link DPMB_API to DPMB--><path d="M1150.89,362.01 C1129.92,380.45 1077.32,426.69 1041.87,457.85 " fill="none" id="DPMB_API-DPMB" style="stroke:#383838;stroke-width:1.0;"/><!--MD5=[a28acdb8ad4d91f65f1547077cd4da90]
link DRB_API to DRB--><path d="M1587.48,362.01 C1588.57,380.45 1591.32,426.69 1593.18,457.85 " fill="none" id="DRB_API-DRB" style="stroke:#383838;stroke-width:1.0;"/><!--MD5=[9faa44188f0983b269c38a9c1880fbcb]
link MB_API to MB--><path d="M733,635.01 C733,653.45 733,699.69 733,730.85 " fill="none" id="MB_API-MB" style="stroke:#383838;stroke-width:1.0;"/><!--MD5=[8b4f74b634f1475be71ae4e68775c50f]
link DRDB_API to DRDB--><path d="M1447,635.01 C1447,653.45 1447,699.69 1447,730.85 " fill="none" id="DRDB_API-DRDB" style="stroke:#383838;stroke-width:1.0;"/><!--MD5=[b803d99af0ae985ed616150254b01076]
link DPDB_API to DPDB--><path d="M971,635.01 C971,653.45 971,699.69 971,730.85 " fill="none" id="DPDB_API-DPDB" style="stroke:#383838;stroke-width:1.0;"/><!--MD5=[4e1349c460729a9b0a875c8c8e490147]
link LTB_API to LTB--><path d="M1844.97,362.01 C1849.49,380.45 1860.83,426.69 1868.48,457.85 " fill="none" id="LTB_API-LTB" style="stroke:#383838;stroke-width:1.0;"/><!--MD5=[9467590f772bdba1939f43218646f943]
link UI to UIAG--><path d="M1186,23.11 C1186,32.34 1186,48.6788 1186,68.0684 C1186,77.7633 1186,88.2209 1186,98.9339 C1186,104.2905 1186,109.7109 1186,115.1318 C1186,117.8422 1186,120.5528 1186,123.2556 C1186,123.9313 1186,124.6065 1186,125.2811 " fill="none" id="UI-UIAG" style="stroke:#383838;stroke-width:1.0;"/><!--MD5=[8abd4cb10c03f79d1001485a53a7e496]
link MONGODB_API to MONGODB--><path d="M86,635.01 C86,653.45 86,699.69 86,730.85 " fill="none" id="MONGODB_API-MONGODB" style="stroke:#383838;stroke-width:1.0;"/><!--MD5=[a43445fa678732e5a8e288cde82788b9]
link QUESTDB_API to QUESTDB--><path d="M1876,635.01 C1876,653.45 1876,699.69 1876,730.85 " fill="none" id="QUESTDB_API-QUESTDB" style="stroke:#383838;stroke-width:1.0;"/><!--MD5=[c0fd3909471f57f2e33cdcce01cab375]
link DRB to DRDB_API--><path d="M1561.42,521.02 C1530.88,548.77 1487.1,588.56 1463.53,609.97 " fill="none" id="DRB-to-DRDB_API" style="stroke:#383838;stroke-width:1.0;"/><path d="M1463.797,621.1665 A9,9 0 0 0 1452.4179 608.6519" style="stroke:#383838;stroke-width:1.5;fill:none;"/><!--MD5=[bdcc501502345f0c74f74263afe2354b]
link DRSB to DRDB_API--><path d="M1333.36,521.02 C1363.69,548.77 1407.17,588.56 1430.58,609.97 " fill="none" id="DRSB-to-DRDB_API" style="stroke:#383838;stroke-width:1.0;"/><path d="M1441.6757,608.6657 A9,9 0 0 0 1430.2461 621.1343" style="stroke:#383838;stroke-width:1.5;fill:none;"/><!--MD5=[1f2dffb1f4eb14a1440f7f7f0f18391b]
link DPMB to DPDB_API--><path d="M998.83,521.02 C991.73,547.55 981.68,585.09 975.8,607.05 " fill="none" id="DPMB-to-DPDB_API" style="stroke:#383838;stroke-width:1.0;"/><path d="M982.1156,616.1939 A9,9 0 0 0 965.7767 611.8192" style="stroke:#383838;stroke-width:1.5;fill:none;"/><!--MD5=[e2366e555da0ccf804983b707b2d230e]
link DPSB to DPDB_API--><path d="M773.09,521.02 C830.8,551.34 915.87,596.03 952.79,615.43 " fill="none" id="DPSB-to-DPDB_API" style="stroke:#383838;stroke-width:1.0;"/><path d="M963.0814,611.2819 A9,9 0 0 0 955.2095 626.253" style="stroke:#383838;stroke-width:1.5;fill:none;"/><!--MD5=[632ffee6b860cfc9bcac06b852135104]
link LTF to LTB_API--><path d="M1836.82,248.02 C1838.39,274.43 1840.61,311.74 1841.91,333.75 " fill="none" id="LTF-to-LTB_API" style="stroke:#383838;stroke-width:1.0;"/><path d="M1850.7822,340.4112 A9,9 0 0 0 1833.8968 341.403" style="stroke:#383838;stroke-width:1.5;fill:none;"/><!--MD5=[4a41331c31bbd71ab791820d8813635b]
link DPF to DPMB_API--><path d="M1289.88,248.02 C1254.39,276.43 1203.15,317.46 1176.9,338.47 " fill="none" id="DPF-to-DPMB_API" style="stroke:#383838;stroke-width:1.0;"/><path d="M1176.6937,349.4762 A9,9 0 0 0 1166.1362 336.2612" style="stroke:#383838;stroke-width:1.5;fill:none;"/><!--MD5=[99639326d43e115e35ef3e6d4e64f760]
link DRF to DRB_API--><path d="M1580.04,248.02 C1581.81,274.43 1584.31,311.74 1585.78,333.75 " fill="none" id="DRF-to-DRB_API" style="stroke:#383838;stroke-width:1.0;"/><path d="M1594.6968,340.3531 A9,9 0 0 0 1577.8189 341.4638" style="stroke:#383838;stroke-width:1.5;fill:none;"/><!--MD5=[360d4be81d2123024f3a814556a53433]
link DVB to MB_API--><path d="M517.31,521.02 C581.07,551.76 675.45,597.26 714.77,616.21 " fill="none" id="DVB-to-MB_API" style="stroke:#383838;stroke-width:1.0;"/><path d="M724.8276,611.6749 A9,9 0 0 0 717.4862 626.9131" style="stroke:#383838;stroke-width:1.5;fill:none;"/><!--MD5=[604f780646d9df350d60f8370c6d8018]
link DS to MB_API--><path d="M148.52,515.58 C154.38,517.55 160.27,519.4 166,521 C376.87,580 641.46,614.12 713.92,622.79 " fill="none" id="DS-to-MB_API" style="stroke:#383838;stroke-width:1.0;"/><path d="M721.8064,615.1974 A9,9 0 0 0 719.8007 631.9925" style="stroke:#383838;stroke-width:1.5;fill:none;"/><!--MD5=[432dc558a2903d0c88606da1e4b84e79]
link LTB to MB_API--><path d="M1762.96,518.01 C1756.91,519.11 1750.89,520.12 1745,521 C1354.2,579.32 1245.01,501.34 858,581 C818.94,589.04 775.46,606.37 751.46,616.72 " fill="none" id="LTB-to-MB_API" style="stroke:#383838;stroke-width:1.0;"/><path d="M748.3832,627.3017 A9,9 0 0 0 741.5719 611.8192" style="stroke:#383838;stroke-width:1.5;fill:none;"/><!--MD5=[fc219f88c7305afccf9ee7f03fbee597]
link DRB to MB_API--><path d="M1462.21,518.22 C1456.41,519.21 1450.65,520.14 1445,521 C1185.74,560.51 1113.92,523.73 858,581 C819.08,589.71 775.55,606.8 751.51,616.93 " fill="none" id="DRB-to-MB_API" style="stroke:#383838;stroke-width:1.0;"/><path d="M748.3508,627.4709 A9,9 0 0 0 741.6878 611.924" style="stroke:#383838;stroke-width:1.5;fill:none;"/><!--MD5=[6911d2fabc650c005ca4ddd288c99edc]
link DPMB to MB_API--><path d="M944.83,521.02 C882.5,551.61 790.37,596.84 751.44,615.95 " fill="none" id="DPMB-to-MB_API" style="stroke:#383838;stroke-width:1.0;"/><path d="M748.8277,626.6577 A9,9 0 0 0 741.3796 611.4714" style="stroke:#383838;stroke-width:1.5;fill:none;"/><!--MD5=[c8781c541b8ee09f9ccaf5978285f76f]
link DRSB to MB_API--><path d="M1172.81,517.51 C1167.13,518.7 1161.51,519.86 1156,521 C1023.69,548.33 988.26,545.15 858,581 C819.55,591.58 775.86,608.01 751.65,617.51 " fill="none" id="DRSB-to-MB_API" style="stroke:#383838;stroke-width:1.0;"/><path d="M748.2476,627.9582 A9,9 0 0 0 742.0157 612.2336" style="stroke:#383838;stroke-width:1.5;fill:none;"/><!--MD5=[f827bf9b42c62ebabf528d1fcac18818]
link DPSB to MB_API--><path d="M719.08,521.02 C722.64,547.55 727.66,585.09 730.6,607.05 " fill="none" id="DPSB-to-MB_API" style="stroke:#383838;stroke-width:1.0;"/><path d="M739.9035,612.8058 A9,9 0 0 0 723.1389 615.0524" style="stroke:#383838;stroke-width:1.5;fill:none;"/><!--MD5=[9ce444daab36fdb377509fb95a57d70f]
link DDG to MB_API--><path d="M318.89,515.17 C324.99,517.21 331.1,519.18 337,521 C480.61,565.24 657.09,607.34 714.21,620.66 " fill="none" id="DDG-to-MB_API" style="stroke:#383838;stroke-width:1.0;"/><path d="M722.91,613.9963 A9,9 0 0 0 719.0925 630.4743" style="stroke:#383838;stroke-width:1.5;fill:none;"/><!--MD5=[59102a87a4d94a16034c88bc26e4734d]
link DR to IN_ENDPOINT--><path d="M251,794.02 C251,820.62 251,857.43 251,873.7 " fill="none" id="DR-IN_ENDPOINT" style="stroke:#383838;stroke-width:1.0;"/><!--MD5=[ae3611b2a0d706c1425a5b98056c682e]
reverse link DDG_API to DR--><path d="M251,645.22 C251,667.19 251,704.43 251,730.85 " fill="none" id="DDG_API-backto-DR" style="stroke:#383838;stroke-width:1.0;"/><path d="M242.5428,638.0882 A9,9 0 0 0 259.4572 638.0882" style="stroke:#383838;stroke-width:1.5;fill:none;"/><!--MD5=[0995528bb886250702bcfb8038fd03cb]
@startuml logical-view-level2

skinparam Monochrome true
skinparam sequenceMessageAlign center
skinparam Shadowing false
skinparam componentStyle uml2
skinparam packageStyle rectangle

interface "UI" as UI

interface "Rest API" as IN_ENDPOINT

component "Environment" <<System>> {
    component "Message Broker" as MB <<Container>>
    component "Device Records Master Backend" as DRB <<Container>>
    component "Device Records Slave Backend" as DRSB <<Container>>
    component "Location Tracking Backend" as LTB <<Container>>
    component "Data Gateway" as DDG <<Container>>
    component "Data Relayer" as DR <<Container>>
    component "UI Aggregator" as UIAG <<Container>> {
        component "Device Records Frontend" as DRF <<Container>>
        component "Data Processor Frontend" as DPF <<Container>>
        component "Location Tracking Frontend" as LTF <<Container>>
    }
    component "Data Processor Slave Backend" as DPSB <<Container>>
    component "Data Processor Master Backend" as DPMB <<Container>>
    component "Data Validator Backend" as DVB <<Container>>
    component "Device Records Database" as DRDB <<Container>>
    component "Data Processor Database" as DPDB <<Container>>
    component "Data Store" as DS <<Container>>
    component "QuestDB" as QUESTDB <<Container>>
    component "MongoDB" as MONGODB <<Container>>

    interface "Message Broker\nAPI" as MB_API
    interface "Location Tracking Backend\nAPI" as LTB_API
    interface "Device Records Master Backend\nAPI" as DRB_API
    interface "Data Processor Master Backend\nAPI" as DPMB_API
    interface "Device Records Database\nAPI" as DRDB_API
    interface "Data Processor Database\nAPI" as DPDB_API
    interface "QuestDB\nAPI" as QUESTDB_API
    interface "MongoDB\nAPI" as MONGODB_API
    interface "Data Gateway\nAPI" as DDG_API

    LTB - -( QUESTDB_API
    DS - -( MONGODB_API
    DDG - - DDG_API
    DPMB_API - - DPMB
    DRB_API - - DRB
    MB_API - - MB
    DRDB_API - - DRDB
    DPDB_API - - DPDB
    LTB_API - - LTB
    UI - - UIAG
    MONGODB_API - - MONGODB
    QUESTDB_API - - QUESTDB
    DRB - -( DRDB_API
    DRSB - -( DRDB_API
    DPMB - -( DPDB_API
    DPSB - -( DPDB_API
    LTF - -( LTB_API
    DPF - -( DPMB_API
    DRF - -( DRB_API

    DVB - -( MB_API
    DS - -( MB_API
    LTB - -( MB_API
    DRB - -( MB_API
    DPMB - -( MB_API
    DRSB - -( MB_API
    DPSB - -( MB_API
    DDG - -( MB_API

    DR - - IN_ENDPOINT
    DDG_API )- - DR
}

@enduml

PlantUML version 1.2021.16(Wed Dec 08 17:25:22 WET 2021)
(GPL source distribution)
Java Runtime: OpenJDK Runtime Environment
JVM: OpenJDK 64-Bit Server VM
Default Encoding: UTF-8
Language: en
Country: GB
--></g></svg>