<?xml version="1.0" encoding="UTF-8" standalone="no"?><svg xmlns="http://www.w3.org/2000/svg" xmlns:xlink="http://www.w3.org/1999/xlink" contentScriptType="application/ecmascript" contentStyleType="text/css" height="951px" preserveAspectRatio="none" style="width:391px;height:951px;background:#FFFFFF;" version="1.1" viewBox="0 0 391 951" width="391px" zoomAndPan="magnify"><defs><filter height="300%" id="f1facg92kzbzh8" width="300%" x="-1" y="-1"><feGaussianBlur result="blurOut" stdDeviation="2.0"/><feColorMatrix in="blurOut" result="blurOut2" type="matrix" values="0 0 0 0 0 0 0 0 0 0 0 0 0 0 0 0 0 0 .4 0"/><feOffset dx="4.0" dy="4.0" in="blurOut2" result="blurOut3"/><feBlend in="SourceGraphic" in2="blurOut3" mode="normal"/></filter></defs><g><!--MD5=[8ccc66355ccd57bcd7141504f22623b2]
cluster Chrono Data Store--><rect fill="#FFFFFF" filter="url(#f1facg92kzbzh8)" height="930" style="stroke:#000000;stroke-width:1.5;" width="370" x="7" y="7"/><rect fill="#FFFFFF" height="10" style="stroke:#000000;stroke-width:1.5;" width="15" x="357" y="12"/><rect fill="#FFFFFF" height="2" style="stroke:#000000;stroke-width:1.5;" width="4" x="355" y="14"/><rect fill="#FFFFFF" height="2" style="stroke:#000000;stroke-width:1.5;" width="4" x="355" y="18"/><text fill="#000000" font-family="sans-serif" font-size="14" font-weight="bold" lengthAdjust="spacing" textLength="146" x="119" y="32.9951">Chrono Data Store</text><!--MD5=[70becb833e031d8ab2b25bb6fd041c2b]
cluster INFRA--><rect fill="#FFFFFF" filter="url(#f1facg92kzbzh8)" height="687" style="stroke:#000000;stroke-width:1.5;" width="322" x="31" y="50"/><rect fill="#FFFFFF" height="10" style="stroke:#000000;stroke-width:1.5;" width="15" x="333" y="55"/><rect fill="#FFFFFF" height="2" style="stroke:#000000;stroke-width:1.5;" width="4" x="331" y="57"/><rect fill="#FFFFFF" height="2" style="stroke:#000000;stroke-width:1.5;" width="4" x="331" y="61"/><text fill="#000000" font-family="sans-serif" font-size="14" font-weight="bold" lengthAdjust="spacing" textLength="110" x="137" y="75.9951">Infrastructure</text><!--MD5=[7a83628ac60894de8f7ccce91cd32b26]
cluster PERSIST--><rect fill="#FFFFFF" filter="url(#f1facg92kzbzh8)" height="215" style="stroke:#000000;stroke-width:1.5;" width="136" x="55" y="498"/><rect fill="#FFFFFF" height="10" style="stroke:#000000;stroke-width:1.5;" width="15" x="171" y="503"/><rect fill="#FFFFFF" height="2" style="stroke:#000000;stroke-width:1.5;" width="4" x="169" y="505"/><rect fill="#FFFFFF" height="2" style="stroke:#000000;stroke-width:1.5;" width="4" x="169" y="509"/><text fill="#000000" font-family="sans-serif" font-size="14" font-weight="bold" lengthAdjust="spacing" textLength="94" x="76" y="523.9951">Presistence</text><!--MD5=[e827ccb1cbd1809ec2e49ef4b2081f6a]
cluster ENDPOINT--><rect fill="#FFFFFF" filter="url(#f1facg92kzbzh8)" height="215" style="stroke:#000000;stroke-width:1.5;" width="114" x="215" y="498"/><rect fill="#FFFFFF" height="10" style="stroke:#000000;stroke-width:1.5;" width="15" x="309" y="503"/><rect fill="#FFFFFF" height="2" style="stroke:#000000;stroke-width:1.5;" width="4" x="307" y="505"/><rect fill="#FFFFFF" height="2" style="stroke:#000000;stroke-width:1.5;" width="4" x="307" y="509"/><text fill="#000000" font-family="sans-serif" font-size="14" font-weight="bold" lengthAdjust="spacing" textLength="69" x="237.5" y="523.9951">Endpoint</text><!--MD5=[cd187d11655e4367e900de538d2f1d0c]
entity APP--><rect fill="#F8F8F8" filter="url(#f1facg92kzbzh8)" height="46.2969" style="stroke:#383838;stroke-width:1.5;" width="115" x="139.5" y="875"/><rect fill="#F8F8F8" height="10" style="stroke:#383838;stroke-width:1.5;" width="15" x="234.5" y="880"/><rect fill="#F8F8F8" height="2" style="stroke:#383838;stroke-width:1.5;" width="4" x="232.5" y="882"/><rect fill="#F8F8F8" height="2" style="stroke:#383838;stroke-width:1.5;" width="4" x="232.5" y="886"/><text fill="#000000" font-family="sans-serif" font-size="14" lengthAdjust="spacing" textLength="75" x="154.5" y="907.9951">Application</text><!--MD5=[30d85f3125b7a53865e5f4719123efb6]
entity APP_API--><ellipse cx="197" cy="786" fill="#F8F8F8" filter="url(#f1facg92kzbzh8)" rx="8" ry="8" style="stroke:#383838;stroke-width:1.5;"/><text fill="#000000" font-family="sans-serif" font-size="14" lengthAdjust="spacing" textLength="100" x="147" y="815.9951">Application API</text><!--MD5=[50c35d0a5350f8e8f48a6d3669f54f50]
entity BOOT--><rect fill="#F8F8F8" filter="url(#f1facg92kzbzh8)" height="46.2969" style="stroke:#383838;stroke-width:1.5;" width="73" x="160.5" y="203"/><rect fill="#F8F8F8" height="10" style="stroke:#383838;stroke-width:1.5;" width="15" x="213.5" y="208"/><rect fill="#F8F8F8" height="2" style="stroke:#383838;stroke-width:1.5;" width="4" x="211.5" y="210"/><rect fill="#F8F8F8" height="2" style="stroke:#383838;stroke-width:1.5;" width="4" x="211.5" y="214"/><text fill="#000000" font-family="sans-serif" font-size="14" lengthAdjust="spacing" textLength="33" x="175.5" y="235.9951">Boot</text><!--MD5=[becb97998b7b4af08e2de339e4eb8c19]
entity MAP--><rect fill="#F8F8F8" filter="url(#f1facg92kzbzh8)" height="46.2969" style="stroke:#383838;stroke-width:1.5;" width="92" x="151" y="427"/><rect fill="#F8F8F8" height="10" style="stroke:#383838;stroke-width:1.5;" width="15" x="223" y="432"/><rect fill="#F8F8F8" height="2" style="stroke:#383838;stroke-width:1.5;" width="4" x="221" y="434"/><rect fill="#F8F8F8" height="2" style="stroke:#383838;stroke-width:1.5;" width="4" x="221" y="438"/><text fill="#000000" font-family="sans-serif" font-size="14" lengthAdjust="spacing" textLength="52" x="166" y="459.9951">Mapper</text><!--MD5=[44f07762fab2e804df8e0636e93cffbe]
entity BOOT_API--><ellipse cx="197" cy="114" fill="#F8F8F8" filter="url(#f1facg92kzbzh8)" rx="8" ry="8" style="stroke:#383838;stroke-width:1.5;"/><text fill="#000000" font-family="sans-serif" font-size="14" lengthAdjust="spacing" textLength="58" x="168" y="143.9951">Boot API</text><!--MD5=[38a9b1639d19c51278eb97e5a118e1f1]
entity MAP_API--><ellipse cx="197" cy="338" fill="#F8F8F8" filter="url(#f1facg92kzbzh8)" rx="8" ry="8" style="stroke:#383838;stroke-width:1.5;"/><text fill="#000000" font-family="sans-serif" font-size="14" lengthAdjust="spacing" textLength="77" x="158.5" y="367.9951">Mapper API</text><!--MD5=[6bdb0329a399f87a26a0fe9cc0d710cd]
entity QUEST--><rect fill="#F8F8F8" filter="url(#f1facg92kzbzh8)" height="46.2969" style="stroke:#383838;stroke-width:1.5;" width="103" x="71.5" y="651"/><rect fill="#F8F8F8" height="10" style="stroke:#383838;stroke-width:1.5;" width="15" x="154.5" y="656"/><rect fill="#F8F8F8" height="2" style="stroke:#383838;stroke-width:1.5;" width="4" x="152.5" y="658"/><rect fill="#F8F8F8" height="2" style="stroke:#383838;stroke-width:1.5;" width="4" x="152.5" y="662"/><text fill="#000000" font-family="sans-serif" font-size="14" lengthAdjust="spacing" textLength="63" x="86.5" y="683.9951">QuestDB</text><!--MD5=[f69cb70f524f9b3f3fd427428b9eb14c]
entity QUEST_API--><ellipse cx="123" cy="562" fill="#F8F8F8" filter="url(#f1facg92kzbzh8)" rx="8" ry="8" style="stroke:#383838;stroke-width:1.5;"/><text fill="#000000" font-family="sans-serif" font-size="14" lengthAdjust="spacing" textLength="88" x="79" y="591.9951">QuestDB API</text><!--MD5=[66db70f94ccbac3c79bd754cb956443f]
entity AMQP--><rect fill="#F8F8F8" filter="url(#f1facg92kzbzh8)" height="46.2969" style="stroke:#383838;stroke-width:1.5;" width="81" x="231.5" y="651"/><rect fill="#F8F8F8" height="10" style="stroke:#383838;stroke-width:1.5;" width="15" x="292.5" y="656"/><rect fill="#F8F8F8" height="2" style="stroke:#383838;stroke-width:1.5;" width="4" x="290.5" y="658"/><rect fill="#F8F8F8" height="2" style="stroke:#383838;stroke-width:1.5;" width="4" x="290.5" y="662"/><text fill="#000000" font-family="sans-serif" font-size="14" lengthAdjust="spacing" textLength="41" x="246.5" y="683.9951">AMQP</text><!--MD5=[f360c852f81daa4ad66be7df7a5c9a3d]
entity AMQP_API--><ellipse cx="272" cy="562" fill="#F8F8F8" filter="url(#f1facg92kzbzh8)" rx="8" ry="8" style="stroke:#383838;stroke-width:1.5;"/><text fill="#000000" font-family="sans-serif" font-size="14" lengthAdjust="spacing" textLength="66" x="239" y="591.9951">AMQP API</text><!--MD5=[f9ccec574c9d7d912a785d7186889d54]
link MAP_API to MAP--><path d="M197,347.27 C197,363.96 197,402.16 197,426.71 " fill="none" id="MAP_API-MAP" style="stroke:#383838;stroke-width:1.0;"/><!--MD5=[7bb09455b0945dd434a0ae5d26bab86c]
link QUEST_API to QUEST--><path d="M123,571.27 C123,587.96 123,626.16 123,650.71 " fill="none" id="QUEST_API-QUEST" style="stroke:#383838;stroke-width:1.0;"/><!--MD5=[144eb759bece83ea8e8de5d37013052c]
link AMQP_API to AMQP--><path d="M272,571.27 C272,587.96 272,626.16 272,650.71 " fill="none" id="AMQP_API-AMQP" style="stroke:#383838;stroke-width:1.0;"/><!--MD5=[9bc3545913d2ece8bc1c8e2c39a9583d]
link APP_API to APP--><path d="M197,795.27 C197,811.96 197,850.16 197,874.71 " fill="none" id="APP_API-APP" style="stroke:#383838;stroke-width:1.0;"/><!--MD5=[960e631b20e6d0a5a1769365a28f267a]
link BOOT_API to BOOT--><path d="M197,123.27 C197,139.96 197,178.16 197,202.71 " fill="none" id="BOOT_API-BOOT" style="stroke:#383838;stroke-width:1.0;"/><!--MD5=[50ee9e5020b7eeb8cea5a65291237e8d]
link AMQP to APP_API--><path d="M256.82,697.26 C242.47,718.31 221.25,749.43 208.32,768.39 " fill="none" id="AMQP-to-APP_API" style="stroke:#383838;stroke-width:1.0;"/><path d="M211.2737,779.073 A9,9 0 0 0 197.2898 769.5572" style="stroke:#383838;stroke-width:1.5;fill:none;"/><!--MD5=[823b6ae275860bcf56c233e42bb374a2]
link QUEST to APP_API--><path d="M137.98,697.26 C152.14,718.31 173.07,749.43 185.83,768.39 " fill="none" id="QUEST-to-APP_API" style="stroke:#383838;stroke-width:1.0;"/><path d="M196.8119,769.5802 A9,9 0 0 0 182.7868 779.0351" style="stroke:#383838;stroke-width:1.5;fill:none;"/><!--MD5=[5b49cbdf33933a34b32eeb89f587be22]
link BOOT to QUEST_API--><path d="M173.96,249.04 C159.62,264.35 142.36,286.06 134,309 C103.79,391.92 114.33,500.45 120.18,542.89 " fill="none" id="BOOT-to-QUEST_API" style="stroke:#383838;stroke-width:1.0;"/><path d="M129.5489,548.5431 A9,9 0 0 0 112.8147 551.0061" style="stroke:#383838;stroke-width:1.5;fill:none;"/><!--MD5=[825637d1efb63c5c00802efb716c3c83]
link BOOT to AMQP_API--><path d="M220.73,249.31 C235.23,264.57 252.57,286.13 261,309 C291.52,391.8 280.81,500.4 274.86,542.87 " fill="none" id="BOOT-to-AMQP_API" style="stroke:#383838;stroke-width:1.0;"/><path d="M282.2079,551.0086 A9,9 0 0 0 265.4772 548.5219" style="stroke:#383838;stroke-width:1.5;fill:none;"/><!--MD5=[5d9a2f651ca28f65d24b6769c535d032]
link BOOT to MAP_API--><path d="M197,249.26 C197,269.74 197,299.73 197,318.81 " fill="none" id="BOOT-to-MAP_API" style="stroke:#383838;stroke-width:1.0;"/><path d="M205.4572,325.7818 A9,9 0 0 0 188.5428 325.7818" style="stroke:#383838;stroke-width:1.5;fill:none;"/><!--MD5=[31d281a3e01de46d82c910cbc328fbb4]
link MAP to AMQP_API--><path d="M212.18,473.26 C226.53,494.31 247.75,525.43 260.68,544.39 " fill="none" id="MAP-to-AMQP_API" style="stroke:#383838;stroke-width:1.0;"/><path d="M271.7102,545.5572 A9,9 0 0 0 257.7263 555.073" style="stroke:#383838;stroke-width:1.5;fill:none;"/><!--MD5=[15fd6b4ec414d2f3f093ff502d905959]
link MAP to QUEST_API--><path d="M182.02,473.26 C167.86,494.31 146.93,525.43 134.17,544.39 " fill="none" id="MAP-to-QUEST_API" style="stroke:#383838;stroke-width:1.0;"/><path d="M137.2132,555.0351 A9,9 0 0 0 123.1881 545.5802" style="stroke:#383838;stroke-width:1.5;fill:none;"/><!--MD5=[c40bde70764ac590b0bd98622d7b18b0]
@startuml logical-view-level3-chrono-data-store

skinparam Monochrome true

component "Chrono Data Store" {
    component "Application" as APP
    component "Infrastructure" as INFRA {
        component "Boot" as BOOT
        component "Mapper" as MAP
        component "Presistence" as PERSIST {
            component "QuestDB" as QUEST
            interface "QuestDB API" as QUEST_API
        }
        component "Endpoint" as ENDPOINT {
            component "AMQP" as AMQP
            interface "AMQP API" as AMQP_API
        }
        interface "Boot API" as BOOT_API
        interface "Mapper API" as MAP_API
    }
    interface "Application API" as APP_API

    MAP_API - - MAP
    QUEST_API - - QUEST
    AMQP_API - - AMQP
    APP_API - - APP
    BOOT_API - - BOOT

    AMQP - -( APP_API
    QUEST - -( APP_API
    BOOT - -( QUEST_API
    BOOT - -( AMQP_API
    BOOT - -( MAP_API

    MAP - -( AMQP_API
    MAP - -( QUEST_API
}

@enduml

PlantUML version 1.2021.9(Sun Jul 25 11:13:56 WEST 2021)
(GPL source distribution)
Java Runtime: OpenJDK Runtime Environment
JVM: OpenJDK 64-Bit Server VM
Default Encoding: UTF-8
Language: en
Country: GB
--></g></svg>