<?xml version="1.0" encoding="UTF-8" standalone="no"?><svg xmlns="http://www.w3.org/2000/svg" xmlns:xlink="http://www.w3.org/1999/xlink" contentScriptType="application/ecmascript" contentStyleType="text/css" height="816px" preserveAspectRatio="none" style="width:1476px;height:816px;background:#FFFFFF;" version="1.1" viewBox="0 0 1476 816" width="1476px" zoomAndPan="magnify"><defs/><g><!--MD5=[85f6e7297d1ad81d8c1382e17d44cf2c]
cluster Environment--><rect fill="#FFFFFF" height="751" style="stroke:#000000;stroke-width:1.5;" width="1406" x="7" y="59"/><rect fill="#FFFFFF" height="10" style="stroke:#000000;stroke-width:1.5;" width="15" x="1393" y="64"/><rect fill="#FFFFFF" height="2" style="stroke:#000000;stroke-width:1.5;" width="4" x="1391" y="66"/><rect fill="#FFFFFF" height="2" style="stroke:#000000;stroke-width:1.5;" width="4" x="1391" y="70"/><text fill="#000000" font-family="sans-serif" font-size="14" font-style="italic" lengthAdjust="spacing" textLength="69" x="675.5" y="84.9951">«System»</text><text fill="#000000" font-family="sans-serif" font-size="14" font-weight="bold" lengthAdjust="spacing" textLength="99" x="660.5" y="101.292">Environment</text><!--MD5=[2f974df144d935b84f61c768008119cd]
cluster UIAG--><rect fill="#FFFFFF" height="146" style="stroke:#000000;stroke-width:1.5;" width="546" x="178" y="126"/><rect fill="#FFFFFF" height="10" style="stroke:#000000;stroke-width:1.5;" width="15" x="704" y="131"/><rect fill="#FFFFFF" height="2" style="stroke:#000000;stroke-width:1.5;" width="4" x="702" y="133"/><rect fill="#FFFFFF" height="2" style="stroke:#000000;stroke-width:1.5;" width="4" x="702" y="137"/><text fill="#000000" font-family="sans-serif" font-size="14" font-style="italic" lengthAdjust="spacing" textLength="85" x="408.5" y="151.9951">«Container»</text><text fill="#000000" font-family="sans-serif" font-size="14" font-weight="bold" lengthAdjust="spacing" textLength="110" x="396" y="168.292">UI Aggregator</text><!--MD5=[2c8bfc6f691a2260a342f8a3a45a5f4e]
entity MB--><rect fill="#F8F8F8" height="62.5938" style="stroke:#383838;stroke-width:1.5;" width="153" x="649.5" y="731"/><rect fill="#F8F8F8" height="10" style="stroke:#383838;stroke-width:1.5;" width="15" x="782.5" y="736"/><rect fill="#F8F8F8" height="2" style="stroke:#383838;stroke-width:1.5;" width="4" x="780.5" y="738"/><rect fill="#F8F8F8" height="2" style="stroke:#383838;stroke-width:1.5;" width="4" x="780.5" y="742"/><text fill="#000000" font-family="sans-serif" font-size="14" font-style="italic" lengthAdjust="spacing" textLength="85" x="678.5" y="763.9951">«Container»</text><text fill="#000000" font-family="sans-serif" font-size="14" lengthAdjust="spacing" textLength="113" x="664.5" y="780.292">Message Broker</text><!--MD5=[de9d829787e3a43b2ded327ec6864356]
entity DRB--><rect fill="#F8F8F8" height="62.5938" style="stroke:#383838;stroke-width:1.5;" width="265" x="23.5" y="458"/><rect fill="#F8F8F8" height="10" style="stroke:#383838;stroke-width:1.5;" width="15" x="268.5" y="463"/><rect fill="#F8F8F8" height="2" style="stroke:#383838;stroke-width:1.5;" width="4" x="266.5" y="465"/><rect fill="#F8F8F8" height="2" style="stroke:#383838;stroke-width:1.5;" width="4" x="266.5" y="469"/><text fill="#000000" font-family="sans-serif" font-size="14" font-style="italic" lengthAdjust="spacing" textLength="85" x="108.5" y="490.9951">«Container»</text><text fill="#000000" font-family="sans-serif" font-size="14" lengthAdjust="spacing" textLength="225" x="38.5" y="507.292">Device Records Master Backend</text><!--MD5=[16d24166dd61b60d67a9b622353efc3e]
entity DRSB--><rect fill="#F8F8F8" height="62.5938" style="stroke:#383838;stroke-width:1.5;" width="254" x="324" y="458"/><rect fill="#F8F8F8" height="10" style="stroke:#383838;stroke-width:1.5;" width="15" x="558" y="463"/><rect fill="#F8F8F8" height="2" style="stroke:#383838;stroke-width:1.5;" width="4" x="556" y="465"/><rect fill="#F8F8F8" height="2" style="stroke:#383838;stroke-width:1.5;" width="4" x="556" y="469"/><text fill="#000000" font-family="sans-serif" font-size="14" font-style="italic" lengthAdjust="spacing" textLength="85" x="403.5" y="490.9951">«Container»</text><text fill="#000000" font-family="sans-serif" font-size="14" lengthAdjust="spacing" textLength="214" x="339" y="507.292">Device Records Slave Backend</text><!--MD5=[07f1f74cdc79fa2fd2740ec7d7a64eca]
entity LTB--><rect fill="#F8F8F8" height="62.5938" style="stroke:#383838;stroke-width:1.5;" width="226" x="613" y="458"/><rect fill="#F8F8F8" height="10" style="stroke:#383838;stroke-width:1.5;" width="15" x="819" y="463"/><rect fill="#F8F8F8" height="2" style="stroke:#383838;stroke-width:1.5;" width="4" x="817" y="465"/><rect fill="#F8F8F8" height="2" style="stroke:#383838;stroke-width:1.5;" width="4" x="817" y="469"/><text fill="#000000" font-family="sans-serif" font-size="14" font-style="italic" lengthAdjust="spacing" textLength="85" x="678.5" y="490.9951">«Container»</text><text fill="#000000" font-family="sans-serif" font-size="14" lengthAdjust="spacing" textLength="186" x="628" y="507.292">Location Tracking Backend</text><!--MD5=[f29cc1d3e5c09383ffc981bef527a084]
entity LGT92GPSG--><rect fill="#F8F8F8" height="62.5938" style="stroke:#383838;stroke-width:1.5;" width="238" x="1159" y="458"/><rect fill="#F8F8F8" height="10" style="stroke:#383838;stroke-width:1.5;" width="15" x="1377" y="463"/><rect fill="#F8F8F8" height="2" style="stroke:#383838;stroke-width:1.5;" width="4" x="1375" y="465"/><rect fill="#F8F8F8" height="2" style="stroke:#383838;stroke-width:1.5;" width="4" x="1375" y="469"/><text fill="#000000" font-family="sans-serif" font-size="14" font-style="italic" lengthAdjust="spacing" textLength="85" x="1230.5" y="490.9951">«Container»</text><text fill="#000000" font-family="sans-serif" font-size="14" lengthAdjust="spacing" textLength="198" x="1174" y="507.292">LGT 92 GPS Sensor Gateway</text><!--MD5=[916b332d59e591ecaa5566188f0cdc33]
entity DR--><rect fill="#F8F8F8" height="62.5938" style="stroke:#383838;stroke-width:1.5;" width="127" x="1269.5" y="594.5"/><rect fill="#F8F8F8" height="10" style="stroke:#383838;stroke-width:1.5;" width="15" x="1376.5" y="599.5"/><rect fill="#F8F8F8" height="2" style="stroke:#383838;stroke-width:1.5;" width="4" x="1374.5" y="601.5"/><rect fill="#F8F8F8" height="2" style="stroke:#383838;stroke-width:1.5;" width="4" x="1374.5" y="605.5"/><text fill="#000000" font-family="sans-serif" font-size="14" font-style="italic" lengthAdjust="spacing" textLength="85" x="1285.5" y="627.4951">«Container»</text><text fill="#000000" font-family="sans-serif" font-size="14" lengthAdjust="spacing" textLength="87" x="1284.5" y="643.792">Data Relayer</text><!--MD5=[72c6d9e59178f7c2c8669ecc4d80f856]
entity LGT92GPSP--><rect fill="#F8F8F8" height="62.5938" style="stroke:#383838;stroke-width:1.5;" width="249" x="874.5" y="458"/><rect fill="#F8F8F8" height="10" style="stroke:#383838;stroke-width:1.5;" width="15" x="1103.5" y="463"/><rect fill="#F8F8F8" height="2" style="stroke:#383838;stroke-width:1.5;" width="4" x="1101.5" y="465"/><rect fill="#F8F8F8" height="2" style="stroke:#383838;stroke-width:1.5;" width="4" x="1101.5" y="469"/><text fill="#000000" font-family="sans-serif" font-size="14" font-style="italic" lengthAdjust="spacing" textLength="85" x="951.5" y="490.9951">«Container»</text><text fill="#000000" font-family="sans-serif" font-size="14" lengthAdjust="spacing" textLength="209" x="889.5" y="507.292">LGT 92 GPS Sensor Processor</text><!--MD5=[5c672979971b01ffe3e26ca5e0224f67]
entity DRDB--><rect fill="#F8F8F8" height="62.5938" style="stroke:#383838;stroke-width:1.5;" width="219" x="193.5" y="731"/><rect fill="#F8F8F8" height="10" style="stroke:#383838;stroke-width:1.5;" width="15" x="392.5" y="736"/><rect fill="#F8F8F8" height="2" style="stroke:#383838;stroke-width:1.5;" width="4" x="390.5" y="738"/><rect fill="#F8F8F8" height="2" style="stroke:#383838;stroke-width:1.5;" width="4" x="390.5" y="742"/><text fill="#000000" font-family="sans-serif" font-size="14" font-style="italic" lengthAdjust="spacing" textLength="85" x="255.5" y="763.9951">«Container»</text><text fill="#000000" font-family="sans-serif" font-size="14" lengthAdjust="spacing" textLength="179" x="208.5" y="780.292">Device Records Database</text><!--MD5=[ed43a859708a376e35ae74978de1b490]
entity MB_API--><ellipse cx="726" cy="626" fill="#F8F8F8" rx="8" ry="8" style="stroke:#383838;stroke-width:1.5;"/><text fill="#000000" font-family="sans-serif" font-size="14" lengthAdjust="spacing" textLength="113" x="669.5" y="655.9951">Message Broker</text><text fill="#000000" font-family="sans-serif" font-size="14" lengthAdjust="spacing" textLength="21" x="669.5" y="672.292">API</text><!--MD5=[0ce5a9617f51ae4b5bc891fe128d05dc]
entity LTB_API--><ellipse cx="656" cy="353" fill="#F8F8F8" rx="8" ry="8" style="stroke:#383838;stroke-width:1.5;"/><text fill="#000000" font-family="sans-serif" font-size="14" lengthAdjust="spacing" textLength="186" x="563" y="382.9951">Location Tracking Backend</text><text fill="#000000" font-family="sans-serif" font-size="14" lengthAdjust="spacing" textLength="21" x="563" y="399.292">API</text><!--MD5=[9244efad2dc02808af23604ab0304277]
entity DRB_API--><ellipse cx="242" cy="353" fill="#F8F8F8" rx="8" ry="8" style="stroke:#383838;stroke-width:1.5;"/><text fill="#000000" font-family="sans-serif" font-size="14" lengthAdjust="spacing" textLength="225" x="129.5" y="382.9951">Device Records Master Backend</text><text fill="#000000" font-family="sans-serif" font-size="14" lengthAdjust="spacing" textLength="21" x="129.5" y="399.292">API</text><!--MD5=[5ca5631ebaf5f86a9fa4e428e4442db3]
entity DRDB_API--><ellipse cx="303" cy="626" fill="#F8F8F8" rx="8" ry="8" style="stroke:#383838;stroke-width:1.5;"/><text fill="#000000" font-family="sans-serif" font-size="14" lengthAdjust="spacing" textLength="179" x="213.5" y="655.9951">Device Records Database</text><text fill="#000000" font-family="sans-serif" font-size="14" lengthAdjust="spacing" textLength="21" x="213.5" y="672.292">API</text><!--MD5=[08f53820b04260704b3f347581b3815a]
entity LGT92GPSG_API--><ellipse cx="1225" cy="626" fill="#F8F8F8" rx="8" ry="8" style="stroke:#383838;stroke-width:1.5;"/><text fill="#000000" font-family="sans-serif" font-size="14" lengthAdjust="spacing" textLength="198" x="1126" y="655.9951">LGT 92 GPS Sensor Gateway</text><text fill="#000000" font-family="sans-serif" font-size="14" lengthAdjust="spacing" textLength="21" x="1126" y="672.292">API</text><!--MD5=[96142bef19f749aced95310868fd618c]
entity DRF--><rect fill="#F8F8F8" height="62.5938" style="stroke:#383838;stroke-width:1.5;" width="216" x="221" y="185"/><rect fill="#F8F8F8" height="10" style="stroke:#383838;stroke-width:1.5;" width="15" x="417" y="190"/><rect fill="#F8F8F8" height="2" style="stroke:#383838;stroke-width:1.5;" width="4" x="415" y="192"/><rect fill="#F8F8F8" height="2" style="stroke:#383838;stroke-width:1.5;" width="4" x="415" y="196"/><text fill="#000000" font-family="sans-serif" font-size="14" font-style="italic" lengthAdjust="spacing" textLength="85" x="281.5" y="217.9951">«Container»</text><text fill="#000000" font-family="sans-serif" font-size="14" lengthAdjust="spacing" textLength="176" x="236" y="234.292">Device Records Frontend</text><!--MD5=[838a8f8ee09da76e2984218500383e54]
entity LTF--><rect fill="#F8F8F8" height="62.5938" style="stroke:#383838;stroke-width:1.5;" width="228" x="472" y="185"/><rect fill="#F8F8F8" height="10" style="stroke:#383838;stroke-width:1.5;" width="15" x="680" y="190"/><rect fill="#F8F8F8" height="2" style="stroke:#383838;stroke-width:1.5;" width="4" x="678" y="192"/><rect fill="#F8F8F8" height="2" style="stroke:#383838;stroke-width:1.5;" width="4" x="678" y="196"/><text fill="#000000" font-family="sans-serif" font-size="14" font-style="italic" lengthAdjust="spacing" textLength="85" x="538.5" y="217.9951">«Container»</text><text fill="#000000" font-family="sans-serif" font-size="14" lengthAdjust="spacing" textLength="188" x="487" y="234.292">Location Tracking Frontend</text><!--MD5=[c42ed81cef7fdd2e33758127945b9a5b]
entity UI--><ellipse cx="186" cy="14" fill="#F8F8F8" rx="8" ry="8" style="stroke:#383838;stroke-width:1.5;"/><text fill="#000000" font-family="sans-serif" font-size="14" lengthAdjust="spacing" textLength="13" x="179.5" y="43.9951">UI</text><!--MD5=[259fb42cf3d26cb196e8dd6a3316d2da]
entity IN_ENDPOINT--><ellipse cx="1441" cy="626" fill="#F8F8F8" rx="8" ry="8" style="stroke:#383838;stroke-width:1.5;"/><text fill="#000000" font-family="sans-serif" font-size="14" lengthAdjust="spacing" textLength="57" x="1412.5" y="655.9951">Rest API</text><!--MD5=[d387c5a590276bccf01dec506a0c9038]
link DRB to DRSB--><!--MD5=[6272291579e5378b8002bee70f38307b]
link DRSB to LTB--><!--MD5=[ce1a5fef24f1ff99957fcfaef4a8eb89]
link LTB to LGT92GPSP--><!--MD5=[5c41cc965b51842f4bc3a067c502b74d]
link LGT92GPSP to LGT92GPSG--><!--MD5=[a28acdb8ad4d91f65f1547077cd4da90]
link DRB_API to DRB--><path d="M236.88,362.01 C225.09,380.45 195.52,426.69 175.6,457.85 " fill="none" id="DRB_API-DRB" style="stroke:#383838;stroke-width:1.0;"/><!--MD5=[9faa44188f0983b269c38a9c1880fbcb]
link MB_API to MB--><path d="M726,635.01 C726,653.45 726,699.69 726,730.85 " fill="none" id="MB_API-MB" style="stroke:#383838;stroke-width:1.0;"/><!--MD5=[8b4f74b634f1475be71ae4e68775c50f]
link DRDB_API to DRDB--><path d="M303,635.01 C303,653.45 303,699.69 303,730.85 " fill="none" id="DRDB_API-DRDB" style="stroke:#383838;stroke-width:1.0;"/><!--MD5=[4e1349c460729a9b0a875c8c8e490147]
link LTB_API to LTB--><path d="M660.17,362.01 C669.76,380.45 693.83,426.69 710.05,457.85 " fill="none" id="LTB_API-LTB" style="stroke:#383838;stroke-width:1.0;"/><!--MD5=[9467590f772bdba1939f43218646f943]
link UI to UIAG--><path d="M186,23.11 C186,32.34 186,48.6788 186,68.0684 C186,77.7633 186,88.2209 186,98.9339 C186,104.2905 186,109.7109 186,115.1318 C186,117.8422 186,120.5528 186,123.2556 C186,123.9313 186,124.6065 186,125.2811 " fill="none" id="UI-UIAG" style="stroke:#383838;stroke-width:1.0;"/><!--MD5=[5979b812f08d285e19fd2241af551a66]
link LGT92GPSG to LGT92GPSG_API--><path d="M1265.97,521.02 C1253.7,552.18 1235.44,598.51 1228.16,616.98 " fill="none" id="LGT92GPSG-LGT92GPSG_API" style="stroke:#383838;stroke-width:1.0;"/><!--MD5=[c0fd3909471f57f2e33cdcce01cab375]
link DRB to DRDB_API--><path d="M189.36,521.02 C219.69,548.77 263.17,588.56 286.58,609.97 " fill="none" id="DRB-to-DRDB_API" style="stroke:#383838;stroke-width:1.0;"/><path d="M297.6757,608.6657 A9,9 0 0 0 286.2461 621.1343" style="stroke:#383838;stroke-width:1.5;fill:none;"/><!--MD5=[bdcc501502345f0c74f74263afe2354b]
link DRSB to DRDB_API--><path d="M417.42,521.02 C386.88,548.77 343.1,588.56 319.53,609.97 " fill="none" id="DRSB-to-DRDB_API" style="stroke:#383838;stroke-width:1.0;"/><path d="M319.797,621.1665 A9,9 0 0 0 308.4179 608.6519" style="stroke:#383838;stroke-width:1.5;fill:none;"/><!--MD5=[632ffee6b860cfc9bcac06b852135104]
link LTF to LTB_API--><path d="M601.88,248.02 C615.88,274.92 635.77,313.12 647.13,334.95 " fill="none" id="LTF-to-LTB_API" style="stroke:#383838;stroke-width:1.0;"/><path d="M657.9126,337.3466 A9,9 0 0 0 642.9066 345.1517" style="stroke:#383838;stroke-width:1.5;fill:none;"/><!--MD5=[99639326d43e115e35ef3e6d4e64f760]
link DRF to DRB_API--><path d="M309.26,248.02 C291.7,275.16 266.7,313.82 252.65,335.54 " fill="none" id="DRF-to-DRB_API" style="stroke:#383838;stroke-width:1.0;"/><path d="M255.9638,345.9851 A9,9 0 0 0 241.7577 336.8043" style="stroke:#383838;stroke-width:1.5;fill:none;"/><!--MD5=[432dc558a2903d0c88606da1e4b84e79]
link LTB to MB_API--><path d="M726,521.02 C726,547.43 726,584.74 726,606.75 " fill="none" id="LTB-to-MB_API" style="stroke:#383838;stroke-width:1.0;"/><path d="M734.4572,613.9018 A9,9 0 0 0 717.5428 613.9018" style="stroke:#383838;stroke-width:1.5;fill:none;"/><!--MD5=[fc219f88c7305afccf9ee7f03fbee597]
link DRB to MB_API--><path d="M285.34,521.02 C426.64,554.36 641.57,605.08 706.66,620.44 " fill="none" id="DRB-to-MB_API" style="stroke:#383838;stroke-width:1.0;"/><path d="M715.6602,613.8714 A9,9 0 0 0 711.7686 630.3321" style="stroke:#383838;stroke-width:1.5;fill:none;"/><!--MD5=[c8781c541b8ee09f9ccaf5978285f76f]
link DRSB to MB_API--><path d="M513.4,521.02 C575.95,551.61 668.42,596.84 707.49,615.95 " fill="none" id="DRSB-to-MB_API" style="stroke:#383838;stroke-width:1.0;"/><path d="M717.5847,611.4708 A9,9 0 0 0 710.1462 626.6618" style="stroke:#383838;stroke-width:1.5;fill:none;"/><!--MD5=[2134f714ab093ce28fbfa0d440386a29]
link LGT92GPSG to MB_API--><path d="M1158.9,519.52 C1022.57,552.74 809.74,604.6 745.19,620.32 " fill="none" id="LGT92GPSG-to-MB_API" style="stroke:#383838;stroke-width:1.0;"/><path d="M740.216,630.236 A9,9 0 0 0 736.2047 613.804" style="stroke:#383838;stroke-width:1.5;fill:none;"/><!--MD5=[09cbdcf6bf168bcfa236a9a96fcdd5c8]
link LGT92GPSP to MB_API--><path d="M937.05,521.02 C874.95,551.61 783.16,596.84 744.37,615.95 " fill="none" id="LGT92GPSP-to-MB_API" style="stroke:#383838;stroke-width:1.0;"/><path d="M741.8037,626.6411 A9,9 0 0 0 734.3167 611.4739" style="stroke:#383838;stroke-width:1.5;fill:none;"/><!--MD5=[59102a87a4d94a16034c88bc26e4734d]
link DR to IN_ENDPOINT--><path d="M1396.7,626 C1408.35,626 1420.01,626 1431.66,626 " fill="none" id="DR-IN_ENDPOINT" style="stroke:#383838;stroke-width:1.0;"/><!--MD5=[7d0e508d77e45a3169e4944a12f32cfb]
reverse link LGT92GPSG_API to DR--><path d="M1244.42,626 C1252.74,626 1261.06,626 1269.37,626 " fill="none" id="LGT92GPSG_API-backto-DR" style="stroke:#383838;stroke-width:1.0;"/><path d="M1237.3582,634.4572 A9,9 0 0 0 1237.3582 617.5428" style="stroke:#383838;stroke-width:1.5;fill:none;"/><!--MD5=[9c246acf52634bc39f9ed5f6936a006b]
@startuml logical-view-level2

skinparam Monochrome true
skinparam sequenceMessageAlign center
skinparam Shadowing false
skinparam componentStyle uml2
skinparam packageStyle rectangle

interface "UI" as UI

interface "Rest API" as IN_ENDPOINT

component "Environment" <<System>> {
    component "Message Broker" as MB <<Container>>
    component "Device Records Master Backend" as DRB <<Container>>
    component "Device Records Slave Backend" as DRSB <<Container>>
    component "Location Tracking Backend" as LTB <<Container>>
    component "LGT 92 GPS Sensor Gateway" as LGT92GPSG <<Container>>
    component "Data Relayer" as DR <<Container>>
    component "UI Aggregator" as UIAG <<Container>> {
        component "Device Records Frontend" as DRF <<Container>>
        component "Location Tracking Frontend" as LTF <<Container>>
    }
    component "LGT 92 GPS Sensor Processor" as LGT92GPSP <<Container>>
    component "Device Records Database" as DRDB <<Container>>

    interface "Message Broker\nAPI" as MB_API
    interface "Location Tracking Backend\nAPI" as LTB_API
    interface "Device Records Master Backend\nAPI" as DRB_API
    interface "Device Records Database\nAPI" as DRDB_API
    interface "LGT 92 GPS Sensor Gateway\nAPI" as LGT92GPSG_API


    DRB -[hidden] DRSB
    DRSB -[hidden] LTB
    LTB -[hidden] LGT92GPSP
    LGT92GPSP -[hidden] LGT92GPSG

    DRB_API- - DRB
    MB_API - - MB
    DRDB_API - - DRDB
    LTB_API - - LTB
    UI - - UIAG
    LGT92GPSG - - LGT92GPSG_API
    DRB - -( DRDB_API
    DRSB - -( DRDB_API
    LTF - -( LTB_API
    DRF - -( DRB_API

    LTB - -( MB_API
    DRB - -( MB_API
    DRSB - -( MB_API
    LGT92GPSG - -( MB_API
    LGT92GPSP - -( MB_API

    DR - IN_ENDPOINT
    LGT92GPSG_API )- DR
}

@enduml

PlantUML version 1.2021.9(Sun Jul 25 11:13:56 WEST 2021)
(GPL source distribution)
Java Runtime: OpenJDK Runtime Environment
JVM: OpenJDK 64-Bit Server VM
Default Encoding: UTF-8
Language: en
Country: GB
--></g></svg>