<?xml version="1.0" encoding="UTF-8" standalone="no"?><svg xmlns="http://www.w3.org/2000/svg" xmlns:xlink="http://www.w3.org/1999/xlink" contentScriptType="application/ecmascript" contentStyleType="text/css" height="951px" preserveAspectRatio="none" style="width:454px;height:951px;background:#FFFFFF;" version="1.1" viewBox="0 0 454 951" width="454px" zoomAndPan="magnify"><defs><filter height="300%" id="fsl5slj6590ky" width="300%" x="-1" y="-1"><feGaussianBlur result="blurOut" stdDeviation="2.0"/><feColorMatrix in="blurOut" result="blurOut2" type="matrix" values="0 0 0 0 0 0 0 0 0 0 0 0 0 0 0 0 0 0 .4 0"/><feOffset dx="4.0" dy="4.0" in="blurOut2" result="blurOut3"/><feBlend in="SourceGraphic" in2="blurOut3" mode="normal"/></filter></defs><g><!--MD5=[3772a163e1fb8811b2f01830b737f659]
cluster LGT 92 GPS Sensor Processor--><rect fill="#FFFFFF" filter="url(#fsl5slj6590ky)" height="930" style="stroke:#000000;stroke-width:1.5;" width="433" x="7" y="7"/><rect fill="#FFFFFF" height="10" style="stroke:#000000;stroke-width:1.5;" width="15" x="420" y="12"/><rect fill="#FFFFFF" height="2" style="stroke:#000000;stroke-width:1.5;" width="4" x="418" y="14"/><rect fill="#FFFFFF" height="2" style="stroke:#000000;stroke-width:1.5;" width="4" x="418" y="18"/><text fill="#000000" font-family="sans-serif" font-size="14" font-weight="bold" lengthAdjust="spacing" textLength="240" x="103.5" y="32.9951">LGT 92 GPS Sensor Processor</text><!--MD5=[70becb833e031d8ab2b25bb6fd041c2b]
cluster INFRA--><rect fill="#FFFFFF" filter="url(#fsl5slj6590ky)" height="687" style="stroke:#000000;stroke-width:1.5;" width="385" x="31" y="50"/><rect fill="#FFFFFF" height="10" style="stroke:#000000;stroke-width:1.5;" width="15" x="396" y="55"/><rect fill="#FFFFFF" height="2" style="stroke:#000000;stroke-width:1.5;" width="4" x="394" y="57"/><rect fill="#FFFFFF" height="2" style="stroke:#000000;stroke-width:1.5;" width="4" x="394" y="61"/><text fill="#000000" font-family="sans-serif" font-size="14" font-weight="bold" lengthAdjust="spacing" textLength="110" x="168.5" y="75.9951">Infrastructure</text><!--MD5=[e827ccb1cbd1809ec2e49ef4b2081f6a]
cluster ENDPOINT--><rect fill="#FFFFFF" filter="url(#fsl5slj6590ky)" height="215" style="stroke:#000000;stroke-width:1.5;" width="337" x="55" y="498"/><rect fill="#FFFFFF" height="10" style="stroke:#000000;stroke-width:1.5;" width="15" x="372" y="503"/><rect fill="#FFFFFF" height="2" style="stroke:#000000;stroke-width:1.5;" width="4" x="370" y="505"/><rect fill="#FFFFFF" height="2" style="stroke:#000000;stroke-width:1.5;" width="4" x="370" y="509"/><text fill="#000000" font-family="sans-serif" font-size="14" font-weight="bold" lengthAdjust="spacing" textLength="69" x="189" y="523.9951">Endpoint</text><!--MD5=[cd187d11655e4367e900de538d2f1d0c]
entity APP--><rect fill="#F8F8F8" filter="url(#fsl5slj6590ky)" height="46.2969" style="stroke:#383838;stroke-width:1.5;" width="115" x="165.5" y="875"/><rect fill="#F8F8F8" height="10" style="stroke:#383838;stroke-width:1.5;" width="15" x="260.5" y="880"/><rect fill="#F8F8F8" height="2" style="stroke:#383838;stroke-width:1.5;" width="4" x="258.5" y="882"/><rect fill="#F8F8F8" height="2" style="stroke:#383838;stroke-width:1.5;" width="4" x="258.5" y="886"/><text fill="#000000" font-family="sans-serif" font-size="14" lengthAdjust="spacing" textLength="75" x="180.5" y="907.9951">Application</text><!--MD5=[30d85f3125b7a53865e5f4719123efb6]
entity APP_API--><ellipse cx="223" cy="786" fill="#F8F8F8" filter="url(#fsl5slj6590ky)" rx="8" ry="8" style="stroke:#383838;stroke-width:1.5;"/><text fill="#000000" font-family="sans-serif" font-size="14" lengthAdjust="spacing" textLength="100" x="173" y="815.9951">Application API</text><!--MD5=[50c35d0a5350f8e8f48a6d3669f54f50]
entity BOOT--><rect fill="#F8F8F8" filter="url(#fsl5slj6590ky)" height="46.2969" style="stroke:#383838;stroke-width:1.5;" width="73" x="185.5" y="203"/><rect fill="#F8F8F8" height="10" style="stroke:#383838;stroke-width:1.5;" width="15" x="238.5" y="208"/><rect fill="#F8F8F8" height="2" style="stroke:#383838;stroke-width:1.5;" width="4" x="236.5" y="210"/><rect fill="#F8F8F8" height="2" style="stroke:#383838;stroke-width:1.5;" width="4" x="236.5" y="214"/><text fill="#000000" font-family="sans-serif" font-size="14" lengthAdjust="spacing" textLength="33" x="200.5" y="235.9951">Boot</text><!--MD5=[becb97998b7b4af08e2de339e4eb8c19]
entity MAP--><rect fill="#F8F8F8" filter="url(#fsl5slj6590ky)" height="46.2969" style="stroke:#383838;stroke-width:1.5;" width="92" x="176" y="427"/><rect fill="#F8F8F8" height="10" style="stroke:#383838;stroke-width:1.5;" width="15" x="248" y="432"/><rect fill="#F8F8F8" height="2" style="stroke:#383838;stroke-width:1.5;" width="4" x="246" y="434"/><rect fill="#F8F8F8" height="2" style="stroke:#383838;stroke-width:1.5;" width="4" x="246" y="438"/><text fill="#000000" font-family="sans-serif" font-size="14" lengthAdjust="spacing" textLength="52" x="191" y="459.9951">Mapper</text><!--MD5=[44f07762fab2e804df8e0636e93cffbe]
entity BOOT_API--><ellipse cx="222" cy="114" fill="#F8F8F8" filter="url(#fsl5slj6590ky)" rx="8" ry="8" style="stroke:#383838;stroke-width:1.5;"/><text fill="#000000" font-family="sans-serif" font-size="14" lengthAdjust="spacing" textLength="58" x="193" y="143.9951">Boot API</text><!--MD5=[38a9b1639d19c51278eb97e5a118e1f1]
entity MAP_API--><ellipse cx="222" cy="338" fill="#F8F8F8" filter="url(#fsl5slj6590ky)" rx="8" ry="8" style="stroke:#383838;stroke-width:1.5;"/><text fill="#000000" font-family="sans-serif" font-size="14" lengthAdjust="spacing" textLength="77" x="183.5" y="367.9951">Mapper API</text><!--MD5=[c01cbe8a412be218debd57fa8df8abed]
entity EGRESS--><rect fill="#F8F8F8" filter="url(#fsl5slj6590ky)" height="46.2969" style="stroke:#383838;stroke-width:1.5;" width="133" x="71.5" y="651"/><rect fill="#F8F8F8" height="10" style="stroke:#383838;stroke-width:1.5;" width="15" x="184.5" y="656"/><rect fill="#F8F8F8" height="2" style="stroke:#383838;stroke-width:1.5;" width="4" x="182.5" y="658"/><rect fill="#F8F8F8" height="2" style="stroke:#383838;stroke-width:1.5;" width="4" x="182.5" y="662"/><text fill="#000000" font-family="sans-serif" font-size="14" lengthAdjust="spacing" textLength="93" x="86.5" y="683.9951">AMQP Egress</text><!--MD5=[97c2cc28f62fbe16a090dcbe5e30d27b]
entity INGRESS--><rect fill="#F8F8F8" filter="url(#fsl5slj6590ky)" height="46.2969" style="stroke:#383838;stroke-width:1.5;" width="136" x="240" y="651"/><rect fill="#F8F8F8" height="10" style="stroke:#383838;stroke-width:1.5;" width="15" x="356" y="656"/><rect fill="#F8F8F8" height="2" style="stroke:#383838;stroke-width:1.5;" width="4" x="354" y="658"/><rect fill="#F8F8F8" height="2" style="stroke:#383838;stroke-width:1.5;" width="4" x="354" y="662"/><text fill="#000000" font-family="sans-serif" font-size="14" lengthAdjust="spacing" textLength="96" x="255" y="683.9951">AMQP Ingress</text><!--MD5=[72db9eea1d2bf2ff908159e31b503589]
entity EGRESS_API--><ellipse cx="138" cy="562" fill="#F8F8F8" filter="url(#fsl5slj6590ky)" rx="8" ry="8" style="stroke:#383838;stroke-width:1.5;"/><text fill="#000000" font-family="sans-serif" font-size="14" lengthAdjust="spacing" textLength="118" x="79" y="591.9951">AMQP Egress API</text><!--MD5=[7c09cc5e2fc5888767c10a541b3b1d17]
entity INGRESS_API--><ellipse cx="308" cy="562" fill="#F8F8F8" filter="url(#fsl5slj6590ky)" rx="8" ry="8" style="stroke:#383838;stroke-width:1.5;"/><text fill="#000000" font-family="sans-serif" font-size="14" lengthAdjust="spacing" textLength="121" x="247.5" y="591.9951">AMQP Ingress API</text><!--MD5=[b4a61ba3a97355d6345cdf1acd7a7817]
link EGRESS_API to EGRESS--><path d="M138,571.27 C138,587.96 138,626.16 138,650.71 " fill="none" id="EGRESS_API-EGRESS" style="stroke:#383838;stroke-width:1.0;"/><!--MD5=[530304c66b8acc68ed58d4341088d695]
link INGRESS_API to INGRESS--><path d="M308,571.27 C308,587.96 308,626.16 308,650.71 " fill="none" id="INGRESS_API-INGRESS" style="stroke:#383838;stroke-width:1.0;"/><!--MD5=[9bc3545913d2ece8bc1c8e2c39a9583d]
link APP_API to APP--><path d="M223,795.27 C223,811.96 223,850.16 223,874.71 " fill="none" id="APP_API-APP" style="stroke:#383838;stroke-width:1.0;"/><!--MD5=[960e631b20e6d0a5a1769365a28f267a]
link BOOT_API to BOOT--><path d="M222,123.27 C222,139.96 222,178.16 222,202.71 " fill="none" id="BOOT_API-BOOT" style="stroke:#383838;stroke-width:1.0;"/><!--MD5=[f9ccec574c9d7d912a785d7186889d54]
link MAP_API to MAP--><path d="M222,347.27 C222,363.96 222,402.16 222,426.71 " fill="none" id="MAP_API-MAP" style="stroke:#383838;stroke-width:1.0;"/><!--MD5=[68390b1aba1d9af928db50dc2bd7271d]
link EGRESS to APP_API--><path d="M155.2,697.26 C171.62,718.5 195.95,750 210.56,768.91 " fill="none" id="EGRESS-to-APP_API" style="stroke:#383838;stroke-width:1.0;"/><path d="M221.5207,769.2536 A9,9 0 0 0 208.1355 779.5946" style="stroke:#383838;stroke-width:1.5;fill:none;"/><!--MD5=[58a2770b668c1bdb8c8e070aea1f0fb0]
link INGRESS to APP_API--><path d="M290.8,697.26 C274.38,718.5 250.05,750 235.44,768.91 " fill="none" id="INGRESS-to-APP_API" style="stroke:#383838;stroke-width:1.0;"/><path d="M237.8645,779.5946 A9,9 0 0 0 224.4793 769.2536" style="stroke:#383838;stroke-width:1.5;fill:none;"/><!--MD5=[c1fdcd8f0e4ff6b26c65440c57031de4]
link MAP to EGRESS_API--><path d="M205,473.26 C188.78,494.5 164.73,526 150.29,544.91 " fill="none" id="MAP-to-EGRESS_API" style="stroke:#383838;stroke-width:1.0;"/><path d="M152.8085,555.5504 A9,9 0 0 0 139.3703 545.2784" style="stroke:#383838;stroke-width:1.5;fill:none;"/><!--MD5=[98b043e6e82519270d1a7aac3c04a82f]
link MAP to INGRESS_API--><path d="M239.4,473.26 C256.01,494.5 280.63,526 295.42,544.91 " fill="none" id="MAP-to-INGRESS_API" style="stroke:#383838;stroke-width:1.0;"/><path d="M306.3949,545.2248 A9,9 0 0 0 293.0721 555.6461" style="stroke:#383838;stroke-width:1.5;fill:none;"/><!--MD5=[5d9a2f651ca28f65d24b6769c535d032]
link BOOT to MAP_API--><path d="M222,249.26 C222,269.74 222,299.73 222,318.81 " fill="none" id="BOOT-to-MAP_API" style="stroke:#383838;stroke-width:1.0;"/><path d="M230.4572,325.7818 A9,9 0 0 0 213.5428 325.7818" style="stroke:#383838;stroke-width:1.5;fill:none;"/><!--MD5=[5aaa978c22e8e54db4cd3befe40cb162]
link BOOT to INGRESS_API--><path d="M245.08,249.1 C259.51,264.43 277.01,286.15 286,309 C318.41,391.35 313.43,500.21 309.84,542.81 " fill="none" id="BOOT-to-INGRESS_API" style="stroke:#383838;stroke-width:1.0;"/><path d="M317.6233,550.498 A9,9 0 0 0 300.7797 548.9514" style="stroke:#383838;stroke-width:1.5;fill:none;"/><!--MD5=[03a3a3da64142f805947a80cad3d7aa7]
link BOOT to EGRESS_API--><path d="M199.26,249.15 C185.04,264.51 167.81,286.23 159,309 C127.08,391.51 132.4,500.28 136.11,542.83 " fill="none" id="BOOT-to-EGRESS_API" style="stroke:#383838;stroke-width:1.0;"/><path d="M145.1894,548.9383 A9,9 0 0 0 128.3502 550.5328" style="stroke:#383838;stroke-width:1.5;fill:none;"/><!--MD5=[d380230bdae545d6846d6966ce9c5531]
@startuml logical-view-level3-lgt-92-gps-sensor-processor

skinparam Monochrome true

component "LGT 92 GPS Sensor Processor" {
    component "Application" as APP
    component "Infrastructure" as INFRA {
        component "Boot" as BOOT
        component "Mapper" as MAP
        component "Endpoint" as ENDPOINT {
            component "AMQP Egress" as EGRESS
            component "AMQP Ingress" as INGRESS
            interface "AMQP Egress API" as EGRESS_API
            interface "AMQP Ingress API" as INGRESS_API
        }
        () "Boot API" as BOOT_API
        () "Mapper API" as MAP_API
    }

    () "Application API" as APP_API

    EGRESS_API - - EGRESS
    INGRESS_API - - INGRESS

    APP_API - - APP
    BOOT_API - - BOOT
    MAP_API - - MAP

    EGRESS - -( APP_API
    INGRESS - -( APP_API

    MAP - -( EGRESS_API
    MAP - -( INGRESS_API

    BOOT - -( MAP_API
    BOOT - -( INGRESS_API
    BOOT - -( EGRESS_API
}

@enduml

PlantUML version 1.2021.9(Sun Jul 25 11:13:56 WEST 2021)
(GPL source distribution)
Java Runtime: OpenJDK Runtime Environment
JVM: OpenJDK 64-Bit Server VM
Default Encoding: UTF-8
Language: en
Country: GB
--></g></svg>