<?xml version="1.0" encoding="UTF-8" standalone="no"?><svg xmlns="http://www.w3.org/2000/svg" xmlns:xlink="http://www.w3.org/1999/xlink" contentScriptType="application/ecmascript" contentStyleType="text/css" height="980px" preserveAspectRatio="none" style="width:2168px;height:980px;background:#FFFFFF;" version="1.1" viewBox="0 0 2168 980" width="2168px" zoomAndPan="magnify"><defs/><g><!--MD5=[85f6e7297d1ad81d8c1382e17d44cf2c]
cluster Environment--><rect fill="#FFFFFF" height="802" style="stroke:#000000;stroke-width:1.5;" width="2155" x="7" y="62"/><rect fill="#FFFFFF" height="10" style="stroke:#000000;stroke-width:1.5;" width="15" x="2142" y="67"/><rect fill="#FFFFFF" height="2" style="stroke:#000000;stroke-width:1.5;" width="4" x="2140" y="69"/><rect fill="#FFFFFF" height="2" style="stroke:#000000;stroke-width:1.5;" width="4" x="2140" y="73"/><text fill="#000000" font-family="sans-serif" font-size="14" font-style="italic" lengthAdjust="spacing" textLength="58" x="1055.5" y="89.9659">«System»</text><text fill="#000000" font-family="sans-serif" font-size="14" font-weight="bold" lengthAdjust="spacing" textLength="90" x="1039.5" y="109.0339">Environment</text><!--MD5=[2f974df144d935b84f61c768008119cd]
cluster UIAG--><rect fill="#FFFFFF" height="157" style="stroke:#000000;stroke-width:1.5;" width="994" x="1070" y="135"/><rect fill="#FFFFFF" height="10" style="stroke:#000000;stroke-width:1.5;" width="15" x="2044" y="140"/><rect fill="#FFFFFF" height="2" style="stroke:#000000;stroke-width:1.5;" width="4" x="2042" y="142"/><rect fill="#FFFFFF" height="2" style="stroke:#000000;stroke-width:1.5;" width="4" x="2042" y="146"/><text fill="#000000" font-family="sans-serif" font-size="14" font-style="italic" lengthAdjust="spacing" textLength="76" x="1529" y="162.9659">«Container»</text><text fill="#000000" font-family="sans-serif" font-size="14" font-weight="bold" lengthAdjust="spacing" textLength="100" x="1517" y="182.0339">UI Aggregator</text><!--MD5=[2c8bfc6f691a2260a342f8a3a45a5f4e]
entity MB--><rect fill="#F8F8F8" height="68.1358" style="stroke:#383838;stroke-width:1.5;" width="148" x="641" y="780"/><rect fill="#F8F8F8" height="10" style="stroke:#383838;stroke-width:1.5;" width="15" x="769" y="785"/><rect fill="#F8F8F8" height="2" style="stroke:#383838;stroke-width:1.5;" width="4" x="767" y="787"/><rect fill="#F8F8F8" height="2" style="stroke:#383838;stroke-width:1.5;" width="4" x="767" y="791"/><text fill="#000000" font-family="sans-serif" font-size="14" font-style="italic" lengthAdjust="spacing" textLength="76" x="672" y="814.9659">«Container»</text><text fill="#000000" font-family="sans-serif" font-size="14" lengthAdjust="spacing" textLength="108" x="656" y="834.0339">Message Broker</text><!--MD5=[de9d829787e3a43b2ded327ec6864356]
entity DRB--><rect fill="#F8F8F8" height="68.1358" style="stroke:#383838;stroke-width:1.5;" width="254" x="1134" y="490"/><rect fill="#F8F8F8" height="10" style="stroke:#383838;stroke-width:1.5;" width="15" x="1368" y="495"/><rect fill="#F8F8F8" height="2" style="stroke:#383838;stroke-width:1.5;" width="4" x="1366" y="497"/><rect fill="#F8F8F8" height="2" style="stroke:#383838;stroke-width:1.5;" width="4" x="1366" y="501"/><text fill="#000000" font-family="sans-serif" font-size="14" font-style="italic" lengthAdjust="spacing" textLength="76" x="1218" y="524.9659">«Container»</text><text fill="#000000" font-family="sans-serif" font-size="14" lengthAdjust="spacing" textLength="214" x="1149" y="544.0339">Device Records Master Backend</text><!--MD5=[16d24166dd61b60d67a9b622353efc3e]
entity DRSB--><rect fill="#F8F8F8" height="68.1358" style="stroke:#383838;stroke-width:1.5;" width="242" x="1423" y="490"/><rect fill="#F8F8F8" height="10" style="stroke:#383838;stroke-width:1.5;" width="15" x="1645" y="495"/><rect fill="#F8F8F8" height="2" style="stroke:#383838;stroke-width:1.5;" width="4" x="1643" y="497"/><rect fill="#F8F8F8" height="2" style="stroke:#383838;stroke-width:1.5;" width="4" x="1643" y="501"/><text fill="#000000" font-family="sans-serif" font-size="14" font-style="italic" lengthAdjust="spacing" textLength="76" x="1501" y="524.9659">«Container»</text><text fill="#000000" font-family="sans-serif" font-size="14" lengthAdjust="spacing" textLength="202" x="1438" y="544.0339">Device Records Slave Backend</text><!--MD5=[07f1f74cdc79fa2fd2740ec7d7a64eca]
entity LTB--><rect fill="#F8F8F8" height="68.1358" style="stroke:#383838;stroke-width:1.5;" width="227" x="1700.5" y="490"/><rect fill="#F8F8F8" height="10" style="stroke:#383838;stroke-width:1.5;" width="15" x="1907.5" y="495"/><rect fill="#F8F8F8" height="2" style="stroke:#383838;stroke-width:1.5;" width="4" x="1905.5" y="497"/><rect fill="#F8F8F8" height="2" style="stroke:#383838;stroke-width:1.5;" width="4" x="1905.5" y="501"/><text fill="#000000" font-family="sans-serif" font-size="14" font-style="italic" lengthAdjust="spacing" textLength="76" x="1771" y="524.9659">«Container»</text><text fill="#000000" font-family="sans-serif" font-size="14" lengthAdjust="spacing" textLength="187" x="1715.5" y="544.0339">Fleet Management Backend</text><!--MD5=[91279a835da4e32ef6d7ba373316e020]
entity DDG--><rect fill="#F8F8F8" height="68.1358" style="stroke:#383838;stroke-width:1.5;" width="132" x="174" y="490"/><rect fill="#F8F8F8" height="10" style="stroke:#383838;stroke-width:1.5;" width="15" x="286" y="495"/><rect fill="#F8F8F8" height="2" style="stroke:#383838;stroke-width:1.5;" width="4" x="284" y="497"/><rect fill="#F8F8F8" height="2" style="stroke:#383838;stroke-width:1.5;" width="4" x="284" y="501"/><text fill="#000000" font-family="sans-serif" font-size="14" font-style="italic" lengthAdjust="spacing" textLength="76" x="197" y="524.9659">«Container»</text><text fill="#000000" font-family="sans-serif" font-size="14" lengthAdjust="spacing" textLength="92" x="189" y="544.0339">Data Gateway</text><!--MD5=[916b332d59e591ecaa5566188f0cdc33]
entity DR--><rect fill="#F8F8F8" height="68.1358" style="stroke:#383838;stroke-width:1.5;" width="125" x="177.5" y="780"/><rect fill="#F8F8F8" height="10" style="stroke:#383838;stroke-width:1.5;" width="15" x="282.5" y="785"/><rect fill="#F8F8F8" height="2" style="stroke:#383838;stroke-width:1.5;" width="4" x="280.5" y="787"/><rect fill="#F8F8F8" height="2" style="stroke:#383838;stroke-width:1.5;" width="4" x="280.5" y="791"/><text fill="#000000" font-family="sans-serif" font-size="14" font-style="italic" lengthAdjust="spacing" textLength="76" x="197" y="814.9659">«Container»</text><text fill="#000000" font-family="sans-serif" font-size="14" lengthAdjust="spacing" textLength="85" x="192.5" y="834.0339">Data Relayer</text><!--MD5=[bdf2b643721ab24f6b6cc4832b6b9e51]
entity DPSB--><rect fill="#F8F8F8" height="68.1358" style="stroke:#383838;stroke-width:1.5;" width="240" x="859" y="490"/><rect fill="#F8F8F8" height="10" style="stroke:#383838;stroke-width:1.5;" width="15" x="1079" y="495"/><rect fill="#F8F8F8" height="2" style="stroke:#383838;stroke-width:1.5;" width="4" x="1077" y="497"/><rect fill="#F8F8F8" height="2" style="stroke:#383838;stroke-width:1.5;" width="4" x="1077" y="501"/><text fill="#000000" font-family="sans-serif" font-size="14" font-style="italic" lengthAdjust="spacing" textLength="76" x="936" y="524.9659">«Container»</text><text fill="#000000" font-family="sans-serif" font-size="14" lengthAdjust="spacing" textLength="200" x="874" y="544.0339">Data Processor Slave Backend</text><!--MD5=[7d5e30ccfc93022cd060f94bf2de644f]
entity DPMB--><rect fill="#F8F8F8" height="68.1358" style="stroke:#383838;stroke-width:1.5;" width="252" x="572" y="490"/><rect fill="#F8F8F8" height="10" style="stroke:#383838;stroke-width:1.5;" width="15" x="804" y="495"/><rect fill="#F8F8F8" height="2" style="stroke:#383838;stroke-width:1.5;" width="4" x="802" y="497"/><rect fill="#F8F8F8" height="2" style="stroke:#383838;stroke-width:1.5;" width="4" x="802" y="501"/><text fill="#000000" font-family="sans-serif" font-size="14" font-style="italic" lengthAdjust="spacing" textLength="76" x="655" y="524.9659">«Container»</text><text fill="#000000" font-family="sans-serif" font-size="14" lengthAdjust="spacing" textLength="212" x="587" y="544.0339">Data Processor Master Backend</text><!--MD5=[879c1108b25478de35d4f7b9898923f2]
entity DVB--><rect fill="#F8F8F8" height="68.1358" style="stroke:#383838;stroke-width:1.5;" width="196" x="341" y="490"/><rect fill="#F8F8F8" height="10" style="stroke:#383838;stroke-width:1.5;" width="15" x="517" y="495"/><rect fill="#F8F8F8" height="2" style="stroke:#383838;stroke-width:1.5;" width="4" x="515" y="497"/><rect fill="#F8F8F8" height="2" style="stroke:#383838;stroke-width:1.5;" width="4" x="515" y="501"/><text fill="#000000" font-family="sans-serif" font-size="14" font-style="italic" lengthAdjust="spacing" textLength="76" x="396" y="524.9659">«Container»</text><text fill="#000000" font-family="sans-serif" font-size="14" lengthAdjust="spacing" textLength="156" x="356" y="544.0339">Data Validator Backend</text><!--MD5=[5c672979971b01ffe3e26ca5e0224f67]
entity DRDB--><rect fill="#F8F8F8" height="68.1358" style="stroke:#383838;stroke-width:1.5;" width="209" x="1297.5" y="780"/><rect fill="#F8F8F8" height="10" style="stroke:#383838;stroke-width:1.5;" width="15" x="1486.5" y="785"/><rect fill="#F8F8F8" height="2" style="stroke:#383838;stroke-width:1.5;" width="4" x="1484.5" y="787"/><rect fill="#F8F8F8" height="2" style="stroke:#383838;stroke-width:1.5;" width="4" x="1484.5" y="791"/><text fill="#000000" font-family="sans-serif" font-size="14" font-style="italic" lengthAdjust="spacing" textLength="76" x="1359" y="814.9659">«Container»</text><text fill="#000000" font-family="sans-serif" font-size="14" lengthAdjust="spacing" textLength="169" x="1312.5" y="834.0339">Device Records Database</text><!--MD5=[f1831cdda53ca662ba17e366a7f7f424]
entity DPDB--><rect fill="#F8F8F8" height="68.1358" style="stroke:#383838;stroke-width:1.5;" width="207" x="841.5" y="780"/><rect fill="#F8F8F8" height="10" style="stroke:#383838;stroke-width:1.5;" width="15" x="1028.5" y="785"/><rect fill="#F8F8F8" height="2" style="stroke:#383838;stroke-width:1.5;" width="4" x="1026.5" y="787"/><rect fill="#F8F8F8" height="2" style="stroke:#383838;stroke-width:1.5;" width="4" x="1026.5" y="791"/><text fill="#000000" font-family="sans-serif" font-size="14" font-style="italic" lengthAdjust="spacing" textLength="76" x="902" y="814.9659">«Container»</text><text fill="#000000" font-family="sans-serif" font-size="14" lengthAdjust="spacing" textLength="167" x="856.5" y="834.0339">Data Processor Database</text><!--MD5=[1a416c3156d55d9446032ebbee093b81]
entity DS--><rect fill="#F8F8F8" height="68.1358" style="stroke:#383838;stroke-width:1.5;" width="116" x="23" y="490"/><rect fill="#F8F8F8" height="10" style="stroke:#383838;stroke-width:1.5;" width="15" x="119" y="495"/><rect fill="#F8F8F8" height="2" style="stroke:#383838;stroke-width:1.5;" width="4" x="117" y="497"/><rect fill="#F8F8F8" height="2" style="stroke:#383838;stroke-width:1.5;" width="4" x="117" y="501"/><text fill="#000000" font-family="sans-serif" font-size="14" font-style="italic" lengthAdjust="spacing" textLength="76" x="38" y="524.9659">«Container»</text><text fill="#000000" font-family="sans-serif" font-size="14" lengthAdjust="spacing" textLength="70" x="41" y="544.0339">Data Store</text><!--MD5=[0d4560ec263e73dd5d18ec3da06f96fd]
entity QUESTDB--><rect fill="#F8F8F8" height="68.1358" style="stroke:#383838;stroke-width:1.5;" width="116" x="1756" y="780"/><rect fill="#F8F8F8" height="10" style="stroke:#383838;stroke-width:1.5;" width="15" x="1852" y="785"/><rect fill="#F8F8F8" height="2" style="stroke:#383838;stroke-width:1.5;" width="4" x="1850" y="787"/><rect fill="#F8F8F8" height="2" style="stroke:#383838;stroke-width:1.5;" width="4" x="1850" y="791"/><text fill="#000000" font-family="sans-serif" font-size="14" font-style="italic" lengthAdjust="spacing" textLength="76" x="1771" y="814.9659">«Container»</text><text fill="#000000" font-family="sans-serif" font-size="14" lengthAdjust="spacing" textLength="59" x="1779.5" y="834.0339">QuestDB</text><!--MD5=[03988f2df4231e1a486c01e3236a3a84]
entity MONGODB--><rect fill="#F8F8F8" height="68.1358" style="stroke:#383838;stroke-width:1.5;" width="116" x="23" y="780"/><rect fill="#F8F8F8" height="10" style="stroke:#383838;stroke-width:1.5;" width="15" x="119" y="785"/><rect fill="#F8F8F8" height="2" style="stroke:#383838;stroke-width:1.5;" width="4" x="117" y="787"/><rect fill="#F8F8F8" height="2" style="stroke:#383838;stroke-width:1.5;" width="4" x="117" y="791"/><text fill="#000000" font-family="sans-serif" font-size="14" font-style="italic" lengthAdjust="spacing" textLength="76" x="38" y="814.9659">«Container»</text><text fill="#000000" font-family="sans-serif" font-size="14" lengthAdjust="spacing" textLength="66" x="43" y="834.0339">MongoDB</text><!--MD5=[097a4c9b86af18cefe5f517f95961e38]
entity SAB--><rect fill="#F8F8F8" height="68.1358" style="stroke:#383838;stroke-width:1.5;" width="183" x="1962.5" y="490"/><rect fill="#F8F8F8" height="10" style="stroke:#383838;stroke-width:1.5;" width="15" x="2125.5" y="495"/><rect fill="#F8F8F8" height="2" style="stroke:#383838;stroke-width:1.5;" width="4" x="2123.5" y="497"/><rect fill="#F8F8F8" height="2" style="stroke:#383838;stroke-width:1.5;" width="4" x="2123.5" y="501"/><text fill="#000000" font-family="sans-serif" font-size="14" font-style="italic" lengthAdjust="spacing" textLength="76" x="2011" y="524.9659">«Container»</text><text fill="#000000" font-family="sans-serif" font-size="14" lengthAdjust="spacing" textLength="143" x="1977.5" y="544.0339">Simple Auth Backend</text><!--MD5=[ed43a859708a376e35ae74978de1b490]
entity MB_API--><ellipse cx="715" cy="669" fill="#F8F8F8" rx="8" ry="8" style="stroke:#383838;stroke-width:1.5;"/><text fill="#000000" font-family="sans-serif" font-size="14" lengthAdjust="spacing" textLength="108" x="661" y="700.9659">Message Broker</text><text fill="#000000" font-family="sans-serif" font-size="14" lengthAdjust="spacing" textLength="22" x="661" y="720.0339">API</text><!--MD5=[0ce5a9617f51ae4b5bc891fe128d05dc]
entity LTB_API--><ellipse cx="1774" cy="379" fill="#F8F8F8" rx="8" ry="8" style="stroke:#383838;stroke-width:1.5;"/><text fill="#000000" font-family="sans-serif" font-size="14" lengthAdjust="spacing" textLength="187" x="1680.5" y="410.9659">Fleet Management Backend</text><text fill="#000000" font-family="sans-serif" font-size="14" lengthAdjust="spacing" textLength="22" x="1680.5" y="430.0339">API</text><!--MD5=[9244efad2dc02808af23604ab0304277]
entity DRB_API--><ellipse cx="1392" cy="379" fill="#F8F8F8" rx="8" ry="8" style="stroke:#383838;stroke-width:1.5;"/><text fill="#000000" font-family="sans-serif" font-size="14" lengthAdjust="spacing" textLength="214" x="1285" y="410.9659">Device Records Master Backend</text><text fill="#000000" font-family="sans-serif" font-size="14" lengthAdjust="spacing" textLength="22" x="1285" y="430.0339">API</text><!--MD5=[6390cbc15964bea49719771afd793c9b]
entity DPMB_API--><ellipse cx="913" cy="379" fill="#F8F8F8" rx="8" ry="8" style="stroke:#383838;stroke-width:1.5;"/><text fill="#000000" font-family="sans-serif" font-size="14" lengthAdjust="spacing" textLength="212" x="807" y="410.9659">Data Processor Master Backend</text><text fill="#000000" font-family="sans-serif" font-size="14" lengthAdjust="spacing" textLength="22" x="807" y="430.0339">API</text><!--MD5=[5ca5631ebaf5f86a9fa4e428e4442db3]
entity DRDB_API--><ellipse cx="1402" cy="669" fill="#F8F8F8" rx="8" ry="8" style="stroke:#383838;stroke-width:1.5;"/><text fill="#000000" font-family="sans-serif" font-size="14" lengthAdjust="spacing" textLength="169" x="1317.5" y="700.9659">Device Records Database</text><text fill="#000000" font-family="sans-serif" font-size="14" lengthAdjust="spacing" textLength="22" x="1317.5" y="720.0339">API</text><!--MD5=[d282213c50e29b328cdb2ebefa3990e8]
entity DPDB_API--><ellipse cx="945" cy="669" fill="#F8F8F8" rx="8" ry="8" style="stroke:#383838;stroke-width:1.5;"/><text fill="#000000" font-family="sans-serif" font-size="14" lengthAdjust="spacing" textLength="167" x="861.5" y="700.9659">Data Processor Database</text><text fill="#000000" font-family="sans-serif" font-size="14" lengthAdjust="spacing" textLength="22" x="861.5" y="720.0339">API</text><!--MD5=[e8ad32939caa55f00142e93d75a05e2d]
entity QUESTDB_API--><ellipse cx="1814" cy="669" fill="#F8F8F8" rx="8" ry="8" style="stroke:#383838;stroke-width:1.5;"/><text fill="#000000" font-family="sans-serif" font-size="14" lengthAdjust="spacing" textLength="59" x="1784.5" y="700.9659">QuestDB</text><text fill="#000000" font-family="sans-serif" font-size="14" lengthAdjust="spacing" textLength="22" x="1784.5" y="720.0339">API</text><!--MD5=[2d1aaa06eea6692e612a00a28d7bf3bd]
entity MONGODB_API--><ellipse cx="81" cy="669" fill="#F8F8F8" rx="8" ry="8" style="stroke:#383838;stroke-width:1.5;"/><text fill="#000000" font-family="sans-serif" font-size="14" lengthAdjust="spacing" textLength="66" x="48" y="700.9659">MongoDB</text><text fill="#000000" font-family="sans-serif" font-size="14" lengthAdjust="spacing" textLength="22" x="48" y="720.0339">API</text><!--MD5=[7b5d57a7033bc15fa4b522c391528de2]
entity DDG_API--><ellipse cx="240" cy="669" fill="#F8F8F8" rx="8" ry="8" style="stroke:#383838;stroke-width:1.5;"/><text fill="#000000" font-family="sans-serif" font-size="14" lengthAdjust="spacing" textLength="92" x="194" y="700.9659">Data Gateway</text><text fill="#000000" font-family="sans-serif" font-size="14" lengthAdjust="spacing" textLength="22" x="194" y="720.0339">API</text><!--MD5=[43b31bd6260bcb1d65b7ad29f46fe3f2]
entity SAB_API--><ellipse cx="1986" cy="379" fill="#F8F8F8" rx="8" ry="8" style="stroke:#383838;stroke-width:1.5;"/><text fill="#000000" font-family="sans-serif" font-size="14" lengthAdjust="spacing" textLength="82" x="1945" y="410.9659">Simple Auth</text><text fill="#000000" font-family="sans-serif" font-size="14" lengthAdjust="spacing" textLength="22" x="1945" y="430.0339">API</text><!--MD5=[96142bef19f749aced95310868fd618c]
entity DRF--><rect fill="#F8F8F8" height="68.1358" style="stroke:#383838;stroke-width:1.5;" width="207" x="1353.5" y="200"/><rect fill="#F8F8F8" height="10" style="stroke:#383838;stroke-width:1.5;" width="15" x="1540.5" y="205"/><rect fill="#F8F8F8" height="2" style="stroke:#383838;stroke-width:1.5;" width="4" x="1538.5" y="207"/><rect fill="#F8F8F8" height="2" style="stroke:#383838;stroke-width:1.5;" width="4" x="1538.5" y="211"/><text fill="#000000" font-family="sans-serif" font-size="14" font-style="italic" lengthAdjust="spacing" textLength="76" x="1414" y="234.9659">«Container»</text><text fill="#000000" font-family="sans-serif" font-size="14" lengthAdjust="spacing" textLength="167" x="1368.5" y="254.0339">Device Records Frontend</text><!--MD5=[248285276881d4606f81bc6a8b2e8491]
entity DPF--><rect fill="#F8F8F8" height="68.1358" style="stroke:#383838;stroke-width:1.5;" width="205" x="1113.5" y="200"/><rect fill="#F8F8F8" height="10" style="stroke:#383838;stroke-width:1.5;" width="15" x="1298.5" y="205"/><rect fill="#F8F8F8" height="2" style="stroke:#383838;stroke-width:1.5;" width="4" x="1296.5" y="207"/><rect fill="#F8F8F8" height="2" style="stroke:#383838;stroke-width:1.5;" width="4" x="1296.5" y="211"/><text fill="#000000" font-family="sans-serif" font-size="14" font-style="italic" lengthAdjust="spacing" textLength="76" x="1173" y="234.9659">«Container»</text><text fill="#000000" font-family="sans-serif" font-size="14" lengthAdjust="spacing" textLength="165" x="1128.5" y="254.0339">Data Processor Frontend</text><!--MD5=[838a8f8ee09da76e2984218500383e54]
entity LTF--><rect fill="#F8F8F8" height="68.1358" style="stroke:#383838;stroke-width:1.5;" width="223" x="1595.5" y="200"/><rect fill="#F8F8F8" height="10" style="stroke:#383838;stroke-width:1.5;" width="15" x="1798.5" y="205"/><rect fill="#F8F8F8" height="2" style="stroke:#383838;stroke-width:1.5;" width="4" x="1796.5" y="207"/><rect fill="#F8F8F8" height="2" style="stroke:#383838;stroke-width:1.5;" width="4" x="1796.5" y="211"/><text fill="#000000" font-family="sans-serif" font-size="14" font-style="italic" lengthAdjust="spacing" textLength="76" x="1664" y="234.9659">«Container»</text><text fill="#000000" font-family="sans-serif" font-size="14" lengthAdjust="spacing" textLength="183" x="1610.5" y="254.0339">Location Tracking Frontend</text><!--MD5=[24b9678ff66db6bbed02ff04e7d5851e]
entity SAF--><rect fill="#F8F8F8" height="68.1358" style="stroke:#383838;stroke-width:1.5;" width="187" x="1853.5" y="200"/><rect fill="#F8F8F8" height="10" style="stroke:#383838;stroke-width:1.5;" width="15" x="2020.5" y="205"/><rect fill="#F8F8F8" height="2" style="stroke:#383838;stroke-width:1.5;" width="4" x="2018.5" y="207"/><rect fill="#F8F8F8" height="2" style="stroke:#383838;stroke-width:1.5;" width="4" x="2018.5" y="211"/><text fill="#000000" font-family="sans-serif" font-size="14" font-style="italic" lengthAdjust="spacing" textLength="76" x="1904" y="234.9659">«Container»</text><text fill="#000000" font-family="sans-serif" font-size="14" lengthAdjust="spacing" textLength="147" x="1868.5" y="254.0339">Simple Auth Frontend</text><!--MD5=[c42ed81cef7fdd2e33758127945b9a5b]
entity UI--><ellipse cx="1078" cy="14" fill="#F8F8F8" rx="8" ry="8" style="stroke:#383838;stroke-width:1.5;"/><text fill="#000000" font-family="sans-serif" font-size="14" lengthAdjust="spacing" textLength="15" x="1070.5" y="45.9659">UI</text><!--MD5=[259fb42cf3d26cb196e8dd6a3316d2da]
entity IN_ENDPOINT--><ellipse cx="240" cy="940" fill="#F8F8F8" rx="8" ry="8" style="stroke:#383838;stroke-width:1.5;"/><text fill="#000000" font-family="sans-serif" font-size="14" lengthAdjust="spacing" textLength="55" x="212.5" y="971.9659">Rest API</text><!--MD5=[f4e8558bdfd34d143e2b3a3a6b6a0612]
link LTB to QUESTDB_API--><path d="M1814,558.17 C1814,586.68 1814,626.75 1814,649.77 " fill="none" id="LTB-to-QUESTDB_API" style="stroke:#383838;stroke-width:1.0;"/><path d="M1822.4572,656.7718 A9,9 0 0 0 1805.5428 656.7718" style="stroke:#383838;stroke-width:1.5;fill:none;"/><!--MD5=[666d4f6c4a9dcee25ffe6d0afb7e8f5c]
link DS to MONGODB_API--><path d="M81,558.17 C81,586.68 81,626.75 81,649.77 " fill="none" id="DS-to-MONGODB_API" style="stroke:#383838;stroke-width:1.0;"/><path d="M89.4572,656.7718 A9,9 0 0 0 72.5428 656.7718" style="stroke:#383838;stroke-width:1.5;fill:none;"/><!--MD5=[e2bb4535729e8a781cd7ddd238ff39ed]
link DDG to DDG_API--><path d="M240,558.17 C240,591.5 240,640.61 240,659.85 " fill="none" id="DDG-DDG_API" style="stroke:#383838;stroke-width:1.0;"/><!--MD5=[043f4a6998d1f423c1875123bc6c35b3]
link DPMB_API to DPMB--><path d="M903.76,386.14 C877.32,403.73 799.9,455.23 747.93,489.79 " fill="none" id="DPMB_API-DPMB" style="stroke:#383838;stroke-width:1.0;"/><!--MD5=[a28acdb8ad4d91f65f1547077cd4da90]
link DRB_API to DRB--><path d="M1384.58,388.1 C1366.99,407.3 1321.94,456.48 1291.37,489.84 " fill="none" id="DRB_API-DRB" style="stroke:#383838;stroke-width:1.0;"/><!--MD5=[9faa44188f0983b269c38a9c1880fbcb]
link MB_API to MB--><path d="M715,678.1 C715,697.3 715,746.48 715,779.84 " fill="none" id="MB_API-MB" style="stroke:#383838;stroke-width:1.0;"/><!--MD5=[8b4f74b634f1475be71ae4e68775c50f]
link DRDB_API to DRDB--><path d="M1402,678.1 C1402,697.3 1402,746.48 1402,779.84 " fill="none" id="DRDB_API-DRDB" style="stroke:#383838;stroke-width:1.0;"/><!--MD5=[b803d99af0ae985ed616150254b01076]
link DPDB_API to DPDB--><path d="M945,678.1 C945,697.3 945,746.48 945,779.84 " fill="none" id="DPDB_API-DPDB" style="stroke:#383838;stroke-width:1.0;"/><!--MD5=[4e1349c460729a9b0a875c8c8e490147]
link LTB_API to LTB--><path d="M1776.27,388.1 C1781.64,407.3 1795.39,456.48 1804.73,489.84 " fill="none" id="LTB_API-LTB" style="stroke:#383838;stroke-width:1.0;"/><!--MD5=[ef114e5e974a3016c5f2117867dcb2af]
link SAB_API to SAB--><path d="M1989.85,388.1 C1998.98,407.3 2022.37,456.48 2038.23,489.84 " fill="none" id="SAB_API-SAB" style="stroke:#383838;stroke-width:1.0;"/><!--MD5=[9467590f772bdba1939f43218646f943]
link UI to UIAG--><path d="M1078,23.02 C1078,32.6975 1078,50.3288 1078,71.413 C1078,81.9551 1078,93.3604 1078,105.0664 C1078,110.9194 1078,116.8476 1078,122.7806 C1078,125.7471 1078,128.7148 1078,131.6749 C1078,132.4149 1078,133.1545 1078,133.8934 " fill="none" id="UI-UIAG" style="stroke:#383838;stroke-width:1.0;"/><!--MD5=[8abd4cb10c03f79d1001485a53a7e496]
link MONGODB_API to MONGODB--><path d="M81,678.1 C81,697.3 81,746.48 81,779.84 " fill="none" id="MONGODB_API-MONGODB" style="stroke:#383838;stroke-width:1.0;"/><!--MD5=[a43445fa678732e5a8e288cde82788b9]
link QUESTDB_API to QUESTDB--><path d="M1814,678.1 C1814,697.3 1814,746.48 1814,779.84 " fill="none" id="QUESTDB_API-QUESTDB" style="stroke:#383838;stroke-width:1.0;"/><!--MD5=[c0fd3909471f57f2e33cdcce01cab375]
link DRB to DRDB_API--><path d="M1293.7,558.17 C1322.97,587.85 1364.59,630.06 1386.74,652.53 " fill="none" id="DRB-to-DRDB_API" style="stroke:#383838;stroke-width:1.0;"/><path d="M1397.8211,651.7203 A9,9 0 0 0 1385.7766 663.5959" style="stroke:#383838;stroke-width:1.5;fill:none;"/><!--MD5=[bdcc501502345f0c74f74263afe2354b]
link DRSB to DRDB_API--><path d="M1511.07,558.17 C1481.59,587.85 1439.68,630.06 1417.37,652.53 " fill="none" id="DRSB-to-DRDB_API" style="stroke:#383838;stroke-width:1.0;"/><path d="M1418.2583,663.6288 A9,9 0 0 0 1406.2617 651.7048" style="stroke:#383838;stroke-width:1.5;fill:none;"/><!--MD5=[1f2dffb1f4eb14a1440f7f7f0f18391b]
link DPMB to DPDB_API--><path d="M755.29,558.17 C810.78,590.29 891.6,637.08 927.12,657.65 " fill="none" id="DPMB-to-DPDB_API" style="stroke:#383838;stroke-width:1.0;"/><path d="M937.4552,653.8589 A9,9 0 0 0 928.9776 668.4955" style="stroke:#383838;stroke-width:1.5;fill:none;"/><!--MD5=[e2366e555da0ccf804983b707b2d230e]
link DPSB to DPDB_API--><path d="M971.11,558.17 C964.3,586.81 954.72,627.11 949.26,650.09 " fill="none" id="DPSB-to-DPDB_API" style="stroke:#383838;stroke-width:1.0;"/><path d="M955.88,658.8126 A9,9 0 0 0 939.4247 654.8981" style="stroke:#383838;stroke-width:1.5;fill:none;"/><!--MD5=[632ffee6b860cfc9bcac06b852135104]
link LTF to LTB_API--><path d="M1722.54,268.17 C1736.08,297.07 1755.19,337.85 1765.9,360.71 " fill="none" id="LTF-to-LTB_API" style="stroke:#383838;stroke-width:1.0;"/><path d="M1776.5327,363.4748 A9,9 0 0 0 1761.2156 370.6502" style="stroke:#383838;stroke-width:1.5;fill:none;"/><!--MD5=[4a41331c31bbd71ab791820d8813635b]
link DPF to DPMB_API--><path d="M1173.51,268.05 C1154.74,281.63 1131.99,296.77 1110,308 C1047.9,339.72 968.05,363.26 932.07,373.03 " fill="none" id="DPF-to-DPMB_API" style="stroke:#383838;stroke-width:1.0;"/><path d="M927.5406,382.9904 A9,9 0 0 0 923.1884 366.6455" style="stroke:#383838;stroke-width:1.5;fill:none;"/><!--MD5=[99639326d43e115e35ef3e6d4e64f760]
link DRF to DRB_API--><path d="M1441.92,268.17 C1428.79,297.07 1410.25,337.85 1399.86,360.71 " fill="none" id="DRF-to-DRB_API" style="stroke:#383838;stroke-width:1.0;"/><path d="M1404.6734,370.541 A9,9 0 0 0 1389.2701 363.5527" style="stroke:#383838;stroke-width:1.5;fill:none;"/><!--MD5=[4dbafd7ea0b384dadc287c7e6d65ab7d]
link SAF to SAB_API--><path d="M1956.05,268.17 C1963.86,296.81 1974.85,337.11 1981.12,360.09 " fill="none" id="SAF-to-SAB_API" style="stroke:#383838;stroke-width:1.0;"/><path d="M1991.13,364.656 A9,9 0 0 0 1974.8109 369.1044" style="stroke:#383838;stroke-width:1.5;fill:none;"/><!--MD5=[360d4be81d2123024f3a814556a53433]
link DVB to MB_API--><path d="M503.01,558.17 C565.87,590.73 657.81,638.37 696.62,658.48 " fill="none" id="DVB-to-MB_API" style="stroke:#383838;stroke-width:1.0;"/><path d="M706.8545,654.2544 A9,9 0 0 0 699.0783 669.2754" style="stroke:#383838;stroke-width:1.5;fill:none;"/><!--MD5=[604f780646d9df350d60f8370c6d8018]
link DS to MB_API--><path d="M139.02,551.7 C145.03,554.01 151.09,556.16 157,558 C362.83,622.15 623.47,656.89 695.69,665.72 " fill="none" id="DS-to-MB_API" style="stroke:#383838;stroke-width:1.0;"/><path d="M703.9188,658.1945 A9,9 0 0 0 701.8893 674.9868" style="stroke:#383838;stroke-width:1.5;fill:none;"/><!--MD5=[432dc558a2903d0c88606da1e4b84e79]
link LTB to MB_API--><path d="M1700.29,554.92 C1694.46,556.05 1688.67,557.09 1683,558 C1310.8,617.6 1204.03,532.11 837,618 C798.56,627 756.54,646.57 733.21,658.38 " fill="none" id="LTB-to-MB_API" style="stroke:#383838;stroke-width:1.0;"/><path d="M730.7639,669.1538 A9,9 0 0 0 723.0069 654.1229" style="stroke:#383838;stroke-width:1.5;fill:none;"/><!--MD5=[fc219f88c7305afccf9ee7f03fbee597]
link DRB to MB_API--><path d="M1133.82,554.25 C1128.13,555.52 1122.51,556.78 1117,558 C992.75,585.55 958.58,580.39 837,618 C799.28,629.67 757.01,648.31 733.44,659.23 " fill="none" id="DRB-to-MB_API" style="stroke:#383838;stroke-width:1.0;"/><path d="M730.6552,669.8827 A9,9 0 0 0 723.4798 654.5656" style="stroke:#383838;stroke-width:1.5;fill:none;"/><!--MD5=[6911d2fabc650c005ca4ddd288c99edc]
link DPMB to MB_API--><path d="M701.94,558.17 C705.33,586.68 710.1,626.75 712.83,649.77 " fill="none" id="DPMB-to-MB_API" style="stroke:#383838;stroke-width:1.0;"/><path d="M722.0683,655.8021 A9,9 0 0 0 705.2703 657.784" style="stroke:#383838;stroke-width:1.5;fill:none;"/><!--MD5=[c8781c541b8ee09f9ccaf5978285f76f]
link DRSB to MB_API--><path d="M1422.64,554.94 C1417.03,556.04 1411.46,557.06 1406,558 C1155.37,600.99 1083.57,555.82 837,618 C798.72,627.65 756.64,646.99 733.26,658.59 " fill="none" id="DRSB-to-MB_API" style="stroke:#383838;stroke-width:1.0;"/><path d="M730.743,669.3285 A9,9 0 0 0 723.1111 654.2337" style="stroke:#383838;stroke-width:1.5;fill:none;"/><!--MD5=[f827bf9b42c62ebabf528d1fcac18818]
link DPSB to MB_API--><path d="M917.77,558.17 C858.18,590.44 771.27,637.52 733.58,657.94 " fill="none" id="DPSB-to-MB_API" style="stroke:#383838;stroke-width:1.0;"/><path d="M731.0572,668.9175 A9,9 0 0 0 722.9949 654.0481" style="stroke:#383838;stroke-width:1.5;fill:none;"/><!--MD5=[9ce444daab36fdb377509fb95a57d70f]
link DDG to MB_API--><path d="M306.26,551.74 C312.23,553.93 318.21,556.05 324,558 C464.99,605.4 639.1,649.37 696.03,663.38 " fill="none" id="DDG-to-MB_API" style="stroke:#383838;stroke-width:1.0;"/><path d="M704.8153,656.834 A9,9 0 0 0 700.804 673.266" style="stroke:#383838;stroke-width:1.5;fill:none;"/><!--MD5=[59102a87a4d94a16034c88bc26e4734d]
link DR to IN_ENDPOINT--><path d="M240,848.23 C240,876.21 240,914.23 240,930.76 " fill="none" id="DR-IN_ENDPOINT" style="stroke:#383838;stroke-width:1.0;"/><!--MD5=[ae3611b2a0d706c1425a5b98056c682e]
reverse link DDG_API to DR--><path d="M240,688.16 C240,711.19 240,751.3 240,779.84 " fill="none" id="DDG_API-backto-DR" style="stroke:#383838;stroke-width:1.0;"/><path d="M231.5428,681.1782 A9,9 0 0 0 248.4572 681.1782" style="stroke:#383838;stroke-width:1.5;fill:none;"/><!--MD5=[f4d6f2556ca5d11c2395c24f41116f31]
@startuml logical-view-level2

skinparam Monochrome true
skinparam sequenceMessageAlign center
skinparam Shadowing false
skinparam componentStyle uml2
skinparam packageStyle rectangle

interface "UI" as UI

interface "Rest API" as IN_ENDPOINT

component "Environment" <<System>> {
    component "Message Broker" as MB <<Container>>
    component "Device Records Master Backend" as DRB <<Container>>
    component "Device Records Slave Backend" as DRSB <<Container>>
    component "Fleet Management Backend" as LTB <<Container>>
    component "Data Gateway" as DDG <<Container>>
    component "Data Relayer" as DR <<Container>>
    component "UI Aggregator" as UIAG <<Container>> {
        component "Device Records Frontend" as DRF <<Container>>
        component "Data Processor Frontend" as DPF <<Container>>
        component "Location Tracking Frontend" as LTF <<Container>>
        component "Simple Auth Frontend" as SAF <<Container>>
    }
    component "Data Processor Slave Backend" as DPSB <<Container>>
    component "Data Processor Master Backend" as DPMB <<Container>>
    component "Data Validator Backend" as DVB <<Container>>
    component "Device Records Database" as DRDB <<Container>>
    component "Data Processor Database" as DPDB <<Container>>
    component "Data Store" as DS <<Container>>
    component "QuestDB" as QUESTDB <<Container>>
    component "MongoDB" as MONGODB <<Container>>
    component "Simple Auth Backend" as SAB <<Container>>

    interface "Message Broker\nAPI" as MB_API
    interface "Fleet Management Backend\nAPI" as LTB_API
    interface "Device Records Master Backend\nAPI" as DRB_API
    interface "Data Processor Master Backend\nAPI" as DPMB_API
    interface "Device Records Database\nAPI" as DRDB_API
    interface "Data Processor Database\nAPI" as DPDB_API
    interface "QuestDB\nAPI" as QUESTDB_API
    interface "MongoDB\nAPI" as MONGODB_API
    interface "Data Gateway\nAPI" as DDG_API
    interface "Simple Auth\nAPI" as SAB_API

    LTB - -( QUESTDB_API
    DS - -( MONGODB_API
    DDG - - DDG_API
    DPMB_API - - DPMB
    DRB_API - - DRB
    MB_API - - MB
    DRDB_API - - DRDB
    DPDB_API - - DPDB
    LTB_API - - LTB
    SAB_API - - SAB
    UI - - UIAG
    MONGODB_API - - MONGODB
    QUESTDB_API - - QUESTDB
    DRB - -( DRDB_API
    DRSB - -( DRDB_API
    DPMB - -( DPDB_API
    DPSB - -( DPDB_API
    LTF - -( LTB_API
    DPF - -( DPMB_API
    DRF - -( DRB_API
    SAF - -( SAB_API

    DVB - -( MB_API
    DS - -( MB_API
    LTB - -( MB_API
    DRB - -( MB_API
    DPMB - -( MB_API
    DRSB - -( MB_API
    DPSB - -( MB_API
    DDG - -( MB_API

    DR - - IN_ENDPOINT
    DDG_API )- - DR
}

@enduml

PlantUML version 1.2021.16(Wed Dec 08 17:25:22 WET 2021)
(GPL source distribution)
Java Runtime: OpenJDK Runtime Environment
JVM: OpenJDK 64-Bit Server VM
Default Encoding: UTF-8
Language: en
Country: GB
--></g></svg>