<?xml version="1.0" encoding="UTF-8" standalone="no"?><svg xmlns="http://www.w3.org/2000/svg" xmlns:xlink="http://www.w3.org/1999/xlink" contentScriptType="application/ecmascript" contentStyleType="text/css" height="969px" preserveAspectRatio="none" style="width:1306px;height:969px;background:#FFFFFF;" version="1.1" viewBox="0 0 1306 969" width="1306px" zoomAndPan="magnify"><defs/><g><rect fill="#FFFFFF" height="337.8594" style="stroke:#FFFFFF;stroke-width:1.0;" width="10" x="521" y="62.5938"/><line style="stroke:#383838;stroke-width:1.0;" x1="521" x2="521" y1="62.5938" y2="400.4531"/><line style="stroke:#383838;stroke-width:1.0;" x1="531" x2="531" y1="62.5938" y2="400.4531"/><line style="stroke:#383838;stroke-width:1.0;" x1="521" x2="531" y1="62.5938" y2="62.5938"/><rect fill="#FFFFFF" height="116.5313" style="stroke:#FFFFFF;stroke-width:1.0;" width="10" x="521" y="428.4531"/><line style="stroke:#383838;stroke-width:1.0;" x1="521" x2="521" y1="428.4531" y2="544.9844"/><line style="stroke:#383838;stroke-width:1.0;" x1="531" x2="531" y1="428.4531" y2="544.9844"/><rect fill="#FFFFFF" height="175.9297" style="stroke:#FFFFFF;stroke-width:1.0;" width="10" x="521" y="572.9844"/><line style="stroke:#383838;stroke-width:1.0;" x1="521" x2="521" y1="572.9844" y2="748.9141"/><line style="stroke:#383838;stroke-width:1.0;" x1="531" x2="531" y1="572.9844" y2="748.9141"/><rect fill="#FFFFFF" height="176.9297" style="stroke:#FFFFFF;stroke-width:1.0;" width="10" x="521" y="776.9141"/><line style="stroke:#383838;stroke-width:1.0;" x1="521" x2="521" y1="776.9141" y2="953.8438"/><line style="stroke:#383838;stroke-width:1.0;" x1="531" x2="531" y1="776.9141" y2="953.8438"/><line style="stroke:#383838;stroke-width:1.0;" x1="521" x2="531" y1="953.8438" y2="953.8438"/><rect fill="#FFFFFF" height="337.8594" style="stroke:#FFFFFF;stroke-width:1.0;" width="10" x="766" y="62.5938"/><line style="stroke:#383838;stroke-width:1.0;" x1="766" x2="766" y1="62.5938" y2="400.4531"/><line style="stroke:#383838;stroke-width:1.0;" x1="776" x2="776" y1="62.5938" y2="400.4531"/><line style="stroke:#383838;stroke-width:1.0;" x1="766" x2="776" y1="62.5938" y2="62.5938"/><rect fill="#FFFFFF" height="116.5313" style="stroke:#FFFFFF;stroke-width:1.0;" width="10" x="766" y="428.4531"/><line style="stroke:#383838;stroke-width:1.0;" x1="766" x2="766" y1="428.4531" y2="544.9844"/><line style="stroke:#383838;stroke-width:1.0;" x1="776" x2="776" y1="428.4531" y2="544.9844"/><rect fill="#FFFFFF" height="175.9297" style="stroke:#FFFFFF;stroke-width:1.0;" width="10" x="766" y="572.9844"/><line style="stroke:#383838;stroke-width:1.0;" x1="766" x2="766" y1="572.9844" y2="748.9141"/><line style="stroke:#383838;stroke-width:1.0;" x1="776" x2="776" y1="572.9844" y2="748.9141"/><rect fill="#FFFFFF" height="176.9297" style="stroke:#FFFFFF;stroke-width:1.0;" width="10" x="766" y="776.9141"/><line style="stroke:#383838;stroke-width:1.0;" x1="766" x2="766" y1="776.9141" y2="953.8438"/><line style="stroke:#383838;stroke-width:1.0;" x1="776" x2="776" y1="776.9141" y2="953.8438"/><line style="stroke:#383838;stroke-width:1.0;" x1="766" x2="776" y1="953.8438" y2="953.8438"/><rect fill="#FFFFFF" height="337.8594" style="stroke:#FFFFFF;stroke-width:1.0;" width="10" x="1084" y="62.5938"/><line style="stroke:#383838;stroke-width:1.0;" x1="1084" x2="1084" y1="62.5938" y2="400.4531"/><line style="stroke:#383838;stroke-width:1.0;" x1="1094" x2="1094" y1="62.5938" y2="400.4531"/><line style="stroke:#383838;stroke-width:1.0;" x1="1084" x2="1094" y1="62.5938" y2="62.5938"/><rect fill="#FFFFFF" height="116.5313" style="stroke:#FFFFFF;stroke-width:1.0;" width="10" x="1084" y="428.4531"/><line style="stroke:#383838;stroke-width:1.0;" x1="1084" x2="1084" y1="428.4531" y2="544.9844"/><line style="stroke:#383838;stroke-width:1.0;" x1="1094" x2="1094" y1="428.4531" y2="544.9844"/><rect fill="#FFFFFF" height="175.9297" style="stroke:#FFFFFF;stroke-width:1.0;" width="10" x="1084" y="572.9844"/><line style="stroke:#383838;stroke-width:1.0;" x1="1084" x2="1084" y1="572.9844" y2="748.9141"/><line style="stroke:#383838;stroke-width:1.0;" x1="1094" x2="1094" y1="572.9844" y2="748.9141"/><rect fill="#FFFFFF" height="176.9297" style="stroke:#FFFFFF;stroke-width:1.0;" width="10" x="1084" y="776.9141"/><line style="stroke:#383838;stroke-width:1.0;" x1="1084" x2="1084" y1="776.9141" y2="953.8438"/><line style="stroke:#383838;stroke-width:1.0;" x1="1094" x2="1094" y1="776.9141" y2="953.8438"/><line style="stroke:#383838;stroke-width:1.0;" x1="1084" x2="1094" y1="953.8438" y2="953.8438"/><line style="stroke:#383838;stroke-width:1.0;" x1="48" x2="48" y1="52.5938" y2="400.4531"/><line style="stroke:#383838;stroke-width:1.0;stroke-dasharray:1.0,4.0;" x1="48" x2="48" y1="400.4531" y2="428.4531"/><line style="stroke:#383838;stroke-width:1.0;" x1="48" x2="48" y1="428.4531" y2="544.9844"/><line style="stroke:#383838;stroke-width:1.0;stroke-dasharray:1.0,4.0;" x1="48" x2="48" y1="544.9844" y2="572.9844"/><line style="stroke:#383838;stroke-width:1.0;" x1="48" x2="48" y1="572.9844" y2="748.9141"/><line style="stroke:#383838;stroke-width:1.0;stroke-dasharray:1.0,4.0;" x1="48" x2="48" y1="748.9141" y2="776.9141"/><line style="stroke:#383838;stroke-width:1.0;" x1="48" x2="48" y1="776.9141" y2="962.8438"/><line style="stroke:#383838;stroke-width:1.0;" x1="173" x2="173" y1="52.5938" y2="400.4531"/><line style="stroke:#383838;stroke-width:1.0;stroke-dasharray:1.0,4.0;" x1="173" x2="173" y1="400.4531" y2="428.4531"/><line style="stroke:#383838;stroke-width:1.0;" x1="173" x2="173" y1="428.4531" y2="544.9844"/><line style="stroke:#383838;stroke-width:1.0;stroke-dasharray:1.0,4.0;" x1="173" x2="173" y1="544.9844" y2="572.9844"/><line style="stroke:#383838;stroke-width:1.0;" x1="173" x2="173" y1="572.9844" y2="748.9141"/><line style="stroke:#383838;stroke-width:1.0;stroke-dasharray:1.0,4.0;" x1="173" x2="173" y1="748.9141" y2="776.9141"/><line style="stroke:#383838;stroke-width:1.0;" x1="173" x2="173" y1="776.9141" y2="962.8438"/><line style="stroke:#383838;stroke-width:1.0;" x1="334" x2="334" y1="52.5938" y2="400.4531"/><line style="stroke:#383838;stroke-width:1.0;stroke-dasharray:1.0,4.0;" x1="334" x2="334" y1="400.4531" y2="428.4531"/><line style="stroke:#383838;stroke-width:1.0;" x1="334" x2="334" y1="428.4531" y2="544.9844"/><line style="stroke:#383838;stroke-width:1.0;stroke-dasharray:1.0,4.0;" x1="334" x2="334" y1="544.9844" y2="572.9844"/><line style="stroke:#383838;stroke-width:1.0;" x1="334" x2="334" y1="572.9844" y2="748.9141"/><line style="stroke:#383838;stroke-width:1.0;stroke-dasharray:1.0,4.0;" x1="334" x2="334" y1="748.9141" y2="776.9141"/><line style="stroke:#383838;stroke-width:1.0;" x1="334" x2="334" y1="776.9141" y2="962.8438"/><line style="stroke:#383838;stroke-width:1.0;" x1="525.5" x2="525.5" y1="52.5938" y2="400.4531"/><line style="stroke:#383838;stroke-width:1.0;stroke-dasharray:1.0,4.0;" x1="525.5" x2="525.5" y1="400.4531" y2="428.4531"/><line style="stroke:#383838;stroke-width:1.0;" x1="525.5" x2="525.5" y1="428.4531" y2="544.9844"/><line style="stroke:#383838;stroke-width:1.0;stroke-dasharray:1.0,4.0;" x1="525.5" x2="525.5" y1="544.9844" y2="572.9844"/><line style="stroke:#383838;stroke-width:1.0;" x1="525.5" x2="525.5" y1="572.9844" y2="748.9141"/><line style="stroke:#383838;stroke-width:1.0;stroke-dasharray:1.0,4.0;" x1="525.5" x2="525.5" y1="748.9141" y2="776.9141"/><line style="stroke:#383838;stroke-width:1.0;" x1="525.5" x2="525.5" y1="776.9141" y2="962.8438"/><line style="stroke:#383838;stroke-width:1.0;" x1="770.5" x2="770.5" y1="52.5938" y2="400.4531"/><line style="stroke:#383838;stroke-width:1.0;stroke-dasharray:1.0,4.0;" x1="770.5" x2="770.5" y1="400.4531" y2="428.4531"/><line style="stroke:#383838;stroke-width:1.0;" x1="770.5" x2="770.5" y1="428.4531" y2="544.9844"/><line style="stroke:#383838;stroke-width:1.0;stroke-dasharray:1.0,4.0;" x1="770.5" x2="770.5" y1="544.9844" y2="572.9844"/><line style="stroke:#383838;stroke-width:1.0;" x1="770.5" x2="770.5" y1="572.9844" y2="748.9141"/><line style="stroke:#383838;stroke-width:1.0;stroke-dasharray:1.0,4.0;" x1="770.5" x2="770.5" y1="748.9141" y2="776.9141"/><line style="stroke:#383838;stroke-width:1.0;" x1="770.5" x2="770.5" y1="776.9141" y2="962.8438"/><line style="stroke:#383838;stroke-width:1.0;" x1="929.5" x2="929.5" y1="52.5938" y2="400.4531"/><line style="stroke:#383838;stroke-width:1.0;stroke-dasharray:1.0,4.0;" x1="929.5" x2="929.5" y1="400.4531" y2="428.4531"/><line style="stroke:#383838;stroke-width:1.0;" x1="929.5" x2="929.5" y1="428.4531" y2="544.9844"/><line style="stroke:#383838;stroke-width:1.0;stroke-dasharray:1.0,4.0;" x1="929.5" x2="929.5" y1="544.9844" y2="572.9844"/><line style="stroke:#383838;stroke-width:1.0;" x1="929.5" x2="929.5" y1="572.9844" y2="748.9141"/><line style="stroke:#383838;stroke-width:1.0;stroke-dasharray:1.0,4.0;" x1="929.5" x2="929.5" y1="748.9141" y2="776.9141"/><line style="stroke:#383838;stroke-width:1.0;" x1="929.5" x2="929.5" y1="776.9141" y2="962.8438"/><line style="stroke:#383838;stroke-width:1.0;" x1="1088.5" x2="1088.5" y1="52.5938" y2="400.4531"/><line style="stroke:#383838;stroke-width:1.0;stroke-dasharray:1.0,4.0;" x1="1088.5" x2="1088.5" y1="400.4531" y2="428.4531"/><line style="stroke:#383838;stroke-width:1.0;" x1="1088.5" x2="1088.5" y1="428.4531" y2="544.9844"/><line style="stroke:#383838;stroke-width:1.0;stroke-dasharray:1.0,4.0;" x1="1088.5" x2="1088.5" y1="544.9844" y2="572.9844"/><line style="stroke:#383838;stroke-width:1.0;" x1="1088.5" x2="1088.5" y1="572.9844" y2="748.9141"/><line style="stroke:#383838;stroke-width:1.0;stroke-dasharray:1.0,4.0;" x1="1088.5" x2="1088.5" y1="748.9141" y2="776.9141"/><line style="stroke:#383838;stroke-width:1.0;" x1="1088.5" x2="1088.5" y1="776.9141" y2="962.8438"/><rect fill="#F8F8F8" height="30.2969" style="stroke:#383838;stroke-width:1.5;" width="87" x="5" y="21.2969"/><text fill="#000000" font-family="sans-serif" font-size="14" lengthAdjust="spacing" textLength="73" x="12" y="41.292">Data Store</text><rect fill="#F8F8F8" height="30.2969" style="stroke:#383838;stroke-width:1.5;" width="142" x="102" y="21.2969"/><text fill="#000000" font-family="sans-serif" font-size="14" lengthAdjust="spacing" textLength="128" x="109" y="41.292">Chrono Data Store</text><rect fill="#F8F8F8" height="46.5938" style="stroke:#383838;stroke-width:1.5;" width="160" x="254" y="5"/><text fill="#000000" font-family="sans-serif" font-size="14" lengthAdjust="spacing" textLength="146" x="261" y="24.9951">Data Processor Slave</text><text fill="#000000" font-family="sans-serif" font-size="14" lengthAdjust="spacing" textLength="61" x="303.5" y="41.292">Backend</text><rect fill="#F8F8F8" height="30.2969" style="stroke:#383838;stroke-width:1.5;" width="127" x="462.5" y="21.2969"/><text fill="#000000" font-family="sans-serif" font-size="14" lengthAdjust="spacing" textLength="113" x="469.5" y="41.292">Message Broker</text><rect fill="#F8F8F8" height="46.5938" style="stroke:#383838;stroke-width:1.5;" width="135" x="703.5" y="5"/><text fill="#000000" font-family="sans-serif" font-size="14" lengthAdjust="spacing" textLength="121" x="710.5" y="24.9951">Location Tracking</text><text fill="#000000" font-family="sans-serif" font-size="14" lengthAdjust="spacing" textLength="61" x="740.5" y="41.292">Backend</text><rect fill="#F8F8F8" height="46.5938" style="stroke:#383838;stroke-width:1.5;" width="163" x="848.5" y="5"/><text fill="#000000" font-family="sans-serif" font-size="14" lengthAdjust="spacing" textLength="149" x="855.5" y="24.9951">Device Records Slave</text><text fill="#000000" font-family="sans-serif" font-size="14" lengthAdjust="spacing" textLength="61" x="899.5" y="41.292">Backend</text><rect fill="#F8F8F8" height="46.5938" style="stroke:#383838;stroke-width:1.5;" width="135" x="1021.5" y="5"/><text fill="#000000" font-family="sans-serif" font-size="14" lengthAdjust="spacing" textLength="121" x="1028.5" y="24.9951">Location Tracking</text><text fill="#000000" font-family="sans-serif" font-size="14" lengthAdjust="spacing" textLength="63" x="1057.5" y="41.292">Frontend</text><rect fill="#FFFFFF" height="337.8594" style="stroke:#FFFFFF;stroke-width:1.0;" width="10" x="521" y="62.5938"/><line style="stroke:#383838;stroke-width:1.0;" x1="521" x2="521" y1="62.5938" y2="400.4531"/><line style="stroke:#383838;stroke-width:1.0;" x1="531" x2="531" y1="62.5938" y2="400.4531"/><line style="stroke:#383838;stroke-width:1.0;" x1="521" x2="531" y1="62.5938" y2="62.5938"/><rect fill="#FFFFFF" height="116.5313" style="stroke:#FFFFFF;stroke-width:1.0;" width="10" x="521" y="428.4531"/><line style="stroke:#383838;stroke-width:1.0;" x1="521" x2="521" y1="428.4531" y2="544.9844"/><line style="stroke:#383838;stroke-width:1.0;" x1="531" x2="531" y1="428.4531" y2="544.9844"/><rect fill="#FFFFFF" height="175.9297" style="stroke:#FFFFFF;stroke-width:1.0;" width="10" x="521" y="572.9844"/><line style="stroke:#383838;stroke-width:1.0;" x1="521" x2="521" y1="572.9844" y2="748.9141"/><line style="stroke:#383838;stroke-width:1.0;" x1="531" x2="531" y1="572.9844" y2="748.9141"/><rect fill="#FFFFFF" height="176.9297" style="stroke:#FFFFFF;stroke-width:1.0;" width="10" x="521" y="776.9141"/><line style="stroke:#383838;stroke-width:1.0;" x1="521" x2="521" y1="776.9141" y2="953.8438"/><line style="stroke:#383838;stroke-width:1.0;" x1="531" x2="531" y1="776.9141" y2="953.8438"/><line style="stroke:#383838;stroke-width:1.0;" x1="521" x2="531" y1="953.8438" y2="953.8438"/><rect fill="#FFFFFF" height="337.8594" style="stroke:#FFFFFF;stroke-width:1.0;" width="10" x="766" y="62.5938"/><line style="stroke:#383838;stroke-width:1.0;" x1="766" x2="766" y1="62.5938" y2="400.4531"/><line style="stroke:#383838;stroke-width:1.0;" x1="776" x2="776" y1="62.5938" y2="400.4531"/><line style="stroke:#383838;stroke-width:1.0;" x1="766" x2="776" y1="62.5938" y2="62.5938"/><rect fill="#FFFFFF" height="116.5313" style="stroke:#FFFFFF;stroke-width:1.0;" width="10" x="766" y="428.4531"/><line style="stroke:#383838;stroke-width:1.0;" x1="766" x2="766" y1="428.4531" y2="544.9844"/><line style="stroke:#383838;stroke-width:1.0;" x1="776" x2="776" y1="428.4531" y2="544.9844"/><rect fill="#FFFFFF" height="175.9297" style="stroke:#FFFFFF;stroke-width:1.0;" width="10" x="766" y="572.9844"/><line style="stroke:#383838;stroke-width:1.0;" x1="766" x2="766" y1="572.9844" y2="748.9141"/><line style="stroke:#383838;stroke-width:1.0;" x1="776" x2="776" y1="572.9844" y2="748.9141"/><rect fill="#FFFFFF" height="176.9297" style="stroke:#FFFFFF;stroke-width:1.0;" width="10" x="766" y="776.9141"/><line style="stroke:#383838;stroke-width:1.0;" x1="766" x2="766" y1="776.9141" y2="953.8438"/><line style="stroke:#383838;stroke-width:1.0;" x1="776" x2="776" y1="776.9141" y2="953.8438"/><line style="stroke:#383838;stroke-width:1.0;" x1="766" x2="776" y1="953.8438" y2="953.8438"/><rect fill="#FFFFFF" height="337.8594" style="stroke:#FFFFFF;stroke-width:1.0;" width="10" x="1084" y="62.5938"/><line style="stroke:#383838;stroke-width:1.0;" x1="1084" x2="1084" y1="62.5938" y2="400.4531"/><line style="stroke:#383838;stroke-width:1.0;" x1="1094" x2="1094" y1="62.5938" y2="400.4531"/><line style="stroke:#383838;stroke-width:1.0;" x1="1084" x2="1094" y1="62.5938" y2="62.5938"/><rect fill="#FFFFFF" height="116.5313" style="stroke:#FFFFFF;stroke-width:1.0;" width="10" x="1084" y="428.4531"/><line style="stroke:#383838;stroke-width:1.0;" x1="1084" x2="1084" y1="428.4531" y2="544.9844"/><line style="stroke:#383838;stroke-width:1.0;" x1="1094" x2="1094" y1="428.4531" y2="544.9844"/><rect fill="#FFFFFF" height="175.9297" style="stroke:#FFFFFF;stroke-width:1.0;" width="10" x="1084" y="572.9844"/><line style="stroke:#383838;stroke-width:1.0;" x1="1084" x2="1084" y1="572.9844" y2="748.9141"/><line style="stroke:#383838;stroke-width:1.0;" x1="1094" x2="1094" y1="572.9844" y2="748.9141"/><rect fill="#FFFFFF" height="176.9297" style="stroke:#FFFFFF;stroke-width:1.0;" width="10" x="1084" y="776.9141"/><line style="stroke:#383838;stroke-width:1.0;" x1="1084" x2="1084" y1="776.9141" y2="953.8438"/><line style="stroke:#383838;stroke-width:1.0;" x1="1094" x2="1094" y1="776.9141" y2="953.8438"/><line style="stroke:#383838;stroke-width:1.0;" x1="1084" x2="1094" y1="953.8438" y2="953.8438"/><rect fill="#EEEEEE" height="3" style="stroke:#EEEEEE;stroke-width:1.0;" width="1299" x="0" y="83.1602"/><line style="stroke:#000000;stroke-width:1.0;" x1="0" x2="1299" y1="83.1602" y2="83.1602"/><line style="stroke:#000000;stroke-width:1.0;" x1="0" x2="1299" y1="86.1602" y2="86.1602"/><rect fill="#EEEEEE" height="23.1328" style="stroke:#000000;stroke-width:2.0;" width="108" x="595.5" y="72.5938"/><text fill="#000000" font-family="sans-serif" font-size="13" font-weight="bold" lengthAdjust="spacing" textLength="89" x="601.5" y="88.6606">Initialization</text><polygon fill="#383838" points="509,122.8594,519,126.8594,509,130.8594" style="stroke:#383838;stroke-width:1.0;"/><line style="stroke:#383838;stroke-width:1.0;" x1="48.5" x2="515" y1="126.8594" y2="126.8594"/><text fill="#000000" font-family="sans-serif" font-size="13" font-weight="bold" lengthAdjust="spacing" textLength="23" x="209.75" y="121.7935">1.1</text><text fill="#000000" font-family="sans-serif" font-size="13" lengthAdjust="spacing" textLength="123" x="236.75" y="121.7935">subscribe to X data</text><polygon fill="#383838" points="509,167.125,519,171.125,509,175.125" style="stroke:#383838;stroke-width:1.0;"/><line style="stroke:#383838;stroke-width:1.0;" x1="173" x2="515" y1="171.125" y2="171.125"/><text fill="#000000" font-family="sans-serif" font-size="13" font-weight="bold" lengthAdjust="spacing" textLength="23" x="241.5" y="158.4927">1.2</text><text fill="#000000" font-family="sans-serif" font-size="13" lengthAdjust="spacing" textLength="107" x="307" y="150.9263">subscribe to new</text><text fill="#000000" font-family="sans-serif" font-size="13" lengthAdjust="spacing" textLength="184" x="268.5" y="166.0591">gps sensor data with records</text><polygon fill="#383838" points="509,211.3906,519,215.3906,509,219.3906" style="stroke:#383838;stroke-width:1.0;"/><line style="stroke:#383838;stroke-width:1.0;" x1="334" x2="515" y1="215.3906" y2="215.3906"/><text fill="#000000" font-family="sans-serif" font-size="13" font-weight="bold" lengthAdjust="spacing" textLength="23" x="360.5" y="202.7583">1.3</text><text fill="#000000" font-family="sans-serif" font-size="13" lengthAdjust="spacing" textLength="107" x="387.5" y="195.1919">subscribe to new</text><text fill="#000000" font-family="sans-serif" font-size="13" lengthAdjust="spacing" textLength="88" x="397" y="210.3247">X sensor data</text><polygon fill="#383838" points="509,255.6563,519,259.6563,509,263.6563" style="stroke:#383838;stroke-width:1.0;"/><line style="stroke:#383838;stroke-width:1.0;" x1="334" x2="515" y1="259.6563" y2="259.6563"/><text fill="#000000" font-family="sans-serif" font-size="13" font-weight="bold" lengthAdjust="spacing" textLength="23" x="346" y="247.0239">1.4</text><text fill="#000000" font-family="sans-serif" font-size="13" lengthAdjust="spacing" textLength="136" x="373" y="239.4575">subscribe to changes</text><text fill="#000000" font-family="sans-serif" font-size="13" lengthAdjust="spacing" textLength="117" x="384.5" y="254.5903">in transformations</text><polygon fill="#383838" points="542,299.9219,532,303.9219,542,307.9219" style="stroke:#383838;stroke-width:1.0;"/><line style="stroke:#383838;stroke-width:1.0;" x1="536" x2="765" y1="303.9219" y2="303.9219"/><text fill="#000000" font-family="sans-serif" font-size="13" font-weight="bold" lengthAdjust="spacing" textLength="23" x="543" y="291.2896">1.5</text><text fill="#000000" font-family="sans-serif" font-size="13" lengthAdjust="spacing" textLength="107" x="608.5" y="283.7231">subscribe to new</text><text fill="#000000" font-family="sans-serif" font-size="13" lengthAdjust="spacing" textLength="184" x="570" y="298.856">gps sensor data with records</text><polygon fill="#383838" points="542,344.1875,532,348.1875,542,352.1875" style="stroke:#383838;stroke-width:1.0;"/><line style="stroke:#383838;stroke-width:1.0;" x1="536" x2="929" y1="348.1875" y2="348.1875"/><text fill="#000000" font-family="sans-serif" font-size="13" font-weight="bold" lengthAdjust="spacing" textLength="23" x="663.5" y="335.5552">1.6</text><text fill="#000000" font-family="sans-serif" font-size="13" lengthAdjust="spacing" textLength="107" x="690.5" y="327.9888">subscribe to new</text><text fill="#000000" font-family="sans-serif" font-size="13" lengthAdjust="spacing" textLength="103" x="692.5" y="343.1216">gps sensor data</text><polygon fill="#383838" points="542,388.4531,532,392.4531,542,396.4531" style="stroke:#383838;stroke-width:1.0;"/><line style="stroke:#383838;stroke-width:1.0;" x1="536" x2="929" y1="392.4531" y2="392.4531"/><text fill="#000000" font-family="sans-serif" font-size="13" font-weight="bold" lengthAdjust="spacing" textLength="23" x="649" y="379.8208">1.7</text><text fill="#000000" font-family="sans-serif" font-size="13" lengthAdjust="spacing" textLength="136" x="676" y="372.2544">subscribe to changes</text><text fill="#000000" font-family="sans-serif" font-size="13" lengthAdjust="spacing" textLength="108" x="692" y="387.3872">in device records</text><rect fill="#EEEEEE" height="3" style="stroke:#EEEEEE;stroke-width:1.0;" width="1299" x="0" y="449.0195"/><line style="stroke:#000000;stroke-width:1.0;" x1="0" x2="1299" y1="449.0195" y2="449.0195"/><line style="stroke:#000000;stroke-width:1.0;" x1="0" x2="1299" y1="452.0195" y2="452.0195"/><rect fill="#EEEEEE" height="23.1328" style="stroke:#000000;stroke-width:2.0;" width="151" x="574" y="438.4531"/><text fill="#000000" font-family="sans-serif" font-size="13" font-weight="bold" lengthAdjust="spacing" textLength="132" x="580" y="454.52">UC01 Initialization</text><polygon fill="#383838" points="1105,488.7188,1095,492.7188,1105,496.7188" style="stroke:#383838;stroke-width:1.0;"/><line style="stroke:#383838;stroke-width:1.0;" x1="1099" x2="1298" y1="492.7188" y2="492.7188"/><text fill="#000000" font-family="sans-serif" font-size="13" font-weight="bold" lengthAdjust="spacing" textLength="23" x="1120" y="487.6528">2.1</text><text fill="#000000" font-family="sans-serif" font-size="13" lengthAdjust="spacing" textLength="126" x="1147" y="487.6528">user acesses the UI</text><polygon fill="#383838" points="787,532.9844,777,536.9844,787,540.9844" style="stroke:#383838;stroke-width:1.0;"/><line style="stroke:#383838;stroke-width:1.0;" x1="781" x2="1083" y1="536.9844" y2="536.9844"/><text fill="#000000" font-family="sans-serif" font-size="13" font-weight="bold" lengthAdjust="spacing" textLength="23" x="863" y="524.3521">2.2</text><text fill="#000000" font-family="sans-serif" font-size="13" lengthAdjust="spacing" textLength="107" x="890" y="516.7856">subscribe to new</text><text fill="#000000" font-family="sans-serif" font-size="13" lengthAdjust="spacing" textLength="103" x="892" y="531.9185">gps sensor data</text><rect fill="#EEEEEE" height="3" style="stroke:#EEEEEE;stroke-width:1.0;" width="1299" x="0" y="593.5508"/><line style="stroke:#000000;stroke-width:1.0;" x1="0" x2="1299" y1="593.5508" y2="593.5508"/><line style="stroke:#000000;stroke-width:1.0;" x1="0" x2="1299" y1="596.5508" y2="596.5508"/><rect fill="#EEEEEE" height="23.1328" style="stroke:#000000;stroke-width:2.0;" width="151" x="574" y="582.9844"/><text fill="#000000" font-family="sans-serif" font-size="13" font-weight="bold" lengthAdjust="spacing" textLength="132" x="580" y="599.0513">UC02 Initialization</text><polygon fill="#383838" points="1105,648.3828,1095,652.3828,1105,656.3828" style="stroke:#383838;stroke-width:1.0;"/><line style="stroke:#383838;stroke-width:1.0;" x1="1099" x2="1298" y1="652.3828" y2="652.3828"/><text fill="#000000" font-family="sans-serif" font-size="13" font-weight="bold" lengthAdjust="spacing" textLength="23" x="1106" y="639.7505">3.1</text><text fill="#000000" font-family="sans-serif" font-size="13" lengthAdjust="spacing" textLength="113" x="1153.5" y="632.1841">user wants to see</text><text fill="#000000" font-family="sans-serif" font-size="13" lengthAdjust="spacing" textLength="154" x="1133" y="647.3169">specific gps sensor data</text><polygon fill="#383838" points="787,692.6484,777,696.6484,787,700.6484" style="stroke:#383838;stroke-width:1.0;"/><line style="stroke:#383838;stroke-width:1.0;" x1="781" x2="1083" y1="696.6484" y2="696.6484"/><text fill="#000000" font-family="sans-serif" font-size="13" font-weight="bold" lengthAdjust="spacing" textLength="23" x="846.5" y="684.0161">3.2</text><text fill="#000000" font-family="sans-serif" font-size="13" lengthAdjust="spacing" textLength="140" x="873.5" y="676.4497">unsubscribe from new</text><text fill="#000000" font-family="sans-serif" font-size="13" lengthAdjust="spacing" textLength="103" x="892" y="691.5825">gps sensor data</text><polygon fill="#383838" points="787,736.9141,777,740.9141,787,744.9141" style="stroke:#383838;stroke-width:1.0;"/><line style="stroke:#383838;stroke-width:1.0;" x1="781" x2="1083" y1="740.9141" y2="740.9141"/><text fill="#000000" font-family="sans-serif" font-size="13" font-weight="bold" lengthAdjust="spacing" textLength="23" x="837.5" y="728.2817">3.3</text><text fill="#000000" font-family="sans-serif" font-size="13" lengthAdjust="spacing" textLength="158" x="864.5" y="720.7153">subscribe to specific new</text><text fill="#000000" font-family="sans-serif" font-size="13" lengthAdjust="spacing" textLength="103" x="892" y="735.8481">gps sensor data</text><rect fill="#EEEEEE" height="3" style="stroke:#EEEEEE;stroke-width:1.0;" width="1299" x="0" y="797.4805"/><line style="stroke:#000000;stroke-width:1.0;" x1="0" x2="1299" y1="797.4805" y2="797.4805"/><line style="stroke:#000000;stroke-width:1.0;" x1="0" x2="1299" y1="800.4805" y2="800.4805"/><rect fill="#EEEEEE" height="23.1328" style="stroke:#000000;stroke-width:2.0;" width="151" x="574" y="786.9141"/><text fill="#000000" font-family="sans-serif" font-size="13" font-weight="bold" lengthAdjust="spacing" textLength="132" x="580" y="802.981">UC01 Initialization</text><polygon fill="#383838" points="1105,852.3125,1095,856.3125,1105,860.3125" style="stroke:#383838;stroke-width:1.0;"/><line style="stroke:#383838;stroke-width:1.0;" x1="1099" x2="1298" y1="856.3125" y2="856.3125"/><text fill="#000000" font-family="sans-serif" font-size="13" font-weight="bold" lengthAdjust="spacing" textLength="23" x="1122.5" y="843.6802">4.1</text><text fill="#000000" font-family="sans-serif" font-size="13" lengthAdjust="spacing" textLength="113" x="1153.5" y="836.1138">user wants to see</text><text fill="#000000" font-family="sans-serif" font-size="13" lengthAdjust="spacing" textLength="121" x="1149.5" y="851.2466">all gps sensor data</text><polygon fill="#383838" points="787,896.5781,777,900.5781,787,904.5781" style="stroke:#383838;stroke-width:1.0;"/><line style="stroke:#383838;stroke-width:1.0;" x1="781" x2="1083" y1="900.5781" y2="900.5781"/><text fill="#000000" font-family="sans-serif" font-size="13" font-weight="bold" lengthAdjust="spacing" textLength="23" x="821" y="887.9458">4.2</text><text fill="#000000" font-family="sans-serif" font-size="13" lengthAdjust="spacing" textLength="191" x="848" y="880.3794">unsubscribe from specific new</text><text fill="#000000" font-family="sans-serif" font-size="13" lengthAdjust="spacing" textLength="103" x="892" y="895.5122">gps sensor data</text><polygon fill="#383838" points="787,940.8438,777,944.8438,787,948.8438" style="stroke:#383838;stroke-width:1.0;"/><line style="stroke:#383838;stroke-width:1.0;" x1="781" x2="1083" y1="944.8438" y2="944.8438"/><text fill="#000000" font-family="sans-serif" font-size="13" font-weight="bold" lengthAdjust="spacing" textLength="23" x="863" y="932.2114">4.3</text><text fill="#000000" font-family="sans-serif" font-size="13" lengthAdjust="spacing" textLength="107" x="890" y="924.645">subscribe to new</text><text fill="#000000" font-family="sans-serif" font-size="13" lengthAdjust="spacing" textLength="103" x="892" y="939.7778">gps sensor data</text><!--MD5=[00337554fbd2ced3f245d6c113b93cc9]
@startuml process-view-level2-uc00

skinparam Monochrome true
skinparam sequenceMessageAlign center
skinparam style strictuml
hide unlinked

autonumber 1.1

participant "Data Gateway" as DG
participant "Data Store" as DS
participant "Chrono Data Store" as CDS
participant "Data Processor Slave\nBackend" as SDP
participant "Message Broker" as MB
participant "Location Tracking\nBackend" as LTB
participant "Device Records Slave\nBackend" as DRSB
participant "Location Tracking\nFrontend" as LTF

activate MB
activate LTF
activate LTB

== Initialization ==
DS -> MB : subscribe to X data
CDS -> MB : subscribe to new\ngps sensor data with records
SDP -> MB : subscribe to new\nX sensor data
SDP -> MB : subscribe to changes\n in transformations
LTB -> MB : subscribe to new\ngps sensor data with records
DRSB -> MB : subscribe to new\ngps sensor data
DRSB -> MB : subscribe to changes\n in device records

...
== UC01 Initialization ==
autonumber inc A
LTF <- : user acesses the UI
LTF -> LTB : subscribe to new\ngps sensor data

...
== UC02 Initialization ==
autonumber inc A
LTF <- : user wants to see\nspecific gps sensor data
LTF -> LTB : unsubscribe from new\ngps sensor data
LTF -> LTB : subscribe to specific new\ngps sensor data

...
== UC01 Initialization ==
autonumber inc A
LTF <- : user wants to see\nall gps sensor data
LTF -> LTB : unsubscribe from specific new\ngps sensor data
LTF -> LTB : subscribe to new\ngps sensor data

@enduml

PlantUML version 1.2021.9(Sun Jul 25 11:13:56 WEST 2021)
(GPL source distribution)
Java Runtime: OpenJDK Runtime Environment
JVM: OpenJDK 64-Bit Server VM
Default Encoding: UTF-8
Language: en
Country: GB
--></g></svg>