<?xml version="1.0" encoding="UTF-8" standalone="no"?><svg xmlns="http://www.w3.org/2000/svg" xmlns:xlink="http://www.w3.org/1999/xlink" contentScriptType="application/ecmascript" contentStyleType="text/css" height="1156px" preserveAspectRatio="none" style="width:1298px;height:1156px;background:#FFFFFF;" version="1.1" viewBox="0 0 1298 1156" width="1298px" zoomAndPan="magnify"><defs/><g><rect fill="#FFFFFF" height="423.2963" style="stroke:#FFFFFF;stroke-width:1.0;" width="10" x="494.5" y="68.1358"/><line style="stroke:#383838;stroke-width:1.0;" x1="494.5" x2="494.5" y1="68.1358" y2="491.4321"/><line style="stroke:#383838;stroke-width:1.0;" x1="504.5" x2="504.5" y1="68.1358" y2="491.4321"/><line style="stroke:#383838;stroke-width:1.0;" x1="494.5" x2="504.5" y1="68.1358" y2="68.1358"/><rect fill="#FFFFFF" height="176.2361" style="stroke:#FFFFFF;stroke-width:1.0;" width="10" x="494.5" y="519.4321"/><line style="stroke:#383838;stroke-width:1.0;" x1="494.5" x2="494.5" y1="519.4321" y2="695.6682"/><line style="stroke:#383838;stroke-width:1.0;" x1="504.5" x2="504.5" y1="519.4321" y2="695.6682"/><rect fill="#FFFFFF" height="193.9421" style="stroke:#FFFFFF;stroke-width:1.0;" width="10" x="494.5" y="723.6682"/><line style="stroke:#383838;stroke-width:1.0;" x1="494.5" x2="494.5" y1="723.6682" y2="917.6103"/><line style="stroke:#383838;stroke-width:1.0;" x1="504.5" x2="504.5" y1="723.6682" y2="917.6103"/><rect fill="#FFFFFF" height="194.9421" style="stroke:#FFFFFF;stroke-width:1.0;" width="10" x="494.5" y="945.6103"/><line style="stroke:#383838;stroke-width:1.0;" x1="494.5" x2="494.5" y1="945.6103" y2="1140.5524"/><line style="stroke:#383838;stroke-width:1.0;" x1="504.5" x2="504.5" y1="945.6103" y2="1140.5524"/><line style="stroke:#383838;stroke-width:1.0;" x1="494.5" x2="504.5" y1="1140.5524" y2="1140.5524"/><rect fill="#FFFFFF" height="423.2963" style="stroke:#FFFFFF;stroke-width:1.0;" width="10" x="780.5" y="68.1358"/><line style="stroke:#383838;stroke-width:1.0;" x1="780.5" x2="780.5" y1="68.1358" y2="491.4321"/><line style="stroke:#383838;stroke-width:1.0;" x1="790.5" x2="790.5" y1="68.1358" y2="491.4321"/><line style="stroke:#383838;stroke-width:1.0;" x1="780.5" x2="790.5" y1="68.1358" y2="68.1358"/><rect fill="#FFFFFF" height="176.2361" style="stroke:#FFFFFF;stroke-width:1.0;" width="10" x="780.5" y="519.4321"/><line style="stroke:#383838;stroke-width:1.0;" x1="780.5" x2="780.5" y1="519.4321" y2="695.6682"/><line style="stroke:#383838;stroke-width:1.0;" x1="790.5" x2="790.5" y1="519.4321" y2="695.6682"/><rect fill="#FFFFFF" height="193.9421" style="stroke:#FFFFFF;stroke-width:1.0;" width="10" x="780.5" y="723.6682"/><line style="stroke:#383838;stroke-width:1.0;" x1="780.5" x2="780.5" y1="723.6682" y2="917.6103"/><line style="stroke:#383838;stroke-width:1.0;" x1="790.5" x2="790.5" y1="723.6682" y2="917.6103"/><rect fill="#FFFFFF" height="194.9421" style="stroke:#FFFFFF;stroke-width:1.0;" width="10" x="780.5" y="945.6103"/><line style="stroke:#383838;stroke-width:1.0;" x1="780.5" x2="780.5" y1="945.6103" y2="1140.5524"/><line style="stroke:#383838;stroke-width:1.0;" x1="790.5" x2="790.5" y1="945.6103" y2="1140.5524"/><line style="stroke:#383838;stroke-width:1.0;" x1="780.5" x2="790.5" y1="1140.5524" y2="1140.5524"/><rect fill="#FFFFFF" height="423.2963" style="stroke:#FFFFFF;stroke-width:1.0;" width="10" x="1091.5" y="68.1358"/><line style="stroke:#383838;stroke-width:1.0;" x1="1091.5" x2="1091.5" y1="68.1358" y2="491.4321"/><line style="stroke:#383838;stroke-width:1.0;" x1="1101.5" x2="1101.5" y1="68.1358" y2="491.4321"/><line style="stroke:#383838;stroke-width:1.0;" x1="1091.5" x2="1101.5" y1="68.1358" y2="68.1358"/><rect fill="#FFFFFF" height="176.2361" style="stroke:#FFFFFF;stroke-width:1.0;" width="10" x="1091.5" y="519.4321"/><line style="stroke:#383838;stroke-width:1.0;" x1="1091.5" x2="1091.5" y1="519.4321" y2="695.6682"/><line style="stroke:#383838;stroke-width:1.0;" x1="1101.5" x2="1101.5" y1="519.4321" y2="695.6682"/><rect fill="#FFFFFF" height="193.9421" style="stroke:#FFFFFF;stroke-width:1.0;" width="10" x="1091.5" y="723.6682"/><line style="stroke:#383838;stroke-width:1.0;" x1="1091.5" x2="1091.5" y1="723.6682" y2="917.6103"/><line style="stroke:#383838;stroke-width:1.0;" x1="1101.5" x2="1101.5" y1="723.6682" y2="917.6103"/><rect fill="#FFFFFF" height="194.9421" style="stroke:#FFFFFF;stroke-width:1.0;" width="10" x="1091.5" y="945.6103"/><line style="stroke:#383838;stroke-width:1.0;" x1="1091.5" x2="1091.5" y1="945.6103" y2="1140.5524"/><line style="stroke:#383838;stroke-width:1.0;" x1="1101.5" x2="1101.5" y1="945.6103" y2="1140.5524"/><line style="stroke:#383838;stroke-width:1.0;" x1="1091.5" x2="1101.5" y1="1140.5524" y2="1140.5524"/><line style="stroke:#383838;stroke-width:1.0;" x1="47" x2="47" y1="58.1358" y2="491.4321"/><line style="stroke:#383838;stroke-width:1.0;stroke-dasharray:1.0,4.0;" x1="47" x2="47" y1="491.4321" y2="519.4321"/><line style="stroke:#383838;stroke-width:1.0;" x1="47" x2="47" y1="519.4321" y2="695.6682"/><line style="stroke:#383838;stroke-width:1.0;stroke-dasharray:1.0,4.0;" x1="47" x2="47" y1="695.6682" y2="723.6682"/><line style="stroke:#383838;stroke-width:1.0;" x1="47" x2="47" y1="723.6682" y2="917.6103"/><line style="stroke:#383838;stroke-width:1.0;stroke-dasharray:1.0,4.0;" x1="47" x2="47" y1="917.6103" y2="945.6103"/><line style="stroke:#383838;stroke-width:1.0;" x1="47" x2="47" y1="945.6103" y2="1149.5524"/><line style="stroke:#383838;stroke-width:1.0;" x1="167" x2="167" y1="58.1358" y2="491.4321"/><line style="stroke:#383838;stroke-width:1.0;stroke-dasharray:1.0,4.0;" x1="167" x2="167" y1="491.4321" y2="519.4321"/><line style="stroke:#383838;stroke-width:1.0;" x1="167" x2="167" y1="519.4321" y2="695.6682"/><line style="stroke:#383838;stroke-width:1.0;stroke-dasharray:1.0,4.0;" x1="167" x2="167" y1="695.6682" y2="723.6682"/><line style="stroke:#383838;stroke-width:1.0;" x1="167" x2="167" y1="723.6682" y2="917.6103"/><line style="stroke:#383838;stroke-width:1.0;stroke-dasharray:1.0,4.0;" x1="167" x2="167" y1="917.6103" y2="945.6103"/><line style="stroke:#383838;stroke-width:1.0;" x1="167" x2="167" y1="945.6103" y2="1149.5524"/><line style="stroke:#383838;stroke-width:1.0;" x1="322" x2="322" y1="58.1358" y2="491.4321"/><line style="stroke:#383838;stroke-width:1.0;stroke-dasharray:1.0,4.0;" x1="322" x2="322" y1="491.4321" y2="519.4321"/><line style="stroke:#383838;stroke-width:1.0;" x1="322" x2="322" y1="519.4321" y2="695.6682"/><line style="stroke:#383838;stroke-width:1.0;stroke-dasharray:1.0,4.0;" x1="322" x2="322" y1="695.6682" y2="723.6682"/><line style="stroke:#383838;stroke-width:1.0;" x1="322" x2="322" y1="723.6682" y2="917.6103"/><line style="stroke:#383838;stroke-width:1.0;stroke-dasharray:1.0,4.0;" x1="322" x2="322" y1="917.6103" y2="945.6103"/><line style="stroke:#383838;stroke-width:1.0;" x1="322" x2="322" y1="945.6103" y2="1149.5524"/><line style="stroke:#383838;stroke-width:1.0;" x1="499.5" x2="499.5" y1="58.1358" y2="491.4321"/><line style="stroke:#383838;stroke-width:1.0;stroke-dasharray:1.0,4.0;" x1="499.5" x2="499.5" y1="491.4321" y2="519.4321"/><line style="stroke:#383838;stroke-width:1.0;" x1="499.5" x2="499.5" y1="519.4321" y2="695.6682"/><line style="stroke:#383838;stroke-width:1.0;stroke-dasharray:1.0,4.0;" x1="499.5" x2="499.5" y1="695.6682" y2="723.6682"/><line style="stroke:#383838;stroke-width:1.0;" x1="499.5" x2="499.5" y1="723.6682" y2="917.6103"/><line style="stroke:#383838;stroke-width:1.0;stroke-dasharray:1.0,4.0;" x1="499.5" x2="499.5" y1="917.6103" y2="945.6103"/><line style="stroke:#383838;stroke-width:1.0;" x1="499.5" x2="499.5" y1="945.6103" y2="1149.5524"/><line style="stroke:#383838;stroke-width:1.0;" x1="785.5" x2="785.5" y1="58.1358" y2="491.4321"/><line style="stroke:#383838;stroke-width:1.0;stroke-dasharray:1.0,4.0;" x1="785.5" x2="785.5" y1="491.4321" y2="519.4321"/><line style="stroke:#383838;stroke-width:1.0;" x1="785.5" x2="785.5" y1="519.4321" y2="695.6682"/><line style="stroke:#383838;stroke-width:1.0;stroke-dasharray:1.0,4.0;" x1="785.5" x2="785.5" y1="695.6682" y2="723.6682"/><line style="stroke:#383838;stroke-width:1.0;" x1="785.5" x2="785.5" y1="723.6682" y2="917.6103"/><line style="stroke:#383838;stroke-width:1.0;stroke-dasharray:1.0,4.0;" x1="785.5" x2="785.5" y1="917.6103" y2="945.6103"/><line style="stroke:#383838;stroke-width:1.0;" x1="785.5" x2="785.5" y1="945.6103" y2="1149.5524"/><line style="stroke:#383838;stroke-width:1.0;" x1="942.5" x2="942.5" y1="58.1358" y2="491.4321"/><line style="stroke:#383838;stroke-width:1.0;stroke-dasharray:1.0,4.0;" x1="942.5" x2="942.5" y1="491.4321" y2="519.4321"/><line style="stroke:#383838;stroke-width:1.0;" x1="942.5" x2="942.5" y1="519.4321" y2="695.6682"/><line style="stroke:#383838;stroke-width:1.0;stroke-dasharray:1.0,4.0;" x1="942.5" x2="942.5" y1="695.6682" y2="723.6682"/><line style="stroke:#383838;stroke-width:1.0;" x1="942.5" x2="942.5" y1="723.6682" y2="917.6103"/><line style="stroke:#383838;stroke-width:1.0;stroke-dasharray:1.0,4.0;" x1="942.5" x2="942.5" y1="917.6103" y2="945.6103"/><line style="stroke:#383838;stroke-width:1.0;" x1="942.5" x2="942.5" y1="945.6103" y2="1149.5524"/><line style="stroke:#383838;stroke-width:1.0;" x1="1096.5" x2="1096.5" y1="58.1358" y2="491.4321"/><line style="stroke:#383838;stroke-width:1.0;stroke-dasharray:1.0,4.0;" x1="1096.5" x2="1096.5" y1="491.4321" y2="519.4321"/><line style="stroke:#383838;stroke-width:1.0;" x1="1096.5" x2="1096.5" y1="519.4321" y2="695.6682"/><line style="stroke:#383838;stroke-width:1.0;stroke-dasharray:1.0,4.0;" x1="1096.5" x2="1096.5" y1="695.6682" y2="723.6682"/><line style="stroke:#383838;stroke-width:1.0;" x1="1096.5" x2="1096.5" y1="723.6682" y2="917.6103"/><line style="stroke:#383838;stroke-width:1.0;stroke-dasharray:1.0,4.0;" x1="1096.5" x2="1096.5" y1="917.6103" y2="945.6103"/><line style="stroke:#383838;stroke-width:1.0;" x1="1096.5" x2="1096.5" y1="945.6103" y2="1149.5524"/><line style="stroke:#383838;stroke-width:1.0;" x1="1226.5" x2="1226.5" y1="58.1358" y2="491.4321"/><line style="stroke:#383838;stroke-width:1.0;stroke-dasharray:1.0,4.0;" x1="1226.5" x2="1226.5" y1="491.4321" y2="519.4321"/><line style="stroke:#383838;stroke-width:1.0;" x1="1226.5" x2="1226.5" y1="519.4321" y2="695.6682"/><line style="stroke:#383838;stroke-width:1.0;stroke-dasharray:1.0,4.0;" x1="1226.5" x2="1226.5" y1="695.6682" y2="723.6682"/><line style="stroke:#383838;stroke-width:1.0;" x1="1226.5" x2="1226.5" y1="723.6682" y2="917.6103"/><line style="stroke:#383838;stroke-width:1.0;stroke-dasharray:1.0,4.0;" x1="1226.5" x2="1226.5" y1="917.6103" y2="945.6103"/><line style="stroke:#383838;stroke-width:1.0;" x1="1226.5" x2="1226.5" y1="945.6103" y2="1149.5524"/><rect fill="#F8F8F8" height="33.0679" style="stroke:#383838;stroke-width:1.5;" width="84" x="5" y="24.0679"/><text fill="#000000" font-family="sans-serif" font-size="14" lengthAdjust="spacing" textLength="70" x="12" y="46.0339">Data Store</text><rect fill="#F8F8F8" height="33.0679" style="stroke:#383838;stroke-width:1.5;" width="137" x="99" y="24.0679"/><text fill="#000000" font-family="sans-serif" font-size="14" lengthAdjust="spacing" textLength="123" x="106" y="46.0339">Chrono Data Store</text><rect fill="#F8F8F8" height="52.1358" style="stroke:#383838;stroke-width:1.5;" width="153" x="246" y="5"/><text fill="#000000" font-family="sans-serif" font-size="14" lengthAdjust="spacing" textLength="139" x="253" y="26.9659">Data Processor Slave</text><text fill="#000000" font-family="sans-serif" font-size="14" lengthAdjust="spacing" textLength="57" x="294" y="46.0339">Backend</text><rect fill="#F8F8F8" height="33.0679" style="stroke:#383838;stroke-width:1.5;" width="122" x="438.5" y="24.0679"/><text fill="#000000" font-family="sans-serif" font-size="14" lengthAdjust="spacing" textLength="108" x="445.5" y="46.0339">Message Broker</text><rect fill="#F8F8F8" height="52.1358" style="stroke:#383838;stroke-width:1.5;" width="140" x="715.5" y="5"/><text fill="#000000" font-family="sans-serif" font-size="14" lengthAdjust="spacing" textLength="126" x="722.5" y="26.9659">Fleet Management</text><text fill="#000000" font-family="sans-serif" font-size="14" lengthAdjust="spacing" textLength="57" x="757" y="46.0339">Backend</text><rect fill="#F8F8F8" height="52.1358" style="stroke:#383838;stroke-width:1.5;" width="155" x="865.5" y="5"/><text fill="#000000" font-family="sans-serif" font-size="14" lengthAdjust="spacing" textLength="141" x="872.5" y="26.9659">Device Records Slave</text><text fill="#000000" font-family="sans-serif" font-size="14" lengthAdjust="spacing" textLength="57" x="914.5" y="46.0339">Backend</text><rect fill="#F8F8F8" height="52.1358" style="stroke:#383838;stroke-width:1.5;" width="132" x="1030.5" y="5"/><text fill="#000000" font-family="sans-serif" font-size="14" lengthAdjust="spacing" textLength="118" x="1037.5" y="26.9659">Location Tracking</text><text fill="#000000" font-family="sans-serif" font-size="14" lengthAdjust="spacing" textLength="61" x="1066" y="46.0339">Frontend</text><rect fill="#F8F8F8" height="52.1358" style="stroke:#383838;stroke-width:1.5;" width="109" x="1172.5" y="5"/><text fill="#000000" font-family="sans-serif" font-size="14" lengthAdjust="spacing" textLength="95" x="1179.5" y="26.9659">Data Validator</text><text fill="#000000" font-family="sans-serif" font-size="14" lengthAdjust="spacing" textLength="57" x="1198.5" y="46.0339">Backend</text><rect fill="#FFFFFF" height="423.2963" style="stroke:#FFFFFF;stroke-width:1.0;" width="10" x="494.5" y="68.1358"/><line style="stroke:#383838;stroke-width:1.0;" x1="494.5" x2="494.5" y1="68.1358" y2="491.4321"/><line style="stroke:#383838;stroke-width:1.0;" x1="504.5" x2="504.5" y1="68.1358" y2="491.4321"/><line style="stroke:#383838;stroke-width:1.0;" x1="494.5" x2="504.5" y1="68.1358" y2="68.1358"/><rect fill="#FFFFFF" height="176.2361" style="stroke:#FFFFFF;stroke-width:1.0;" width="10" x="494.5" y="519.4321"/><line style="stroke:#383838;stroke-width:1.0;" x1="494.5" x2="494.5" y1="519.4321" y2="695.6682"/><line style="stroke:#383838;stroke-width:1.0;" x1="504.5" x2="504.5" y1="519.4321" y2="695.6682"/><rect fill="#FFFFFF" height="193.9421" style="stroke:#FFFFFF;stroke-width:1.0;" width="10" x="494.5" y="723.6682"/><line style="stroke:#383838;stroke-width:1.0;" x1="494.5" x2="494.5" y1="723.6682" y2="917.6103"/><line style="stroke:#383838;stroke-width:1.0;" x1="504.5" x2="504.5" y1="723.6682" y2="917.6103"/><rect fill="#FFFFFF" height="194.9421" style="stroke:#FFFFFF;stroke-width:1.0;" width="10" x="494.5" y="945.6103"/><line style="stroke:#383838;stroke-width:1.0;" x1="494.5" x2="494.5" y1="945.6103" y2="1140.5524"/><line style="stroke:#383838;stroke-width:1.0;" x1="504.5" x2="504.5" y1="945.6103" y2="1140.5524"/><line style="stroke:#383838;stroke-width:1.0;" x1="494.5" x2="504.5" y1="1140.5524" y2="1140.5524"/><rect fill="#FFFFFF" height="423.2963" style="stroke:#FFFFFF;stroke-width:1.0;" width="10" x="780.5" y="68.1358"/><line style="stroke:#383838;stroke-width:1.0;" x1="780.5" x2="780.5" y1="68.1358" y2="491.4321"/><line style="stroke:#383838;stroke-width:1.0;" x1="790.5" x2="790.5" y1="68.1358" y2="491.4321"/><line style="stroke:#383838;stroke-width:1.0;" x1="780.5" x2="790.5" y1="68.1358" y2="68.1358"/><rect fill="#FFFFFF" height="176.2361" style="stroke:#FFFFFF;stroke-width:1.0;" width="10" x="780.5" y="519.4321"/><line style="stroke:#383838;stroke-width:1.0;" x1="780.5" x2="780.5" y1="519.4321" y2="695.6682"/><line style="stroke:#383838;stroke-width:1.0;" x1="790.5" x2="790.5" y1="519.4321" y2="695.6682"/><rect fill="#FFFFFF" height="193.9421" style="stroke:#FFFFFF;stroke-width:1.0;" width="10" x="780.5" y="723.6682"/><line style="stroke:#383838;stroke-width:1.0;" x1="780.5" x2="780.5" y1="723.6682" y2="917.6103"/><line style="stroke:#383838;stroke-width:1.0;" x1="790.5" x2="790.5" y1="723.6682" y2="917.6103"/><rect fill="#FFFFFF" height="194.9421" style="stroke:#FFFFFF;stroke-width:1.0;" width="10" x="780.5" y="945.6103"/><line style="stroke:#383838;stroke-width:1.0;" x1="780.5" x2="780.5" y1="945.6103" y2="1140.5524"/><line style="stroke:#383838;stroke-width:1.0;" x1="790.5" x2="790.5" y1="945.6103" y2="1140.5524"/><line style="stroke:#383838;stroke-width:1.0;" x1="780.5" x2="790.5" y1="1140.5524" y2="1140.5524"/><rect fill="#FFFFFF" height="423.2963" style="stroke:#FFFFFF;stroke-width:1.0;" width="10" x="1091.5" y="68.1358"/><line style="stroke:#383838;stroke-width:1.0;" x1="1091.5" x2="1091.5" y1="68.1358" y2="491.4321"/><line style="stroke:#383838;stroke-width:1.0;" x1="1101.5" x2="1101.5" y1="68.1358" y2="491.4321"/><line style="stroke:#383838;stroke-width:1.0;" x1="1091.5" x2="1101.5" y1="68.1358" y2="68.1358"/><rect fill="#FFFFFF" height="176.2361" style="stroke:#FFFFFF;stroke-width:1.0;" width="10" x="1091.5" y="519.4321"/><line style="stroke:#383838;stroke-width:1.0;" x1="1091.5" x2="1091.5" y1="519.4321" y2="695.6682"/><line style="stroke:#383838;stroke-width:1.0;" x1="1101.5" x2="1101.5" y1="519.4321" y2="695.6682"/><rect fill="#FFFFFF" height="193.9421" style="stroke:#FFFFFF;stroke-width:1.0;" width="10" x="1091.5" y="723.6682"/><line style="stroke:#383838;stroke-width:1.0;" x1="1091.5" x2="1091.5" y1="723.6682" y2="917.6103"/><line style="stroke:#383838;stroke-width:1.0;" x1="1101.5" x2="1101.5" y1="723.6682" y2="917.6103"/><rect fill="#FFFFFF" height="194.9421" style="stroke:#FFFFFF;stroke-width:1.0;" width="10" x="1091.5" y="945.6103"/><line style="stroke:#383838;stroke-width:1.0;" x1="1091.5" x2="1091.5" y1="945.6103" y2="1140.5524"/><line style="stroke:#383838;stroke-width:1.0;" x1="1101.5" x2="1101.5" y1="945.6103" y2="1140.5524"/><line style="stroke:#383838;stroke-width:1.0;" x1="1091.5" x2="1101.5" y1="1140.5524" y2="1140.5524"/><rect fill="#EEEEEE" height="3" style="stroke:#EEEEEE;stroke-width:1.0;" width="1291.5" x="0" y="89.9888"/><line style="stroke:#000000;stroke-width:1.0;" x1="0" x2="1291.5" y1="89.9888" y2="89.9888"/><line style="stroke:#000000;stroke-width:1.0;" x1="0" x2="1291.5" y1="92.9888" y2="92.9888"/><rect fill="#EEEEEE" height="25.706" style="stroke:#000000;stroke-width:2.0;" width="102" x="594.75" y="78.1358"/><text fill="#000000" font-family="sans-serif" font-size="13" font-weight="bold" lengthAdjust="spacing" textLength="85" x="600.75" y="96.0328">Initialization</text><polygon fill="#383838" points="482.5,133.5479,492.5,137.5479,482.5,141.5479" style="stroke:#383838;stroke-width:1.0;"/><line style="stroke:#383838;stroke-width:1.0;" x1="47" x2="488.5" y1="137.5479" y2="137.5479"/><text fill="#000000" font-family="sans-serif" font-size="13" font-weight="bold" lengthAdjust="spacing" textLength="18" x="202.75" y="131.7389">1.1</text><text fill="#000000" font-family="sans-serif" font-size="13" lengthAdjust="spacing" textLength="114" x="224.75" y="131.7389">subscribe to X data</text><polygon fill="#383838" points="482.5,182.9599,492.5,186.9599,482.5,190.9599" style="stroke:#383838;stroke-width:1.0;"/><line style="stroke:#383838;stroke-width:1.0;" x1="167.5" x2="488.5" y1="186.9599" y2="186.9599"/><text fill="#000000" font-family="sans-serif" font-size="13" font-weight="bold" lengthAdjust="spacing" textLength="18" x="234" y="172.2979">1.2</text><text fill="#000000" font-family="sans-serif" font-size="13" lengthAdjust="spacing" textLength="101" x="291.5" y="163.4449">subscribe to new</text><text fill="#000000" font-family="sans-serif" font-size="13" lengthAdjust="spacing" textLength="172" x="256" y="181.1509">gps sensor data with records</text><polygon fill="#383838" points="482.5,232.3719,492.5,236.3719,482.5,240.3719" style="stroke:#383838;stroke-width:1.0;"/><line style="stroke:#383838;stroke-width:1.0;" x1="322.5" x2="488.5" y1="236.3719" y2="236.3719"/><text fill="#000000" font-family="sans-serif" font-size="13" font-weight="bold" lengthAdjust="spacing" textLength="18" x="347" y="221.7099">1.3</text><text fill="#000000" font-family="sans-serif" font-size="13" lengthAdjust="spacing" textLength="101" x="369" y="212.8569">subscribe to new</text><text fill="#000000" font-family="sans-serif" font-size="13" lengthAdjust="spacing" textLength="81" x="379" y="230.5629">X sensor data</text><polygon fill="#383838" points="482.5,281.784,492.5,285.784,482.5,289.784" style="stroke:#383838;stroke-width:1.0;"/><line style="stroke:#383838;stroke-width:1.0;" x1="322.5" x2="488.5" y1="285.784" y2="285.784"/><text fill="#000000" font-family="sans-serif" font-size="13" font-weight="bold" lengthAdjust="spacing" textLength="18" x="334.5" y="271.122">1.4</text><text fill="#000000" font-family="sans-serif" font-size="13" lengthAdjust="spacing" textLength="126" x="356.5" y="262.2689">subscribe to changes</text><text fill="#000000" font-family="sans-serif" font-size="13" lengthAdjust="spacing" textLength="111" x="365.5" y="279.975">in transformations</text><polygon fill="#383838" points="515.5,331.196,505.5,335.196,515.5,339.196" style="stroke:#383838;stroke-width:1.0;"/><line style="stroke:#383838;stroke-width:1.0;" x1="509.5" x2="779.5" y1="335.196" y2="335.196"/><text fill="#000000" font-family="sans-serif" font-size="13" font-weight="bold" lengthAdjust="spacing" textLength="18" x="516.5" y="320.534">1.5</text><text fill="#000000" font-family="sans-serif" font-size="13" lengthAdjust="spacing" textLength="101" x="603" y="311.681">subscribe to new</text><text fill="#000000" font-family="sans-serif" font-size="13" lengthAdjust="spacing" textLength="230" x="538.5" y="329.387">validated gps sensor data with records</text><polygon fill="#383838" points="515.5,380.608,505.5,384.608,515.5,388.608" style="stroke:#383838;stroke-width:1.0;"/><line style="stroke:#383838;stroke-width:1.0;" x1="509.5" x2="942" y1="384.608" y2="384.608"/><text fill="#000000" font-family="sans-serif" font-size="13" font-weight="bold" lengthAdjust="spacing" textLength="18" x="636.25" y="369.946">1.6</text><text fill="#000000" font-family="sans-serif" font-size="13" lengthAdjust="spacing" textLength="101" x="684.25" y="361.093">subscribe to new</text><text fill="#000000" font-family="sans-serif" font-size="13" lengthAdjust="spacing" textLength="153" x="658.25" y="378.799">gps sensor data validated</text><polygon fill="#383838" points="515.5,430.0201,505.5,434.0201,515.5,438.0201" style="stroke:#383838;stroke-width:1.0;"/><line style="stroke:#383838;stroke-width:1.0;" x1="509.5" x2="942" y1="434.0201" y2="434.0201"/><text fill="#000000" font-family="sans-serif" font-size="13" font-weight="bold" lengthAdjust="spacing" textLength="18" x="649.75" y="419.3581">1.7</text><text fill="#000000" font-family="sans-serif" font-size="13" lengthAdjust="spacing" textLength="126" x="671.75" y="410.505">subscribe to changes</text><text fill="#000000" font-family="sans-serif" font-size="13" lengthAdjust="spacing" textLength="100" x="686.25" y="428.2111">in device records</text><polygon fill="#383838" points="515.5,479.4321,505.5,483.4321,515.5,487.4321" style="stroke:#383838;stroke-width:1.0;"/><line style="stroke:#383838;stroke-width:1.0;" x1="509.5" x2="1226" y1="483.4321" y2="483.4321"/><text fill="#000000" font-family="sans-serif" font-size="13" font-weight="bold" lengthAdjust="spacing" textLength="18" x="787.75" y="468.7701">1.8</text><text fill="#000000" font-family="sans-serif" font-size="13" lengthAdjust="spacing" textLength="101" x="826.25" y="459.9171">subscribe to new</text><text fill="#000000" font-family="sans-serif" font-size="13" lengthAdjust="spacing" textLength="134" x="809.75" y="477.6231">processed sensor data</text><rect fill="#EEEEEE" height="3" style="stroke:#EEEEEE;stroke-width:1.0;" width="1291.5" x="0" y="541.2851"/><line style="stroke:#000000;stroke-width:1.0;" x1="0" x2="1291.5" y1="541.2851" y2="541.2851"/><line style="stroke:#000000;stroke-width:1.0;" x1="0" x2="1291.5" y1="544.2851" y2="544.2851"/><rect fill="#EEEEEE" height="25.706" style="stroke:#000000;stroke-width:2.0;" width="137" x="577.25" y="529.4321"/><text fill="#000000" font-family="sans-serif" font-size="13" font-weight="bold" lengthAdjust="spacing" textLength="120" x="583.25" y="547.3291">UC01 Initialization</text><polygon fill="#383838" points="1112.5,584.8441,1102.5,588.8441,1112.5,592.8441" style="stroke:#383838;stroke-width:1.0;"/><line style="stroke:#383838;stroke-width:1.0;" x1="1106.5" x2="1290.5" y1="588.8441" y2="588.8441"/><text fill="#000000" font-family="sans-serif" font-size="13" font-weight="bold" lengthAdjust="spacing" textLength="18" x="1128.5" y="583.0351">2.1</text><text fill="#000000" font-family="sans-serif" font-size="13" lengthAdjust="spacing" textLength="114" x="1150.5" y="583.0351">user acesses the UI</text><polygon fill="#383838" points="801.5,634.2562,791.5,638.2562,801.5,642.2562" style="stroke:#383838;stroke-width:1.0;"/><line style="stroke:#383838;stroke-width:1.0;" x1="795.5" x2="1090.5" y1="638.2562" y2="638.2562"/><text fill="#000000" font-family="sans-serif" font-size="13" font-weight="bold" lengthAdjust="spacing" textLength="18" x="877.5" y="623.5942">2.2</text><text fill="#000000" font-family="sans-serif" font-size="13" lengthAdjust="spacing" textLength="105" x="899.5" y="614.7411">fetch last location</text><text fill="#000000" font-family="sans-serif" font-size="13" lengthAdjust="spacing" textLength="86" x="910.5" y="632.4472">of each sensor</text><polygon fill="#383838" points="801.5,683.6682,791.5,687.6682,801.5,691.6682" style="stroke:#383838;stroke-width:1.0;"/><line style="stroke:#383838;stroke-width:1.0;" x1="795.5" x2="1090.5" y1="687.6682" y2="687.6682"/><text fill="#000000" font-family="sans-serif" font-size="13" font-weight="bold" lengthAdjust="spacing" textLength="18" x="879.5" y="673.0062">2.3</text><text fill="#000000" font-family="sans-serif" font-size="13" lengthAdjust="spacing" textLength="101" x="901.5" y="664.1532">subscribe to new</text><text fill="#000000" font-family="sans-serif" font-size="13" lengthAdjust="spacing" textLength="95" x="904.5" y="681.8592">gps sensor data</text><rect fill="#EEEEEE" height="3" style="stroke:#EEEEEE;stroke-width:1.0;" width="1291.5" x="0" y="745.5212"/><line style="stroke:#000000;stroke-width:1.0;" x1="0" x2="1291.5" y1="745.5212" y2="745.5212"/><line style="stroke:#000000;stroke-width:1.0;" x1="0" x2="1291.5" y1="748.5212" y2="748.5212"/><rect fill="#EEEEEE" height="25.706" style="stroke:#000000;stroke-width:2.0;" width="137" x="577.25" y="733.6682"/><text fill="#000000" font-family="sans-serif" font-size="13" font-weight="bold" lengthAdjust="spacing" textLength="120" x="583.25" y="751.5652">UC02 Initialization</text><polygon fill="#383838" points="1112.5,806.7862,1102.5,810.7862,1112.5,814.7862" style="stroke:#383838;stroke-width:1.0;"/><line style="stroke:#383838;stroke-width:1.0;" x1="1106.5" x2="1290.5" y1="810.7862" y2="810.7862"/><text fill="#000000" font-family="sans-serif" font-size="13" font-weight="bold" lengthAdjust="spacing" textLength="18" x="1113.5" y="796.1242">3.1</text><text fill="#000000" font-family="sans-serif" font-size="13" lengthAdjust="spacing" textLength="104" x="1155.5" y="787.2712">user wants to see</text><text fill="#000000" font-family="sans-serif" font-size="13" lengthAdjust="spacing" textLength="144" x="1135.5" y="804.9772">array of gps sensor data</text><polygon fill="#383838" points="801.5,856.1983,791.5,860.1983,801.5,864.1983" style="stroke:#383838;stroke-width:1.0;"/><line style="stroke:#383838;stroke-width:1.0;" x1="795.5" x2="1090.5" y1="860.1983" y2="860.1983"/><text fill="#000000" font-family="sans-serif" font-size="13" font-weight="bold" lengthAdjust="spacing" textLength="18" x="863.5" y="845.5363">3.2</text><text fill="#000000" font-family="sans-serif" font-size="13" lengthAdjust="spacing" textLength="133" x="885.5" y="836.6833">unsubscribe from new</text><text fill="#000000" font-family="sans-serif" font-size="13" lengthAdjust="spacing" textLength="95" x="904.5" y="854.3893">gps sensor data</text><polygon fill="#383838" points="801.5,905.6103,791.5,909.6103,801.5,913.6103" style="stroke:#383838;stroke-width:1.0;"/><line style="stroke:#383838;stroke-width:1.0;" x1="795.5" x2="1090.5" y1="909.6103" y2="909.6103"/><text fill="#000000" font-family="sans-serif" font-size="13" font-weight="bold" lengthAdjust="spacing" textLength="18" x="855" y="894.9483">3.3</text><text fill="#000000" font-family="sans-serif" font-size="13" lengthAdjust="spacing" textLength="150" x="877" y="886.0953">subscribe to array of new</text><text fill="#000000" font-family="sans-serif" font-size="13" lengthAdjust="spacing" textLength="95" x="904.5" y="903.8013">gps sensor data</text><rect fill="#EEEEEE" height="3" style="stroke:#EEEEEE;stroke-width:1.0;" width="1291.5" x="0" y="967.4633"/><line style="stroke:#000000;stroke-width:1.0;" x1="0" x2="1291.5" y1="967.4633" y2="967.4633"/><line style="stroke:#000000;stroke-width:1.0;" x1="0" x2="1291.5" y1="970.4633" y2="970.4633"/><rect fill="#EEEEEE" height="25.706" style="stroke:#000000;stroke-width:2.0;" width="137" x="577.25" y="955.6103"/><text fill="#000000" font-family="sans-serif" font-size="13" font-weight="bold" lengthAdjust="spacing" textLength="120" x="583.25" y="973.5073">UC01 Initialization</text><polygon fill="#383838" points="1112.5,1028.7284,1102.5,1032.7284,1112.5,1036.7284" style="stroke:#383838;stroke-width:1.0;"/><line style="stroke:#383838;stroke-width:1.0;" x1="1106.5" x2="1290.5" y1="1032.7284" y2="1032.7284"/><text fill="#000000" font-family="sans-serif" font-size="13" font-weight="bold" lengthAdjust="spacing" textLength="18" x="1130" y="1018.0664">4.1</text><text fill="#000000" font-family="sans-serif" font-size="13" lengthAdjust="spacing" textLength="104" x="1155.5" y="1009.2133">user wants to see</text><text fill="#000000" font-family="sans-serif" font-size="13" lengthAdjust="spacing" textLength="111" x="1152" y="1026.9194">all gps sensor data</text><polygon fill="#383838" points="801.5,1078.1404,791.5,1082.1404,801.5,1086.1404" style="stroke:#383838;stroke-width:1.0;"/><line style="stroke:#383838;stroke-width:1.0;" x1="795.5" x2="1090.5" y1="1082.1404" y2="1082.1404"/><text fill="#000000" font-family="sans-serif" font-size="13" font-weight="bold" lengthAdjust="spacing" textLength="18" x="839" y="1067.4784">4.2</text><text fill="#000000" font-family="sans-serif" font-size="13" lengthAdjust="spacing" textLength="182" x="861" y="1058.6254">unsubscribe from array of new</text><text fill="#000000" font-family="sans-serif" font-size="13" lengthAdjust="spacing" textLength="95" x="904.5" y="1076.3314">gps sensor data</text><polygon fill="#383838" points="801.5,1127.5524,791.5,1131.5524,801.5,1135.5524" style="stroke:#383838;stroke-width:1.0;"/><line style="stroke:#383838;stroke-width:1.0;" x1="795.5" x2="1090.5" y1="1131.5524" y2="1131.5524"/><text fill="#000000" font-family="sans-serif" font-size="13" font-weight="bold" lengthAdjust="spacing" textLength="18" x="879.5" y="1116.8904">4.3</text><text fill="#000000" font-family="sans-serif" font-size="13" lengthAdjust="spacing" textLength="101" x="901.5" y="1108.0374">subscribe to new</text><text fill="#000000" font-family="sans-serif" font-size="13" lengthAdjust="spacing" textLength="95" x="904.5" y="1125.7434">gps sensor data</text><!--MD5=[8b211b776c6755e175e48af3565357df]
@startuml process-view-level2-uc00

skinparam Monochrome true
skinparam sequenceMessageAlign center
skinparam style strictuml
hide unlinked

autonumber 1.1

participant "Data Gateway" as DG
participant "Data Store" as DS
participant "Chrono Data Store" as CDS
participant "Data Processor Slave\nBackend" as SDP
participant "Message Broker" as MB
participant "Fleet Management\nBackend" as LTB
participant "Device Records Slave\nBackend" as DRSB
participant "Location Tracking\nFrontend" as LTF
participant "Data Validator\nBackend" as DVB

activate MB
activate LTF
activate LTB

== Initialization ==
DS -> MB :   subscribe to X data
CDS -> MB :  subscribe to new\ngps sensor data with records
SDP -> MB :  subscribe to new\nX sensor data
SDP -> MB :  subscribe to changes\n in transformations
LTB -> MB :  subscribe to new\nvalidated gps sensor data with records
DRSB -> MB : subscribe to new\ngps sensor data validated
DRSB -> MB : subscribe to changes\n in device records
DVB -> MB :  subscribe to new\nprocessed sensor data
...
== UC01 Initialization ==
autonumber inc A
LTF <- : user acesses the UI
LTF -> LTB : fetch last location\n of each sensor
LTF -> LTB : subscribe to new\ngps sensor data
...
== UC02 Initialization ==
autonumber inc A
LTF <- : user wants to see\narray of gps sensor data
LTF -> LTB : unsubscribe from new\ngps sensor data
LTF -> LTB : subscribe to array of new\ngps sensor data

...
== UC01 Initialization ==
autonumber inc A
LTF <- : user wants to see\nall gps sensor data
LTF -> LTB : unsubscribe from array of new\ngps sensor data
LTF -> LTB : subscribe to new\ngps sensor data

@enduml

PlantUML version 1.2021.16(Wed Dec 08 17:25:22 WET 2021)
(GPL source distribution)
Java Runtime: OpenJDK Runtime Environment
JVM: OpenJDK 64-Bit Server VM
Default Encoding: UTF-8
Language: en
Country: GB
--></g></svg>