<?xml version="1.0" encoding="UTF-8" standalone="no"?><svg xmlns="http://www.w3.org/2000/svg" xmlns:xlink="http://www.w3.org/1999/xlink" contentScriptType="application/ecmascript" contentStyleType="text/css" height="763px" preserveAspectRatio="none" style="width:909px;height:763px;background:#FFFFFF;" version="1.1" viewBox="0 0 909 763" width="909px" zoomAndPan="magnify"><defs/><g><rect fill="#FFFFFF" height="131.6641" style="stroke:#FFFFFF;stroke-width:1.0;" width="10" x="267.5" y="62.5938"/><line style="stroke:#383838;stroke-width:1.0;" x1="267.5" x2="267.5" y1="62.5938" y2="194.2578"/><line style="stroke:#383838;stroke-width:1.0;" x1="277.5" x2="277.5" y1="62.5938" y2="194.2578"/><line style="stroke:#383838;stroke-width:1.0;" x1="267.5" x2="277.5" y1="62.5938" y2="62.5938"/><rect fill="#FFFFFF" height="116.5313" style="stroke:#FFFFFF;stroke-width:1.0;" width="10" x="267.5" y="222.2578"/><line style="stroke:#383838;stroke-width:1.0;" x1="267.5" x2="267.5" y1="222.2578" y2="338.7891"/><line style="stroke:#383838;stroke-width:1.0;" x1="277.5" x2="277.5" y1="222.2578" y2="338.7891"/><rect fill="#FFFFFF" height="175.9297" style="stroke:#FFFFFF;stroke-width:1.0;" width="10" x="267.5" y="366.7891"/><line style="stroke:#383838;stroke-width:1.0;" x1="267.5" x2="267.5" y1="366.7891" y2="542.7188"/><line style="stroke:#383838;stroke-width:1.0;" x1="277.5" x2="277.5" y1="366.7891" y2="542.7188"/><rect fill="#FFFFFF" height="176.9297" style="stroke:#FFFFFF;stroke-width:1.0;" width="10" x="267.5" y="570.7188"/><line style="stroke:#383838;stroke-width:1.0;" x1="267.5" x2="267.5" y1="570.7188" y2="747.6484"/><line style="stroke:#383838;stroke-width:1.0;" x1="277.5" x2="277.5" y1="570.7188" y2="747.6484"/><line style="stroke:#383838;stroke-width:1.0;" x1="267.5" x2="277.5" y1="747.6484" y2="747.6484"/><rect fill="#FFFFFF" height="131.6641" style="stroke:#FFFFFF;stroke-width:1.0;" width="10" x="435.5" y="62.5938"/><line style="stroke:#383838;stroke-width:1.0;" x1="435.5" x2="435.5" y1="62.5938" y2="194.2578"/><line style="stroke:#383838;stroke-width:1.0;" x1="445.5" x2="445.5" y1="62.5938" y2="194.2578"/><line style="stroke:#383838;stroke-width:1.0;" x1="435.5" x2="445.5" y1="62.5938" y2="62.5938"/><rect fill="#FFFFFF" height="116.5313" style="stroke:#FFFFFF;stroke-width:1.0;" width="10" x="435.5" y="222.2578"/><line style="stroke:#383838;stroke-width:1.0;" x1="435.5" x2="435.5" y1="222.2578" y2="338.7891"/><line style="stroke:#383838;stroke-width:1.0;" x1="445.5" x2="445.5" y1="222.2578" y2="338.7891"/><rect fill="#FFFFFF" height="175.9297" style="stroke:#FFFFFF;stroke-width:1.0;" width="10" x="435.5" y="366.7891"/><line style="stroke:#383838;stroke-width:1.0;" x1="435.5" x2="435.5" y1="366.7891" y2="542.7188"/><line style="stroke:#383838;stroke-width:1.0;" x1="445.5" x2="445.5" y1="366.7891" y2="542.7188"/><rect fill="#FFFFFF" height="176.9297" style="stroke:#FFFFFF;stroke-width:1.0;" width="10" x="435.5" y="570.7188"/><line style="stroke:#383838;stroke-width:1.0;" x1="435.5" x2="435.5" y1="570.7188" y2="747.6484"/><line style="stroke:#383838;stroke-width:1.0;" x1="445.5" x2="445.5" y1="570.7188" y2="747.6484"/><line style="stroke:#383838;stroke-width:1.0;" x1="435.5" x2="445.5" y1="747.6484" y2="747.6484"/><rect fill="#FFFFFF" height="131.6641" style="stroke:#FFFFFF;stroke-width:1.0;" width="10" x="687.5" y="62.5938"/><line style="stroke:#383838;stroke-width:1.0;" x1="687.5" x2="687.5" y1="62.5938" y2="194.2578"/><line style="stroke:#383838;stroke-width:1.0;" x1="697.5" x2="697.5" y1="62.5938" y2="194.2578"/><line style="stroke:#383838;stroke-width:1.0;" x1="687.5" x2="697.5" y1="62.5938" y2="62.5938"/><rect fill="#FFFFFF" height="116.5313" style="stroke:#FFFFFF;stroke-width:1.0;" width="10" x="687.5" y="222.2578"/><line style="stroke:#383838;stroke-width:1.0;" x1="687.5" x2="687.5" y1="222.2578" y2="338.7891"/><line style="stroke:#383838;stroke-width:1.0;" x1="697.5" x2="697.5" y1="222.2578" y2="338.7891"/><rect fill="#FFFFFF" height="175.9297" style="stroke:#FFFFFF;stroke-width:1.0;" width="10" x="687.5" y="366.7891"/><line style="stroke:#383838;stroke-width:1.0;" x1="687.5" x2="687.5" y1="366.7891" y2="542.7188"/><line style="stroke:#383838;stroke-width:1.0;" x1="697.5" x2="697.5" y1="366.7891" y2="542.7188"/><rect fill="#FFFFFF" height="176.9297" style="stroke:#FFFFFF;stroke-width:1.0;" width="10" x="687.5" y="570.7188"/><line style="stroke:#383838;stroke-width:1.0;" x1="687.5" x2="687.5" y1="570.7188" y2="747.6484"/><line style="stroke:#383838;stroke-width:1.0;" x1="697.5" x2="697.5" y1="570.7188" y2="747.6484"/><line style="stroke:#383838;stroke-width:1.0;" x1="687.5" x2="697.5" y1="747.6484" y2="747.6484"/><line style="stroke:#383838;stroke-width:1.0;" x1="73" x2="73" y1="52.5938" y2="194.2578"/><line style="stroke:#383838;stroke-width:1.0;stroke-dasharray:1.0,4.0;" x1="73" x2="73" y1="194.2578" y2="222.2578"/><line style="stroke:#383838;stroke-width:1.0;" x1="73" x2="73" y1="222.2578" y2="338.7891"/><line style="stroke:#383838;stroke-width:1.0;stroke-dasharray:1.0,4.0;" x1="73" x2="73" y1="338.7891" y2="366.7891"/><line style="stroke:#383838;stroke-width:1.0;" x1="73" x2="73" y1="366.7891" y2="542.7188"/><line style="stroke:#383838;stroke-width:1.0;stroke-dasharray:1.0,4.0;" x1="73" x2="73" y1="542.7188" y2="570.7188"/><line style="stroke:#383838;stroke-width:1.0;" x1="73" x2="73" y1="570.7188" y2="756.6484"/><line style="stroke:#383838;stroke-width:1.0;" x1="272" x2="272" y1="52.5938" y2="194.2578"/><line style="stroke:#383838;stroke-width:1.0;stroke-dasharray:1.0,4.0;" x1="272" x2="272" y1="194.2578" y2="222.2578"/><line style="stroke:#383838;stroke-width:1.0;" x1="272" x2="272" y1="222.2578" y2="338.7891"/><line style="stroke:#383838;stroke-width:1.0;stroke-dasharray:1.0,4.0;" x1="272" x2="272" y1="338.7891" y2="366.7891"/><line style="stroke:#383838;stroke-width:1.0;" x1="272" x2="272" y1="366.7891" y2="542.7188"/><line style="stroke:#383838;stroke-width:1.0;stroke-dasharray:1.0,4.0;" x1="272" x2="272" y1="542.7188" y2="570.7188"/><line style="stroke:#383838;stroke-width:1.0;" x1="272" x2="272" y1="570.7188" y2="756.6484"/><line style="stroke:#383838;stroke-width:1.0;" x1="440" x2="440" y1="52.5938" y2="194.2578"/><line style="stroke:#383838;stroke-width:1.0;stroke-dasharray:1.0,4.0;" x1="440" x2="440" y1="194.2578" y2="222.2578"/><line style="stroke:#383838;stroke-width:1.0;" x1="440" x2="440" y1="222.2578" y2="338.7891"/><line style="stroke:#383838;stroke-width:1.0;stroke-dasharray:1.0,4.0;" x1="440" x2="440" y1="338.7891" y2="366.7891"/><line style="stroke:#383838;stroke-width:1.0;" x1="440" x2="440" y1="366.7891" y2="542.7188"/><line style="stroke:#383838;stroke-width:1.0;stroke-dasharray:1.0,4.0;" x1="440" x2="440" y1="542.7188" y2="570.7188"/><line style="stroke:#383838;stroke-width:1.0;" x1="440" x2="440" y1="570.7188" y2="756.6484"/><line style="stroke:#383838;stroke-width:1.0;" x1="692" x2="692" y1="52.5938" y2="194.2578"/><line style="stroke:#383838;stroke-width:1.0;stroke-dasharray:1.0,4.0;" x1="692" x2="692" y1="194.2578" y2="222.2578"/><line style="stroke:#383838;stroke-width:1.0;" x1="692" x2="692" y1="222.2578" y2="338.7891"/><line style="stroke:#383838;stroke-width:1.0;stroke-dasharray:1.0,4.0;" x1="692" x2="692" y1="338.7891" y2="366.7891"/><line style="stroke:#383838;stroke-width:1.0;" x1="692" x2="692" y1="366.7891" y2="542.7188"/><line style="stroke:#383838;stroke-width:1.0;stroke-dasharray:1.0,4.0;" x1="692" x2="692" y1="542.7188" y2="570.7188"/><line style="stroke:#383838;stroke-width:1.0;" x1="692" x2="692" y1="570.7188" y2="756.6484"/><rect fill="#F8F8F8" height="46.5938" style="stroke:#383838;stroke-width:1.5;" width="137" x="5" y="5"/><text fill="#000000" font-family="sans-serif" font-size="14" lengthAdjust="spacing" textLength="82" x="32.5" y="24.9951">LGT 92 GPS</text><text fill="#000000" font-family="sans-serif" font-size="14" lengthAdjust="spacing" textLength="123" x="12" y="41.292">Sensor Processor</text><rect fill="#F8F8F8" height="30.2969" style="stroke:#383838;stroke-width:1.5;" width="127" x="209" y="21.2969"/><text fill="#000000" font-family="sans-serif" font-size="14" lengthAdjust="spacing" textLength="113" x="216" y="41.292">Message Broker</text><rect fill="#F8F8F8" height="46.5938" style="stroke:#383838;stroke-width:1.5;" width="135" x="373" y="5"/><text fill="#000000" font-family="sans-serif" font-size="14" lengthAdjust="spacing" textLength="121" x="380" y="24.9951">Location Tracking</text><text fill="#000000" font-family="sans-serif" font-size="14" lengthAdjust="spacing" textLength="61" x="410" y="41.292">Backend</text><rect fill="#F8F8F8" height="46.5938" style="stroke:#383838;stroke-width:1.5;" width="135" x="625" y="5"/><text fill="#000000" font-family="sans-serif" font-size="14" lengthAdjust="spacing" textLength="121" x="632" y="24.9951">Location Tracking</text><text fill="#000000" font-family="sans-serif" font-size="14" lengthAdjust="spacing" textLength="63" x="661" y="41.292">Frontend</text><rect fill="#FFFFFF" height="131.6641" style="stroke:#FFFFFF;stroke-width:1.0;" width="10" x="267.5" y="62.5938"/><line style="stroke:#383838;stroke-width:1.0;" x1="267.5" x2="267.5" y1="62.5938" y2="194.2578"/><line style="stroke:#383838;stroke-width:1.0;" x1="277.5" x2="277.5" y1="62.5938" y2="194.2578"/><line style="stroke:#383838;stroke-width:1.0;" x1="267.5" x2="277.5" y1="62.5938" y2="62.5938"/><rect fill="#FFFFFF" height="116.5313" style="stroke:#FFFFFF;stroke-width:1.0;" width="10" x="267.5" y="222.2578"/><line style="stroke:#383838;stroke-width:1.0;" x1="267.5" x2="267.5" y1="222.2578" y2="338.7891"/><line style="stroke:#383838;stroke-width:1.0;" x1="277.5" x2="277.5" y1="222.2578" y2="338.7891"/><rect fill="#FFFFFF" height="175.9297" style="stroke:#FFFFFF;stroke-width:1.0;" width="10" x="267.5" y="366.7891"/><line style="stroke:#383838;stroke-width:1.0;" x1="267.5" x2="267.5" y1="366.7891" y2="542.7188"/><line style="stroke:#383838;stroke-width:1.0;" x1="277.5" x2="277.5" y1="366.7891" y2="542.7188"/><rect fill="#FFFFFF" height="176.9297" style="stroke:#FFFFFF;stroke-width:1.0;" width="10" x="267.5" y="570.7188"/><line style="stroke:#383838;stroke-width:1.0;" x1="267.5" x2="267.5" y1="570.7188" y2="747.6484"/><line style="stroke:#383838;stroke-width:1.0;" x1="277.5" x2="277.5" y1="570.7188" y2="747.6484"/><line style="stroke:#383838;stroke-width:1.0;" x1="267.5" x2="277.5" y1="747.6484" y2="747.6484"/><rect fill="#FFFFFF" height="131.6641" style="stroke:#FFFFFF;stroke-width:1.0;" width="10" x="435.5" y="62.5938"/><line style="stroke:#383838;stroke-width:1.0;" x1="435.5" x2="435.5" y1="62.5938" y2="194.2578"/><line style="stroke:#383838;stroke-width:1.0;" x1="445.5" x2="445.5" y1="62.5938" y2="194.2578"/><line style="stroke:#383838;stroke-width:1.0;" x1="435.5" x2="445.5" y1="62.5938" y2="62.5938"/><rect fill="#FFFFFF" height="116.5313" style="stroke:#FFFFFF;stroke-width:1.0;" width="10" x="435.5" y="222.2578"/><line style="stroke:#383838;stroke-width:1.0;" x1="435.5" x2="435.5" y1="222.2578" y2="338.7891"/><line style="stroke:#383838;stroke-width:1.0;" x1="445.5" x2="445.5" y1="222.2578" y2="338.7891"/><rect fill="#FFFFFF" height="175.9297" style="stroke:#FFFFFF;stroke-width:1.0;" width="10" x="435.5" y="366.7891"/><line style="stroke:#383838;stroke-width:1.0;" x1="435.5" x2="435.5" y1="366.7891" y2="542.7188"/><line style="stroke:#383838;stroke-width:1.0;" x1="445.5" x2="445.5" y1="366.7891" y2="542.7188"/><rect fill="#FFFFFF" height="176.9297" style="stroke:#FFFFFF;stroke-width:1.0;" width="10" x="435.5" y="570.7188"/><line style="stroke:#383838;stroke-width:1.0;" x1="435.5" x2="435.5" y1="570.7188" y2="747.6484"/><line style="stroke:#383838;stroke-width:1.0;" x1="445.5" x2="445.5" y1="570.7188" y2="747.6484"/><line style="stroke:#383838;stroke-width:1.0;" x1="435.5" x2="445.5" y1="747.6484" y2="747.6484"/><rect fill="#FFFFFF" height="131.6641" style="stroke:#FFFFFF;stroke-width:1.0;" width="10" x="687.5" y="62.5938"/><line style="stroke:#383838;stroke-width:1.0;" x1="687.5" x2="687.5" y1="62.5938" y2="194.2578"/><line style="stroke:#383838;stroke-width:1.0;" x1="697.5" x2="697.5" y1="62.5938" y2="194.2578"/><line style="stroke:#383838;stroke-width:1.0;" x1="687.5" x2="697.5" y1="62.5938" y2="62.5938"/><rect fill="#FFFFFF" height="116.5313" style="stroke:#FFFFFF;stroke-width:1.0;" width="10" x="687.5" y="222.2578"/><line style="stroke:#383838;stroke-width:1.0;" x1="687.5" x2="687.5" y1="222.2578" y2="338.7891"/><line style="stroke:#383838;stroke-width:1.0;" x1="697.5" x2="697.5" y1="222.2578" y2="338.7891"/><rect fill="#FFFFFF" height="175.9297" style="stroke:#FFFFFF;stroke-width:1.0;" width="10" x="687.5" y="366.7891"/><line style="stroke:#383838;stroke-width:1.0;" x1="687.5" x2="687.5" y1="366.7891" y2="542.7188"/><line style="stroke:#383838;stroke-width:1.0;" x1="697.5" x2="697.5" y1="366.7891" y2="542.7188"/><rect fill="#FFFFFF" height="176.9297" style="stroke:#FFFFFF;stroke-width:1.0;" width="10" x="687.5" y="570.7188"/><line style="stroke:#383838;stroke-width:1.0;" x1="687.5" x2="687.5" y1="570.7188" y2="747.6484"/><line style="stroke:#383838;stroke-width:1.0;" x1="697.5" x2="697.5" y1="570.7188" y2="747.6484"/><line style="stroke:#383838;stroke-width:1.0;" x1="687.5" x2="697.5" y1="747.6484" y2="747.6484"/><rect fill="#EEEEEE" height="3" style="stroke:#EEEEEE;stroke-width:1.0;" width="902.5" x="0" y="83.1602"/><line style="stroke:#000000;stroke-width:1.0;" x1="0" x2="902.5" y1="83.1602" y2="83.1602"/><line style="stroke:#000000;stroke-width:1.0;" x1="0" x2="902.5" y1="86.1602" y2="86.1602"/><rect fill="#EEEEEE" height="23.1328" style="stroke:#000000;stroke-width:2.0;" width="108" x="397.25" y="72.5938"/><text fill="#000000" font-family="sans-serif" font-size="13" font-weight="bold" lengthAdjust="spacing" textLength="89" x="403.25" y="88.6606">Initialization</text><polygon fill="#383838" points="255.5,137.9922,265.5,141.9922,255.5,145.9922" style="stroke:#383838;stroke-width:1.0;"/><line style="stroke:#383838;stroke-width:1.0;" x1="73.5" x2="261.5" y1="141.9922" y2="141.9922"/><text fill="#000000" font-family="sans-serif" font-size="13" font-weight="bold" lengthAdjust="spacing" textLength="23" x="85.5" y="129.3599">1.1</text><text fill="#000000" font-family="sans-serif" font-size="13" lengthAdjust="spacing" textLength="107" x="130.5" y="121.7935">subscribe to new</text><text fill="#000000" font-family="sans-serif" font-size="13" lengthAdjust="spacing" textLength="143" x="112.5" y="136.9263">lgt 92 gps sensor data</text><polygon fill="#383838" points="288.5,182.2578,278.5,186.2578,288.5,190.2578" style="stroke:#383838;stroke-width:1.0;"/><line style="stroke:#383838;stroke-width:1.0;" x1="282.5" x2="434.5" y1="186.2578" y2="186.2578"/><text fill="#000000" font-family="sans-serif" font-size="13" font-weight="bold" lengthAdjust="spacing" textLength="23" x="289.5" y="173.6255">1.2</text><text fill="#000000" font-family="sans-serif" font-size="13" lengthAdjust="spacing" textLength="107" x="316.5" y="166.0591">subscribe to new</text><text fill="#000000" font-family="sans-serif" font-size="13" lengthAdjust="spacing" textLength="103" x="318.5" y="181.1919">gps sensor data</text><rect fill="#EEEEEE" height="3" style="stroke:#EEEEEE;stroke-width:1.0;" width="902.5" x="0" y="242.8242"/><line style="stroke:#000000;stroke-width:1.0;" x1="0" x2="902.5" y1="242.8242" y2="242.8242"/><line style="stroke:#000000;stroke-width:1.0;" x1="0" x2="902.5" y1="245.8242" y2="245.8242"/><rect fill="#EEEEEE" height="23.1328" style="stroke:#000000;stroke-width:2.0;" width="151" x="375.75" y="232.2578"/><text fill="#000000" font-family="sans-serif" font-size="13" font-weight="bold" lengthAdjust="spacing" textLength="132" x="381.75" y="248.3247">UC01 Initialization</text><polygon fill="#383838" points="708.5,282.5234,698.5,286.5234,708.5,290.5234" style="stroke:#383838;stroke-width:1.0;"/><line style="stroke:#383838;stroke-width:1.0;" x1="702.5" x2="901.5" y1="286.5234" y2="286.5234"/><text fill="#000000" font-family="sans-serif" font-size="13" font-weight="bold" lengthAdjust="spacing" textLength="23" x="723.5" y="281.4575">2.1</text><text fill="#000000" font-family="sans-serif" font-size="13" lengthAdjust="spacing" textLength="126" x="750.5" y="281.4575">user acesses the UI</text><polygon fill="#383838" points="456.5,326.7891,446.5,330.7891,456.5,334.7891" style="stroke:#383838;stroke-width:1.0;"/><line style="stroke:#383838;stroke-width:1.0;" x1="450.5" x2="686.5" y1="330.7891" y2="330.7891"/><text fill="#000000" font-family="sans-serif" font-size="13" font-weight="bold" lengthAdjust="spacing" textLength="23" x="499.5" y="318.1567">2.2</text><text fill="#000000" font-family="sans-serif" font-size="13" lengthAdjust="spacing" textLength="107" x="526.5" y="310.5903">subscribe to new</text><text fill="#000000" font-family="sans-serif" font-size="13" lengthAdjust="spacing" textLength="103" x="528.5" y="325.7231">gps sensor data</text><rect fill="#EEEEEE" height="3" style="stroke:#EEEEEE;stroke-width:1.0;" width="902.5" x="0" y="387.3555"/><line style="stroke:#000000;stroke-width:1.0;" x1="0" x2="902.5" y1="387.3555" y2="387.3555"/><line style="stroke:#000000;stroke-width:1.0;" x1="0" x2="902.5" y1="390.3555" y2="390.3555"/><rect fill="#EEEEEE" height="23.1328" style="stroke:#000000;stroke-width:2.0;" width="151" x="375.75" y="376.7891"/><text fill="#000000" font-family="sans-serif" font-size="13" font-weight="bold" lengthAdjust="spacing" textLength="132" x="381.75" y="392.856">UC02 Initialization</text><polygon fill="#383838" points="708.5,442.1875,698.5,446.1875,708.5,450.1875" style="stroke:#383838;stroke-width:1.0;"/><line style="stroke:#383838;stroke-width:1.0;" x1="702.5" x2="901.5" y1="446.1875" y2="446.1875"/><text fill="#000000" font-family="sans-serif" font-size="13" font-weight="bold" lengthAdjust="spacing" textLength="23" x="709.5" y="433.5552">3.1</text><text fill="#000000" font-family="sans-serif" font-size="13" lengthAdjust="spacing" textLength="113" x="757" y="425.9888">user wants to see</text><text fill="#000000" font-family="sans-serif" font-size="13" lengthAdjust="spacing" textLength="154" x="736.5" y="441.1216">specific gps sensor data</text><polygon fill="#383838" points="456.5,486.4531,446.5,490.4531,456.5,494.4531" style="stroke:#383838;stroke-width:1.0;"/><line style="stroke:#383838;stroke-width:1.0;" x1="450.5" x2="686.5" y1="490.4531" y2="490.4531"/><text fill="#000000" font-family="sans-serif" font-size="13" font-weight="bold" lengthAdjust="spacing" textLength="23" x="483" y="477.8208">3.2</text><text fill="#000000" font-family="sans-serif" font-size="13" lengthAdjust="spacing" textLength="140" x="510" y="470.2544">unsubscribe from new</text><text fill="#000000" font-family="sans-serif" font-size="13" lengthAdjust="spacing" textLength="103" x="528.5" y="485.3872">gps sensor data</text><polygon fill="#383838" points="456.5,530.7188,446.5,534.7188,456.5,538.7188" style="stroke:#383838;stroke-width:1.0;"/><line style="stroke:#383838;stroke-width:1.0;" x1="450.5" x2="686.5" y1="534.7188" y2="534.7188"/><text fill="#000000" font-family="sans-serif" font-size="13" font-weight="bold" lengthAdjust="spacing" textLength="23" x="474" y="522.0864">3.3</text><text fill="#000000" font-family="sans-serif" font-size="13" lengthAdjust="spacing" textLength="158" x="501" y="514.52">subscribe to specific new</text><text fill="#000000" font-family="sans-serif" font-size="13" lengthAdjust="spacing" textLength="103" x="528.5" y="529.6528">gps sensor data</text><rect fill="#EEEEEE" height="3" style="stroke:#EEEEEE;stroke-width:1.0;" width="902.5" x="0" y="591.2852"/><line style="stroke:#000000;stroke-width:1.0;" x1="0" x2="902.5" y1="591.2852" y2="591.2852"/><line style="stroke:#000000;stroke-width:1.0;" x1="0" x2="902.5" y1="594.2852" y2="594.2852"/><rect fill="#EEEEEE" height="23.1328" style="stroke:#000000;stroke-width:2.0;" width="151" x="375.75" y="580.7188"/><text fill="#000000" font-family="sans-serif" font-size="13" font-weight="bold" lengthAdjust="spacing" textLength="132" x="381.75" y="596.7856">UC01 Initialization</text><polygon fill="#383838" points="708.5,646.1172,698.5,650.1172,708.5,654.1172" style="stroke:#383838;stroke-width:1.0;"/><line style="stroke:#383838;stroke-width:1.0;" x1="702.5" x2="901.5" y1="650.1172" y2="650.1172"/><text fill="#000000" font-family="sans-serif" font-size="13" font-weight="bold" lengthAdjust="spacing" textLength="23" x="726" y="637.4849">4.1</text><text fill="#000000" font-family="sans-serif" font-size="13" lengthAdjust="spacing" textLength="113" x="757" y="629.9185">user wants to see</text><text fill="#000000" font-family="sans-serif" font-size="13" lengthAdjust="spacing" textLength="121" x="753" y="645.0513">all gps sensor data</text><polygon fill="#383838" points="456.5,690.3828,446.5,694.3828,456.5,698.3828" style="stroke:#383838;stroke-width:1.0;"/><line style="stroke:#383838;stroke-width:1.0;" x1="450.5" x2="686.5" y1="694.3828" y2="694.3828"/><text fill="#000000" font-family="sans-serif" font-size="13" font-weight="bold" lengthAdjust="spacing" textLength="23" x="457.5" y="681.7505">4.2</text><text fill="#000000" font-family="sans-serif" font-size="13" lengthAdjust="spacing" textLength="191" x="484.5" y="674.1841">unsubscribe from specific new</text><text fill="#000000" font-family="sans-serif" font-size="13" lengthAdjust="spacing" textLength="103" x="528.5" y="689.3169">gps sensor data</text><polygon fill="#383838" points="456.5,734.6484,446.5,738.6484,456.5,742.6484" style="stroke:#383838;stroke-width:1.0;"/><line style="stroke:#383838;stroke-width:1.0;" x1="450.5" x2="686.5" y1="738.6484" y2="738.6484"/><text fill="#000000" font-family="sans-serif" font-size="13" font-weight="bold" lengthAdjust="spacing" textLength="23" x="499.5" y="726.0161">4.3</text><text fill="#000000" font-family="sans-serif" font-size="13" lengthAdjust="spacing" textLength="107" x="526.5" y="718.4497">subscribe to new</text><text fill="#000000" font-family="sans-serif" font-size="13" lengthAdjust="spacing" textLength="103" x="528.5" y="733.5825">gps sensor data</text><!--MD5=[466d48c15b412e9d8a36d85501c71e61]
@startuml process-view-level2-uc00

skinparam Monochrome true
skinparam sequenceMessageAlign center
skinparam style strictuml
hide unlinked

autonumber 1.1

participant "Data Gateway" as DG
participant "LGT 92 GPS\nSensor Gateway" as LGT92GPSG
participant "LGT 92 GPS\nSensor Processor" as LGT92GPSP
participant "Message Broker" as MB
participant "Location Tracking\nBackend" as LTB
participant "Location Tracking\nFrontend" as LTF

activate MB
activate LTF
activate LTB

== Initialization ==
LGT92GPSP -> MB : subscribe to new\nlgt 92 gps sensor data
LTB -> MB : subscribe to new\ngps sensor data

...
== UC01 Initialization ==
autonumber inc A
LTF <- : user acesses the UI
LTF -> LTB : subscribe to new\ngps sensor data

...
== UC02 Initialization ==
autonumber inc A
LTF <- : user wants to see\nspecific gps sensor data
LTF -> LTB : unsubscribe from new\ngps sensor data
LTF -> LTB : subscribe to specific new\ngps sensor data

...
== UC01 Initialization ==
autonumber inc A
LTF <- : user wants to see\nall gps sensor data
LTF -> LTB : unsubscribe from specific new\ngps sensor data
LTF -> LTB : subscribe to new\ngps sensor data

@enduml

PlantUML version 1.2021.9(Sun Jul 25 11:13:56 WEST 2021)
(GPL source distribution)
Java Runtime: OpenJDK Runtime Environment
JVM: OpenJDK 64-Bit Server VM
Default Encoding: UTF-8
Language: en
Country: GB
--></g></svg>