<?xml version="1.0" encoding="UTF-8" standalone="no"?><svg xmlns="http://www.w3.org/2000/svg" xmlns:xlink="http://www.w3.org/1999/xlink" contentStyleType="text/css" height="985px" preserveAspectRatio="none" style="width:447px;height:985px;background:#FFFFFF;" version="1.1" viewBox="0 0 447 985" width="447px" zoomAndPan="magnify"><defs/><g><!--MD5=[7a9f77f94522f5a618ee7957ea545e3e]
cluster Notification Dispatcher Backend--><g id="cluster_Notification Dispatcher Backend"><rect height="972" rx="2.5" ry="2.5" style="stroke:#181818;stroke-width:1.0;fill:none;" width="434" x="7" y="7"/><rect height="10" style="stroke:#181818;stroke-width:1.0;fill:none;" width="15" x="421" y="12"/><rect height="2" style="stroke:#181818;stroke-width:1.0;fill:none;" width="4" x="419" y="14"/><rect height="2" style="stroke:#181818;stroke-width:1.0;fill:none;" width="4" x="419" y="18"/><text fill="#000000" font-family="sans-serif" font-size="14" font-weight="bold" lengthAdjust="spacing" textLength="223" x="112.5" y="34.9659">Notification Dispatcher Backend</text></g><!--MD5=[70becb833e031d8ab2b25bb6fd041c2b]
cluster INFRA--><g id="cluster_INFRA"><rect height="484" rx="2.5" ry="2.5" style="stroke:#181818;stroke-width:1.0;fill:none;" width="386" x="31" y="53"/><rect height="10" style="stroke:#181818;stroke-width:1.0;fill:none;" width="15" x="397" y="58"/><rect height="2" style="stroke:#181818;stroke-width:1.0;fill:none;" width="4" x="395" y="60"/><rect height="2" style="stroke:#181818;stroke-width:1.0;fill:none;" width="4" x="395" y="64"/><text fill="#000000" font-family="sans-serif" font-size="14" font-weight="bold" lengthAdjust="spacing" textLength="97" x="175.5" y="80.9659">Infrastructure</text></g><!--MD5=[e827ccb1cbd1809ec2e49ef4b2081f6a]
cluster ENDPOINT--><g id="cluster_ENDPOINT"><rect height="227" rx="2.5" ry="2.5" style="stroke:#181818;stroke-width:1.0;fill:none;" width="338" x="55" y="286"/><rect height="10" style="stroke:#181818;stroke-width:1.0;fill:none;" width="15" x="373" y="291"/><rect height="2" style="stroke:#181818;stroke-width:1.0;fill:none;" width="4" x="371" y="293"/><rect height="2" style="stroke:#181818;stroke-width:1.0;fill:none;" width="4" x="371" y="297"/><text fill="#000000" font-family="sans-serif" font-size="14" font-weight="bold" lengthAdjust="spacing" textLength="63" x="192.5" y="313.9659">Endpoint</text></g><!--MD5=[cd187d11655e4367e900de538d2f1d0c]
entity APP--><g id="elem_APP"><rect fill="#F1F1F1" height="49.0679" rx="2.5" ry="2.5" style="stroke:#181818;stroke-width:0.5;" width="116" x="167" y="681"/><rect fill="#F1F1F1" height="10" style="stroke:#181818;stroke-width:0.5;" width="15" x="263" y="686"/><rect fill="#F1F1F1" height="2" style="stroke:#181818;stroke-width:0.5;" width="4" x="261" y="688"/><rect fill="#F1F1F1" height="2" style="stroke:#181818;stroke-width:0.5;" width="4" x="261" y="692"/><text fill="#000000" font-family="sans-serif" font-size="14" lengthAdjust="spacing" textLength="76" x="182" y="715.9659">Application</text></g><!--MD5=[711fc6413308d66a33499ee50e557b5d]
entity DOM--><g id="elem_DOM"><rect fill="#F1F1F1" height="49.0679" rx="2.5" ry="2.5" style="stroke:#181818;stroke-width:0.5;" width="92" x="179" y="914"/><rect fill="#F1F1F1" height="10" style="stroke:#181818;stroke-width:0.5;" width="15" x="251" y="919"/><rect fill="#F1F1F1" height="2" style="stroke:#181818;stroke-width:0.5;" width="4" x="249" y="921"/><rect fill="#F1F1F1" height="2" style="stroke:#181818;stroke-width:0.5;" width="4" x="249" y="925"/><text fill="#000000" font-family="sans-serif" font-size="14" lengthAdjust="spacing" textLength="52" x="194" y="948.9659">Domain</text></g><!--MD5=[30d85f3125b7a53865e5f4719123efb6]
entity APP_API--><g id="elem_APP_API"><ellipse cx="225" cy="589" fill="#F1F1F1" rx="8" ry="8" style="stroke:#181818;stroke-width:0.5;"/><text fill="#000000" font-family="sans-serif" font-size="14" lengthAdjust="spacing" textLength="102" x="174" y="620.9659">Application API</text></g><!--MD5=[0aefd3324de3ab8c3fd9c9ea0f687424]
entity DOM_API--><g id="elem_DOM_API"><ellipse cx="225" cy="822" fill="#F1F1F1" rx="8" ry="8" style="stroke:#181818;stroke-width:0.5;"/><text fill="#000000" font-family="sans-serif" font-size="14" lengthAdjust="spacing" textLength="78" x="186" y="853.9659">Domain API</text></g><!--MD5=[50c35d0a5350f8e8f48a6d3669f54f50]
entity BOOT--><g id="elem_BOOT"><rect fill="#F1F1F1" height="49.0679" rx="2.5" ry="2.5" style="stroke:#181818;stroke-width:0.5;" width="70" x="190" y="215"/><rect fill="#F1F1F1" height="10" style="stroke:#181818;stroke-width:0.5;" width="15" x="240" y="220"/><rect fill="#F1F1F1" height="2" style="stroke:#181818;stroke-width:0.5;" width="4" x="238" y="222"/><rect fill="#F1F1F1" height="2" style="stroke:#181818;stroke-width:0.5;" width="4" x="238" y="226"/><text fill="#000000" font-family="sans-serif" font-size="14" lengthAdjust="spacing" textLength="30" x="205" y="249.9659">Boot</text></g><!--MD5=[44f07762fab2e804df8e0636e93cffbe]
entity BOOT_API--><g id="elem_BOOT_API"><ellipse cx="225" cy="123" fill="#F1F1F1" rx="8" ry="8" style="stroke:#181818;stroke-width:0.5;"/><text fill="#000000" font-family="sans-serif" font-size="14" lengthAdjust="spacing" textLength="56" x="197" y="154.9659">Boot API</text></g><!--MD5=[66db70f94ccbac3c79bd754cb956443f]
entity AMQP--><g id="elem_AMQP"><rect fill="#F1F1F1" height="49.0679" rx="2.5" ry="2.5" style="stroke:#181818;stroke-width:0.5;" width="81" x="294.5" y="448"/><rect fill="#F1F1F1" height="10" style="stroke:#181818;stroke-width:0.5;" width="15" x="355.5" y="453"/><rect fill="#F1F1F1" height="2" style="stroke:#181818;stroke-width:0.5;" width="4" x="353.5" y="455"/><rect fill="#F1F1F1" height="2" style="stroke:#181818;stroke-width:0.5;" width="4" x="353.5" y="459"/><text fill="#000000" font-family="sans-serif" font-size="14" lengthAdjust="spacing" textLength="41" x="309.5" y="482.9659">AMQP</text></g><!--MD5=[f360c852f81daa4ad66be7df7a5c9a3d]
entity AMQP_API--><g id="elem_AMQP_API"><ellipse cx="336" cy="356" fill="#F1F1F1" rx="8" ry="8" style="stroke:#181818;stroke-width:0.5;"/><text fill="#000000" font-family="sans-serif" font-size="14" lengthAdjust="spacing" textLength="67" x="302.5" y="387.9659">AMQP API</text></g><!--MD5=[2a4a9f02db2d080640020709b526018d]
entity SMS--><g id="elem_SMS"><rect fill="#F1F1F1" height="49.0679" rx="2.5" ry="2.5" style="stroke:#181818;stroke-width:0.5;" width="69" x="190.5" y="448"/><rect fill="#F1F1F1" height="10" style="stroke:#181818;stroke-width:0.5;" width="15" x="239.5" y="453"/><rect fill="#F1F1F1" height="2" style="stroke:#181818;stroke-width:0.5;" width="4" x="237.5" y="455"/><rect fill="#F1F1F1" height="2" style="stroke:#181818;stroke-width:0.5;" width="4" x="237.5" y="459"/><text fill="#000000" font-family="sans-serif" font-size="14" lengthAdjust="spacing" textLength="29" x="205.5" y="482.9659">SMS</text></g><!--MD5=[c5f8d24440802715f64fea3f18f7adf9]
entity SMS_API--><g id="elem_SMS_API"><ellipse cx="225" cy="356" fill="#F1F1F1" rx="8" ry="8" style="stroke:#181818;stroke-width:0.5;"/><text fill="#000000" font-family="sans-serif" font-size="14" lengthAdjust="spacing" textLength="55" x="197.5" y="387.9659">SMS API</text></g><!--MD5=[42d1152030852541868f417af9fe4184]
entity EMAIL--><g id="elem_EMAIL"><rect fill="#F1F1F1" height="49.0679" rx="2.5" ry="2.5" style="stroke:#181818;stroke-width:0.5;" width="82" x="72" y="448"/><rect fill="#F1F1F1" height="10" style="stroke:#181818;stroke-width:0.5;" width="15" x="134" y="453"/><rect fill="#F1F1F1" height="2" style="stroke:#181818;stroke-width:0.5;" width="4" x="132" y="455"/><rect fill="#F1F1F1" height="2" style="stroke:#181818;stroke-width:0.5;" width="4" x="132" y="459"/><text fill="#000000" font-family="sans-serif" font-size="14" lengthAdjust="spacing" textLength="42" x="87" y="482.9659">EMAIL</text></g><!--MD5=[9fa65dfa483a12bc956a701b64c67fd3]
entity EMAIL_API--><g id="elem_EMAIL_API"><ellipse cx="113" cy="356" fill="#F1F1F1" rx="8" ry="8" style="stroke:#181818;stroke-width:0.5;"/><text fill="#000000" font-family="sans-serif" font-size="14" lengthAdjust="spacing" textLength="68" x="79" y="387.9659">EMAIL API</text></g><!--MD5=[14cf9b7186fc426919be12717f53f1a1]
link DOM_API to DOM--><g id="link_DOM_API_DOM"><path d="M225,831.23 C225,848.26 225,887.89 225,913.65 " fill="none" id="DOM_API-DOM" style="stroke:#181818;stroke-width:1.0;"/></g><!--MD5=[9bc3545913d2ece8bc1c8e2c39a9583d]
link APP_API to APP--><g id="link_APP_API_APP"><path d="M225,598.23 C225,615.26 225,654.89 225,680.65 " fill="none" id="APP_API-APP" style="stroke:#181818;stroke-width:1.0;"/></g><!--MD5=[960e631b20e6d0a5a1769365a28f267a]
link BOOT_API to BOOT--><g id="link_BOOT_API_BOOT"><path d="M225,132.23 C225,149.26 225,188.89 225,214.65 " fill="none" id="BOOT_API-BOOT" style="stroke:#181818;stroke-width:1.0;"/></g><!--MD5=[144eb759bece83ea8e8de5d37013052c]
link AMQP_API to AMQP--><g id="link_AMQP_API_AMQP"><path d="M335.93,365.23 C335.78,382.26 335.43,421.89 335.21,447.65 " fill="none" id="AMQP_API-AMQP" style="stroke:#181818;stroke-width:1.0;"/></g><!--MD5=[6cfb98b7111b2fe5116d9d5c4c4381bf]
link SMS_API to SMS--><g id="link_SMS_API_SMS"><path d="M225,365.23 C225,382.26 225,421.89 225,447.65 " fill="none" id="SMS_API-SMS" style="stroke:#181818;stroke-width:1.0;"/></g><!--MD5=[79afd6ffa4e0bfb99cadb9f9836531e0]
link EMAIL_API to EMAIL--><g id="link_EMAIL_API_EMAIL"><path d="M113,365.23 C113,382.26 113,421.89 113,447.65 " fill="none" id="EMAIL_API-EMAIL" style="stroke:#181818;stroke-width:1.0;"/></g><!--MD5=[50ee9e5020b7eeb8cea5a65291237e8d]
link AMQP to APP_API--><g id="link_AMQP_APP_API"><path d="M317.81,497.02 C306.8,511.47 291.85,530.01 277,545 C266.18,555.92 252.79,566.95 242.3,575.1 " fill="none" id="AMQP-to-APP_API" style="stroke:#181818;stroke-width:1.0;"/><path d="M241.876,586.0684 A9,9 0 0 0 231.6193 572.6185" fill="none" style="stroke:#181818;stroke-width:1.5;"/></g><!--MD5=[df9586adb6a56ced15cab5a4afa8eb1e]
link SMS to APP_API--><g id="link_SMS_APP_API"><path d="M225,497.22 C225,518.8 225,550.18 225,569.82 " fill="none" id="SMS-to-APP_API" style="stroke:#181818;stroke-width:1.0;"/><path d="M233.4572,576.7918 A9,9 0 0 0 216.5428 576.7918" fill="none" style="stroke:#181818;stroke-width:1.5;"/></g><!--MD5=[df734b39f8183c420fe5fd77dafd66e8]
link EMAIL to APP_API--><g id="link_EMAIL_APP_API"><path d="M131.17,497.3 C142.58,511.67 157.94,530.04 173,545 C183.91,555.83 197.3,566.86 207.76,575.04 " fill="none" id="EMAIL-to-APP_API" style="stroke:#181818;stroke-width:1.0;"/><path d="M218.4477,572.587 A9,9 0 0 0 208.1487 586.0045" fill="none" style="stroke:#181818;stroke-width:1.5;"/></g><!--MD5=[15866775485206d4b44ddb8328268e7f]
link APP to DOM_API--><g id="link_APP_DOM_API"><path d="M225,730.22 C225,751.8 225,783.18 225,802.82 " fill="none" id="APP-to-DOM_API" style="stroke:#181818;stroke-width:1.0;"/><path d="M233.4572,809.7918 A9,9 0 0 0 216.5428 809.7918" fill="none" style="stroke:#181818;stroke-width:1.5;"/></g><!--MD5=[825637d1efb63c5c00802efb716c3c83]
link BOOT to AMQP_API--><g id="link_BOOT_AMQP_API"><path d="M260.15,263.04 C266.37,267.66 272.58,272.74 278,278 C297.07,296.51 314.81,321.69 325.52,338.14 " fill="none" id="BOOT-to-AMQP_API" style="stroke:#181818;stroke-width:1.0;"/><path d="M336.4477,339.559 A9,9 0 0 0 322.1836 348.6493" fill="none" style="stroke:#181818;stroke-width:1.5;"/></g><!--MD5=[e19946429ff29287405586d548336233]
link BOOT to SMS_API--><g id="link_BOOT_SMS_API"><path d="M225,264.22 C225,285.8 225,317.18 225,336.82 " fill="none" id="BOOT-to-SMS_API" style="stroke:#181818;stroke-width:1.0;"/><path d="M233.4572,343.7918 A9,9 0 0 0 216.5428 343.7918" fill="none" style="stroke:#181818;stroke-width:1.5;"/></g><!--MD5=[92d90b420d531f81be746d8d2ba49fea]
link BOOT to EMAIL_API--><g id="link_BOOT_EMAIL_API"><path d="M189.78,263.8 C183.94,268.24 178.13,273.06 173,278 C153.62,296.68 135.19,321.82 123.99,338.21 " fill="none" id="BOOT-to-EMAIL_API" style="stroke:#181818;stroke-width:1.0;"/><path d="M127.0192,348.8908 A9,9 0 0 0 112.9679 339.4749" fill="none" style="stroke:#181818;stroke-width:1.5;"/></g><!--MD5=[504f75c9dfa0c889b007385771fcb3d2]
@startuml logical-view-level3-notification-dispatcher-backend

skinparam Monochrome true

component "Notification Dispatcher Backend" {
    component "Application" as APP
    component "Domain" as DOM
    component "Infrastructure" as INFRA {
        component "Boot" as BOOT
        component "Endpoint" as ENDPOINT {
            component "AMQP" as AMQP
            interface "AMQP API" as AMQP_API
            component "SMS" as SMS
            interface "SMS API" as SMS_API
            component "EMAIL" as EMAIL
            interface "EMAIL API" as EMAIL_API
        }
        interface "Boot API" as BOOT_API
    }

    interface "Application API" as APP_API
    interface "Domain API" as DOM_API

    DOM_API - - DOM

    APP_API - - APP
    BOOT_API - - BOOT
    AMQP_API - - AMQP
    SMS_API - - SMS
    EMAIL_API - - EMAIL

    AMQP - -( APP_API
    SMS - -( APP_API
    EMAIL - -( APP_API
    APP - -( DOM_API
    BOOT - -( AMQP_API
    BOOT - -( SMS_API
    BOOT - -( EMAIL_API
}

@enduml

PlantUML version 1.2022.4(Sat Apr 09 14:29:17 WEST 2022)
(GPL source distribution)
Java Runtime: OpenJDK Runtime Environment
JVM: OpenJDK 64-Bit Server VM
Default Encoding: UTF-8
Language: en
Country: GB
--></g></svg>