<?xml version="1.0" encoding="UTF-8" standalone="no"?><svg xmlns="http://www.w3.org/2000/svg" xmlns:xlink="http://www.w3.org/1999/xlink" contentScriptType="application/ecmascript" contentStyleType="text/css" height="1308px" preserveAspectRatio="none" style="width:2085px;height:1308px;background:#FFFFFF;" version="1.1" viewBox="0 0 2085 1308" width="2085px" zoomAndPan="magnify"><defs/><g><!--MD5=[85f6e7297d1ad81d8c1382e17d44cf2c]
cluster Environment--><rect fill="#FFFFFF" height="1092" style="stroke:#000000;stroke-width:1.5;" width="1840" x="40" y="62"/><rect fill="#FFFFFF" height="10" style="stroke:#000000;stroke-width:1.5;" width="15" x="1860" y="67"/><rect fill="#FFFFFF" height="2" style="stroke:#000000;stroke-width:1.5;" width="4" x="1858" y="69"/><rect fill="#FFFFFF" height="2" style="stroke:#000000;stroke-width:1.5;" width="4" x="1858" y="73"/><text fill="#000000" font-family="sans-serif" font-size="14" font-style="italic" lengthAdjust="spacing" textLength="58" x="931" y="89.9659">«System»</text><text fill="#000000" font-family="sans-serif" font-size="14" font-weight="bold" lengthAdjust="spacing" textLength="90" x="915" y="109.0339">Environment</text><!--MD5=[2f974df144d935b84f61c768008119cd]
cluster UIAG--><rect fill="#FFFFFF" height="157" style="stroke:#000000;stroke-width:1.5;" width="1299" x="289" y="135"/><rect fill="#FFFFFF" height="10" style="stroke:#000000;stroke-width:1.5;" width="15" x="1568" y="140"/><rect fill="#FFFFFF" height="2" style="stroke:#000000;stroke-width:1.5;" width="4" x="1566" y="142"/><rect fill="#FFFFFF" height="2" style="stroke:#000000;stroke-width:1.5;" width="4" x="1566" y="146"/><text fill="#000000" font-family="sans-serif" font-size="14" font-style="italic" lengthAdjust="spacing" textLength="76" x="900.5" y="162.9659">«Container»</text><text fill="#000000" font-family="sans-serif" font-size="14" font-weight="bold" lengthAdjust="spacing" textLength="100" x="888.5" y="182.0339">UI Aggregator</text><!--MD5=[07f1f74cdc79fa2fd2740ec7d7a64eca]
entity LTB--><rect fill="#F8F8F8" height="68.1358" style="stroke:#383838;stroke-width:1.5;" width="227" x="58.5" y="490"/><rect fill="#F8F8F8" height="10" style="stroke:#383838;stroke-width:1.5;" width="15" x="265.5" y="495"/><rect fill="#F8F8F8" height="2" style="stroke:#383838;stroke-width:1.5;" width="4" x="263.5" y="497"/><rect fill="#F8F8F8" height="2" style="stroke:#383838;stroke-width:1.5;" width="4" x="263.5" y="501"/><text fill="#000000" font-family="sans-serif" font-size="14" font-style="italic" lengthAdjust="spacing" textLength="76" x="129" y="524.9659">«Container»</text><text fill="#000000" font-family="sans-serif" font-size="14" lengthAdjust="spacing" textLength="187" x="73.5" y="544.0339">Fleet Management Backend</text><!--MD5=[2c8bfc6f691a2260a342f8a3a45a5f4e]
entity MB--><rect fill="#F8F8F8" height="68.1358" style="stroke:#383838;stroke-width:1.5;" width="148" x="610" y="490"/><rect fill="#F8F8F8" height="10" style="stroke:#383838;stroke-width:1.5;" width="15" x="738" y="495"/><rect fill="#F8F8F8" height="2" style="stroke:#383838;stroke-width:1.5;" width="4" x="736" y="497"/><rect fill="#F8F8F8" height="2" style="stroke:#383838;stroke-width:1.5;" width="4" x="736" y="501"/><text fill="#000000" font-family="sans-serif" font-size="14" font-style="italic" lengthAdjust="spacing" textLength="76" x="641" y="524.9659">«Container»</text><text fill="#000000" font-family="sans-serif" font-size="14" lengthAdjust="spacing" textLength="108" x="625" y="544.0339">Message Broker</text><!--MD5=[de9d829787e3a43b2ded327ec6864356]
entity DRB--><rect fill="#F8F8F8" height="68.1358" style="stroke:#383838;stroke-width:1.5;" width="254" x="321" y="490"/><rect fill="#F8F8F8" height="10" style="stroke:#383838;stroke-width:1.5;" width="15" x="555" y="495"/><rect fill="#F8F8F8" height="2" style="stroke:#383838;stroke-width:1.5;" width="4" x="553" y="497"/><rect fill="#F8F8F8" height="2" style="stroke:#383838;stroke-width:1.5;" width="4" x="553" y="501"/><text fill="#000000" font-family="sans-serif" font-size="14" font-style="italic" lengthAdjust="spacing" textLength="76" x="405" y="524.9659">«Container»</text><text fill="#000000" font-family="sans-serif" font-size="14" lengthAdjust="spacing" textLength="214" x="336" y="544.0339">Device Records Master Backend</text><!--MD5=[16d24166dd61b60d67a9b622353efc3e]
entity DRSB--><rect fill="#F8F8F8" height="68.1358" style="stroke:#383838;stroke-width:1.5;" width="242" x="56" y="780"/><rect fill="#F8F8F8" height="10" style="stroke:#383838;stroke-width:1.5;" width="15" x="278" y="785"/><rect fill="#F8F8F8" height="2" style="stroke:#383838;stroke-width:1.5;" width="4" x="276" y="787"/><rect fill="#F8F8F8" height="2" style="stroke:#383838;stroke-width:1.5;" width="4" x="276" y="791"/><text fill="#000000" font-family="sans-serif" font-size="14" font-style="italic" lengthAdjust="spacing" textLength="76" x="134" y="814.9659">«Container»</text><text fill="#000000" font-family="sans-serif" font-size="14" lengthAdjust="spacing" textLength="202" x="71" y="834.0339">Device Records Slave Backend</text><!--MD5=[91279a835da4e32ef6d7ba373316e020]
entity DDG--><rect fill="#F8F8F8" height="68.1358" style="stroke:#383838;stroke-width:1.5;" width="132" x="333" y="780"/><rect fill="#F8F8F8" height="10" style="stroke:#383838;stroke-width:1.5;" width="15" x="445" y="785"/><rect fill="#F8F8F8" height="2" style="stroke:#383838;stroke-width:1.5;" width="4" x="443" y="787"/><rect fill="#F8F8F8" height="2" style="stroke:#383838;stroke-width:1.5;" width="4" x="443" y="791"/><text fill="#000000" font-family="sans-serif" font-size="14" font-style="italic" lengthAdjust="spacing" textLength="76" x="356" y="814.9659">«Container»</text><text fill="#000000" font-family="sans-serif" font-size="14" lengthAdjust="spacing" textLength="92" x="348" y="834.0339">Data Gateway</text><!--MD5=[916b332d59e591ecaa5566188f0cdc33]
entity DR--><rect fill="#F8F8F8" height="68.1358" style="stroke:#383838;stroke-width:1.5;" width="125" x="336.5" y="1070"/><rect fill="#F8F8F8" height="10" style="stroke:#383838;stroke-width:1.5;" width="15" x="441.5" y="1075"/><rect fill="#F8F8F8" height="2" style="stroke:#383838;stroke-width:1.5;" width="4" x="439.5" y="1077"/><rect fill="#F8F8F8" height="2" style="stroke:#383838;stroke-width:1.5;" width="4" x="439.5" y="1081"/><text fill="#000000" font-family="sans-serif" font-size="14" font-style="italic" lengthAdjust="spacing" textLength="76" x="356" y="1104.9659">«Container»</text><text fill="#000000" font-family="sans-serif" font-size="14" lengthAdjust="spacing" textLength="85" x="351.5" y="1124.0339">Data Relayer</text><!--MD5=[bdf2b643721ab24f6b6cc4832b6b9e51]
entity DPSB--><rect fill="#F8F8F8" height="68.1358" style="stroke:#383838;stroke-width:1.5;" width="240" x="882" y="780"/><rect fill="#F8F8F8" height="10" style="stroke:#383838;stroke-width:1.5;" width="15" x="1102" y="785"/><rect fill="#F8F8F8" height="2" style="stroke:#383838;stroke-width:1.5;" width="4" x="1100" y="787"/><rect fill="#F8F8F8" height="2" style="stroke:#383838;stroke-width:1.5;" width="4" x="1100" y="791"/><text fill="#000000" font-family="sans-serif" font-size="14" font-style="italic" lengthAdjust="spacing" textLength="76" x="959" y="814.9659">«Container»</text><text fill="#000000" font-family="sans-serif" font-size="14" lengthAdjust="spacing" textLength="200" x="897" y="834.0339">Data Processor Slave Backend</text><!--MD5=[c69e4f4df1ed598018961dfd8475c72c]
entity DPB--><rect fill="#F8F8F8" height="68.1358" style="stroke:#383838;stroke-width:1.5;" width="252" x="793" y="490"/><rect fill="#F8F8F8" height="10" style="stroke:#383838;stroke-width:1.5;" width="15" x="1025" y="495"/><rect fill="#F8F8F8" height="2" style="stroke:#383838;stroke-width:1.5;" width="4" x="1023" y="497"/><rect fill="#F8F8F8" height="2" style="stroke:#383838;stroke-width:1.5;" width="4" x="1023" y="501"/><text fill="#000000" font-family="sans-serif" font-size="14" font-style="italic" lengthAdjust="spacing" textLength="76" x="876" y="524.9659">«Container»</text><text fill="#000000" font-family="sans-serif" font-size="14" lengthAdjust="spacing" textLength="212" x="808" y="544.0339">Data Processor Master Backend</text><!--MD5=[91bee6d61a7a6e301935a31566dd90e9]
entity DDSB--><rect fill="#F8F8F8" height="68.1358" style="stroke:#383838;stroke-width:1.5;" width="231" x="1157.5" y="780"/><rect fill="#F8F8F8" height="10" style="stroke:#383838;stroke-width:1.5;" width="15" x="1368.5" y="785"/><rect fill="#F8F8F8" height="2" style="stroke:#383838;stroke-width:1.5;" width="4" x="1366.5" y="787"/><rect fill="#F8F8F8" height="2" style="stroke:#383838;stroke-width:1.5;" width="4" x="1366.5" y="791"/><text fill="#000000" font-family="sans-serif" font-size="14" font-style="italic" lengthAdjust="spacing" textLength="76" x="1230" y="814.9659">«Container»</text><text fill="#000000" font-family="sans-serif" font-size="14" lengthAdjust="spacing" textLength="191" x="1172.5" y="834.0339">Data Decoder Slave Backend</text><!--MD5=[5ef05889720f7c9793bffe86704fac7e]
entity DDB--><rect fill="#F8F8F8" height="68.1358" style="stroke:#383838;stroke-width:1.5;" width="243" x="1082.5" y="490"/><rect fill="#F8F8F8" height="10" style="stroke:#383838;stroke-width:1.5;" width="15" x="1305.5" y="495"/><rect fill="#F8F8F8" height="2" style="stroke:#383838;stroke-width:1.5;" width="4" x="1303.5" y="497"/><rect fill="#F8F8F8" height="2" style="stroke:#383838;stroke-width:1.5;" width="4" x="1303.5" y="501"/><text fill="#000000" font-family="sans-serif" font-size="14" font-style="italic" lengthAdjust="spacing" textLength="76" x="1161" y="524.9659">«Container»</text><text fill="#000000" font-family="sans-serif" font-size="14" lengthAdjust="spacing" textLength="203" x="1097.5" y="544.0339">Data Decoder Master Backend</text><!--MD5=[879c1108b25478de35d4f7b9898923f2]
entity DVB--><rect fill="#F8F8F8" height="68.1358" style="stroke:#383838;stroke-width:1.5;" width="196" x="500" y="780"/><rect fill="#F8F8F8" height="10" style="stroke:#383838;stroke-width:1.5;" width="15" x="676" y="785"/><rect fill="#F8F8F8" height="2" style="stroke:#383838;stroke-width:1.5;" width="4" x="674" y="787"/><rect fill="#F8F8F8" height="2" style="stroke:#383838;stroke-width:1.5;" width="4" x="674" y="791"/><text fill="#000000" font-family="sans-serif" font-size="14" font-style="italic" lengthAdjust="spacing" textLength="76" x="555" y="814.9659">«Container»</text><text fill="#000000" font-family="sans-serif" font-size="14" lengthAdjust="spacing" textLength="156" x="515" y="834.0339">Data Validator Backend</text><!--MD5=[5c672979971b01ffe3e26ca5e0224f67]
entity DRDB--><rect fill="#F8F8F8" height="68.1358" style="stroke:#383838;stroke-width:1.5;" width="209" x="460.5" y="635"/><rect fill="#F8F8F8" height="10" style="stroke:#383838;stroke-width:1.5;" width="15" x="649.5" y="640"/><rect fill="#F8F8F8" height="2" style="stroke:#383838;stroke-width:1.5;" width="4" x="647.5" y="642"/><rect fill="#F8F8F8" height="2" style="stroke:#383838;stroke-width:1.5;" width="4" x="647.5" y="646"/><text fill="#000000" font-family="sans-serif" font-size="14" font-style="italic" lengthAdjust="spacing" textLength="76" x="522" y="669.9659">«Container»</text><text fill="#000000" font-family="sans-serif" font-size="14" lengthAdjust="spacing" textLength="169" x="475.5" y="689.0339">Device Records Database</text><!--MD5=[f1831cdda53ca662ba17e366a7f7f424]
entity DPDB--><rect fill="#F8F8F8" height="68.1358" style="stroke:#383838;stroke-width:1.5;" width="207" x="954.5" y="635"/><rect fill="#F8F8F8" height="10" style="stroke:#383838;stroke-width:1.5;" width="15" x="1141.5" y="640"/><rect fill="#F8F8F8" height="2" style="stroke:#383838;stroke-width:1.5;" width="4" x="1139.5" y="642"/><rect fill="#F8F8F8" height="2" style="stroke:#383838;stroke-width:1.5;" width="4" x="1139.5" y="646"/><text fill="#000000" font-family="sans-serif" font-size="14" font-style="italic" lengthAdjust="spacing" textLength="76" x="1015" y="669.9659">«Container»</text><text fill="#000000" font-family="sans-serif" font-size="14" lengthAdjust="spacing" textLength="167" x="969.5" y="689.0339">Data Processor Database</text><!--MD5=[f6e99cab63e8e1b87d3295631453bac4]
entity DDDB--><rect fill="#F8F8F8" height="68.1358" style="stroke:#383838;stroke-width:1.5;" width="198" x="1287" y="635"/><rect fill="#F8F8F8" height="10" style="stroke:#383838;stroke-width:1.5;" width="15" x="1465" y="640"/><rect fill="#F8F8F8" height="2" style="stroke:#383838;stroke-width:1.5;" width="4" x="1463" y="642"/><rect fill="#F8F8F8" height="2" style="stroke:#383838;stroke-width:1.5;" width="4" x="1463" y="646"/><text fill="#000000" font-family="sans-serif" font-size="14" font-style="italic" lengthAdjust="spacing" textLength="76" x="1343" y="669.9659">«Container»</text><text fill="#000000" font-family="sans-serif" font-size="14" lengthAdjust="spacing" textLength="158" x="1302" y="689.0339">Data Decoder Database</text><!--MD5=[d39a7cdb9df190221a9c4f4d217edfc0]
entity IAMDB--><rect fill="#F8F8F8" height="68.1358" style="stroke:#383838;stroke-width:1.5;" width="253" x="1610.5" y="635"/><rect fill="#F8F8F8" height="10" style="stroke:#383838;stroke-width:1.5;" width="15" x="1843.5" y="640"/><rect fill="#F8F8F8" height="2" style="stroke:#383838;stroke-width:1.5;" width="4" x="1841.5" y="642"/><rect fill="#F8F8F8" height="2" style="stroke:#383838;stroke-width:1.5;" width="4" x="1841.5" y="646"/><text fill="#000000" font-family="sans-serif" font-size="14" font-style="italic" lengthAdjust="spacing" textLength="76" x="1694" y="669.9659">«Container»</text><text fill="#000000" font-family="sans-serif" font-size="14" lengthAdjust="spacing" textLength="213" x="1625.5" y="689.0339">Identity Management Database</text><!--MD5=[1a416c3156d55d9446032ebbee093b81]
entity DS--><rect fill="#F8F8F8" height="68.1358" style="stroke:#383838;stroke-width:1.5;" width="116" x="731" y="780"/><rect fill="#F8F8F8" height="10" style="stroke:#383838;stroke-width:1.5;" width="15" x="827" y="785"/><rect fill="#F8F8F8" height="2" style="stroke:#383838;stroke-width:1.5;" width="4" x="825" y="787"/><rect fill="#F8F8F8" height="2" style="stroke:#383838;stroke-width:1.5;" width="4" x="825" y="791"/><text fill="#000000" font-family="sans-serif" font-size="14" font-style="italic" lengthAdjust="spacing" textLength="76" x="746" y="814.9659">«Container»</text><text fill="#000000" font-family="sans-serif" font-size="14" lengthAdjust="spacing" textLength="70" x="749" y="834.0339">Data Store</text><!--MD5=[0d4560ec263e73dd5d18ec3da06f96fd]
entity QUESTDB--><rect fill="#F8F8F8" height="68.1358" style="stroke:#383838;stroke-width:1.5;" width="225" x="109.5" y="635"/><rect fill="#F8F8F8" height="10" style="stroke:#383838;stroke-width:1.5;" width="15" x="314.5" y="640"/><rect fill="#F8F8F8" height="2" style="stroke:#383838;stroke-width:1.5;" width="4" x="312.5" y="642"/><rect fill="#F8F8F8" height="2" style="stroke:#383838;stroke-width:1.5;" width="4" x="312.5" y="646"/><text fill="#000000" font-family="sans-serif" font-size="14" font-style="italic" lengthAdjust="spacing" textLength="76" x="179" y="669.9659">«Container»</text><text fill="#000000" font-family="sans-serif" font-size="14" lengthAdjust="spacing" textLength="185" x="124.5" y="689.0339">Fleet Managemnt Database</text><!--MD5=[03988f2df4231e1a486c01e3236a3a84]
entity MONGODB--><rect fill="#F8F8F8" height="68.1358" style="stroke:#383838;stroke-width:1.5;" width="177" x="700.5" y="1070"/><rect fill="#F8F8F8" height="10" style="stroke:#383838;stroke-width:1.5;" width="15" x="857.5" y="1075"/><rect fill="#F8F8F8" height="2" style="stroke:#383838;stroke-width:1.5;" width="4" x="855.5" y="1077"/><rect fill="#F8F8F8" height="2" style="stroke:#383838;stroke-width:1.5;" width="4" x="855.5" y="1081"/><text fill="#000000" font-family="sans-serif" font-size="14" font-style="italic" lengthAdjust="spacing" textLength="76" x="746" y="1104.9659">«Container»</text><text fill="#000000" font-family="sans-serif" font-size="14" lengthAdjust="spacing" textLength="137" x="715.5" y="1124.0339">Data Store Database</text><!--MD5=[44c640a2f46c97cbb4bd468ec8778bf6]
entity IAMB--><rect fill="#F8F8F8" height="68.1358" style="stroke:#383838;stroke-width:1.5;" width="247" x="1427.5" y="490"/><rect fill="#F8F8F8" height="10" style="stroke:#383838;stroke-width:1.5;" width="15" x="1654.5" y="495"/><rect fill="#F8F8F8" height="2" style="stroke:#383838;stroke-width:1.5;" width="4" x="1652.5" y="497"/><rect fill="#F8F8F8" height="2" style="stroke:#383838;stroke-width:1.5;" width="4" x="1652.5" y="501"/><text fill="#000000" font-family="sans-serif" font-size="14" font-style="italic" lengthAdjust="spacing" textLength="76" x="1508" y="524.9659">«Container»</text><text fill="#000000" font-family="sans-serif" font-size="14" lengthAdjust="spacing" textLength="207" x="1442.5" y="544.0339">Identity Management Backend</text><!--MD5=[00c225f96ba7415dd7fb03efda8a1a8e]
entity IAMSB--><rect fill="#F8F8F8" height="68.1358" style="stroke:#383838;stroke-width:1.5;" width="286" x="1427" y="780"/><rect fill="#F8F8F8" height="10" style="stroke:#383838;stroke-width:1.5;" width="15" x="1693" y="785"/><rect fill="#F8F8F8" height="2" style="stroke:#383838;stroke-width:1.5;" width="4" x="1691" y="787"/><rect fill="#F8F8F8" height="2" style="stroke:#383838;stroke-width:1.5;" width="4" x="1691" y="791"/><text fill="#000000" font-family="sans-serif" font-size="14" font-style="italic" lengthAdjust="spacing" textLength="76" x="1527" y="814.9659">«Container»</text><text fill="#000000" font-family="sans-serif" font-size="14" lengthAdjust="spacing" textLength="246" x="1442" y="834.0339">Identity Management Slave Backend</text><!--MD5=[ed43a859708a376e35ae74978de1b490]
entity MB_API--><ellipse cx="767" cy="669" fill="#F8F8F8" rx="8" ry="8" style="stroke:#383838;stroke-width:1.5;"/><text fill="#000000" font-family="sans-serif" font-size="14" lengthAdjust="spacing" textLength="108" x="713" y="700.9659">Message Broker</text><text fill="#000000" font-family="sans-serif" font-size="14" lengthAdjust="spacing" textLength="22" x="713" y="720.0339">API</text><!--MD5=[0ce5a9617f51ae4b5bc891fe128d05dc]
entity LTB_API--><ellipse cx="237" cy="379" fill="#F8F8F8" rx="8" ry="8" style="stroke:#383838;stroke-width:1.5;"/><text fill="#000000" font-family="sans-serif" font-size="14" lengthAdjust="spacing" textLength="187" x="143.5" y="410.9659">Fleet Management Backend</text><text fill="#000000" font-family="sans-serif" font-size="14" lengthAdjust="spacing" textLength="22" x="143.5" y="430.0339">API</text><!--MD5=[9244efad2dc02808af23604ab0304277]
entity DRB_API--><ellipse cx="554" cy="379" fill="#F8F8F8" rx="8" ry="8" style="stroke:#383838;stroke-width:1.5;"/><text fill="#000000" font-family="sans-serif" font-size="14" lengthAdjust="spacing" textLength="214" x="447" y="410.9659">Device Records Master Backend</text><text fill="#000000" font-family="sans-serif" font-size="14" lengthAdjust="spacing" textLength="22" x="447" y="430.0339">API</text><!--MD5=[ef9278d4b74b87a7b4efdbdf3fe9768f]
entity DPB_API--><ellipse cx="925" cy="379" fill="#F8F8F8" rx="8" ry="8" style="stroke:#383838;stroke-width:1.5;"/><text fill="#000000" font-family="sans-serif" font-size="14" lengthAdjust="spacing" textLength="212" x="819" y="410.9659">Data Processor Master Backend</text><text fill="#000000" font-family="sans-serif" font-size="14" lengthAdjust="spacing" textLength="22" x="819" y="430.0339">API</text><!--MD5=[ac09aa9e94d101b4af0ffbb1f02e31f7]
entity DDMB_API--><ellipse cx="1198" cy="379" fill="#F8F8F8" rx="8" ry="8" style="stroke:#383838;stroke-width:1.5;"/><text fill="#000000" font-family="sans-serif" font-size="14" lengthAdjust="spacing" textLength="203" x="1096.5" y="410.9659">Data Decoder Master Backend</text><text fill="#000000" font-family="sans-serif" font-size="14" lengthAdjust="spacing" textLength="22" x="1096.5" y="430.0339">API</text><!--MD5=[5ca5631ebaf5f86a9fa4e428e4442db3]
entity DRDB_API--><ellipse cx="416" cy="669" fill="#F8F8F8" rx="8" ry="8" style="stroke:#383838;stroke-width:1.5;"/><text fill="#000000" font-family="sans-serif" font-size="14" lengthAdjust="spacing" textLength="102" x="365" y="700.9659">Device Records</text><text fill="#000000" font-family="sans-serif" font-size="14" lengthAdjust="spacing" textLength="89" x="365" y="720.0339">Database API</text><!--MD5=[d282213c50e29b328cdb2ebefa3990e8]
entity DPDB_API--><ellipse cx="873" cy="669" fill="#F8F8F8" rx="8" ry="8" style="stroke:#383838;stroke-width:1.5;"/><text fill="#000000" font-family="sans-serif" font-size="14" lengthAdjust="spacing" textLength="100" x="823" y="700.9659">Data Processor</text><text fill="#000000" font-family="sans-serif" font-size="14" lengthAdjust="spacing" textLength="89" x="823" y="720.0339">Database API</text><!--MD5=[cd0e3236e1eb61930625066ac5c05f4b]
entity DDDB_API--><ellipse cx="1206" cy="669" fill="#F8F8F8" rx="8" ry="8" style="stroke:#383838;stroke-width:1.5;"/><text fill="#000000" font-family="sans-serif" font-size="14" lengthAdjust="spacing" textLength="91" x="1160.5" y="700.9659">Data Decoder</text><text fill="#000000" font-family="sans-serif" font-size="14" lengthAdjust="spacing" textLength="89" x="1160.5" y="720.0339">Database API</text><!--MD5=[f0cf44ba7df043360ca8841c7096096e]
entity IAMDB_API--><ellipse cx="1529" cy="669" fill="#F8F8F8" rx="8" ry="8" style="stroke:#383838;stroke-width:1.5;"/><text fill="#000000" font-family="sans-serif" font-size="14" lengthAdjust="spacing" textLength="146" x="1456" y="700.9659">Identity Management</text><text fill="#000000" font-family="sans-serif" font-size="14" lengthAdjust="spacing" textLength="89" x="1456" y="720.0339">Database API</text><!--MD5=[e8ad32939caa55f00142e93d75a05e2d]
entity QUESTDB_API--><ellipse cx="65" cy="669" fill="#F8F8F8" rx="8" ry="8" style="stroke:#383838;stroke-width:1.5;"/><text fill="#000000" font-family="sans-serif" font-size="14" lengthAdjust="spacing" textLength="118" x="6" y="700.9659">Fleet Managemnt</text><text fill="#000000" font-family="sans-serif" font-size="14" lengthAdjust="spacing" textLength="89" x="6" y="720.0339">Database API</text><!--MD5=[2d1aaa06eea6692e612a00a28d7bf3bd]
entity MONGODB_API--><ellipse cx="789" cy="959" fill="#F8F8F8" rx="8" ry="8" style="stroke:#383838;stroke-width:1.5;"/><text fill="#000000" font-family="sans-serif" font-size="14" lengthAdjust="spacing" textLength="70" x="744.5" y="990.9659">Data Store</text><text fill="#000000" font-family="sans-serif" font-size="14" lengthAdjust="spacing" textLength="89" x="744.5" y="1010.0339">Database API</text><!--MD5=[7b5d57a7033bc15fa4b522c391528de2]
entity DDG_API--><ellipse cx="399" cy="959" fill="#F8F8F8" rx="8" ry="8" style="stroke:#383838;stroke-width:1.5;"/><text fill="#000000" font-family="sans-serif" font-size="14" lengthAdjust="spacing" textLength="92" x="353" y="990.9659">Data Gateway</text><text fill="#000000" font-family="sans-serif" font-size="14" lengthAdjust="spacing" textLength="22" x="353" y="1010.0339">API</text><!--MD5=[f8f35dcc71b58e4a2a0c50eed84b7a26]
entity IAMB_API--><ellipse cx="1455" cy="379" fill="#F8F8F8" rx="8" ry="8" style="stroke:#383838;stroke-width:1.5;"/><text fill="#000000" font-family="sans-serif" font-size="14" lengthAdjust="spacing" textLength="207" x="1351.5" y="410.9659">Identity Management Backend</text><text fill="#000000" font-family="sans-serif" font-size="14" lengthAdjust="spacing" textLength="22" x="1351.5" y="430.0339">API</text><!--MD5=[838a8f8ee09da76e2984218500383e54]
entity LTF--><rect fill="#F8F8F8" height="68.1358" style="stroke:#383838;stroke-width:1.5;" width="231" x="332.5" y="200"/><rect fill="#F8F8F8" height="10" style="stroke:#383838;stroke-width:1.5;" width="15" x="543.5" y="205"/><rect fill="#F8F8F8" height="2" style="stroke:#383838;stroke-width:1.5;" width="4" x="541.5" y="207"/><rect fill="#F8F8F8" height="2" style="stroke:#383838;stroke-width:1.5;" width="4" x="541.5" y="211"/><text fill="#000000" font-family="sans-serif" font-size="14" font-style="italic" lengthAdjust="spacing" textLength="76" x="405" y="234.9659">«Container»</text><text fill="#000000" font-family="sans-serif" font-size="14" lengthAdjust="spacing" textLength="191" x="347.5" y="254.0339">Fleet Management Frontend</text><!--MD5=[96142bef19f749aced95310868fd618c]
entity DRF--><rect fill="#F8F8F8" height="68.1358" style="stroke:#383838;stroke-width:1.5;" width="207" x="598.5" y="200"/><rect fill="#F8F8F8" height="10" style="stroke:#383838;stroke-width:1.5;" width="15" x="785.5" y="205"/><rect fill="#F8F8F8" height="2" style="stroke:#383838;stroke-width:1.5;" width="4" x="783.5" y="207"/><rect fill="#F8F8F8" height="2" style="stroke:#383838;stroke-width:1.5;" width="4" x="783.5" y="211"/><text fill="#000000" font-family="sans-serif" font-size="14" font-style="italic" lengthAdjust="spacing" textLength="76" x="659" y="234.9659">«Container»</text><text fill="#000000" font-family="sans-serif" font-size="14" lengthAdjust="spacing" textLength="167" x="613.5" y="254.0339">Device Records Frontend</text><!--MD5=[248285276881d4606f81bc6a8b2e8491]
entity DPF--><rect fill="#F8F8F8" height="68.1358" style="stroke:#383838;stroke-width:1.5;" width="205" x="840.5" y="200"/><rect fill="#F8F8F8" height="10" style="stroke:#383838;stroke-width:1.5;" width="15" x="1025.5" y="205"/><rect fill="#F8F8F8" height="2" style="stroke:#383838;stroke-width:1.5;" width="4" x="1023.5" y="207"/><rect fill="#F8F8F8" height="2" style="stroke:#383838;stroke-width:1.5;" width="4" x="1023.5" y="211"/><text fill="#000000" font-family="sans-serif" font-size="14" font-style="italic" lengthAdjust="spacing" textLength="76" x="900" y="234.9659">«Container»</text><text fill="#000000" font-family="sans-serif" font-size="14" lengthAdjust="spacing" textLength="165" x="855.5" y="254.0339">Data Processor Frontend</text><!--MD5=[0f79541ed0c8aaa3c5e11769662e376a]
entity DDF--><rect fill="#F8F8F8" height="68.1358" style="stroke:#383838;stroke-width:1.5;" width="196" x="1081" y="200"/><rect fill="#F8F8F8" height="10" style="stroke:#383838;stroke-width:1.5;" width="15" x="1257" y="205"/><rect fill="#F8F8F8" height="2" style="stroke:#383838;stroke-width:1.5;" width="4" x="1255" y="207"/><rect fill="#F8F8F8" height="2" style="stroke:#383838;stroke-width:1.5;" width="4" x="1255" y="211"/><text fill="#000000" font-family="sans-serif" font-size="14" font-style="italic" lengthAdjust="spacing" textLength="76" x="1136" y="234.9659">«Container»</text><text fill="#000000" font-family="sans-serif" font-size="14" lengthAdjust="spacing" textLength="156" x="1096" y="254.0339">Data Decoder Frontend</text><!--MD5=[420f441a0026e2b5cfd5cbc418dc641e]
entity IAMF--><rect fill="#F8F8F8" height="68.1358" style="stroke:#383838;stroke-width:1.5;" width="251" x="1312.5" y="200"/><rect fill="#F8F8F8" height="10" style="stroke:#383838;stroke-width:1.5;" width="15" x="1543.5" y="205"/><rect fill="#F8F8F8" height="2" style="stroke:#383838;stroke-width:1.5;" width="4" x="1541.5" y="207"/><rect fill="#F8F8F8" height="2" style="stroke:#383838;stroke-width:1.5;" width="4" x="1541.5" y="211"/><text fill="#000000" font-family="sans-serif" font-size="14" font-style="italic" lengthAdjust="spacing" textLength="76" x="1395" y="234.9659">«Container»</text><text fill="#000000" font-family="sans-serif" font-size="14" lengthAdjust="spacing" textLength="211" x="1327.5" y="254.0339">Identity Management Frontend</text><!--MD5=[c42ed81cef7fdd2e33758127945b9a5b]
entity UI--><ellipse cx="297" cy="14" fill="#F8F8F8" rx="8" ry="8" style="stroke:#383838;stroke-width:1.5;"/><text fill="#000000" font-family="sans-serif" font-size="14" lengthAdjust="spacing" textLength="15" x="289.5" y="45.9659">UI</text><!--MD5=[259fb42cf3d26cb196e8dd6a3316d2da]
entity IN_ENDPOINT--><ellipse cx="399" cy="1249" fill="#F8F8F8" rx="8" ry="8" style="stroke:#383838;stroke-width:1.5;"/><text fill="#000000" font-family="sans-serif" font-size="14" lengthAdjust="spacing" textLength="105" x="346.5" y="1280.9659">Helium Console</text><text fill="#000000" font-family="sans-serif" font-size="14" lengthAdjust="spacing" textLength="55" x="346.5" y="1300.0339">Rest API</text><!--MD5=[afc237a62bcbc223788cf4186cf15a19]
entity AUTH_ENDPOINT--><ellipse cx="1991" cy="379" fill="#F8F8F8" rx="8" ry="8" style="stroke:#383838;stroke-width:1.5;"/><text fill="#000000" font-family="sans-serif" font-size="14" lengthAdjust="spacing" textLength="174" x="1904" y="410.9659">Azure Active Directory API</text><!--MD5=[f4e8558bdfd34d143e2b3a3a6b6a0612]
link LTB to QUESTDB_API--><path d="M140.52,558.03 C124.97,575.2 106.49,596.95 92,618 C84.86,628.37 78.13,640.84 73.17,650.72 " fill="none" id="LTB-to-QUESTDB_API" style="stroke:#383838;stroke-width:1.0;"/><path d="M77.661,660.8376 A9,9 0 0 0 62.4558 653.4281" style="stroke:#383838;stroke-width:1.5;fill:none;"/><!--MD5=[666d4f6c4a9dcee25ffe6d0afb7e8f5c]
link DS to MONGODB_API--><path d="M789,848.17 C789,876.68 789,916.75 789,939.77 " fill="none" id="DS-to-MONGODB_API" style="stroke:#383838;stroke-width:1.0;"/><path d="M797.4572,946.7718 A9,9 0 0 0 780.5428 946.7718" style="stroke:#383838;stroke-width:1.5;fill:none;"/><!--MD5=[e2bb4535729e8a781cd7ddd238ff39ed]
link DDG to DDG_API--><path d="M399,848.17 C399,881.5 399,930.61 399,949.85 " fill="none" id="DDG-DDG_API" style="stroke:#383838;stroke-width:1.0;"/><!--MD5=[2ce34add2b5ce20f8ce4e95f98c36a08]
link DPB_API to DPB--><path d="M924.66,388.1 C923.85,407.3 921.79,456.48 920.39,489.84 " fill="none" id="DPB_API-DPB" style="stroke:#383838;stroke-width:1.0;"/><!--MD5=[59e9934805f030958328ba9ce18eae22]
link DDMB_API to DDB--><path d="M1198.34,388.1 C1199.15,407.3 1201.21,456.48 1202.61,489.84 " fill="none" id="DDMB_API-DDB" style="stroke:#383838;stroke-width:1.0;"/><!--MD5=[a28acdb8ad4d91f65f1547077cd4da90]
link DRB_API to DRB--><path d="M548,388.1 C533.76,407.3 497.31,456.48 472.58,489.84 " fill="none" id="DRB_API-DRB" style="stroke:#383838;stroke-width:1.0;"/><!--MD5=[a49ced7e0e2c181cc8f4092b7128644c]
link MB to MB_API--><path d="M703.25,558.17 C722.6,591.5 751.1,640.61 762.27,659.85 " fill="none" id="MB-MB_API" style="stroke:#383838;stroke-width:1.0;"/><!--MD5=[8b4f74b634f1475be71ae4e68775c50f]
link DRDB_API to DRDB--><path d="M425.02,669 C436.78,669 448.53,669 460.29,669 " fill="none" id="DRDB_API-DRDB" style="stroke:#383838;stroke-width:1.0;"/><!--MD5=[b803d99af0ae985ed616150254b01076]
link DPDB_API to DPDB--><path d="M882.03,669 C906.09,669 930.15,669 954.21,669 " fill="none" id="DPDB_API-DPDB" style="stroke:#383838;stroke-width:1.0;"/><!--MD5=[49f42865f557468d2f2196832c700268]
link DDDB_API to DDDB--><path d="M1215.14,669 C1239.06,669 1262.97,669 1286.89,669 " fill="none" id="DDDB_API-DDDB" style="stroke:#383838;stroke-width:1.0;"/><!--MD5=[f8ab6405777897dd197ac25dc1a90077]
link IAMDB_API to IAMDB--><path d="M1538.34,669 C1562.27,669 1586.2,669 1610.12,669 " fill="none" id="IAMDB_API-IAMDB" style="stroke:#383838;stroke-width:1.0;"/><!--MD5=[4e1349c460729a9b0a875c8c8e490147]
link LTB_API to LTB--><path d="M233.32,388.1 C224.59,407.3 202.24,456.48 187.07,489.84 " fill="none" id="LTB_API-LTB" style="stroke:#383838;stroke-width:1.0;"/><!--MD5=[69b8e1d41075f4ba52d7f07836d4dfc6]
link IAMB_API to IAMB--><path d="M1460.44,388.1 C1473.33,407.3 1506.34,456.48 1528.74,489.84 " fill="none" id="IAMB_API-IAMB" style="stroke:#383838;stroke-width:1.0;"/><!--MD5=[9467590f772bdba1939f43218646f943]
link UI to UIAG--><path d="M297,23.02 C297,32.6975 297,50.3288 297,71.413 C297,81.9551 297,93.3604 297,105.0664 C297,110.9194 297,116.8476 297,122.7806 C297,125.7471 297,128.7148 297,131.6749 C297,132.4149 297,133.1545 297,133.8934 " fill="none" id="UI-UIAG" style="stroke:#383838;stroke-width:1.0;"/><!--MD5=[8abd4cb10c03f79d1001485a53a7e496]
link MONGODB_API to MONGODB--><path d="M789,968.1 C789,987.3 789,1036.48 789,1069.84 " fill="none" id="MONGODB_API-MONGODB" style="stroke:#383838;stroke-width:1.0;"/><!--MD5=[a43445fa678732e5a8e288cde82788b9]
link QUESTDB_API to QUESTDB--><path d="M74.2,669 C85.94,669 97.68,669 109.42,669 " fill="none" id="QUESTDB_API-QUESTDB" style="stroke:#383838;stroke-width:1.0;"/><!--MD5=[c0fd3909471f57f2e33cdcce01cab375]
link DRB to DRDB_API--><path d="M440.58,558.17 C434.17,586.81 425.15,627.11 420.01,650.09 " fill="none" id="DRB-to-DRDB_API" style="stroke:#383838;stroke-width:1.0;"/><path d="M426.7456,658.695 A9,9 0 0 0 410.2402 654.9976" style="stroke:#383838;stroke-width:1.5;fill:none;"/><!--MD5=[2a116551cadb0e31a294f79f96b7d0e8]
reverse link DRDB_API to DRSB--><path d="M406.91,686.86 C400.52,697.48 391.13,710.85 380,720 C349.38,745.18 310.84,765.08 275.59,779.9 " fill="none" id="DRDB_API-backto-DRSB" style="stroke:#383838;stroke-width:1.0;"/><path d="M403.0391,676.5714 A9,9 0 0 0 417.7294 684.9555" style="stroke:#383838;stroke-width:1.5;fill:none;"/><!--MD5=[9e9727de12a17706c1cd8578c2cdfff0]
link DPB to DPDB_API--><path d="M908.33,558.17 C899.12,586.81 886.15,627.11 878.76,650.09 " fill="none" id="DPB-to-DPDB_API" style="stroke:#383838;stroke-width:1.0;"/><path d="M884.6133,659.5027 A9,9 0 0 0 868.5075 654.3353" style="stroke:#383838;stroke-width:1.5;fill:none;"/><!--MD5=[09e5cfaebc4f078dd1c446f8d02476f6]
link DDB to DDDB_API--><path d="M1204.46,558.17 C1204.86,586.68 1205.42,626.75 1205.75,649.77 " fill="none" id="DDB-to-DDDB_API" style="stroke:#383838;stroke-width:1.0;"/><path d="M1214.3024,656.6513 A9,9 0 0 0 1197.3897 656.8929" style="stroke:#383838;stroke-width:1.5;fill:none;"/><!--MD5=[744d6804e8f90931804de20d14548bc8]
reverse link DPDB_API to DPSB--><path d="M883.98,686.64 C890.8,696.61 899.97,709.38 909,720 C926.75,740.87 948.29,762.61 966.18,779.82 " fill="none" id="DPDB_API-backto-DPSB" style="stroke:#383838;stroke-width:1.0;"/><path d="M872.9236,685.3593 A9,9 0 0 0 886.9675 675.9323" style="stroke:#383838;stroke-width:1.5;fill:none;"/><!--MD5=[4ea90019ffe25294402b56f13a28f015]
reverse link DDDB_API to DDSB--><path d="M1214.07,687.23 C1224.78,710.08 1243.91,750.91 1257.47,779.84 " fill="none" id="DDDB_API-backto-DDSB" style="stroke:#383838;stroke-width:1.0;"/><path d="M1203.4373,684.4752 A9,9 0 0 0 1218.7544 677.2998" style="stroke:#383838;stroke-width:1.5;fill:none;"/><!--MD5=[63895ce6c5493db99b7d360634b43977]
link IAMB to IAMDB_API--><path d="M1545.9,558.17 C1541.51,586.68 1535.35,626.75 1531.8,649.77 " fill="none" id="IAMB-to-IAMDB_API" style="stroke:#383838;stroke-width:1.0;"/><path d="M1539.0787,658.1022 A9,9 0 0 0 1522.3634 655.5139" style="stroke:#383838;stroke-width:1.5;fill:none;"/><!--MD5=[f8e1f7fe36c7db7d1e25ccdbb3451237]
reverse link IAMDB_API to IAMSB--><path d="M1534.12,687.85 C1540.7,710.82 1552.27,751.17 1560.49,779.84 " fill="none" id="IAMDB_API-backto-IAMSB" style="stroke:#383838;stroke-width:1.0;"/><path d="M1524.039,683.3903 A9,9 0 0 0 1540.2981 678.7276" style="stroke:#383838;stroke-width:1.5;fill:none;"/><!--MD5=[632ffee6b860cfc9bcac06b852135104]
link LTF to LTB_API--><path d="M399.06,268.17 C352.94,299.42 286.36,344.55 254.83,365.91 " fill="none" id="LTF-to-LTB_API" style="stroke:#383838;stroke-width:1.0;"/><path d="M253.5323,377.0147 A9,9 0 0 0 244.0443 363.012" style="stroke:#383838;stroke-width:1.5;fill:none;"/><!--MD5=[c79a097c724fe0e0f2917688b6d391b3]
link DPF to DPB_API--><path d="M938.83,268.17 C935.24,296.68 930.19,336.75 927.29,359.77 " fill="none" id="DPF-to-DPB_API" style="stroke:#383838;stroke-width:1.0;"/><path d="M934.8069,367.8586 A9,9 0 0 0 918.0264 365.7338" style="stroke:#383838;stroke-width:1.5;fill:none;"/><!--MD5=[b227ff14bf80f039a98778aad3367c7c]
link DDF to DDMB_API--><path d="M1183.41,268.17 C1187.2,296.68 1192.52,336.75 1195.58,359.77 " fill="none" id="DDF-to-DDMB_API" style="stroke:#383838;stroke-width:1.0;"/><path d="M1204.8994,365.6871 A9,9 0 0 0 1188.1316 367.9099" style="stroke:#383838;stroke-width:1.5;fill:none;"/><!--MD5=[99639326d43e115e35ef3e6d4e64f760]
link DRF to DRB_API--><path d="M667.67,268.17 C636.81,297.98 592.88,340.43 569.71,362.82 " fill="none" id="DRF-to-DRB_API" style="stroke:#383838;stroke-width:1.0;"/><path d="M570.5203,373.7929 A9,9 0 0 0 558.7669 361.6292" style="stroke:#383838;stroke-width:1.5;fill:none;"/><!--MD5=[c2a059fa38ebf4cd8cea5a77008cae01]
link IAMF to IAMB_API--><path d="M1441.94,268.17 C1445.33,296.68 1450.1,336.75 1452.83,359.77 " fill="none" id="IAMF-to-IAMB_API" style="stroke:#383838;stroke-width:1.0;"/><path d="M1462.0683,365.8021 A9,9 0 0 0 1445.2703 367.784" style="stroke:#383838;stroke-width:1.5;fill:none;"/><!--MD5=[432dc558a2903d0c88606da1e4b84e79]
link LTB to MB_API--><path d="M285.62,554.09 C291.82,555.47 297.98,556.78 304,558 C472.86,592.26 525.57,557.79 687,618 C710.35,626.71 734.2,642.73 749.71,654.29 " fill="none" id="LTB-to-MB_API" style="stroke:#383838;stroke-width:1.0;"/><path d="M760.5102,651.9046 A9,9 0 0 0 750.223 665.3311" style="stroke:#383838;stroke-width:1.5;fill:none;"/><!--MD5=[fc219f88c7305afccf9ee7f03fbee597]
link DRB to MB_API--><path d="M545.15,558.1 C589.27,574.32 641.63,595.25 687,618 C709.52,629.29 733.86,645.07 749.7,655.86 " fill="none" id="DRB-to-MB_API" style="stroke:#383838;stroke-width:1.0;"/><path d="M760.2452,652.8623 A9,9 0 0 0 750.6299 666.778" style="stroke:#383838;stroke-width:1.5;fill:none;"/><!--MD5=[bd6506aec457832c64900678c8a36085]
link DPB to MB_API--><path d="M883.75,558.17 C852.05,587.98 806.94,630.43 783.14,652.82 " fill="none" id="DPB-to-MB_API" style="stroke:#383838;stroke-width:1.0;"/><path d="M783.6936,663.9072 A9,9 0 0 0 772.1138 651.5781" style="stroke:#383838;stroke-width:1.5;fill:none;"/><!--MD5=[35d5b0cf8656a2a3e2d51129f2883501]
link DDB to MB_API--><path d="M1082.41,554.74 C987.83,578.2 869.06,608.5 847,618 C824.11,627.86 800.18,643.66 784.52,654.86 " fill="none" id="DDB-to-MB_API" style="stroke:#383838;stroke-width:1.0;"/><path d="M783.8016,665.8574 A9,9 0 0 0 773.8315 652.1938" style="stroke:#383838;stroke-width:1.5;fill:none;"/><!--MD5=[6cec0805044b8c7bd6c8568bb31663b6]
link IAMB to MB_API--><path d="M1427.38,545.38 C1399.64,549.74 1370.34,554.18 1343,558 C1123.09,588.74 1056.38,544.06 847,618 C823.5,626.3 799.68,642.39 784.22,654.09 " fill="none" id="IAMB-to-MB_API" style="stroke:#383838;stroke-width:1.0;"/><path d="M783.7656,665.1502 A9,9 0 0 0 773.3711 651.8065" style="stroke:#383838;stroke-width:1.5;fill:none;"/><!--MD5=[2ec24f299e3d9e617264576001492333]
reverse link MB_API to DS--><path d="M769.79,688.16 C773.34,711.19 779.51,751.3 783.9,779.84 " fill="none" id="MB_API-backto-DS" style="stroke:#383838;stroke-width:1.0;"/><path d="M760.3564,682.4232 A9,9 0 0 0 777.0758 679.8622" style="stroke:#383838;stroke-width:1.5;fill:none;"/><!--MD5=[d4c082d25ee43c9afc95252f74b250f6]
reverse link MB_API to DDG--><path d="M749.4,682.97 C733.7,694.05 709.73,709.79 687,720 C600.8,758.74 572.4,749.36 483,780 C477.22,781.98 471.25,784.12 465.29,786.33 " fill="none" id="MB_API-backto-DDG" style="stroke:#383838;stroke-width:1.0;"/><path d="M750.1943,671.9894 A9,9 0 0 0 760.0667 685.7239" style="stroke:#383838;stroke-width:1.5;fill:none;"/><!--MD5=[c91b62f34c05043fdf0a0a710fc88a2f]
reverse link MB_API to DVB--><path d="M750.04,684.35 C723.83,706.53 672.81,749.7 637.13,779.89 " fill="none" id="MB_API-backto-DVB" style="stroke:#383838;stroke-width:1.0;"/><path d="M750.0965,673.2235 A9,9 0 0 0 761.0245 686.1339" style="stroke:#383838;stroke-width:1.5;fill:none;"/><!--MD5=[f5861c988f5bbdb459e82ef8bad207d0]
reverse link MB_API to DRSB--><path d="M749.7,683.68 C734.18,695.23 710.33,711.23 687,720 C530.64,778.76 479.81,747.35 316,780 C310.16,781.16 304.2,782.4 298.18,783.68 " fill="none" id="MB_API-backto-DRSB" style="stroke:#383838;stroke-width:1.0;"/><path d="M750.2284,672.6403 A9,9 0 0 0 760.5004 686.0785" style="stroke:#383838;stroke-width:1.5;fill:none;"/><!--MD5=[4c33b7b32d89136423a3676fa2f98ee6]
reverse link MB_API to DPSB--><path d="M784.8,681.25 C800.97,691.45 825.52,706.84 847,720 C879.78,740.08 916.68,762.24 946.25,779.88 " fill="none" id="MB_API-backto-DPSB" style="stroke:#383838;stroke-width:1.0;"/><path d="M774.4153,684.704 A9,9 0 0 0 783.4494 670.4041" style="stroke:#383838;stroke-width:1.5;fill:none;"/><!--MD5=[e84923dcbbd4ef89f489360ab7714450]
reverse link MB_API to DDSB--><path d="M784.39,683.44 C799.97,694.84 823.86,710.75 847,720 C970.43,769.34 1010.36,750.66 1140,780 C1145.68,781.29 1151.5,782.63 1157.37,784.01 " fill="none" id="MB_API-backto-DDSB" style="stroke:#383838;stroke-width:1.0;"/><path d="M773.6481,685.9557 A9,9 0 0 0 783.7813 672.4125" style="stroke:#383838;stroke-width:1.5;fill:none;"/><!--MD5=[4b659b098f6692bbe99cd23f815d3de1]
reverse link MB_API to IAMSB--><path d="M784.19,683.99 C799.64,695.74 823.45,711.86 847,720 C1083.16,801.62 1159.04,741.98 1406,780 C1412.75,781.04 1419.63,782.16 1426.58,783.35 " fill="none" id="MB_API-backto-IAMSB" style="stroke:#383838;stroke-width:1.0;"/><path d="M773.3343,686.2348 A9,9 0 0 0 783.7705 672.9237" style="stroke:#383838;stroke-width:1.5;fill:none;"/><!--MD5=[59102a87a4d94a16034c88bc26e4734d]
link DR to IN_ENDPOINT--><path d="M399,1138.17 C399,1171.5 399,1220.61 399,1239.85 " fill="none" id="DR-IN_ENDPOINT" style="stroke:#383838;stroke-width:1.0;"/><!--MD5=[ae3611b2a0d706c1425a5b98056c682e]
reverse link DDG_API to DR--><path d="M399,978.16 C399,1001.19 399,1041.3 399,1069.84 " fill="none" id="DDG_API-backto-DR" style="stroke:#383838;stroke-width:1.0;"/><path d="M390.5428,971.1782 A9,9 0 0 0 407.4572 971.1782" style="stroke:#383838;stroke-width:1.5;fill:none;"/><!--MD5=[9a64a9b8cb51b30f3b09a54837122601]
link IAMF to AUTH_ENDPOINT--><path d="M1563.72,254.01 C1653.22,269.33 1775.63,293.96 1880,328 C1919.18,340.78 1963.08,363.1 1981.77,373.01 " fill="none" id="IAMF-AUTH_ENDPOINT" style="stroke:#383838;stroke-width:1.0;"/><!--MD5=[8a64f5a3a00d329206648e92ad09efa6]
link AUTH_ENDPOINT to IAMB--><path d="M1981.98,384.62 C1963.31,394.04 1918.92,415.82 1880,430 C1813.21,454.33 1736.92,476.25 1674.63,492.69 " fill="none" id="AUTH_ENDPOINT-IAMB" style="stroke:#383838;stroke-width:1.0;"/><!--MD5=[1ad99745ac3d30be2a9434061d539c1b]
link IAMB to IAMSB--><!--MD5=[1ad99745ac3d30be2a9434061d539c1b]
link IAMB to IAMSB--><!--MD5=[d387c5a590276bccf01dec506a0c9038]
link DRB to DRSB--><!--MD5=[1518cb54aa1e64367f90b26262131aaf]
link DDB to DDSB--><!--MD5=[0b5cdaeb77017672c62d7621ce241c34]
link DPB to DPSB--><!--MD5=[cd0610d6084392778965d59ce4379898]
@startuml logical-view-level2

skinparam Monochrome true
skinparam sequenceMessageAlign center
skinparam Shadowing false
skinparam componentStyle uml2
skinparam packageStyle rectangle

interface "UI" as UI

interface "Helium Console\nRest API" as IN_ENDPOINT

interface "Azure Active Directory API" as AUTH_ENDPOINT

component "Environment" <<System>> {
    component "UI Aggregator" as UIAG <<Container>> {
        component "Fleet Management Frontend" as LTF <<Container>>
        component "Device Records Frontend" as DRF <<Container>>
        component "Data Processor Frontend" as DPF <<Container>>
        component "Data Decoder Frontend" as DDF <<Container>>
        component "Identity Management Frontend" as IAMF <<Container>>
    }
    component "Fleet Management Backend" as LTB <<Container>>
    component "Message Broker" as MB <<Container>>
    component "Device Records Master Backend" as DRB <<Container>>
    component "Device Records Slave Backend" as DRSB <<Container>>
    component "Data Gateway" as DDG <<Container>>
    component "Data Relayer" as DR <<Container>>
    component "Data Processor Slave Backend" as DPSB <<Container>>
    component "Data Processor Master Backend" as DPB <<Container>>
    component "Data Decoder Slave Backend" as DDSB <<Container>>
    component "Data Decoder Master Backend" as DDB <<Container>>
    component "Data Validator Backend" as DVB <<Container>>
    component "Device Records Database" as DRDB <<Container>>
    component "Data Processor Database" as DPDB <<Container>>
    component "Data Decoder Database" as DDDB <<Container>>
    component "Identity Management Database" as IAMDB <<Container>>
    component "Data Store" as DS <<Container>>
    component "Fleet Managemnt Database" as QUESTDB <<Container>>
    component "Data Store Database" as MONGODB <<Container>>
    component "Identity Management Backend" as IAMB <<Container>>
    component "Identity Management Slave Backend" as IAMSB <<Container>>

    interface "Message Broker\nAPI" as MB_API
    interface "Fleet Management Backend\nAPI" as LTB_API
    interface "Device Records Master Backend\nAPI" as DRB_API
    interface "Data Processor Master Backend\nAPI" as DPB_API
    interface "Data Decoder Master Backend\nAPI" as DDMB_API
    interface "Device Records\nDatabase API" as DRDB_API
    interface "Data Processor\nDatabase API" as DPDB_API
    interface "Data Decoder\nDatabase API" as DDDB_API
    interface "Identity Management\nDatabase API" as IAMDB_API
    interface "Fleet Managemnt\nDatabase API" as QUESTDB_API
    interface "Data Store\nDatabase API" as MONGODB_API
    interface "Data Gateway\nAPI" as DDG_API
    interface "Identity Management Backend\nAPI" as IAMB_API

    LTB - -( QUESTDB_API
    DS - -( MONGODB_API
    DDG - - DDG_API
    DPB_API - - DPB
    DDMB_API - - DDB
    DRB_API - - DRB
    MB - - MB_API
    DRDB_API - DRDB
    DPDB_API - DPDB
    DDDB_API - DDDB
    IAMDB_API - IAMDB
    LTB_API - - LTB
    IAMB_API - - IAMB
    UI - - UIAG
    MONGODB_API - - MONGODB
    QUESTDB_API - QUESTDB
    DRB - -( DRDB_API
    DRDB_API )- - DRSB
    DPB - -( DPDB_API
    DDB - -( DDDB_API
    DPDB_API )- - DPSB
    DDDB_API )- - DDSB
    IAMB - -( IAMDB_API
    IAMDB_API )- - IAMSB
    LTF - -( LTB_API
    DPF - -( DPB_API
    DDF - -( DDMB_API
    DRF - -( DRB_API
    IAMF - -( IAMB_API

    LTB - -( MB_API
    DRB - -( MB_API
    DPB - -( MB_API
    DDB - -( MB_API
    IAMB - -( MB_API
    MB_API )- - DS
    MB_API )- - DDG
    MB_API )- - DVB
    MB_API )- - DRSB
    MB_API )- - DPSB
    MB_API )- - DDSB
    MB_API )- - IAMSB

    DR - - IN_ENDPOINT
    DDG_API )- - DR

    IAMF - - AUTH_ENDPOINT
    AUTH_ENDPOINT - - IAMB

    IAMB - -[hidden]- IAMSB
    DRB - -[hidden]- DRSB
    DDB - -[hidden]- DDSB
    DPB - -[hidden]- DPSB
    IAMB - -[hidden]- IAMSB

}

@enduml

PlantUML version 1.2021.16(Wed Dec 08 17:25:22 WET 2021)
(GPL source distribution)
Java Runtime: OpenJDK Runtime Environment
JVM: OpenJDK 64-Bit Server VM
Default Encoding: UTF-8
Language: en
Country: GB
--></g></svg>