<?xml version="1.0" encoding="UTF-8" standalone="no"?><svg xmlns="http://www.w3.org/2000/svg" xmlns:xlink="http://www.w3.org/1999/xlink" contentStyleType="text/css" height="528px" preserveAspectRatio="none" style="width:709px;height:528px;background:#FFFFFF;" version="1.1" viewBox="0 0 709 528" width="709px" zoomAndPan="magnify"><defs/><g><!--MD5=[8ad42e69c823d91e931492f14bc2a1bb]
entity S--><g id="elem_S"><rect fill="#F1F1F1" height="49.0679" rx="2.5" ry="2.5" style="stroke:#181818;stroke-width:0.5;" width="88" x="322.5" y="197.13"/><rect fill="#F1F1F1" height="10" style="stroke:#181818;stroke-width:0.5;" width="15" x="390.5" y="202.13"/><rect fill="#F1F1F1" height="2" style="stroke:#181818;stroke-width:0.5;" width="4" x="388.5" y="204.13"/><rect fill="#F1F1F1" height="2" style="stroke:#181818;stroke-width:0.5;" width="4" x="388.5" y="208.13"/><text fill="#000000" font-family="sans-serif" font-size="14" lengthAdjust="spacing" textLength="48" x="337.5" y="232.0959">System</text></g><!--MD5=[fef35d5d86525b69a6366e4548c0ec5e]
entity HC--><g id="elem_HC"><rect fill="#F1F1F1" height="49.0679" rx="2.5" ry="2.5" style="stroke:#181818;stroke-width:0.5;" width="145" x="294" y="335.13"/><rect fill="#F1F1F1" height="10" style="stroke:#181818;stroke-width:0.5;" width="15" x="419" y="340.13"/><rect fill="#F1F1F1" height="2" style="stroke:#181818;stroke-width:0.5;" width="4" x="417" y="342.13"/><rect fill="#F1F1F1" height="2" style="stroke:#181818;stroke-width:0.5;" width="4" x="417" y="346.13"/><text fill="#000000" font-family="sans-serif" font-size="14" lengthAdjust="spacing" textLength="105" x="309" y="370.0959">Helium Console</text></g><!--MD5=[6cb5d63f37a67a4cf04b706d03a77bd8]
entity AAD--><g id="elem_AAD"><rect fill="#F1F1F1" height="49.0679" rx="2.5" ry="2.5" style="stroke:#181818;stroke-width:0.5;" width="188" x="507" y="59.13"/><rect fill="#F1F1F1" height="10" style="stroke:#181818;stroke-width:0.5;" width="15" x="675" y="64.13"/><rect fill="#F1F1F1" height="2" style="stroke:#181818;stroke-width:0.5;" width="4" x="673" y="66.13"/><rect fill="#F1F1F1" height="2" style="stroke:#181818;stroke-width:0.5;" width="4" x="673" y="70.13"/><text fill="#000000" font-family="sans-serif" font-size="14" lengthAdjust="spacing" textLength="148" x="522" y="94.0959">Azure Active Directory</text></g><!--MD5=[4061b870dc80a092bb82ced15bd4be48]
entity GIP--><g id="elem_GIP"><rect fill="#F1F1F1" height="49.0679" rx="2.5" ry="2.5" style="stroke:#181818;stroke-width:0.5;" width="204" x="499" y="197.13"/><rect fill="#F1F1F1" height="10" style="stroke:#181818;stroke-width:0.5;" width="15" x="683" y="202.13"/><rect fill="#F1F1F1" height="2" style="stroke:#181818;stroke-width:0.5;" width="4" x="681" y="204.13"/><rect fill="#F1F1F1" height="2" style="stroke:#181818;stroke-width:0.5;" width="4" x="681" y="208.13"/><text fill="#000000" font-family="sans-serif" font-size="14" lengthAdjust="spacing" textLength="164" x="514" y="232.0959">Google Identity Platform</text></g><!--MD5=[2a4a9f02db2d080640020709b526018d]
entity SMS--><g id="elem_SMS"><rect fill="#F1F1F1" height="49.0679" rx="2.5" ry="2.5" style="stroke:#181818;stroke-width:0.5;" width="140" x="531" y="335.13"/><rect fill="#F1F1F1" height="10" style="stroke:#181818;stroke-width:0.5;" width="15" x="651" y="340.13"/><rect fill="#F1F1F1" height="2" style="stroke:#181818;stroke-width:0.5;" width="4" x="649" y="342.13"/><rect fill="#F1F1F1" height="2" style="stroke:#181818;stroke-width:0.5;" width="4" x="649" y="346.13"/><text fill="#000000" font-family="sans-serif" font-size="14" lengthAdjust="spacing" textLength="100" x="546" y="370.0959">Twilio Paltform</text></g><!--MD5=[42d1152030852541868f417af9fe4184]
entity EMAIL--><g id="elem_EMAIL"><rect fill="#F1F1F1" height="49.0679" rx="2.5" ry="2.5" style="stroke:#181818;stroke-width:0.5;" width="189" x="506.5" y="473.13"/><rect fill="#F1F1F1" height="10" style="stroke:#181818;stroke-width:0.5;" width="15" x="675.5" y="478.13"/><rect fill="#F1F1F1" height="2" style="stroke:#181818;stroke-width:0.5;" width="4" x="673.5" y="480.13"/><rect fill="#F1F1F1" height="2" style="stroke:#181818;stroke-width:0.5;" width="4" x="673.5" y="484.13"/><text fill="#000000" font-family="sans-serif" font-size="14" lengthAdjust="spacing" textLength="149" x="521.5" y="508.0959">Google Email Platform</text></g><!--MD5=[c42ed81cef7fdd2e33758127945b9a5b]
entity UI--><g id="elem_UI"><ellipse cx="207" cy="221.63" fill="#F1F1F1" rx="8" ry="8" style="stroke:#181818;stroke-width:0.5;"/><text fill="#000000" font-family="sans-serif" font-size="14" lengthAdjust="spacing" textLength="15" x="199.5" y="253.5959">UI</text></g><!--MD5=[4e39252b42436a746f03837e12c70454]
entity OUT_ENDPOINT--><g id="elem_OUT_ENDPOINT"><ellipse cx="207" cy="328.63" fill="#F1F1F1" rx="8" ry="8" style="stroke:#181818;stroke-width:0.5;"/><text fill="#000000" font-family="sans-serif" font-size="14" lengthAdjust="spacing" textLength="105" x="154.5" y="360.5959">Helium Console</text><text fill="#000000" font-family="sans-serif" font-size="14" lengthAdjust="spacing" textLength="55" x="154.5" y="379.6639">Rest API</text></g><!--MD5=[259fb42cf3d26cb196e8dd6a3316d2da]
entity IN_ENDPOINT--><g id="elem_IN_ENDPOINT"><ellipse cx="366.5" cy="290.63" fill="#F1F1F1" rx="8" ry="8" style="stroke:#181818;stroke-width:0.5;"/><text fill="#000000" font-family="sans-serif" font-size="14" lengthAdjust="spacing" textLength="105" x="314" y="322.5959">Sensae Console</text><text fill="#000000" font-family="sans-serif" font-size="14" lengthAdjust="spacing" textLength="55" x="314" y="341.6639">Rest API</text></g><!--MD5=[9bf587eac89f055900b72693e93d9e8d]
entity AZURE_ENDPOINT--><g id="elem_AZURE_ENDPOINT"><ellipse cx="601" cy="14.63" fill="#F1F1F1" rx="8" ry="8" style="stroke:#181818;stroke-width:0.5;"/><text fill="#000000" font-family="sans-serif" font-size="14" lengthAdjust="spacing" textLength="54" x="574" y="46.5959">AAD API</text></g><!--MD5=[0025b3cc4845cfca9624c236d34bcca7]
entity GOOGLE_ENDPOINT--><g id="elem_GOOGLE_ENDPOINT"><ellipse cx="601" cy="152.63" fill="#F1F1F1" rx="8" ry="8" style="stroke:#181818;stroke-width:0.5;"/><text fill="#000000" font-family="sans-serif" font-size="14" lengthAdjust="spacing" textLength="73" x="564.5" y="184.5959">Google API</text></g><!--MD5=[ca23f1947d61879ceff9b28749a6f09a]
entity SMS_ENDPOINT--><g id="elem_SMS_ENDPOINT"><ellipse cx="601" cy="290.63" fill="#F1F1F1" rx="8" ry="8" style="stroke:#181818;stroke-width:0.5;"/><text fill="#000000" font-family="sans-serif" font-size="14" lengthAdjust="spacing" textLength="65" x="568.5" y="322.5959">Twilio API</text></g><!--MD5=[b85e50571d55e45cdf64df7a8c1ecdbf]
entity EMAIL_ENDPOINT--><g id="elem_EMAIL_ENDPOINT"><ellipse cx="601" cy="428.63" fill="#F1F1F1" rx="8" ry="8" style="stroke:#181818;stroke-width:0.5;"/><text fill="#000000" font-family="sans-serif" font-size="14" lengthAdjust="spacing" textLength="155" x="523.5" y="460.5959">Google Email SMTP API</text></g><!--MD5=[0ba5ee7700168656dc1b457c6fe9fdac]
entity Client--><g id="elem_Client"><ellipse cx="63" cy="76.63" fill="#F1F1F1" rx="8" ry="8" style="stroke:#181818;stroke-width:0.5;"/><path d="M63,84.63 L63,111.63 M50,92.63 L76,92.63 M63,111.63 L50,126.63 M63,111.63 L76,126.63 " fill="none" style="stroke:#181818;stroke-width:0.5;"/><text fill="#000000" font-family="sans-serif" font-size="14" lengthAdjust="spacing" textLength="61" x="32.5" y="143.0959">Manager</text></g><!--MD5=[c2f1a89366393ba9d1417b32d43751eb]
entity Tenant--><g id="elem_Tenant"><ellipse cx="63" cy="190.63" fill="#F1F1F1" rx="8" ry="8" style="stroke:#181818;stroke-width:0.5;"/><path d="M63,198.63 L63,225.63 M50,206.63 L76,206.63 M63,225.63 L50,240.63 M63,225.63 L76,240.63 " fill="none" style="stroke:#181818;stroke-width:0.5;"/><text fill="#000000" font-family="sans-serif" font-size="14" lengthAdjust="spacing" textLength="47" x="39.5" y="257.0959">Tenant</text></g><!--MD5=[a19fd76602720cad983d8dcee301b333]
entity Anonymous--><g id="elem_Anonymous"><ellipse cx="63" cy="304.63" fill="#F1F1F1" rx="8" ry="8" style="stroke:#181818;stroke-width:0.5;"/><path d="M63,312.63 L63,339.63 M50,320.63 L76,320.63 M63,339.63 L50,354.63 M63,339.63 L76,354.63 " fill="none" style="stroke:#181818;stroke-width:0.5;"/><text fill="#000000" font-family="sans-serif" font-size="14" lengthAdjust="spacing" textLength="114" x="6" y="371.0959">Anonymous User</text></g><!--MD5=[ef993e5b14a62993190ab9517a0875ce]
link Client to UI--><g id="link_Client_UI"><path d="M93.77,131.53 C123.05,155.03 166.64,190.03 189.94,208.74 " fill="none" id="Client-to-UI" style="stroke:#181818;stroke-width:1.0;"/><path d="M200.7009,206.5269 A9,9 0 0 0 190.1169 219.7208" fill="none" style="stroke:#181818;stroke-width:1.5;"/></g><!--MD5=[89548d1324f0b7bded630d4afbeecbc3]
link Tenant to UI--><g id="link_Tenant_UI"><path d="M86.5,221.63 C114.44,221.63 161.58,221.63 187.51,221.63 " fill="none" id="Tenant-to-UI" style="stroke:#181818;stroke-width:1.0;"/><path d="M194.7118,213.1728 A9,9 0 0 0 194.7118 230.0872" fill="none" style="stroke:#181818;stroke-width:1.5;"/></g><!--MD5=[205d0011ec259d59e083ed7b3dc14da2]
link Anonymous to UI--><g id="link_Anonymous_UI"><path d="M113.27,296.08 C139.98,274.64 171.23,249.55 189.78,234.66 " fill="none" id="Anonymous-to-UI" style="stroke:#181818;stroke-width:1.0;"/><path d="M190.0927,223.5561 A9,9 0 0 0 200.6886 236.7405" fill="none" style="stroke:#181818;stroke-width:1.5;"/></g><!--MD5=[3e8ab27e271cab250bab3c48ba85ccff]
link UI to S--><g id="link_UI_S"><path d="M216.03,221.63 C235.33,221.63 285.5,221.63 322.42,221.63 " fill="none" id="UI-S" style="stroke:#181818;stroke-width:1.0;"/></g><!--MD5=[6a36b62b34d47aa063ab5a82c1fccdd4]
link S to IN_ENDPOINT--><g id="link_S_IN_ENDPOINT"><path d="M366.5,246.41 C366.5,258.09 366.5,269.78 366.5,281.47 " fill="none" id="S-IN_ENDPOINT" style="stroke:#181818;stroke-width:1.0;"/></g><!--MD5=[bc127966b4afce91dffdbedf0a909ed9]
link OUT_ENDPOINT to HC--><g id="link_OUT_ENDPOINT_HC"><path d="M216.03,330.21 C230.63,333.08 262.9,339.44 293.73,345.5 " fill="none" id="OUT_ENDPOINT-HC" style="stroke:#181818;stroke-width:1.0;"/></g><!--MD5=[1d278941987377a5cd3850ad7b8d5242]
link S to AZURE_ENDPOINT--><g id="link_S_AZURE_ENDPOINT"><path d="M378.6,197.11 C397.56,158.07 439.93,82.09 499,41.63 C524.39,24.24 560.44,18.04 581.9,15.84 " fill="none" id="S-to-AZURE_ENDPOINT" style="stroke:#181818;stroke-width:1.0;"/><path d="M588.1411,6.8272 A9,9 0 0 0 589.5438 23.6834" fill="none" style="stroke:#181818;stroke-width:1.5;"/></g><!--MD5=[9814c0f4d676e9dd944a0164fc7d5cdb]
link S to GOOGLE_ENDPOINT--><g id="link_S_GOOGLE_ENDPOINT"><path d="M410.58,207.3 C436.17,198.92 469.33,188.33 499,179.63 C527.95,171.14 561.89,162.29 582.13,157.13 " fill="none" id="S-to-GOOGLE_ENDPOINT" style="stroke:#181818;stroke-width:1.0;"/><path d="M586.7893,147.2276 A9,9 0 0 0 590.9428 163.6242" fill="none" style="stroke:#181818;stroke-width:1.5;"/></g><!--MD5=[7b4c6f4ee1ed8e5cfc635a93298c88ca]
link S to EMAIL_ENDPOINT--><g id="link_S_EMAIL_ENDPOINT"><path d="M410.84,241.22 C421.02,247.31 431.17,254.79 439,263.63 C483.35,313.69 448.32,357.99 499,401.63 C522.54,421.9 559.75,427.14 581.83,428.38 " fill="none" id="S-to-EMAIL_ENDPOINT" style="stroke:#181818;stroke-width:1.0;"/><path d="M589.0634,420.1623 A9,9 0 0 0 588.4838 437.0668" fill="none" style="stroke:#181818;stroke-width:1.5;"/></g><!--MD5=[47c17a86b80dd4d72ec38a427060e735]
link S to SMS_ENDPOINT--><g id="link_S_SMS_ENDPOINT"><path d="M410.58,235.96 C436.17,244.34 469.33,254.93 499,263.63 C527.95,272.12 561.89,280.97 582.13,286.13 " fill="none" id="S-to-SMS_ENDPOINT" style="stroke:#181818;stroke-width:1.0;"/><path d="M590.9428,279.6358 A9,9 0 0 0 586.7893 296.0324" fill="none" style="stroke:#181818;stroke-width:1.5;"/></g><!--MD5=[325ba49fe3754738734d19b3cc8e81cf]
reverse link IN_ENDPOINT to HC--><g id="link_IN_ENDPOINT_HC"><path d="M366.5,309.91 C366.5,318.31 366.5,326.7 366.5,335.1 " fill="none" id="IN_ENDPOINT-backto-HC" style="stroke:#181818;stroke-width:1.0;"/><path d="M358.0428,302.7382 A9,9 0 0 0 374.9572 302.7382" fill="none" style="stroke:#181818;stroke-width:1.5;"/></g><!--MD5=[b1f29ae9f75fa5ab0d492150aa0afdf9]
reverse link OUT_ENDPOINT to S--><g id="link_OUT_ENDPOINT_S"><path d="M224.14,315.54 C241.12,301.98 268.82,280.46 294,263.63 C302.98,257.63 312.83,251.54 322.28,245.93 " fill="none" id="OUT_ENDPOINT-backto-S" style="stroke:#181818;stroke-width:1.0;"/><path d="M224.0031,326.5108 A9,9 0 0 0 213.4191 313.3169" fill="none" style="stroke:#181818;stroke-width:1.5;"/></g><!--MD5=[77978f09c3b9095e40cd455fee909f5d]
link AZURE_ENDPOINT to AAD--><g id="link_AZURE_ENDPOINT_AAD"><path d="M601,23.66 C601,35.48 601,47.29 601,59.1 " fill="none" id="AZURE_ENDPOINT-AAD" style="stroke:#181818;stroke-width:1.0;"/></g><!--MD5=[8e5425d9e6b4021a6ae7175e4aff8aee]
link GOOGLE_ENDPOINT to GIP--><g id="link_GOOGLE_ENDPOINT_GIP"><path d="M601,161.66 C601,173.48 601,185.29 601,197.1 " fill="none" id="GOOGLE_ENDPOINT-GIP" style="stroke:#181818;stroke-width:1.0;"/></g><!--MD5=[947c78eac1145c539d3f6e5d1f3d78b3]
link SMS_ENDPOINT to SMS--><g id="link_SMS_ENDPOINT_SMS"><path d="M601,299.66 C601,311.48 601,323.29 601,335.1 " fill="none" id="SMS_ENDPOINT-SMS" style="stroke:#181818;stroke-width:1.0;"/></g><!--MD5=[af2cee0fbc15d17f78cee90d978718a0]
link EMAIL_ENDPOINT to EMAIL--><g id="link_EMAIL_ENDPOINT_EMAIL"><path d="M601,437.66 C601,449.48 601,461.29 601,473.1 " fill="none" id="EMAIL_ENDPOINT-EMAIL" style="stroke:#181818;stroke-width:1.0;"/></g><!--MD5=[763e7e3cbc7e6dce885e8224c7deb66b]
@startuml logical-view-level1

left to right direction

skinparam Monochrome true
skinparam sequenceMessageAlign center
skinparam componentStyle uml2
skinparam packageStyle rectangle

[System] as S
[Helium Console] as HC
[Azure Active Directory] as AAD
[Google Identity Platform] as GIP

[Twilio Paltform] as SMS
[Google Email Platform] as EMAIL

() "UI" as UI
() "Helium Console\nRest API" as OUT_ENDPOINT
() "Sensae Console\nRest API" as IN_ENDPOINT

() "AAD API" as AZURE_ENDPOINT
() "Google API" as GOOGLE_ENDPOINT

() "Twilio API" as SMS_ENDPOINT
() "Google Email SMTP API" as EMAIL_ENDPOINT

actor "Manager" as Client
actor "Tenant" as Tenant
actor "Anonymous User" as Anonymous

Client - -( UI
Tenant - -( UI
Anonymous - -( UI

UI - - S
S - IN_ENDPOINT
OUT_ENDPOINT - - HC
S - -( AZURE_ENDPOINT
S - -( GOOGLE_ENDPOINT
S - -( EMAIL_ENDPOINT
S - -( SMS_ENDPOINT

IN_ENDPOINT )- HC
OUT_ENDPOINT )- S
AZURE_ENDPOINT - AAD
GOOGLE_ENDPOINT - GIP

SMS_ENDPOINT - SMS
EMAIL_ENDPOINT - EMAIL

@enduml

PlantUML version 1.2022.4(Sat Apr 09 14:29:17 WEST 2022)
(GPL source distribution)
Java Runtime: OpenJDK Runtime Environment
JVM: OpenJDK 64-Bit Server VM
Default Encoding: UTF-8
Language: en
Country: GB
--></g></svg>