<?xml version="1.0" encoding="UTF-8" standalone="no"?><svg xmlns="http://www.w3.org/2000/svg" xmlns:xlink="http://www.w3.org/1999/xlink" contentStyleType="text/css" height="985px" preserveAspectRatio="none" style="width:516px;height:985px;background:#FFFFFF;" version="1.1" viewBox="0 0 516 985" width="516px" zoomAndPan="magnify"><defs/><g><!--MD5=[eaa8df03a5c149e7bfb99e60817f59b5]
cluster Fleet Management Backend--><g id="cluster_Fleet Management Backend"><rect height="972" rx="2.5" ry="2.5" style="stroke:#181818;stroke-width:1.0;fill:none;" width="503" x="7" y="7"/><rect height="10" style="stroke:#181818;stroke-width:1.0;fill:none;" width="15" x="490" y="12"/><rect height="2" style="stroke:#181818;stroke-width:1.0;fill:none;" width="4" x="488" y="14"/><rect height="2" style="stroke:#181818;stroke-width:1.0;fill:none;" width="4" x="488" y="18"/><text fill="#000000" font-family="sans-serif" font-size="14" font-weight="bold" lengthAdjust="spacing" textLength="193" x="162" y="34.9659">Fleet Management Backend</text></g><!--MD5=[70becb833e031d8ab2b25bb6fd041c2b]
cluster INFRA--><g id="cluster_INFRA"><rect height="484" rx="2.5" ry="2.5" style="stroke:#181818;stroke-width:1.0;fill:none;" width="455" x="31" y="53"/><rect height="10" style="stroke:#181818;stroke-width:1.0;fill:none;" width="15" x="466" y="58"/><rect height="2" style="stroke:#181818;stroke-width:1.0;fill:none;" width="4" x="464" y="60"/><rect height="2" style="stroke:#181818;stroke-width:1.0;fill:none;" width="4" x="464" y="64"/><text fill="#000000" font-family="sans-serif" font-size="14" font-weight="bold" lengthAdjust="spacing" textLength="97" x="210" y="80.9659">Infrastructure</text></g><!--MD5=[a97ab338b38943ab336923f22440b155]
cluster PERS--><g id="cluster_PERS"><rect height="227" rx="2.5" ry="2.5" style="stroke:#181818;stroke-width:1.0;fill:none;" width="132" x="55" y="286"/><rect height="10" style="stroke:#181818;stroke-width:1.0;fill:none;" width="15" x="167" y="291"/><rect height="2" style="stroke:#181818;stroke-width:1.0;fill:none;" width="4" x="165" y="293"/><rect height="2" style="stroke:#181818;stroke-width:1.0;fill:none;" width="4" x="165" y="297"/><text fill="#000000" font-family="sans-serif" font-size="14" font-weight="bold" lengthAdjust="spacing" textLength="79" x="81.5" y="313.9659">Persistence</text></g><!--MD5=[e827ccb1cbd1809ec2e49ef4b2081f6a]
cluster ENDPOINT--><g id="cluster_ENDPOINT"><rect height="227" rx="2.5" ry="2.5" style="stroke:#181818;stroke-width:1.0;fill:none;" width="251" x="211" y="286"/><rect height="10" style="stroke:#181818;stroke-width:1.0;fill:none;" width="15" x="442" y="291"/><rect height="2" style="stroke:#181818;stroke-width:1.0;fill:none;" width="4" x="440" y="293"/><rect height="2" style="stroke:#181818;stroke-width:1.0;fill:none;" width="4" x="440" y="297"/><text fill="#000000" font-family="sans-serif" font-size="14" font-weight="bold" lengthAdjust="spacing" textLength="63" x="305" y="313.9659">Endpoint</text></g><!--MD5=[711fc6413308d66a33499ee50e557b5d]
entity DOM--><g id="elem_DOM"><rect fill="#F1F1F1" height="49.0679" rx="2.5" ry="2.5" style="stroke:#181818;stroke-width:0.5;" width="92" x="222" y="914"/><rect fill="#F1F1F1" height="10" style="stroke:#181818;stroke-width:0.5;" width="15" x="294" y="919"/><rect fill="#F1F1F1" height="2" style="stroke:#181818;stroke-width:0.5;" width="4" x="292" y="921"/><rect fill="#F1F1F1" height="2" style="stroke:#181818;stroke-width:0.5;" width="4" x="292" y="925"/><text fill="#000000" font-family="sans-serif" font-size="14" lengthAdjust="spacing" textLength="52" x="237" y="948.9659">Domain</text></g><!--MD5=[cd187d11655e4367e900de538d2f1d0c]
entity APP--><g id="elem_APP"><rect fill="#F1F1F1" height="49.0679" rx="2.5" ry="2.5" style="stroke:#181818;stroke-width:0.5;" width="116" x="210" y="681"/><rect fill="#F1F1F1" height="10" style="stroke:#181818;stroke-width:0.5;" width="15" x="306" y="686"/><rect fill="#F1F1F1" height="2" style="stroke:#181818;stroke-width:0.5;" width="4" x="304" y="688"/><rect fill="#F1F1F1" height="2" style="stroke:#181818;stroke-width:0.5;" width="4" x="304" y="692"/><text fill="#000000" font-family="sans-serif" font-size="14" lengthAdjust="spacing" textLength="76" x="225" y="715.9659">Application</text></g><!--MD5=[0aefd3324de3ab8c3fd9c9ea0f687424]
entity DOM_API--><g id="elem_DOM_API"><ellipse cx="268" cy="822" fill="#F1F1F1" rx="8" ry="8" style="stroke:#181818;stroke-width:0.5;"/><text fill="#000000" font-family="sans-serif" font-size="14" lengthAdjust="spacing" textLength="78" x="229" y="853.9659">Domain API</text></g><!--MD5=[30d85f3125b7a53865e5f4719123efb6]
entity APP_API--><g id="elem_APP_API"><ellipse cx="268" cy="589" fill="#F1F1F1" rx="8" ry="8" style="stroke:#181818;stroke-width:0.5;"/><text fill="#000000" font-family="sans-serif" font-size="14" lengthAdjust="spacing" textLength="102" x="217" y="620.9659">Application API</text></g><!--MD5=[50c35d0a5350f8e8f48a6d3669f54f50]
entity BOOT--><g id="elem_BOOT"><rect fill="#F1F1F1" height="49.0679" rx="2.5" ry="2.5" style="stroke:#181818;stroke-width:0.5;" width="70" x="233" y="215"/><rect fill="#F1F1F1" height="10" style="stroke:#181818;stroke-width:0.5;" width="15" x="283" y="220"/><rect fill="#F1F1F1" height="2" style="stroke:#181818;stroke-width:0.5;" width="4" x="281" y="222"/><rect fill="#F1F1F1" height="2" style="stroke:#181818;stroke-width:0.5;" width="4" x="281" y="226"/><text fill="#000000" font-family="sans-serif" font-size="14" lengthAdjust="spacing" textLength="30" x="248" y="249.9659">Boot</text></g><!--MD5=[44f07762fab2e804df8e0636e93cffbe]
entity BOOT_API--><g id="elem_BOOT_API"><ellipse cx="268" cy="123" fill="#F1F1F1" rx="8" ry="8" style="stroke:#181818;stroke-width:0.5;"/><text fill="#000000" font-family="sans-serif" font-size="14" lengthAdjust="spacing" textLength="56" x="240" y="154.9659">Boot API</text></g><!--MD5=[6bdb0329a399f87a26a0fe9cc0d710cd]
entity QUEST--><g id="elem_QUEST"><rect fill="#F1F1F1" height="49.0679" rx="2.5" ry="2.5" style="stroke:#181818;stroke-width:0.5;" width="99" x="71.5" y="448"/><rect fill="#F1F1F1" height="10" style="stroke:#181818;stroke-width:0.5;" width="15" x="150.5" y="453"/><rect fill="#F1F1F1" height="2" style="stroke:#181818;stroke-width:0.5;" width="4" x="148.5" y="455"/><rect fill="#F1F1F1" height="2" style="stroke:#181818;stroke-width:0.5;" width="4" x="148.5" y="459"/><text fill="#000000" font-family="sans-serif" font-size="14" lengthAdjust="spacing" textLength="59" x="86.5" y="482.9659">QuestDB</text></g><!--MD5=[f69cb70f524f9b3f3fd427428b9eb14c]
entity QUEST_API--><g id="elem_QUEST_API"><ellipse cx="121" cy="356" fill="#F1F1F1" rx="8" ry="8" style="stroke:#181818;stroke-width:0.5;"/><text fill="#000000" font-family="sans-serif" font-size="14" lengthAdjust="spacing" textLength="85" x="78.5" y="387.9659">QuestDB API</text></g><!--MD5=[eefed110d7d8a33cb70be22dd9d01c77]
entity GRAPH--><g id="elem_GRAPH"><rect fill="#F1F1F1" height="49.0679" rx="2.5" ry="2.5" style="stroke:#181818;stroke-width:0.5;" width="100" x="344" y="448"/><rect fill="#F1F1F1" height="10" style="stroke:#181818;stroke-width:0.5;" width="15" x="424" y="453"/><rect fill="#F1F1F1" height="2" style="stroke:#181818;stroke-width:0.5;" width="4" x="422" y="455"/><rect fill="#F1F1F1" height="2" style="stroke:#181818;stroke-width:0.5;" width="4" x="422" y="459"/><text fill="#000000" font-family="sans-serif" font-size="14" lengthAdjust="spacing" textLength="60" x="359" y="482.9659">GraphQL</text></g><!--MD5=[66db70f94ccbac3c79bd754cb956443f]
entity AMQP--><g id="elem_AMQP"><rect fill="#F1F1F1" height="49.0679" rx="2.5" ry="2.5" style="stroke:#181818;stroke-width:0.5;" width="81" x="227.5" y="448"/><rect fill="#F1F1F1" height="10" style="stroke:#181818;stroke-width:0.5;" width="15" x="288.5" y="453"/><rect fill="#F1F1F1" height="2" style="stroke:#181818;stroke-width:0.5;" width="4" x="286.5" y="455"/><rect fill="#F1F1F1" height="2" style="stroke:#181818;stroke-width:0.5;" width="4" x="286.5" y="459"/><text fill="#000000" font-family="sans-serif" font-size="14" lengthAdjust="spacing" textLength="41" x="242.5" y="482.9659">AMQP</text></g><!--MD5=[c8ee6569ca67e1620e4e7d4ee0399787]
entity GRAPH_API--><g id="elem_GRAPH_API"><ellipse cx="395" cy="356" fill="#F1F1F1" rx="8" ry="8" style="stroke:#181818;stroke-width:0.5;"/><text fill="#000000" font-family="sans-serif" font-size="14" lengthAdjust="spacing" textLength="86" x="352" y="387.9659">GraphQL API</text></g><!--MD5=[f360c852f81daa4ad66be7df7a5c9a3d]
entity AMQP_API--><g id="elem_AMQP_API"><ellipse cx="268" cy="356" fill="#F1F1F1" rx="8" ry="8" style="stroke:#181818;stroke-width:0.5;"/><text fill="#000000" font-family="sans-serif" font-size="14" lengthAdjust="spacing" textLength="67" x="234.5" y="387.9659">AMQP API</text></g><!--MD5=[14cf9b7186fc426919be12717f53f1a1]
link DOM_API to DOM--><g id="link_DOM_API_DOM"><path d="M268,831.23 C268,848.26 268,887.89 268,913.65 " fill="none" id="DOM_API-DOM" style="stroke:#181818;stroke-width:1.0;"/></g><!--MD5=[9bc3545913d2ece8bc1c8e2c39a9583d]
link APP_API to APP--><g id="link_APP_API_APP"><path d="M268,598.23 C268,615.26 268,654.89 268,680.65 " fill="none" id="APP_API-APP" style="stroke:#181818;stroke-width:1.0;"/></g><!--MD5=[960e631b20e6d0a5a1769365a28f267a]
link BOOT_API to BOOT--><g id="link_BOOT_API_BOOT"><path d="M268,132.23 C268,149.26 268,188.89 268,214.65 " fill="none" id="BOOT_API-BOOT" style="stroke:#181818;stroke-width:1.0;"/></g><!--MD5=[144eb759bece83ea8e8de5d37013052c]
link AMQP_API to AMQP--><g id="link_AMQP_API_AMQP"><path d="M268,365.23 C268,382.26 268,421.89 268,447.65 " fill="none" id="AMQP_API-AMQP" style="stroke:#181818;stroke-width:1.0;"/></g><!--MD5=[160c4f6ce35ebd0c56b75ff8de26807c]
link GRAPH_API to GRAPH--><g id="link_GRAPH_API_GRAPH"><path d="M394.93,365.23 C394.78,382.26 394.43,421.89 394.21,447.65 " fill="none" id="GRAPH_API-GRAPH" style="stroke:#181818;stroke-width:1.0;"/></g><!--MD5=[7bb09455b0945dd434a0ae5d26bab86c]
link QUEST_API to QUEST--><g id="link_QUEST_API_QUEST"><path d="M121,365.23 C121,382.26 121,421.89 121,447.65 " fill="none" id="QUEST_API-QUEST" style="stroke:#181818;stroke-width:1.0;"/></g><!--MD5=[15866775485206d4b44ddb8328268e7f]
link APP to DOM_API--><g id="link_APP_DOM_API"><path d="M268,730.22 C268,751.8 268,783.18 268,802.82 " fill="none" id="APP-to-DOM_API" style="stroke:#181818;stroke-width:1.0;"/><path d="M276.4572,809.7918 A9,9 0 0 0 259.5428 809.7918" fill="none" style="stroke:#181818;stroke-width:1.5;"/></g><!--MD5=[3ab433faba4759891346c22302c8e76e]
link BOOT to GRAPH_API--><g id="link_BOOT_GRAPH_API"><path d="M303.16,260.56 C311.3,265.82 319.71,271.77 327,278 C348.74,296.57 369.92,322.08 382.71,338.55 " fill="none" id="BOOT-to-GRAPH_API" style="stroke:#181818;stroke-width:1.0;"/><path d="M393.7749,339.0982 A9,9 0 0 0 380.3162 349.3432" fill="none" style="stroke:#181818;stroke-width:1.5;"/></g><!--MD5=[825637d1efb63c5c00802efb716c3c83]
link BOOT to AMQP_API--><g id="link_BOOT_AMQP_API"><path d="M268,264.22 C268,285.8 268,317.18 268,336.82 " fill="none" id="BOOT-to-AMQP_API" style="stroke:#181818;stroke-width:1.0;"/><path d="M276.4572,343.7918 A9,9 0 0 0 259.5428 343.7918" fill="none" style="stroke:#181818;stroke-width:1.5;"/></g><!--MD5=[5b49cbdf33933a34b32eeb89f587be22]
link BOOT to QUEST_API--><g id="link_BOOT_QUEST_API"><path d="M232.86,262.62 C225.52,267.52 217.91,272.8 211,278 C184.17,298.18 154.95,323.94 137.31,339.96 " fill="none" id="BOOT-to-QUEST_API" style="stroke:#181818;stroke-width:1.0;"/><path d="M137.6195,351.1327 A9,9 0 0 0 126.2031 338.6521" fill="none" style="stroke:#181818;stroke-width:1.5;"/></g><!--MD5=[44ca1261df47425d2684deadd52f5933]
link GRAPH to APP_API--><g id="link_GRAPH_APP_API"><path d="M373.51,497.03 C360.49,511.48 342.94,530.02 326,545 C313.11,556.4 297.36,567.94 285.53,576.19 " fill="none" id="GRAPH-to-APP_API" style="stroke:#181818;stroke-width:1.0;"/><path d="M284.3336,587.2712 A9,9 0 0 0 274.7623 573.3252" fill="none" style="stroke:#181818;stroke-width:1.5;"/></g><!--MD5=[50ee9e5020b7eeb8cea5a65291237e8d]
link AMQP to APP_API--><g id="link_AMQP_APP_API"><path d="M268,497.22 C268,518.8 268,550.18 268,569.82 " fill="none" id="AMQP-to-APP_API" style="stroke:#181818;stroke-width:1.0;"/><path d="M276.4572,576.7918 A9,9 0 0 0 259.5428 576.7918" fill="none" style="stroke:#181818;stroke-width:1.5;"/></g><!--MD5=[823b6ae275860bcf56c233e42bb374a2]
link QUEST to APP_API--><g id="link_QUEST_APP_API"><path d="M150.44,497.2 C167.95,511.21 190.64,529.24 211,545 C224.15,555.18 239.17,566.5 250.49,574.97 " fill="none" id="QUEST-to-APP_API" style="stroke:#181818;stroke-width:1.0;"/><path d="M261.2547,572.4491 A9,9 0 0 0 251.1486 586.0126" fill="none" style="stroke:#181818;stroke-width:1.5;"/></g><!--MD5=[5a058e934daa5c67a71ec98e034a82ae]
@startuml logical-view-level3-fleet-management-backend

skinparam Monochrome true

component "Fleet Management Backend" {
    component "Domain" as DOM
    component "Application" as APP
    component "Infrastructure" as INFRA {
        component "Boot" as BOOT
        component "Persistence" as PERS {
            component "QuestDB" as QUEST
            interface "QuestDB API" as QUEST_API
        }
        component "Endpoint" as ENDPOINT {
            component "GraphQL" as GRAPH
            component "AMQP" as AMQP
            interface "GraphQL API" as GRAPH_API
            interface "AMQP API" as AMQP_API
        }
        interface "Boot API" as BOOT_API
    }

    interface "Domain API" as DOM_API
    interface "Application API" as APP_API

    DOM_API - - DOM
    APP_API - - APP
    BOOT_API - - BOOT
    AMQP_API - - AMQP
    GRAPH_API - - GRAPH
    QUEST_API - - QUEST

    APP - -( DOM_API
    BOOT - -( GRAPH_API
    BOOT - -( AMQP_API
    BOOT - -( QUEST_API

    GRAPH - -( APP_API
    AMQP   - -( APP_API
    QUEST - -( APP_API

}

@enduml

PlantUML version 1.2022.4(Sat Apr 09 14:29:17 WEST 2022)
(GPL source distribution)
Java Runtime: OpenJDK Runtime Environment
JVM: OpenJDK 64-Bit Server VM
Default Encoding: UTF-8
Language: en
Country: GB
--></g></svg>