<?xml version="1.0" encoding="UTF-8" standalone="no"?><svg xmlns="http://www.w3.org/2000/svg" xmlns:xlink="http://www.w3.org/1999/xlink" contentStyleType="text/css" height="752px" preserveAspectRatio="none" style="width:379px;height:752px;background:#FFFFFF;" version="1.1" viewBox="0 0 379 752" width="379px" zoomAndPan="magnify"><defs/><g><!--MD5=[15b62704e49a28f9a46a8f84cfcb065b]
cluster Data Store--><g id="cluster_Data Store"><rect height="739" rx="2.5" ry="2.5" style="stroke:#181818;stroke-width:1.0;fill:none;" width="366" x="7" y="7"/><rect height="10" style="stroke:#181818;stroke-width:1.0;fill:none;" width="15" x="353" y="12"/><rect height="2" style="stroke:#181818;stroke-width:1.0;fill:none;" width="4" x="351" y="14"/><rect height="2" style="stroke:#181818;stroke-width:1.0;fill:none;" width="4" x="351" y="18"/><text fill="#000000" font-family="sans-serif" font-size="14" font-weight="bold" lengthAdjust="spacing" textLength="76.9375" x="151.5313" y="34.9659">Data Store</text></g><!--MD5=[70becb833e031d8ab2b25bb6fd041c2b]
cluster INFRA--><g id="cluster_INFRA"><rect height="484" rx="2.5" ry="2.5" style="stroke:#181818;stroke-width:1.0;fill:none;" width="318" x="31" y="53"/><rect height="10" style="stroke:#181818;stroke-width:1.0;fill:none;" width="15" x="329" y="58"/><rect height="2" style="stroke:#181818;stroke-width:1.0;fill:none;" width="4" x="327" y="60"/><rect height="2" style="stroke:#181818;stroke-width:1.0;fill:none;" width="4" x="327" y="64"/><text fill="#000000" font-family="sans-serif" font-size="14" font-weight="bold" lengthAdjust="spacing" textLength="103.125" x="138.4375" y="80.9659">Infrastructure</text></g><!--MD5=[7a83628ac60894de8f7ccce91cd32b26]
cluster PERSIST--><g id="cluster_PERSIST"><rect height="227" rx="2.5" ry="2.5" style="stroke:#181818;stroke-width:1.0;fill:none;" width="132" x="55" y="286"/><rect height="10" style="stroke:#181818;stroke-width:1.0;fill:none;" width="15" x="167" y="291"/><rect height="2" style="stroke:#181818;stroke-width:1.0;fill:none;" width="4" x="165" y="293"/><rect height="2" style="stroke:#181818;stroke-width:1.0;fill:none;" width="4" x="165" y="297"/><text fill="#000000" font-family="sans-serif" font-size="14" font-weight="bold" lengthAdjust="spacing" textLength="83.8125" x="79.0938" y="313.9659">Presistence</text></g><!--MD5=[e827ccb1cbd1809ec2e49ef4b2081f6a]
cluster ENDPOINT--><g id="cluster_ENDPOINT"><rect height="227" rx="2.5" ry="2.5" style="stroke:#181818;stroke-width:1.0;fill:none;" width="114" x="211" y="286"/><rect height="10" style="stroke:#181818;stroke-width:1.0;fill:none;" width="15" x="305" y="291"/><rect height="2" style="stroke:#181818;stroke-width:1.0;fill:none;" width="4" x="303" y="293"/><rect height="2" style="stroke:#181818;stroke-width:1.0;fill:none;" width="4" x="303" y="297"/><text fill="#000000" font-family="sans-serif" font-size="14" font-weight="bold" lengthAdjust="spacing" textLength="66.5" x="234.75" y="313.9659">Endpoint</text></g><!--MD5=[cd187d11655e4367e900de538d2f1d0c]
entity APP--><g id="elem_APP"><rect fill="#F1F1F1" height="49.0679" rx="2.5" ry="2.5" style="stroke:#181818;stroke-width:0.5;" width="116" x="136" y="681"/><rect fill="#F1F1F1" height="10" style="stroke:#181818;stroke-width:0.5;" width="15" x="232" y="686"/><rect fill="#F1F1F1" height="2" style="stroke:#181818;stroke-width:0.5;" width="4" x="230" y="688"/><rect fill="#F1F1F1" height="2" style="stroke:#181818;stroke-width:0.5;" width="4" x="230" y="692"/><text fill="#000000" font-family="sans-serif" font-size="14" lengthAdjust="spacing" textLength="76" x="151" y="715.9659">Application</text></g><!--MD5=[30d85f3125b7a53865e5f4719123efb6]
entity APP_API--><g id="elem_APP_API"><ellipse cx="194" cy="589" fill="#F1F1F1" rx="8" ry="8" style="stroke:#181818;stroke-width:0.5;"/><text fill="#000000" font-family="sans-serif" font-size="14" lengthAdjust="spacing" textLength="102" x="143" y="620.9659">Application API</text></g><!--MD5=[50c35d0a5350f8e8f48a6d3669f54f50]
entity BOOT--><g id="elem_BOOT"><rect fill="#F1F1F1" height="49.0679" rx="2.5" ry="2.5" style="stroke:#181818;stroke-width:0.5;" width="70" x="159" y="215"/><rect fill="#F1F1F1" height="10" style="stroke:#181818;stroke-width:0.5;" width="15" x="209" y="220"/><rect fill="#F1F1F1" height="2" style="stroke:#181818;stroke-width:0.5;" width="4" x="207" y="222"/><rect fill="#F1F1F1" height="2" style="stroke:#181818;stroke-width:0.5;" width="4" x="207" y="226"/><text fill="#000000" font-family="sans-serif" font-size="14" lengthAdjust="spacing" textLength="30" x="174" y="249.9659">Boot</text></g><!--MD5=[44f07762fab2e804df8e0636e93cffbe]
entity BOOT_API--><g id="elem_BOOT_API"><ellipse cx="194" cy="123" fill="#F1F1F1" rx="8" ry="8" style="stroke:#181818;stroke-width:0.5;"/><text fill="#000000" font-family="sans-serif" font-size="14" lengthAdjust="spacing" textLength="56" x="166" y="154.9659">Boot API</text></g><!--MD5=[e8f61fc9e6949b2891b48f1d9fff5dab]
entity POSTG--><g id="elem_POSTG"><rect fill="#F1F1F1" height="49.0679" rx="2.5" ry="2.5" style="stroke:#181818;stroke-width:0.5;" width="98" x="72" y="448"/><rect fill="#F1F1F1" height="10" style="stroke:#181818;stroke-width:0.5;" width="15" x="150" y="453"/><rect fill="#F1F1F1" height="2" style="stroke:#181818;stroke-width:0.5;" width="4" x="148" y="455"/><rect fill="#F1F1F1" height="2" style="stroke:#181818;stroke-width:0.5;" width="4" x="148" y="459"/><text fill="#000000" font-family="sans-serif" font-size="14" lengthAdjust="spacing" textLength="58" x="87" y="482.9659">Postgres</text></g><!--MD5=[70e882393759605d085bbd393502e685]
entity POSTG_API--><g id="elem_POSTG_API"><ellipse cx="121" cy="356" fill="#F1F1F1" rx="8" ry="8" style="stroke:#181818;stroke-width:0.5;"/><text fill="#000000" font-family="sans-serif" font-size="14" lengthAdjust="spacing" textLength="84" x="79" y="387.9659">Postgres API</text></g><!--MD5=[66db70f94ccbac3c79bd754cb956443f]
entity AMQP--><g id="elem_AMQP"><rect fill="#F1F1F1" height="49.0679" rx="2.5" ry="2.5" style="stroke:#181818;stroke-width:0.5;" width="81" x="227.5" y="448"/><rect fill="#F1F1F1" height="10" style="stroke:#181818;stroke-width:0.5;" width="15" x="288.5" y="453"/><rect fill="#F1F1F1" height="2" style="stroke:#181818;stroke-width:0.5;" width="4" x="286.5" y="455"/><rect fill="#F1F1F1" height="2" style="stroke:#181818;stroke-width:0.5;" width="4" x="286.5" y="459"/><text fill="#000000" font-family="sans-serif" font-size="14" lengthAdjust="spacing" textLength="41" x="242.5" y="482.9659">AMQP</text></g><!--MD5=[f360c852f81daa4ad66be7df7a5c9a3d]
entity AMQP_API--><g id="elem_AMQP_API"><ellipse cx="268" cy="356" fill="#F1F1F1" rx="8" ry="8" style="stroke:#181818;stroke-width:0.5;"/><text fill="#000000" font-family="sans-serif" font-size="14" lengthAdjust="spacing" textLength="67" x="234.5" y="387.9659">AMQP API</text></g><!--MD5=[6c47b63cf1ccf71776fb2fb1146b89bd]
link POSTG_API to POSTG--><g id="link_POSTG_API_POSTG"><path d="M121,365.23 C121,382.26 121,421.89 121,447.65 " fill="none" id="POSTG_API-POSTG" style="stroke:#181818;stroke-width:1.0;"/></g><!--MD5=[144eb759bece83ea8e8de5d37013052c]
link AMQP_API to AMQP--><g id="link_AMQP_API_AMQP"><path d="M268,365.23 C268,382.26 268,421.89 268,447.65 " fill="none" id="AMQP_API-AMQP" style="stroke:#181818;stroke-width:1.0;"/></g><!--MD5=[9bc3545913d2ece8bc1c8e2c39a9583d]
link APP_API to APP--><g id="link_APP_API_APP"><path d="M194,598.23 C194,615.26 194,654.89 194,680.65 " fill="none" id="APP_API-APP" style="stroke:#181818;stroke-width:1.0;"/></g><!--MD5=[960e631b20e6d0a5a1769365a28f267a]
link BOOT_API to BOOT--><g id="link_BOOT_API_BOOT"><path d="M194,132.23 C194,149.26 194,188.89 194,214.65 " fill="none" id="BOOT_API-BOOT" style="stroke:#181818;stroke-width:1.0;"/></g><!--MD5=[50ee9e5020b7eeb8cea5a65291237e8d]
link AMQP to APP_API--><g id="link_AMQP_APP_API"><path d="M252.67,497.22 C238.33,519.4 217.3,551.95 204.7,571.45 " fill="none" id="AMQP-to-APP_API" style="stroke:#181818;stroke-width:1.0;"/><path d="M208.0238,581.8751 A9,9 0 0 0 193.8177 572.6943" fill="none" style="stroke:#181818;stroke-width:1.5;"/></g><!--MD5=[73b303eb9ebb19ea357ec4272966f8d5]
link POSTG to APP_API--><g id="link_POSTG_APP_API"><path d="M136.13,497.22 C150.2,519.3 170.83,551.65 183.28,571.18 " fill="none" id="POSTG-to-APP_API" style="stroke:#181818;stroke-width:1.0;"/><path d="M194.2977,572.729 A9,9 0 0 0 180.0336 581.8193" fill="none" style="stroke:#181818;stroke-width:1.5;"/></g><!--MD5=[4379324cd2c7c1b2cbe82266d6d3e2c8]
link BOOT to POSTG_API--><g id="link_BOOT_POSTG_API"><path d="M178.87,264.22 C164.8,286.3 144.17,318.65 131.72,338.18 " fill="none" id="BOOT-to-POSTG_API" style="stroke:#181818;stroke-width:1.0;"/><path d="M134.9664,348.8193 A9,9 0 0 0 120.7023 339.729" fill="none" style="stroke:#181818;stroke-width:1.5;"/></g><!--MD5=[825637d1efb63c5c00802efb716c3c83]
link BOOT to AMQP_API--><g id="link_BOOT_AMQP_API"><path d="M209.33,264.22 C223.67,286.4 244.7,318.95 257.3,338.45 " fill="none" id="BOOT-to-AMQP_API" style="stroke:#181818;stroke-width:1.0;"/><path d="M268.1823,339.6943 A9,9 0 0 0 253.9762 348.8751" fill="none" style="stroke:#181818;stroke-width:1.5;"/></g><!--MD5=[b9e022ef107e513e0b9704c9e2caf216]
@startuml logical-view-level3-data-store

skinparam Monochrome true

component "Data Store" {
    component "Application" as APP
    component "Infrastructure" as INFRA {
        component "Boot" as BOOT
        component "Presistence" as PERSIST {
            component "Postgres" as POSTG
            interface "Postgres API" as POSTG_API
        }
        component "Endpoint" as ENDPOINT {
            component "AMQP" as AMQP
            interface "AMQP API" as AMQP_API
        }
        interface "Boot API" as BOOT_API
    }

    interface "Application API" as APP_API

    POSTG_API - - POSTG
    AMQP_API - - AMQP
    APP_API - - APP
    BOOT_API - - BOOT

    AMQP - -( APP_API
    POSTG - -( APP_API
    BOOT - -( POSTG_API
    BOOT - -( AMQP_API
}

@enduml

PlantUML version 1.2022.4(Sat Apr 09 14:29:17 WEST 2022)
(GPL source distribution)
Java Runtime: OpenJDK Runtime Environment
JVM: OpenJDK 64-Bit Server VM
Default Encoding: UTF-8
Language: en
Country: GB
--></g></svg>