<?xml version="1.0" encoding="UTF-8" standalone="no"?><svg xmlns="http://www.w3.org/2000/svg" xmlns:xlink="http://www.w3.org/1999/xlink" contentScriptType="application/ecmascript" contentStyleType="text/css" height="1286px" preserveAspectRatio="none" style="width:697px;height:1286px;background:#FFFFFF;" version="1.1" viewBox="0 0 697 1286" width="697px" zoomAndPan="magnify"><defs><filter height="300%" id="f1rzfdfcdv3spj" width="300%" x="-1" y="-1"><feGaussianBlur result="blurOut" stdDeviation="2.0"/><feColorMatrix in="blurOut" result="blurOut2" type="matrix" values="0 0 0 0 0 0 0 0 0 0 0 0 0 0 0 0 0 0 .4 0"/><feOffset dx="4.0" dy="4.0" in="blurOut2" result="blurOut3"/><feBlend in="SourceGraphic" in2="blurOut3" mode="normal"/></filter></defs><g><!--MD5=[a32536218749105e0983997c6dc25d9e]
cluster Data Decoder Slave Backend--><rect fill="#FFFFFF" filter="url(#f1rzfdfcdv3spj)" height="1265" style="stroke:#000000;stroke-width:1.5;" width="676" x="7" y="7"/><rect fill="#FFFFFF" height="10" style="stroke:#000000;stroke-width:1.5;" width="15" x="663" y="12"/><rect fill="#FFFFFF" height="2" style="stroke:#000000;stroke-width:1.5;" width="4" x="661" y="14"/><rect fill="#FFFFFF" height="2" style="stroke:#000000;stroke-width:1.5;" width="4" x="661" y="18"/><text fill="#000000" font-family="sans-serif" font-size="14" font-weight="bold" lengthAdjust="spacing" textLength="196" x="247" y="34.9659">Data Decoder Slave Backend</text><!--MD5=[70becb833e031d8ab2b25bb6fd041c2b]
cluster INFRA--><rect fill="#FFFFFF" filter="url(#f1rzfdfcdv3spj)" height="548" style="stroke:#000000;stroke-width:1.5;" width="628" x="31" y="53"/><rect fill="#FFFFFF" height="10" style="stroke:#000000;stroke-width:1.5;" width="15" x="639" y="58"/><rect fill="#FFFFFF" height="2" style="stroke:#000000;stroke-width:1.5;" width="4" x="637" y="60"/><rect fill="#FFFFFF" height="2" style="stroke:#000000;stroke-width:1.5;" width="4" x="637" y="64"/><text fill="#000000" font-family="sans-serif" font-size="14" font-weight="bold" lengthAdjust="spacing" textLength="97" x="296.5" y="80.9659">Infrastructure</text><!--MD5=[7a83628ac60894de8f7ccce91cd32b26]
cluster PERSIST--><rect fill="#FFFFFF" filter="url(#f1rzfdfcdv3spj)" height="227" style="stroke:#000000;stroke-width:1.5;" width="132" x="55" y="326"/><rect fill="#FFFFFF" height="10" style="stroke:#000000;stroke-width:1.5;" width="15" x="167" y="331"/><rect fill="#FFFFFF" height="2" style="stroke:#000000;stroke-width:1.5;" width="4" x="165" y="333"/><rect fill="#FFFFFF" height="2" style="stroke:#000000;stroke-width:1.5;" width="4" x="165" y="337"/><text fill="#000000" font-family="sans-serif" font-size="14" font-weight="bold" lengthAdjust="spacing" textLength="79" x="81.5" y="353.9659">Presistence</text><!--MD5=[e827ccb1cbd1809ec2e49ef4b2081f6a]
cluster ENDPOINT--><rect fill="#FFFFFF" filter="url(#f1rzfdfcdv3spj)" height="297" style="stroke:#000000;stroke-width:1.5;" width="424" x="211" y="280"/><rect fill="#FFFFFF" height="10" style="stroke:#000000;stroke-width:1.5;" width="15" x="615" y="285"/><rect fill="#FFFFFF" height="2" style="stroke:#000000;stroke-width:1.5;" width="4" x="613" y="287"/><rect fill="#FFFFFF" height="2" style="stroke:#000000;stroke-width:1.5;" width="4" x="613" y="291"/><text fill="#000000" font-family="sans-serif" font-size="14" font-weight="bold" lengthAdjust="spacing" textLength="63" x="391.5" y="307.9659">Endpoint</text><!--MD5=[a834a399ba2c7dfb9bb0bc2b6d57edb3]
cluster AMQP--><rect fill="#FFFFFF" filter="url(#f1rzfdfcdv3spj)" height="227" style="stroke:#000000;stroke-width:1.5;" width="376" x="235" y="326"/><rect fill="#FFFFFF" height="10" style="stroke:#000000;stroke-width:1.5;" width="15" x="591" y="331"/><rect fill="#FFFFFF" height="2" style="stroke:#000000;stroke-width:1.5;" width="4" x="589" y="333"/><rect fill="#FFFFFF" height="2" style="stroke:#000000;stroke-width:1.5;" width="4" x="589" y="337"/><text fill="#000000" font-family="sans-serif" font-size="14" font-weight="bold" lengthAdjust="spacing" textLength="43" x="401.5" y="353.9659">AMQP</text><!--MD5=[cd187d11655e4367e900de538d2f1d0c]
entity APP--><rect fill="#F8F8F8" filter="url(#f1rzfdfcdv3spj)" height="49.0679" style="stroke:#383838;stroke-width:1.5;" width="116" x="264" y="741"/><rect fill="#F8F8F8" height="10" style="stroke:#383838;stroke-width:1.5;" width="15" x="360" y="746"/><rect fill="#F8F8F8" height="2" style="stroke:#383838;stroke-width:1.5;" width="4" x="358" y="748"/><rect fill="#F8F8F8" height="2" style="stroke:#383838;stroke-width:1.5;" width="4" x="358" y="752"/><text fill="#000000" font-family="sans-serif" font-size="14" lengthAdjust="spacing" textLength="76" x="279" y="775.9659">Application</text><!--MD5=[711fc6413308d66a33499ee50e557b5d]
entity DOM--><rect fill="#F8F8F8" filter="url(#f1rzfdfcdv3spj)" height="49.0679" style="stroke:#383838;stroke-width:1.5;" width="92" x="163" y="1207"/><rect fill="#F8F8F8" height="10" style="stroke:#383838;stroke-width:1.5;" width="15" x="235" y="1212"/><rect fill="#F8F8F8" height="2" style="stroke:#383838;stroke-width:1.5;" width="4" x="233" y="1214"/><rect fill="#F8F8F8" height="2" style="stroke:#383838;stroke-width:1.5;" width="4" x="233" y="1218"/><text fill="#000000" font-family="sans-serif" font-size="14" lengthAdjust="spacing" textLength="52" x="178" y="1241.9659">Domain</text><!--MD5=[3dfc3527455eb72a4133679687dbe239]
entity DOM_SERV--><rect fill="#F8F8F8" filter="url(#f1rzfdfcdv3spj)" height="49.0679" style="stroke:#383838;stroke-width:1.5;" width="151" x="190.5" y="974"/><rect fill="#F8F8F8" height="10" style="stroke:#383838;stroke-width:1.5;" width="15" x="321.5" y="979"/><rect fill="#F8F8F8" height="2" style="stroke:#383838;stroke-width:1.5;" width="4" x="319.5" y="981"/><rect fill="#F8F8F8" height="2" style="stroke:#383838;stroke-width:1.5;" width="4" x="319.5" y="985"/><text fill="#000000" font-family="sans-serif" font-size="14" lengthAdjust="spacing" textLength="111" x="205.5" y="1008.9659">Domain Services</text><!--MD5=[30d85f3125b7a53865e5f4719123efb6]
entity APP_API--><ellipse cx="363" cy="649" fill="#F8F8F8" filter="url(#f1rzfdfcdv3spj)" rx="8" ry="8" style="stroke:#383838;stroke-width:1.5;"/><text fill="#000000" font-family="sans-serif" font-size="14" lengthAdjust="spacing" textLength="102" x="312" y="680.9659">Application API</text><!--MD5=[0aefd3324de3ab8c3fd9c9ea0f687424]
entity DOM_API--><ellipse cx="209" cy="1115" fill="#F8F8F8" filter="url(#f1rzfdfcdv3spj)" rx="8" ry="8" style="stroke:#383838;stroke-width:1.5;"/><text fill="#000000" font-family="sans-serif" font-size="14" lengthAdjust="spacing" textLength="78" x="170" y="1146.9659">Domain API</text><!--MD5=[44ea187545a283c559b3bae2fb79223f]
entity DOM_SERV_API--><ellipse cx="282" cy="882" fill="#F8F8F8" filter="url(#f1rzfdfcdv3spj)" rx="8" ry="8" style="stroke:#383838;stroke-width:1.5;"/><text fill="#000000" font-family="sans-serif" font-size="14" lengthAdjust="spacing" textLength="137" x="213.5" y="913.9659">Domain Services API</text><!--MD5=[50c35d0a5350f8e8f48a6d3669f54f50]
entity BOOT--><rect fill="#F8F8F8" filter="url(#f1rzfdfcdv3spj)" height="49.0679" style="stroke:#383838;stroke-width:1.5;" width="70" x="328" y="215"/><rect fill="#F8F8F8" height="10" style="stroke:#383838;stroke-width:1.5;" width="15" x="378" y="220"/><rect fill="#F8F8F8" height="2" style="stroke:#383838;stroke-width:1.5;" width="4" x="376" y="222"/><rect fill="#F8F8F8" height="2" style="stroke:#383838;stroke-width:1.5;" width="4" x="376" y="226"/><text fill="#000000" font-family="sans-serif" font-size="14" lengthAdjust="spacing" textLength="30" x="343" y="249.9659">Boot</text><!--MD5=[44f07762fab2e804df8e0636e93cffbe]
entity BOOT_API--><ellipse cx="363" cy="123" fill="#F8F8F8" filter="url(#f1rzfdfcdv3spj)" rx="8" ry="8" style="stroke:#383838;stroke-width:1.5;"/><text fill="#000000" font-family="sans-serif" font-size="14" lengthAdjust="spacing" textLength="56" x="335" y="154.9659">Boot API</text><!--MD5=[e8f61fc9e6949b2891b48f1d9fff5dab]
entity POSTG--><rect fill="#F8F8F8" filter="url(#f1rzfdfcdv3spj)" height="49.0679" style="stroke:#383838;stroke-width:1.5;" width="98" x="72" y="488"/><rect fill="#F8F8F8" height="10" style="stroke:#383838;stroke-width:1.5;" width="15" x="150" y="493"/><rect fill="#F8F8F8" height="2" style="stroke:#383838;stroke-width:1.5;" width="4" x="148" y="495"/><rect fill="#F8F8F8" height="2" style="stroke:#383838;stroke-width:1.5;" width="4" x="148" y="499"/><text fill="#000000" font-family="sans-serif" font-size="14" lengthAdjust="spacing" textLength="58" x="87" y="522.9659">Postgres</text><!--MD5=[70e882393759605d085bbd393502e685]
entity POSTG_API--><ellipse cx="121" cy="396" fill="#F8F8F8" filter="url(#f1rzfdfcdv3spj)" rx="8" ry="8" style="stroke:#383838;stroke-width:1.5;"/><text fill="#000000" font-family="sans-serif" font-size="14" lengthAdjust="spacing" textLength="84" x="79" y="427.9659">Postgres API</text><!--MD5=[c01cbe8a412be218debd57fa8df8abed]
entity EGRESS--><rect fill="#F8F8F8" filter="url(#f1rzfdfcdv3spj)" height="49.0679" style="stroke:#383838;stroke-width:1.5;" width="85" x="508.5" y="488"/><rect fill="#F8F8F8" height="10" style="stroke:#383838;stroke-width:1.5;" width="15" x="573.5" y="493"/><rect fill="#F8F8F8" height="2" style="stroke:#383838;stroke-width:1.5;" width="4" x="571.5" y="495"/><rect fill="#F8F8F8" height="2" style="stroke:#383838;stroke-width:1.5;" width="4" x="571.5" y="499"/><text fill="#000000" font-family="sans-serif" font-size="14" lengthAdjust="spacing" textLength="45" x="523.5" y="522.9659">Egress</text><!--MD5=[97c2cc28f62fbe16a090dcbe5e30d27b]
entity INGRESS--><rect fill="#F8F8F8" filter="url(#f1rzfdfcdv3spj)" height="49.0679" style="stroke:#383838;stroke-width:1.5;" width="91" x="381.5" y="488"/><rect fill="#F8F8F8" height="10" style="stroke:#383838;stroke-width:1.5;" width="15" x="452.5" y="493"/><rect fill="#F8F8F8" height="2" style="stroke:#383838;stroke-width:1.5;" width="4" x="450.5" y="495"/><rect fill="#F8F8F8" height="2" style="stroke:#383838;stroke-width:1.5;" width="4" x="450.5" y="499"/><text fill="#000000" font-family="sans-serif" font-size="14" lengthAdjust="spacing" textLength="51" x="396.5" y="522.9659">Ingress</text><!--MD5=[c9412b933c0b6dd0cce7b51723fdba10]
entity INTERNAL--><rect fill="#F8F8F8" filter="url(#f1rzfdfcdv3spj)" height="49.0679" style="stroke:#383838;stroke-width:1.5;" width="94" x="252" y="488"/><rect fill="#F8F8F8" height="10" style="stroke:#383838;stroke-width:1.5;" width="15" x="326" y="493"/><rect fill="#F8F8F8" height="2" style="stroke:#383838;stroke-width:1.5;" width="4" x="324" y="495"/><rect fill="#F8F8F8" height="2" style="stroke:#383838;stroke-width:1.5;" width="4" x="324" y="499"/><text fill="#000000" font-family="sans-serif" font-size="14" lengthAdjust="spacing" textLength="54" x="267" y="522.9659">Internal</text><!--MD5=[72db9eea1d2bf2ff908159e31b503589]
entity EGRESS_API--><ellipse cx="552" cy="396" fill="#F8F8F8" filter="url(#f1rzfdfcdv3spj)" rx="8" ry="8" style="stroke:#383838;stroke-width:1.5;"/><text fill="#000000" font-family="sans-serif" font-size="14" lengthAdjust="spacing" textLength="71" x="516.5" y="427.9659">Egress API</text><!--MD5=[7c09cc5e2fc5888767c10a541b3b1d17]
entity INGRESS_API--><ellipse cx="428" cy="396" fill="#F8F8F8" filter="url(#f1rzfdfcdv3spj)" rx="8" ry="8" style="stroke:#383838;stroke-width:1.5;"/><text fill="#000000" font-family="sans-serif" font-size="14" lengthAdjust="spacing" textLength="77" x="389.5" y="427.9659">Ingress API</text><!--MD5=[bea4d6aa064203998fd86e6c52b3e03d]
entity INTERNAL_API--><ellipse cx="299" cy="396" fill="#F8F8F8" filter="url(#f1rzfdfcdv3spj)" rx="8" ry="8" style="stroke:#383838;stroke-width:1.5;"/><text fill="#000000" font-family="sans-serif" font-size="14" lengthAdjust="spacing" textLength="80" x="259" y="427.9659">Internal API</text><!--MD5=[14cf9b7186fc426919be12717f53f1a1]
link DOM_API to DOM--><path d="M209,1124.23 C209,1141.26 209,1180.89 209,1206.65 " fill="none" id="DOM_API-DOM" style="stroke:#383838;stroke-width:1.0;"/><!--MD5=[b929a7d98f1772b10f9ae2757a6ed60f]
link DOM_SERV_API to DOM_SERV--><path d="M280.85,891.23 C278.47,908.26 272.93,947.89 269.33,973.65 " fill="none" id="DOM_SERV_API-DOM_SERV" style="stroke:#383838;stroke-width:1.0;"/><!--MD5=[b4a61ba3a97355d6345cdf1acd7a7817]
link EGRESS_API to EGRESS--><path d="M551.93,405.23 C551.78,422.26 551.43,461.89 551.21,487.65 " fill="none" id="EGRESS_API-EGRESS" style="stroke:#383838;stroke-width:1.0;"/><!--MD5=[530304c66b8acc68ed58d4341088d695]
link INGRESS_API to INGRESS--><path d="M427.93,405.23 C427.78,422.26 427.43,461.89 427.21,487.65 " fill="none" id="INGRESS_API-INGRESS" style="stroke:#383838;stroke-width:1.0;"/><!--MD5=[a67076f93ca893e87ec52ccf0fa37c5d]
link INTERNAL_API to INTERNAL--><path d="M299,405.23 C299,422.26 299,461.89 299,487.65 " fill="none" id="INTERNAL_API-INTERNAL" style="stroke:#383838;stroke-width:1.0;"/><!--MD5=[6c47b63cf1ccf71776fb2fb1146b89bd]
link POSTG_API to POSTG--><path d="M121,405.23 C121,422.26 121,461.89 121,487.65 " fill="none" id="POSTG_API-POSTG" style="stroke:#383838;stroke-width:1.0;"/><!--MD5=[9bc3545913d2ece8bc1c8e2c39a9583d]
link APP_API to APP--><path d="M360.05,658.23 C353.96,675.26 339.77,714.89 330.54,740.65 " fill="none" id="APP_API-APP" style="stroke:#383838;stroke-width:1.0;"/><!--MD5=[960e631b20e6d0a5a1769365a28f267a]
link BOOT_API to BOOT--><path d="M363,132.23 C363,149.26 363,188.89 363,214.65 " fill="none" id="BOOT_API-BOOT" style="stroke:#383838;stroke-width:1.0;"/><!--MD5=[68390b1aba1d9af928db50dc2bd7271d]
link EGRESS to APP_API--><path d="M541.53,537.33 C531.74,559.02 514.43,590.42 490,609 C457.39,633.8 408.89,642.96 382.25,646.25 " fill="none" id="EGRESS-to-APP_API" style="stroke:#383838;stroke-width:1.0;"/><path d="M376.2466,655.3988 A9,9 0 0 0 374.4344 638.5817" style="stroke:#383838;stroke-width:1.5;fill:none;"/><!--MD5=[58a2770b668c1bdb8c8e070aea1f0fb0]
link INGRESS to APP_API--><path d="M415.71,537.24 C402.95,564.04 382.51,607 371.2,630.78 " fill="none" id="INGRESS-to-APP_API" style="stroke:#383838;stroke-width:1.0;"/><path d="M375.7896,640.8019 A9,9 0 0 0 360.5142 633.5383" style="stroke:#383838;stroke-width:1.5;fill:none;"/><!--MD5=[a612da5dea32945f5624be289abb7f66]
link INTERNAL to APP_API--><path d="M310.29,537.24 C323.05,564.04 343.49,607 354.8,630.78 " fill="none" id="INTERNAL-to-APP_API" style="stroke:#383838;stroke-width:1.0;"/><path d="M365.4858,633.5383 A9,9 0 0 0 350.2104 640.8019" style="stroke:#383838;stroke-width:1.5;fill:none;"/><!--MD5=[0ddcf11b34a9fc7a0f67d96af8941017]
link POSTG to DOM_API--><path d="M123.54,537.35 C128.05,581.91 137,680.88 137,764.5 C137,764.5 137,764.5 137,883 C137,966.32 180.22,1059.2 199.69,1096.81 " fill="none" id="POSTG-to-DOM_API" style="stroke:#383838;stroke-width:1.0;"/><path d="M210.5401,1099.2279 A9,9 0 0 0 195.5843 1107.1286" style="stroke:#383838;stroke-width:1.5;fill:none;"/><!--MD5=[845c2c4eee2fae498ac38234a5aedbc1]
link APP to DOM_SERV_API--><path d="M313.71,790.22 C306.1,812 295.01,843.77 288.16,863.37 " fill="none" id="APP-to-DOM_SERV_API" style="stroke:#383838;stroke-width:1.0;"/><path d="M293.8391,872.7421 A9,9 0 0 0 277.8641 867.1835" style="stroke:#383838;stroke-width:1.5;fill:none;"/><!--MD5=[4c0b42fcf9c300baa81263005d99b18a]
link DOM_SERV to DOM_API--><path d="M254.19,1023.22 C243.25,1045.2 227.24,1077.36 217.51,1096.91 " fill="none" id="DOM_SERV-to-DOM_API" style="stroke:#383838;stroke-width:1.0;"/><path d="M221.9929,1106.8819 A9,9 0 0 0 206.8497 1099.3465" style="stroke:#383838;stroke-width:1.5;fill:none;"/><!--MD5=[9483b5d18d033ae23162ccaaac381777]
link BOOT to INTERNAL_API--><path d="M353.14,264.3 C340.2,295.54 317.79,349.64 306.28,377.42 " fill="none" id="BOOT-to-INTERNAL_API" style="stroke:#383838;stroke-width:1.0;"/><path d="M311.3112,387.3775 A9,9 0 0 0 295.6879 380.896" style="stroke:#383838;stroke-width:1.5;fill:none;"/><!--MD5=[4379324cd2c7c1b2cbe82266d6d3e2c8]
link BOOT to POSTG_API--><path d="M327.8,243.63 C300.86,247.29 263.59,255.16 235,272 C188.53,299.37 149.62,351.54 131.66,378.28 " fill="none" id="BOOT-to-POSTG_API" style="stroke:#383838;stroke-width:1.0;"/><path d="M134.7809,388.9507 A9,9 0 0 0 120.6334 379.68" style="stroke:#383838;stroke-width:1.5;fill:none;"/><!--MD5=[03a3a3da64142f805947a80cad3d7aa7]
link BOOT to EGRESS_API--><path d="M398.04,241.14 C426.2,243.36 465.34,250.52 492,272 C525.67,299.13 541.79,349.85 548.3,376.91 " fill="none" id="BOOT-to-EGRESS_API" style="stroke:#383838;stroke-width:1.0;"/><path d="M558.1066,382.0781 A9,9 0 0 0 541.596 385.7525" style="stroke:#383838;stroke-width:1.5;fill:none;"/><!--MD5=[5aaa978c22e8e54db4cd3befe40cb162]
link BOOT to INGRESS_API--><path d="M373.01,264.3 C386.15,295.54 408.92,349.64 420.6,377.42 " fill="none" id="BOOT-to-INGRESS_API" style="stroke:#383838;stroke-width:1.0;"/><path d="M431.2266,380.8575 A9,9 0 0 0 415.6413 387.4299" style="stroke:#383838;stroke-width:1.5;fill:none;"/><!--MD5=[273dd9eed034a93084a2e02c70f00d92]
@startuml logical-view-level3-data-decoder-slave-backend

skinparam Monochrome true

component "Data Decoder Slave Backend" {
    component "Application" as APP
    component "Domain" as DOM
    component "Domain Services" as DOM_SERV
    component "Infrastructure" as INFRA {
        component "Boot" as BOOT
        component "Presistence" as PERSIST {
            component "Postgres" as POSTG
            interface "Postgres API" as POSTG_API
        }
        component "Endpoint" as ENDPOINT {
            component "AMQP" as AMQP {
                component "Egress" as EGRESS
                component "Ingress" as INGRESS
                component "Internal" as INTERNAL
                interface "Egress API" as EGRESS_API
                interface "Ingress API" as INGRESS_API
                interface "Internal API" as INTERNAL_API
            }
        }
        interface "Boot API" as BOOT_API
    }

    interface "Application API" as APP_API
    interface "Domain API" as DOM_API
    interface "Domain Services API" as DOM_SERV_API

    DOM_API - - DOM
    DOM_SERV_API - - DOM_SERV

    EGRESS_API - - EGRESS
    INGRESS_API - - INGRESS
    INTERNAL_API - - INTERNAL

    POSTG_API - - POSTG

    APP_API - - APP
    BOOT_API - - BOOT

    EGRESS - -( APP_API
    INGRESS - -( APP_API
    INTERNAL - -( APP_API
    POSTG - -( DOM_API
    APP - -( DOM_SERV_API
    DOM_SERV - -( DOM_API
    BOOT - -( INTERNAL_API
    BOOT - -( POSTG_API
    BOOT - -( EGRESS_API
    BOOT - -( INGRESS_API
}

@enduml

PlantUML version 1.2021.16(Wed Dec 08 17:25:22 WET 2021)
(GPL source distribution)
Java Runtime: OpenJDK Runtime Environment
JVM: OpenJDK 64-Bit Server VM
Default Encoding: UTF-8
Language: en
Country: GB
--></g></svg>