<?xml version="1.0" encoding="UTF-8" standalone="no"?><svg xmlns="http://www.w3.org/2000/svg" xmlns:xlink="http://www.w3.org/1999/xlink" contentScriptType="application/ecmascript" contentStyleType="text/css" height="665px" preserveAspectRatio="none" style="width:517px;height:665px;background:#FFFFFF;" version="1.1" viewBox="0 0 517 665" width="517px" zoomAndPan="magnify"><defs><filter height="300%" id="f139ygaxhb270e" width="300%" x="-1" y="-1"><feGaussianBlur result="blurOut" stdDeviation="2.0"/><feColorMatrix in="blurOut" result="blurOut2" type="matrix" values="0 0 0 0 0 0 0 0 0 0 0 0 0 0 0 0 0 0 .4 0"/><feOffset dx="4.0" dy="4.0" in="blurOut2" result="blurOut3"/><feBlend in="SourceGraphic" in2="blurOut3" mode="normal"/></filter></defs><g><!--MD5=[1f043746abb414daf3eb165fc53c8965]
cluster Data Gateway--><rect fill="#FFFFFF" filter="url(#f139ygaxhb270e)" height="644.5" style="stroke:#000000;stroke-width:1.5;" width="496" x="7" y="7"/><rect fill="#FFFFFF" height="10" style="stroke:#000000;stroke-width:1.5;" width="15" x="483" y="12"/><rect fill="#FFFFFF" height="2" style="stroke:#000000;stroke-width:1.5;" width="4" x="481" y="14"/><rect fill="#FFFFFF" height="2" style="stroke:#000000;stroke-width:1.5;" width="4" x="481" y="18"/><text fill="#000000" font-family="sans-serif" font-size="14" font-weight="bold" lengthAdjust="spacing" textLength="96" x="207" y="34.9659">Data Gateway</text><!--MD5=[70becb833e031d8ab2b25bb6fd041c2b]
cluster INFRA--><rect fill="#FFFFFF" filter="url(#f139ygaxhb270e)" height="517.5" style="stroke:#000000;stroke-width:1.5;" width="322" x="31" y="53"/><rect fill="#FFFFFF" height="10" style="stroke:#000000;stroke-width:1.5;" width="15" x="333" y="58"/><rect fill="#FFFFFF" height="2" style="stroke:#000000;stroke-width:1.5;" width="4" x="331" y="60"/><rect fill="#FFFFFF" height="2" style="stroke:#000000;stroke-width:1.5;" width="4" x="331" y="64"/><text fill="#000000" font-family="sans-serif" font-size="14" font-weight="bold" lengthAdjust="spacing" textLength="97" x="143.5" y="80.9659">Infrastructure</text><!--MD5=[e827ccb1cbd1809ec2e49ef4b2081f6a]
cluster ENDPOINT--><rect fill="#FFFFFF" filter="url(#f139ygaxhb270e)" height="250.5" style="stroke:#000000;stroke-width:1.5;" width="258" x="63" y="288"/><rect fill="#FFFFFF" height="10" style="stroke:#000000;stroke-width:1.5;" width="15" x="301" y="293"/><rect fill="#FFFFFF" height="2" style="stroke:#000000;stroke-width:1.5;" width="4" x="299" y="295"/><rect fill="#FFFFFF" height="2" style="stroke:#000000;stroke-width:1.5;" width="4" x="299" y="299"/><text fill="#000000" font-family="sans-serif" font-size="14" font-weight="bold" lengthAdjust="spacing" textLength="63" x="160.5" y="315.9659">Endpoint</text><!--MD5=[cd187d11655e4367e900de538d2f1d0c]
entity APP--><rect fill="#F8F8F8" filter="url(#f139ygaxhb270e)" height="49.0679" style="stroke:#383838;stroke-width:1.5;" width="116" x="370" y="586.5"/><rect fill="#F8F8F8" height="10" style="stroke:#383838;stroke-width:1.5;" width="15" x="466" y="591.5"/><rect fill="#F8F8F8" height="2" style="stroke:#383838;stroke-width:1.5;" width="4" x="464" y="593.5"/><rect fill="#F8F8F8" height="2" style="stroke:#383838;stroke-width:1.5;" width="4" x="464" y="597.5"/><text fill="#000000" font-family="sans-serif" font-size="14" lengthAdjust="spacing" textLength="76" x="385" y="621.4659">Application</text><!--MD5=[30d85f3125b7a53865e5f4719123efb6]
entity APP_API--><ellipse cx="428" cy="490" fill="#F8F8F8" filter="url(#f139ygaxhb270e)" rx="8" ry="8" style="stroke:#383838;stroke-width:1.5;"/><text fill="#000000" font-family="sans-serif" font-size="14" lengthAdjust="spacing" textLength="102" x="377" y="521.9659">Application API</text><!--MD5=[50c35d0a5350f8e8f48a6d3669f54f50]
entity BOOT--><rect fill="#F8F8F8" filter="url(#f139ygaxhb270e)" height="49.0679" style="stroke:#383838;stroke-width:1.5;" width="70" x="149" y="215"/><rect fill="#F8F8F8" height="10" style="stroke:#383838;stroke-width:1.5;" width="15" x="199" y="220"/><rect fill="#F8F8F8" height="2" style="stroke:#383838;stroke-width:1.5;" width="4" x="197" y="222"/><rect fill="#F8F8F8" height="2" style="stroke:#383838;stroke-width:1.5;" width="4" x="197" y="226"/><text fill="#000000" font-family="sans-serif" font-size="14" lengthAdjust="spacing" textLength="30" x="164" y="249.9659">Boot</text><!--MD5=[44f07762fab2e804df8e0636e93cffbe]
entity BOOT_API--><ellipse cx="184" cy="123" fill="#F8F8F8" filter="url(#f139ygaxhb270e)" rx="8" ry="8" style="stroke:#383838;stroke-width:1.5;"/><text fill="#000000" font-family="sans-serif" font-size="14" lengthAdjust="spacing" textLength="56" x="156" y="154.9659">Boot API</text><!--MD5=[bd5f618b12816bd4b75416c1e6e531a6]
entity REST--><rect fill="#F8F8F8" filter="url(#f139ygaxhb270e)" height="49.0679" style="stroke:#383838;stroke-width:1.5;" width="73" x="204.5" y="465.5"/><rect fill="#F8F8F8" height="10" style="stroke:#383838;stroke-width:1.5;" width="15" x="257.5" y="470.5"/><rect fill="#F8F8F8" height="2" style="stroke:#383838;stroke-width:1.5;" width="4" x="255.5" y="472.5"/><rect fill="#F8F8F8" height="2" style="stroke:#383838;stroke-width:1.5;" width="4" x="255.5" y="476.5"/><text fill="#000000" font-family="sans-serif" font-size="14" lengthAdjust="spacing" textLength="33" x="219.5" y="500.4659">REST</text><!--MD5=[66db70f94ccbac3c79bd754cb956443f]
entity AMQP--><rect fill="#F8F8F8" filter="url(#f139ygaxhb270e)" height="49.0679" style="stroke:#383838;stroke-width:1.5;" width="81" x="87.5" y="465.5"/><rect fill="#F8F8F8" height="10" style="stroke:#383838;stroke-width:1.5;" width="15" x="148.5" y="470.5"/><rect fill="#F8F8F8" height="2" style="stroke:#383838;stroke-width:1.5;" width="4" x="146.5" y="472.5"/><rect fill="#F8F8F8" height="2" style="stroke:#383838;stroke-width:1.5;" width="4" x="146.5" y="476.5"/><text fill="#000000" font-family="sans-serif" font-size="14" lengthAdjust="spacing" textLength="41" x="102.5" y="500.4659">AMQP</text><!--MD5=[4a72e563beaae6ee8f52609bd00b0b4e]
entity REST_API--><ellipse cx="241" cy="366" fill="#F8F8F8" filter="url(#f139ygaxhb270e)" rx="8" ry="8" style="stroke:#383838;stroke-width:1.5;"/><text fill="#000000" font-family="sans-serif" font-size="14" lengthAdjust="spacing" textLength="59" x="211.5" y="397.9659">REST API</text><!--MD5=[f360c852f81daa4ad66be7df7a5c9a3d]
entity AMQP_API--><ellipse cx="128" cy="366" fill="#F8F8F8" filter="url(#f139ygaxhb270e)" rx="8" ry="8" style="stroke:#383838;stroke-width:1.5;"/><text fill="#000000" font-family="sans-serif" font-size="14" lengthAdjust="spacing" textLength="67" x="94.5" y="397.9659">AMQP API</text><!--MD5=[7a9ef8a27ebc46a167bf2f5b243e32ae]
link REST_API to REST--><path d="M241,375 C241,393.03 241,437.38 241,465.15 " fill="none" id="REST_API-REST" style="stroke:#383838;stroke-width:1.0;"/><!--MD5=[144eb759bece83ea8e8de5d37013052c]
link AMQP_API to AMQP--><path d="M128,375 C128,393.03 128,437.38 128,465.15 " fill="none" id="AMQP_API-AMQP" style="stroke:#383838;stroke-width:1.0;"/><!--MD5=[9bc3545913d2ece8bc1c8e2c39a9583d]
link APP_API to APP--><path d="M428,499.18 C428,516.93 428,559.54 428,586.45 " fill="none" id="APP_API-APP" style="stroke:#383838;stroke-width:1.0;"/><!--MD5=[960e631b20e6d0a5a1769365a28f267a]
link BOOT_API to BOOT--><path d="M184,132.23 C184,149.26 184,188.89 184,214.65 " fill="none" id="BOOT_API-BOOT" style="stroke:#383838;stroke-width:1.0;"/><!--MD5=[411b2be29a8d2293d28c0db98fef1f07]
link BOOT to REST_API--><path d="M194.86,264.21 C206.01,288.58 223.12,325.95 233.07,347.68 " fill="none" id="BOOT-to-REST_API" style="stroke:#383838;stroke-width:1.0;"/><path d="M243.7297,350.6522 A9,9 0 0 0 228.3488 357.6896" style="stroke:#383838;stroke-width:1.5;fill:none;"/><!--MD5=[825637d1efb63c5c00802efb716c3c83]
link BOOT to AMQP_API--><path d="M173.34,264.21 C162.37,288.58 145.56,325.95 135.79,347.68 " fill="none" id="BOOT-to-AMQP_API" style="stroke:#383838;stroke-width:1.0;"/><path d="M140.5851,357.6387 A9,9 0 0 0 125.1645 350.6886" style="stroke:#383838;stroke-width:1.5;fill:none;"/><!--MD5=[4650e1908a5caa745e5a54df07a9a97d]
link ENDPOINT to APP_API--><path d="M321.2497,375.7543 C321.4366,375.9525 321.6261,376.1536 321.8184,376.3575 C322.2029,376.7653 322.598,377.1844 323.0035,377.6145 C323.8144,378.4746 324.6665,379.3784 325.5567,380.3227 C332.6784,387.8766 342.2394,398.0181 352.6688,409.0812 C373.5275,431.2075 397.86,457.02 413.1,473.19 " fill="none" id="ENDPOINT-to-APP_API" style="stroke:#383838;stroke-width:1.0;"/><path d="M424.371,472.8182 A9,9 0 0 0 412.0653 484.4229" style="stroke:#383838;stroke-width:1.5;fill:none;"/><!--MD5=[aa33877dede8ef59a2e6db420c6c0da1]
@startuml logical-view-level3-data-gateway

skinparam Monochrome true

component "Data Gateway" {
    component "Application" as APP
    component "Infrastructure" as INFRA {
        component "Boot" as BOOT
        component "Endpoint" as ENDPOINT {
            component "REST" as REST
            component "AMQP" as AMQP
            interface "REST API" as REST_API
            interface "AMQP API" as AMQP_API
        }
        interface "Boot API" as BOOT_API
    }

    interface "Application API" as APP_API

    REST_API - - REST
    AMQP_API - - AMQP

    APP_API - - APP
    BOOT_API - - BOOT

    BOOT - -( REST_API
    BOOT - -( AMQP_API

    ENDPOINT - -( APP_API
}

@enduml

PlantUML version 1.2021.16(Wed Dec 08 17:25:22 WET 2021)
(GPL source distribution)
Java Runtime: OpenJDK Runtime Environment
JVM: OpenJDK 64-Bit Server VM
Default Encoding: UTF-8
Language: en
Country: GB
--></g></svg>