<?xml version="1.0" encoding="UTF-8" standalone="no"?><svg xmlns="http://www.w3.org/2000/svg" xmlns:xlink="http://www.w3.org/1999/xlink" contentStyleType="text/css" height="1218px" preserveAspectRatio="none" style="width:651px;height:1218px;background:#FFFFFF;" version="1.1" viewBox="0 0 651 1218" width="651px" zoomAndPan="magnify"><defs/><g><!--MD5=[d03364050bea594202caa1e08592c5db]
cluster Smart Irrigation Backend--><g id="cluster_Smart Irrigation Backend"><rect height="1205" rx="2.5" ry="2.5" style="stroke:#181818;stroke-width:1.0;fill:none;" width="638" x="7" y="7"/><rect height="10" style="stroke:#181818;stroke-width:1.0;fill:none;" width="15" x="625" y="12"/><rect height="2" style="stroke:#181818;stroke-width:1.0;fill:none;" width="4" x="623" y="14"/><rect height="2" style="stroke:#181818;stroke-width:1.0;fill:none;" width="4" x="623" y="18"/><text fill="#000000" font-family="sans-serif" font-size="14" font-weight="bold" lengthAdjust="spacing" textLength="184.625" x="233.6875" y="34.9659">Smart Irrigation Backend</text></g><!--MD5=[70becb833e031d8ab2b25bb6fd041c2b]
cluster INFRA--><g id="cluster_INFRA"><rect height="484" rx="2.5" ry="2.5" style="stroke:#181818;stroke-width:1.0;fill:none;" width="590" x="31" y="53"/><rect height="10" style="stroke:#181818;stroke-width:1.0;fill:none;" width="15" x="601" y="58"/><rect height="2" style="stroke:#181818;stroke-width:1.0;fill:none;" width="4" x="599" y="60"/><rect height="2" style="stroke:#181818;stroke-width:1.0;fill:none;" width="4" x="599" y="64"/><text fill="#000000" font-family="sans-serif" font-size="14" font-weight="bold" lengthAdjust="spacing" textLength="103.125" x="274.4375" y="80.9659">Infrastructure</text></g><!--MD5=[a97ab338b38943ab336923f22440b155]
cluster PERS--><g id="cluster_PERS"><rect height="227" rx="2.5" ry="2.5" style="stroke:#181818;stroke-width:1.0;fill:none;" width="267" x="55" y="286"/><rect height="10" style="stroke:#181818;stroke-width:1.0;fill:none;" width="15" x="302" y="291"/><rect height="2" style="stroke:#181818;stroke-width:1.0;fill:none;" width="4" x="300" y="293"/><rect height="2" style="stroke:#181818;stroke-width:1.0;fill:none;" width="4" x="300" y="297"/><text fill="#000000" font-family="sans-serif" font-size="14" font-weight="bold" lengthAdjust="spacing" textLength="83.8125" x="146.5938" y="313.9659">Persistence</text></g><!--MD5=[e827ccb1cbd1809ec2e49ef4b2081f6a]
cluster ENDPOINT--><g id="cluster_ENDPOINT"><rect height="227" rx="2.5" ry="2.5" style="stroke:#181818;stroke-width:1.0;fill:none;" width="251" x="346" y="286"/><rect height="10" style="stroke:#181818;stroke-width:1.0;fill:none;" width="15" x="577" y="291"/><rect height="2" style="stroke:#181818;stroke-width:1.0;fill:none;" width="4" x="575" y="293"/><rect height="2" style="stroke:#181818;stroke-width:1.0;fill:none;" width="4" x="575" y="297"/><text fill="#000000" font-family="sans-serif" font-size="14" font-weight="bold" lengthAdjust="spacing" textLength="66.5" x="438.25" y="313.9659">Endpoint</text></g><!--MD5=[711fc6413308d66a33499ee50e557b5d]
entity DOM--><g id="elem_DOM"><rect fill="#F1F1F1" height="49.0679" rx="2.5" ry="2.5" style="stroke:#181818;stroke-width:0.5;" width="92" x="210" y="1147"/><rect fill="#F1F1F1" height="10" style="stroke:#181818;stroke-width:0.5;" width="15" x="282" y="1152"/><rect fill="#F1F1F1" height="2" style="stroke:#181818;stroke-width:0.5;" width="4" x="280" y="1154"/><rect fill="#F1F1F1" height="2" style="stroke:#181818;stroke-width:0.5;" width="4" x="280" y="1158"/><text fill="#000000" font-family="sans-serif" font-size="14" lengthAdjust="spacing" textLength="52" x="225" y="1181.9659">Domain</text></g><!--MD5=[34e8fa806e7835ee7b6461df5000ecf5]
entity SERV--><g id="elem_SERV"><rect fill="#F1F1F1" height="49.0679" rx="2.5" ry="2.5" style="stroke:#181818;stroke-width:0.5;" width="151" x="301.5" y="914"/><rect fill="#F1F1F1" height="10" style="stroke:#181818;stroke-width:0.5;" width="15" x="432.5" y="919"/><rect fill="#F1F1F1" height="2" style="stroke:#181818;stroke-width:0.5;" width="4" x="430.5" y="921"/><rect fill="#F1F1F1" height="2" style="stroke:#181818;stroke-width:0.5;" width="4" x="430.5" y="925"/><text fill="#000000" font-family="sans-serif" font-size="14" lengthAdjust="spacing" textLength="111" x="316.5" y="948.9659">Domain Services</text></g><!--MD5=[cd187d11655e4367e900de538d2f1d0c]
entity APP--><g id="elem_APP"><rect fill="#F1F1F1" height="49.0679" rx="2.5" ry="2.5" style="stroke:#181818;stroke-width:0.5;" width="116" x="336" y="681"/><rect fill="#F1F1F1" height="10" style="stroke:#181818;stroke-width:0.5;" width="15" x="432" y="686"/><rect fill="#F1F1F1" height="2" style="stroke:#181818;stroke-width:0.5;" width="4" x="430" y="688"/><rect fill="#F1F1F1" height="2" style="stroke:#181818;stroke-width:0.5;" width="4" x="430" y="692"/><text fill="#000000" font-family="sans-serif" font-size="14" lengthAdjust="spacing" textLength="76" x="351" y="715.9659">Application</text></g><!--MD5=[5d8f268093428ba7660bd523078b774e]
entity SERV_API--><g id="elem_SERV_API"><ellipse cx="385" cy="822" fill="#F1F1F1" rx="8" ry="8" style="stroke:#181818;stroke-width:0.5;"/><text fill="#000000" font-family="sans-serif" font-size="14" lengthAdjust="spacing" textLength="137" x="316.5" y="853.9659">Domain Services API</text></g><!--MD5=[0aefd3324de3ab8c3fd9c9ea0f687424]
entity DOM_API--><g id="elem_DOM_API"><ellipse cx="256" cy="1055" fill="#F1F1F1" rx="8" ry="8" style="stroke:#181818;stroke-width:0.5;"/><text fill="#000000" font-family="sans-serif" font-size="14" lengthAdjust="spacing" textLength="78" x="217" y="1086.9659">Domain API</text></g><!--MD5=[30d85f3125b7a53865e5f4719123efb6]
entity APP_API--><g id="elem_APP_API"><ellipse cx="403" cy="589" fill="#F1F1F1" rx="8" ry="8" style="stroke:#181818;stroke-width:0.5;"/><text fill="#000000" font-family="sans-serif" font-size="14" lengthAdjust="spacing" textLength="102" x="352" y="620.9659">Application API</text></g><!--MD5=[50c35d0a5350f8e8f48a6d3669f54f50]
entity BOOT--><g id="elem_BOOT"><rect fill="#F1F1F1" height="49.0679" rx="2.5" ry="2.5" style="stroke:#181818;stroke-width:0.5;" width="70" x="294" y="215"/><rect fill="#F1F1F1" height="10" style="stroke:#181818;stroke-width:0.5;" width="15" x="344" y="220"/><rect fill="#F1F1F1" height="2" style="stroke:#181818;stroke-width:0.5;" width="4" x="342" y="222"/><rect fill="#F1F1F1" height="2" style="stroke:#181818;stroke-width:0.5;" width="4" x="342" y="226"/><text fill="#000000" font-family="sans-serif" font-size="14" lengthAdjust="spacing" textLength="30" x="309" y="249.9659">Boot</text></g><!--MD5=[44f07762fab2e804df8e0636e93cffbe]
entity BOOT_API--><g id="elem_BOOT_API"><ellipse cx="329" cy="123" fill="#F1F1F1" rx="8" ry="8" style="stroke:#181818;stroke-width:0.5;"/><text fill="#000000" font-family="sans-serif" font-size="14" lengthAdjust="spacing" textLength="56" x="301" y="154.9659">Boot API</text></g><!--MD5=[6bdb0329a399f87a26a0fe9cc0d710cd]
entity QUEST--><g id="elem_QUEST"><rect fill="#F1F1F1" height="49.0679" rx="2.5" ry="2.5" style="stroke:#181818;stroke-width:0.5;" width="99" x="72.5" y="448"/><rect fill="#F1F1F1" height="10" style="stroke:#181818;stroke-width:0.5;" width="15" x="151.5" y="453"/><rect fill="#F1F1F1" height="2" style="stroke:#181818;stroke-width:0.5;" width="4" x="149.5" y="455"/><rect fill="#F1F1F1" height="2" style="stroke:#181818;stroke-width:0.5;" width="4" x="149.5" y="459"/><text fill="#000000" font-family="sans-serif" font-size="14" lengthAdjust="spacing" textLength="59" x="87.5" y="482.9659">QuestDB</text></g><!--MD5=[f69cb70f524f9b3f3fd427428b9eb14c]
entity QUEST_API--><g id="elem_QUEST_API"><ellipse cx="121" cy="356" fill="#F1F1F1" rx="8" ry="8" style="stroke:#181818;stroke-width:0.5;"/><text fill="#000000" font-family="sans-serif" font-size="14" lengthAdjust="spacing" textLength="85" x="78.5" y="387.9659">QuestDB API</text></g><!--MD5=[22e6038e6e27d0d14f9906e81bc7e2c8]
entity POST--><g id="elem_POST"><rect fill="#F1F1F1" height="49.0679" rx="2.5" ry="2.5" style="stroke:#181818;stroke-width:0.5;" width="98" x="207" y="448"/><rect fill="#F1F1F1" height="10" style="stroke:#181818;stroke-width:0.5;" width="15" x="285" y="453"/><rect fill="#F1F1F1" height="2" style="stroke:#181818;stroke-width:0.5;" width="4" x="283" y="455"/><rect fill="#F1F1F1" height="2" style="stroke:#181818;stroke-width:0.5;" width="4" x="283" y="459"/><text fill="#000000" font-family="sans-serif" font-size="14" lengthAdjust="spacing" textLength="58" x="222" y="482.9659">Postgres</text></g><!--MD5=[bbf08b84a51fc89703c1a58fadbe3812]
entity POST_API--><g id="elem_POST_API"><ellipse cx="256" cy="356" fill="#F1F1F1" rx="8" ry="8" style="stroke:#181818;stroke-width:0.5;"/><text fill="#000000" font-family="sans-serif" font-size="14" lengthAdjust="spacing" textLength="84" x="214" y="387.9659">Postgres API</text></g><!--MD5=[eefed110d7d8a33cb70be22dd9d01c77]
entity GRAPH--><g id="elem_GRAPH"><rect fill="#F1F1F1" height="49.0679" rx="2.5" ry="2.5" style="stroke:#181818;stroke-width:0.5;" width="100" x="479" y="448"/><rect fill="#F1F1F1" height="10" style="stroke:#181818;stroke-width:0.5;" width="15" x="559" y="453"/><rect fill="#F1F1F1" height="2" style="stroke:#181818;stroke-width:0.5;" width="4" x="557" y="455"/><rect fill="#F1F1F1" height="2" style="stroke:#181818;stroke-width:0.5;" width="4" x="557" y="459"/><text fill="#000000" font-family="sans-serif" font-size="14" lengthAdjust="spacing" textLength="60" x="494" y="482.9659">GraphQL</text></g><!--MD5=[66db70f94ccbac3c79bd754cb956443f]
entity AMQP--><g id="elem_AMQP"><rect fill="#F1F1F1" height="49.0679" rx="2.5" ry="2.5" style="stroke:#181818;stroke-width:0.5;" width="81" x="362.5" y="448"/><rect fill="#F1F1F1" height="10" style="stroke:#181818;stroke-width:0.5;" width="15" x="423.5" y="453"/><rect fill="#F1F1F1" height="2" style="stroke:#181818;stroke-width:0.5;" width="4" x="421.5" y="455"/><rect fill="#F1F1F1" height="2" style="stroke:#181818;stroke-width:0.5;" width="4" x="421.5" y="459"/><text fill="#000000" font-family="sans-serif" font-size="14" lengthAdjust="spacing" textLength="41" x="377.5" y="482.9659">AMQP</text></g><!--MD5=[c8ee6569ca67e1620e4e7d4ee0399787]
entity GRAPH_API--><g id="elem_GRAPH_API"><ellipse cx="530" cy="356" fill="#F1F1F1" rx="8" ry="8" style="stroke:#181818;stroke-width:0.5;"/><text fill="#000000" font-family="sans-serif" font-size="14" lengthAdjust="spacing" textLength="86" x="487" y="387.9659">GraphQL API</text></g><!--MD5=[f360c852f81daa4ad66be7df7a5c9a3d]
entity AMQP_API--><g id="elem_AMQP_API"><ellipse cx="403" cy="356" fill="#F1F1F1" rx="8" ry="8" style="stroke:#181818;stroke-width:0.5;"/><text fill="#000000" font-family="sans-serif" font-size="14" lengthAdjust="spacing" textLength="67" x="369.5" y="387.9659">AMQP API</text></g><!--MD5=[14cf9b7186fc426919be12717f53f1a1]
link DOM_API to DOM--><g id="link_DOM_API_DOM"><path d="M256,1064.23 C256,1081.26 256,1120.89 256,1146.65 " fill="none" id="DOM_API-DOM" style="stroke:#181818;stroke-width:1.0;"/></g><!--MD5=[9bc3545913d2ece8bc1c8e2c39a9583d]
link APP_API to APP--><g id="link_APP_API_APP"><path d="M402.35,598.23 C401.01,615.26 397.9,654.89 395.88,680.65 " fill="none" id="APP_API-APP" style="stroke:#181818;stroke-width:1.0;"/></g><!--MD5=[960e631b20e6d0a5a1769365a28f267a]
link BOOT_API to BOOT--><g id="link_BOOT_API_BOOT"><path d="M329,132.23 C329,149.26 329,188.89 329,214.65 " fill="none" id="BOOT_API-BOOT" style="stroke:#181818;stroke-width:1.0;"/></g><!--MD5=[144eb759bece83ea8e8de5d37013052c]
link AMQP_API to AMQP--><g id="link_AMQP_API_AMQP"><path d="M403,365.23 C403,382.26 403,421.89 403,447.65 " fill="none" id="AMQP_API-AMQP" style="stroke:#181818;stroke-width:1.0;"/></g><!--MD5=[160c4f6ce35ebd0c56b75ff8de26807c]
link GRAPH_API to GRAPH--><g id="link_GRAPH_API_GRAPH"><path d="M529.93,365.23 C529.78,382.26 529.43,421.89 529.21,447.65 " fill="none" id="GRAPH_API-GRAPH" style="stroke:#181818;stroke-width:1.0;"/></g><!--MD5=[7bb09455b0945dd434a0ae5d26bab86c]
link QUEST_API to QUEST--><g id="link_QUEST_API_QUEST"><path d="M121.07,365.23 C121.22,382.26 121.57,421.89 121.79,447.65 " fill="none" id="QUEST_API-QUEST" style="stroke:#181818;stroke-width:1.0;"/></g><!--MD5=[3dce33286669034f03aa0b745b3a513a]
link POST_API to POST--><g id="link_POST_API_POST"><path d="M256,365.23 C256,382.26 256,421.89 256,447.65 " fill="none" id="POST_API-POST" style="stroke:#181818;stroke-width:1.0;"/></g><!--MD5=[e8266c76ed2ad6b443ae2655b4bcbc35]
link SERV_API to SERV--><g id="link_SERV_API_SERV"><path d="M384.42,831.23 C383.24,848.26 380.47,887.89 378.67,913.65 " fill="none" id="SERV_API-SERV" style="stroke:#181818;stroke-width:1.0;"/></g><!--MD5=[30dc2ca064cd4cfd925a7a35889162d1]
link APP to SERV_API--><g id="link_APP_SERV_API"><path d="M392.14,730.22 C390.44,751.8 387.97,783.18 386.43,802.82 " fill="none" id="APP-to-SERV_API" style="stroke:#181818;stroke-width:1.0;"/><path d="M394.3129,810.4657 A9,9 0 0 0 377.4507 809.137" fill="none" style="stroke:#181818;stroke-width:1.5;"/></g><!--MD5=[06f15774191b067a1d059b1f388f636d]
link SERV to DOM_API--><g id="link_SERV_DOM_API"><path d="M351.93,963.22 C327.96,985.91 292.53,1019.43 272.11,1038.76 " fill="none" id="SERV-to-DOM_API" style="stroke:#181818;stroke-width:1.0;"/><path d="M272.636,1049.9026 A9,9 0 0 0 261.0186 1037.609" fill="none" style="stroke:#181818;stroke-width:1.5;"/></g><!--MD5=[3ab433faba4759891346c22302c8e76e]
link BOOT to GRAPH_API--><g id="link_BOOT_GRAPH_API"><path d="M364.28,244.85 C392.45,249.59 432.04,259.17 462,278 C486.72,293.53 507.63,320.68 519.49,338.24 " fill="none" id="BOOT-to-GRAPH_API" style="stroke:#181818;stroke-width:1.0;"/><path d="M530.5239,339.6829 A9,9 0 0 0 516.3542 348.9198" fill="none" style="stroke:#181818;stroke-width:1.5;"/></g><!--MD5=[825637d1efb63c5c00802efb716c3c83]
link BOOT to AMQP_API--><g id="link_BOOT_AMQP_API"><path d="M344.33,264.22 C358.67,286.4 379.7,318.95 392.3,338.45 " fill="none" id="BOOT-to-AMQP_API" style="stroke:#181818;stroke-width:1.0;"/><path d="M403.1823,339.6943 A9,9 0 0 0 388.9762 348.8751" fill="none" style="stroke:#181818;stroke-width:1.5;"/></g><!--MD5=[5b49cbdf33933a34b32eeb89f587be22]
link BOOT to QUEST_API--><g id="link_BOOT_QUEST_API"><path d="M293.97,244.15 C264.21,248.54 221.3,257.99 189,278 C164.18,293.37 143.3,320.57 131.47,338.18 " fill="none" id="BOOT-to-QUEST_API" style="stroke:#181818;stroke-width:1.0;"/><path d="M134.6322,348.8519 A9,9 0 0 0 120.4333 339.6601" fill="none" style="stroke:#181818;stroke-width:1.5;"/></g><!--MD5=[2fda074dd6e45e52a06336d03ea710b3]
link BOOT to POST_API--><g id="link_BOOT_POST_API"><path d="M313.87,264.22 C299.8,286.3 279.17,318.65 266.72,338.18 " fill="none" id="BOOT-to-POST_API" style="stroke:#181818;stroke-width:1.0;"/><path d="M269.9664,348.8193 A9,9 0 0 0 255.7023 339.729" fill="none" style="stroke:#181818;stroke-width:1.5;"/></g><!--MD5=[44ca1261df47425d2684deadd52f5933]
link GRAPH to APP_API--><g id="link_GRAPH_APP_API"><path d="M508.51,497.03 C495.49,511.48 477.94,530.02 461,545 C448.11,556.4 432.36,567.94 420.53,576.19 " fill="none" id="GRAPH-to-APP_API" style="stroke:#181818;stroke-width:1.0;"/><path d="M419.3336,587.2712 A9,9 0 0 0 409.7623 573.3252" fill="none" style="stroke:#181818;stroke-width:1.5;"/></g><!--MD5=[50ee9e5020b7eeb8cea5a65291237e8d]
link AMQP to APP_API--><g id="link_AMQP_APP_API"><path d="M403,497.22 C403,518.8 403,550.18 403,569.82 " fill="none" id="AMQP-to-APP_API" style="stroke:#181818;stroke-width:1.0;"/><path d="M411.4572,576.7918 A9,9 0 0 0 394.5428 576.7918" fill="none" style="stroke:#181818;stroke-width:1.5;"/></g><!--MD5=[fb339c0fc3989adec6d07eaa2b880a3a]
link QUEST to DOM_API--><g id="link_QUEST_DOM_API"><path d="M130.25,497.11 C143.98,538.54 170,627.29 170,704.5 C170,704.5 170,704.5 170,823 C170,907.85 221.59,999.84 244.86,1037.01 " fill="none" id="QUEST-to-DOM_API" style="stroke:#181818;stroke-width:1.0;"/><path d="M255.8291,1038.4624 A9,9 0 0 0 241.576 1047.5699" fill="none" style="stroke:#181818;stroke-width:1.5;"/></g><!--MD5=[5f5b50cdd4d63c3d2d947e289fe4c58c]
link POST to DOM_API--><g id="link_POST_DOM_API"><path d="M256,497.11 C256,538.92 256,628.7 256,704.5 C256,704.5 256,704.5 256,823 C256,901.87 256,995.88 256,1035.23 " fill="none" id="POST-to-DOM_API" style="stroke:#181818;stroke-width:1.0;"/><path d="M264.4572,1042.5318 A9,9 0 0 0 247.5428 1042.5318" fill="none" style="stroke:#181818;stroke-width:1.5;"/></g><!--MD5=[14eeb19f1dd3ecadb507ba6df590ddf1]
@startuml logical-view-level3-smart-irrigation-backend

skinparam Monochrome true

component "Smart Irrigation Backend" {
    component "Domain" as DOM
    component "Domain Services" as SERV
    component "Application" as APP
    component "Infrastructure" as INFRA {
        component "Boot" as BOOT
        component "Persistence" as PERS {
            component "QuestDB" as QUEST
            interface "QuestDB API" as QUEST_API
            component "Postgres" as POST
            interface "Postgres API" as POST_API
        }
        component "Endpoint" as ENDPOINT {
            component "GraphQL" as GRAPH
            component "AMQP" as AMQP
            interface "GraphQL API" as GRAPH_API
            interface "AMQP API" as AMQP_API
        }
        interface "Boot API" as BOOT_API
    }
    interface "Domain Services API" as SERV_API
    interface "Domain API" as DOM_API
    interface "Application API" as APP_API

    DOM_API - - DOM
    APP_API - - APP
    BOOT_API - - BOOT
    AMQP_API - - AMQP
    GRAPH_API - - GRAPH
    QUEST_API - - QUEST
    POST_API - - POST
    SERV_API - - SERV

    APP - -( SERV_API
    SERV - -( DOM_API
    BOOT - -( GRAPH_API
    BOOT - -( AMQP_API
    BOOT - -( QUEST_API
    BOOT - -( POST_API

    GRAPH - -( APP_API
    AMQP   - -( APP_API
    QUEST - -( DOM_API
    POST - -( DOM_API

}

@enduml

PlantUML version 1.2022.4(Sat Apr 09 14:29:17 WEST 2022)
(GPL source distribution)
Java Runtime: OpenJDK Runtime Environment
JVM: OpenJDK 64-Bit Server VM
Default Encoding: UTF-8
Language: en
Country: GB
--></g></svg>