<?xml version="1.0" encoding="UTF-8" standalone="no"?><svg xmlns="http://www.w3.org/2000/svg" xmlns:xlink="http://www.w3.org/1999/xlink" contentStyleType="text/css" height="1278px" preserveAspectRatio="none" style="width:412px;height:1278px;background:#FFFFFF;" version="1.1" viewBox="0 0 412 1278" width="412px" zoomAndPan="magnify"><defs/><g><!--MD5=[d12ffbb816391e7e2219ac42337aafa8]
cluster Device Commander Backend--><g id="cluster_Device Commander Backend"><rect height="1265" rx="2.5" ry="2.5" style="stroke:#181818;stroke-width:1.0;fill:none;" width="399" x="7" y="7"/><rect height="10" style="stroke:#181818;stroke-width:1.0;fill:none;" width="15" x="386" y="12"/><rect height="2" style="stroke:#181818;stroke-width:1.0;fill:none;" width="4" x="384" y="14"/><rect height="2" style="stroke:#181818;stroke-width:1.0;fill:none;" width="4" x="384" y="18"/><text fill="#000000" font-family="sans-serif" font-size="14" font-weight="bold" lengthAdjust="spacing" textLength="198" x="107.5" y="34.9659">Device Commander Backend</text></g><!--MD5=[70becb833e031d8ab2b25bb6fd041c2b]
cluster INFRA--><g id="cluster_INFRA"><rect height="548" rx="2.5" ry="2.5" style="stroke:#181818;stroke-width:1.0;fill:none;" width="351" x="31" y="53"/><rect height="10" style="stroke:#181818;stroke-width:1.0;fill:none;" width="15" x="362" y="58"/><rect height="2" style="stroke:#181818;stroke-width:1.0;fill:none;" width="4" x="360" y="60"/><rect height="2" style="stroke:#181818;stroke-width:1.0;fill:none;" width="4" x="360" y="64"/><text fill="#000000" font-family="sans-serif" font-size="14" font-weight="bold" lengthAdjust="spacing" textLength="97" x="158" y="80.9659">Infrastructure</text></g><!--MD5=[e827ccb1cbd1809ec2e49ef4b2081f6a]
cluster ENDPOINT--><g id="cluster_ENDPOINT"><rect height="297" rx="2.5" ry="2.5" style="stroke:#181818;stroke-width:1.0;fill:none;" width="303" x="55" y="280"/><rect height="10" style="stroke:#181818;stroke-width:1.0;fill:none;" width="15" x="338" y="285"/><rect height="2" style="stroke:#181818;stroke-width:1.0;fill:none;" width="4" x="336" y="287"/><rect height="2" style="stroke:#181818;stroke-width:1.0;fill:none;" width="4" x="336" y="291"/><text fill="#000000" font-family="sans-serif" font-size="14" font-weight="bold" lengthAdjust="spacing" textLength="63" x="175" y="307.9659">Endpoint</text></g><!--MD5=[a834a399ba2c7dfb9bb0bc2b6d57edb3]
cluster AMQP--><g id="cluster_AMQP"><rect height="227" rx="2.5" ry="2.5" style="stroke:#181818;stroke-width:1.0;fill:none;" width="255" x="79" y="326"/><rect height="10" style="stroke:#181818;stroke-width:1.0;fill:none;" width="15" x="314" y="331"/><rect height="2" style="stroke:#181818;stroke-width:1.0;fill:none;" width="4" x="312" y="333"/><rect height="2" style="stroke:#181818;stroke-width:1.0;fill:none;" width="4" x="312" y="337"/><text fill="#000000" font-family="sans-serif" font-size="14" font-weight="bold" lengthAdjust="spacing" textLength="43" x="185" y="353.9659">AMQP</text></g><!--MD5=[cd187d11655e4367e900de538d2f1d0c]
entity APP--><g id="elem_APP"><rect fill="#F1F1F1" height="49.0679" rx="2.5" ry="2.5" style="stroke:#181818;stroke-width:0.5;" width="116" x="149" y="741"/><rect fill="#F1F1F1" height="10" style="stroke:#181818;stroke-width:0.5;" width="15" x="245" y="746"/><rect fill="#F1F1F1" height="2" style="stroke:#181818;stroke-width:0.5;" width="4" x="243" y="748"/><rect fill="#F1F1F1" height="2" style="stroke:#181818;stroke-width:0.5;" width="4" x="243" y="752"/><text fill="#000000" font-family="sans-serif" font-size="14" lengthAdjust="spacing" textLength="76" x="164" y="775.9659">Application</text></g><!--MD5=[711fc6413308d66a33499ee50e557b5d]
entity DOM--><g id="elem_DOM"><rect fill="#F1F1F1" height="49.0679" rx="2.5" ry="2.5" style="stroke:#181818;stroke-width:0.5;" width="92" x="161" y="1207"/><rect fill="#F1F1F1" height="10" style="stroke:#181818;stroke-width:0.5;" width="15" x="233" y="1212"/><rect fill="#F1F1F1" height="2" style="stroke:#181818;stroke-width:0.5;" width="4" x="231" y="1214"/><rect fill="#F1F1F1" height="2" style="stroke:#181818;stroke-width:0.5;" width="4" x="231" y="1218"/><text fill="#000000" font-family="sans-serif" font-size="14" lengthAdjust="spacing" textLength="52" x="176" y="1241.9659">Domain</text></g><!--MD5=[3dfc3527455eb72a4133679687dbe239]
entity DOM_SERV--><g id="elem_DOM_SERV"><rect fill="#F1F1F1" height="49.0679" rx="2.5" ry="2.5" style="stroke:#181818;stroke-width:0.5;" width="151" x="131.5" y="974"/><rect fill="#F1F1F1" height="10" style="stroke:#181818;stroke-width:0.5;" width="15" x="262.5" y="979"/><rect fill="#F1F1F1" height="2" style="stroke:#181818;stroke-width:0.5;" width="4" x="260.5" y="981"/><rect fill="#F1F1F1" height="2" style="stroke:#181818;stroke-width:0.5;" width="4" x="260.5" y="985"/><text fill="#000000" font-family="sans-serif" font-size="14" lengthAdjust="spacing" textLength="111" x="146.5" y="1008.9659">Domain Services</text></g><!--MD5=[30d85f3125b7a53865e5f4719123efb6]
entity APP_API--><g id="elem_APP_API"><ellipse cx="207" cy="649" fill="#F1F1F1" rx="8" ry="8" style="stroke:#181818;stroke-width:0.5;"/><text fill="#000000" font-family="sans-serif" font-size="14" lengthAdjust="spacing" textLength="102" x="156" y="680.9659">Application API</text></g><!--MD5=[0aefd3324de3ab8c3fd9c9ea0f687424]
entity DOM_API--><g id="elem_DOM_API"><ellipse cx="207" cy="1115" fill="#F1F1F1" rx="8" ry="8" style="stroke:#181818;stroke-width:0.5;"/><text fill="#000000" font-family="sans-serif" font-size="14" lengthAdjust="spacing" textLength="78" x="168" y="1146.9659">Domain API</text></g><!--MD5=[44ea187545a283c559b3bae2fb79223f]
entity DOM_SERV_API--><g id="elem_DOM_SERV_API"><ellipse cx="207" cy="882" fill="#F1F1F1" rx="8" ry="8" style="stroke:#181818;stroke-width:0.5;"/><text fill="#000000" font-family="sans-serif" font-size="14" lengthAdjust="spacing" textLength="137" x="138.5" y="913.9659">Domain Services API</text></g><!--MD5=[50c35d0a5350f8e8f48a6d3669f54f50]
entity BOOT--><g id="elem_BOOT"><rect fill="#F1F1F1" height="49.0679" rx="2.5" ry="2.5" style="stroke:#181818;stroke-width:0.5;" width="70" x="172" y="215"/><rect fill="#F1F1F1" height="10" style="stroke:#181818;stroke-width:0.5;" width="15" x="222" y="220"/><rect fill="#F1F1F1" height="2" style="stroke:#181818;stroke-width:0.5;" width="4" x="220" y="222"/><rect fill="#F1F1F1" height="2" style="stroke:#181818;stroke-width:0.5;" width="4" x="220" y="226"/><text fill="#000000" font-family="sans-serif" font-size="14" lengthAdjust="spacing" textLength="30" x="187" y="249.9659">Boot</text></g><!--MD5=[44f07762fab2e804df8e0636e93cffbe]
entity BOOT_API--><g id="elem_BOOT_API"><ellipse cx="207" cy="123" fill="#F1F1F1" rx="8" ry="8" style="stroke:#181818;stroke-width:0.5;"/><text fill="#000000" font-family="sans-serif" font-size="14" lengthAdjust="spacing" textLength="56" x="179" y="154.9659">Boot API</text></g><!--MD5=[97c2cc28f62fbe16a090dcbe5e30d27b]
entity INGRESS--><g id="elem_INGRESS"><rect fill="#F1F1F1" height="49.0679" rx="2.5" ry="2.5" style="stroke:#181818;stroke-width:0.5;" width="91" x="225.5" y="488"/><rect fill="#F1F1F1" height="10" style="stroke:#181818;stroke-width:0.5;" width="15" x="296.5" y="493"/><rect fill="#F1F1F1" height="2" style="stroke:#181818;stroke-width:0.5;" width="4" x="294.5" y="495"/><rect fill="#F1F1F1" height="2" style="stroke:#181818;stroke-width:0.5;" width="4" x="294.5" y="499"/><text fill="#000000" font-family="sans-serif" font-size="14" lengthAdjust="spacing" textLength="51" x="240.5" y="522.9659">Ingress</text></g><!--MD5=[c9412b933c0b6dd0cce7b51723fdba10]
entity INTERNAL--><g id="elem_INTERNAL"><rect fill="#F1F1F1" height="49.0679" rx="2.5" ry="2.5" style="stroke:#181818;stroke-width:0.5;" width="94" x="96" y="488"/><rect fill="#F1F1F1" height="10" style="stroke:#181818;stroke-width:0.5;" width="15" x="170" y="493"/><rect fill="#F1F1F1" height="2" style="stroke:#181818;stroke-width:0.5;" width="4" x="168" y="495"/><rect fill="#F1F1F1" height="2" style="stroke:#181818;stroke-width:0.5;" width="4" x="168" y="499"/><text fill="#000000" font-family="sans-serif" font-size="14" lengthAdjust="spacing" textLength="54" x="111" y="522.9659">Internal</text></g><!--MD5=[7c09cc5e2fc5888767c10a541b3b1d17]
entity INGRESS_API--><g id="elem_INGRESS_API"><ellipse cx="272" cy="396" fill="#F1F1F1" rx="8" ry="8" style="stroke:#181818;stroke-width:0.5;"/><text fill="#000000" font-family="sans-serif" font-size="14" lengthAdjust="spacing" textLength="77" x="233.5" y="427.9659">Ingress API</text></g><!--MD5=[bea4d6aa064203998fd86e6c52b3e03d]
entity INTERNAL_API--><g id="elem_INTERNAL_API"><ellipse cx="143" cy="396" fill="#F1F1F1" rx="8" ry="8" style="stroke:#181818;stroke-width:0.5;"/><text fill="#000000" font-family="sans-serif" font-size="14" lengthAdjust="spacing" textLength="80" x="103" y="427.9659">Internal API</text></g><!--MD5=[14cf9b7186fc426919be12717f53f1a1]
link DOM_API to DOM--><g id="link_DOM_API_DOM"><path d="M207,1124.23 C207,1141.26 207,1180.89 207,1206.65 " fill="none" id="DOM_API-DOM" style="stroke:#181818;stroke-width:1.0;"/></g><!--MD5=[b929a7d98f1772b10f9ae2757a6ed60f]
link DOM_SERV_API to DOM_SERV--><g id="link_DOM_SERV_API_DOM_SERV"><path d="M207,891.23 C207,908.26 207,947.89 207,973.65 " fill="none" id="DOM_SERV_API-DOM_SERV" style="stroke:#181818;stroke-width:1.0;"/></g><!--MD5=[530304c66b8acc68ed58d4341088d695]
link INGRESS_API to INGRESS--><g id="link_INGRESS_API_INGRESS"><path d="M271.93,405.23 C271.78,422.26 271.43,461.89 271.21,487.65 " fill="none" id="INGRESS_API-INGRESS" style="stroke:#181818;stroke-width:1.0;"/></g><!--MD5=[a67076f93ca893e87ec52ccf0fa37c5d]
link INTERNAL_API to INTERNAL--><g id="link_INTERNAL_API_INTERNAL"><path d="M143,405.23 C143,422.26 143,461.89 143,487.65 " fill="none" id="INTERNAL_API-INTERNAL" style="stroke:#181818;stroke-width:1.0;"/></g><!--MD5=[9bc3545913d2ece8bc1c8e2c39a9583d]
link APP_API to APP--><g id="link_APP_API_APP"><path d="M207,658.23 C207,675.26 207,714.89 207,740.65 " fill="none" id="APP_API-APP" style="stroke:#181818;stroke-width:1.0;"/></g><!--MD5=[960e631b20e6d0a5a1769365a28f267a]
link BOOT_API to BOOT--><g id="link_BOOT_API_BOOT"><path d="M207,132.23 C207,149.26 207,188.89 207,214.65 " fill="none" id="BOOT_API-BOOT" style="stroke:#181818;stroke-width:1.0;"/></g><!--MD5=[58a2770b668c1bdb8c8e070aea1f0fb0]
link INGRESS to APP_API--><g id="link_INGRESS_APP_API"><path d="M259.71,537.24 C246.95,564.04 226.51,607 215.2,630.78 " fill="none" id="INGRESS-to-APP_API" style="stroke:#181818;stroke-width:1.0;"/><path d="M219.7896,640.8019 A9,9 0 0 0 204.5142 633.5383" fill="none" style="stroke:#181818;stroke-width:1.5;"/></g><!--MD5=[a612da5dea32945f5624be289abb7f66]
link INTERNAL to APP_API--><g id="link_INTERNAL_APP_API"><path d="M154.29,537.24 C167.05,564.04 187.49,607 198.8,630.78 " fill="none" id="INTERNAL-to-APP_API" style="stroke:#181818;stroke-width:1.0;"/><path d="M209.4858,633.5383 A9,9 0 0 0 194.2104 640.8019" fill="none" style="stroke:#181818;stroke-width:1.5;"/></g><!--MD5=[845c2c4eee2fae498ac38234a5aedbc1]
link APP to DOM_SERV_API--><g id="link_APP_DOM_SERV_API"><path d="M207,790.22 C207,811.8 207,843.18 207,862.82 " fill="none" id="APP-to-DOM_SERV_API" style="stroke:#181818;stroke-width:1.0;"/><path d="M215.4572,869.7918 A9,9 0 0 0 198.5428 869.7918" fill="none" style="stroke:#181818;stroke-width:1.5;"/></g><!--MD5=[4c0b42fcf9c300baa81263005d99b18a]
link DOM_SERV to DOM_API--><g id="link_DOM_SERV_DOM_API"><path d="M207,1023.22 C207,1044.8 207,1076.18 207,1095.82 " fill="none" id="DOM_SERV-to-DOM_API" style="stroke:#181818;stroke-width:1.0;"/><path d="M215.4572,1102.7918 A9,9 0 0 0 198.5428 1102.7918" fill="none" style="stroke:#181818;stroke-width:1.5;"/></g><!--MD5=[9483b5d18d033ae23162ccaaac381777]
link BOOT to INTERNAL_API--><g id="link_BOOT_INTERNAL_API"><path d="M197.14,264.3 C184.2,295.54 161.79,349.64 150.28,377.42 " fill="none" id="BOOT-to-INTERNAL_API" style="stroke:#181818;stroke-width:1.0;"/><path d="M155.3112,387.3775 A9,9 0 0 0 139.6879 380.896" fill="none" style="stroke:#181818;stroke-width:1.5;"/></g><!--MD5=[5aaa978c22e8e54db4cd3befe40cb162]
link BOOT to INGRESS_API--><g id="link_BOOT_INGRESS_API"><path d="M217.01,264.3 C230.15,295.54 252.92,349.64 264.6,377.42 " fill="none" id="BOOT-to-INGRESS_API" style="stroke:#181818;stroke-width:1.0;"/><path d="M275.2266,380.8575 A9,9 0 0 0 259.6413 387.4299" fill="none" style="stroke:#181818;stroke-width:1.5;"/></g><!--MD5=[e94a17c55fb3c4f6982fc7569be3f31a]
@startuml logical-view-level3-device-commander

skinparam Monochrome true

component "Device Commander Backend" {
    component "Application" as APP
    component "Domain" as DOM
    component "Domain Services" as DOM_SERV
    component "Infrastructure" as INFRA {
        component "Boot" as BOOT
        component "Endpoint" as ENDPOINT {
            component "AMQP" as AMQP {
                component "Ingress" as INGRESS
                component "Internal" as INTERNAL
                interface "Ingress API" as INGRESS_API
                interface "Internal API" as INTERNAL_API
            }
        }
        interface "Boot API" as BOOT_API
    }

    interface "Application API" as APP_API
    interface "Domain API" as DOM_API
    interface "Domain Services API" as DOM_SERV_API

    DOM_API - - DOM
    DOM_SERV_API - - DOM_SERV

    INGRESS_API - - INGRESS
    INTERNAL_API - - INTERNAL

    APP_API - - APP
    BOOT_API - - BOOT

    INGRESS - -( APP_API
    INTERNAL - -( APP_API
    APP - -( DOM_SERV_API
    DOM_SERV - -( DOM_API
    BOOT - -( INTERNAL_API
    BOOT - -( INGRESS_API
}

@enduml

PlantUML version 1.2022.4(Sat Apr 09 14:29:17 WEST 2022)
(GPL source distribution)
Java Runtime: OpenJDK Runtime Environment
JVM: OpenJDK 64-Bit Server VM
Default Encoding: UTF-8
Language: en
Country: GB
--></g></svg>