<?xml version="1.0" encoding="UTF-8" standalone="no"?><svg xmlns="http://www.w3.org/2000/svg" xmlns:xlink="http://www.w3.org/1999/xlink" contentScriptType="application/ecmascript" contentStyleType="text/css" height="689px" preserveAspectRatio="none" style="width:575px;height:689px;background:#FFFFFF;" version="1.1" viewBox="0 0 575 689" width="575px" zoomAndPan="magnify"><defs><filter height="300%" id="fcjuxqmh55m28" width="300%" x="-1" y="-1"><feGaussianBlur result="blurOut" stdDeviation="2.0"/><feColorMatrix in="blurOut" result="blurOut2" type="matrix" values="0 0 0 0 0 0 0 0 0 0 0 0 0 0 0 0 0 0 .4 0"/><feOffset dx="4.0" dy="4.0" in="blurOut2" result="blurOut3"/><feBlend in="SourceGraphic" in2="blurOut3" mode="normal"/></filter></defs><g><!--MD5=[64a93b96a65cf7151322dbedb2af1cda]
cluster Data Validator--><rect fill="#FFFFFF" filter="url(#fcjuxqmh55m28)" height="668.5" style="stroke:#000000;stroke-width:1.5;" width="554" x="7" y="7"/><rect fill="#FFFFFF" height="10" style="stroke:#000000;stroke-width:1.5;" width="15" x="541" y="12"/><rect fill="#FFFFFF" height="2" style="stroke:#000000;stroke-width:1.5;" width="4" x="539" y="14"/><rect fill="#FFFFFF" height="2" style="stroke:#000000;stroke-width:1.5;" width="4" x="539" y="18"/><text fill="#000000" font-family="sans-serif" font-size="14" font-weight="bold" lengthAdjust="spacing" textLength="99" x="234.5" y="34.9659">Data Validator</text><!--MD5=[70becb833e031d8ab2b25bb6fd041c2b]
cluster INFRA--><rect fill="#FFFFFF" filter="url(#fcjuxqmh55m28)" height="541.5" style="stroke:#000000;stroke-width:1.5;" width="380" x="31" y="53"/><rect fill="#FFFFFF" height="10" style="stroke:#000000;stroke-width:1.5;" width="15" x="391" y="58"/><rect fill="#FFFFFF" height="2" style="stroke:#000000;stroke-width:1.5;" width="4" x="389" y="60"/><rect fill="#FFFFFF" height="2" style="stroke:#000000;stroke-width:1.5;" width="4" x="389" y="64"/><text fill="#000000" font-family="sans-serif" font-size="14" font-weight="bold" lengthAdjust="spacing" textLength="97" x="172.5" y="80.9659">Infrastructure</text><!--MD5=[e827ccb1cbd1809ec2e49ef4b2081f6a]
cluster ENDPOINT--><rect fill="#FFFFFF" filter="url(#fcjuxqmh55m28)" height="274.5" style="stroke:#000000;stroke-width:1.5;" width="316" x="63" y="288"/><rect fill="#FFFFFF" height="10" style="stroke:#000000;stroke-width:1.5;" width="15" x="359" y="293"/><rect fill="#FFFFFF" height="2" style="stroke:#000000;stroke-width:1.5;" width="4" x="357" y="295"/><rect fill="#FFFFFF" height="2" style="stroke:#000000;stroke-width:1.5;" width="4" x="357" y="299"/><text fill="#000000" font-family="sans-serif" font-size="14" font-weight="bold" lengthAdjust="spacing" textLength="63" x="189.5" y="315.9659">Endpoint</text><!--MD5=[a834a399ba2c7dfb9bb0bc2b6d57edb3]
cluster AMQP--><rect fill="#FFFFFF" filter="url(#fcjuxqmh55m28)" height="103" style="stroke:#000000;stroke-width:1.5;" width="244" x="95" y="427.5"/><rect fill="#FFFFFF" height="10" style="stroke:#000000;stroke-width:1.5;" width="15" x="319" y="432.5"/><rect fill="#FFFFFF" height="2" style="stroke:#000000;stroke-width:1.5;" width="4" x="317" y="434.5"/><rect fill="#FFFFFF" height="2" style="stroke:#000000;stroke-width:1.5;" width="4" x="317" y="438.5"/><text fill="#000000" font-family="sans-serif" font-size="14" font-weight="bold" lengthAdjust="spacing" textLength="43" x="195.5" y="455.4659">AMQP</text><!--MD5=[cd187d11655e4367e900de538d2f1d0c]
entity APP--><rect fill="#F8F8F8" filter="url(#fcjuxqmh55m28)" height="49.0679" style="stroke:#383838;stroke-width:1.5;" width="116" x="428" y="610.5"/><rect fill="#F8F8F8" height="10" style="stroke:#383838;stroke-width:1.5;" width="15" x="524" y="615.5"/><rect fill="#F8F8F8" height="2" style="stroke:#383838;stroke-width:1.5;" width="4" x="522" y="617.5"/><rect fill="#F8F8F8" height="2" style="stroke:#383838;stroke-width:1.5;" width="4" x="522" y="621.5"/><text fill="#000000" font-family="sans-serif" font-size="14" lengthAdjust="spacing" textLength="76" x="443" y="645.4659">Application</text><!--MD5=[30d85f3125b7a53865e5f4719123efb6]
entity APP_API--><ellipse cx="486" cy="490" fill="#F8F8F8" filter="url(#fcjuxqmh55m28)" rx="8" ry="8" style="stroke:#383838;stroke-width:1.5;"/><text fill="#000000" font-family="sans-serif" font-size="14" lengthAdjust="spacing" textLength="102" x="435" y="521.9659">Application API</text><!--MD5=[50c35d0a5350f8e8f48a6d3669f54f50]
entity BOOT--><rect fill="#F8F8F8" filter="url(#fcjuxqmh55m28)" height="49.0679" style="stroke:#383838;stroke-width:1.5;" width="70" x="180" y="215"/><rect fill="#F8F8F8" height="10" style="stroke:#383838;stroke-width:1.5;" width="15" x="230" y="220"/><rect fill="#F8F8F8" height="2" style="stroke:#383838;stroke-width:1.5;" width="4" x="228" y="222"/><rect fill="#F8F8F8" height="2" style="stroke:#383838;stroke-width:1.5;" width="4" x="228" y="226"/><text fill="#000000" font-family="sans-serif" font-size="14" lengthAdjust="spacing" textLength="30" x="195" y="249.9659">Boot</text><!--MD5=[44f07762fab2e804df8e0636e93cffbe]
entity BOOT_API--><ellipse cx="215" cy="123" fill="#F8F8F8" filter="url(#fcjuxqmh55m28)" rx="8" ry="8" style="stroke:#383838;stroke-width:1.5;"/><text fill="#000000" font-family="sans-serif" font-size="14" lengthAdjust="spacing" textLength="56" x="187" y="154.9659">Boot API</text><!--MD5=[7c09cc5e2fc5888767c10a541b3b1d17]
entity INGRESS_API--><ellipse cx="277" cy="366" fill="#F8F8F8" filter="url(#fcjuxqmh55m28)" rx="8" ry="8" style="stroke:#383838;stroke-width:1.5;"/><text fill="#000000" font-family="sans-serif" font-size="14" lengthAdjust="spacing" textLength="77" x="238.5" y="397.9659">Ingress API</text><!--MD5=[72db9eea1d2bf2ff908159e31b503589]
entity EGRESS_API--><ellipse cx="153" cy="366" fill="#F8F8F8" filter="url(#fcjuxqmh55m28)" rx="8" ry="8" style="stroke:#383838;stroke-width:1.5;"/><text fill="#000000" font-family="sans-serif" font-size="14" lengthAdjust="spacing" textLength="71" x="117.5" y="397.9659">Egress API</text><!--MD5=[97c2cc28f62fbe16a090dcbe5e30d27b]
entity INGRESS--><rect fill="#F8F8F8" filter="url(#fcjuxqmh55m28)" height="49.0679" style="stroke:#383838;stroke-width:1.5;" width="91" x="231.5" y="465.5"/><rect fill="#F8F8F8" height="10" style="stroke:#383838;stroke-width:1.5;" width="15" x="302.5" y="470.5"/><rect fill="#F8F8F8" height="2" style="stroke:#383838;stroke-width:1.5;" width="4" x="300.5" y="472.5"/><rect fill="#F8F8F8" height="2" style="stroke:#383838;stroke-width:1.5;" width="4" x="300.5" y="476.5"/><text fill="#000000" font-family="sans-serif" font-size="14" lengthAdjust="spacing" textLength="51" x="246.5" y="500.4659">Ingress</text><!--MD5=[c01cbe8a412be218debd57fa8df8abed]
entity EGRESS--><rect fill="#F8F8F8" filter="url(#fcjuxqmh55m28)" height="49.0679" style="stroke:#383838;stroke-width:1.5;" width="85" x="111.5" y="465.5"/><rect fill="#F8F8F8" height="10" style="stroke:#383838;stroke-width:1.5;" width="15" x="176.5" y="470.5"/><rect fill="#F8F8F8" height="2" style="stroke:#383838;stroke-width:1.5;" width="4" x="174.5" y="472.5"/><rect fill="#F8F8F8" height="2" style="stroke:#383838;stroke-width:1.5;" width="4" x="174.5" y="476.5"/><text fill="#000000" font-family="sans-serif" font-size="14" lengthAdjust="spacing" textLength="45" x="126.5" y="500.4659">Egress</text><!--MD5=[b4a61ba3a97355d6345cdf1acd7a7817]
link EGRESS_API to EGRESS--><path d="M153.07,375 C153.21,393.03 153.58,437.38 153.8,465.15 " fill="none" id="EGRESS_API-EGRESS" style="stroke:#383838;stroke-width:1.0;"/><!--MD5=[530304c66b8acc68ed58d4341088d695]
link INGRESS_API to INGRESS--><path d="M277,375 C277,393.03 277,437.38 277,465.15 " fill="none" id="INGRESS_API-INGRESS" style="stroke:#383838;stroke-width:1.0;"/><!--MD5=[9bc3545913d2ece8bc1c8e2c39a9583d]
link APP_API to APP--><path d="M486,499.1 C486,520.25 486,577.78 486,610.47 " fill="none" id="APP_API-APP" style="stroke:#383838;stroke-width:1.0;"/><!--MD5=[960e631b20e6d0a5a1769365a28f267a]
link BOOT_API to BOOT--><path d="M215,132.23 C215,149.26 215,188.89 215,214.65 " fill="none" id="BOOT_API-BOOT" style="stroke:#383838;stroke-width:1.0;"/><!--MD5=[03a3a3da64142f805947a80cad3d7aa7]
link BOOT to EGRESS_API--><path d="M203.19,264.21 C191,288.69 172.28,326.29 161.48,347.98 " fill="none" id="BOOT-to-EGRESS_API" style="stroke:#383838;stroke-width:1.0;"/><path d="M165.9429,357.9819 A9,9 0 0 0 150.7997 350.4465" style="stroke:#383838;stroke-width:1.5;fill:none;"/><!--MD5=[5aaa978c22e8e54db4cd3befe40cb162]
link BOOT to INGRESS_API--><path d="M226.81,264.21 C239,288.69 257.72,326.29 268.52,347.98 " fill="none" id="BOOT-to-INGRESS_API" style="stroke:#383838;stroke-width:1.0;"/><path d="M279.2003,350.4465 A9,9 0 0 0 264.0571 357.9819" style="stroke:#383838;stroke-width:1.5;fill:none;"/><!--MD5=[4650e1908a5caa745e5a54df07a9a97d]
link ENDPOINT to APP_API--><path d="M379.2497,375.7543 C379.4366,375.9525 379.6261,376.1536 379.8184,376.3575 C380.2029,376.7653 380.598,377.1844 381.0035,377.6145 C381.8144,378.4746 382.6665,379.3784 383.5567,380.3227 C390.6784,387.8766 400.2394,398.0181 410.6688,409.0812 C431.5275,431.2075 455.86,457.02 471.1,473.19 " fill="none" id="ENDPOINT-to-APP_API" style="stroke:#383838;stroke-width:1.0;"/><path d="M482.371,472.8182 A9,9 0 0 0 470.0653 484.4229" style="stroke:#383838;stroke-width:1.5;fill:none;"/><!--MD5=[a5ac7a0cffa1ab88f679beeab565c1ec]
@startuml logical-view-level3-data-validator

skinparam Monochrome true

component "Data Validator" {
    component "Application" as APP
    component "Infrastructure" as INFRA {
        component "Boot" as BOOT
        component "Endpoint" as ENDPOINT {
            component "AMQP" as AMQP {
                component "Ingress" as INGRESS
                component "Egress" as EGRESS
            }
            interface "Ingress API" as INGRESS_API
            interface "Egress API" as EGRESS_API
        }
        interface "Boot API" as BOOT_API
    }

    interface "Application API" as APP_API

    EGRESS_API - - EGRESS
    INGRESS_API - - INGRESS

    APP_API - - APP
    BOOT_API - - BOOT

    BOOT - -( EGRESS_API
    BOOT - -( INGRESS_API

    ENDPOINT - -( APP_API
}

@enduml

PlantUML version 1.2021.16(Wed Dec 08 17:25:22 WET 2021)
(GPL source distribution)
Java Runtime: OpenJDK Runtime Environment
JVM: OpenJDK 64-Bit Server VM
Default Encoding: UTF-8
Language: en
Country: GB
--></g></svg>