<?xml version="1.0" encoding="UTF-8" standalone="no"?><svg xmlns="http://www.w3.org/2000/svg" xmlns:xlink="http://www.w3.org/1999/xlink" contentStyleType="text/css" height="1278px" preserveAspectRatio="none" style="width:533px;height:1278px;background:#FFFFFF;" version="1.1" viewBox="0 0 533 1278" width="533px" zoomAndPan="magnify"><defs/><g><!--MD5=[eafbe672abef9263bcdc72a290af70e9]
cluster Device Management Slave Backend--><g id="cluster_Device Management Slave Backend"><rect height="1265" rx="2.5" ry="2.5" style="stroke:#181818;stroke-width:1.0;fill:none;" width="520" x="7" y="7"/><rect height="10" style="stroke:#181818;stroke-width:1.0;fill:none;" width="15" x="507" y="12"/><rect height="2" style="stroke:#181818;stroke-width:1.0;fill:none;" width="4" x="505" y="14"/><rect height="2" style="stroke:#181818;stroke-width:1.0;fill:none;" width="4" x="505" y="18"/><text fill="#000000" font-family="sans-serif" font-size="14" font-weight="bold" lengthAdjust="spacing" textLength="256.25" x="138.875" y="34.9659">Device Management Slave Backend</text></g><!--MD5=[70becb833e031d8ab2b25bb6fd041c2b]
cluster INFRA--><g id="cluster_INFRA"><rect height="548" rx="2.5" ry="2.5" style="stroke:#181818;stroke-width:1.0;fill:none;" width="472" x="31" y="53"/><rect height="10" style="stroke:#181818;stroke-width:1.0;fill:none;" width="15" x="483" y="58"/><rect height="2" style="stroke:#181818;stroke-width:1.0;fill:none;" width="4" x="481" y="60"/><rect height="2" style="stroke:#181818;stroke-width:1.0;fill:none;" width="4" x="481" y="64"/><text fill="#000000" font-family="sans-serif" font-size="14" font-weight="bold" lengthAdjust="spacing" textLength="103.125" x="215.4375" y="80.9659">Infrastructure</text></g><!--MD5=[e827ccb1cbd1809ec2e49ef4b2081f6a]
cluster ENDPOINT--><g id="cluster_ENDPOINT"><rect height="297" rx="2.5" ry="2.5" style="stroke:#181818;stroke-width:1.0;fill:none;" width="424" x="55" y="280"/><rect height="10" style="stroke:#181818;stroke-width:1.0;fill:none;" width="15" x="459" y="285"/><rect height="2" style="stroke:#181818;stroke-width:1.0;fill:none;" width="4" x="457" y="287"/><rect height="2" style="stroke:#181818;stroke-width:1.0;fill:none;" width="4" x="457" y="291"/><text fill="#000000" font-family="sans-serif" font-size="14" font-weight="bold" lengthAdjust="spacing" textLength="66.5" x="233.75" y="307.9659">Endpoint</text></g><!--MD5=[a834a399ba2c7dfb9bb0bc2b6d57edb3]
cluster AMQP--><g id="cluster_AMQP"><rect height="227" rx="2.5" ry="2.5" style="stroke:#181818;stroke-width:1.0;fill:none;" width="376" x="79" y="326"/><rect height="10" style="stroke:#181818;stroke-width:1.0;fill:none;" width="15" x="435" y="331"/><rect height="2" style="stroke:#181818;stroke-width:1.0;fill:none;" width="4" x="433" y="333"/><rect height="2" style="stroke:#181818;stroke-width:1.0;fill:none;" width="4" x="433" y="337"/><text fill="#000000" font-family="sans-serif" font-size="14" font-weight="bold" lengthAdjust="spacing" textLength="44.75" x="244.625" y="353.9659">AMQP</text></g><!--MD5=[cd187d11655e4367e900de538d2f1d0c]
entity APP--><g id="elem_APP"><rect fill="#F1F1F1" height="49.0679" rx="2.5" ry="2.5" style="stroke:#181818;stroke-width:0.5;" width="116" x="214" y="741"/><rect fill="#F1F1F1" height="10" style="stroke:#181818;stroke-width:0.5;" width="15" x="310" y="746"/><rect fill="#F1F1F1" height="2" style="stroke:#181818;stroke-width:0.5;" width="4" x="308" y="748"/><rect fill="#F1F1F1" height="2" style="stroke:#181818;stroke-width:0.5;" width="4" x="308" y="752"/><text fill="#000000" font-family="sans-serif" font-size="14" lengthAdjust="spacing" textLength="76" x="229" y="775.9659">Application</text></g><!--MD5=[711fc6413308d66a33499ee50e557b5d]
entity DOM--><g id="elem_DOM"><rect fill="#F1F1F1" height="49.0679" rx="2.5" ry="2.5" style="stroke:#181818;stroke-width:0.5;" width="92" x="226" y="1207"/><rect fill="#F1F1F1" height="10" style="stroke:#181818;stroke-width:0.5;" width="15" x="298" y="1212"/><rect fill="#F1F1F1" height="2" style="stroke:#181818;stroke-width:0.5;" width="4" x="296" y="1214"/><rect fill="#F1F1F1" height="2" style="stroke:#181818;stroke-width:0.5;" width="4" x="296" y="1218"/><text fill="#000000" font-family="sans-serif" font-size="14" lengthAdjust="spacing" textLength="52" x="241" y="1241.9659">Domain</text></g><!--MD5=[3dfc3527455eb72a4133679687dbe239]
entity DOM_SERV--><g id="elem_DOM_SERV"><rect fill="#F1F1F1" height="49.0679" rx="2.5" ry="2.5" style="stroke:#181818;stroke-width:0.5;" width="151" x="196.5" y="974"/><rect fill="#F1F1F1" height="10" style="stroke:#181818;stroke-width:0.5;" width="15" x="327.5" y="979"/><rect fill="#F1F1F1" height="2" style="stroke:#181818;stroke-width:0.5;" width="4" x="325.5" y="981"/><rect fill="#F1F1F1" height="2" style="stroke:#181818;stroke-width:0.5;" width="4" x="325.5" y="985"/><text fill="#000000" font-family="sans-serif" font-size="14" lengthAdjust="spacing" textLength="111" x="211.5" y="1008.9659">Domain Services</text></g><!--MD5=[30d85f3125b7a53865e5f4719123efb6]
entity APP_API--><g id="elem_APP_API"><ellipse cx="272" cy="649" fill="#F1F1F1" rx="8" ry="8" style="stroke:#181818;stroke-width:0.5;"/><text fill="#000000" font-family="sans-serif" font-size="14" lengthAdjust="spacing" textLength="102" x="221" y="680.9659">Application API</text></g><!--MD5=[0aefd3324de3ab8c3fd9c9ea0f687424]
entity DOM_API--><g id="elem_DOM_API"><ellipse cx="272" cy="1115" fill="#F1F1F1" rx="8" ry="8" style="stroke:#181818;stroke-width:0.5;"/><text fill="#000000" font-family="sans-serif" font-size="14" lengthAdjust="spacing" textLength="78" x="233" y="1146.9659">Domain API</text></g><!--MD5=[44ea187545a283c559b3bae2fb79223f]
entity DOM_SERV_API--><g id="elem_DOM_SERV_API"><ellipse cx="272" cy="882" fill="#F1F1F1" rx="8" ry="8" style="stroke:#181818;stroke-width:0.5;"/><text fill="#000000" font-family="sans-serif" font-size="14" lengthAdjust="spacing" textLength="137" x="203.5" y="913.9659">Domain Services API</text></g><!--MD5=[50c35d0a5350f8e8f48a6d3669f54f50]
entity BOOT--><g id="elem_BOOT"><rect fill="#F1F1F1" height="49.0679" rx="2.5" ry="2.5" style="stroke:#181818;stroke-width:0.5;" width="70" x="237" y="215"/><rect fill="#F1F1F1" height="10" style="stroke:#181818;stroke-width:0.5;" width="15" x="287" y="220"/><rect fill="#F1F1F1" height="2" style="stroke:#181818;stroke-width:0.5;" width="4" x="285" y="222"/><rect fill="#F1F1F1" height="2" style="stroke:#181818;stroke-width:0.5;" width="4" x="285" y="226"/><text fill="#000000" font-family="sans-serif" font-size="14" lengthAdjust="spacing" textLength="30" x="252" y="249.9659">Boot</text></g><!--MD5=[44f07762fab2e804df8e0636e93cffbe]
entity BOOT_API--><g id="elem_BOOT_API"><ellipse cx="272" cy="123" fill="#F1F1F1" rx="8" ry="8" style="stroke:#181818;stroke-width:0.5;"/><text fill="#000000" font-family="sans-serif" font-size="14" lengthAdjust="spacing" textLength="56" x="244" y="154.9659">Boot API</text></g><!--MD5=[c01cbe8a412be218debd57fa8df8abed]
entity EGRESS--><g id="elem_EGRESS"><rect fill="#F1F1F1" height="49.0679" rx="2.5" ry="2.5" style="stroke:#181818;stroke-width:0.5;" width="85" x="352.5" y="488"/><rect fill="#F1F1F1" height="10" style="stroke:#181818;stroke-width:0.5;" width="15" x="417.5" y="493"/><rect fill="#F1F1F1" height="2" style="stroke:#181818;stroke-width:0.5;" width="4" x="415.5" y="495"/><rect fill="#F1F1F1" height="2" style="stroke:#181818;stroke-width:0.5;" width="4" x="415.5" y="499"/><text fill="#000000" font-family="sans-serif" font-size="14" lengthAdjust="spacing" textLength="45" x="367.5" y="522.9659">Egress</text></g><!--MD5=[97c2cc28f62fbe16a090dcbe5e30d27b]
entity INGRESS--><g id="elem_INGRESS"><rect fill="#F1F1F1" height="49.0679" rx="2.5" ry="2.5" style="stroke:#181818;stroke-width:0.5;" width="91" x="226.5" y="488"/><rect fill="#F1F1F1" height="10" style="stroke:#181818;stroke-width:0.5;" width="15" x="297.5" y="493"/><rect fill="#F1F1F1" height="2" style="stroke:#181818;stroke-width:0.5;" width="4" x="295.5" y="495"/><rect fill="#F1F1F1" height="2" style="stroke:#181818;stroke-width:0.5;" width="4" x="295.5" y="499"/><text fill="#000000" font-family="sans-serif" font-size="14" lengthAdjust="spacing" textLength="51" x="241.5" y="522.9659">Ingress</text></g><!--MD5=[c9412b933c0b6dd0cce7b51723fdba10]
entity INTERNAL--><g id="elem_INTERNAL"><rect fill="#F1F1F1" height="49.0679" rx="2.5" ry="2.5" style="stroke:#181818;stroke-width:0.5;" width="94" x="96" y="488"/><rect fill="#F1F1F1" height="10" style="stroke:#181818;stroke-width:0.5;" width="15" x="170" y="493"/><rect fill="#F1F1F1" height="2" style="stroke:#181818;stroke-width:0.5;" width="4" x="168" y="495"/><rect fill="#F1F1F1" height="2" style="stroke:#181818;stroke-width:0.5;" width="4" x="168" y="499"/><text fill="#000000" font-family="sans-serif" font-size="14" lengthAdjust="spacing" textLength="54" x="111" y="522.9659">Internal</text></g><!--MD5=[72db9eea1d2bf2ff908159e31b503589]
entity EGRESS_API--><g id="elem_EGRESS_API"><ellipse cx="396" cy="396" fill="#F1F1F1" rx="8" ry="8" style="stroke:#181818;stroke-width:0.5;"/><text fill="#000000" font-family="sans-serif" font-size="14" lengthAdjust="spacing" textLength="71" x="360.5" y="427.9659">Egress API</text></g><!--MD5=[7c09cc5e2fc5888767c10a541b3b1d17]
entity INGRESS_API--><g id="elem_INGRESS_API"><ellipse cx="272" cy="396" fill="#F1F1F1" rx="8" ry="8" style="stroke:#181818;stroke-width:0.5;"/><text fill="#000000" font-family="sans-serif" font-size="14" lengthAdjust="spacing" textLength="77" x="233.5" y="427.9659">Ingress API</text></g><!--MD5=[bea4d6aa064203998fd86e6c52b3e03d]
entity INTERNAL_API--><g id="elem_INTERNAL_API"><ellipse cx="143" cy="396" fill="#F1F1F1" rx="8" ry="8" style="stroke:#181818;stroke-width:0.5;"/><text fill="#000000" font-family="sans-serif" font-size="14" lengthAdjust="spacing" textLength="80" x="103" y="427.9659">Internal API</text></g><!--MD5=[14cf9b7186fc426919be12717f53f1a1]
link DOM_API to DOM--><g id="link_DOM_API_DOM"><path d="M272,1124.23 C272,1141.26 272,1180.89 272,1206.65 " fill="none" id="DOM_API-DOM" style="stroke:#181818;stroke-width:1.0;"/></g><!--MD5=[b929a7d98f1772b10f9ae2757a6ed60f]
link DOM_SERV_API to DOM_SERV--><g id="link_DOM_SERV_API_DOM_SERV"><path d="M272,891.23 C272,908.26 272,947.89 272,973.65 " fill="none" id="DOM_SERV_API-DOM_SERV" style="stroke:#181818;stroke-width:1.0;"/></g><!--MD5=[b4a61ba3a97355d6345cdf1acd7a7817]
link EGRESS_API to EGRESS--><g id="link_EGRESS_API_EGRESS"><path d="M395.93,405.23 C395.78,422.26 395.43,461.89 395.21,487.65 " fill="none" id="EGRESS_API-EGRESS" style="stroke:#181818;stroke-width:1.0;"/></g><!--MD5=[530304c66b8acc68ed58d4341088d695]
link INGRESS_API to INGRESS--><g id="link_INGRESS_API_INGRESS"><path d="M272,405.23 C272,422.26 272,461.89 272,487.65 " fill="none" id="INGRESS_API-INGRESS" style="stroke:#181818;stroke-width:1.0;"/></g><!--MD5=[a67076f93ca893e87ec52ccf0fa37c5d]
link INTERNAL_API to INTERNAL--><g id="link_INTERNAL_API_INTERNAL"><path d="M143,405.23 C143,422.26 143,461.89 143,487.65 " fill="none" id="INTERNAL_API-INTERNAL" style="stroke:#181818;stroke-width:1.0;"/></g><!--MD5=[9bc3545913d2ece8bc1c8e2c39a9583d]
link APP_API to APP--><g id="link_APP_API_APP"><path d="M272,658.23 C272,675.26 272,714.89 272,740.65 " fill="none" id="APP_API-APP" style="stroke:#181818;stroke-width:1.0;"/></g><!--MD5=[960e631b20e6d0a5a1769365a28f267a]
link BOOT_API to BOOT--><g id="link_BOOT_API_BOOT"><path d="M272,132.23 C272,149.26 272,188.89 272,214.65 " fill="none" id="BOOT_API-BOOT" style="stroke:#181818;stroke-width:1.0;"/></g><!--MD5=[68390b1aba1d9af928db50dc2bd7271d]
link EGRESS to APP_API--><g id="link_EGRESS_APP_API"><path d="M384,537.19 C373.53,557.9 356.25,587.89 335,609 C321.91,622 303.71,632.68 290.24,639.55 " fill="none" id="EGRESS-to-APP_API" style="stroke:#181818;stroke-width:1.0;"/><path d="M287.4958,650.2901 A9,9 0 0 0 280.0768 635.0896" fill="none" style="stroke:#181818;stroke-width:1.5;"/></g><!--MD5=[58a2770b668c1bdb8c8e070aea1f0fb0]
link INGRESS to APP_API--><g id="link_INGRESS_APP_API"><path d="M272,537.24 C272,563.68 272,605.85 272,629.81 " fill="none" id="INGRESS-to-APP_API" style="stroke:#181818;stroke-width:1.0;"/><path d="M280.4572,636.8718 A9,9 0 0 0 263.5428 636.8718" fill="none" style="stroke:#181818;stroke-width:1.5;"/></g><!--MD5=[a612da5dea32945f5624be289abb7f66]
link INTERNAL to APP_API--><g id="link_INTERNAL_APP_API"><path d="M155.6,537.12 C167.44,557.79 186.65,587.75 209,609 C222.22,621.57 240.13,632.19 253.48,639.15 " fill="none" id="INTERNAL-to-APP_API" style="stroke:#181818;stroke-width:1.0;"/><path d="M263.6804,634.8003 A9,9 0 0 0 256.0967 649.9194" fill="none" style="stroke:#181818;stroke-width:1.5;"/></g><!--MD5=[845c2c4eee2fae498ac38234a5aedbc1]
link APP to DOM_SERV_API--><g id="link_APP_DOM_SERV_API"><path d="M272,790.22 C272,811.8 272,843.18 272,862.82 " fill="none" id="APP-to-DOM_SERV_API" style="stroke:#181818;stroke-width:1.0;"/><path d="M280.4572,869.7918 A9,9 0 0 0 263.5428 869.7918" fill="none" style="stroke:#181818;stroke-width:1.5;"/></g><!--MD5=[4c0b42fcf9c300baa81263005d99b18a]
link DOM_SERV to DOM_API--><g id="link_DOM_SERV_DOM_API"><path d="M272,1023.22 C272,1044.8 272,1076.18 272,1095.82 " fill="none" id="DOM_SERV-to-DOM_API" style="stroke:#181818;stroke-width:1.0;"/><path d="M280.4572,1102.7918 A9,9 0 0 0 263.5428 1102.7918" fill="none" style="stroke:#181818;stroke-width:1.5;"/></g><!--MD5=[9483b5d18d033ae23162ccaaac381777]
link BOOT to INTERNAL_API--><g id="link_BOOT_INTERNAL_API"><path d="M236.84,253.38 C227.02,258.16 216.89,264.33 209,272 C177.67,302.44 157.74,350.99 148.69,377.06 " fill="none" id="BOOT-to-INTERNAL_API" style="stroke:#181818;stroke-width:1.0;"/><path d="M154.4664,386.4861 A9,9 0 0 0 138.4151 381.1517" fill="none" style="stroke:#181818;stroke-width:1.5;"/></g><!--MD5=[03a3a3da64142f805947a80cad3d7aa7]
link BOOT to EGRESS_API--><g id="link_BOOT_EGRESS_API"><path d="M307.24,252.78 C317.43,257.59 327.96,263.93 336,272 C366.23,302.34 383.64,350.93 391.29,377.03 " fill="none" id="BOOT-to-EGRESS_API" style="stroke:#181818;stroke-width:1.0;"/><path d="M401.3012,381.4856 A9,9 0 0 0 385.007 386.0238" fill="none" style="stroke:#181818;stroke-width:1.5;"/></g><!--MD5=[5aaa978c22e8e54db4cd3befe40cb162]
link BOOT to INGRESS_API--><g id="link_BOOT_INGRESS_API"><path d="M272,264.3 C272,295.26 272,348.68 272,376.68 " fill="none" id="BOOT-to-INGRESS_API" style="stroke:#181818;stroke-width:1.0;"/><path d="M280.4572,383.9018 A9,9 0 0 0 263.5428 383.9018" fill="none" style="stroke:#181818;stroke-width:1.5;"/></g><!--MD5=[6fbe6aef276a336dd316860d6cecc979]
@startuml logical-view-level3-device-management-slave-backend

skinparam Monochrome true

component "Device Management Slave Backend" {
    component "Application" as APP
    component "Domain" as DOM
    component "Domain Services" as DOM_SERV
    component "Infrastructure" as INFRA {
        component "Boot" as BOOT
        component "Endpoint" as ENDPOINT {
            component "AMQP" as AMQP {
                component "Egress" as EGRESS
                component "Ingress" as INGRESS
                component "Internal" as INTERNAL
                interface "Egress API" as EGRESS_API
                interface "Ingress API" as INGRESS_API
                interface "Internal API" as INTERNAL_API
            }
        }
        interface "Boot API" as BOOT_API
    }

    interface "Application API" as APP_API
    interface "Domain API" as DOM_API
    interface "Domain Services API" as DOM_SERV_API

    DOM_API - - DOM
    DOM_SERV_API - - DOM_SERV

    EGRESS_API - - EGRESS
    INGRESS_API - - INGRESS
    INTERNAL_API - - INTERNAL

    APP_API - - APP
    BOOT_API - - BOOT

    EGRESS - -( APP_API
    INGRESS - -( APP_API
    INTERNAL - -( APP_API
    APP - -( DOM_SERV_API
    DOM_SERV - -( DOM_API
    BOOT - -( INTERNAL_API
    BOOT - -( EGRESS_API
    BOOT - -( INGRESS_API
}

@enduml

PlantUML version 1.2022.4(Sat Apr 09 14:29:17 WEST 2022)
(GPL source distribution)
Java Runtime: OpenJDK Runtime Environment
JVM: OpenJDK 64-Bit Server VM
Default Encoding: UTF-8
Language: en
Country: GB
--></g></svg>