<?xml version="1.0" encoding="UTF-8" standalone="no"?><svg xmlns="http://www.w3.org/2000/svg" xmlns:xlink="http://www.w3.org/1999/xlink" contentStyleType="text/css" height="1218px" preserveAspectRatio="none" style="width:510px;height:1218px;background:#FFFFFF;" version="1.1" viewBox="0 0 510 1218" width="510px" zoomAndPan="magnify"><defs/><g><!--MD5=[fe53cf7100eb2ab44dc8467e2d622843]
cluster Device Records Master Backend--><g id="cluster_Device Records Master Backend"><rect height="1205" rx="2.5" ry="2.5" style="stroke:#181818;stroke-width:1.0;fill:none;" width="497" x="7" y="7"/><rect height="10" style="stroke:#181818;stroke-width:1.0;fill:none;" width="15" x="484" y="12"/><rect height="2" style="stroke:#181818;stroke-width:1.0;fill:none;" width="4" x="482" y="14"/><rect height="2" style="stroke:#181818;stroke-width:1.0;fill:none;" width="4" x="482" y="18"/><text fill="#000000" font-family="sans-serif" font-size="14" font-weight="bold" lengthAdjust="spacing" textLength="230.375" x="140.3125" y="34.9659">Device Records Master Backend</text></g><!--MD5=[70becb833e031d8ab2b25bb6fd041c2b]
cluster INFRA--><g id="cluster_INFRA"><rect height="484" rx="2.5" ry="2.5" style="stroke:#181818;stroke-width:1.0;fill:none;" width="449" x="31" y="53"/><rect height="10" style="stroke:#181818;stroke-width:1.0;fill:none;" width="15" x="460" y="58"/><rect height="2" style="stroke:#181818;stroke-width:1.0;fill:none;" width="4" x="458" y="60"/><rect height="2" style="stroke:#181818;stroke-width:1.0;fill:none;" width="4" x="458" y="64"/><text fill="#000000" font-family="sans-serif" font-size="14" font-weight="bold" lengthAdjust="spacing" textLength="103.125" x="203.9375" y="80.9659">Infrastructure</text></g><!--MD5=[7a83628ac60894de8f7ccce91cd32b26]
cluster PERSIST--><g id="cluster_PERSIST"><rect height="227" rx="2.5" ry="2.5" style="stroke:#181818;stroke-width:1.0;fill:none;" width="132" x="55" y="286"/><rect height="10" style="stroke:#181818;stroke-width:1.0;fill:none;" width="15" x="167" y="291"/><rect height="2" style="stroke:#181818;stroke-width:1.0;fill:none;" width="4" x="165" y="293"/><rect height="2" style="stroke:#181818;stroke-width:1.0;fill:none;" width="4" x="165" y="297"/><text fill="#000000" font-family="sans-serif" font-size="14" font-weight="bold" lengthAdjust="spacing" textLength="83.8125" x="79.0938" y="313.9659">Presistence</text></g><!--MD5=[e827ccb1cbd1809ec2e49ef4b2081f6a]
cluster ENDPOINT--><g id="cluster_ENDPOINT"><rect height="227" rx="2.5" ry="2.5" style="stroke:#181818;stroke-width:1.0;fill:none;" width="245" x="211" y="286"/><rect height="10" style="stroke:#181818;stroke-width:1.0;fill:none;" width="15" x="436" y="291"/><rect height="2" style="stroke:#181818;stroke-width:1.0;fill:none;" width="4" x="434" y="293"/><rect height="2" style="stroke:#181818;stroke-width:1.0;fill:none;" width="4" x="434" y="297"/><text fill="#000000" font-family="sans-serif" font-size="14" font-weight="bold" lengthAdjust="spacing" textLength="66.5" x="300.25" y="313.9659">Endpoint</text></g><!--MD5=[cd187d11655e4367e900de538d2f1d0c]
entity APP--><g id="elem_APP"><rect fill="#F1F1F1" height="49.0679" rx="2.5" ry="2.5" style="stroke:#181818;stroke-width:0.5;" width="116" x="205" y="681"/><rect fill="#F1F1F1" height="10" style="stroke:#181818;stroke-width:0.5;" width="15" x="301" y="686"/><rect fill="#F1F1F1" height="2" style="stroke:#181818;stroke-width:0.5;" width="4" x="299" y="688"/><rect fill="#F1F1F1" height="2" style="stroke:#181818;stroke-width:0.5;" width="4" x="299" y="692"/><text fill="#000000" font-family="sans-serif" font-size="14" lengthAdjust="spacing" textLength="76" x="220" y="715.9659">Application</text></g><!--MD5=[711fc6413308d66a33499ee50e557b5d]
entity DOM--><g id="elem_DOM"><rect fill="#F1F1F1" height="49.0679" rx="2.5" ry="2.5" style="stroke:#181818;stroke-width:0.5;" width="92" x="148" y="1147"/><rect fill="#F1F1F1" height="10" style="stroke:#181818;stroke-width:0.5;" width="15" x="220" y="1152"/><rect fill="#F1F1F1" height="2" style="stroke:#181818;stroke-width:0.5;" width="4" x="218" y="1154"/><rect fill="#F1F1F1" height="2" style="stroke:#181818;stroke-width:0.5;" width="4" x="218" y="1158"/><text fill="#000000" font-family="sans-serif" font-size="14" lengthAdjust="spacing" textLength="52" x="163" y="1181.9659">Domain</text></g><!--MD5=[3dfc3527455eb72a4133679687dbe239]
entity DOM_SERV--><g id="elem_DOM_SERV"><rect fill="#F1F1F1" height="49.0679" rx="2.5" ry="2.5" style="stroke:#181818;stroke-width:0.5;" width="151" x="175.5" y="914"/><rect fill="#F1F1F1" height="10" style="stroke:#181818;stroke-width:0.5;" width="15" x="306.5" y="919"/><rect fill="#F1F1F1" height="2" style="stroke:#181818;stroke-width:0.5;" width="4" x="304.5" y="921"/><rect fill="#F1F1F1" height="2" style="stroke:#181818;stroke-width:0.5;" width="4" x="304.5" y="925"/><text fill="#000000" font-family="sans-serif" font-size="14" lengthAdjust="spacing" textLength="111" x="190.5" y="948.9659">Domain Services</text></g><!--MD5=[30d85f3125b7a53865e5f4719123efb6]
entity APP_API--><g id="elem_APP_API"><ellipse cx="268" cy="589" fill="#F1F1F1" rx="8" ry="8" style="stroke:#181818;stroke-width:0.5;"/><text fill="#000000" font-family="sans-serif" font-size="14" lengthAdjust="spacing" textLength="102" x="217" y="620.9659">Application API</text></g><!--MD5=[0aefd3324de3ab8c3fd9c9ea0f687424]
entity DOM_API--><g id="elem_DOM_API"><ellipse cx="194" cy="1055" fill="#F1F1F1" rx="8" ry="8" style="stroke:#181818;stroke-width:0.5;"/><text fill="#000000" font-family="sans-serif" font-size="14" lengthAdjust="spacing" textLength="78" x="155" y="1086.9659">Domain API</text></g><!--MD5=[44ea187545a283c559b3bae2fb79223f]
entity DOM_SERV_API--><g id="elem_DOM_SERV_API"><ellipse cx="259" cy="822" fill="#F1F1F1" rx="8" ry="8" style="stroke:#181818;stroke-width:0.5;"/><text fill="#000000" font-family="sans-serif" font-size="14" lengthAdjust="spacing" textLength="137" x="190.5" y="853.9659">Domain Services API</text></g><!--MD5=[50c35d0a5350f8e8f48a6d3669f54f50]
entity BOOT--><g id="elem_BOOT"><rect fill="#F1F1F1" height="49.0679" rx="2.5" ry="2.5" style="stroke:#181818;stroke-width:0.5;" width="70" x="233" y="215"/><rect fill="#F1F1F1" height="10" style="stroke:#181818;stroke-width:0.5;" width="15" x="283" y="220"/><rect fill="#F1F1F1" height="2" style="stroke:#181818;stroke-width:0.5;" width="4" x="281" y="222"/><rect fill="#F1F1F1" height="2" style="stroke:#181818;stroke-width:0.5;" width="4" x="281" y="226"/><text fill="#000000" font-family="sans-serif" font-size="14" lengthAdjust="spacing" textLength="30" x="248" y="249.9659">Boot</text></g><!--MD5=[44f07762fab2e804df8e0636e93cffbe]
entity BOOT_API--><g id="elem_BOOT_API"><ellipse cx="268" cy="123" fill="#F1F1F1" rx="8" ry="8" style="stroke:#181818;stroke-width:0.5;"/><text fill="#000000" font-family="sans-serif" font-size="14" lengthAdjust="spacing" textLength="56" x="240" y="154.9659">Boot API</text></g><!--MD5=[e8f61fc9e6949b2891b48f1d9fff5dab]
entity POSTG--><g id="elem_POSTG"><rect fill="#F1F1F1" height="49.0679" rx="2.5" ry="2.5" style="stroke:#181818;stroke-width:0.5;" width="98" x="72" y="448"/><rect fill="#F1F1F1" height="10" style="stroke:#181818;stroke-width:0.5;" width="15" x="150" y="453"/><rect fill="#F1F1F1" height="2" style="stroke:#181818;stroke-width:0.5;" width="4" x="148" y="455"/><rect fill="#F1F1F1" height="2" style="stroke:#181818;stroke-width:0.5;" width="4" x="148" y="459"/><text fill="#000000" font-family="sans-serif" font-size="14" lengthAdjust="spacing" textLength="58" x="87" y="482.9659">Postgres</text></g><!--MD5=[70e882393759605d085bbd393502e685]
entity POSTG_API--><g id="elem_POSTG_API"><ellipse cx="121" cy="356" fill="#F1F1F1" rx="8" ry="8" style="stroke:#181818;stroke-width:0.5;"/><text fill="#000000" font-family="sans-serif" font-size="14" lengthAdjust="spacing" textLength="84" x="79" y="387.9659">Postgres API</text></g><!--MD5=[eefed110d7d8a33cb70be22dd9d01c77]
entity GRAPH--><g id="elem_GRAPH"><rect fill="#F1F1F1" height="49.0679" rx="2.5" ry="2.5" style="stroke:#181818;stroke-width:0.5;" width="95" x="343.5" y="448"/><rect fill="#F1F1F1" height="10" style="stroke:#181818;stroke-width:0.5;" width="15" x="418.5" y="453"/><rect fill="#F1F1F1" height="2" style="stroke:#181818;stroke-width:0.5;" width="4" x="416.5" y="455"/><rect fill="#F1F1F1" height="2" style="stroke:#181818;stroke-width:0.5;" width="4" x="416.5" y="459"/><text fill="#000000" font-family="sans-serif" font-size="14" lengthAdjust="spacing" textLength="55" x="358.5" y="482.9659">Graphql</text></g><!--MD5=[66db70f94ccbac3c79bd754cb956443f]
entity AMQP--><g id="elem_AMQP"><rect fill="#F1F1F1" height="49.0679" rx="2.5" ry="2.5" style="stroke:#181818;stroke-width:0.5;" width="81" x="227.5" y="448"/><rect fill="#F1F1F1" height="10" style="stroke:#181818;stroke-width:0.5;" width="15" x="288.5" y="453"/><rect fill="#F1F1F1" height="2" style="stroke:#181818;stroke-width:0.5;" width="4" x="286.5" y="455"/><rect fill="#F1F1F1" height="2" style="stroke:#181818;stroke-width:0.5;" width="4" x="286.5" y="459"/><text fill="#000000" font-family="sans-serif" font-size="14" lengthAdjust="spacing" textLength="41" x="242.5" y="482.9659">AMQP</text></g><!--MD5=[c8ee6569ca67e1620e4e7d4ee0399787]
entity GRAPH_API--><g id="elem_GRAPH_API"><ellipse cx="392" cy="356" fill="#F1F1F1" rx="8" ry="8" style="stroke:#181818;stroke-width:0.5;"/><text fill="#000000" font-family="sans-serif" font-size="14" lengthAdjust="spacing" textLength="81" x="351.5" y="387.9659">Graphql API</text></g><!--MD5=[f360c852f81daa4ad66be7df7a5c9a3d]
entity AMQP_API--><g id="elem_AMQP_API"><ellipse cx="268" cy="356" fill="#F1F1F1" rx="8" ry="8" style="stroke:#181818;stroke-width:0.5;"/><text fill="#000000" font-family="sans-serif" font-size="14" lengthAdjust="spacing" textLength="67" x="234.5" y="387.9659">AMQP API</text></g><!--MD5=[160c4f6ce35ebd0c56b75ff8de26807c]
link GRAPH_API to GRAPH--><g id="link_GRAPH_API_GRAPH"><path d="M391.93,365.23 C391.78,382.26 391.43,421.89 391.21,447.65 " fill="none" id="GRAPH_API-GRAPH" style="stroke:#181818;stroke-width:1.0;"/></g><!--MD5=[14cf9b7186fc426919be12717f53f1a1]
link DOM_API to DOM--><g id="link_DOM_API_DOM"><path d="M194,1064.23 C194,1081.26 194,1120.89 194,1146.65 " fill="none" id="DOM_API-DOM" style="stroke:#181818;stroke-width:1.0;"/></g><!--MD5=[b929a7d98f1772b10f9ae2757a6ed60f]
link DOM_SERV_API to DOM_SERV--><g id="link_DOM_SERV_API_DOM_SERV"><path d="M258.42,831.23 C257.24,848.26 254.47,887.89 252.67,913.65 " fill="none" id="DOM_SERV_API-DOM_SERV" style="stroke:#181818;stroke-width:1.0;"/></g><!--MD5=[6c47b63cf1ccf71776fb2fb1146b89bd]
link POSTG_API to POSTG--><g id="link_POSTG_API_POSTG"><path d="M121,365.23 C121,382.26 121,421.89 121,447.65 " fill="none" id="POSTG_API-POSTG" style="stroke:#181818;stroke-width:1.0;"/></g><!--MD5=[144eb759bece83ea8e8de5d37013052c]
link AMQP_API to AMQP--><g id="link_AMQP_API_AMQP"><path d="M268,365.23 C268,382.26 268,421.89 268,447.65 " fill="none" id="AMQP_API-AMQP" style="stroke:#181818;stroke-width:1.0;"/></g><!--MD5=[9bc3545913d2ece8bc1c8e2c39a9583d]
link APP_API to APP--><g id="link_APP_API_APP"><path d="M267.64,598.23 C266.9,615.26 265.17,654.89 264.04,680.65 " fill="none" id="APP_API-APP" style="stroke:#181818;stroke-width:1.0;"/></g><!--MD5=[960e631b20e6d0a5a1769365a28f267a]
link BOOT_API to BOOT--><g id="link_BOOT_API_BOOT"><path d="M268,132.23 C268,149.26 268,188.89 268,214.65 " fill="none" id="BOOT_API-BOOT" style="stroke:#181818;stroke-width:1.0;"/></g><!--MD5=[50ee9e5020b7eeb8cea5a65291237e8d]
link AMQP to APP_API--><g id="link_AMQP_APP_API"><path d="M268,497.22 C268,518.8 268,550.18 268,569.82 " fill="none" id="AMQP-to-APP_API" style="stroke:#181818;stroke-width:1.0;"/><path d="M276.4572,576.7918 A9,9 0 0 0 259.5428 576.7918" fill="none" style="stroke:#181818;stroke-width:1.5;"/></g><!--MD5=[0ddcf11b34a9fc7a0f67d96af8941017]
link POSTG to DOM_API--><g id="link_POSTG_DOM_API"><path d="M122.53,497.1 C125.09,538.89 130,628.65 130,704.5 C130,704.5 130,704.5 130,823 C130,905.54 168.42,998.85 185.73,1036.69 " fill="none" id="POSTG-to-DOM_API" style="stroke:#181818;stroke-width:1.0;"/><path d="M196.3648,1039.4769 A9,9 0 0 0 181.0341 1046.6232" fill="none" style="stroke:#181818;stroke-width:1.5;"/></g><!--MD5=[44ca1261df47425d2684deadd52f5933]
link GRAPH to APP_API--><g id="link_GRAPH_APP_API"><path d="M371.58,497.12 C359.19,511.6 342.42,530.14 326,545 C313.24,556.55 297.48,568.08 285.61,576.29 " fill="none" id="GRAPH-to-APP_API" style="stroke:#181818;stroke-width:1.0;"/><path d="M284.3565,587.3688 A9,9 0 0 0 274.8573 573.3737" fill="none" style="stroke:#181818;stroke-width:1.5;"/></g><!--MD5=[845c2c4eee2fae498ac38234a5aedbc1]
link APP to DOM_SERV_API--><g id="link_APP_DOM_SERV_API"><path d="M262.17,730.22 C261.42,751.8 260.32,783.18 259.63,802.82 " fill="none" id="APP-to-DOM_SERV_API" style="stroke:#181818;stroke-width:1.0;"/><path d="M267.8419,810.0961 A9,9 0 0 0 250.9382 809.4915" fill="none" style="stroke:#181818;stroke-width:1.5;"/></g><!--MD5=[4c0b42fcf9c300baa81263005d99b18a]
link DOM_SERV to DOM_API--><g id="link_DOM_SERV_DOM_API"><path d="M239.19,963.22 C228.25,985.2 212.24,1017.36 202.51,1036.91 " fill="none" id="DOM_SERV-to-DOM_API" style="stroke:#181818;stroke-width:1.0;"/><path d="M206.9929,1046.8819 A9,9 0 0 0 191.8497 1039.3465" fill="none" style="stroke:#181818;stroke-width:1.5;"/></g><!--MD5=[3ab433faba4759891346c22302c8e76e]
link BOOT to GRAPH_API--><g id="link_BOOT_GRAPH_API"><path d="M303.26,260.44 C311.4,265.71 319.78,271.69 327,278 C348.12,296.45 368.28,321.99 380.4,338.5 " fill="none" id="BOOT-to-GRAPH_API" style="stroke:#181818;stroke-width:1.0;"/><path d="M391.3244,339.2101 A9,9 0 0 0 377.5982 349.094" fill="none" style="stroke:#181818;stroke-width:1.5;"/></g><!--MD5=[4379324cd2c7c1b2cbe82266d6d3e2c8]
link BOOT to POSTG_API--><g id="link_BOOT_POSTG_API"><path d="M232.86,262.62 C225.52,267.52 217.91,272.8 211,278 C184.17,298.18 154.95,323.94 137.31,339.96 " fill="none" id="BOOT-to-POSTG_API" style="stroke:#181818;stroke-width:1.0;"/><path d="M137.6195,351.1327 A9,9 0 0 0 126.2031 338.6521" fill="none" style="stroke:#181818;stroke-width:1.5;"/></g><!--MD5=[825637d1efb63c5c00802efb716c3c83]
link BOOT to AMQP_API--><g id="link_BOOT_AMQP_API"><path d="M268,264.22 C268,285.8 268,317.18 268,336.82 " fill="none" id="BOOT-to-AMQP_API" style="stroke:#181818;stroke-width:1.0;"/><path d="M276.4572,343.7918 A9,9 0 0 0 259.5428 343.7918" fill="none" style="stroke:#181818;stroke-width:1.5;"/></g><!--MD5=[541318ec9a16588591eae277a0dda11c]
@startuml logical-view-level3-device-records-master-backend

skinparam Monochrome true

component "Device Records Master Backend" {
    component "Application" as APP
    component "Domain" as DOM
    component "Domain Services" as DOM_SERV
    component "Infrastructure" as INFRA {
        component "Boot" as BOOT
        component "Presistence" as PERSIST {
            component "Postgres" as POSTG
            interface "Postgres API" as POSTG_API
        }
        component "Endpoint" as ENDPOINT {
            component "Graphql" as GRAPH
            component "AMQP" as AMQP
            interface "Graphql API" as GRAPH_API
            interface "AMQP API" as AMQP_API
        }
        interface "Boot API" as BOOT_API
    }

    interface "Application API" as APP_API
    interface "Domain API" as DOM_API
    interface "Domain Services API" as DOM_SERV_API

    GRAPH_API - - GRAPH
    DOM_API - - DOM
    DOM_SERV_API - - DOM_SERV

    POSTG_API - - POSTG
    AMQP_API - - AMQP
    APP_API - - APP
    BOOT_API - - BOOT

    AMQP - -( APP_API
    POSTG - -( DOM_API
    GRAPH - -( APP_API
    APP - -( DOM_SERV_API
    DOM_SERV - -( DOM_API
    BOOT - -( GRAPH_API
    BOOT - -( POSTG_API
    BOOT - -( AMQP_API
}

@enduml

PlantUML version 1.2022.4(Sat Apr 09 14:29:17 WEST 2022)
(GPL source distribution)
Java Runtime: OpenJDK Runtime Environment
JVM: OpenJDK 64-Bit Server VM
Default Encoding: UTF-8
Language: en
Country: GB
--></g></svg>