<?xml version="1.0" encoding="UTF-8" standalone="no"?><svg xmlns="http://www.w3.org/2000/svg" xmlns:xlink="http://www.w3.org/1999/xlink" contentStyleType="text/css" height="538px" preserveAspectRatio="none" style="width:610px;height:538px;background:#FFFFFF;" version="1.1" viewBox="0 0 610 538" width="610px" zoomAndPan="magnify"><defs/><g><!--MD5=[8ad42e69c823d91e931492f14bc2a1bb]
entity S--><g id="elem_S"><rect fill="#F1F1F1" height="49.0679" rx="2.5" ry="2.5" style="stroke:#181818;stroke-width:0.5;" width="88" x="240.5" y="268.5"/><rect fill="#F1F1F1" height="10" style="stroke:#181818;stroke-width:0.5;" width="15" x="308.5" y="273.5"/><rect fill="#F1F1F1" height="2" style="stroke:#181818;stroke-width:0.5;" width="4" x="306.5" y="275.5"/><rect fill="#F1F1F1" height="2" style="stroke:#181818;stroke-width:0.5;" width="4" x="306.5" y="279.5"/><text fill="#000000" font-family="sans-serif" font-size="14" lengthAdjust="spacing" textLength="48" x="255.5" y="303.4659">System</text></g><!--MD5=[fef35d5d86525b69a6366e4548c0ec5e]
entity HC--><g id="elem_HC"><rect fill="#F1F1F1" height="49.0679" rx="2.5" ry="2.5" style="stroke:#181818;stroke-width:0.5;" width="145" x="7" y="268.5"/><rect fill="#F1F1F1" height="10" style="stroke:#181818;stroke-width:0.5;" width="15" x="132" y="273.5"/><rect fill="#F1F1F1" height="2" style="stroke:#181818;stroke-width:0.5;" width="4" x="130" y="275.5"/><rect fill="#F1F1F1" height="2" style="stroke:#181818;stroke-width:0.5;" width="4" x="130" y="279.5"/><text fill="#000000" font-family="sans-serif" font-size="14" lengthAdjust="spacing" textLength="105" x="22" y="303.4659">Helium Console</text></g><!--MD5=[6cb5d63f37a67a4cf04b706d03a77bd8]
entity AAD--><g id="elem_AAD"><rect fill="#F1F1F1" height="49.0679" rx="2.5" ry="2.5" style="stroke:#181818;stroke-width:0.5;" width="188" x="416.5" y="268.5"/><rect fill="#F1F1F1" height="10" style="stroke:#181818;stroke-width:0.5;" width="15" x="584.5" y="273.5"/><rect fill="#F1F1F1" height="2" style="stroke:#181818;stroke-width:0.5;" width="4" x="582.5" y="275.5"/><rect fill="#F1F1F1" height="2" style="stroke:#181818;stroke-width:0.5;" width="4" x="582.5" y="279.5"/><text fill="#000000" font-family="sans-serif" font-size="14" lengthAdjust="spacing" textLength="148" x="431.5" y="303.4659">Azure Active Directory</text></g><!--MD5=[4061b870dc80a092bb82ced15bd4be48]
entity GIP--><g id="elem_GIP"><rect fill="#F1F1F1" height="49.0679" rx="2.5" ry="2.5" style="stroke:#181818;stroke-width:0.5;" width="204" x="328.5" y="377.5"/><rect fill="#F1F1F1" height="10" style="stroke:#181818;stroke-width:0.5;" width="15" x="512.5" y="382.5"/><rect fill="#F1F1F1" height="2" style="stroke:#181818;stroke-width:0.5;" width="4" x="510.5" y="384.5"/><rect fill="#F1F1F1" height="2" style="stroke:#181818;stroke-width:0.5;" width="4" x="510.5" y="388.5"/><text fill="#000000" font-family="sans-serif" font-size="14" lengthAdjust="spacing" textLength="164" x="343.5" y="412.4659">Google Identity Platform</text></g><!--MD5=[c42ed81cef7fdd2e33758127945b9a5b]
entity UI--><g id="elem_UI"><ellipse cx="284.5" cy="176.5" fill="#F1F1F1" rx="8" ry="8" style="stroke:#181818;stroke-width:0.5;"/><text fill="#000000" font-family="sans-serif" font-size="14" lengthAdjust="spacing" textLength="15" x="277" y="208.4659">UI</text></g><!--MD5=[4e39252b42436a746f03837e12c70454]
entity OUT_ENDPOINT--><g id="elem_OUT_ENDPOINT"><ellipse cx="196.5" cy="293" fill="#F1F1F1" rx="8" ry="8" style="stroke:#181818;stroke-width:0.5;"/><text fill="#000000" font-family="sans-serif" font-size="14" lengthAdjust="spacing" textLength="105" x="144" y="324.9659">Helium Console</text><text fill="#000000" font-family="sans-serif" font-size="14" lengthAdjust="spacing" textLength="55" x="144" y="344.0339">Rest API</text></g><!--MD5=[259fb42cf3d26cb196e8dd6a3316d2da]
entity IN_ENDPOINT--><g id="elem_IN_ENDPOINT"><ellipse cx="155.5" cy="402" fill="#F1F1F1" rx="8" ry="8" style="stroke:#181818;stroke-width:0.5;"/><text fill="#000000" font-family="sans-serif" font-size="14" lengthAdjust="spacing" textLength="105" x="103" y="433.9659">Sensae Console</text><text fill="#000000" font-family="sans-serif" font-size="14" lengthAdjust="spacing" textLength="55" x="103" y="453.0339">Rest API</text></g><g id="elem_GMN9"><path d="M86,486.5 L86,531.912 A0,0 0 0 0 86,531.912 L225,531.912 A0,0 0 0 0 225,531.912 L225,496.5 L215,486.5 L159.5,486.5 L155.5,411.24 L151.5,486.5 L86,486.5 A0,0 0 0 0 86,486.5 " fill="#FAFAFA" style="stroke:#181818;stroke-width:0.5;"/><path d="M215,486.5 L215,496.5 L225,496.5 L215,486.5 " fill="#FAFAFA" style="stroke:#181818;stroke-width:0.5;"/><text fill="#000000" font-family="sans-serif" font-size="13" lengthAdjust="spacing" textLength="118" x="92" y="505.397">Console integration</text><text fill="#000000" font-family="sans-serif" font-size="13" lengthAdjust="spacing" textLength="55" x="92" y="523.103">endpoint</text></g><!--MD5=[9bf587eac89f055900b72693e93d9e8d]
entity AZURE_ENDPOINT--><g id="elem_AZURE_ENDPOINT"><ellipse cx="372.5" cy="293" fill="#F1F1F1" rx="8" ry="8" style="stroke:#181818;stroke-width:0.5;"/><text fill="#000000" font-family="sans-serif" font-size="14" lengthAdjust="spacing" textLength="54" x="345.5" y="324.9659">AAD API</text></g><!--MD5=[0025b3cc4845cfca9624c236d34bcca7]
entity GOOGLE_ENDPOINT--><g id="elem_GOOGLE_ENDPOINT"><ellipse cx="284.5" cy="402" fill="#F1F1F1" rx="8" ry="8" style="stroke:#181818;stroke-width:0.5;"/><text fill="#000000" font-family="sans-serif" font-size="14" lengthAdjust="spacing" textLength="73" x="248" y="433.9659">Google API</text></g><!--MD5=[0ba5ee7700168656dc1b457c6fe9fdac]
entity Client--><g id="elem_Client"><ellipse cx="195.5" cy="14" fill="#F1F1F1" rx="8" ry="8" style="stroke:#181818;stroke-width:0.5;"/><path d="M195.5,22 L195.5,49 M182.5,30 L208.5,30 M195.5,49 L182.5,64 M195.5,49 L208.5,64 " fill="none" style="stroke:#181818;stroke-width:0.5;"/><text fill="#000000" font-family="sans-serif" font-size="14" lengthAdjust="spacing" textLength="61" x="165" y="80.4659">Manager</text></g><!--MD5=[c2f1a89366393ba9d1417b32d43751eb]
entity Tenant--><g id="elem_Tenant"><ellipse cx="284.5" cy="14" fill="#F1F1F1" rx="8" ry="8" style="stroke:#181818;stroke-width:0.5;"/><path d="M284.5,22 L284.5,49 M271.5,30 L297.5,30 M284.5,49 L271.5,64 M284.5,49 L297.5,64 " fill="none" style="stroke:#181818;stroke-width:0.5;"/><text fill="#000000" font-family="sans-serif" font-size="14" lengthAdjust="spacing" textLength="47" x="261" y="80.4659">Tenant</text></g><!--MD5=[a19fd76602720cad983d8dcee301b333]
entity Anonymous--><g id="elem_Anonymous"><ellipse cx="400.5" cy="14" fill="#F1F1F1" rx="8" ry="8" style="stroke:#181818;stroke-width:0.5;"/><path d="M400.5,22 L400.5,49 M387.5,30 L413.5,30 M400.5,49 L387.5,64 M400.5,49 L413.5,64 " fill="none" style="stroke:#181818;stroke-width:0.5;"/><text fill="#000000" font-family="sans-serif" font-size="14" lengthAdjust="spacing" textLength="114" x="343.5" y="80.4659">Anonymous User</text></g><!--MD5=[ef993e5b14a62993190ab9517a0875ce]
link Client to UI--><g id="link_Client_UI"><path d="M221.96,84.5 C239.06,109.38 260.43,140.47 273.24,159.12 " fill="none" id="Client-to-UI" style="stroke:#181818;stroke-width:1.0;"/><path d="M284.1566,160.086 A9,9 0 0 0 270.2297 169.685" fill="none" style="stroke:#181818;stroke-width:1.5;"/></g><!--MD5=[89548d1324f0b7bded630d4afbeecbc3]
link Tenant to UI--><g id="link_Tenant_UI"><path d="M284.5,84.5 C284.5,108.58 284.5,138.49 284.5,157.29 " fill="none" id="Tenant-to-UI" style="stroke:#181818;stroke-width:1.0;"/><path d="M292.9572,164.3418 A9,9 0 0 0 276.0428 164.3418" fill="none" style="stroke:#181818;stroke-width:1.5;"/></g><!--MD5=[205d0011ec259d59e083ed7b3dc14da2]
link Anonymous to UI--><g id="link_Anonymous_UI"><path d="M366.01,84.5 C343.42,109.72 315.11,141.33 298.49,159.88 " fill="none" id="Anonymous-to-UI" style="stroke:#181818;stroke-width:1.0;"/><path d="M300.0922,170.7727 A9,9 0 0 0 287.497 159.483" fill="none" style="stroke:#181818;stroke-width:1.5;"/></g><!--MD5=[3e8ab27e271cab250bab3c48ba85ccff]
link UI to S--><g id="link_UI_S"><path d="M284.5,185.73 C284.5,202.76 284.5,242.39 284.5,268.15 " fill="none" id="UI-S" style="stroke:#181818;stroke-width:1.0;"/></g><!--MD5=[6a36b62b34d47aa063ab5a82c1fccdd4]
link S to IN_ENDPOINT--><g id="link_S_IN_ENDPOINT"><path d="M255.87,317.75 C226.77,341.88 183.4,377.86 164.66,393.4 " fill="none" id="S-IN_ENDPOINT" style="stroke:#181818;stroke-width:1.0;"/></g><!--MD5=[e9e79d3c35bc224046cb8861d830e464]
link HC to OUT_ENDPOINT--><g id="link_HC_OUT_ENDPOINT"><path d="M152.17,293 C163.94,293 175.72,293 187.5,293 " fill="none" id="HC-OUT_ENDPOINT" style="stroke:#181818;stroke-width:1.0;"/></g><!--MD5=[1d278941987377a5cd3850ad7b8d5242]
link S to AZURE_ENDPOINT--><g id="link_S_AZURE_ENDPOINT"><path d="M328.84,293 C336.92,293 344.99,293 353.06,293 " fill="none" id="S-to-AZURE_ENDPOINT" style="stroke:#181818;stroke-width:1.0;"/><path d="M360.2118,284.5428 A9,9 0 0 0 360.2118 301.4572" fill="none" style="stroke:#181818;stroke-width:1.5;"/></g><!--MD5=[9814c0f4d676e9dd944a0164fc7d5cdb]
link S to GOOGLE_ENDPOINT--><g id="link_S_GOOGLE_ENDPOINT"><path d="M284.5,317.75 C284.5,337.34 284.5,364.75 284.5,382.68 " fill="none" id="S-to-GOOGLE_ENDPOINT" style="stroke:#181818;stroke-width:1.0;"/><path d="M292.9572,389.8418 A9,9 0 0 0 276.0428 389.8418" fill="none" style="stroke:#181818;stroke-width:1.5;"/></g><!--MD5=[325ba49fe3754738734d19b3cc8e81cf]
reverse link IN_ENDPOINT to HC--><g id="link_IN_ENDPOINT_HC"><path d="M143.91,384.69 C131.24,366.85 110.82,338.09 96.37,317.75 " fill="none" id="IN_ENDPOINT-backto-HC" style="stroke:#181818;stroke-width:1.0;"/><path d="M154.8713,385.5122 A9,9 0 0 0 141.0829 395.3092" fill="none" style="stroke:#181818;stroke-width:1.5;"/></g><!--MD5=[b1f29ae9f75fa5ab0d492150aa0afdf9]
reverse link OUT_ENDPOINT to S--><g id="link_OUT_ENDPOINT_S"><path d="M216.01,293 C224.08,293 232.15,293 240.22,293 " fill="none" id="OUT_ENDPOINT-backto-S" style="stroke:#181818;stroke-width:1.0;"/><path d="M208.8582,301.4572 A9,9 0 0 0 208.8582 284.5428" fill="none" style="stroke:#181818;stroke-width:1.5;"/></g><!--MD5=[77978f09c3b9095e40cd455fee909f5d]
link AZURE_ENDPOINT to AAD--><g id="link_AZURE_ENDPOINT_AAD"><path d="M381.66,293 C393.24,293 404.81,293 416.39,293 " fill="none" id="AZURE_ENDPOINT-AAD" style="stroke:#181818;stroke-width:1.0;"/></g><!--MD5=[8e5425d9e6b4021a6ae7175e4aff8aee]
link GOOGLE_ENDPOINT to GIP--><g id="link_GOOGLE_ENDPOINT_GIP"><path d="M293.62,402 C305.21,402 316.79,402 328.38,402 " fill="none" id="GOOGLE_ENDPOINT-GIP" style="stroke:#181818;stroke-width:1.0;"/></g><!--MD5=[28e9705a8ac0b118190930e4d557c731]
@startuml logical-view-level1

skinparam Monochrome true
skinparam sequenceMessageAlign center
skinparam componentStyle uml2
skinparam packageStyle rectangle

[System] as S
[Helium Console] as HC
[Azure Active Directory] as AAD
[Google Identity Platform] as GIP

() "UI" as UI
() "Helium Console\nRest API" as OUT_ENDPOINT
() "Sensae Console\nRest API" as IN_ENDPOINT
note bottom: Console integration\nendpoint

() "AAD API" as AZURE_ENDPOINT
() "Google API" as GOOGLE_ENDPOINT

actor "Manager" as Client
actor "Tenant" as Tenant
actor "Anonymous User" as Anonymous

Client - -( UI
Tenant - -( UI
Anonymous - -( UI

UI - - S
S - - IN_ENDPOINT
HC - OUT_ENDPOINT
S -( AZURE_ENDPOINT
S - -( GOOGLE_ENDPOINT

IN_ENDPOINT )- HC
OUT_ENDPOINT )- S
AZURE_ENDPOINT - AAD
GOOGLE_ENDPOINT - GIP

@enduml

PlantUML version 1.2022.4(Sat Apr 09 14:29:17 WEST 2022)
(GPL source distribution)
Java Runtime: OpenJDK Runtime Environment
JVM: OpenJDK 64-Bit Server VM
Default Encoding: UTF-8
Language: en
Country: GB
--></g></svg>