<?xml version="1.0" encoding="UTF-8" standalone="no"?><svg xmlns="http://www.w3.org/2000/svg" xmlns:xlink="http://www.w3.org/1999/xlink" contentStyleType="text/css" height="866px" preserveAspectRatio="none" style="width:582px;height:866px;background:#FFFFFF;" version="1.1" viewBox="0 0 582 866" width="582px" zoomAndPan="magnify"><defs/><g><!--MD5=[1f8fbffc1445fbdf7e25af61c62ad345]
class Domain--><g id="elem_Domain"><rect codeLine="5" fill="#F1F1F1" height="32" id="Domain" rx="2.5" ry="2.5" style="stroke:#181818;stroke-width:0.5;" width="84" x="166.35" y="22.3029"/><ellipse cx="181.35" cy="38.3029" fill="#C2C2C2" rx="11" ry="11" style="stroke:#181818;stroke-width:1.0;"/><path d="M180.8188,45.2248 Q179.0688,45.2248 177.9281,44.4904 Q176.8031,43.7404 176.2406,42.3967 Q175.6938,41.0373 175.6938,39.2404 Q175.6938,37.2092 176.35,35.7561 Q177.0063,34.3029 178.2875,33.5217 Q179.5688,32.7404 181.4438,32.7404 Q182.3344,32.7404 183.0063,32.9279 Q183.6781,33.0998 184.3656,33.4436 L183.5531,35.4592 Q182.9281,35.1467 182.3813,35.0217 Q181.85,34.8967 181.3656,34.8967 Q180.1938,34.8967 179.4906,35.4279 Q178.7875,35.9592 178.4906,36.9123 Q178.1938,37.8654 178.1938,39.1311 Q178.1938,41.1467 178.9125,42.1154 Q179.6313,43.0686 181.225,43.0686 Q181.8188,43.0686 182.4438,42.9123 Q183.0688,42.7561 183.8969,42.3811 L183.8969,44.5998 Q183.1625,44.9123 182.3656,45.0686 Q181.5844,45.2248 180.8188,45.2248 Z " fill="#000000"/><text fill="#000000" font-family="sans-serif" font-size="14" lengthAdjust="spacing" textLength="52" x="195.35" y="43.7349">Domain</text></g><!--MD5=[a8904d412b6bac905c960d0a15a57f60]
class Tenant--><g id="elem_Tenant"><rect codeLine="7" fill="#F1F1F1" height="32" id="Tenant" rx="2.5" ry="2.5" style="stroke:#181818;stroke-width:0.5;" width="79" x="26.85" y="480.3029"/><ellipse cx="41.85" cy="496.3029" fill="#C2C2C2" rx="11" ry="11" style="stroke:#181818;stroke-width:1.0;"/><path d="M41.3188,503.2248 Q39.5688,503.2248 38.4281,502.4904 Q37.3031,501.7404 36.7406,500.3967 Q36.1938,499.0373 36.1938,497.2404 Q36.1938,495.2092 36.85,493.7561 Q37.5063,492.3029 38.7875,491.5217 Q40.0688,490.7404 41.9438,490.7404 Q42.8344,490.7404 43.5063,490.9279 Q44.1781,491.0998 44.8656,491.4436 L44.0531,493.4592 Q43.4281,493.1467 42.8813,493.0217 Q42.35,492.8967 41.8656,492.8967 Q40.6938,492.8967 39.9906,493.4279 Q39.2875,493.9592 38.9906,494.9123 Q38.6938,495.8654 38.6938,497.1311 Q38.6938,499.1467 39.4125,500.1154 Q40.1313,501.0686 41.725,501.0686 Q42.3188,501.0686 42.9438,500.9123 Q43.5688,500.7561 44.3969,500.3811 L44.3969,502.5998 Q43.6625,502.9123 42.8656,503.0686 Q42.0844,503.2248 41.3188,503.2248 Z " fill="#000000"/><text fill="#000000" font-family="sans-serif" font-size="14" lengthAdjust="spacing" textLength="47" x="55.85" y="501.7349">Tenant</text></g><!--MD5=[fc539fa3f3b7db9b31467e896d367b3b]
class Device--><g id="elem_Device"><rect codeLine="9" fill="#F1F1F1" height="32" id="Device" rx="2.5" ry="2.5" style="stroke:#181818;stroke-width:0.5;" width="76" x="170.35" y="480.3029"/><ellipse cx="185.35" cy="496.3029" fill="#C2C2C2" rx="11" ry="11" style="stroke:#181818;stroke-width:1.0;"/><path d="M184.8188,503.2248 Q183.0688,503.2248 181.9281,502.4904 Q180.8031,501.7404 180.2406,500.3967 Q179.6938,499.0373 179.6938,497.2404 Q179.6938,495.2092 180.35,493.7561 Q181.0063,492.3029 182.2875,491.5217 Q183.5688,490.7404 185.4438,490.7404 Q186.3344,490.7404 187.0063,490.9279 Q187.6781,491.0998 188.3656,491.4436 L187.5531,493.4592 Q186.9281,493.1467 186.3813,493.0217 Q185.85,492.8967 185.3656,492.8967 Q184.1938,492.8967 183.4906,493.4279 Q182.7875,493.9592 182.4906,494.9123 Q182.1938,495.8654 182.1938,497.1311 Q182.1938,499.1467 182.9125,500.1154 Q183.6313,501.0686 185.225,501.0686 Q185.8188,501.0686 186.4438,500.9123 Q187.0688,500.7561 187.8969,500.3811 L187.8969,502.5998 Q187.1625,502.9123 186.3656,503.0686 Q185.5844,503.2248 184.8188,503.2248 Z " fill="#000000"/><text fill="#000000" font-family="sans-serif" font-size="14" lengthAdjust="spacing" textLength="44" x="199.35" y="501.7349">Device</text></g><!--MD5=[804f30b77bc561c03a4e35044fe1a2c4]
class PermissionType--><g id="elem_PermissionType"><rect codeLine="11" fill="#F1F1F1" height="726.445" id="PermissionType" rx="2.5" ry="2.5" style="stroke:#181818;stroke-width:0.5;" width="294" x="281.35" y="133.3029"/><ellipse cx="371.1" cy="149.3029" fill="#ABABAB" rx="11" ry="11" style="stroke:#181818;stroke-width:1.0;"/><path d="M367.4594,155.8029 L367.4594,143.6623 L375.1156,143.6623 L375.1156,145.7873 L369.8344,145.7873 L369.8344,148.4436 L374.85,148.4436 L374.85,150.5686 L369.8344,150.5686 L369.8344,153.6779 L375.1156,153.6779 L375.1156,155.8029 L367.4594,155.8029 Z " fill="#000000"/><text fill="#000000" font-family="sans-serif" font-size="14" lengthAdjust="spacing" textLength="106" x="391.6" y="154.7349">PermissionType</text><line style="stroke:#181818;stroke-width:0.5;" x1="282.35" x2="574.35" y1="165.3029" y2="165.3029"/><text fill="#000000" font-family="sans-serif" font-size="14" lengthAdjust="spacing" textLength="196" x="287.35" y="184.2689">READ_DEVICE_INFORMATION</text><text fill="#000000" font-family="sans-serif" font-size="14" lengthAdjust="spacing" textLength="209" x="287.35" y="203.3368">DELETE_DEVICE_INFORMATION</text><text fill="#000000" font-family="sans-serif" font-size="14" lengthAdjust="spacing" textLength="191" x="287.35" y="222.4047">EDIT_DEVICE_INFORMATION</text><text fill="#000000" font-family="sans-serif" font-size="14" lengthAdjust="spacing" textLength="4" x="287.35" y="241.4726"> </text><text fill="#000000" font-family="sans-serif" font-size="14" lengthAdjust="spacing" textLength="213" x="287.35" y="260.5405">READ_DATA_TRANSFORMATION</text><text fill="#000000" font-family="sans-serif" font-size="14" lengthAdjust="spacing" textLength="226" x="287.35" y="279.6085">DELETE_DATA_TRANSFORMATION</text><text fill="#000000" font-family="sans-serif" font-size="14" lengthAdjust="spacing" textLength="208" x="287.35" y="298.6764">EDIT_DATA_TRANSFORMATION</text><text fill="#000000" font-family="sans-serif" font-size="14" lengthAdjust="spacing" textLength="4" x="287.35" y="317.7443"> </text><text fill="#000000" font-family="sans-serif" font-size="14" lengthAdjust="spacing" textLength="149" x="287.35" y="336.8122">READ_DATA_DECODER</text><text fill="#000000" font-family="sans-serif" font-size="14" lengthAdjust="spacing" textLength="144" x="287.35" y="355.8801">EDIT_DATA_DECODER</text><text fill="#000000" font-family="sans-serif" font-size="14" lengthAdjust="spacing" textLength="162" x="287.35" y="374.948">DELETE_DATA_DECODER</text><text fill="#000000" font-family="sans-serif" font-size="14" lengthAdjust="spacing" textLength="4" x="287.35" y="394.016"> </text><text fill="#000000" font-family="sans-serif" font-size="14" lengthAdjust="spacing" textLength="96" x="287.35" y="413.0839">EDIT_DOMAIN</text><text fill="#000000" font-family="sans-serif" font-size="14" lengthAdjust="spacing" textLength="116" x="287.35" y="432.1518">CREATE_DOMAIN</text><text fill="#000000" font-family="sans-serif" font-size="14" lengthAdjust="spacing" textLength="101" x="287.35" y="451.2197">READ_DOMAIN</text><text fill="#000000" font-family="sans-serif" font-size="14" lengthAdjust="spacing" textLength="4" x="287.35" y="470.2876"> </text><text fill="#000000" font-family="sans-serif" font-size="14" lengthAdjust="spacing" textLength="85" x="287.35" y="489.3555">EDIT_DEVICE</text><text fill="#000000" font-family="sans-serif" font-size="14" lengthAdjust="spacing" textLength="90" x="287.35" y="508.4235">READ_DEVICE</text><text fill="#000000" font-family="sans-serif" font-size="14" lengthAdjust="spacing" textLength="4" x="287.35" y="527.4914"> </text><text fill="#000000" font-family="sans-serif" font-size="14" lengthAdjust="spacing" textLength="92" x="287.35" y="546.5593">EDIT_TENANT</text><text fill="#000000" font-family="sans-serif" font-size="14" lengthAdjust="spacing" textLength="97" x="287.35" y="565.6272">READ_TENANT</text><text fill="#000000" font-family="sans-serif" font-size="14" lengthAdjust="spacing" textLength="4" x="287.35" y="584.6951"> </text><text fill="#000000" font-family="sans-serif" font-size="14" lengthAdjust="spacing" textLength="262" x="287.35" y="603.763">READ_LIVE_DATA_FLEET_MANAGEMENT</text><text fill="#000000" font-family="sans-serif" font-size="14" lengthAdjust="spacing" textLength="282" x="287.35" y="622.831">READ_LATEST_DATA_FLEET_MANAGEMENT</text><text fill="#000000" font-family="sans-serif" font-size="14" lengthAdjust="spacing" textLength="267" x="287.35" y="641.8989">READ_PAST_DATA_FLEET_MANAGEMENT</text><text fill="#000000" font-family="sans-serif" font-size="14" lengthAdjust="spacing" textLength="4" x="287.35" y="660.9668"> </text><text fill="#000000" font-family="sans-serif" font-size="14" lengthAdjust="spacing" textLength="255" x="287.35" y="680.0347">CREATE_GARDEN_SMART_IRRIGATION</text><text fill="#000000" font-family="sans-serif" font-size="14" lengthAdjust="spacing" textLength="235" x="287.35" y="699.1026">EDIT_GARDEN_SMART_IRRIGATION</text><text fill="#000000" font-family="sans-serif" font-size="14" lengthAdjust="spacing" textLength="253" x="287.35" y="718.1705">DELETE_GARDEN_SMART_IRRIGATION</text><text fill="#000000" font-family="sans-serif" font-size="14" lengthAdjust="spacing" textLength="240" x="287.35" y="737.2385">READ_GARDEN_SMART_IRRIGATION</text><text fill="#000000" font-family="sans-serif" font-size="14" lengthAdjust="spacing" textLength="4" x="287.35" y="756.3064"> </text><text fill="#000000" font-family="sans-serif" font-size="14" lengthAdjust="spacing" textLength="253" x="287.35" y="775.3743">READ_LIVE_DATA_SMART_IRRIGATION</text><text fill="#000000" font-family="sans-serif" font-size="14" lengthAdjust="spacing" textLength="273" x="287.35" y="794.4422">READ_LATEST_DATA_SMART_IRRIGATION</text><text fill="#000000" font-family="sans-serif" font-size="14" lengthAdjust="spacing" textLength="258" x="287.35" y="813.5101">READ_PAST_DATA_SMART_IRRIGATION</text><text fill="#000000" font-family="sans-serif" font-size="14" lengthAdjust="spacing" textLength="4" x="287.35" y="832.5781"> </text><text fill="#000000" font-family="sans-serif" font-size="14" lengthAdjust="spacing" textLength="253" x="287.35" y="851.646">CONTROL_VALVE_SMART_IRRIGATION</text></g><!--MD5=[341ad6b7e595848976307110a84d8531]
link Domain to Tenant--><g id="link_Domain_Tenant"><path codeLine="50" d="M166.13,45.5229 C142.27,51.3629 114.15,62.6329 98.35,84.3029 C6,210.9429 48.24,421.6929 62.37,479.9629 " fill="none" id="Domain-Tenant" style="stroke:#181818;stroke-width:1.0;"/><polygon fill="#000000" points="104.5115,89.2927,99.5518,97.4077,105.2688,98.7731,104.5115,89.2927" style="stroke:#000000;stroke-width:1.0;"/><text fill="#000000" font-family="sans-serif" font-size="13" lengthAdjust="spacing" textLength="87" x="112.35" y="99.2">is registered in</text><text fill="#000000" font-family="sans-serif" font-size="13" lengthAdjust="spacing" textLength="7" x="151.2719" y="42.2606">*</text><text fill="#000000" font-family="sans-serif" font-size="13" lengthAdjust="spacing" textLength="7" x="52.7988" y="468.4426">1</text></g><!--MD5=[2970df523983861ea009ac9bd0ce64a7]
link Domain to Device--><g id="link_Domain_Device"><path codeLine="51" d="M208.35,54.4729 C208.35,123.8629 208.35,410.5729 208.35,480.0729 " fill="none" id="Domain-Device" style="stroke:#181818;stroke-width:1.0;"/><polygon fill="#000000" points="213.35,89.156,210.4111,98.201,216.2889,98.201,213.35,89.156" style="stroke:#000000;stroke-width:1.0;"/><text fill="#000000" font-family="sans-serif" font-size="13" lengthAdjust="spacing" textLength="64" x="222.35" y="99.2">belongs to</text><text fill="#000000" font-family="sans-serif" font-size="13" lengthAdjust="spacing" textLength="7" x="200.2344" y="76.346">1</text><text fill="#000000" font-family="sans-serif" font-size="13" lengthAdjust="spacing" textLength="7" x="200.1469" y="468.5904">*</text></g><!--MD5=[764fa10dacc84b017cfc02360d5b593b]
link Domain to PermissionType--><g id="link_Domain_PermissionType"><path codeLine="52" d="M250.5,53.1829 C266.45,60.2829 283.58,70.4229 295.35,84.3029 C308.2,99.4629 319.82,115.8829 330.32,133.1529 " fill="none" id="Domain-PermissionType" style="stroke:#181818;stroke-width:1.0;"/><polygon fill="#000000" points="317.8822,97.6948,313.5725,89.2168,309.4123,93.3691,317.8822,97.6948" style="stroke:#000000;stroke-width:1.0;"/><text fill="#000000" font-family="sans-serif" font-size="13" lengthAdjust="spacing" textLength="21" x="323.35" y="99.2">has</text><text fill="#000000" font-family="sans-serif" font-size="13" lengthAdjust="spacing" textLength="7" x="258.3461" y="71.1591">1</text><text fill="#000000" font-family="sans-serif" font-size="13" lengthAdjust="spacing" textLength="7" x="320.9404" y="121.3425">*</text></g><!--MD5=[7395176ca18f60f943c5a877d8da679c]
link Domain to Domain--><g id="link_Domain_Domain"><path codeLine="53" d="M250.72,28.3129 C269.33,27.4329 285.35,30.7629 285.35,38.3029 C285.35,45.8429 269.33,49.1729 250.72,48.2929 " fill="none" id="Domain-Domain" style="stroke:#181818;stroke-width:1.0;"/><polygon fill="#000000" points="290.1138,43.6504,293.4767,34.7542,287.6054,34.4766,290.1138,43.6504" style="stroke:#000000;stroke-width:1.0;"/><text fill="#000000" font-family="sans-serif" font-size="13" lengthAdjust="spacing" textLength="40" x="304.35" y="43.7">parent</text><text fill="#000000" font-family="sans-serif" font-size="13" lengthAdjust="spacing" textLength="7" x="258.3172" y="22.206">1</text><text fill="#000000" font-family="sans-serif" font-size="13" lengthAdjust="spacing" textLength="20" x="258.4118" y="45.4606">0..1</text></g><!--MD5=[7beae15521e466248d5edcaaadf7e2f9]
@startuml model

skinparam Monochrome true
hide empty members

class Domain

class Tenant

class Device

enum PermissionType {
    READ_DEVICE_INFORMATION
    DELETE_DEVICE_INFORMATION
    EDIT_DEVICE_INFORMATION

    READ_DATA_TRANSFORMATION
    DELETE_DATA_TRANSFORMATION
    EDIT_DATA_TRANSFORMATION

    READ_DATA_DECODER
    EDIT_DATA_DECODER
    DELETE_DATA_DECODER

    EDIT_DOMAIN
    CREATE_DOMAIN
    READ_DOMAIN

    EDIT_DEVICE
    READ_DEVICE

    EDIT_TENANT
    READ_TENANT

    READ_LIVE_DATA_FLEET_MANAGEMENT
    READ_LATEST_DATA_FLEET_MANAGEMENT
    READ_PAST_DATA_FLEET_MANAGEMENT

    CREATE_GARDEN_SMART_IRRIGATION
    EDIT_GARDEN_SMART_IRRIGATION
    DELETE_GARDEN_SMART_IRRIGATION
    READ_GARDEN_SMART_IRRIGATION

    READ_LIVE_DATA_SMART_IRRIGATION
    READ_LATEST_DATA_SMART_IRRIGATION
    READ_PAST_DATA_SMART_IRRIGATION

    CONTROL_VALVE_SMART_IRRIGATION
}

Domain "*" - - "1" Tenant: is registered in <
Domain "1" - - "*" Device: belongs to <
Domain "1" - - "*" PermissionType: has >
Domain "1" - - "0..1" Domain: parent >

@enduml

PlantUML version 1.2022.4(Sat Apr 09 14:29:17 WEST 2022)
(GPL source distribution)
Java Runtime: OpenJDK Runtime Environment
JVM: OpenJDK 64-Bit Server VM
Default Encoding: UTF-8
Language: en
Country: GB
--></g></svg>