<?xml version="1.0" encoding="UTF-8" standalone="no"?><svg xmlns="http://www.w3.org/2000/svg" xmlns:xlink="http://www.w3.org/1999/xlink" contentScriptType="application/ecmascript" contentStyleType="text/css" height="362px" preserveAspectRatio="none" style="width:927px;height:362px;background:#FFFFFF;" version="1.1" viewBox="0 0 927 362" width="927px" zoomAndPan="magnify"><defs><filter height="300%" id="frzq35c1k1ul1" width="300%" x="-1" y="-1"><feGaussianBlur result="blurOut" stdDeviation="2.0"/><feColorMatrix in="blurOut" result="blurOut2" type="matrix" values="0 0 0 0 0 0 0 0 0 0 0 0 0 0 0 0 0 0 .4 0"/><feOffset dx="4.0" dy="4.0" in="blurOut2" result="blurOut3"/><feBlend in="SourceGraphic" in2="blurOut3" mode="normal"/></filter></defs><g><!--MD5=[1f8fbffc1445fbdf7e25af61c62ad345]
class Domain--><rect codeLine="6" fill="#F8F8F8" filter="url(#frzq35c1k1ul1)" height="32" id="Domain" style="stroke:#383838;stroke-width:1.5;" width="76" x="444" y="111"/><ellipse cx="459" cy="127" fill="#C2C2C2" rx="11" ry="11" style="stroke:#383838;stroke-width:1.0;"/><path d="M458.4688,133.9219 Q456.7188,133.9219 455.5781,133.1875 Q454.4531,132.4375 453.8906,131.0938 Q453.3438,129.7344 453.3438,127.9375 Q453.3438,125.9063 454,124.4531 Q454.6563,123 455.9375,122.2188 Q457.2188,121.4375 459.0938,121.4375 Q459.9844,121.4375 460.6563,121.625 Q461.3281,121.7969 462.0156,122.1406 L461.2031,124.1563 Q460.5781,123.8438 460.0313,123.7188 Q459.5,123.5938 459.0156,123.5938 Q457.8438,123.5938 457.1406,124.125 Q456.4375,124.6563 456.1406,125.6094 Q455.8438,126.5625 455.8438,127.8281 Q455.8438,129.8438 456.5625,130.8125 Q457.2813,131.7656 458.875,131.7656 Q459.4688,131.7656 460.0938,131.6094 Q460.7188,131.4531 461.5469,131.0781 L461.5469,133.2969 Q460.8125,133.6094 460.0156,133.7656 Q459.2344,133.9219 458.4688,133.9219 Z " fill="#000000"/><text fill="#000000" font-family="sans-serif" font-size="12" lengthAdjust="spacing" textLength="44" x="473" y="131.656">Domain</text><!--MD5=[a8904d412b6bac905c960d0a15a57f60]
class Tenant--><rect codeLine="8" fill="#F8F8F8" filter="url(#frzq35c1k1ul1)" height="32" id="Tenant" style="stroke:#383838;stroke-width:1.5;" width="71" x="786.5" y="7"/><ellipse cx="801.5" cy="23" fill="#C2C2C2" rx="11" ry="11" style="stroke:#383838;stroke-width:1.0;"/><path d="M800.9688,29.9219 Q799.2188,29.9219 798.0781,29.1875 Q796.9531,28.4375 796.3906,27.0938 Q795.8438,25.7344 795.8438,23.9375 Q795.8438,21.9063 796.5,20.4531 Q797.1563,19 798.4375,18.2188 Q799.7188,17.4375 801.5938,17.4375 Q802.4844,17.4375 803.1563,17.625 Q803.8281,17.7969 804.5156,18.1406 L803.7031,20.1563 Q803.0781,19.8438 802.5313,19.7188 Q802,19.5938 801.5156,19.5938 Q800.3438,19.5938 799.6406,20.125 Q798.9375,20.6563 798.6406,21.6094 Q798.3438,22.5625 798.3438,23.8281 Q798.3438,25.8438 799.0625,26.8125 Q799.7813,27.7656 801.375,27.7656 Q801.9688,27.7656 802.5938,27.6094 Q803.2188,27.4531 804.0469,27.0781 L804.0469,29.2969 Q803.3125,29.6094 802.5156,29.7656 Q801.7344,29.9219 800.9688,29.9219 Z " fill="#000000"/><text fill="#000000" font-family="sans-serif" font-size="12" lengthAdjust="spacing" textLength="39" x="815.5" y="27.656">Tenant</text><!--MD5=[fc539fa3f3b7db9b31467e896d367b3b]
class Device--><rect codeLine="10" fill="#F8F8F8" filter="url(#frzq35c1k1ul1)" height="32" id="Device" style="stroke:#383838;stroke-width:1.5;" width="70" x="7" y="111"/><ellipse cx="22" cy="127" fill="#C2C2C2" rx="11" ry="11" style="stroke:#383838;stroke-width:1.0;"/><path d="M21.4688,133.9219 Q19.7188,133.9219 18.5781,133.1875 Q17.4531,132.4375 16.8906,131.0938 Q16.3438,129.7344 16.3438,127.9375 Q16.3438,125.9063 17,124.4531 Q17.6563,123 18.9375,122.2188 Q20.2188,121.4375 22.0938,121.4375 Q22.9844,121.4375 23.6563,121.625 Q24.3281,121.7969 25.0156,122.1406 L24.2031,124.1563 Q23.5781,123.8438 23.0313,123.7188 Q22.5,123.5938 22.0156,123.5938 Q20.8438,123.5938 20.1406,124.125 Q19.4375,124.6563 19.1406,125.6094 Q18.8438,126.5625 18.8438,127.8281 Q18.8438,129.8438 19.5625,130.8125 Q20.2813,131.7656 21.875,131.7656 Q22.4688,131.7656 23.0938,131.6094 Q23.7188,131.4531 24.5469,131.0781 L24.5469,133.2969 Q23.8125,133.6094 23.0156,133.7656 Q22.2344,133.9219 21.4688,133.9219 Z " fill="#000000"/><text fill="#000000" font-family="sans-serif" font-size="12" lengthAdjust="spacing" textLength="38" x="36" y="131.656">Device</text><!--MD5=[b363558443f9b5529f0c4bb2d958096d]
class OwnershipType--><rect codeLine="12" fill="#F8F8F8" filter="url(#frzq35c1k1ul1)" height="69.9638" id="OwnershipType" style="stroke:#383838;stroke-width:1.5;" width="119" x="240" y="164"/><ellipse cx="255" cy="180" fill="#ABABAB" rx="11" ry="11" style="stroke:#383838;stroke-width:1.0;"/><path d="M251.3594,186.5 L251.3594,174.3594 L259.0156,174.3594 L259.0156,176.4844 L253.7344,176.4844 L253.7344,179.1406 L258.75,179.1406 L258.75,181.2656 L253.7344,181.2656 L253.7344,184.375 L259.0156,184.375 L259.0156,186.5 L251.3594,186.5 Z " fill="#000000"/><text fill="#000000" font-family="sans-serif" font-size="12" lengthAdjust="spacing" textLength="87" x="269" y="184.656">OwnershipType</text><line style="stroke:#383838;stroke-width:1.5;" x1="241" x2="358" y1="196" y2="196"/><text fill="#000000" font-family="sans-serif" font-size="11" lengthAdjust="spacing" textLength="28" x="246" y="211.7589">READ</text><text fill="#000000" font-family="sans-serif" font-size="11" lengthAdjust="spacing" textLength="66" x="246" y="226.7408">READ_WRITE</text><!--MD5=[804f30b77bc561c03a4e35044fe1a2c4]
class PermissionType--><rect codeLine="17" fill="#F8F8F8" filter="url(#frzq35c1k1ul1)" height="234.7645" id="PermissionType" style="stroke:#383838;stroke-width:1.5;" width="183" x="730.5" y="114"/><ellipse cx="773.4" cy="130" fill="#ABABAB" rx="11" ry="11" style="stroke:#383838;stroke-width:1.0;"/><path d="M769.7594,136.5 L769.7594,124.3594 L777.4156,124.3594 L777.4156,126.4844 L772.1344,126.4844 L772.1344,129.1406 L777.15,129.1406 L777.15,131.2656 L772.1344,131.2656 L772.1344,134.375 L777.4156,134.375 L777.4156,136.5 L769.7594,136.5 Z " fill="#000000"/><text fill="#000000" font-family="sans-serif" font-size="12" lengthAdjust="spacing" textLength="89" x="793.6" y="134.656">PermissionType</text><line style="stroke:#383838;stroke-width:1.5;" x1="731.5" x2="912.5" y1="146" y2="146"/><text fill="#000000" font-family="sans-serif" font-size="11" lengthAdjust="spacing" textLength="120" x="736.5" y="161.7589">READ_DEVICE_RECORD</text><text fill="#000000" font-family="sans-serif" font-size="11" lengthAdjust="spacing" textLength="125" x="736.5" y="176.7408">WRITE_DEVICE_RECORD</text><text fill="#000000" font-family="sans-serif" font-size="11" lengthAdjust="spacing" textLength="166" x="736.5" y="191.7227">READ_DATA_TRANSFORMATION</text><text fill="#000000" font-family="sans-serif" font-size="11" lengthAdjust="spacing" textLength="171" x="736.5" y="206.7046">WRITE_DATA_TRANSFORMATION</text><text fill="#000000" font-family="sans-serif" font-size="11" lengthAdjust="spacing" textLength="117" x="736.5" y="221.6865">READ_DATA_DECODER</text><text fill="#000000" font-family="sans-serif" font-size="11" lengthAdjust="spacing" textLength="122" x="736.5" y="236.6684">WRITE_DATA_DECODER</text><text fill="#000000" font-family="sans-serif" font-size="11" lengthAdjust="spacing" textLength="144" x="736.5" y="251.6502">READ_FLEET_MANAGEMENT</text><text fill="#000000" font-family="sans-serif" font-size="11" lengthAdjust="spacing" textLength="84" x="736.5" y="266.6321">WRITE_DOMAIN</text><text fill="#000000" font-family="sans-serif" font-size="11" lengthAdjust="spacing" textLength="79" x="736.5" y="281.614">READ_DOMAIN</text><text fill="#000000" font-family="sans-serif" font-size="11" lengthAdjust="spacing" textLength="76" x="736.5" y="296.5959">WRITE_DEVICE</text><text fill="#000000" font-family="sans-serif" font-size="11" lengthAdjust="spacing" textLength="71" x="736.5" y="311.5778">READ_DEVICE</text><text fill="#000000" font-family="sans-serif" font-size="11" lengthAdjust="spacing" textLength="79" x="736.5" y="326.5597">WRITE_TENANT</text><text fill="#000000" font-family="sans-serif" font-size="11" lengthAdjust="spacing" textLength="74" x="736.5" y="341.5416">READ_TENANT</text><ellipse cx="299.5" cy="127" fill="#000000" rx="2" ry="2" style="stroke:none;stroke-width:1.0;"/><!--MD5=[341ad6b7e595848976307110a84d8531]
link Domain to Tenant--><path codeLine="33" d="M520.19,115.57 C585.97,95.36 721.94,53.59 786.28,33.82 " fill="none" id="Domain-Tenant" style="stroke:#383838;stroke-width:1.0;"/><polygon fill="#000000" points="574.2205,61.3214,583.7298,61.4744,582.0036,55.8557,574.2205,61.3214" style="stroke:#000000;stroke-width:1.0;"/><text fill="#000000" font-family="sans-serif" font-size="13" lengthAdjust="spacing" textLength="87" x="588" y="64.897">is registered in</text><text fill="#000000" font-family="sans-serif" font-size="13" lengthAdjust="spacing" textLength="7" x="528.3669" y="128.3396">*</text><text fill="#000000" font-family="sans-serif" font-size="13" lengthAdjust="spacing" textLength="7" x="771.5586" y="51.5901">1</text><!--MD5=[764fa10dacc84b017cfc02360d5b593b]
link Domain to PermissionType--><path codeLine="35" d="M520.19,138.43 C570.34,153.84 661.29,181.78 730.19,202.95 " fill="none" id="Domain-PermissionType" style="stroke:#383838;stroke-width:1.0;"/><polygon fill="#000000" points="616.7795,149.3215,608.9964,143.8557,607.2702,149.4743,616.7795,149.3215" style="stroke:#000000;stroke-width:1.0;"/><text fill="#000000" font-family="sans-serif" font-size="13" lengthAdjust="spacing" textLength="21" x="621" y="152.897">has</text><text fill="#000000" font-family="sans-serif" font-size="13" lengthAdjust="spacing" textLength="7" x="527.8766" y="135.9323">1</text><text fill="#000000" font-family="sans-serif" font-size="13" lengthAdjust="spacing" textLength="7" x="715.595" y="215.2868">*</text><!--MD5=[7395176ca18f60f943c5a877d8da679c]
link Domain to Domain--><path codeLine="36" d="M471.16,110.95 C459.88,86.65 463.49,56 482,56 C500.51,56 504.12,86.65 492.84,110.95 " fill="none" id="Domain-Domain" style="stroke:#383838;stroke-width:1.0;"/><polygon fill="#000000" points="449.9648,39.7478,456.9316,46.2219,459.4065,40.8905,449.9648,39.7478" style="stroke:#000000;stroke-width:1.0;"/><text fill="#000000" font-family="sans-serif" font-size="13" lengthAdjust="spacing" textLength="40" x="468.5" y="46.897">parent</text><text fill="#000000" font-family="sans-serif" font-size="13" lengthAdjust="spacing" textLength="7" x="429.027" y="107.2144">1</text><text fill="#000000" font-family="sans-serif" font-size="13" lengthAdjust="spacing" textLength="20" x="475.78" y="99.6575">0..1</text><!--MD5=[8556109a1c29536f2273d4f968390396]
link Device to apoint11--><path d="M77.19,127 C143.01,127 282.15,127 297.18,127 " fill="none" id="Device-apoint11" style="stroke:#383838;stroke-width:1.0;"/><polygon fill="#000000" points="141,117.853,131.9549,114.9141,131.9549,120.7919,141,117.853" style="stroke:#000000;stroke-width:1.0;"/><text fill="#000000" font-family="sans-serif" font-size="13" lengthAdjust="spacing" textLength="64" x="145" y="122.897">belongs to</text><text fill="#000000" font-family="sans-serif" font-size="13" lengthAdjust="spacing" textLength="7" x="85.1698" y="127.3433">*</text><!--MD5=[425509e112fe1252262552370eb3b476]
link apoint11 to Domain--><path d="M301.65,127 C312.31,127 394.41,127 443.76,127 " fill="none" id="apoint11-Domain" style="stroke:#383838;stroke-width:1.0;"/><text fill="#000000" font-family="sans-serif" font-size="13" lengthAdjust="spacing" textLength="7" x="429.4298" y="126.5395">1</text><!--MD5=[0856c7d934ee2128f97beac8470d0905]
link apoint11 to OwnershipType--><path d="M299.5,129.01 C299.5,140.62 299.5,152.23 299.5,163.84 " fill="none" id="apoint11-OwnershipType" style="stroke:#383838;stroke-width:1.0;stroke-dasharray:7.0,7.0;"/><!--MD5=[7fee80378189ba376d097770bfffd247]
@startuml model

skinparam Monochrome true
hide empty members
left to right direction

class Domain

class Tenant

class Device

enum OwnershipType {
    READ
    READ_WRITE
}

enum PermissionType {
    READ_DEVICE_RECORD
    WRITE_DEVICE_RECORD
    READ_DATA_TRANSFORMATION
    WRITE_DATA_TRANSFORMATION
    READ_DATA_DECODER
    WRITE_DATA_DECODER
    READ_FLEET_MANAGEMENT
    WRITE_DOMAIN
    READ_DOMAIN
    WRITE_DEVICE
    READ_DEVICE
    WRITE_TENANT
    READ_TENANT
}

Domain "*" - - "1" Tenant: is registered in <
Device "*" - - "1" Domain: belongs to >
Domain "1" - - "*" PermissionType: has >
Domain "1" - - "0..1" Domain: parent >

(Domain, Device) .. OwnershipType

@enduml

PlantUML version 1.2021.16(Wed Dec 08 17:25:22 WET 2021)
(GPL source distribution)
Java Runtime: OpenJDK Runtime Environment
JVM: OpenJDK 64-Bit Server VM
Default Encoding: UTF-8
Language: en
Country: GB
--></g></svg>