<?xml version="1.0" encoding="UTF-8" standalone="no"?><svg xmlns="http://www.w3.org/2000/svg" xmlns:xlink="http://www.w3.org/1999/xlink" contentScriptType="application/ecmascript" contentStyleType="text/css" height="1027px" preserveAspectRatio="none" style="width:813px;height:1027px;background:#FFFFFF;" version="1.1" viewBox="0 0 813 1027" width="813px" zoomAndPan="magnify"><defs/><g><!--MD5=[1f8fbffc1445fbdf7e25af61c62ad345]
class Domain--><rect codeLine="6" fill="#F8F8F8" height="32" id="Domain" style="stroke:#383838;stroke-width:1.5;" width="76" x="69" y="29.309"/><ellipse cx="84" cy="45.309" fill="#C2C2C2" rx="11" ry="11" style="stroke:#383838;stroke-width:1.0;"/><path d="M83.4688,52.2309 Q81.7188,52.2309 80.5781,51.4965 Q79.4531,50.7465 78.8906,49.4028 Q78.3438,48.0434 78.3438,46.2465 Q78.3438,44.2153 79,42.7621 Q79.6563,41.309 80.9375,40.5278 Q82.2188,39.7465 84.0938,39.7465 Q84.9844,39.7465 85.6563,39.934 Q86.3281,40.1059 87.0156,40.4496 L86.2031,42.4653 Q85.5781,42.1528 85.0313,42.0278 Q84.5,41.9028 84.0156,41.9028 Q82.8438,41.9028 82.1406,42.434 Q81.4375,42.9653 81.1406,43.9184 Q80.8438,44.8715 80.8438,46.1371 Q80.8438,48.1528 81.5625,49.1215 Q82.2813,50.0746 83.875,50.0746 Q84.4688,50.0746 85.0938,49.9184 Q85.7188,49.7621 86.5469,49.3871 L86.5469,51.6059 Q85.8125,51.9184 85.0156,52.0746 Q84.2344,52.2309 83.4688,52.2309 Z " fill="#000000"/><text fill="#000000" font-family="sans-serif" font-size="12" lengthAdjust="spacing" textLength="44" x="98" y="49.965">Domain</text><!--MD5=[97d46ae094d28e0d28828e4b8046fed1]
class Sensor--><rect codeLine="8" fill="#F8F8F8" height="32" id="Sensor" style="stroke:#383838;stroke-width:1.5;" width="71" x="227" y="180.309"/><ellipse cx="242" cy="196.309" fill="#C2C2C2" rx="11" ry="11" style="stroke:#383838;stroke-width:1.0;"/><path d="M241.4688,203.2309 Q239.7188,203.2309 238.5781,202.4965 Q237.4531,201.7465 236.8906,200.4028 Q236.3438,199.0434 236.3438,197.2465 Q236.3438,195.2153 237,193.7621 Q237.6563,192.309 238.9375,191.5278 Q240.2188,190.7465 242.0938,190.7465 Q242.9844,190.7465 243.6563,190.934 Q244.3281,191.1059 245.0156,191.4496 L244.2031,193.4653 Q243.5781,193.1528 243.0313,193.0278 Q242.5,192.9028 242.0156,192.9028 Q240.8438,192.9028 240.1406,193.434 Q239.4375,193.9653 239.1406,194.9184 Q238.8438,195.8715 238.8438,197.1371 Q238.8438,199.1528 239.5625,200.1215 Q240.2813,201.0746 241.875,201.0746 Q242.4688,201.0746 243.0938,200.9184 Q243.7188,200.7621 244.5469,200.3871 L244.5469,202.6059 Q243.8125,202.9184 243.0156,203.0746 Q242.2344,203.2309 241.4688,203.2309 Z " fill="#000000"/><text fill="#000000" font-family="sans-serif" font-size="12" lengthAdjust="spacing" textLength="39" x="256" y="200.965">Sensor</text><!--MD5=[72bfd782fef577c3c896afe870721fbe]
class Valve--><rect codeLine="10" fill="#F8F8F8" height="32" id="Valve" style="stroke:#383838;stroke-width:1.5;" width="62" x="381" y="180.309"/><ellipse cx="396" cy="196.309" fill="#C2C2C2" rx="11" ry="11" style="stroke:#383838;stroke-width:1.0;"/><path d="M395.4688,203.2309 Q393.7188,203.2309 392.5781,202.4965 Q391.4531,201.7465 390.8906,200.4028 Q390.3438,199.0434 390.3438,197.2465 Q390.3438,195.2153 391,193.7621 Q391.6563,192.309 392.9375,191.5278 Q394.2188,190.7465 396.0938,190.7465 Q396.9844,190.7465 397.6563,190.934 Q398.3281,191.1059 399.0156,191.4496 L398.2031,193.4653 Q397.5781,193.1528 397.0313,193.0278 Q396.5,192.9028 396.0156,192.9028 Q394.8438,192.9028 394.1406,193.434 Q393.4375,193.9653 393.1406,194.9184 Q392.8438,195.8715 392.8438,197.1371 Q392.8438,199.1528 393.5625,200.1215 Q394.2813,201.0746 395.875,201.0746 Q396.4688,201.0746 397.0938,200.9184 Q397.7188,200.7621 398.5469,200.3871 L398.5469,202.6059 Q397.8125,202.9184 397.0156,203.0746 Q396.2344,203.2309 395.4688,203.2309 Z " fill="#000000"/><text fill="#000000" font-family="sans-serif" font-size="12" lengthAdjust="spacing" textLength="30" x="410" y="200.965">Valve</text><!--MD5=[ea2f4b3dbb692bdaa231e5e120996e32]
class Garden--><rect codeLine="12" fill="#F8F8F8" height="32" id="Garden" style="stroke:#383838;stroke-width:1.5;" width="74" x="328" y="29.309"/><ellipse cx="343" cy="45.309" fill="#C2C2C2" rx="11" ry="11" style="stroke:#383838;stroke-width:1.0;"/><path d="M342.4688,52.2309 Q340.7188,52.2309 339.5781,51.4965 Q338.4531,50.7465 337.8906,49.4028 Q337.3438,48.0434 337.3438,46.2465 Q337.3438,44.2153 338,42.7621 Q338.6563,41.309 339.9375,40.5278 Q341.2188,39.7465 343.0938,39.7465 Q343.9844,39.7465 344.6563,39.934 Q345.3281,40.1059 346.0156,40.4496 L345.2031,42.4653 Q344.5781,42.1528 344.0313,42.0278 Q343.5,41.9028 343.0156,41.9028 Q341.8438,41.9028 341.1406,42.434 Q340.4375,42.9653 340.1406,43.9184 Q339.8438,44.8715 339.8438,46.1371 Q339.8438,48.1528 340.5625,49.1215 Q341.2813,50.0746 342.875,50.0746 Q343.4688,50.0746 344.0938,49.9184 Q344.7188,49.7621 345.5469,49.3871 L345.5469,51.6059 Q344.8125,51.9184 344.0156,52.0746 Q343.2344,52.2309 342.4688,52.2309 Z " fill="#000000"/><text fill="#000000" font-family="sans-serif" font-size="12" lengthAdjust="spacing" textLength="42" x="357" y="49.965">Garden</text><!--MD5=[fc539fa3f3b7db9b31467e896d367b3b]
class Device--><rect codeLine="14" fill="#F8F8F8" height="32" id="Device" style="stroke:#383838;stroke-width:1.5;" width="66" x="305" y="384.309"/><ellipse cx="320" cy="400.309" fill="#B1B1B1" rx="11" ry="11" style="stroke:#383838;stroke-width:1.0;"/><path d="M316.0313,406.809 L316.0313,405.1059 L318.3906,404.8403 L318.3906,396.6371 L316.0313,396.3715 L316.0313,394.6684 L323.1719,394.6684 L323.1719,396.3715 L320.75,396.6371 L320.75,404.8403 L323.1719,405.1059 L323.1719,406.809 L316.0313,406.809 Z " fill="#000000"/><text fill="#000000" font-family="sans-serif" font-size="12" font-style="italic" lengthAdjust="spacing" textLength="34" x="334" y="404.965">Device</text><!--MD5=[7cfcec95ce8c7b3cc21f2a5540b61e10]
class Area--><rect codeLine="16" fill="#F8F8F8" height="32" id="Area" style="stroke:#383838;stroke-width:1.5;" width="59" x="605" y="282.309"/><ellipse cx="620" cy="298.309" fill="#C2C2C2" rx="11" ry="11" style="stroke:#383838;stroke-width:1.0;"/><path d="M619.4688,305.2309 Q617.7188,305.2309 616.5781,304.4965 Q615.4531,303.7465 614.8906,302.4028 Q614.3438,301.0434 614.3438,299.2465 Q614.3438,297.2153 615,295.7621 Q615.6563,294.309 616.9375,293.5278 Q618.2188,292.7465 620.0938,292.7465 Q620.9844,292.7465 621.6563,292.934 Q622.3281,293.1059 623.0156,293.4496 L622.2031,295.4653 Q621.5781,295.1528 621.0313,295.0278 Q620.5,294.9028 620.0156,294.9028 Q618.8438,294.9028 618.1406,295.434 Q617.4375,295.9653 617.1406,296.9184 Q616.8438,297.8715 616.8438,299.1371 Q616.8438,301.1528 617.5625,302.1215 Q618.2813,303.0746 619.875,303.0746 Q620.4688,303.0746 621.0938,302.9184 Q621.7188,302.7621 622.5469,302.3871 L622.5469,304.6059 Q621.8125,304.9184 621.0156,305.0746 Q620.2344,305.2309 619.4688,305.2309 Z " fill="#000000"/><text fill="#000000" font-family="sans-serif" font-size="12" lengthAdjust="spacing" textLength="27" x="634" y="302.965">Area</text><!--MD5=[c11ebd9d41b4de8a75ac8c59a30b46ba]
class LedgerEntry--><rect codeLine="18" fill="#F8F8F8" height="32" id="LedgerEntry" style="stroke:#383838;stroke-width:1.5;" width="100" x="327" y="535.309"/><ellipse cx="342" cy="551.309" fill="#C2C2C2" rx="11" ry="11" style="stroke:#383838;stroke-width:1.0;"/><path d="M341.4688,558.2309 Q339.7188,558.2309 338.5781,557.4965 Q337.4531,556.7465 336.8906,555.4028 Q336.3438,554.0434 336.3438,552.2465 Q336.3438,550.2153 337,548.7621 Q337.6563,547.309 338.9375,546.5278 Q340.2188,545.7465 342.0938,545.7465 Q342.9844,545.7465 343.6563,545.934 Q344.3281,546.1059 345.0156,546.4496 L344.2031,548.4653 Q343.5781,548.1528 343.0313,548.0278 Q342.5,547.9028 342.0156,547.9028 Q340.8438,547.9028 340.1406,548.434 Q339.4375,548.9653 339.1406,549.9184 Q338.8438,550.8715 338.8438,552.1371 Q338.8438,554.1528 339.5625,555.1215 Q340.2813,556.0746 341.875,556.0746 Q342.4688,556.0746 343.0938,555.9184 Q343.7188,555.7621 344.5469,555.3871 L344.5469,557.6059 Q343.8125,557.9184 343.0156,558.0746 Q342.2344,558.2309 341.4688,558.2309 Z " fill="#000000"/><text fill="#000000" font-family="sans-serif" font-size="12" lengthAdjust="spacing" textLength="68" x="356" y="555.965">LedgerEntry</text><!--MD5=[fd7366e9f96236d9aa60dcc04f2b83e5]
class Content--><rect codeLine="20" fill="#F8F8F8" height="32" id="Content" style="stroke:#383838;stroke-width:1.5;" width="76" x="528" y="686.309"/><ellipse cx="543" cy="702.309" fill="#C2C2C2" rx="11" ry="11" style="stroke:#383838;stroke-width:1.0;"/><path d="M542.4688,709.2309 Q540.7188,709.2309 539.5781,708.4965 Q538.4531,707.7465 537.8906,706.4028 Q537.3438,705.0434 537.3438,703.2465 Q537.3438,701.2153 538,699.7621 Q538.6563,698.309 539.9375,697.5278 Q541.2188,696.7465 543.0938,696.7465 Q543.9844,696.7465 544.6563,696.934 Q545.3281,697.1059 546.0156,697.4496 L545.2031,699.4653 Q544.5781,699.1528 544.0313,699.0278 Q543.5,698.9028 543.0156,698.9028 Q541.8438,698.9028 541.1406,699.434 Q540.4375,699.9653 540.1406,700.9184 Q539.8438,701.8715 539.8438,703.1371 Q539.8438,705.1528 540.5625,706.1215 Q541.2813,707.0746 542.875,707.0746 Q543.4688,707.0746 544.0938,706.9184 Q544.7188,706.7621 545.5469,706.3871 L545.5469,708.6059 Q544.8125,708.9184 544.0156,709.0746 Q543.2344,709.2309 542.4688,709.2309 Z " fill="#000000"/><text fill="#000000" font-family="sans-serif" font-size="12" lengthAdjust="spacing" textLength="44" x="557" y="706.965">Content</text><!--MD5=[b34ad0795e0eeccd752a3970dd825c77]
class Ownership--><rect codeLine="22" fill="#F8F8F8" height="32" id="Ownership" style="stroke:#383838;stroke-width:1.5;" width="92" x="7" y="686.309"/><ellipse cx="22" cy="702.309" fill="#C2C2C2" rx="11" ry="11" style="stroke:#383838;stroke-width:1.0;"/><path d="M21.4688,709.2309 Q19.7188,709.2309 18.5781,708.4965 Q17.4531,707.7465 16.8906,706.4028 Q16.3438,705.0434 16.3438,703.2465 Q16.3438,701.2153 17,699.7621 Q17.6563,698.309 18.9375,697.5278 Q20.2188,696.7465 22.0938,696.7465 Q22.9844,696.7465 23.6563,696.934 Q24.3281,697.1059 25.0156,697.4496 L24.2031,699.4653 Q23.5781,699.1528 23.0313,699.0278 Q22.5,698.9028 22.0156,698.9028 Q20.8438,698.9028 20.1406,699.434 Q19.4375,699.9653 19.1406,700.9184 Q18.8438,701.8715 18.8438,703.1371 Q18.8438,705.1528 19.5625,706.1215 Q20.2813,707.0746 21.875,707.0746 Q22.4688,707.0746 23.0938,706.9184 Q23.7188,706.7621 24.5469,706.3871 L24.5469,708.6059 Q23.8125,708.9184 23.0156,709.0746 Q22.2344,709.2309 21.4688,709.2309 Z " fill="#000000"/><text fill="#000000" font-family="sans-serif" font-size="12" lengthAdjust="spacing" textLength="60" x="36" y="706.965">Ownership</text><!--MD5=[b1fae75f0b6ba24f22f55fa7b0d9c778]
class OpenDate--><rect codeLine="24" fill="#F8F8F8" height="32" id="OpenDate" style="stroke:#383838;stroke-width:1.5;" width="89" x="183" y="686.309"/><ellipse cx="198" cy="702.309" fill="#C2C2C2" rx="11" ry="11" style="stroke:#383838;stroke-width:1.0;"/><path d="M197.4688,709.2309 Q195.7188,709.2309 194.5781,708.4965 Q193.4531,707.7465 192.8906,706.4028 Q192.3438,705.0434 192.3438,703.2465 Q192.3438,701.2153 193,699.7621 Q193.6563,698.309 194.9375,697.5278 Q196.2188,696.7465 198.0938,696.7465 Q198.9844,696.7465 199.6563,696.934 Q200.3281,697.1059 201.0156,697.4496 L200.2031,699.4653 Q199.5781,699.1528 199.0313,699.0278 Q198.5,698.9028 198.0156,698.9028 Q196.8438,698.9028 196.1406,699.434 Q195.4375,699.9653 195.1406,700.9184 Q194.8438,701.8715 194.8438,703.1371 Q194.8438,705.1528 195.5625,706.1215 Q196.2813,707.0746 197.875,707.0746 Q198.4688,707.0746 199.0938,706.9184 Q199.7188,706.7621 200.5469,706.3871 L200.5469,708.6059 Q199.8125,708.9184 199.0156,709.0746 Q198.2344,709.2309 197.4688,709.2309 Z " fill="#000000"/><text fill="#000000" font-family="sans-serif" font-size="12" lengthAdjust="spacing" textLength="57" x="212" y="706.965">OpenDate</text><!--MD5=[364f60d826873b889bb09a585e42cab2]
class CloseDate--><rect codeLine="26" fill="#F8F8F8" height="32" id="CloseDate" style="stroke:#383838;stroke-width:1.5;" width="90" x="355" y="686.309"/><ellipse cx="370" cy="702.309" fill="#C2C2C2" rx="11" ry="11" style="stroke:#383838;stroke-width:1.0;"/><path d="M369.4688,709.2309 Q367.7188,709.2309 366.5781,708.4965 Q365.4531,707.7465 364.8906,706.4028 Q364.3438,705.0434 364.3438,703.2465 Q364.3438,701.2153 365,699.7621 Q365.6563,698.309 366.9375,697.5278 Q368.2188,696.7465 370.0938,696.7465 Q370.9844,696.7465 371.6563,696.934 Q372.3281,697.1059 373.0156,697.4496 L372.2031,699.4653 Q371.5781,699.1528 371.0313,699.0278 Q370.5,698.9028 370.0156,698.9028 Q368.8438,698.9028 368.1406,699.434 Q367.4375,699.9653 367.1406,700.9184 Q366.8438,701.8715 366.8438,703.1371 Q366.8438,705.1528 367.5625,706.1215 Q368.2813,707.0746 369.875,707.0746 Q370.4688,707.0746 371.0938,706.9184 Q371.7188,706.7621 372.5469,706.3871 L372.5469,708.6059 Q371.8125,708.9184 371.0156,709.0746 Q370.2344,709.2309 369.4688,709.2309 Z " fill="#000000"/><text fill="#000000" font-family="sans-serif" font-size="12" lengthAdjust="spacing" textLength="58" x="384" y="706.965">CloseDate</text><!--MD5=[53f6a92bd21ca2f2960392a061f3a1c6]
class Name--><rect codeLine="28" fill="#F8F8F8" height="32" id="Name" style="stroke:#383838;stroke-width:1.5;" width="66" x="475" y="837.309"/><ellipse cx="490" cy="853.309" fill="#C2C2C2" rx="11" ry="11" style="stroke:#383838;stroke-width:1.0;"/><path d="M489.4688,860.2309 Q487.7188,860.2309 486.5781,859.4965 Q485.4531,858.7465 484.8906,857.4028 Q484.3438,856.0434 484.3438,854.2465 Q484.3438,852.2153 485,850.7621 Q485.6563,849.309 486.9375,848.5278 Q488.2188,847.7465 490.0938,847.7465 Q490.9844,847.7465 491.6563,847.934 Q492.3281,848.1059 493.0156,848.4496 L492.2031,850.4653 Q491.5781,850.1528 491.0313,850.0278 Q490.5,849.9028 490.0156,849.9028 Q488.8438,849.9028 488.1406,850.434 Q487.4375,850.9653 487.1406,851.9184 Q486.8438,852.8715 486.8438,854.1371 Q486.8438,856.1528 487.5625,857.1215 Q488.2813,858.0746 489.875,858.0746 Q490.4688,858.0746 491.0938,857.9184 Q491.7188,857.7621 492.5469,857.3871 L492.5469,859.6059 Q491.8125,859.9184 491.0156,860.0746 Q490.2344,860.2309 489.4688,860.2309 Z " fill="#000000"/><text fill="#000000" font-family="sans-serif" font-size="12" lengthAdjust="spacing" textLength="34" x="504" y="857.965">Name</text><!--MD5=[0276c55ef034c711ad16864ae0c1a09b]
class Id--><rect codeLine="30" fill="#F8F8F8" height="32" id="Id" style="stroke:#383838;stroke-width:1.5;" width="43" x="201" y="535.309"/><ellipse cx="216" cy="551.309" fill="#C2C2C2" rx="11" ry="11" style="stroke:#383838;stroke-width:1.0;"/><path d="M215.4688,558.2309 Q213.7188,558.2309 212.5781,557.4965 Q211.4531,556.7465 210.8906,555.4028 Q210.3438,554.0434 210.3438,552.2465 Q210.3438,550.2153 211,548.7621 Q211.6563,547.309 212.9375,546.5278 Q214.2188,545.7465 216.0938,545.7465 Q216.9844,545.7465 217.6563,545.934 Q218.3281,546.1059 219.0156,546.4496 L218.2031,548.4653 Q217.5781,548.1528 217.0313,548.0278 Q216.5,547.9028 216.0156,547.9028 Q214.8438,547.9028 214.1406,548.434 Q213.4375,548.9653 213.1406,549.9184 Q212.8438,550.8715 212.8438,552.1371 Q212.8438,554.1528 213.5625,555.1215 Q214.2813,556.0746 215.875,556.0746 Q216.4688,556.0746 217.0938,555.9184 Q217.7188,555.7621 218.5469,555.3871 L218.5469,557.6059 Q217.8125,557.9184 217.0156,558.0746 Q216.2344,558.2309 215.4688,558.2309 Z " fill="#000000"/><text fill="#000000" font-family="sans-serif" font-size="12" lengthAdjust="spacing" textLength="11" x="230" y="555.965">Id</text><!--MD5=[9c6177173b963ebfa9b301c323fcb46e]
class GPSPoint--><rect codeLine="32" fill="#F8F8F8" height="32" id="GPSPoint" style="stroke:#383838;stroke-width:1.5;" width="83" x="723" y="686.309"/><ellipse cx="738" cy="702.309" fill="#C2C2C2" rx="11" ry="11" style="stroke:#383838;stroke-width:1.0;"/><path d="M737.4688,709.2309 Q735.7188,709.2309 734.5781,708.4965 Q733.4531,707.7465 732.8906,706.4028 Q732.3438,705.0434 732.3438,703.2465 Q732.3438,701.2153 733,699.7621 Q733.6563,698.309 734.9375,697.5278 Q736.2188,696.7465 738.0938,696.7465 Q738.9844,696.7465 739.6563,696.934 Q740.3281,697.1059 741.0156,697.4496 L740.2031,699.4653 Q739.5781,699.1528 739.0313,699.0278 Q738.5,698.9028 738.0156,698.9028 Q736.8438,698.9028 736.1406,699.434 Q735.4375,699.9653 735.1406,700.9184 Q734.8438,701.8715 734.8438,703.1371 Q734.8438,705.1528 735.5625,706.1215 Q736.2813,707.0746 737.875,707.0746 Q738.4688,707.0746 739.0938,706.9184 Q739.7188,706.7621 740.5469,706.3871 L740.5469,708.6059 Q739.8125,708.9184 739.0156,709.0746 Q738.2344,709.2309 737.4688,709.2309 Z " fill="#000000"/><text fill="#000000" font-family="sans-serif" font-size="12" lengthAdjust="spacing" textLength="51" x="752" y="706.965">GPSPoint</text><!--MD5=[5c85d133e2c913f4b8608c8db253c015]
class Record--><rect codeLine="34" fill="#F8F8F8" height="32" id="Record" style="stroke:#383838;stroke-width:1.5;" width="71" x="461.5" y="29.309"/><ellipse cx="476.5" cy="45.309" fill="#C2C2C2" rx="11" ry="11" style="stroke:#383838;stroke-width:1.0;"/><path d="M475.9688,52.2309 Q474.2188,52.2309 473.0781,51.4965 Q471.9531,50.7465 471.3906,49.4028 Q470.8438,48.0434 470.8438,46.2465 Q470.8438,44.2153 471.5,42.7621 Q472.1563,41.309 473.4375,40.5278 Q474.7188,39.7465 476.5938,39.7465 Q477.4844,39.7465 478.1563,39.934 Q478.8281,40.1059 479.5156,40.4496 L478.7031,42.4653 Q478.0781,42.1528 477.5313,42.0278 Q477,41.9028 476.5156,41.9028 Q475.3438,41.9028 474.6406,42.434 Q473.9375,42.9653 473.6406,43.9184 Q473.3438,44.8715 473.3438,46.1371 Q473.3438,48.1528 474.0625,49.1215 Q474.7813,50.0746 476.375,50.0746 Q476.9688,50.0746 477.5938,49.9184 Q478.2188,49.7621 479.0469,49.3871 L479.0469,51.6059 Q478.3125,51.9184 477.5156,52.0746 Q476.7344,52.2309 475.9688,52.2309 Z " fill="#000000"/><text fill="#000000" font-family="sans-serif" font-size="12" lengthAdjust="spacing" textLength="39" x="490.5" y="49.965">Record</text><!--MD5=[88e8766322feffc82c07216c67a0b17c]
class EntryContent--><rect codeLine="36" fill="#F8F8F8" height="32" id="EntryContent" style="stroke:#383838;stroke-width:1.5;" width="105" x="521" y="988.309"/><ellipse cx="536" cy="1004.309" fill="#C2C2C2" rx="11" ry="11" style="stroke:#383838;stroke-width:1.0;"/><path d="M535.4688,1011.2309 Q533.7188,1011.2309 532.5781,1010.4965 Q531.4531,1009.7465 530.8906,1008.4028 Q530.3438,1007.0434 530.3438,1005.2465 Q530.3438,1003.2153 531,1001.7621 Q531.6563,1000.309 532.9375,999.5278 Q534.2188,998.7465 536.0938,998.7465 Q536.9844,998.7465 537.6563,998.934 Q538.3281,999.1059 539.0156,999.4496 L538.2031,1001.4653 Q537.5781,1001.1528 537.0313,1001.0278 Q536.5,1000.9028 536.0156,1000.9028 Q534.8438,1000.9028 534.1406,1001.434 Q533.4375,1001.9653 533.1406,1002.9184 Q532.8438,1003.8715 532.8438,1005.1371 Q532.8438,1007.1528 533.5625,1008.1215 Q534.2813,1009.0746 535.875,1009.0746 Q536.4688,1009.0746 537.0938,1008.9184 Q537.7188,1008.7621 538.5469,1008.3871 L538.5469,1010.6059 Q537.8125,1010.9184 537.0156,1011.0746 Q536.2344,1011.2309 535.4688,1011.2309 Z " fill="#000000"/><text fill="#000000" font-family="sans-serif" font-size="12" lengthAdjust="spacing" textLength="73" x="550" y="1008.965">EntryContent</text><!--MD5=[dfa58506f944eb9eab559ed07f703544]
class EntryLabel--><rect codeLine="38" fill="#F8F8F8" height="32" id="EntryLabel" style="stroke:#383838;stroke-width:1.5;" width="91" x="709" y="988.309"/><ellipse cx="724" cy="1004.309" fill="#C2C2C2" rx="11" ry="11" style="stroke:#383838;stroke-width:1.0;"/><path d="M723.4688,1011.2309 Q721.7188,1011.2309 720.5781,1010.4965 Q719.4531,1009.7465 718.8906,1008.4028 Q718.3438,1007.0434 718.3438,1005.2465 Q718.3438,1003.2153 719,1001.7621 Q719.6563,1000.309 720.9375,999.5278 Q722.2188,998.7465 724.0938,998.7465 Q724.9844,998.7465 725.6563,998.934 Q726.3281,999.1059 727.0156,999.4496 L726.2031,1001.4653 Q725.5781,1001.1528 725.0313,1001.0278 Q724.5,1000.9028 724.0156,1000.9028 Q722.8438,1000.9028 722.1406,1001.434 Q721.4375,1001.9653 721.1406,1002.9184 Q720.8438,1003.8715 720.8438,1005.1371 Q720.8438,1007.1528 721.5625,1008.1215 Q722.2813,1009.0746 723.875,1009.0746 Q724.4688,1009.0746 725.0938,1008.9184 Q725.7188,1008.7621 726.5469,1008.3871 L726.5469,1010.6059 Q725.8125,1010.9184 725.0156,1011.0746 Q724.2344,1011.2309 723.4688,1011.2309 Z " fill="#000000"/><text fill="#000000" font-family="sans-serif" font-size="12" lengthAdjust="spacing" textLength="59" x="738" y="1008.965">EntryLabel</text><!--MD5=[5fd4093a36fed1997e54b0f37551849b]
class Records--><rect fill="#F8F8F8" height="32" id="Records" style="stroke:#383838;stroke-width:1.5;" width="77" x="625" y="837.309"/><ellipse cx="640" cy="853.309" fill="#C2C2C2" rx="11" ry="11" style="stroke:#383838;stroke-width:1.0;"/><path d="M639.4688,860.2309 Q637.7188,860.2309 636.5781,859.4965 Q635.4531,858.7465 634.8906,857.4028 Q634.3438,856.0434 634.3438,854.2465 Q634.3438,852.2153 635,850.7621 Q635.6563,849.309 636.9375,848.5278 Q638.2188,847.7465 640.0938,847.7465 Q640.9844,847.7465 641.6563,847.934 Q642.3281,848.1059 643.0156,848.4496 L642.2031,850.4653 Q641.5781,850.1528 641.0313,850.0278 Q640.5,849.9028 640.0156,849.9028 Q638.8438,849.9028 638.1406,850.434 Q637.4375,850.9653 637.1406,851.9184 Q636.8438,852.8715 636.8438,854.1371 Q636.8438,856.1528 637.5625,857.1215 Q638.2813,858.0746 639.875,858.0746 Q640.4688,858.0746 641.0938,857.9184 Q641.7188,857.7621 642.5469,857.3871 L642.5469,859.6059 Q641.8125,859.9184 641.0156,860.0746 Q640.2344,860.2309 639.4688,860.2309 Z " fill="#000000"/><text fill="#000000" font-family="sans-serif" font-size="12" lengthAdjust="spacing" textLength="45" x="654" y="857.965">Records</text><!--MD5=[12f67eb717c1d86a88fc2cd14c4d03f5]
link Domain to Garden--><path codeLine="40" d="M145.28,36.139 C175.9,29.689 220.43,22.789 259.5,26.309 C282.46,28.379 307.91,32.959 327.95,37.099 " fill="none" id="Domain-Garden" style="stroke:#383838;stroke-width:1.0;"/><polygon fill="#000000" points="222.4999,17.1883,213.4704,14.2019,213.4395,20.0796,222.4999,17.1883" style="stroke:#000000;stroke-width:1.0;"/><text fill="#000000" font-family="sans-serif" font-size="13" lengthAdjust="spacing" textLength="32" x="226.5" y="22.206">owns</text><text fill="#000000" font-family="sans-serif" font-size="13" lengthAdjust="spacing" textLength="7" x="152.6268" y="25.8928">*</text><text fill="#000000" font-family="sans-serif" font-size="13" lengthAdjust="spacing" textLength="7" x="312.9667" y="30.7757">*</text><!--MD5=[b4b6daae9e021214adbaa7d7619376d1]
link Area to GPSPoint--><path codeLine="41" d="M639.94,314.579 C660.53,378.259 739.46,622.319 760.06,686.029 " fill="none" id="Area-GPSPoint" style="stroke:#383838;stroke-width:1.0;"/><polygon fill="#000000" points="700.5385,480.9194,700.5517,471.4089,694.959,473.2175,700.5385,480.9194" style="stroke:#000000;stroke-width:1.0;"/><text fill="#000000" font-family="sans-serif" font-size="13" lengthAdjust="spacing" textLength="92" x="708" y="481.206">has boundaries</text><text fill="#000000" font-family="sans-serif" font-size="13" lengthAdjust="spacing" textLength="7" x="638.857" y="336.2512">1</text><text fill="#000000" font-family="sans-serif" font-size="13" lengthAdjust="spacing" textLength="7" x="750.3306" y="674.5292">*</text><!--MD5=[9e23d22ea6a67f437957dd21e04490bf]
link Garden to Area--><path codeLine="42" d="M381.41,61.539 C395.6,74.709 416.66,94.259 435,111.309 C503.25,174.739 584.56,250.379 618.67,282.119 " fill="none" id="Garden-Area" style="stroke:#383838;stroke-width:1.0;"/><polygon fill="#000000" points="462.6619,124.5665,458.0385,116.2553,454.0364,120.5602,462.6619,124.5665" style="stroke:#000000;stroke-width:1.0;"/><text fill="#000000" font-family="sans-serif" font-size="13" lengthAdjust="spacing" textLength="63" x="468" y="126.206">defined by</text><text fill="#000000" font-family="sans-serif" font-size="13" lengthAdjust="spacing" textLength="7" x="409.9125" y="80.6643">1</text><text fill="#000000" font-family="sans-serif" font-size="13" lengthAdjust="spacing" textLength="7" x="605.0253" y="270.6502">1</text><!--MD5=[0f99c32f35ed8a25b418274718320f86]
link Garden to Sensor--><path codeLine="43" d="M354.66,61.419 C335.11,89.969 292.94,151.569 273.37,180.159 " fill="none" id="Garden-Sensor" style="stroke:#383838;stroke-width:1.0;"/><polygon fill="#000000" points="322.1755,125.2878,329.7102,119.4844,324.86,116.164,322.1755,125.2878" style="stroke:#000000;stroke-width:1.0;"/><text fill="#000000" font-family="sans-serif" font-size="13" lengthAdjust="spacing" textLength="21" x="334" y="126.206">has</text><text fill="#000000" font-family="sans-serif" font-size="13" lengthAdjust="spacing" textLength="7" x="312.368" y="78.6217">1</text><text fill="#000000" font-family="sans-serif" font-size="13" lengthAdjust="spacing" textLength="20" x="253.6799" y="168.4002">1..*</text><!--MD5=[c92959c15bb3cc6406d76f60f8aae316]
link Garden to Valve--><path codeLine="44" d="M369.77,61.419 C378.77,89.969 398.2,151.569 407.22,180.159 " fill="none" id="Garden-Valve" style="stroke:#383838;stroke-width:1.0;"/><polygon fill="#000000" points="397.5039,125.9305,397.5861,116.4203,391.9805,118.1882,397.5039,125.9305" style="stroke:#000000;stroke-width:1.0;"/><text fill="#000000" font-family="sans-serif" font-size="13" lengthAdjust="spacing" textLength="21" x="405" y="126.206">has</text><text fill="#000000" font-family="sans-serif" font-size="13" lengthAdjust="spacing" textLength="7" x="366.7705" y="83.3995">1</text><text fill="#000000" font-family="sans-serif" font-size="13" lengthAdjust="spacing" textLength="7" x="397.2703" y="168.4002">*</text><!--MD5=[0b6741397ce0b9625a4ea5f957003640]
link Valve to Device--><path codeLine="45" d="M406.44,212.489 C394.62,244.739 366.78,320.759 350.48,365.249 " fill="none" id="Valve-to-Device" style="stroke:#383838;stroke-width:1.0;"/><polygon fill="none" points="356.98,367.849,343.53,384.229,343.83,363.039,356.98,367.849" style="stroke:#383838;stroke-width:1.0;"/><text fill="#000000" font-family="sans-serif" font-size="13" lengthAdjust="spacing" textLength="9" x="389" y="303.706">is</text><!--MD5=[24fe2207ce01d4afc11b25340d0460a8]
link Sensor to Device--><path codeLine="46" d="M268.64,212.489 C280.61,244.739 308.83,320.759 325.35,365.249 " fill="none" id="Sensor-to-Device" style="stroke:#383838;stroke-width:1.0;"/><polygon fill="none" points="332,363.039,332.4,384.229,318.88,367.909,332,363.039" style="stroke:#383838;stroke-width:1.0;"/><text fill="#000000" font-family="sans-serif" font-size="13" lengthAdjust="spacing" textLength="9" x="315" y="303.706">is</text><!--MD5=[52b24ffa9ce15e5e73671ab1489b36fb]
link Device to LedgerEntry--><path codeLine="47" d="M341.95,416.419 C349.43,444.969 365.55,506.569 373.04,535.159 " fill="none" id="Device-LedgerEntry" style="stroke:#383838;stroke-width:1.0;"/><polygon fill="#000000" points="365.2665,480.999,365.8185,471.5044,360.1323,472.9933,365.2665,480.999" style="stroke:#000000;stroke-width:1.0;"/><text fill="#000000" font-family="sans-serif" font-size="13" lengthAdjust="spacing" textLength="47" x="373" y="481.206">has info</text><text fill="#000000" font-family="sans-serif" font-size="13" lengthAdjust="spacing" textLength="7" x="336.3675" y="438.3995">1</text><text fill="#000000" font-family="sans-serif" font-size="13" lengthAdjust="spacing" textLength="7" x="363.3824" y="523.4002">*</text><!--MD5=[187be54382a2e57d728f22e79db8a79a]
link Device to Id--><path codeLine="48" d="M326.34,416.419 C304.3,444.969 256.76,506.569 234.69,535.159 " fill="none" id="Device-Id" style="stroke:#383838;stroke-width:1.0;"/><polygon fill="#000000" points="289.9449,480.1201,297.7981,474.7556,293.1451,471.1641,289.9449,480.1201" style="stroke:#000000;stroke-width:1.0;"/><text fill="#000000" font-family="sans-serif" font-size="13" lengthAdjust="spacing" textLength="21" x="302" y="481.206">has</text><text fill="#000000" font-family="sans-serif" font-size="13" lengthAdjust="spacing" textLength="7" x="289.778" y="428.8439">1</text><text fill="#000000" font-family="sans-serif" font-size="13" lengthAdjust="spacing" textLength="7" x="230.7858" y="523.4002">1</text><!--MD5=[c6704d10aace54d3fe2a9af63fd35024]
link LedgerEntry to OpenDate--><path codeLine="49" d="M361.89,567.419 C333.34,595.969 271.74,657.569 243.15,686.159 " fill="none" id="LedgerEntry-OpenDate" style="stroke:#383838;stroke-width:1.0;"/><polygon fill="#000000" points="313.4645,630.6975,321.9384,626.3798,317.7822,622.2236,313.4645,630.6975" style="stroke:#000000;stroke-width:1.0;"/><text fill="#000000" font-family="sans-serif" font-size="13" lengthAdjust="spacing" textLength="21" x="326" y="632.206">has</text><text fill="#000000" font-family="sans-serif" font-size="13" lengthAdjust="spacing" textLength="7" x="311.1565" y="583.0291">1</text><text fill="#000000" font-family="sans-serif" font-size="13" lengthAdjust="spacing" textLength="7" x="240.4784" y="674.4002">1</text><!--MD5=[cc72fc02bdde8ede88a3be57cd4cd9cc]
link LedgerEntry to CloseDate--><path codeLine="50" d="M379.33,567.419 C383.74,595.969 393.25,657.569 397.66,686.159 " fill="none" id="LedgerEntry-CloseDate" style="stroke:#383838;stroke-width:1.0;"/><polygon fill="#000000" points="394.7628,632.1035,396.2874,622.7159,390.4783,623.6127,394.7628,632.1035" style="stroke:#000000;stroke-width:1.0;"/><text fill="#000000" font-family="sans-serif" font-size="13" lengthAdjust="spacing" textLength="21" x="403" y="632.206">has</text><text fill="#000000" font-family="sans-serif" font-size="13" lengthAdjust="spacing" textLength="7" x="368.6445" y="589.3995">1</text><text fill="#000000" font-family="sans-serif" font-size="13" lengthAdjust="spacing" textLength="20" x="373.2639" y="674.4002">0..1</text><!--MD5=[c9e02d71fbdac86e454efa6ad456698a]
link LedgerEntry to Content--><path codeLine="51" d="M396.16,567.419 C432.39,595.969 510.52,657.569 546.79,686.159 " fill="none" id="LedgerEntry-Content" style="stroke:#383838;stroke-width:1.0;"/><polygon fill="#000000" points="490.9267,630.2574,485.6427,622.3498,482.0038,626.9659,490.9267,630.2574" style="stroke:#000000;stroke-width:1.0;"/><text fill="#000000" font-family="sans-serif" font-size="13" lengthAdjust="spacing" textLength="44" x="496" y="632.206">refer to</text><text fill="#000000" font-family="sans-serif" font-size="13" lengthAdjust="spacing" textLength="7" x="435.357" y="587.8069">1</text><text fill="#000000" font-family="sans-serif" font-size="13" lengthAdjust="spacing" textLength="7" x="531.6996" y="674.4002">1</text><!--MD5=[1453041fee6c7f2a115440f048e2fab6]
link LedgerEntry to Ownership--><path codeLine="52" d="M337.23,567.439 C287.98,586.189 210.13,615.869 207,617.309 C160.27,638.869 108.12,668.569 78.08,686.269 " fill="none" id="LedgerEntry-Ownership" style="stroke:#383838;stroke-width:1.0;"/><polygon fill="#000000" points="207.455,629.2461,216.9019,628.1475,214.452,622.8045,207.455,629.2461" style="stroke:#000000;stroke-width:1.0;"/><text fill="#000000" font-family="sans-serif" font-size="13" lengthAdjust="spacing" textLength="64" x="221" y="632.206">belongs to</text><text fill="#000000" font-family="sans-serif" font-size="13" lengthAdjust="spacing" textLength="7" x="312.3811" y="567.629">1</text><text fill="#000000" font-family="sans-serif" font-size="13" lengthAdjust="spacing" textLength="7" x="78.7679" y="674.5494">1</text><!--MD5=[13dc8724726137ea7d8d7a62f7006e3c]
link Content to Records--><path codeLine="53" d="M575.94,718.419 C594.72,746.969 635.23,808.569 654.04,837.159 " fill="none" id="Content-Records" style="stroke:#383838;stroke-width:1.0;"/><polygon fill="#000000" points="627.7476,782.3394,625.2325,773.1674,620.3217,776.3975,627.7476,782.3394" style="stroke:#000000;stroke-width:1.0;"/><text fill="#000000" font-family="sans-serif" font-size="13" lengthAdjust="spacing" textLength="21" x="634" y="783.206">has</text><text fill="#000000" font-family="sans-serif" font-size="13" lengthAdjust="spacing" textLength="7" x="589.226" y="740.3995">1</text><text fill="#000000" font-family="sans-serif" font-size="13" lengthAdjust="spacing" textLength="7" x="642.423" y="825.4002">*</text><!--MD5=[000189fa040114ea81161a3f155790a1]
link Content to Name--><path codeLine="54" d="M560.12,718.419 C549,746.969 525.02,808.569 513.9,837.159 " fill="none" id="Content-Name" style="stroke:#383838;stroke-width:1.0;"/><polygon fill="#000000" points="543.1863,782.8215,549.2061,775.4585,543.7286,773.3264,543.1863,782.8215" style="stroke:#000000;stroke-width:1.0;"/><text fill="#000000" font-family="sans-serif" font-size="13" lengthAdjust="spacing" textLength="21" x="554" y="783.206">has</text><text fill="#000000" font-family="sans-serif" font-size="13" lengthAdjust="spacing" textLength="7" x="523.573" y="740.3995">1</text><text fill="#000000" font-family="sans-serif" font-size="13" lengthAdjust="spacing" textLength="7" x="507.755" y="825.4002">1</text><!--MD5=[3c6c2e256ba62453627a56b86a8b9b0d]
link Content to GPSPoint--><path codeLine="55" d="M604.05,691.489 C617.18,688.169 632.13,684.949 646,683.309 C671.65,680.269 700.26,684.679 722.89,690.009 " fill="none" id="Content-GPSPoint" style="stroke:#383838;stroke-width:1.0;"/><polygon fill="#000000" points="655.9996,674.0997,646.9186,671.2737,646.9918,677.1511,655.9996,674.0997" style="stroke:#000000;stroke-width:1.0;"/><text fill="#000000" font-family="sans-serif" font-size="13" lengthAdjust="spacing" textLength="21" x="660" y="679.206">has</text><text fill="#000000" font-family="sans-serif" font-size="13" lengthAdjust="spacing" textLength="7" x="612.1656" y="680.088">1</text><text fill="#000000" font-family="sans-serif" font-size="13" lengthAdjust="spacing" textLength="7" x="708.1367" y="683.3917">1</text><!--MD5=[6472626537da81eb99ccc2cbf2fa8d4a]
link Domain to Ownership--><path codeLine="56" d="M97.59,61.309 C82.12,87.469 53,143.579 53,195.309 C53,195.309 53,195.309 53,552.309 C53,601.199 53,659.119 53,686.079 " fill="none" id="Domain-Ownership" style="stroke:#383838;stroke-width:1.0;"/><polygon fill="#000000" points="58.3559,395.6747,54.7806,404.4876,60.6435,404.9061,58.3559,395.6747" style="stroke:#000000;stroke-width:1.0;"/><text fill="#000000" font-family="sans-serif" font-size="13" lengthAdjust="spacing" textLength="50" x="67" y="405.706">refers to</text><text fill="#000000" font-family="sans-serif" font-size="13" lengthAdjust="spacing" textLength="7" x="53.7965" y="80.5871">1</text><text fill="#000000" font-family="sans-serif" font-size="13" lengthAdjust="spacing" textLength="7" x="44.7969" y="674.5964">*</text><!--MD5=[bbee7c4c49bd6d2c033043b8448633c5]
link Records to EntryContent--><path codeLine="57" d="M654.88,869.419 C637.63,897.969 600.42,959.569 583.15,988.159 " fill="none" id="Records-EntryContent" style="stroke:#383838;stroke-width:1.0;"/><polygon fill="#000000" points="626.4147,933.4417,633.6071,927.2193,628.576,924.18,626.4147,933.4417" style="stroke:#000000;stroke-width:1.0;"/><text fill="#000000" font-family="sans-serif" font-size="13" lengthAdjust="spacing" textLength="21" x="638" y="934.206">has</text><text fill="#000000" font-family="sans-serif" font-size="13" lengthAdjust="spacing" textLength="7" x="609.702" y="891.3995">1</text><text fill="#000000" font-family="sans-serif" font-size="13" lengthAdjust="spacing" textLength="7" x="578.3409" y="976.4002">1</text><!--MD5=[6551f1e0546d20582418094fa1fb0202]
link Records to EntryLabel--><path codeLine="58" d="M673.23,869.419 C690.67,897.969 728.29,959.569 745.75,988.159 " fill="none" id="Records-EntryLabel" style="stroke:#383838;stroke-width:1.0;"/><polygon fill="#000000" points="721.6061,933.4291,719.3997,924.178,714.3835,927.2417,721.6061,933.4291" style="stroke:#000000;stroke-width:1.0;"/><text fill="#000000" font-family="sans-serif" font-size="13" lengthAdjust="spacing" textLength="21" x="728" y="934.206">has</text><text fill="#000000" font-family="sans-serif" font-size="13" lengthAdjust="spacing" textLength="7" x="685.8545" y="891.3995">1</text><text fill="#000000" font-family="sans-serif" font-size="13" lengthAdjust="spacing" textLength="7" x="734.3859" y="976.4002">1</text><!--MD5=[78db888001920681164697d8bc188a19]
@startuml model

skinparam Monochrome true
skinparam Shadowing false
hide empty members

class Domain

class Sensor

class Valve

class Garden

interface Device

class Area

class LedgerEntry

class Content

class Ownership

class OpenDate

class CloseDate

class Name

class Id

class GPSPoint

class Record

class EntryContent

class EntryLabel

Domain "*" - "*" Garden: owns >
Area "1" - - "*" GPSPoint: has boundaries >
Garden "1" - - "1" Area: defined by >
Garden "1" - - "1..*" Sensor: has >
Garden "1" - - "*" Valve: has >
Valve - -|> Device : is
Sensor - -|> Device : is
Device "1" - - "*" LedgerEntry: has info >
Device "1" - - "1" Id: has >
LedgerEntry "1" - - "1" OpenDate: has >
LedgerEntry "1" - - "0..1" CloseDate: has >
LedgerEntry "1" - - "1" Content: refer to >
LedgerEntry "1" - - "1" Ownership: belongs to >
Content "1" - - "*" Records: has >
Content "1" - - "1" Name: has >
Content "1" - "1" GPSPoint: has >
Domain "1" - - - - "*" Ownership: refers to <
Records "1" - - "1" EntryContent: has >
Records "1" - - "1" EntryLabel: has >

@enduml

PlantUML version 1.2021.16(Wed Dec 08 17:25:22 WET 2021)
(GPL source distribution)
Java Runtime: OpenJDK Runtime Environment
JVM: OpenJDK 64-Bit Server VM
Default Encoding: UTF-8
Language: en
Country: GB
--></g></svg>