<?xml version="1.0" encoding="UTF-8" standalone="no"?><svg xmlns="http://www.w3.org/2000/svg" xmlns:xlink="http://www.w3.org/1999/xlink" contentScriptType="application/ecmascript" contentStyleType="text/css" height="673px" preserveAspectRatio="none" style="width:774px;height:673px;background:#FFFFFF;" version="1.1" viewBox="0 0 774 673" width="774px" zoomAndPan="magnify"><defs/><g><!--MD5=[1f8fbffc1445fbdf7e25af61c62ad345]
class Domain--><rect codeLine="6" fill="#F8F8F8" height="32" id="Domain" style="stroke:#383838;stroke-width:1.5;" width="76" x="243" y="30.309"/><ellipse cx="258" cy="46.309" fill="#C2C2C2" rx="11" ry="11" style="stroke:#383838;stroke-width:1.0;"/><path d="M257.4688,53.2309 Q255.7188,53.2309 254.5781,52.4965 Q253.4531,51.7465 252.8906,50.4028 Q252.3438,49.0434 252.3438,47.2465 Q252.3438,45.2153 253,43.7621 Q253.6563,42.309 254.9375,41.5278 Q256.2188,40.7465 258.0938,40.7465 Q258.9844,40.7465 259.6563,40.934 Q260.3281,41.1059 261.0156,41.4496 L260.2031,43.4653 Q259.5781,43.1528 259.0313,43.0278 Q258.5,42.9028 258.0156,42.9028 Q256.8438,42.9028 256.1406,43.434 Q255.4375,43.9653 255.1406,44.9184 Q254.8438,45.8715 254.8438,47.1371 Q254.8438,49.1528 255.5625,50.1215 Q256.2813,51.0746 257.875,51.0746 Q258.4688,51.0746 259.0938,50.9184 Q259.7188,50.7621 260.5469,50.3871 L260.5469,52.6059 Q259.8125,52.9184 259.0156,53.0746 Q258.2344,53.2309 257.4688,53.2309 Z " fill="#000000"/><text fill="#000000" font-family="sans-serif" font-size="12" lengthAdjust="spacing" textLength="44" x="272" y="50.965">Domain</text><!--MD5=[97d46ae094d28e0d28828e4b8046fed1]
class Sensor--><rect codeLine="8" fill="#F8F8F8" height="32" id="Sensor" style="stroke:#383838;stroke-width:1.5;" width="71" x="330" y="181.309"/><ellipse cx="345" cy="197.309" fill="#C2C2C2" rx="11" ry="11" style="stroke:#383838;stroke-width:1.0;"/><path d="M344.4688,204.2309 Q342.7188,204.2309 341.5781,203.4965 Q340.4531,202.7465 339.8906,201.4028 Q339.3438,200.0434 339.3438,198.2465 Q339.3438,196.2153 340,194.7621 Q340.6563,193.309 341.9375,192.5278 Q343.2188,191.7465 345.0938,191.7465 Q345.9844,191.7465 346.6563,191.934 Q347.3281,192.1059 348.0156,192.4496 L347.2031,194.4653 Q346.5781,194.1528 346.0313,194.0278 Q345.5,193.9028 345.0156,193.9028 Q343.8438,193.9028 343.1406,194.434 Q342.4375,194.9653 342.1406,195.9184 Q341.8438,196.8715 341.8438,198.1371 Q341.8438,200.1528 342.5625,201.1215 Q343.2813,202.0746 344.875,202.0746 Q345.4688,202.0746 346.0938,201.9184 Q346.7188,201.7621 347.5469,201.3871 L347.5469,203.6059 Q346.8125,203.9184 346.0156,204.0746 Q345.2344,204.2309 344.4688,204.2309 Z " fill="#000000"/><text fill="#000000" font-family="sans-serif" font-size="12" lengthAdjust="spacing" textLength="39" x="359" y="201.965">Sensor</text><!--MD5=[72bfd782fef577c3c896afe870721fbe]
class Valve--><rect codeLine="10" fill="#F8F8F8" height="32" id="Valve" style="stroke:#383838;stroke-width:1.5;" width="62" x="484" y="181.309"/><ellipse cx="499" cy="197.309" fill="#C2C2C2" rx="11" ry="11" style="stroke:#383838;stroke-width:1.0;"/><path d="M498.4688,204.2309 Q496.7188,204.2309 495.5781,203.4965 Q494.4531,202.7465 493.8906,201.4028 Q493.3438,200.0434 493.3438,198.2465 Q493.3438,196.2153 494,194.7621 Q494.6563,193.309 495.9375,192.5278 Q497.2188,191.7465 499.0938,191.7465 Q499.9844,191.7465 500.6563,191.934 Q501.3281,192.1059 502.0156,192.4496 L501.2031,194.4653 Q500.5781,194.1528 500.0313,194.0278 Q499.5,193.9028 499.0156,193.9028 Q497.8438,193.9028 497.1406,194.434 Q496.4375,194.9653 496.1406,195.9184 Q495.8438,196.8715 495.8438,198.1371 Q495.8438,200.1528 496.5625,201.1215 Q497.2813,202.0746 498.875,202.0746 Q499.4688,202.0746 500.0938,201.9184 Q500.7188,201.7621 501.5469,201.3871 L501.5469,203.6059 Q500.8125,203.9184 500.0156,204.0746 Q499.2344,204.2309 498.4688,204.2309 Z " fill="#000000"/><text fill="#000000" font-family="sans-serif" font-size="12" lengthAdjust="spacing" textLength="30" x="513" y="201.965">Valve</text><!--MD5=[ea2f4b3dbb692bdaa231e5e120996e32]
class Garden--><rect codeLine="12" fill="#F8F8F8" height="32" id="Garden" style="stroke:#383838;stroke-width:1.5;" width="74" x="463" y="30.309"/><ellipse cx="478" cy="46.309" fill="#C2C2C2" rx="11" ry="11" style="stroke:#383838;stroke-width:1.0;"/><path d="M477.4688,53.2309 Q475.7188,53.2309 474.5781,52.4965 Q473.4531,51.7465 472.8906,50.4028 Q472.3438,49.0434 472.3438,47.2465 Q472.3438,45.2153 473,43.7621 Q473.6563,42.309 474.9375,41.5278 Q476.2188,40.7465 478.0938,40.7465 Q478.9844,40.7465 479.6563,40.934 Q480.3281,41.1059 481.0156,41.4496 L480.2031,43.4653 Q479.5781,43.1528 479.0313,43.0278 Q478.5,42.9028 478.0156,42.9028 Q476.8438,42.9028 476.1406,43.434 Q475.4375,43.9653 475.1406,44.9184 Q474.8438,45.8715 474.8438,47.1371 Q474.8438,49.1528 475.5625,50.1215 Q476.2813,51.0746 477.875,51.0746 Q478.4688,51.0746 479.0938,50.9184 Q479.7188,50.7621 480.5469,50.3871 L480.5469,52.6059 Q479.8125,52.9184 479.0156,53.0746 Q478.2344,53.2309 477.4688,53.2309 Z " fill="#000000"/><text fill="#000000" font-family="sans-serif" font-size="12" lengthAdjust="spacing" textLength="42" x="492" y="50.965">Garden</text><!--MD5=[7cfcec95ce8c7b3cc21f2a5540b61e10]
class Area--><rect codeLine="14" fill="#F8F8F8" height="32" id="Area" style="stroke:#383838;stroke-width:1.5;" width="59" x="630" y="181.309"/><ellipse cx="645" cy="197.309" fill="#C2C2C2" rx="11" ry="11" style="stroke:#383838;stroke-width:1.0;"/><path d="M644.4688,204.2309 Q642.7188,204.2309 641.5781,203.4965 Q640.4531,202.7465 639.8906,201.4028 Q639.3438,200.0434 639.3438,198.2465 Q639.3438,196.2153 640,194.7621 Q640.6563,193.309 641.9375,192.5278 Q643.2188,191.7465 645.0938,191.7465 Q645.9844,191.7465 646.6563,191.934 Q647.3281,192.1059 648.0156,192.4496 L647.2031,194.4653 Q646.5781,194.1528 646.0313,194.0278 Q645.5,193.9028 645.0156,193.9028 Q643.8438,193.9028 643.1406,194.434 Q642.4375,194.9653 642.1406,195.9184 Q641.8438,196.8715 641.8438,198.1371 Q641.8438,200.1528 642.5625,201.1215 Q643.2813,202.0746 644.875,202.0746 Q645.4688,202.0746 646.0938,201.9184 Q646.7188,201.7621 647.5469,201.3871 L647.5469,203.6059 Q646.8125,203.9184 646.0156,204.0746 Q645.2344,204.2309 644.4688,204.2309 Z " fill="#000000"/><text fill="#000000" font-family="sans-serif" font-size="12" lengthAdjust="spacing" textLength="27" x="659" y="201.965">Area</text><!--MD5=[972bde5337b4335dd91fa5354c932445]
class Point--><rect codeLine="16" fill="#F8F8F8" height="32" id="Point" style="stroke:#383838;stroke-width:1.5;" width="60" x="630" y="332.309"/><ellipse cx="645" cy="348.309" fill="#C2C2C2" rx="11" ry="11" style="stroke:#383838;stroke-width:1.0;"/><path d="M644.4688,355.2309 Q642.7188,355.2309 641.5781,354.4965 Q640.4531,353.7465 639.8906,352.4028 Q639.3438,351.0434 639.3438,349.2465 Q639.3438,347.2153 640,345.7621 Q640.6563,344.309 641.9375,343.5278 Q643.2188,342.7465 645.0938,342.7465 Q645.9844,342.7465 646.6563,342.934 Q647.3281,343.1059 648.0156,343.4496 L647.2031,345.4653 Q646.5781,345.1528 646.0313,345.0278 Q645.5,344.9028 645.0156,344.9028 Q643.8438,344.9028 643.1406,345.434 Q642.4375,345.9653 642.1406,346.9184 Q641.8438,347.8715 641.8438,349.1371 Q641.8438,351.1528 642.5625,352.1215 Q643.2813,353.0746 644.875,353.0746 Q645.4688,353.0746 646.0938,352.9184 Q646.7188,352.7621 647.5469,352.3871 L647.5469,354.6059 Q646.8125,354.9184 646.0156,355.0746 Q645.2344,355.2309 644.4688,355.2309 Z " fill="#000000"/><text fill="#000000" font-family="sans-serif" font-size="12" lengthAdjust="spacing" textLength="28" x="659" y="352.965">Point</text><!--MD5=[2e4f80fa4bb85f85b47fdc78907ad985]
class Details--><rect codeLine="18" fill="#F8F8F8" height="32" id="Details" style="stroke:#383838;stroke-width:1.5;" width="71" x="380" y="332.309"/><ellipse cx="395" cy="348.309" fill="#C2C2C2" rx="11" ry="11" style="stroke:#383838;stroke-width:1.0;"/><path d="M394.4688,355.2309 Q392.7188,355.2309 391.5781,354.4965 Q390.4531,353.7465 389.8906,352.4028 Q389.3438,351.0434 389.3438,349.2465 Q389.3438,347.2153 390,345.7621 Q390.6563,344.309 391.9375,343.5278 Q393.2188,342.7465 395.0938,342.7465 Q395.9844,342.7465 396.6563,342.934 Q397.3281,343.1059 398.0156,343.4496 L397.2031,345.4653 Q396.5781,345.1528 396.0313,345.0278 Q395.5,344.9028 395.0156,344.9028 Q393.8438,344.9028 393.1406,345.434 Q392.4375,345.9653 392.1406,346.9184 Q391.8438,347.8715 391.8438,349.1371 Q391.8438,351.1528 392.5625,352.1215 Q393.2813,353.0746 394.875,353.0746 Q395.4688,353.0746 396.0938,352.9184 Q396.7188,352.7621 397.5469,352.3871 L397.5469,354.6059 Q396.8125,354.9184 396.0156,355.0746 Q395.2344,355.2309 394.4688,355.2309 Z " fill="#000000"/><text fill="#000000" font-family="sans-serif" font-size="12" lengthAdjust="spacing" textLength="39" x="409" y="352.965">Details</text><!--MD5=[e3a0b01ff4b8d9ca15bd64696f90c8a2]
class StartDate--><rect codeLine="20" fill="#F8F8F8" height="32" id="StartDate" style="stroke:#383838;stroke-width:1.5;" width="86" x="373" y="483.309"/><ellipse cx="388" cy="499.309" fill="#C2C2C2" rx="11" ry="11" style="stroke:#383838;stroke-width:1.0;"/><path d="M387.4688,506.2309 Q385.7188,506.2309 384.5781,505.4965 Q383.4531,504.7465 382.8906,503.4028 Q382.3438,502.0434 382.3438,500.2465 Q382.3438,498.2153 383,496.7621 Q383.6563,495.309 384.9375,494.5278 Q386.2188,493.7465 388.0938,493.7465 Q388.9844,493.7465 389.6563,493.934 Q390.3281,494.1059 391.0156,494.4496 L390.2031,496.4653 Q389.5781,496.1528 389.0313,496.0278 Q388.5,495.9028 388.0156,495.9028 Q386.8438,495.9028 386.1406,496.434 Q385.4375,496.9653 385.1406,497.9184 Q384.8438,498.8715 384.8438,500.1371 Q384.8438,502.1528 385.5625,503.1215 Q386.2813,504.0746 387.875,504.0746 Q388.4688,504.0746 389.0938,503.9184 Q389.7188,503.7621 390.5469,503.3871 L390.5469,505.6059 Q389.8125,505.9184 389.0156,506.0746 Q388.2344,506.2309 387.4688,506.2309 Z " fill="#000000"/><text fill="#000000" font-family="sans-serif" font-size="12" lengthAdjust="spacing" textLength="54" x="402" y="503.965">StartDate</text><!--MD5=[1a6013c7f4204bdc078a29505fce3e2c]
class EndDate--><rect codeLine="22" fill="#F8F8F8" height="32" id="EndDate" style="stroke:#383838;stroke-width:1.5;" width="80" x="542" y="483.309"/><ellipse cx="557" cy="499.309" fill="#C2C2C2" rx="11" ry="11" style="stroke:#383838;stroke-width:1.0;"/><path d="M556.4688,506.2309 Q554.7188,506.2309 553.5781,505.4965 Q552.4531,504.7465 551.8906,503.4028 Q551.3438,502.0434 551.3438,500.2465 Q551.3438,498.2153 552,496.7621 Q552.6563,495.309 553.9375,494.5278 Q555.2188,493.7465 557.0938,493.7465 Q557.9844,493.7465 558.6563,493.934 Q559.3281,494.1059 560.0156,494.4496 L559.2031,496.4653 Q558.5781,496.1528 558.0313,496.0278 Q557.5,495.9028 557.0156,495.9028 Q555.8438,495.9028 555.1406,496.434 Q554.4375,496.9653 554.1406,497.9184 Q553.8438,498.8715 553.8438,500.1371 Q553.8438,502.1528 554.5625,503.1215 Q555.2813,504.0746 556.875,504.0746 Q557.4688,504.0746 558.0938,503.9184 Q558.7188,503.7621 559.5469,503.3871 L559.5469,505.6059 Q558.8125,505.9184 558.0156,506.0746 Q557.2344,506.2309 556.4688,506.2309 Z " fill="#000000"/><text fill="#000000" font-family="sans-serif" font-size="12" lengthAdjust="spacing" textLength="48" x="571" y="503.965">EndDate</text><!--MD5=[fd7366e9f96236d9aa60dcc04f2b83e5]
class Content--><rect codeLine="24" fill="#F8F8F8" height="32" id="Content" style="stroke:#383838;stroke-width:1.5;" width="76" x="214" y="483.309"/><ellipse cx="229" cy="499.309" fill="#C2C2C2" rx="11" ry="11" style="stroke:#383838;stroke-width:1.0;"/><path d="M228.4688,506.2309 Q226.7188,506.2309 225.5781,505.4965 Q224.4531,504.7465 223.8906,503.4028 Q223.3438,502.0434 223.3438,500.2465 Q223.3438,498.2153 224,496.7621 Q224.6563,495.309 225.9375,494.5278 Q227.2188,493.7465 229.0938,493.7465 Q229.9844,493.7465 230.6563,493.934 Q231.3281,494.1059 232.0156,494.4496 L231.2031,496.4653 Q230.5781,496.1528 230.0313,496.0278 Q229.5,495.9028 229.0156,495.9028 Q227.8438,495.9028 227.1406,496.434 Q226.4375,496.9653 226.1406,497.9184 Q225.8438,498.8715 225.8438,500.1371 Q225.8438,502.1528 226.5625,503.1215 Q227.2813,504.0746 228.875,504.0746 Q229.4688,504.0746 230.0938,503.9184 Q230.7188,503.7621 231.5469,503.3871 L231.5469,505.6059 Q230.8125,505.9184 230.0156,506.0746 Q229.2344,506.2309 228.4688,506.2309 Z " fill="#000000"/><text fill="#000000" font-family="sans-serif" font-size="12" lengthAdjust="spacing" textLength="44" x="243" y="503.965">Content</text><!--MD5=[53f6a92bd21ca2f2960392a061f3a1c6]
class Name--><rect codeLine="26" fill="#F8F8F8" height="32" id="Name" style="stroke:#383838;stroke-width:1.5;" width="66" x="7" y="634.309"/><ellipse cx="22" cy="650.309" fill="#C2C2C2" rx="11" ry="11" style="stroke:#383838;stroke-width:1.0;"/><path d="M21.4688,657.2309 Q19.7188,657.2309 18.5781,656.4965 Q17.4531,655.7465 16.8906,654.4028 Q16.3438,653.0434 16.3438,651.2465 Q16.3438,649.2153 17,647.7621 Q17.6563,646.309 18.9375,645.5278 Q20.2188,644.7465 22.0938,644.7465 Q22.9844,644.7465 23.6563,644.934 Q24.3281,645.1059 25.0156,645.4496 L24.2031,647.4653 Q23.5781,647.1528 23.0313,647.0278 Q22.5,646.9028 22.0156,646.9028 Q20.8438,646.9028 20.1406,647.434 Q19.4375,647.9653 19.1406,648.9184 Q18.8438,649.8715 18.8438,651.1371 Q18.8438,653.1528 19.5625,654.1215 Q20.2813,655.0746 21.875,655.0746 Q22.4688,655.0746 23.0938,654.9184 Q23.7188,654.7621 24.5469,654.3871 L24.5469,656.6059 Q23.8125,656.9184 23.0156,657.0746 Q22.2344,657.2309 21.4688,657.2309 Z " fill="#000000"/><text fill="#000000" font-family="sans-serif" font-size="12" lengthAdjust="spacing" textLength="34" x="36" y="654.965">Name</text><!--MD5=[0276c55ef034c711ad16864ae0c1a09b]
class Id--><rect codeLine="28" fill="#F8F8F8" height="32" id="Id" style="stroke:#383838;stroke-width:1.5;" width="43" x="157" y="634.309"/><ellipse cx="172" cy="650.309" fill="#C2C2C2" rx="11" ry="11" style="stroke:#383838;stroke-width:1.0;"/><path d="M171.4688,657.2309 Q169.7188,657.2309 168.5781,656.4965 Q167.4531,655.7465 166.8906,654.4028 Q166.3438,653.0434 166.3438,651.2465 Q166.3438,649.2153 167,647.7621 Q167.6563,646.309 168.9375,645.5278 Q170.2188,644.7465 172.0938,644.7465 Q172.9844,644.7465 173.6563,644.934 Q174.3281,645.1059 175.0156,645.4496 L174.2031,647.4653 Q173.5781,647.1528 173.0313,647.0278 Q172.5,646.9028 172.0156,646.9028 Q170.8438,646.9028 170.1406,647.434 Q169.4375,647.9653 169.1406,648.9184 Q168.8438,649.8715 168.8438,651.1371 Q168.8438,653.1528 169.5625,654.1215 Q170.2813,655.0746 171.875,655.0746 Q172.4688,655.0746 173.0938,654.9184 Q173.7188,654.7621 174.5469,654.3871 L174.5469,656.6059 Q173.8125,656.9184 173.0156,657.0746 Q172.2344,657.2309 171.4688,657.2309 Z " fill="#000000"/><text fill="#000000" font-family="sans-serif" font-size="12" lengthAdjust="spacing" textLength="11" x="186" y="654.965">Id</text><!--MD5=[9c6177173b963ebfa9b301c323fcb46e]
class GPSPoint--><rect codeLine="30" fill="#F8F8F8" height="32" id="GPSPoint" style="stroke:#383838;stroke-width:1.5;" width="83" x="283" y="634.309"/><ellipse cx="298" cy="650.309" fill="#C2C2C2" rx="11" ry="11" style="stroke:#383838;stroke-width:1.0;"/><path d="M297.4688,657.2309 Q295.7188,657.2309 294.5781,656.4965 Q293.4531,655.7465 292.8906,654.4028 Q292.3438,653.0434 292.3438,651.2465 Q292.3438,649.2153 293,647.7621 Q293.6563,646.309 294.9375,645.5278 Q296.2188,644.7465 298.0938,644.7465 Q298.9844,644.7465 299.6563,644.934 Q300.3281,645.1059 301.0156,645.4496 L300.2031,647.4653 Q299.5781,647.1528 299.0313,647.0278 Q298.5,646.9028 298.0156,646.9028 Q296.8438,646.9028 296.1406,647.434 Q295.4375,647.9653 295.1406,648.9184 Q294.8438,649.8715 294.8438,651.1371 Q294.8438,653.1528 295.5625,654.1215 Q296.2813,655.0746 297.875,655.0746 Q298.4688,655.0746 299.0938,654.9184 Q299.7188,654.7621 300.5469,654.3871 L300.5469,656.6059 Q299.8125,656.9184 299.0156,657.0746 Q298.2344,657.2309 297.4688,657.2309 Z " fill="#000000"/><text fill="#000000" font-family="sans-serif" font-size="12" lengthAdjust="spacing" textLength="51" x="312" y="654.965">GPSPoint</text><!--MD5=[5fd4093a36fed1997e54b0f37551849b]
class Records--><rect codeLine="32" fill="#F8F8F8" height="32" id="Records" style="stroke:#383838;stroke-width:1.5;" width="77" x="449" y="634.309"/><ellipse cx="464" cy="650.309" fill="#C2C2C2" rx="11" ry="11" style="stroke:#383838;stroke-width:1.0;"/><path d="M463.4688,657.2309 Q461.7188,657.2309 460.5781,656.4965 Q459.4531,655.7465 458.8906,654.4028 Q458.3438,653.0434 458.3438,651.2465 Q458.3438,649.2153 459,647.7621 Q459.6563,646.309 460.9375,645.5278 Q462.2188,644.7465 464.0938,644.7465 Q464.9844,644.7465 465.6563,644.934 Q466.3281,645.1059 467.0156,645.4496 L466.2031,647.4653 Q465.5781,647.1528 465.0313,647.0278 Q464.5,646.9028 464.0156,646.9028 Q462.8438,646.9028 462.1406,647.434 Q461.4375,647.9653 461.1406,648.9184 Q460.8438,649.8715 460.8438,651.1371 Q460.8438,653.1528 461.5625,654.1215 Q462.2813,655.0746 463.875,655.0746 Q464.4688,655.0746 465.0938,654.9184 Q465.7188,654.7621 466.5469,654.3871 L466.5469,656.6059 Q465.8125,656.9184 465.0156,657.0746 Q464.2344,657.2309 463.4688,657.2309 Z " fill="#000000"/><text fill="#000000" font-family="sans-serif" font-size="12" lengthAdjust="spacing" textLength="45" x="478" y="654.965">Records</text><!--MD5=[12f67eb717c1d86a88fc2cd14c4d03f5]
link Domain to Garden--><path codeLine="34" d="M319.16,36.199 C334.07,32.629 351.48,29.069 367.5,27.309 C388.26,25.029 393.74,24.999 414.5,27.309 C430.49,29.089 447.88,32.699 462.7,36.299 " fill="none" id="Domain-Garden" style="stroke:#383838;stroke-width:1.0;"/><polygon fill="#000000" points="377.5,17.1655,368.457,14.2203,368.4529,20.0981,377.5,17.1655" style="stroke:#000000;stroke-width:1.0;"/><text fill="#000000" font-family="sans-serif" font-size="13" lengthAdjust="spacing" textLength="32" x="381.5" y="22.206">owns</text><text fill="#000000" font-family="sans-serif" font-size="13" lengthAdjust="spacing" textLength="7" x="327.3238" y="25.1086">1</text><text fill="#000000" font-family="sans-serif" font-size="13" lengthAdjust="spacing" textLength="7" x="447.9225" y="29.7348">*</text><!--MD5=[a9aeaa24c084134b2632dda3f2f12d8f]
link Area to Point--><path codeLine="35" d="M660,213.419 C660,241.969 660,303.569 660,332.159 " fill="none" id="Area-Point" style="stroke:#383838;stroke-width:1.0;"/><polygon fill="#000000" points="665,278.162,667.9389,269.1169,662.0611,269.1169,665,278.162" style="stroke:#000000;stroke-width:1.0;"/><text fill="#000000" font-family="sans-serif" font-size="13" lengthAdjust="spacing" textLength="92" x="674" y="278.206">has boundaries</text><text fill="#000000" font-family="sans-serif" font-size="13" lengthAdjust="spacing" textLength="7" x="643.55" y="235.3995">1</text><text fill="#000000" font-family="sans-serif" font-size="13" lengthAdjust="spacing" textLength="7" x="651.7531" y="320.4002">*</text><!--MD5=[9e23d22ea6a67f437957dd21e04490bf]
link Garden to Area--><path codeLine="36" d="M516.22,62.419 C546.89,90.969 613.04,152.569 643.73,181.159 " fill="none" id="Garden-Area" style="stroke:#383838;stroke-width:1.0;"/><polygon fill="#000000" points="598.6591,125.5695,594.0426,117.2545,590.0368,121.5561,598.6591,125.5695" style="stroke:#000000;stroke-width:1.0;"/><text fill="#000000" font-family="sans-serif" font-size="13" lengthAdjust="spacing" textLength="63" x="604" y="127.206">defined by</text><text fill="#000000" font-family="sans-serif" font-size="13" lengthAdjust="spacing" textLength="7" x="545.472" y="82.0106">1</text><text fill="#000000" font-family="sans-serif" font-size="13" lengthAdjust="spacing" textLength="7" x="629.8651" y="169.4002">1</text><!--MD5=[0f99c32f35ed8a25b418274718320f86]
link Garden to Sensor--><path codeLine="37" d="M486.41,62.419 C460.73,90.969 405.33,152.569 379.62,181.159 " fill="none" id="Garden-Sensor" style="stroke:#383838;stroke-width:1.0;"/><polygon fill="#000000" points="443.6565,125.8797,451.8901,121.1196,447.5198,117.1891,443.6565,125.8797" style="stroke:#000000;stroke-width:1.0;"/><text fill="#000000" font-family="sans-serif" font-size="13" lengthAdjust="spacing" textLength="21" x="456" y="127.206">has</text><text fill="#000000" font-family="sans-serif" font-size="13" lengthAdjust="spacing" textLength="7" x="447.7935" y="74.0476">1</text><text fill="#000000" font-family="sans-serif" font-size="13" lengthAdjust="spacing" textLength="20" x="361.0878" y="169.4002">1..*</text><!--MD5=[c92959c15bb3cc6406d76f60f8aae316]
link Garden to Valve--><path codeLine="38" d="M501.52,62.419 C504.4,90.969 510.6,152.569 513.48,181.159 " fill="none" id="Garden-Valve" style="stroke:#383838;stroke-width:1.0;"/><polygon fill="#000000" points="514.5011,127.1368,516.5187,117.8428,510.6705,118.4318,514.5011,127.1368" style="stroke:#000000;stroke-width:1.0;"/><text fill="#000000" font-family="sans-serif" font-size="13" lengthAdjust="spacing" textLength="21" x="523" y="127.206">has</text><text fill="#000000" font-family="sans-serif" font-size="13" lengthAdjust="spacing" textLength="7" x="488.283" y="84.3995">1</text><text fill="#000000" font-family="sans-serif" font-size="13" lengthAdjust="spacing" textLength="7" x="504.6916" y="169.4002">*</text><!--MD5=[44a3f5dc0beb1365a49908ecefd3f6f5]
link Valve to Details--><path codeLine="39" d="M504.96,213.419 C485.99,241.969 445.06,303.569 426.06,332.159 " fill="none" id="Valve-Details" style="stroke:#383838;stroke-width:1.0;"/><polygon fill="#000000" points="474.2328,277.3265,481.6865,271.4194,476.7909,268.1664,474.2328,277.3265" style="stroke:#000000;stroke-width:1.0;"/><text fill="#000000" font-family="sans-serif" font-size="13" lengthAdjust="spacing" textLength="47" x="486" y="278.206">has info</text><text fill="#000000" font-family="sans-serif" font-size="13" lengthAdjust="spacing" textLength="7" x="468.849" y="227.4365">1</text><text fill="#000000" font-family="sans-serif" font-size="13" lengthAdjust="spacing" textLength="7" x="421.5751" y="320.4002">*</text><!--MD5=[a931c373681a3184b542b5420f0b3b6c]
link Sensor to Details--><path codeLine="40" d="M370.75,213.529 C376.04,230.389 384.92,258.359 393,282.309 C398.78,299.439 405.74,318.969 410.48,332.119 " fill="none" id="Sensor-Details" style="stroke:#383838;stroke-width:1.0;"/><polygon fill="#000000" points="399.5883,277.903,399.5017,268.3929,393.9283,270.2601,399.5883,277.903" style="stroke:#000000;stroke-width:1.0;"/><text fill="#000000" font-family="sans-serif" font-size="13" lengthAdjust="spacing" textLength="47" x="407" y="278.206">has info</text><text fill="#000000" font-family="sans-serif" font-size="13" lengthAdjust="spacing" textLength="7" x="369.0875" y="235.0487">1</text><text fill="#000000" font-family="sans-serif" font-size="13" lengthAdjust="spacing" textLength="7" x="400.5513" y="320.6502">*</text><!--MD5=[f86529f3c633ca52a4b8020fbed4a483]
link Details to StartDate--><path codeLine="41" d="M416,364.419 C416,392.969 416,454.569 416,483.159 " fill="none" id="Details-StartDate" style="stroke:#383838;stroke-width:1.0;"/><polygon fill="#000000" points="421,429.162,423.9389,420.1169,418.0611,420.1169,421,429.162" style="stroke:#000000;stroke-width:1.0;"/><text fill="#000000" font-family="sans-serif" font-size="13" lengthAdjust="spacing" textLength="21" x="430" y="429.206">has</text><text fill="#000000" font-family="sans-serif" font-size="13" lengthAdjust="spacing" textLength="7" x="399.55" y="386.3995">1</text><text fill="#000000" font-family="sans-serif" font-size="13" lengthAdjust="spacing" textLength="7" x="407.7531" y="471.4002">1</text><!--MD5=[a1ee08dfd12e426a99019b5977c13ac8]
link Details to EndDate--><path codeLine="42" d="M432.83,364.419 C464.65,392.969 533.27,454.569 565.12,483.159 " fill="none" id="Details-EndDate" style="stroke:#383838;stroke-width:1.0;"/><polygon fill="#000000" points="517.721,427.5018,512.9528,419.2729,509.0266,423.6472,517.721,427.5018" style="stroke:#000000;stroke-width:1.0;"/><text fill="#000000" font-family="sans-serif" font-size="13" lengthAdjust="spacing" textLength="21" x="523" y="429.206">has</text><text fill="#000000" font-family="sans-serif" font-size="13" lengthAdjust="spacing" textLength="7" x="458.3305" y="380.0291">1</text><text fill="#000000" font-family="sans-serif" font-size="13" lengthAdjust="spacing" textLength="20" x="535.544" y="471.4002">0..1</text><!--MD5=[1f80401cf850dfe3c3dea59e55869c1d]
link Details to Content--><path codeLine="43" d="M399.37,364.419 C367.94,392.969 300.14,454.569 268.67,483.159 " fill="none" id="Details-Content" style="stroke:#383838;stroke-width:1.0;"/><polygon fill="#000000" points="345.2992,427.5242,353.9702,423.6173,350.0178,419.2667,345.2992,427.5242" style="stroke:#000000;stroke-width:1.0;"/><text fill="#000000" font-family="sans-serif" font-size="13" lengthAdjust="spacing" textLength="44" x="358" y="429.206">refer to</text><text fill="#000000" font-family="sans-serif" font-size="13" lengthAdjust="spacing" textLength="7" x="365.3788" y="372.2652">1</text><text fill="#000000" font-family="sans-serif" font-size="13" lengthAdjust="spacing" textLength="7" x="266.3618" y="471.4002">1</text><!--MD5=[13dc8724726137ea7d8d7a62f7006e3c]
link Content to Records--><path codeLine="44" d="M275.93,515.419 C321.16,543.969 418.73,605.569 464.01,634.159 " fill="none" id="Content-Records" style="stroke:#383838;stroke-width:1.0;"/><polygon fill="#000000" points="394.2279,577.8312,388.1485,570.5175,385.0106,575.4877,394.2279,577.8312" style="stroke:#000000;stroke-width:1.0;"/><text fill="#000000" font-family="sans-serif" font-size="13" lengthAdjust="spacing" textLength="21" x="399" y="580.206">has</text><text fill="#000000" font-family="sans-serif" font-size="13" lengthAdjust="spacing" textLength="7" x="298.0428" y="523.6633">1</text><text fill="#000000" font-family="sans-serif" font-size="13" lengthAdjust="spacing" textLength="7" x="447.3948" y="622.4002">1</text><!--MD5=[e70548b77bee16f725fb5a243843298a]
link Content to Domain--><path codeLine="45" d="M252.97,483.249 C257.39,414.499 275.62,130.939 280.04,62.319 " fill="none" id="Content-Domain" style="stroke:#383838;stroke-width:1.0;"/><polygon fill="#000000" points="272.3209,268.1723,268.8075,277.0101,274.6733,277.3874,272.3209,268.1723" style="stroke:#000000;stroke-width:1.0;"/><text fill="#000000" font-family="sans-serif" font-size="13" lengthAdjust="spacing" textLength="71" x="281" y="278.206">is owned by</text><text fill="#000000" font-family="sans-serif" font-size="13" lengthAdjust="spacing" textLength="7" x="245.0687" y="471.5223">1</text><text fill="#000000" font-family="sans-serif" font-size="13" lengthAdjust="spacing" textLength="7" x="258.991" y="83.9845">*</text><!--MD5=[000189fa040114ea81161a3f155790a1]
link Content to Name--><path codeLine="46" d="M230.51,515.419 C189.87,543.969 102.23,605.569 61.55,634.159 " fill="none" id="Content-Name" style="stroke:#383838;stroke-width:1.0;"/><polygon fill="#000000" points="159.9092,578.0369,168.9994,575.2407,165.6197,570.4316,159.9092,578.0369" style="stroke:#000000;stroke-width:1.0;"/><text fill="#000000" font-family="sans-serif" font-size="13" lengthAdjust="spacing" textLength="21" x="173" y="580.206">has</text><text fill="#000000" font-family="sans-serif" font-size="13" lengthAdjust="spacing" textLength="7" x="199.1448" y="520.0799">1</text><text fill="#000000" font-family="sans-serif" font-size="13" lengthAdjust="spacing" textLength="7" x="60.9803" y="622.4002">1</text><!--MD5=[9d7a3cba70b28965f46d2c5975c5d919]
link Content to Id--><path codeLine="47" d="M244.6,515.419 C230.61,543.969 200.43,605.569 186.42,634.159 " fill="none" id="Content-Id" style="stroke:#383838;stroke-width:1.0;"/><polygon fill="#000000" points="222.8,579.652,229.419,572.8227,224.1407,570.2364,222.8,579.652" style="stroke:#000000;stroke-width:1.0;"/><text fill="#000000" font-family="sans-serif" font-size="13" lengthAdjust="spacing" textLength="21" x="234" y="580.206">has</text><text fill="#000000" font-family="sans-serif" font-size="13" lengthAdjust="spacing" textLength="7" x="203.265" y="537.3995">1</text><text fill="#000000" font-family="sans-serif" font-size="13" lengthAdjust="spacing" textLength="7" x="180.9946" y="622.4002">1</text><!--MD5=[3c6c2e256ba62453627a56b86a8b9b0d]
link Content to GPSPoint--><path codeLine="48" d="M259.4,515.419 C273.39,543.969 303.57,605.569 317.58,634.159 " fill="none" id="Content-GPSPoint" style="stroke:#383838;stroke-width:1.0;"/><polygon fill="#000000" points="300.2,579.652,298.8593,570.2364,293.581,572.8227,300.2,579.652" style="stroke:#000000;stroke-width:1.0;"/><text fill="#000000" font-family="sans-serif" font-size="13" lengthAdjust="spacing" textLength="21" x="307" y="580.206">has</text><text fill="#000000" font-family="sans-serif" font-size="13" lengthAdjust="spacing" textLength="7" x="264.685" y="537.3995">1</text><text fill="#000000" font-family="sans-serif" font-size="13" lengthAdjust="spacing" textLength="7" x="306.8679" y="622.4002">1</text><!--MD5=[dc8702dc6d131a10f01bb1b8028f0760]
@startuml model

skinparam Monochrome true
skinparam Shadowing false
hide empty members

class Domain

class Sensor

class Valve

class Garden

class Area

class Point

class Details

class StartDate

class EndDate

class Content

class Name

class Id

class GPSPoint

class Records

Domain "1" - "*" Garden: owns >
Area "1" - - "*" Point: has boundaries >
Garden "1" - - "1" Area: defined by >
Garden "1" - - "1..*" Sensor: has >
Garden "1" - - "*" Valve: has >
Valve "1" - - "*" Details: has info >
Sensor "1" - - "*" Details: has info >
Details "1" - - "1" StartDate: has >
Details "1" - - "0..1" EndDate: has >
Details "1" - - "1" Content: refer to >
Content "1" - - "1" Records: has >
Content "1" - - "*" Domain: is owned by >
Content "1" - - "1" Name: has >
Content "1" - - "1" Id: has >
Content "1" - - "1" GPSPoint: has >

@enduml

PlantUML version 1.2021.16(Wed Dec 08 17:25:22 WET 2021)
(GPL source distribution)
Java Runtime: OpenJDK Runtime Environment
JVM: OpenJDK 64-Bit Server VM
Default Encoding: UTF-8
Language: en
Country: GB
--></g></svg>