<?xml version="1.0" encoding="UTF-8" standalone="no"?><svg xmlns="http://www.w3.org/2000/svg" xmlns:xlink="http://www.w3.org/1999/xlink" contentStyleType="text/css" height="601px" preserveAspectRatio="none" style="width:733px;height:601px;background:#FFFFFF;" version="1.1" viewBox="0 0 733 601" width="733px" zoomAndPan="magnify"><defs/><g><!--MD5=[1f8fbffc1445fbdf7e25af61c62ad345]
class Domain--><g id="elem_Domain"><rect codeLine="6" fill="#F1F1F1" height="32" id="Domain" rx="2.5" ry="2.5" style="stroke:#181818;stroke-width:0.5;" width="84" x="18" y="451"/><ellipse cx="33" cy="467" fill="#C2C2C2" rx="11" ry="11" style="stroke:#181818;stroke-width:1.0;"/><path d="M32.4688,473.9219 Q30.7188,473.9219 29.5781,473.1875 Q28.4531,472.4375 27.8906,471.0938 Q27.3438,469.7344 27.3438,467.9375 Q27.3438,465.9063 28,464.4531 Q28.6563,463 29.9375,462.2188 Q31.2188,461.4375 33.0938,461.4375 Q33.9844,461.4375 34.6563,461.625 Q35.3281,461.7969 36.0156,462.1406 L35.2031,464.1563 Q34.5781,463.8438 34.0313,463.7188 Q33.5,463.5938 33.0156,463.5938 Q31.8438,463.5938 31.1406,464.125 Q30.4375,464.6563 30.1406,465.6094 Q29.8438,466.5625 29.8438,467.8281 Q29.8438,469.8438 30.5625,470.8125 Q31.2813,471.7656 32.875,471.7656 Q33.4688,471.7656 34.0938,471.6094 Q34.7188,471.4531 35.5469,471.0781 L35.5469,473.2969 Q34.8125,473.6094 34.0156,473.7656 Q33.2344,473.9219 32.4688,473.9219 Z " fill="#000000"/><text fill="#000000" font-family="sans-serif" font-size="14" lengthAdjust="spacing" textLength="52" x="47" y="472.432">Domain</text></g><!--MD5=[d16f603401829aa2e2f98daccc2bcbd7]
class ParkSensor--><g id="elem_ParkSensor"><rect codeLine="8" fill="#F1F1F1" height="32" id="ParkSensor" rx="2.5" ry="2.5" style="stroke:#181818;stroke-width:0.5;" width="111" x="160.5" y="7"/><ellipse cx="175.5" cy="23" fill="#C2C2C2" rx="11" ry="11" style="stroke:#181818;stroke-width:1.0;"/><path d="M174.9688,29.9219 Q173.2188,29.9219 172.0781,29.1875 Q170.9531,28.4375 170.3906,27.0938 Q169.8438,25.7344 169.8438,23.9375 Q169.8438,21.9063 170.5,20.4531 Q171.1563,19 172.4375,18.2188 Q173.7188,17.4375 175.5938,17.4375 Q176.4844,17.4375 177.1563,17.625 Q177.8281,17.7969 178.5156,18.1406 L177.7031,20.1563 Q177.0781,19.8438 176.5313,19.7188 Q176,19.5938 175.5156,19.5938 Q174.3438,19.5938 173.6406,20.125 Q172.9375,20.6563 172.6406,21.6094 Q172.3438,22.5625 172.3438,23.8281 Q172.3438,25.8438 173.0625,26.8125 Q173.7813,27.7656 175.375,27.7656 Q175.9688,27.7656 176.5938,27.6094 Q177.2188,27.4531 178.0469,27.0781 L178.0469,29.2969 Q177.3125,29.6094 176.5156,29.7656 Q175.7344,29.9219 174.9688,29.9219 Z " fill="#000000"/><text fill="#000000" font-family="sans-serif" font-size="14" lengthAdjust="spacing" textLength="79" x="189.5" y="28.432">Park Sensor</text></g><!--MD5=[b85f564339c87067be5639a620914d83]
class StoveSensor--><g id="elem_StoveSensor"><rect codeLine="10" fill="#F1F1F1" height="32" id="StoveSensor" rx="2.5" ry="2.5" style="stroke:#181818;stroke-width:0.5;" width="118" x="307" y="7"/><ellipse cx="322" cy="23" fill="#C2C2C2" rx="11" ry="11" style="stroke:#181818;stroke-width:1.0;"/><path d="M321.4688,29.9219 Q319.7188,29.9219 318.5781,29.1875 Q317.4531,28.4375 316.8906,27.0938 Q316.3438,25.7344 316.3438,23.9375 Q316.3438,21.9063 317,20.4531 Q317.6563,19 318.9375,18.2188 Q320.2188,17.4375 322.0938,17.4375 Q322.9844,17.4375 323.6563,17.625 Q324.3281,17.7969 325.0156,18.1406 L324.2031,20.1563 Q323.5781,19.8438 323.0313,19.7188 Q322.5,19.5938 322.0156,19.5938 Q320.8438,19.5938 320.1406,20.125 Q319.4375,20.6563 319.1406,21.6094 Q318.8438,22.5625 318.8438,23.8281 Q318.8438,25.8438 319.5625,26.8125 Q320.2813,27.7656 321.875,27.7656 Q322.4688,27.7656 323.0938,27.6094 Q323.7188,27.4531 324.5469,27.0781 L324.5469,29.2969 Q323.8125,29.6094 323.0156,29.7656 Q322.2344,29.9219 321.4688,29.9219 Z " fill="#000000"/><text fill="#000000" font-family="sans-serif" font-size="14" lengthAdjust="spacing" textLength="86" x="336" y="28.432">Stove Sensor</text></g><!--MD5=[72bfd782fef577c3c896afe870721fbe]
class Valve--><g id="elem_Valve"><rect codeLine="12" fill="#F1F1F1" height="32" id="Valve" rx="2.5" ry="2.5" style="stroke:#181818;stroke-width:0.5;" width="67" x="460.5" y="7"/><ellipse cx="475.5" cy="23" fill="#C2C2C2" rx="11" ry="11" style="stroke:#181818;stroke-width:1.0;"/><path d="M474.9688,29.9219 Q473.2188,29.9219 472.0781,29.1875 Q470.9531,28.4375 470.3906,27.0938 Q469.8438,25.7344 469.8438,23.9375 Q469.8438,21.9063 470.5,20.4531 Q471.1563,19 472.4375,18.2188 Q473.7188,17.4375 475.5938,17.4375 Q476.4844,17.4375 477.1563,17.625 Q477.8281,17.7969 478.5156,18.1406 L477.7031,20.1563 Q477.0781,19.8438 476.5313,19.7188 Q476,19.5938 475.5156,19.5938 Q474.3438,19.5938 473.6406,20.125 Q472.9375,20.6563 472.6406,21.6094 Q472.3438,22.5625 472.3438,23.8281 Q472.3438,25.8438 473.0625,26.8125 Q473.7813,27.7656 475.375,27.7656 Q475.9688,27.7656 476.5938,27.6094 Q477.2188,27.4531 478.0469,27.0781 L478.0469,29.2969 Q477.3125,29.6094 476.5156,29.7656 Q475.7344,29.9219 474.9688,29.9219 Z " fill="#000000"/><text fill="#000000" font-family="sans-serif" font-size="14" lengthAdjust="spacing" textLength="35" x="489.5" y="28.432">Valve</text></g><!--MD5=[ea2f4b3dbb692bdaa231e5e120996e32]
class Garden--><g id="elem_Garden"><rect codeLine="14" fill="#F1F1F1" height="32" id="Garden" rx="2.5" ry="2.5" style="stroke:#181818;stroke-width:0.5;" width="139" x="478.5" y="118"/><ellipse cx="493.5" cy="134" fill="#C2C2C2" rx="11" ry="11" style="stroke:#181818;stroke-width:1.0;"/><path d="M492.9688,140.9219 Q491.2188,140.9219 490.0781,140.1875 Q488.9531,139.4375 488.3906,138.0938 Q487.8438,136.7344 487.8438,134.9375 Q487.8438,132.9063 488.5,131.4531 Q489.1563,130 490.4375,129.2188 Q491.7188,128.4375 493.5938,128.4375 Q494.4844,128.4375 495.1563,128.625 Q495.8281,128.7969 496.5156,129.1406 L495.7031,131.1563 Q495.0781,130.8438 494.5313,130.7188 Q494,130.5938 493.5156,130.5938 Q492.3438,130.5938 491.6406,131.125 Q490.9375,131.6563 490.6406,132.6094 Q490.3438,133.5625 490.3438,134.8281 Q490.3438,136.8438 491.0625,137.8125 Q491.7813,138.7656 493.375,138.7656 Q493.9688,138.7656 494.5938,138.6094 Q495.2188,138.4531 496.0469,138.0781 L496.0469,140.2969 Q495.3125,140.6094 494.5156,140.7656 Q493.7344,140.9219 492.9688,140.9219 Z " fill="#000000"/><text fill="#000000" font-family="sans-serif" font-size="14" lengthAdjust="spacing" textLength="107" x="507.5" y="139.432">Gardening Area</text></g><!--MD5=[976f4a814e6798b7880a99dc84ac0c35]
class GardenName--><g id="elem_GardenName"><rect codeLine="16" fill="#F1F1F1" height="32" id="GardenName" rx="2.5" ry="2.5" style="stroke:#181818;stroke-width:0.5;" width="72" x="480" y="229"/><ellipse cx="495" cy="245" fill="#C2C2C2" rx="11" ry="11" style="stroke:#181818;stroke-width:1.0;"/><path d="M494.4688,251.9219 Q492.7188,251.9219 491.5781,251.1875 Q490.4531,250.4375 489.8906,249.0938 Q489.3438,247.7344 489.3438,245.9375 Q489.3438,243.9063 490,242.4531 Q490.6563,241 491.9375,240.2188 Q493.2188,239.4375 495.0938,239.4375 Q495.9844,239.4375 496.6563,239.625 Q497.3281,239.7969 498.0156,240.1406 L497.2031,242.1563 Q496.5781,241.8438 496.0313,241.7188 Q495.5,241.5938 495.0156,241.5938 Q493.8438,241.5938 493.1406,242.125 Q492.4375,242.6563 492.1406,243.6094 Q491.8438,244.5625 491.8438,245.8281 Q491.8438,247.8438 492.5625,248.8125 Q493.2813,249.7656 494.875,249.7656 Q495.4688,249.7656 496.0938,249.6094 Q496.7188,249.4531 497.5469,249.0781 L497.5469,251.2969 Q496.8125,251.6094 496.0156,251.7656 Q495.2344,251.9219 494.4688,251.9219 Z " fill="#000000"/><text fill="#000000" font-family="sans-serif" font-size="14" lengthAdjust="spacing" textLength="40" x="509" y="250.432">Name</text></g><!--MD5=[fc539fa3f3b7db9b31467e896d367b3b]
class Device--><g id="elem_Device"><rect codeLine="18" fill="#F1F1F1" height="32" id="Device" rx="2.5" ry="2.5" style="stroke:#181818;stroke-width:0.5;" width="70" x="331" y="118"/><ellipse cx="346" cy="134" fill="#B1B1B1" rx="11" ry="11" style="stroke:#181818;stroke-width:1.0;"/><path d="M342.0313,140.5 L342.0313,138.7969 L344.3906,138.5313 L344.3906,130.3281 L342.0313,130.0625 L342.0313,128.3594 L349.1719,128.3594 L349.1719,130.0625 L346.75,130.3281 L346.75,138.5313 L349.1719,138.7969 L349.1719,140.5 L342.0313,140.5 Z " fill="#000000"/><text fill="#000000" font-family="sans-serif" font-size="14" font-style="italic" lengthAdjust="spacing" textLength="38" x="360" y="139.432">Device</text></g><!--MD5=[7cfcec95ce8c7b3cc21f2a5540b61e10]
class Area--><g id="elem_Area"><rect codeLine="20" fill="#F1F1F1" height="32" id="Area" rx="2.5" ry="2.5" style="stroke:#181818;stroke-width:0.5;" width="63" x="587.5" y="229"/><ellipse cx="602.5" cy="245" fill="#C2C2C2" rx="11" ry="11" style="stroke:#181818;stroke-width:1.0;"/><path d="M601.9688,251.9219 Q600.2188,251.9219 599.0781,251.1875 Q597.9531,250.4375 597.3906,249.0938 Q596.8438,247.7344 596.8438,245.9375 Q596.8438,243.9063 597.5,242.4531 Q598.1563,241 599.4375,240.2188 Q600.7188,239.4375 602.5938,239.4375 Q603.4844,239.4375 604.1563,239.625 Q604.8281,239.7969 605.5156,240.1406 L604.7031,242.1563 Q604.0781,241.8438 603.5313,241.7188 Q603,241.5938 602.5156,241.5938 Q601.3438,241.5938 600.6406,242.125 Q599.9375,242.6563 599.6406,243.6094 Q599.3438,244.5625 599.3438,245.8281 Q599.3438,247.8438 600.0625,248.8125 Q600.7813,249.7656 602.375,249.7656 Q602.9688,249.7656 603.5938,249.6094 Q604.2188,249.4531 605.0469,249.0781 L605.0469,251.2969 Q604.3125,251.6094 603.5156,251.7656 Q602.7344,251.9219 601.9688,251.9219 Z " fill="#000000"/><text fill="#000000" font-family="sans-serif" font-size="14" lengthAdjust="spacing" textLength="31" x="616.5" y="250.432">Area</text></g><!--MD5=[c11ebd9d41b4de8a75ac8c59a30b46ba]
class LedgerEntry--><g id="elem_LedgerEntry"><rect codeLine="22" fill="#F1F1F1" height="32" id="LedgerEntry" rx="2.5" ry="2.5" style="stroke:#181818;stroke-width:0.5;" width="114" x="227" y="229"/><ellipse cx="242" cy="245" fill="#C2C2C2" rx="11" ry="11" style="stroke:#181818;stroke-width:1.0;"/><path d="M241.4688,251.9219 Q239.7188,251.9219 238.5781,251.1875 Q237.4531,250.4375 236.8906,249.0938 Q236.3438,247.7344 236.3438,245.9375 Q236.3438,243.9063 237,242.4531 Q237.6563,241 238.9375,240.2188 Q240.2188,239.4375 242.0938,239.4375 Q242.9844,239.4375 243.6563,239.625 Q244.3281,239.7969 245.0156,240.1406 L244.2031,242.1563 Q243.5781,241.8438 243.0313,241.7188 Q242.5,241.5938 242.0156,241.5938 Q240.8438,241.5938 240.1406,242.125 Q239.4375,242.6563 239.1406,243.6094 Q238.8438,244.5625 238.8438,245.8281 Q238.8438,247.8438 239.5625,248.8125 Q240.2813,249.7656 241.875,249.7656 Q242.4688,249.7656 243.0938,249.6094 Q243.7188,249.4531 244.5469,249.0781 L244.5469,251.2969 Q243.8125,251.6094 243.0156,251.7656 Q242.2344,251.9219 241.4688,251.9219 Z " fill="#000000"/><text fill="#000000" font-family="sans-serif" font-size="14" lengthAdjust="spacing" textLength="82" x="256" y="250.432">LedgerEntry</text></g><!--MD5=[fd7366e9f96236d9aa60dcc04f2b83e5]
class Content--><g id="elem_Content"><rect codeLine="24" fill="#F1F1F1" height="32" id="Content" rx="2.5" ry="2.5" style="stroke:#181818;stroke-width:0.5;" width="85" x="417.5" y="340"/><ellipse cx="432.5" cy="356" fill="#C2C2C2" rx="11" ry="11" style="stroke:#181818;stroke-width:1.0;"/><path d="M431.9688,362.9219 Q430.2188,362.9219 429.0781,362.1875 Q427.9531,361.4375 427.3906,360.0938 Q426.8438,358.7344 426.8438,356.9375 Q426.8438,354.9063 427.5,353.4531 Q428.1563,352 429.4375,351.2188 Q430.7188,350.4375 432.5938,350.4375 Q433.4844,350.4375 434.1563,350.625 Q434.8281,350.7969 435.5156,351.1406 L434.7031,353.1563 Q434.0781,352.8438 433.5313,352.7188 Q433,352.5938 432.5156,352.5938 Q431.3438,352.5938 430.6406,353.125 Q429.9375,353.6563 429.6406,354.6094 Q429.3438,355.5625 429.3438,356.8281 Q429.3438,358.8438 430.0625,359.8125 Q430.7813,360.7656 432.375,360.7656 Q432.9688,360.7656 433.5938,360.6094 Q434.2188,360.4531 435.0469,360.0781 L435.0469,362.2969 Q434.3125,362.6094 433.5156,362.7656 Q432.7344,362.9219 431.9688,362.9219 Z " fill="#000000"/><text fill="#000000" font-family="sans-serif" font-size="14" lengthAdjust="spacing" textLength="53" x="446.5" y="361.432">Content</text></g><!--MD5=[b34ad0795e0eeccd752a3970dd825c77]
class Ownership--><g id="elem_Ownership"><rect codeLine="26" fill="#F1F1F1" height="32" id="Ownership" rx="2.5" ry="2.5" style="stroke:#181818;stroke-width:0.5;" width="106" x="7" y="340"/><ellipse cx="22" cy="356" fill="#C2C2C2" rx="11" ry="11" style="stroke:#181818;stroke-width:1.0;"/><path d="M21.4688,362.9219 Q19.7188,362.9219 18.5781,362.1875 Q17.4531,361.4375 16.8906,360.0938 Q16.3438,358.7344 16.3438,356.9375 Q16.3438,354.9063 17,353.4531 Q17.6563,352 18.9375,351.2188 Q20.2188,350.4375 22.0938,350.4375 Q22.9844,350.4375 23.6563,350.625 Q24.3281,350.7969 25.0156,351.1406 L24.2031,353.1563 Q23.5781,352.8438 23.0313,352.7188 Q22.5,352.5938 22.0156,352.5938 Q20.8438,352.5938 20.1406,353.125 Q19.4375,353.6563 19.1406,354.6094 Q18.8438,355.5625 18.8438,356.8281 Q18.8438,358.8438 19.5625,359.8125 Q20.2813,360.7656 21.875,360.7656 Q22.4688,360.7656 23.0938,360.6094 Q23.7188,360.4531 24.5469,360.0781 L24.5469,362.2969 Q23.8125,362.6094 23.0156,362.7656 Q22.2344,362.9219 21.4688,362.9219 Z " fill="#000000"/><text fill="#000000" font-family="sans-serif" font-size="14" lengthAdjust="spacing" textLength="74" x="36" y="361.432">Ownership</text></g><!--MD5=[b1fae75f0b6ba24f22f55fa7b0d9c778]
class OpenDate--><g id="elem_OpenDate"><rect codeLine="28" fill="#F1F1F1" height="32" id="OpenDate" rx="2.5" ry="2.5" style="stroke:#181818;stroke-width:0.5;" width="100" x="148" y="340"/><ellipse cx="163" cy="356" fill="#C2C2C2" rx="11" ry="11" style="stroke:#181818;stroke-width:1.0;"/><path d="M162.4688,362.9219 Q160.7188,362.9219 159.5781,362.1875 Q158.4531,361.4375 157.8906,360.0938 Q157.3438,358.7344 157.3438,356.9375 Q157.3438,354.9063 158,353.4531 Q158.6563,352 159.9375,351.2188 Q161.2188,350.4375 163.0938,350.4375 Q163.9844,350.4375 164.6563,350.625 Q165.3281,350.7969 166.0156,351.1406 L165.2031,353.1563 Q164.5781,352.8438 164.0313,352.7188 Q163.5,352.5938 163.0156,352.5938 Q161.8438,352.5938 161.1406,353.125 Q160.4375,353.6563 160.1406,354.6094 Q159.8438,355.5625 159.8438,356.8281 Q159.8438,358.8438 160.5625,359.8125 Q161.2813,360.7656 162.875,360.7656 Q163.4688,360.7656 164.0938,360.6094 Q164.7188,360.4531 165.5469,360.0781 L165.5469,362.2969 Q164.8125,362.6094 164.0156,362.7656 Q163.2344,362.9219 162.4688,362.9219 Z " fill="#000000"/><text fill="#000000" font-family="sans-serif" font-size="14" lengthAdjust="spacing" textLength="68" x="177" y="361.432">OpenDate</text></g><!--MD5=[364f60d826873b889bb09a585e42cab2]
class CloseDate--><g id="elem_CloseDate"><rect codeLine="30" fill="#F1F1F1" height="32" id="CloseDate" rx="2.5" ry="2.5" style="stroke:#181818;stroke-width:0.5;" width="99" x="283.5" y="340"/><ellipse cx="298.5" cy="356" fill="#C2C2C2" rx="11" ry="11" style="stroke:#181818;stroke-width:1.0;"/><path d="M297.9688,362.9219 Q296.2188,362.9219 295.0781,362.1875 Q293.9531,361.4375 293.3906,360.0938 Q292.8438,358.7344 292.8438,356.9375 Q292.8438,354.9063 293.5,353.4531 Q294.1563,352 295.4375,351.2188 Q296.7188,350.4375 298.5938,350.4375 Q299.4844,350.4375 300.1563,350.625 Q300.8281,350.7969 301.5156,351.1406 L300.7031,353.1563 Q300.0781,352.8438 299.5313,352.7188 Q299,352.5938 298.5156,352.5938 Q297.3438,352.5938 296.6406,353.125 Q295.9375,353.6563 295.6406,354.6094 Q295.3438,355.5625 295.3438,356.8281 Q295.3438,358.8438 296.0625,359.8125 Q296.7813,360.7656 298.375,360.7656 Q298.9688,360.7656 299.5938,360.6094 Q300.2188,360.4531 301.0469,360.0781 L301.0469,362.2969 Q300.3125,362.6094 299.5156,362.7656 Q298.7344,362.9219 297.9688,362.9219 Z " fill="#000000"/><text fill="#000000" font-family="sans-serif" font-size="14" lengthAdjust="spacing" textLength="67" x="312.5" y="361.432">CloseDate</text></g><!--MD5=[53f6a92bd21ca2f2960392a061f3a1c6]
class Name--><g id="elem_Name"><rect codeLine="32" fill="#F1F1F1" height="32" id="Name" rx="2.5" ry="2.5" style="stroke:#181818;stroke-width:0.5;" width="72" x="479" y="451"/><ellipse cx="494" cy="467" fill="#C2C2C2" rx="11" ry="11" style="stroke:#181818;stroke-width:1.0;"/><path d="M493.4688,473.9219 Q491.7188,473.9219 490.5781,473.1875 Q489.4531,472.4375 488.8906,471.0938 Q488.3438,469.7344 488.3438,467.9375 Q488.3438,465.9063 489,464.4531 Q489.6563,463 490.9375,462.2188 Q492.2188,461.4375 494.0938,461.4375 Q494.9844,461.4375 495.6563,461.625 Q496.3281,461.7969 497.0156,462.1406 L496.2031,464.1563 Q495.5781,463.8438 495.0313,463.7188 Q494.5,463.5938 494.0156,463.5938 Q492.8438,463.5938 492.1406,464.125 Q491.4375,464.6563 491.1406,465.6094 Q490.8438,466.5625 490.8438,467.8281 Q490.8438,469.8438 491.5625,470.8125 Q492.2813,471.7656 493.875,471.7656 Q494.4688,471.7656 495.0938,471.6094 Q495.7188,471.4531 496.5469,471.0781 L496.5469,473.2969 Q495.8125,473.6094 495.0156,473.7656 Q494.2344,473.9219 493.4688,473.9219 Z " fill="#000000"/><text fill="#000000" font-family="sans-serif" font-size="14" lengthAdjust="spacing" textLength="40" x="508" y="472.432">Name</text></g><!--MD5=[0276c55ef034c711ad16864ae0c1a09b]
class Id--><g id="elem_Id"><rect codeLine="34" fill="#F1F1F1" height="32" id="Id" rx="2.5" ry="2.5" style="stroke:#181818;stroke-width:0.5;" width="46" x="376" y="229"/><ellipse cx="391" cy="245" fill="#C2C2C2" rx="11" ry="11" style="stroke:#181818;stroke-width:1.0;"/><path d="M390.4688,251.9219 Q388.7188,251.9219 387.5781,251.1875 Q386.4531,250.4375 385.8906,249.0938 Q385.3438,247.7344 385.3438,245.9375 Q385.3438,243.9063 386,242.4531 Q386.6563,241 387.9375,240.2188 Q389.2188,239.4375 391.0938,239.4375 Q391.9844,239.4375 392.6563,239.625 Q393.3281,239.7969 394.0156,240.1406 L393.2031,242.1563 Q392.5781,241.8438 392.0313,241.7188 Q391.5,241.5938 391.0156,241.5938 Q389.8438,241.5938 389.1406,242.125 Q388.4375,242.6563 388.1406,243.6094 Q387.8438,244.5625 387.8438,245.8281 Q387.8438,247.8438 388.5625,248.8125 Q389.2813,249.7656 390.875,249.7656 Q391.4688,249.7656 392.0938,249.6094 Q392.7188,249.4531 393.5469,249.0781 L393.5469,251.2969 Q392.8125,251.6094 392.0156,251.7656 Q391.2344,251.9219 390.4688,251.9219 Z " fill="#000000"/><text fill="#000000" font-family="sans-serif" font-size="14" lengthAdjust="spacing" textLength="14" x="405" y="250.432">Id</text></g><!--MD5=[9c6177173b963ebfa9b301c323fcb46e]
class GPSPoint--><g id="elem_GPSPoint"><rect codeLine="36" fill="#F1F1F1" height="32" id="GPSPoint" rx="2.5" ry="2.5" style="stroke:#181818;stroke-width:0.5;" width="92" x="573" y="340"/><ellipse cx="588" cy="356" fill="#C2C2C2" rx="11" ry="11" style="stroke:#181818;stroke-width:1.0;"/><path d="M587.4688,362.9219 Q585.7188,362.9219 584.5781,362.1875 Q583.4531,361.4375 582.8906,360.0938 Q582.3438,358.7344 582.3438,356.9375 Q582.3438,354.9063 583,353.4531 Q583.6563,352 584.9375,351.2188 Q586.2188,350.4375 588.0938,350.4375 Q588.9844,350.4375 589.6563,350.625 Q590.3281,350.7969 591.0156,351.1406 L590.2031,353.1563 Q589.5781,352.8438 589.0313,352.7188 Q588.5,352.5938 588.0156,352.5938 Q586.8438,352.5938 586.1406,353.125 Q585.4375,353.6563 585.1406,354.6094 Q584.8438,355.5625 584.8438,356.8281 Q584.8438,358.8438 585.5625,359.8125 Q586.2813,360.7656 587.875,360.7656 Q588.4688,360.7656 589.0938,360.6094 Q589.7188,360.4531 590.5469,360.0781 L590.5469,362.2969 Q589.8125,362.6094 589.0156,362.7656 Q588.2344,362.9219 587.4688,362.9219 Z " fill="#000000"/><text fill="#000000" font-family="sans-serif" font-size="14" lengthAdjust="spacing" textLength="60" x="602" y="361.432">GPSPoint</text></g><!--MD5=[5c85d133e2c913f4b8608c8db253c015]
class Record--><g id="elem_Record"><rect codeLine="38" fill="#F1F1F1" height="32" id="Record" rx="2.5" ry="2.5" style="stroke:#181818;stroke-width:0.5;" width="79" x="364.5" y="451"/><ellipse cx="379.5" cy="467" fill="#C2C2C2" rx="11" ry="11" style="stroke:#181818;stroke-width:1.0;"/><path d="M378.9688,473.9219 Q377.2188,473.9219 376.0781,473.1875 Q374.9531,472.4375 374.3906,471.0938 Q373.8438,469.7344 373.8438,467.9375 Q373.8438,465.9063 374.5,464.4531 Q375.1563,463 376.4375,462.2188 Q377.7188,461.4375 379.5938,461.4375 Q380.4844,461.4375 381.1563,461.625 Q381.8281,461.7969 382.5156,462.1406 L381.7031,464.1563 Q381.0781,463.8438 380.5313,463.7188 Q380,463.5938 379.5156,463.5938 Q378.3438,463.5938 377.6406,464.125 Q376.9375,464.6563 376.6406,465.6094 Q376.3438,466.5625 376.3438,467.8281 Q376.3438,469.8438 377.0625,470.8125 Q377.7813,471.7656 379.375,471.7656 Q379.9688,471.7656 380.5938,471.6094 Q381.2188,471.4531 382.0469,471.0781 L382.0469,473.2969 Q381.3125,473.6094 380.5156,473.7656 Q379.7344,473.9219 378.9688,473.9219 Z " fill="#000000"/><text fill="#000000" font-family="sans-serif" font-size="14" lengthAdjust="spacing" textLength="47" x="393.5" y="472.432">Record</text></g><!--MD5=[88e8766322feffc82c07216c67a0b17c]
class EntryContent--><g id="elem_EntryContent"><rect codeLine="40" fill="#F1F1F1" height="32" id="EntryContent" rx="2.5" ry="2.5" style="stroke:#181818;stroke-width:0.5;" width="120" x="270" y="562"/><ellipse cx="285" cy="578" fill="#C2C2C2" rx="11" ry="11" style="stroke:#181818;stroke-width:1.0;"/><path d="M284.4688,584.9219 Q282.7188,584.9219 281.5781,584.1875 Q280.4531,583.4375 279.8906,582.0938 Q279.3438,580.7344 279.3438,578.9375 Q279.3438,576.9063 280,575.4531 Q280.6563,574 281.9375,573.2188 Q283.2188,572.4375 285.0938,572.4375 Q285.9844,572.4375 286.6563,572.625 Q287.3281,572.7969 288.0156,573.1406 L287.2031,575.1563 Q286.5781,574.8438 286.0313,574.7188 Q285.5,574.5938 285.0156,574.5938 Q283.8438,574.5938 283.1406,575.125 Q282.4375,575.6563 282.1406,576.6094 Q281.8438,577.5625 281.8438,578.8281 Q281.8438,580.8438 282.5625,581.8125 Q283.2813,582.7656 284.875,582.7656 Q285.4688,582.7656 286.0938,582.6094 Q286.7188,582.4531 287.5469,582.0781 L287.5469,584.2969 Q286.8125,584.6094 286.0156,584.7656 Q285.2344,584.9219 284.4688,584.9219 Z " fill="#000000"/><text fill="#000000" font-family="sans-serif" font-size="14" lengthAdjust="spacing" textLength="88" x="299" y="583.432">EntryContent</text></g><!--MD5=[dfa58506f944eb9eab559ed07f703544]
class EntryLabel--><g id="elem_EntryLabel"><rect codeLine="42" fill="#F1F1F1" height="32" id="EntryLabel" rx="2.5" ry="2.5" style="stroke:#181818;stroke-width:0.5;" width="103" x="425.5" y="562"/><ellipse cx="440.5" cy="578" fill="#C2C2C2" rx="11" ry="11" style="stroke:#181818;stroke-width:1.0;"/><path d="M439.9688,584.9219 Q438.2188,584.9219 437.0781,584.1875 Q435.9531,583.4375 435.3906,582.0938 Q434.8438,580.7344 434.8438,578.9375 Q434.8438,576.9063 435.5,575.4531 Q436.1563,574 437.4375,573.2188 Q438.7188,572.4375 440.5938,572.4375 Q441.4844,572.4375 442.1563,572.625 Q442.8281,572.7969 443.5156,573.1406 L442.7031,575.1563 Q442.0781,574.8438 441.5313,574.7188 Q441,574.5938 440.5156,574.5938 Q439.3438,574.5938 438.6406,575.125 Q437.9375,575.6563 437.6406,576.6094 Q437.3438,577.5625 437.3438,578.8281 Q437.3438,580.8438 438.0625,581.8125 Q438.7813,582.7656 440.375,582.7656 Q440.9688,582.7656 441.5938,582.6094 Q442.2188,582.4531 443.0469,582.0781 L443.0469,584.2969 Q442.3125,584.6094 441.5156,584.7656 Q440.7344,584.9219 439.9688,584.9219 Z " fill="#000000"/><text fill="#000000" font-family="sans-serif" font-size="14" lengthAdjust="spacing" textLength="71" x="454.5" y="583.432">EntryLabel</text></g><!--MD5=[b4b6daae9e021214adbaa7d7619376d1]
link Area to GPSPoint--><g id="link_Area_GPSPoint"><path codeLine="44" d="M619,261.16 C619,281.98 619,319.22 619,339.97 " fill="none" id="Area-GPSPoint" style="stroke:#181818;stroke-width:1.0;"/><polygon fill="#000000" points="624,305.853,626.9389,296.8079,621.0611,296.8079,624,305.853" style="stroke:#000000;stroke-width:1.0;"/><text fill="#000000" font-family="sans-serif" font-size="13" lengthAdjust="spacing" textLength="92" x="633" y="305.897">has boundaries</text><text fill="#000000" font-family="sans-serif" font-size="13" lengthAdjust="spacing" textLength="7" x="610.8844" y="283.0299">1</text><text fill="#000000" font-family="sans-serif" font-size="13" lengthAdjust="spacing" textLength="7" x="610.7531" y="328.254">*</text></g><!--MD5=[9e23d22ea6a67f437957dd21e04490bf]
link Garden to Area--><g id="link_Garden_Area"><path codeLine="45" d="M557.87,150.16 C571.44,170.98 595.69,208.22 609.21,228.97 " fill="none" id="Garden-Area" style="stroke:#181818;stroke-width:1.0;"/><polygon fill="#000000" points="594.7292,194.0425,592.2545,184.8595,587.3295,188.0678,594.7292,194.0425" style="stroke:#000000;stroke-width:1.0;"/><text fill="#000000" font-family="sans-serif" font-size="13" lengthAdjust="spacing" textLength="63" x="601" y="194.897">defined by</text><text fill="#000000" font-family="sans-serif" font-size="13" lengthAdjust="spacing" textLength="7" x="552.9004" y="172.0299">1</text><text fill="#000000" font-family="sans-serif" font-size="13" lengthAdjust="spacing" textLength="7" x="597.4754" y="217.254">1</text></g><!--MD5=[e39d17af40a02a18e6362ca8aa1868e4]
link Garden to GardenName--><g id="link_Garden_GardenName"><path codeLine="46" d="M533.46,150.33 C526.75,158.47 519.5,169.04 516,180 C510.86,196.09 511.83,215.63 513.46,228.86 " fill="none" id="Garden-GardenName" style="stroke:#181818;stroke-width:1.0;"/><polygon fill="#000000" points="519.766,194.6983,524.8463,186.6584,519.1503,185.2077,519.766,194.6983" style="stroke:#000000;stroke-width:1.0;"/><text fill="#000000" font-family="sans-serif" font-size="13" lengthAdjust="spacing" textLength="42" x="530" y="194.897">named</text><text fill="#000000" font-family="sans-serif" font-size="13" lengthAdjust="spacing" textLength="7" x="520.9353" y="171.9393">1</text><text fill="#000000" font-family="sans-serif" font-size="13" lengthAdjust="spacing" textLength="7" x="504.3083" y="217.1048">1</text></g><!--MD5=[0b6741397ce0b9625a4ea5f957003640]
link Valve to Device--><g id="link_Valve_Device"><path codeLine="47" d="M476.2,39.16 C456.33,56.08 423.74,83.83 399.14,104.78 " fill="none" id="Valve-to-Device" style="stroke:#181818;stroke-width:1.0;"/><polygon fill="none" points="403.41,110.34,383.65,117.97,394.34,99.68,403.41,110.34" style="stroke:#181818;stroke-width:1.0;"/><text fill="#000000" font-family="sans-serif" font-size="13" lengthAdjust="spacing" textLength="9" x="439" y="83.897">is</text></g><!--MD5=[43da8a79e9107d520d0e8617e8cfae84]
link ParkSensor to Device--><g id="link_ParkSensor_Device"><path codeLine="48" d="M236.86,39.16 C260.59,56.4 299.81,84.9 328.81,105.98 " fill="none" id="ParkSensor-to-Device" style="stroke:#181818;stroke-width:1.0;"/><polygon fill="none" points="333.26,100.55,345.32,117.97,325.03,111.88,333.26,100.55" style="stroke:#181818;stroke-width:1.0;"/><text fill="#000000" font-family="sans-serif" font-size="13" lengthAdjust="spacing" textLength="9" x="301" y="83.897">is</text></g><!--MD5=[5ee14bda416f46f4153ab3bd82656692]
link StoveSensor to Device--><g id="link_StoveSensor_Device"><path codeLine="49" d="M366,39.16 C366,54.29 366,78.08 366,97.92 " fill="none" id="StoveSensor-to-Device" style="stroke:#181818;stroke-width:1.0;"/><polygon fill="none" points="373,97.97,366,117.97,359,97.97,373,97.97" style="stroke:#181818;stroke-width:1.0;"/><text fill="#000000" font-family="sans-serif" font-size="13" lengthAdjust="spacing" textLength="9" x="367" y="83.897">is</text></g><!--MD5=[52b24ffa9ce15e5e73671ab1489b36fb]
link Device to LedgerEntry--><g id="link_Device_LedgerEntry"><path codeLine="50" d="M342.61,150.17 C331.88,158.05 319.65,168.44 311,180 C299.81,194.97 292.27,215.27 288.06,228.96 " fill="none" id="Device-LedgerEntry" style="stroke:#181818;stroke-width:1.0;"/><polygon fill="#000000" points="313.1538,193.9639,320.7189,188.2002,315.8863,184.8543,313.1538,193.9639" style="stroke:#000000;stroke-width:1.0;"/><text fill="#000000" font-family="sans-serif" font-size="13" lengthAdjust="spacing" textLength="47" x="325" y="194.897">has info</text><text fill="#000000" font-family="sans-serif" font-size="13" lengthAdjust="spacing" textLength="7" x="327.0388" y="172.0431">1</text><text fill="#000000" font-family="sans-serif" font-size="13" lengthAdjust="spacing" textLength="7" x="281.2595" y="217.2404">*</text></g><!--MD5=[187be54382a2e57d728f22e79db8a79a]
link Device to Id--><g id="link_Device_Id"><path codeLine="51" d="M370.59,150.16 C376.89,170.98 388.17,208.22 394.45,228.97 " fill="none" id="Device-Id" style="stroke:#181818;stroke-width:1.0;"/><polygon fill="#000000" points="391.4488,194.6385,391.6407,185.1299,386.015,186.8331,391.4488,194.6385" style="stroke:#000000;stroke-width:1.0;"/><text fill="#000000" font-family="sans-serif" font-size="13" lengthAdjust="spacing" textLength="21" x="399" y="194.897">has</text><text fill="#000000" font-family="sans-serif" font-size="13" lengthAdjust="spacing" textLength="7" x="363.9374" y="172.0299">1</text><text fill="#000000" font-family="sans-serif" font-size="13" lengthAdjust="spacing" textLength="7" x="384.5822" y="217.254">1</text></g><!--MD5=[c6704d10aace54d3fe2a9af63fd35024]
link LedgerEntry to OpenDate--><g id="link_LedgerEntry_OpenDate"><path codeLine="52" d="M272.04,261.16 C255.61,281.98 226.23,319.22 209.86,339.97 " fill="none" id="LedgerEntry-OpenDate" style="stroke:#181818;stroke-width:1.0;"/><polygon fill="#000000" points="248.903,304.7784,256.8128,299.4977,252.1983,295.8569,248.903,304.7784" style="stroke:#000000;stroke-width:1.0;"/><text fill="#000000" font-family="sans-serif" font-size="13" lengthAdjust="spacing" textLength="21" x="261" y="305.897">has</text><text fill="#000000" font-family="sans-serif" font-size="13" lengthAdjust="spacing" textLength="7" x="260.1121" y="283.0299">1</text><text fill="#000000" font-family="sans-serif" font-size="13" lengthAdjust="spacing" textLength="7" x="205.8383" y="328.254">1</text></g><!--MD5=[cc72fc02bdde8ede88a3be57cd4cd9cc]
link LedgerEntry to CloseDate--><g id="link_LedgerEntry_CloseDate"><path codeLine="53" d="M290.81,261.16 C300.17,281.98 316.91,319.22 326.24,339.97 " fill="none" id="LedgerEntry-CloseDate" style="stroke:#181818;stroke-width:1.0;"/><polygon fill="#000000" points="319.0502,305.4134,318.0219,295.9585,312.6609,298.3687,319.0502,305.4134" style="stroke:#000000;stroke-width:1.0;"/><text fill="#000000" font-family="sans-serif" font-size="13" lengthAdjust="spacing" textLength="21" x="326" y="305.897">has</text><text fill="#000000" font-family="sans-serif" font-size="13" lengthAdjust="spacing" textLength="7" x="284.8651" y="283.0299">1</text><text fill="#000000" font-family="sans-serif" font-size="13" lengthAdjust="spacing" textLength="20" x="300.2693" y="328.254">0..1</text></g><!--MD5=[c9e02d71fbdac86e454efa6ad456698a]
link LedgerEntry to Content--><g id="link_LedgerEntry_Content"><path codeLine="54" d="M308.47,261.16 C342.1,281.98 402.22,319.22 435.74,339.97 " fill="none" id="LedgerEntry-Content" style="stroke:#181818;stroke-width:1.0;"/><polygon fill="#000000" points="392.251,303.4854,386.1081,296.2247,383.0136,301.2221,392.251,303.4854" style="stroke:#000000;stroke-width:1.0;"/><text fill="#000000" font-family="sans-serif" font-size="13" lengthAdjust="spacing" textLength="44" x="397" y="305.897">refer to</text><text fill="#000000" font-family="sans-serif" font-size="13" lengthAdjust="spacing" textLength="7" x="308.1542" y="283.0299">1</text><text fill="#000000" font-family="sans-serif" font-size="13" lengthAdjust="spacing" textLength="7" x="418.8505" y="328.254">1</text></g><!--MD5=[1453041fee6c7f2a115440f048e2fab6]
link LedgerEntry to Ownership--><g id="link_LedgerEntry_Ownership"><path codeLine="55" d="M226.96,260.84 C202.3,268.31 173.53,278.46 149,291 C122.4,304.6 94.95,325.59 77.7,339.79 " fill="none" id="LedgerEntry-Ownership" style="stroke:#181818;stroke-width:1.0;"/><polygon fill="#000000" points="149.5802,303.1908,158.9498,301.5596,156.2016,296.3638,149.5802,303.1908" style="stroke:#000000;stroke-width:1.0;"/><text fill="#000000" font-family="sans-serif" font-size="13" lengthAdjust="spacing" textLength="64" x="163" y="305.897">belongs to</text><text fill="#000000" font-family="sans-serif" font-size="13" lengthAdjust="spacing" textLength="7" x="211.8249" y="258.7708">1</text><text fill="#000000" font-family="sans-serif" font-size="13" lengthAdjust="spacing" textLength="7" x="75.5813" y="328.3143">1</text></g><!--MD5=[de0487fca35b0f8b67966077cd2b7597]
link Content to Record--><g id="link_Content_Record"><path codeLine="56" d="M452.21,372.16 C441.51,392.98 422.38,430.22 411.72,450.97 " fill="none" id="Content-Record" style="stroke:#181818;stroke-width:1.0;"/><polygon fill="#000000" points="438.7151,416.3004,445.4626,409.598,440.2344,406.912,438.7151,416.3004" style="stroke:#000000;stroke-width:1.0;"/><text fill="#000000" font-family="sans-serif" font-size="13" lengthAdjust="spacing" textLength="21" x="450" y="416.897">has</text><text fill="#000000" font-family="sans-serif" font-size="13" lengthAdjust="spacing" textLength="7" x="441.6113" y="394.0299">1</text><text fill="#000000" font-family="sans-serif" font-size="13" lengthAdjust="spacing" textLength="7" x="406.2234" y="439.254">*</text></g><!--MD5=[000189fa040114ea81161a3f155790a1]
link Content to Name--><g id="link_Content_Name"><path codeLine="57" d="M467.65,372.16 C478.16,392.98 496.94,430.22 507.42,450.97 " fill="none" id="Content-Name" style="stroke:#181818;stroke-width:1.0;"/><polygon fill="#000000" points="497.2526,416.3168,495.8014,406.9176,490.5538,409.5657,497.2526,416.3168" style="stroke:#000000;stroke-width:1.0;"/><text fill="#000000" font-family="sans-serif" font-size="13" lengthAdjust="spacing" textLength="21" x="504" y="416.897">has</text><text fill="#000000" font-family="sans-serif" font-size="13" lengthAdjust="spacing" textLength="7" x="461.9728" y="394.0299">1</text><text fill="#000000" font-family="sans-serif" font-size="13" lengthAdjust="spacing" textLength="7" x="496.4728" y="439.254">1</text></g><!--MD5=[3c6c2e256ba62453627a56b86a8b9b0d]
link Content to GPSPoint--><g id="link_Content_GPSPoint"><path codeLine="58" d="M502.61,356 C524.32,356 550.74,356 572.92,356 " fill="none" id="Content-GPSPoint" style="stroke:#181818;stroke-width:1.0;"/><polygon fill="#000000" points="529.75,343.853,520.7049,340.9141,520.7049,346.7919,529.75,343.853" style="stroke:#000000;stroke-width:1.0;"/><text fill="#000000" font-family="sans-serif" font-size="13" lengthAdjust="spacing" textLength="21" x="533.75" y="348.897">has</text><text fill="#000000" font-family="sans-serif" font-size="13" lengthAdjust="spacing" textLength="7" x="510.5352" y="351.4967">1</text><text fill="#000000" font-family="sans-serif" font-size="13" lengthAdjust="spacing" textLength="7" x="558.0182" y="351.5986">1</text></g><!--MD5=[2662f6135f559b0c85a3d077851a8c8b]
link Ownership to Domain--><g id="link_Ownership_Domain"><path codeLine="59" d="M60,372.16 C60,392.98 60,430.22 60,450.97 " fill="none" id="Ownership-Domain" style="stroke:#181818;stroke-width:1.0;"/><polygon fill="#000000" points="65,416.853,67.9389,407.8079,62.0611,407.8079,65,416.853" style="stroke:#000000;stroke-width:1.0;"/><text fill="#000000" font-family="sans-serif" font-size="13" lengthAdjust="spacing" textLength="50" x="74" y="416.897">refers to</text><text fill="#000000" font-family="sans-serif" font-size="13" lengthAdjust="spacing" textLength="7" x="51.8844" y="394.0299">1</text><text fill="#000000" font-family="sans-serif" font-size="13" lengthAdjust="spacing" textLength="7" x="51.7531" y="439.254">*</text></g><!--MD5=[d9ba76ab0a51844325e627d5d77dd09f]
link Record to EntryContent--><g id="link_Record_EntryContent"><path codeLine="60" d="M393.71,483.16 C379.57,503.98 354.29,541.22 340.2,561.97 " fill="none" id="Record-EntryContent" style="stroke:#181818;stroke-width:1.0;"/><polygon fill="#000000" points="374.1914,526.9896,381.7037,521.1573,376.8408,517.8555,374.1914,526.9896" style="stroke:#000000;stroke-width:1.0;"/><text fill="#000000" font-family="sans-serif" font-size="13" lengthAdjust="spacing" textLength="21" x="386" y="527.897">has</text><text fill="#000000" font-family="sans-serif" font-size="13" lengthAdjust="spacing" textLength="7" x="382.3144" y="505.0299">1</text><text fill="#000000" font-family="sans-serif" font-size="13" lengthAdjust="spacing" textLength="7" x="335.5869" y="550.254">1</text></g><!--MD5=[4626dc4f90dbf094651af30d69b0b6a0]
link Record to EntryLabel--><g id="link_Record_EntryLabel"><path codeLine="61" d="M414.15,483.16 C428.1,503.98 453.03,541.22 466.94,561.97 " fill="none" id="Record-EntryLabel" style="stroke:#181818;stroke-width:1.0;"/><polygon fill="#000000" points="452.7826,527.0072,450.1906,517.8566,445.3071,521.1278,452.7826,527.0072" style="stroke:#000000;stroke-width:1.0;"/><text fill="#000000" font-family="sans-serif" font-size="13" lengthAdjust="spacing" textLength="21" x="459" y="527.897">has</text><text fill="#000000" font-family="sans-serif" font-size="13" lengthAdjust="spacing" textLength="7" x="409.2697" y="505.0299">1</text><text fill="#000000" font-family="sans-serif" font-size="13" lengthAdjust="spacing" textLength="7" x="455.1093" y="550.254">1</text></g><!--MD5=[9f4cd9dce4d329266ae7fb39719c0bb9]
@startuml model

skinparam Monochrome true
skinparam Shadowing false
hide empty members

class Domain

class ParkSensor as "Park Sensor"

class StoveSensor as "Stove Sensor"

class Valve

class Garden as "Gardening Area"

class GardenName as "Name"

interface Device

class Area

class LedgerEntry

class Content

class Ownership

class OpenDate

class CloseDate

class Name

class Id

class GPSPoint

class Record

class EntryContent

class EntryLabel

Area "1" - - "*" GPSPoint: has boundaries >
Garden "1" - - "1" Area: defined by >
Garden "1" - - "1" GardenName: named >
Valve - -|> Device : is
ParkSensor - -|> Device : is
StoveSensor - -|> Device : is
Device "1" - - "*" LedgerEntry: has info >
Device "1" - - "1" Id: has >
LedgerEntry "1" - - "1" OpenDate: has >
LedgerEntry "1" - - "0..1" CloseDate: has >
LedgerEntry "1" - - "1" Content: refer to >
LedgerEntry "1" - - "1" Ownership: belongs to >
Content "1" - - "*" Record: has >
Content "1" - - "1" Name: has >
Content "1" - "1" GPSPoint: has >
Ownership "1" - - "*" Domain: refers to >
Record "1" - - "1" EntryContent: has >
Record "1" - - "1" EntryLabel: has >

@enduml

PlantUML version 1.2022.4(Sat Apr 09 14:29:17 WEST 2022)
(GPL source distribution)
Java Runtime: OpenJDK Runtime Environment
JVM: OpenJDK 64-Bit Server VM
Default Encoding: UTF-8
Language: en
Country: GB
--></g></svg>