<?xml version="1.0" encoding="UTF-8" standalone="no"?><svg xmlns="http://www.w3.org/2000/svg" xmlns:xlink="http://www.w3.org/1999/xlink" contentStyleType="text/css" height="781px" preserveAspectRatio="none" style="width:1013px;height:781px;background:#FFFFFF;" version="1.1" viewBox="0 0 1013 781" width="1013px" zoomAndPan="magnify"><defs/><g><!--MD5=[1f8fbffc1445fbdf7e25af61c62ad345]
class Domain--><g id="elem_Domain"><rect codeLine="6" fill="#F1F1F1" height="32" id="Domain" rx="2.5" ry="2.5" style="stroke:#181818;stroke-width:0.5;" width="84" x="388" y="591"/><ellipse cx="403" cy="607" fill="#C2C2C2" rx="11" ry="11" style="stroke:#181818;stroke-width:1.0;"/><path d="M402.4688,613.9219 Q400.7188,613.9219 399.5781,613.1875 Q398.4531,612.4375 397.8906,611.0938 Q397.3438,609.7344 397.3438,607.9375 Q397.3438,605.9063 398,604.4531 Q398.6563,603 399.9375,602.2188 Q401.2188,601.4375 403.0938,601.4375 Q403.9844,601.4375 404.6563,601.625 Q405.3281,601.7969 406.0156,602.1406 L405.2031,604.1563 Q404.5781,603.8438 404.0313,603.7188 Q403.5,603.5938 403.0156,603.5938 Q401.8438,603.5938 401.1406,604.125 Q400.4375,604.6563 400.1406,605.6094 Q399.8438,606.5625 399.8438,607.8281 Q399.8438,609.8438 400.5625,610.8125 Q401.2813,611.7656 402.875,611.7656 Q403.4688,611.7656 404.0938,611.6094 Q404.7188,611.4531 405.5469,611.0781 L405.5469,613.2969 Q404.8125,613.6094 404.0156,613.7656 Q403.2344,613.9219 402.4688,613.9219 Z " fill="#000000"/><text fill="#000000" font-family="sans-serif" font-size="14" lengthAdjust="spacing" textLength="52" x="417" y="612.432">Domain</text></g><!--MD5=[d16f603401829aa2e2f98daccc2bcbd7]
class ParkSensor--><g id="elem_ParkSensor"><rect codeLine="8" fill="#F1F1F1" height="32" id="ParkSensor" rx="2.5" ry="2.5" style="stroke:#181818;stroke-width:0.5;" width="111" x="131.5" y="7"/><ellipse cx="146.5" cy="23" fill="#C2C2C2" rx="11" ry="11" style="stroke:#181818;stroke-width:1.0;"/><path d="M145.9688,29.9219 Q144.2188,29.9219 143.0781,29.1875 Q141.9531,28.4375 141.3906,27.0938 Q140.8438,25.7344 140.8438,23.9375 Q140.8438,21.9063 141.5,20.4531 Q142.1563,19 143.4375,18.2188 Q144.7188,17.4375 146.5938,17.4375 Q147.4844,17.4375 148.1563,17.625 Q148.8281,17.7969 149.5156,18.1406 L148.7031,20.1563 Q148.0781,19.8438 147.5313,19.7188 Q147,19.5938 146.5156,19.5938 Q145.3438,19.5938 144.6406,20.125 Q143.9375,20.6563 143.6406,21.6094 Q143.3438,22.5625 143.3438,23.8281 Q143.3438,25.8438 144.0625,26.8125 Q144.7813,27.7656 146.375,27.7656 Q146.9688,27.7656 147.5938,27.6094 Q148.2188,27.4531 149.0469,27.0781 L149.0469,29.2969 Q148.3125,29.6094 147.5156,29.7656 Q146.7344,29.9219 145.9688,29.9219 Z " fill="#000000"/><text fill="#000000" font-family="sans-serif" font-size="14" lengthAdjust="spacing" textLength="79" x="160.5" y="28.432">Park Sensor</text></g><!--MD5=[b85f564339c87067be5639a620914d83]
class StoveSensor--><g id="elem_StoveSensor"><rect codeLine="10" fill="#F1F1F1" height="32" id="StoveSensor" rx="2.5" ry="2.5" style="stroke:#181818;stroke-width:0.5;" width="118" x="278" y="7"/><ellipse cx="293" cy="23" fill="#C2C2C2" rx="11" ry="11" style="stroke:#181818;stroke-width:1.0;"/><path d="M292.4688,29.9219 Q290.7188,29.9219 289.5781,29.1875 Q288.4531,28.4375 287.8906,27.0938 Q287.3438,25.7344 287.3438,23.9375 Q287.3438,21.9063 288,20.4531 Q288.6563,19 289.9375,18.2188 Q291.2188,17.4375 293.0938,17.4375 Q293.9844,17.4375 294.6563,17.625 Q295.3281,17.7969 296.0156,18.1406 L295.2031,20.1563 Q294.5781,19.8438 294.0313,19.7188 Q293.5,19.5938 293.0156,19.5938 Q291.8438,19.5938 291.1406,20.125 Q290.4375,20.6563 290.1406,21.6094 Q289.8438,22.5625 289.8438,23.8281 Q289.8438,25.8438 290.5625,26.8125 Q291.2813,27.7656 292.875,27.7656 Q293.4688,27.7656 294.0938,27.6094 Q294.7188,27.4531 295.5469,27.0781 L295.5469,29.2969 Q294.8125,29.6094 294.0156,29.7656 Q293.2344,29.9219 292.4688,29.9219 Z " fill="#000000"/><text fill="#000000" font-family="sans-serif" font-size="14" lengthAdjust="spacing" textLength="86" x="307" y="28.432">Stove Sensor</text></g><!--MD5=[72bfd782fef577c3c896afe870721fbe]
class Valve--><g id="elem_Valve"><rect codeLine="12" fill="#F1F1F1" height="32" id="Valve" rx="2.5" ry="2.5" style="stroke:#181818;stroke-width:0.5;" width="67" x="431.5" y="7"/><ellipse cx="446.5" cy="23" fill="#C2C2C2" rx="11" ry="11" style="stroke:#181818;stroke-width:1.0;"/><path d="M445.9688,29.9219 Q444.2188,29.9219 443.0781,29.1875 Q441.9531,28.4375 441.3906,27.0938 Q440.8438,25.7344 440.8438,23.9375 Q440.8438,21.9063 441.5,20.4531 Q442.1563,19 443.4375,18.2188 Q444.7188,17.4375 446.5938,17.4375 Q447.4844,17.4375 448.1563,17.625 Q448.8281,17.7969 449.5156,18.1406 L448.7031,20.1563 Q448.0781,19.8438 447.5313,19.7188 Q447,19.5938 446.5156,19.5938 Q445.3438,19.5938 444.6406,20.125 Q443.9375,20.6563 443.6406,21.6094 Q443.3438,22.5625 443.3438,23.8281 Q443.3438,25.8438 444.0625,26.8125 Q444.7813,27.7656 446.375,27.7656 Q446.9688,27.7656 447.5938,27.6094 Q448.2188,27.4531 449.0469,27.0781 L449.0469,29.2969 Q448.3125,29.6094 447.5156,29.7656 Q446.7344,29.9219 445.9688,29.9219 Z " fill="#000000"/><text fill="#000000" font-family="sans-serif" font-size="14" lengthAdjust="spacing" textLength="35" x="460.5" y="28.432">Valve</text></g><!--MD5=[ea2f4b3dbb692bdaa231e5e120996e32]
class Garden--><g id="elem_Garden"><rect codeLine="14" fill="#F1F1F1" height="32" id="Garden" rx="2.5" ry="2.5" style="stroke:#181818;stroke-width:0.5;" width="133" x="668" y="138"/><ellipse cx="683" cy="154" fill="#C2C2C2" rx="11" ry="11" style="stroke:#181818;stroke-width:1.0;"/><path d="M682.4688,160.9219 Q680.7188,160.9219 679.5781,160.1875 Q678.4531,159.4375 677.8906,158.0938 Q677.3438,156.7344 677.3438,154.9375 Q677.3438,152.9063 678,151.4531 Q678.6563,150 679.9375,149.2188 Q681.2188,148.4375 683.0938,148.4375 Q683.9844,148.4375 684.6563,148.625 Q685.3281,148.7969 686.0156,149.1406 L685.2031,151.1563 Q684.5781,150.8438 684.0313,150.7188 Q683.5,150.5938 683.0156,150.5938 Q681.8438,150.5938 681.1406,151.125 Q680.4375,151.6563 680.1406,152.6094 Q679.8438,153.5625 679.8438,154.8281 Q679.8438,156.8438 680.5625,157.8125 Q681.2813,158.7656 682.875,158.7656 Q683.4688,158.7656 684.0938,158.6094 Q684.7188,158.4531 685.5469,158.0781 L685.5469,160.2969 Q684.8125,160.6094 684.0156,160.7656 Q683.2344,160.9219 682.4688,160.9219 Z " fill="#000000"/><text fill="#000000" font-family="sans-serif" font-size="14" lengthAdjust="spacing" textLength="101" x="697" y="159.432">Irrigation Zone</text></g><!--MD5=[976f4a814e6798b7880a99dc84ac0c35]
class GardenName--><g id="elem_GardenName"><rect codeLine="16" fill="#F1F1F1" height="32" id="GardenName" rx="2.5" ry="2.5" style="stroke:#181818;stroke-width:0.5;" width="72" x="934" y="289"/><ellipse cx="949" cy="305" fill="#C2C2C2" rx="11" ry="11" style="stroke:#181818;stroke-width:1.0;"/><path d="M948.4688,311.9219 Q946.7188,311.9219 945.5781,311.1875 Q944.4531,310.4375 943.8906,309.0938 Q943.3438,307.7344 943.3438,305.9375 Q943.3438,303.9063 944,302.4531 Q944.6563,301 945.9375,300.2188 Q947.2188,299.4375 949.0938,299.4375 Q949.9844,299.4375 950.6563,299.625 Q951.3281,299.7969 952.0156,300.1406 L951.2031,302.1563 Q950.5781,301.8438 950.0313,301.7188 Q949.5,301.5938 949.0156,301.5938 Q947.8438,301.5938 947.1406,302.125 Q946.4375,302.6563 946.1406,303.6094 Q945.8438,304.5625 945.8438,305.8281 Q945.8438,307.8438 946.5625,308.8125 Q947.2813,309.7656 948.875,309.7656 Q949.4688,309.7656 950.0938,309.6094 Q950.7188,309.4531 951.5469,309.0781 L951.5469,311.2969 Q950.8125,311.6094 950.0156,311.7656 Q949.2344,311.9219 948.4688,311.9219 Z " fill="#000000"/><text fill="#000000" font-family="sans-serif" font-size="14" lengthAdjust="spacing" textLength="40" x="963" y="310.432">Name</text></g><!--MD5=[fc539fa3f3b7db9b31467e896d367b3b]
class Device--><g id="elem_Device"><rect codeLine="18" fill="#F1F1F1" height="32" id="Device" rx="2.5" ry="2.5" style="stroke:#181818;stroke-width:0.5;" width="72" x="301" y="138"/><ellipse cx="316" cy="154" fill="#B1B1B1" rx="11" ry="11" style="stroke:#181818;stroke-width:1.0;"/><path d="M312.0313,160.5 L312.0313,158.7969 L314.3906,158.5313 L314.3906,150.3281 L312.0313,150.0625 L312.0313,148.3594 L319.1719,148.3594 L319.1719,150.0625 L316.75,150.3281 L316.75,158.5313 L319.1719,158.7969 L319.1719,160.5 L312.0313,160.5 Z " fill="#000000"/><text fill="#000000" font-family="sans-serif" font-size="14" font-style="italic" lengthAdjust="spacing" textLength="40" x="330" y="159.432">Device</text></g><!--MD5=[7cfcec95ce8c7b3cc21f2a5540b61e10]
class Area--><g id="elem_Area"><rect codeLine="20" fill="#F1F1F1" height="32" id="Area" rx="2.5" ry="2.5" style="stroke:#181818;stroke-width:0.5;" width="63" x="788" y="289"/><ellipse cx="803" cy="305" fill="#C2C2C2" rx="11" ry="11" style="stroke:#181818;stroke-width:1.0;"/><path d="M802.4688,311.9219 Q800.7188,311.9219 799.5781,311.1875 Q798.4531,310.4375 797.8906,309.0938 Q797.3438,307.7344 797.3438,305.9375 Q797.3438,303.9063 798,302.4531 Q798.6563,301 799.9375,300.2188 Q801.2188,299.4375 803.0938,299.4375 Q803.9844,299.4375 804.6563,299.625 Q805.3281,299.7969 806.0156,300.1406 L805.2031,302.1563 Q804.5781,301.8438 804.0313,301.7188 Q803.5,301.5938 803.0156,301.5938 Q801.8438,301.5938 801.1406,302.125 Q800.4375,302.6563 800.1406,303.6094 Q799.8438,304.5625 799.8438,305.8281 Q799.8438,307.8438 800.5625,308.8125 Q801.2813,309.7656 802.875,309.7656 Q803.4688,309.7656 804.0938,309.6094 Q804.7188,309.4531 805.5469,309.0781 L805.5469,311.2969 Q804.8125,311.6094 804.0156,311.7656 Q803.2344,311.9219 802.4688,311.9219 Z " fill="#000000"/><text fill="#000000" font-family="sans-serif" font-size="14" lengthAdjust="spacing" textLength="31" x="817" y="310.432">Area</text></g><!--MD5=[c11ebd9d41b4de8a75ac8c59a30b46ba]
class LedgerEntry--><g id="elem_LedgerEntry"><rect codeLine="22" fill="#F1F1F1" height="32" id="LedgerEntry" rx="2.5" ry="2.5" style="stroke:#181818;stroke-width:0.5;" width="114" x="183" y="289"/><ellipse cx="198" cy="305" fill="#C2C2C2" rx="11" ry="11" style="stroke:#181818;stroke-width:1.0;"/><path d="M197.4688,311.9219 Q195.7188,311.9219 194.5781,311.1875 Q193.4531,310.4375 192.8906,309.0938 Q192.3438,307.7344 192.3438,305.9375 Q192.3438,303.9063 193,302.4531 Q193.6563,301 194.9375,300.2188 Q196.2188,299.4375 198.0938,299.4375 Q198.9844,299.4375 199.6563,299.625 Q200.3281,299.7969 201.0156,300.1406 L200.2031,302.1563 Q199.5781,301.8438 199.0313,301.7188 Q198.5,301.5938 198.0156,301.5938 Q196.8438,301.5938 196.1406,302.125 Q195.4375,302.6563 195.1406,303.6094 Q194.8438,304.5625 194.8438,305.8281 Q194.8438,307.8438 195.5625,308.8125 Q196.2813,309.7656 197.875,309.7656 Q198.4688,309.7656 199.0938,309.6094 Q199.7188,309.4531 200.5469,309.0781 L200.5469,311.2969 Q199.8125,311.6094 199.0156,311.7656 Q198.2344,311.9219 197.4688,311.9219 Z " fill="#000000"/><text fill="#000000" font-family="sans-serif" font-size="14" lengthAdjust="spacing" textLength="82" x="212" y="310.432">LedgerEntry</text></g><!--MD5=[fd7366e9f96236d9aa60dcc04f2b83e5]
class Content--><g id="elem_Content"><rect codeLine="24" fill="#F1F1F1" height="32" id="Content" rx="2.5" ry="2.5" style="stroke:#181818;stroke-width:0.5;" width="85" x="568" y="440"/><ellipse cx="583" cy="456" fill="#C2C2C2" rx="11" ry="11" style="stroke:#181818;stroke-width:1.0;"/><path d="M582.4688,462.9219 Q580.7188,462.9219 579.5781,462.1875 Q578.4531,461.4375 577.8906,460.0938 Q577.3438,458.7344 577.3438,456.9375 Q577.3438,454.9063 578,453.4531 Q578.6563,452 579.9375,451.2188 Q581.2188,450.4375 583.0938,450.4375 Q583.9844,450.4375 584.6563,450.625 Q585.3281,450.7969 586.0156,451.1406 L585.2031,453.1563 Q584.5781,452.8438 584.0313,452.7188 Q583.5,452.5938 583.0156,452.5938 Q581.8438,452.5938 581.1406,453.125 Q580.4375,453.6563 580.1406,454.6094 Q579.8438,455.5625 579.8438,456.8281 Q579.8438,458.8438 580.5625,459.8125 Q581.2813,460.7656 582.875,460.7656 Q583.4688,460.7656 584.0938,460.6094 Q584.7188,460.4531 585.5469,460.0781 L585.5469,462.2969 Q584.8125,462.6094 584.0156,462.7656 Q583.2344,462.9219 582.4688,462.9219 Z " fill="#000000"/><text fill="#000000" font-family="sans-serif" font-size="14" lengthAdjust="spacing" textLength="53" x="597" y="461.432">Content</text></g><!--MD5=[b34ad0795e0eeccd752a3970dd825c77]
class Ownership--><g id="elem_Ownership"><rect codeLine="26" fill="#F1F1F1" height="32" id="Ownership" rx="2.5" ry="2.5" style="stroke:#181818;stroke-width:0.5;" width="106" x="377" y="440"/><ellipse cx="392" cy="456" fill="#C2C2C2" rx="11" ry="11" style="stroke:#181818;stroke-width:1.0;"/><path d="M391.4688,462.9219 Q389.7188,462.9219 388.5781,462.1875 Q387.4531,461.4375 386.8906,460.0938 Q386.3438,458.7344 386.3438,456.9375 Q386.3438,454.9063 387,453.4531 Q387.6563,452 388.9375,451.2188 Q390.2188,450.4375 392.0938,450.4375 Q392.9844,450.4375 393.6563,450.625 Q394.3281,450.7969 395.0156,451.1406 L394.2031,453.1563 Q393.5781,452.8438 393.0313,452.7188 Q392.5,452.5938 392.0156,452.5938 Q390.8438,452.5938 390.1406,453.125 Q389.4375,453.6563 389.1406,454.6094 Q388.8438,455.5625 388.8438,456.8281 Q388.8438,458.8438 389.5625,459.8125 Q390.2813,460.7656 391.875,460.7656 Q392.4688,460.7656 393.0938,460.6094 Q393.7188,460.4531 394.5469,460.0781 L394.5469,462.2969 Q393.8125,462.6094 393.0156,462.7656 Q392.2344,462.9219 391.4688,462.9219 Z " fill="#000000"/><text fill="#000000" font-family="sans-serif" font-size="14" lengthAdjust="spacing" textLength="74" x="406" y="461.432">Ownership</text></g><!--MD5=[b1fae75f0b6ba24f22f55fa7b0d9c778]
class OpenDate--><g id="elem_OpenDate"><rect codeLine="28" fill="#F1F1F1" height="32" id="OpenDate" rx="2.5" ry="2.5" style="stroke:#181818;stroke-width:0.5;" width="100" x="7" y="440"/><ellipse cx="22" cy="456" fill="#C2C2C2" rx="11" ry="11" style="stroke:#181818;stroke-width:1.0;"/><path d="M21.4688,462.9219 Q19.7188,462.9219 18.5781,462.1875 Q17.4531,461.4375 16.8906,460.0938 Q16.3438,458.7344 16.3438,456.9375 Q16.3438,454.9063 17,453.4531 Q17.6563,452 18.9375,451.2188 Q20.2188,450.4375 22.0938,450.4375 Q22.9844,450.4375 23.6563,450.625 Q24.3281,450.7969 25.0156,451.1406 L24.2031,453.1563 Q23.5781,452.8438 23.0313,452.7188 Q22.5,452.5938 22.0156,452.5938 Q20.8438,452.5938 20.1406,453.125 Q19.4375,453.6563 19.1406,454.6094 Q18.8438,455.5625 18.8438,456.8281 Q18.8438,458.8438 19.5625,459.8125 Q20.2813,460.7656 21.875,460.7656 Q22.4688,460.7656 23.0938,460.6094 Q23.7188,460.4531 24.5469,460.0781 L24.5469,462.2969 Q23.8125,462.6094 23.0156,462.7656 Q22.2344,462.9219 21.4688,462.9219 Z " fill="#000000"/><text fill="#000000" font-family="sans-serif" font-size="14" lengthAdjust="spacing" textLength="68" x="36" y="461.432">OpenDate</text></g><!--MD5=[364f60d826873b889bb09a585e42cab2]
class CloseDate--><g id="elem_CloseDate"><rect codeLine="30" fill="#F1F1F1" height="32" id="CloseDate" rx="2.5" ry="2.5" style="stroke:#181818;stroke-width:0.5;" width="99" x="191" y="440"/><ellipse cx="206" cy="456" fill="#C2C2C2" rx="11" ry="11" style="stroke:#181818;stroke-width:1.0;"/><path d="M205.4688,462.9219 Q203.7188,462.9219 202.5781,462.1875 Q201.4531,461.4375 200.8906,460.0938 Q200.3438,458.7344 200.3438,456.9375 Q200.3438,454.9063 201,453.4531 Q201.6563,452 202.9375,451.2188 Q204.2188,450.4375 206.0938,450.4375 Q206.9844,450.4375 207.6563,450.625 Q208.3281,450.7969 209.0156,451.1406 L208.2031,453.1563 Q207.5781,452.8438 207.0313,452.7188 Q206.5,452.5938 206.0156,452.5938 Q204.8438,452.5938 204.1406,453.125 Q203.4375,453.6563 203.1406,454.6094 Q202.8438,455.5625 202.8438,456.8281 Q202.8438,458.8438 203.5625,459.8125 Q204.2813,460.7656 205.875,460.7656 Q206.4688,460.7656 207.0938,460.6094 Q207.7188,460.4531 208.5469,460.0781 L208.5469,462.2969 Q207.8125,462.6094 207.0156,462.7656 Q206.2344,462.9219 205.4688,462.9219 Z " fill="#000000"/><text fill="#000000" font-family="sans-serif" font-size="14" lengthAdjust="spacing" textLength="67" x="220" y="461.432">CloseDate</text></g><!--MD5=[53f6a92bd21ca2f2960392a061f3a1c6]
class Name--><g id="elem_Name"><rect codeLine="32" fill="#F1F1F1" height="32" id="Name" rx="2.5" ry="2.5" style="stroke:#181818;stroke-width:0.5;" width="72" x="725" y="591"/><ellipse cx="740" cy="607" fill="#C2C2C2" rx="11" ry="11" style="stroke:#181818;stroke-width:1.0;"/><path d="M739.4688,613.9219 Q737.7188,613.9219 736.5781,613.1875 Q735.4531,612.4375 734.8906,611.0938 Q734.3438,609.7344 734.3438,607.9375 Q734.3438,605.9063 735,604.4531 Q735.6563,603 736.9375,602.2188 Q738.2188,601.4375 740.0938,601.4375 Q740.9844,601.4375 741.6563,601.625 Q742.3281,601.7969 743.0156,602.1406 L742.2031,604.1563 Q741.5781,603.8438 741.0313,603.7188 Q740.5,603.5938 740.0156,603.5938 Q738.8438,603.5938 738.1406,604.125 Q737.4375,604.6563 737.1406,605.6094 Q736.8438,606.5625 736.8438,607.8281 Q736.8438,609.8438 737.5625,610.8125 Q738.2813,611.7656 739.875,611.7656 Q740.4688,611.7656 741.0938,611.6094 Q741.7188,611.4531 742.5469,611.0781 L742.5469,613.2969 Q741.8125,613.6094 741.0156,613.7656 Q740.2344,613.9219 739.4688,613.9219 Z " fill="#000000"/><text fill="#000000" font-family="sans-serif" font-size="14" lengthAdjust="spacing" textLength="40" x="754" y="612.432">Name</text></g><!--MD5=[0276c55ef034c711ad16864ae0c1a09b]
class Id--><g id="elem_Id"><rect codeLine="34" fill="#F1F1F1" height="32" id="Id" rx="2.5" ry="2.5" style="stroke:#181818;stroke-width:0.5;" width="46" x="380" y="289"/><ellipse cx="395" cy="305" fill="#C2C2C2" rx="11" ry="11" style="stroke:#181818;stroke-width:1.0;"/><path d="M394.4688,311.9219 Q392.7188,311.9219 391.5781,311.1875 Q390.4531,310.4375 389.8906,309.0938 Q389.3438,307.7344 389.3438,305.9375 Q389.3438,303.9063 390,302.4531 Q390.6563,301 391.9375,300.2188 Q393.2188,299.4375 395.0938,299.4375 Q395.9844,299.4375 396.6563,299.625 Q397.3281,299.7969 398.0156,300.1406 L397.2031,302.1563 Q396.5781,301.8438 396.0313,301.7188 Q395.5,301.5938 395.0156,301.5938 Q393.8438,301.5938 393.1406,302.125 Q392.4375,302.6563 392.1406,303.6094 Q391.8438,304.5625 391.8438,305.8281 Q391.8438,307.8438 392.5625,308.8125 Q393.2813,309.7656 394.875,309.7656 Q395.4688,309.7656 396.0938,309.6094 Q396.7188,309.4531 397.5469,309.0781 L397.5469,311.2969 Q396.8125,311.6094 396.0156,311.7656 Q395.2344,311.9219 394.4688,311.9219 Z " fill="#000000"/><text fill="#000000" font-family="sans-serif" font-size="14" lengthAdjust="spacing" textLength="14" x="409" y="310.432">Id</text></g><!--MD5=[d9422169e8aacc29b382c8515b844746]
class Id2--><g id="elem_Id2"><rect codeLine="35" fill="#F1F1F1" height="32" id="Id2" rx="2.5" ry="2.5" style="stroke:#181818;stroke-width:0.5;" width="46" x="658" y="289"/><ellipse cx="673" cy="305" fill="#C2C2C2" rx="11" ry="11" style="stroke:#181818;stroke-width:1.0;"/><path d="M672.4688,311.9219 Q670.7188,311.9219 669.5781,311.1875 Q668.4531,310.4375 667.8906,309.0938 Q667.3438,307.7344 667.3438,305.9375 Q667.3438,303.9063 668,302.4531 Q668.6563,301 669.9375,300.2188 Q671.2188,299.4375 673.0938,299.4375 Q673.9844,299.4375 674.6563,299.625 Q675.3281,299.7969 676.0156,300.1406 L675.2031,302.1563 Q674.5781,301.8438 674.0313,301.7188 Q673.5,301.5938 673.0156,301.5938 Q671.8438,301.5938 671.1406,302.125 Q670.4375,302.6563 670.1406,303.6094 Q669.8438,304.5625 669.8438,305.8281 Q669.8438,307.8438 670.5625,308.8125 Q671.2813,309.7656 672.875,309.7656 Q673.4688,309.7656 674.0938,309.6094 Q674.7188,309.4531 675.5469,309.0781 L675.5469,311.2969 Q674.8125,311.6094 674.0156,311.7656 Q673.2344,311.9219 672.4688,311.9219 Z " fill="#000000"/><text fill="#000000" font-family="sans-serif" font-size="14" lengthAdjust="spacing" textLength="14" x="687" y="310.432">Id</text></g><!--MD5=[9c6177173b963ebfa9b301c323fcb46e]
class GPSPoint--><g id="elem_GPSPoint"><rect codeLine="37" fill="#F1F1F1" height="32" id="GPSPoint" rx="2.5" ry="2.5" style="stroke:#181818;stroke-width:0.5;" width="92" x="772" y="440"/><ellipse cx="787" cy="456" fill="#C2C2C2" rx="11" ry="11" style="stroke:#181818;stroke-width:1.0;"/><path d="M786.4688,462.9219 Q784.7188,462.9219 783.5781,462.1875 Q782.4531,461.4375 781.8906,460.0938 Q781.3438,458.7344 781.3438,456.9375 Q781.3438,454.9063 782,453.4531 Q782.6563,452 783.9375,451.2188 Q785.2188,450.4375 787.0938,450.4375 Q787.9844,450.4375 788.6563,450.625 Q789.3281,450.7969 790.0156,451.1406 L789.2031,453.1563 Q788.5781,452.8438 788.0313,452.7188 Q787.5,452.5938 787.0156,452.5938 Q785.8438,452.5938 785.1406,453.125 Q784.4375,453.6563 784.1406,454.6094 Q783.8438,455.5625 783.8438,456.8281 Q783.8438,458.8438 784.5625,459.8125 Q785.2813,460.7656 786.875,460.7656 Q787.4688,460.7656 788.0938,460.6094 Q788.7188,460.4531 789.5469,460.0781 L789.5469,462.2969 Q788.8125,462.6094 788.0156,462.7656 Q787.2344,462.9219 786.4688,462.9219 Z " fill="#000000"/><text fill="#000000" font-family="sans-serif" font-size="14" lengthAdjust="spacing" textLength="60" x="801" y="461.432">GPSPoint</text></g><!--MD5=[5c85d133e2c913f4b8608c8db253c015]
class Record--><g id="elem_Record"><rect codeLine="39" fill="#F1F1F1" height="32" id="Record" rx="2.5" ry="2.5" style="stroke:#181818;stroke-width:0.5;" width="79" x="563" y="591"/><ellipse cx="578" cy="607" fill="#C2C2C2" rx="11" ry="11" style="stroke:#181818;stroke-width:1.0;"/><path d="M577.4688,613.9219 Q575.7188,613.9219 574.5781,613.1875 Q573.4531,612.4375 572.8906,611.0938 Q572.3438,609.7344 572.3438,607.9375 Q572.3438,605.9063 573,604.4531 Q573.6563,603 574.9375,602.2188 Q576.2188,601.4375 578.0938,601.4375 Q578.9844,601.4375 579.6563,601.625 Q580.3281,601.7969 581.0156,602.1406 L580.2031,604.1563 Q579.5781,603.8438 579.0313,603.7188 Q578.5,603.5938 578.0156,603.5938 Q576.8438,603.5938 576.1406,604.125 Q575.4375,604.6563 575.1406,605.6094 Q574.8438,606.5625 574.8438,607.8281 Q574.8438,609.8438 575.5625,610.8125 Q576.2813,611.7656 577.875,611.7656 Q578.4688,611.7656 579.0938,611.6094 Q579.7188,611.4531 580.5469,611.0781 L580.5469,613.2969 Q579.8125,613.6094 579.0156,613.7656 Q578.2344,613.9219 577.4688,613.9219 Z " fill="#000000"/><text fill="#000000" font-family="sans-serif" font-size="14" lengthAdjust="spacing" textLength="47" x="592" y="612.432">Record</text></g><!--MD5=[88e8766322feffc82c07216c67a0b17c]
class EntryContent--><g id="elem_EntryContent"><rect codeLine="41" fill="#F1F1F1" height="32" id="EntryContent" rx="2.5" ry="2.5" style="stroke:#181818;stroke-width:0.5;" width="120" x="445" y="742"/><ellipse cx="460" cy="758" fill="#C2C2C2" rx="11" ry="11" style="stroke:#181818;stroke-width:1.0;"/><path d="M459.4688,764.9219 Q457.7188,764.9219 456.5781,764.1875 Q455.4531,763.4375 454.8906,762.0938 Q454.3438,760.7344 454.3438,758.9375 Q454.3438,756.9063 455,755.4531 Q455.6563,754 456.9375,753.2188 Q458.2188,752.4375 460.0938,752.4375 Q460.9844,752.4375 461.6563,752.625 Q462.3281,752.7969 463.0156,753.1406 L462.2031,755.1563 Q461.5781,754.8438 461.0313,754.7188 Q460.5,754.5938 460.0156,754.5938 Q458.8438,754.5938 458.1406,755.125 Q457.4375,755.6563 457.1406,756.6094 Q456.8438,757.5625 456.8438,758.8281 Q456.8438,760.8438 457.5625,761.8125 Q458.2813,762.7656 459.875,762.7656 Q460.4688,762.7656 461.0938,762.6094 Q461.7188,762.4531 462.5469,762.0781 L462.5469,764.2969 Q461.8125,764.6094 461.0156,764.7656 Q460.2344,764.9219 459.4688,764.9219 Z " fill="#000000"/><text fill="#000000" font-family="sans-serif" font-size="14" lengthAdjust="spacing" textLength="88" x="474" y="763.432">EntryContent</text></g><!--MD5=[dfa58506f944eb9eab559ed07f703544]
class EntryLabel--><g id="elem_EntryLabel"><rect codeLine="43" fill="#F1F1F1" height="32" id="EntryLabel" rx="2.5" ry="2.5" style="stroke:#181818;stroke-width:0.5;" width="103" x="649" y="742"/><ellipse cx="664" cy="758" fill="#C2C2C2" rx="11" ry="11" style="stroke:#181818;stroke-width:1.0;"/><path d="M663.4688,764.9219 Q661.7188,764.9219 660.5781,764.1875 Q659.4531,763.4375 658.8906,762.0938 Q658.3438,760.7344 658.3438,758.9375 Q658.3438,756.9063 659,755.4531 Q659.6563,754 660.9375,753.2188 Q662.2188,752.4375 664.0938,752.4375 Q664.9844,752.4375 665.6563,752.625 Q666.3281,752.7969 667.0156,753.1406 L666.2031,755.1563 Q665.5781,754.8438 665.0313,754.7188 Q664.5,754.5938 664.0156,754.5938 Q662.8438,754.5938 662.1406,755.125 Q661.4375,755.6563 661.1406,756.6094 Q660.8438,757.5625 660.8438,758.8281 Q660.8438,760.8438 661.5625,761.8125 Q662.2813,762.7656 663.875,762.7656 Q664.4688,762.7656 665.0938,762.6094 Q665.7188,762.4531 666.5469,762.0781 L666.5469,764.2969 Q665.8125,764.6094 665.0156,764.7656 Q664.2344,764.9219 663.4688,764.9219 Z " fill="#000000"/><text fill="#000000" font-family="sans-serif" font-size="14" lengthAdjust="spacing" textLength="71" x="678" y="763.432">EntryLabel</text></g><!--MD5=[b4b6daae9e021214adbaa7d7619376d1]
link Area to GPSPoint--><g id="link_Area_GPSPoint"><path codeLine="45" d="M819.8,321.11 C819.41,349.66 818.59,411.26 818.2,439.85 " fill="none" id="Area-GPSPoint" style="stroke:#181818;stroke-width:1.0;"/><polygon fill="#000000" points="823.9326,385.8526,826.9932,376.8479,821.1158,376.7687,823.9326,385.8526" style="stroke:#000000;stroke-width:1.0;"/><text fill="#000000" font-family="sans-serif" font-size="13" lengthAdjust="spacing" textLength="92" x="833" y="385.897">has boundaries</text><text fill="#000000" font-family="sans-serif" font-size="13" lengthAdjust="spacing" textLength="7" x="802.72" y="343.0905">1</text><text fill="#000000" font-family="sans-serif" font-size="13" lengthAdjust="spacing" textLength="7" x="810.0244" y="428.0912">*</text></g><!--MD5=[9e23d22ea6a67f437957dd21e04490bf]
link Garden to Area--><g id="link_Garden_Area"><path codeLine="46" d="M743.62,170.11 C759.91,198.66 795.05,260.26 811.36,288.85 " fill="none" id="Garden-Area" style="stroke:#181818;stroke-width:1.0;"/><polygon fill="#000000" points="789.4776,234.196,787.5483,224.8832,782.4428,227.7958,789.4776,234.196" style="stroke:#000000;stroke-width:1.0;"/><text fill="#000000" font-family="sans-serif" font-size="13" lengthAdjust="spacing" textLength="63" x="796" y="234.897">defined by</text><text fill="#000000" font-family="sans-serif" font-size="13" lengthAdjust="spacing" textLength="7" x="754.323" y="192.0905">1</text><text fill="#000000" font-family="sans-serif" font-size="13" lengthAdjust="spacing" textLength="7" x="800.2133" y="277.0912">1</text></g><!--MD5=[e39d17af40a02a18e6362ca8aa1868e4]
link Garden to GardenName--><g id="link_Garden_GardenName"><path codeLine="47" d="M771.51,170.06 C798.95,182.04 836.99,200.04 868,220 C900.6,240.98 934.61,270.87 953.96,288.76 " fill="none" id="Garden-GardenName" style="stroke:#181818;stroke-width:1.0;"/><polygon fill="#000000" points="903.1911,232.5797,897.212,225.1836,894.0066,230.1105,903.1911,232.5797" style="stroke:#000000;stroke-width:1.0;"/><text fill="#000000" font-family="sans-serif" font-size="13" lengthAdjust="spacing" textLength="42" x="908" y="234.897">named</text><text fill="#000000" font-family="sans-serif" font-size="13" lengthAdjust="spacing" textLength="7" x="808.9108" y="177.4417">1</text><text fill="#000000" font-family="sans-serif" font-size="13" lengthAdjust="spacing" textLength="7" x="940.2431" y="277.274">1</text></g><!--MD5=[0b6741397ce0b9625a4ea5f957003640]
link Valve to Device--><g id="link_Valve_Device"><path codeLine="48" d="M450.07,39.05 C429.65,59.62 392.6,96.96 366.49,123.28 " fill="none" id="Valve-to-Device" style="stroke:#181818;stroke-width:1.0;"/><polygon fill="none" points="371.29,128.38,352.24,137.65,361.35,118.52,371.29,128.38" style="stroke:#181818;stroke-width:1.0;"/><text fill="#000000" font-family="sans-serif" font-size="13" lengthAdjust="spacing" textLength="9" x="420" y="83.897">is</text></g><!--MD5=[43da8a79e9107d520d0e8617e8cfae84]
link ParkSensor to Device--><g id="link_ParkSensor_Device"><path codeLine="49" d="M204.5,39.05 C228.76,59.91 273.07,98.02 303.73,124.39 " fill="none" id="ParkSensor-to-Device" style="stroke:#181818;stroke-width:1.0;"/><polygon fill="none" points="308.55,119.3,319.15,137.65,299.42,129.91,308.55,119.3" style="stroke:#181818;stroke-width:1.0;"/><text fill="#000000" font-family="sans-serif" font-size="13" lengthAdjust="spacing" textLength="9" x="259" y="83.897">is</text></g><!--MD5=[5ee14bda416f46f4153ab3bd82656692]
link StoveSensor to Device--><g id="link_StoveSensor_Device"><path codeLine="50" d="M337,39.05 C337,58.17 337,91.79 337,117.57 " fill="none" id="StoveSensor-to-Device" style="stroke:#181818;stroke-width:1.0;"/><polygon fill="none" points="344,117.65,337,137.65,330,117.65,344,117.65" style="stroke:#181818;stroke-width:1.0;"/><text fill="#000000" font-family="sans-serif" font-size="13" lengthAdjust="spacing" textLength="9" x="338" y="83.897">is</text></g><!--MD5=[52b24ffa9ce15e5e73671ab1489b36fb]
link Device to LedgerEntry--><g id="link_Device_LedgerEntry"><path codeLine="51" d="M327.17,170.11 C308.57,198.66 268.47,260.26 249.86,288.85 " fill="none" id="Device-LedgerEntry" style="stroke:#181818;stroke-width:1.0;"/><polygon fill="#000000" points="297.2719,234.0431,304.67,228.0667,299.7442,224.8596,297.2719,234.0431" style="stroke:#000000;stroke-width:1.0;"/><text fill="#000000" font-family="sans-serif" font-size="13" lengthAdjust="spacing" textLength="47" x="309" y="234.897">has info</text><text fill="#000000" font-family="sans-serif" font-size="13" lengthAdjust="spacing" textLength="7" x="286.1785" y="187.3127">1</text><text fill="#000000" font-family="sans-serif" font-size="13" lengthAdjust="spacing" textLength="7" x="245.1258" y="277.0912">*</text></g><!--MD5=[187be54382a2e57d728f22e79db8a79a]
link Device to Id--><g id="link_Device_Id"><path codeLine="52" d="M343.69,170.11 C356.34,198.66 383.63,260.26 396.29,288.85 " fill="none" id="Device-Id" style="stroke:#181818;stroke-width:1.0;"/><polygon fill="#000000" points="380.0251,234.4245,379.0487,224.9642,373.6746,227.3449,380.0251,234.4245" style="stroke:#000000;stroke-width:1.0;"/><text fill="#000000" font-family="sans-serif" font-size="13" lengthAdjust="spacing" textLength="21" x="387" y="234.897">has</text><text fill="#000000" font-family="sans-serif" font-size="13" lengthAdjust="spacing" textLength="7" x="346.7385" y="192.0905">1</text><text fill="#000000" font-family="sans-serif" font-size="13" lengthAdjust="spacing" textLength="7" x="385.6527" y="277.0912">1</text></g><!--MD5=[dc5cbd335d15165aca35ac3aab267622]
link Garden to Id2--><g id="link_Garden_Id2"><path codeLine="53" d="M728.99,170.18 C723.83,183.32 716.26,202.85 710,220 C701.28,243.91 691.75,271.9 686.08,288.77 " fill="none" id="Garden-Id2" style="stroke:#181818;stroke-width:1.0;"/><polygon fill="#000000" points="713.2988,234.5547,719.1399,227.0492,713.6127,225.0493,713.2988,234.5547" style="stroke:#000000;stroke-width:1.0;"/><text fill="#000000" font-family="sans-serif" font-size="13" lengthAdjust="spacing" textLength="21" x="724" y="234.897">has</text><text fill="#000000" font-family="sans-serif" font-size="13" lengthAdjust="spacing" textLength="7" x="694.5095" y="191.5777">1</text><text fill="#000000" font-family="sans-serif" font-size="13" lengthAdjust="spacing" textLength="7" x="679.6231" y="277.2874">1</text></g><!--MD5=[c6704d10aace54d3fe2a9af63fd35024]
link LedgerEntry to OpenDate--><g id="link_LedgerEntry_OpenDate"><path codeLine="54" d="M221.45,321.11 C186.37,349.66 110.72,411.26 75.6,439.85 " fill="none" id="LedgerEntry-OpenDate" style="stroke:#181818;stroke-width:1.0;"/><polygon fill="#000000" points="161.1225,384.0098,169.9924,380.5783,166.2815,376.02,161.1225,384.0098" style="stroke:#000000;stroke-width:1.0;"/><text fill="#000000" font-family="sans-serif" font-size="13" lengthAdjust="spacing" textLength="21" x="174" y="385.897">has</text><text fill="#000000" font-family="sans-serif" font-size="13" lengthAdjust="spacing" textLength="7" x="167.0425" y="335.1275">1</text><text fill="#000000" font-family="sans-serif" font-size="13" lengthAdjust="spacing" textLength="7" x="73.9794" y="428.0912">1</text></g><!--MD5=[cc72fc02bdde8ede88a3be57cd4cd9cc]
link LedgerEntry to CloseDate--><g id="link_LedgerEntry_CloseDate"><path codeLine="55" d="M239.57,321.18 C239.15,338 238.63,365.94 239,390 C239.26,407.05 239.91,426.6 240.4,439.77 " fill="none" id="LedgerEntry-CloseDate" style="stroke:#181818;stroke-width:1.0;"/><polygon fill="#000000" points="244.035,385.8529,246.9105,376.7875,241.0328,376.8286,244.035,385.8529" style="stroke:#000000;stroke-width:1.0;"/><text fill="#000000" font-family="sans-serif" font-size="13" lengthAdjust="spacing" textLength="21" x="253" y="385.897">has</text><text fill="#000000" font-family="sans-serif" font-size="13" lengthAdjust="spacing" textLength="7" x="220.5835" y="342.5777">1</text><text fill="#000000" font-family="sans-serif" font-size="13" lengthAdjust="spacing" textLength="20" x="216.9281" y="428.2874">0..1</text></g><!--MD5=[c9e02d71fbdac86e454efa6ad456698a]
link LedgerEntry to Content--><g id="link_LedgerEntry_Content"><path codeLine="56" d="M277.83,321.05 C332.45,342.79 436.54,384.31 525,420 C541.14,426.51 558.97,433.76 574.19,439.96 " fill="none" id="LedgerEntry-Content" style="stroke:#181818;stroke-width:1.0;"/><polygon fill="#000000" points="455.6404,382.7149,448.3402,376.6191,446.1514,382.0743,455.6404,382.7149" style="stroke:#000000;stroke-width:1.0;"/><text fill="#000000" font-family="sans-serif" font-size="13" lengthAdjust="spacing" textLength="44" x="460" y="385.897">refer to</text><text fill="#000000" font-family="sans-serif" font-size="13" lengthAdjust="spacing" textLength="7" x="304.3017" y="325.6524">1</text><text fill="#000000" font-family="sans-serif" font-size="13" lengthAdjust="spacing" textLength="7" x="553.0077" y="428.2404">1</text></g><!--MD5=[1453041fee6c7f2a115440f048e2fab6]
link LedgerEntry to Ownership--><g id="link_LedgerEntry_Ownership"><path codeLine="57" d="M251.39,321.3 C265.27,339.24 290.09,369.18 316,390 C341.31,410.33 373.77,428.17 397.57,439.99 " fill="none" id="LedgerEntry-Ownership" style="stroke:#181818;stroke-width:1.0;"/><polygon fill="#000000" points="324.8816,384.0047,319.7122,376.0217,316.0072,380.5848,324.8816,384.0047" style="stroke:#000000;stroke-width:1.0;"/><text fill="#000000" font-family="sans-serif" font-size="13" lengthAdjust="spacing" textLength="64" x="330" y="385.897">belongs to</text><text fill="#000000" font-family="sans-serif" font-size="13" lengthAdjust="spacing" textLength="7" x="268.4545" y="343.0637">1</text><text fill="#000000" font-family="sans-serif" font-size="13" lengthAdjust="spacing" textLength="7" x="377.7699" y="428.2811">1</text></g><!--MD5=[e4374b86f52e5d84507cf378b49f4dc4]
link Garden to Ownership--><g id="link_Garden_Ownership"><path codeLine="58" d="M690.33,170.05 C645.71,187.28 578.14,219.64 538,269 C502.26,312.94 528.26,342.12 498,390 C485.44,409.88 465.49,427.96 450.44,439.98 " fill="none" id="Garden-Ownership" style="stroke:#181818;stroke-width:1.0;"/><polygon fill="#000000" points="539.6786,309.0904,547.8839,304.2817,543.4903,300.3771,539.6786,309.0904" style="stroke:#000000;stroke-width:1.0;"/><text fill="#000000" font-family="sans-serif" font-size="13" lengthAdjust="spacing" textLength="64" x="552" y="310.397">belongs to</text><text fill="#000000" font-family="sans-serif" font-size="13" lengthAdjust="spacing" textLength="7" x="652.9404" y="171.9852">1</text><text fill="#000000" font-family="sans-serif" font-size="13" lengthAdjust="spacing" textLength="7" x="449.4749" y="428.2675">1</text></g><!--MD5=[de0487fca35b0f8b67966077cd2b7597]
link Content to Record--><g id="link_Content_Record"><path codeLine="59" d="M610.19,472.11 C608.66,500.66 605.35,562.26 603.81,590.85 " fill="none" id="Content-Record" style="stroke:#181818;stroke-width:1.0;"/><polygon fill="#000000" points="611.7317,536.8458,615.1517,527.9714,609.2823,527.6561,611.7317,536.8458" style="stroke:#000000;stroke-width:1.0;"/><text fill="#000000" font-family="sans-serif" font-size="13" lengthAdjust="spacing" textLength="21" x="621" y="536.897">has</text><text fill="#000000" font-family="sans-serif" font-size="13" lengthAdjust="spacing" textLength="7" x="591.1885" y="494.0905">1</text><text fill="#000000" font-family="sans-serif" font-size="13" lengthAdjust="spacing" textLength="7" x="596.0298" y="579.0912">*</text></g><!--MD5=[000189fa040114ea81161a3f155790a1]
link Content to Name--><g id="link_Content_Name"><path codeLine="60" d="M626.21,472.11 C654.96,500.66 716.97,562.26 745.75,590.85 " fill="none" id="Content-Name" style="stroke:#181818;stroke-width:1.0;"/><polygon fill="#000000" points="702.5474,535.3767,698.2013,526.9172,694.059,531.0874,702.5474,535.3767" style="stroke:#000000;stroke-width:1.0;"/><text fill="#000000" font-family="sans-serif" font-size="13" lengthAdjust="spacing" textLength="21" x="708" y="536.897">has</text><text fill="#000000" font-family="sans-serif" font-size="13" lengthAdjust="spacing" textLength="7" x="657.6715" y="494.0905">1</text><text fill="#000000" font-family="sans-serif" font-size="13" lengthAdjust="spacing" textLength="7" x="732.0703" y="579.0912">1</text></g><!--MD5=[3c6c2e256ba62453627a56b86a8b9b0d]
link Content to GPSPoint--><g id="link_Content_GPSPoint"><path codeLine="61" d="M653.06,444.68 C666.33,441.54 681.19,438.56 695,437 C720.56,434.11 748.96,438.11 771.93,443.17 " fill="none" id="Content-GPSPoint" style="stroke:#181818;stroke-width:1.0;"/><polygon fill="#000000" points="704.9996,427.7895,695.9179,424.9657,695.9926,430.8431,704.9996,427.7895" style="stroke:#000000;stroke-width:1.0;"/><text fill="#000000" font-family="sans-serif" font-size="13" lengthAdjust="spacing" textLength="21" x="709" y="432.897">has</text><text fill="#000000" font-family="sans-serif" font-size="13" lengthAdjust="spacing" textLength="7" x="660.9516" y="434.1552">1</text><text fill="#000000" font-family="sans-serif" font-size="13" lengthAdjust="spacing" textLength="7" x="757.0298" y="436.7238">1</text></g><!--MD5=[2662f6135f559b0c85a3d077851a8c8b]
link Ownership to Domain--><g id="link_Ownership_Domain"><path codeLine="62" d="M430,472.11 C430,500.66 430,562.26 430,590.85 " fill="none" id="Ownership-Domain" style="stroke:#181818;stroke-width:1.0;"/><polygon fill="#000000" points="435,536.853,437.9389,527.8079,432.0611,527.8079,435,536.853" style="stroke:#000000;stroke-width:1.0;"/><text fill="#000000" font-family="sans-serif" font-size="13" lengthAdjust="spacing" textLength="50" x="444" y="536.897">refers to</text><text fill="#000000" font-family="sans-serif" font-size="13" lengthAdjust="spacing" textLength="7" x="411.975" y="494.0905">1</text><text fill="#000000" font-family="sans-serif" font-size="13" lengthAdjust="spacing" textLength="7" x="421.7531" y="579.0912">*</text></g><!--MD5=[d9ba76ab0a51844325e627d5d77dd09f]
link Record to EntryContent--><g id="link_Record_EntryContent"><path codeLine="63" d="M593.06,623.11 C574.28,651.66 533.77,713.26 514.96,741.85 " fill="none" id="Record-EntryContent" style="stroke:#181818;stroke-width:1.0;"/><polygon fill="#000000" points="561.2524,687.0304,568.6783,681.0885,563.7675,677.8584,561.2524,687.0304" style="stroke:#000000;stroke-width:1.0;"/><text fill="#000000" font-family="sans-serif" font-size="13" lengthAdjust="spacing" textLength="21" x="573" y="687.897">has</text><text fill="#000000" font-family="sans-serif" font-size="13" lengthAdjust="spacing" textLength="7" x="547.887" y="643.4979">1</text><text fill="#000000" font-family="sans-serif" font-size="13" lengthAdjust="spacing" textLength="7" x="510.2614" y="730.0912">1</text></g><!--MD5=[4626dc4f90dbf094651af30d69b0b6a0]
link Record to EntryLabel--><g id="link_Record_EntryLabel"><path codeLine="64" d="M612.94,623.11 C631.72,651.66 672.23,713.26 691.04,741.85 " fill="none" id="Record-EntryLabel" style="stroke:#181818;stroke-width:1.0;"/><polygon fill="#000000" points="664.7476,687.0304,662.2325,677.8584,657.3217,681.0885,664.7476,687.0304" style="stroke:#000000;stroke-width:1.0;"/><text fill="#000000" font-family="sans-serif" font-size="13" lengthAdjust="spacing" textLength="21" x="671" y="687.897">has</text><text fill="#000000" font-family="sans-serif" font-size="13" lengthAdjust="spacing" textLength="7" x="627.801" y="645.0905">1</text><text fill="#000000" font-family="sans-serif" font-size="13" lengthAdjust="spacing" textLength="7" x="679.423" y="730.0912">1</text></g><!--MD5=[29574c1f576a0e586049053111a48f05]
@startuml model

skinparam Monochrome true
skinparam Shadowing false
hide empty members

class Domain

class ParkSensor as "Park Sensor"

class StoveSensor as "Stove Sensor"

class Valve

class Garden as "Irrigation Zone"

class GardenName as "Name"

interface Device

class Area

class LedgerEntry

class Content

class Ownership

class OpenDate

class CloseDate

class Name

class Id
class Id2 as "Id"

class GPSPoint

class Record

class EntryContent

class EntryLabel

Area "1" - - "*" GPSPoint: has boundaries >
Garden "1" - - "1" Area: defined by >
Garden "1" - - "1" GardenName: named >
Valve - -|> Device : is
ParkSensor - -|> Device : is
StoveSensor - -|> Device : is
Device "1" - - "*" LedgerEntry: has info >
Device "1" - - "1" Id: has >
Garden "1" - - "1" Id2: has >
LedgerEntry "1" - - "1" OpenDate: has >
LedgerEntry "1" - - "0..1" CloseDate: has >
LedgerEntry "1" - - "1" Content: refer to >
LedgerEntry "1" - - "1" Ownership: belongs to >
Garden "1" - - "1" Ownership: belongs to >
Content "1" - - "*" Record: has >
Content "1" - - "1" Name: has >
Content "1" - "1" GPSPoint: has >
Ownership "1" - - "*" Domain: refers to >
Record "1" - - "1" EntryContent: has >
Record "1" - - "1" EntryLabel: has >

@enduml

PlantUML version 1.2022.4(Sat Apr 09 14:29:17 WEST 2022)
(GPL source distribution)
Java Runtime: OpenJDK Runtime Environment
JVM: OpenJDK 64-Bit Server VM
Default Encoding: UTF-8
Language: en
Country: GB
--></g></svg>